<?xml version="1.0" encoding="UTF-8"?>
<svg xmlns="http://www.w3.org/2000/svg" xmlns:xlink="http://www.w3.org/1999/xlink" version="1.2" >
<font id="PFBagueSansPro-Medium">
<font-face  font-family="PF Bague Sans Pro" units-per-em="1000" ascent="750" descent="-250" font-style="normal" font-weight="500" font-stretch="normal" cap-height="659" x-height="445" underline-position="-85" underline-thickness="60" />
<missing-glyph  horiz-adv-x="451" d="M5 699 L444 699 L444 0 L5 0 L5 699 Z M224 301 Q189 237 153 174.5 Q117 112 82 48 L366 48 Q331 112 295 174.5 Q259 237 224 301 Z M82 648 Q118 585 153 522 Q188 459 224 396 L366 648 L82 648 Z M395 99 L395 598 Q360 535 325 473.5 Q290 412 254 349 L395 99 Z M194 349 Q159 412 124 473.5 Q89 535 53 598 L53 99 L194 349 Z " />
<glyph glyph-name="NULL" d="" />
<glyph glyph-name="nonmarkingreturn" unicode="&#xd;" horiz-adv-x="240" d="" />
<glyph glyph-name="space" unicode="&#x20;" horiz-adv-x="240" d="" />
<glyph glyph-name="percent" unicode="&#x25;" horiz-adv-x="765" d="M170 -24 L100 -24 L588 683 L658 683 L170 -24 Z M199 677 Q236 677 266 664.5 Q296 652 317.5 630.5 Q339 609 350.5 579.5 Q362 550 362 517 Q362 484 350 454.5 Q338 425 316.5 403 Q295 381 265 368.5 Q235 356 199 356 Q160 356 129.5 368.5 Q99 381 78 402.5 Q57 424 46 453.5 Q35 483 35 517 Q35 550 47.5 579.5 Q60 609 81.5 630.5 Q103 652 133 664.5 Q163 677 199 677 Z M200 607 Q162 607 138.5 580.5 Q115 554 115 517 Q115 477 137 450.5 Q159 424 200 424 Q238 424 260.5 451.5 Q283 479 283 517 Q283 554 260 580.5 Q237 607 200 607 Z M568 311 Q604 311 634 298.5 Q664 286 685.5 264.5 Q707 243 719 213.5 Q731 184 731 151 Q731 118 719 88.5 Q707 59 685 37.5 Q663 16 633.5 3.5 Q604 -9 568 -9 Q529 -9 498.5 3 Q468 15 447 36.5 Q426 58 415 87 Q404 116 404 150 Q404 183 416 212.5 Q428 242 449.5 264 Q471 286 501.5 298.5 Q532 311 568 311 Z M568 242 Q531 242 507.5 215 Q484 188 484 151 Q484 112 506 85.5 Q528 59 568 59 Q607 59 630 86 Q653 113 653 151 Q653 188 629.5 215 Q606 242 568 242 Z " />
<glyph glyph-name="ampersand" unicode="&#x26;" horiz-adv-x="701" d="M622 -58 Q582 -36 542 -10.5 Q502 15 463 44 Q423 14 375 -3.5 Q327 -21 266 -21 Q167 -21 112 25.5 Q57 72 57 155 Q57 180 65 208.5 Q73 237 90 263.5 Q107 290 133 313 Q159 336 194 352 Q165 419 165 475 Q165 515 178 550 Q191 585 217 610 Q243 635 281 649.5 Q319 664 369 664 Q405 664 443 656 Q481 648 516 631 Q516 625 515.5 613.5 Q515 602 514 589.5 Q513 577 512.5 565.5 Q512 554 511 548 Q483 561 446.5 571 Q410 581 378 581 Q348 581 327 572.5 Q306 564 292.5 549 Q279 534 273 514 Q267 494 267 472 Q267 402 320.5 320.5 Q374 239 464 160 Q496 201 519.5 255.5 Q543 310 558 373 Q578 362 595.5 351 Q613 340 633 328 Q617 269 592 211.5 Q567 154 529 106 Q567 76 608 49.5 Q649 23 697 -2 L622 -58 Z M279 58 Q314 58 343 69 Q372 80 395 98 Q347 140 306 185.5 Q265 231 236 279 Q200 263 178 231 Q156 199 156 167 Q156 113 191.5 85.5 Q227 58 279 58 Z " />
<glyph glyph-name="quotesingle" unicode="&#x27;" horiz-adv-x="211" d="M65 457 L65 682 L146 682 L146 457 L65 457 Z " />
<glyph glyph-name="parenleft" unicode="&#x28;" horiz-adv-x="305" d="M290 712 Q224 615 191.5 512 Q159 409 159 302 Q159 198 191 95 Q223 -8 289 -107 L229 -134 Q190 -87 160 -34 Q130 19 109.5 75.5 Q89 132 78 189.5 Q67 247 67 303 Q67 418 110 530 Q153 642 230 735 L290 712 Z " />
<glyph glyph-name="parenright" unicode="&#x29;" horiz-adv-x="305" d="M81 735 Q159 642 202 530 Q245 418 245 303 Q245 247 234 189.5 Q223 132 202.5 75.5 Q182 19 152 -34 Q122 -87 83 -134 L23 -107 Q89 -8 121 95 Q153 198 153 302 Q153 406 120 510.5 Q87 615 22 712 L81 735 Z " />
<glyph glyph-name="asterisk" unicode="&#x2a;" horiz-adv-x="447" d="M336 409 L247 478 L261 364 L185 364 L198 477 L107 408 Q105 412 99 421.5 Q93 431 87 442.5 Q81 454 75.5 463.5 Q70 473 68 477 Q74 479 89 485 Q104 491 120.5 497.5 Q137 504 152 510 Q167 516 173 518 Q166 521 151.5 527.5 Q137 534 120.5 541 Q104 548 89.5 554 Q75 560 68 563 L106 631 L195 562 Q194 569 192 584.5 Q190 600 188.5 617.5 Q187 635 185.5 651 Q184 667 183 674 L260 674 L246 562 Q252 566 264.5 576 Q277 586 291 596.5 Q305 607 317.5 616.5 Q330 626 336 630 Q339 625 344.5 615.5 Q350 606 355.5 596 Q361 586 366 576.5 Q371 567 374 563 Q368 560 353.5 554 Q339 548 323 541.5 Q307 535 292.5 529 Q278 523 272 520 L375 478 L336 409 Z " />
<glyph glyph-name="plus" unicode="&#x2b;" horiz-adv-x="560" d="M314 93 L244 93 L244 261 L80 261 L80 328 L244 328 L244 493 L314 493 L314 328 L477 328 L477 261 L314 261 L314 93 Z " />
<glyph glyph-name="comma" unicode="&#x2c;" horiz-adv-x="214" d="M43 53 Q43 80 61.5 98 Q80 116 106 116 Q133 116 150.5 98.5 Q168 81 168 52 Q168 32 159 4.5 Q150 -23 136.5 -51.5 Q123 -80 107.5 -107 Q92 -134 79 -153 L32 -147 L78 -2 Q61 5 52 20.5 Q43 36 43 53 Z " />
<glyph glyph-name="hyphen" unicode="&#x2d;" horiz-adv-x="375" d="M56 282 L318 282 L318 207 L56 207 L56 282 Z " />
<glyph glyph-name="period" unicode="&#x2e;" horiz-adv-x="213" d="M166 52 Q166 27 148 9 Q130 -9 105 -9 Q79 -9 61.5 9 Q44 27 44 52 Q44 78 61.5 96.5 Q79 115 105 115 Q131 115 148.5 96.5 Q166 78 166 52 Z " />
<glyph glyph-name="slash" unicode="&#x2f;" horiz-adv-x="325" d="M-22 -89 Q52 105 126 297.5 Q200 490 275 685 L355 685 Q280 490 205.5 297.5 Q131 105 55 -89 L-22 -89 Z " />
<glyph glyph-name="zero" unicode="0" horiz-adv-x="560" d="M279 672 Q356 672 404.5 639.5 Q453 607 481 556.5 Q509 506 519 445.5 Q529 385 529 329 Q529 273 518 213.5 Q507 154 479 104 Q451 54 402 22 Q353 -10 278 -10 Q203 -10 154.5 21 Q106 52 78.5 100.5 Q51 149 40 209.5 Q29 270 29 329 Q29 385 39.5 445.5 Q50 506 78 556.5 Q106 607 154.5 639.5 Q203 672 279 672 Z M279 586 Q232 586 204 560.5 Q176 535 161 496.5 Q146 458 141 413.5 Q136 369 136 330 Q136 289 141 244.5 Q146 200 161 162 Q176 124 204 99.5 Q232 75 279 75 Q325 75 353 100 Q381 125 396.5 162.5 Q412 200 417 245 Q422 290 422 330 Q422 370 417 415 Q412 460 396.5 498 Q381 536 353 561 Q325 586 279 586 Z " />
<glyph glyph-name="one" unicode="1" horiz-adv-x="560" d="M371 0 L261 0 L261 505 L106 428 L106 529 L353 664 L371 664 L371 0 Z " />
<glyph glyph-name="two" unicode="2" horiz-adv-x="560" d="M40 11 Q41 74 56 119.5 Q71 165 97.5 200.5 Q124 236 159.5 264 Q195 292 239 320 Q264 336 291 354 Q318 372 340 392 Q362 412 376.5 435.5 Q391 459 391 487 Q391 539 356.5 564 Q322 589 273 589 Q220 589 189.5 556.5 Q159 524 159 472 Q159 461 160.5 450 Q162 439 165 424 L66 441 Q63 455 62 465.5 Q61 476 61 490 Q61 532 79 566 Q97 600 127 624 Q157 648 196 661 Q235 674 278 674 Q321 674 361 663 Q401 652 432 629 Q463 606 481 571.5 Q499 537 499 490 Q499 457 486 428.5 Q473 400 452 374.5 Q431 349 403.5 327.5 Q376 306 348 288 Q318 269 285.5 248.5 Q253 228 226 203 Q199 178 180 148 Q161 118 157 80 L504 80 L504 0 L57 0 L40 11 Z " />
<glyph glyph-name="three" unicode="3" horiz-adv-x="560" d="M144 358 L323 576 Q323 577 322.5 578 Q322 579 322 580 L52 580 L52 659 L484 659 L484 642 L294 415 Q387 403 436 349.5 Q485 296 485 210 Q485 161 466 120.5 Q447 80 413.5 51.5 Q380 23 334 7 Q288 -9 235 -9 Q187 -9 135.5 0.5 Q84 10 30 44 L30 143 Q55 121 80.5 107.5 Q106 94 130.5 86.5 Q155 79 178 76.5 Q201 74 222 74 Q261 74 291 85 Q321 96 342 115 Q363 134 373.5 160 Q384 186 384 217 Q384 251 370 275.5 Q356 300 333 315.5 Q310 331 280.5 338.5 Q251 346 220 346 Q203 346 188.5 345 Q174 344 157 340 L144 358 Z " />
<glyph glyph-name="four" unicode="4" horiz-adv-x="560" d="M459 456 L459 237 L537 237 L537 158 L459 158 L459 0 L356 0 L356 158 L6 158 L6 173 L324 660 L439 660 L157 237 L356 237 L356 364 Q359 369 367.5 382 Q376 395 385.5 410 Q395 425 404 438 Q413 451 416 456 L459 456 Z " />
<glyph glyph-name="five" unicode="5" horiz-adv-x="560" d="M281 420 Q326 420 368 407 Q410 394 441.5 368 Q473 342 492 302.5 Q511 263 511 210 Q511 159 491.5 118.5 Q472 78 438.5 49.5 Q405 21 359 6 Q313 -9 260 -9 Q194 -9 145 5.5 Q96 20 57 44 L57 144 Q72 129 93 116 Q114 103 139 93.5 Q164 84 191.5 78.5 Q219 73 247 73 Q283 73 313 83.5 Q343 94 364.5 112.5 Q386 131 397.5 156.5 Q409 182 409 212 Q409 246 396.5 271 Q384 296 362.5 312.5 Q341 329 312 336.5 Q283 344 250 344 Q218 344 179.5 336 Q141 328 99 305 Q97 306 90.5 308.5 Q84 311 82 313 L126 660 L483 660 L483 581 L206 581 Q204 572 201 546.5 Q198 521 194 492.5 Q190 464 187 438.5 Q184 413 183 404 Q207 413 233 416.5 Q259 420 281 420 Z " />
<glyph glyph-name="six" unicode="6" horiz-adv-x="560" d="M380 659 L213 393 Q213 390 216 390 Q236 403 261 407 Q286 411 306 411 Q353 411 392.5 395.5 Q432 380 460 352.5 Q488 325 503.5 287 Q519 249 519 204 Q519 156 501.5 116.5 Q484 77 452 49 Q420 21 376 5.5 Q332 -10 280 -10 Q226 -10 181.5 5 Q137 20 105.5 47.5 Q74 75 56.5 115 Q39 155 39 205 Q39 253 55.5 298.5 Q72 344 93 379 L265 659 L380 659 Z M281 338 Q252 338 226.5 329 Q201 320 182.5 303 Q164 286 153.5 261.5 Q143 237 143 207 Q143 179 152 154.5 Q161 130 178.5 112 Q196 94 221.5 84 Q247 74 280 74 Q344 74 380 112 Q416 150 416 207 Q416 235 406.5 259 Q397 283 380 300.5 Q363 318 337.5 328 Q312 338 281 338 Z " />
<glyph glyph-name="seven" unicode="7" horiz-adv-x="560" d="M109 0 L369 580 L63 580 L63 659 L504 659 L504 643 Q432 481 360.5 321 Q289 161 217 0 L109 0 Z " />
<glyph glyph-name="eight" unicode="8" horiz-adv-x="560" d="M396 483 Q396 528 364.5 557.5 Q333 587 282 587 Q231 587 200 557.5 Q169 528 169 483 Q169 438 200.5 409 Q232 380 283 380 Q332 380 364 409 Q396 438 396 483 Z M416 196 Q416 247 381 281.5 Q346 316 281 316 Q251 316 226 307 Q201 298 183 281.5 Q165 265 155.5 243 Q146 221 146 196 Q146 170 155 148 Q164 126 181.5 109 Q199 92 224 82.5 Q249 73 281 73 Q313 73 338 82.5 Q363 92 380.5 109 Q398 126 407 148 Q416 170 416 196 Z M408 352 Q465 327 492 283.5 Q519 240 519 186 Q519 141 501.5 105 Q484 69 452.5 43.5 Q421 18 377 4 Q333 -10 281 -10 Q227 -10 183 3.5 Q139 17 107.5 42 Q76 67 59 103 Q42 139 42 183 Q42 235 70 280 Q98 325 150 346 L151 350 Q127 362 111 378.5 Q95 395 85 413.5 Q75 432 71 452 Q67 472 67 490 Q67 531 83.5 564.5 Q100 598 129 622 Q158 646 197 659 Q236 672 281 672 Q326 672 365 659 Q404 646 432.5 622 Q461 598 477.5 564.5 Q494 531 494 491 Q494 449 471.5 411.5 Q449 374 408 356 L408 352 Z " />
<glyph glyph-name="nine" unicode="9" horiz-adv-x="560" d="M178 0 L345 267 Q345 268 343.5 269 Q342 270 342 271 Q322 258 296.5 253.5 Q271 249 251 249 Q204 249 165.5 264.5 Q127 280 99 307.5 Q71 335 56 373 Q41 411 41 455 Q41 503 58.5 542.5 Q76 582 107.5 610.5 Q139 639 182.5 655 Q226 671 279 671 Q333 671 377 656 Q421 641 452.5 612.5 Q484 584 501 544 Q518 504 518 455 Q518 405 501.5 361.5 Q485 318 464 283 Q457 271 444 248.5 Q431 226 414.5 198 Q398 170 379.5 140 Q361 110 344 83 Q327 56 313.5 33.5 Q300 11 293 0 L178 0 Z M278 323 Q307 323 332 332 Q357 341 375 358 Q393 375 403.5 399 Q414 423 414 453 Q414 481 405 505.5 Q396 530 379 548 Q362 566 337 576 Q312 586 279 586 Q247 586 222 576 Q197 566 180 548 Q163 530 153.5 505.5 Q144 481 144 453 Q144 398 179.5 360.5 Q215 323 278 323 Z " />
<glyph glyph-name="colon" unicode="&#x3a;" horiz-adv-x="232" d="M176 53 Q176 28 157.5 10 Q139 -8 114 -8 Q88 -8 70 10 Q52 28 52 53 Q52 79 70 97 Q88 115 114 115 Q140 115 158 97 Q176 79 176 53 Z M176 346 Q176 320 158 302.5 Q140 285 114 285 Q89 285 71 302.5 Q53 320 53 346 Q53 372 71 389.5 Q89 407 114 407 Q140 407 158 389.5 Q176 372 176 346 Z " />
<glyph glyph-name="less" unicode="&#x3c;" horiz-adv-x="560" d="M481 61 L78 285 L78 299 L481 524 L481 438 L210 293 L481 144 L481 61 Z " />
<glyph glyph-name="equal" unicode="&#x3d;" horiz-adv-x="560" d="M79 179 L79 245 L480 245 L480 179 L79 179 Z M79 345 L79 411 L480 411 L480 345 L79 345 Z " />
<glyph glyph-name="greater" unicode="&#x3e;" horiz-adv-x="560" d="M78 144 L349 293 L78 438 L78 524 L481 299 L481 285 L78 61 L78 144 Z " />
<glyph glyph-name="question" unicode="&#x3f;" horiz-adv-x="510" d="M334 502 Q334 544 303 572.5 Q272 601 213 601 Q171 601 131.5 588.5 Q92 576 58 559 L58 656 Q103 676 146 684 Q189 692 227 692 Q276 692 316.5 679 Q357 666 386 642.5 Q415 619 431 586 Q447 553 447 513 Q447 475 431.5 444 Q416 413 393 386.5 Q370 360 342.5 337 Q315 314 292 293 Q269 272 253.5 251.5 Q238 231 238 209 Q238 190 249 175 L160 156 Q143 190 143 218 Q143 248 157 272.5 Q171 297 192.5 319 Q214 341 238.5 362 Q263 383 284.5 404.5 Q306 426 320 449.5 Q334 473 334 502 Z M272 49 Q272 23 254.5 5.5 Q237 -12 212 -12 Q183 -12 166.5 5.5 Q150 23 150 49 Q150 75 167.5 92.5 Q185 110 212 110 Q238 110 255 92.5 Q272 75 272 49 Z " />
<glyph glyph-name="at" unicode="&#x40;" horiz-adv-x="904" d="M519 317 L462 317 Q444 317 426 314 Q408 311 394 304 Q380 297 371 285 Q362 273 362 255 Q362 230 381 216.5 Q400 203 429 203 Q476 203 497.5 229.5 Q519 256 519 294 L519 317 Z M399 140 Q365 140 341.5 149.5 Q318 159 303 174.5 Q288 190 281 208.5 Q274 227 274 245 Q274 279 288.5 302.5 Q303 326 327.5 340 Q352 354 383.5 360 Q415 366 449 366 L519 366 L519 380 Q519 415 498 433.5 Q477 452 431 452 Q410 452 379.5 444 Q349 436 317 419 L317 491 Q344 505 381.5 512.5 Q419 520 449 520 Q536 520 571.5 479.5 Q607 439 607 369 L607 263 Q607 231 615.5 213.5 Q624 196 654 196 Q678 196 695.5 208 Q713 220 725 240.5 Q737 261 743 287 Q749 313 749 342 Q749 398 729.5 446.5 Q710 495 673.5 530.5 Q637 566 585 586.5 Q533 607 469 607 Q401 607 343 583 Q285 559 243 517.5 Q201 476 177 419.5 Q153 363 153 298 Q153 233 174.5 179 Q196 125 235.5 85 Q275 45 331 23 Q387 1 456 1 Q507 1 562 16 Q617 31 671 71 L671 -9 Q643 -28 614 -40 Q585 -52 556.5 -58.5 Q528 -65 502 -67.5 Q476 -70 455 -70 Q368 -70 298 -42 Q228 -14 179 35 Q130 84 103.5 151.5 Q77 219 77 297 Q77 377 107 446.5 Q137 516 190 567.5 Q243 619 314 648.5 Q385 678 468 678 Q549 678 615 652.5 Q681 627 728 582 Q775 537 800.5 476.5 Q826 416 826 346 Q826 304 814 264.5 Q802 225 778.5 195 Q755 165 721 146.5 Q687 128 643 128 Q617 128 598 134 Q579 140 566 150 Q553 160 545.5 172.5 Q538 185 535 198 L533 198 Q532 198 531 199 Q502 165 468 152.5 Q434 140 399 140 Z " />
<glyph glyph-name="A" unicode="A" horiz-adv-x="643" d="M464 126 L175 126 L123 0 L12 0 L313 669 L334 669 L632 0 L517 0 L464 126 Z M208 207 L432 207 L322 467 L318 467 L208 207 Z " />
<glyph glyph-name="B" unicode="B" horiz-adv-x="626" d="M457 356 Q490 345 513 327.5 Q536 310 550 287.5 Q564 265 570.5 240.5 Q577 216 577 192 Q577 151 561.5 115.5 Q546 80 518.5 54.5 Q491 29 453 14.5 Q415 0 369 0 L74 0 L74 661 L345 661 Q387 661 422.5 650 Q458 639 483.5 618.5 Q509 598 523.5 567.5 Q538 537 538 498 Q538 460 518.5 421.5 Q499 383 457 360 L457 356 Z M466 201 Q466 249 430.5 278.5 Q395 308 334 308 L186 308 L186 91 L342 91 Q380 91 404.5 101.5 Q429 112 442.5 128.5 Q456 145 461 164.5 Q466 184 466 201 Z M186 392 L321 392 Q336 392 354.5 395.5 Q373 399 389.5 409 Q406 419 417.5 436.5 Q429 454 429 482 Q429 522 403 547 Q377 572 328 572 L186 572 L186 392 Z " />
<glyph glyph-name="C" unicode="C" horiz-adv-x="618" d="M588 31 Q567 20 542.5 12 Q518 4 492.5 -1 Q467 -6 441.5 -8.5 Q416 -11 395 -11 Q311 -11 246.5 15 Q182 41 138 86.5 Q94 132 71.5 193.5 Q49 255 49 327 Q49 399 74.5 462.5 Q100 526 146.5 572.5 Q193 619 257 646 Q321 673 399 673 Q415 673 436.5 671.5 Q458 670 480.5 666.5 Q503 663 525 657.5 Q547 652 565 644 L565 545 Q523 565 485 571.5 Q447 578 414 578 Q364 578 319 561.5 Q274 545 240 513 Q206 481 186 434 Q166 387 166 327 Q166 214 230 149 Q294 84 408 84 Q450 84 496.5 95.5 Q543 107 588 131 L588 31 Z " />
<glyph glyph-name="D" unicode="D" horiz-adv-x="690" d="M528 332 Q528 383 515 426 Q502 469 475 501 Q448 533 407 551 Q366 569 310 569 L187 569 L187 91 L318 91 Q420 92 474 156 Q528 220 528 332 Z M73 0 L73 660 L307 660 Q387 660 449 635.5 Q511 611 554 567.5 Q597 524 619 464 Q641 404 641 332 Q641 261 620 200.5 Q599 140 558 95.5 Q517 51 457.5 25.5 Q398 0 320 0 L73 0 Z " />
<glyph glyph-name="E" unicode="E" horiz-adv-x="564" d="M530 0 L73 0 L73 660 L508 660 L508 569 L188 569 L188 390 L479 390 L479 301 L188 301 L188 91 L530 91 L530 0 Z " />
<glyph glyph-name="F" unicode="F" horiz-adv-x="528" d="M73 0 L73 660 L512 660 L512 569 L188 569 L188 368 L477 368 L477 279 L188 279 L188 0 L73 0 Z " />
<glyph glyph-name="G" unicode="G" horiz-adv-x="674" d="M48 325 Q48 398 73.5 461.5 Q99 525 146 572.5 Q193 620 258 647 Q323 674 403 674 Q421 674 443.5 672.5 Q466 671 490.5 667 Q515 663 540 656 Q565 649 586 638 L586 535 Q540 560 494 568.5 Q448 577 411 577 Q359 577 314 560 Q269 543 236 510.5 Q203 478 184 431 Q165 384 165 324 Q165 273 179.5 229 Q194 185 223 152 Q252 119 296 100.5 Q340 82 399 82 Q426 82 456.5 88 Q487 94 510 103 L510 334 L614 334 L614 29 Q568 9 508 -0.5 Q448 -10 387 -10 Q304 -10 240.5 16 Q177 42 134 87 Q91 132 69.5 193 Q48 254 48 325 Z " />
<glyph glyph-name="H" unicode="H" horiz-adv-x="684" d="M495 0 L495 299 L188 299 L188 0 L73 0 L73 660 L188 660 L188 391 L495 391 L495 660 L609 660 L609 0 L495 0 Z " />
<glyph glyph-name="I" unicode="I" horiz-adv-x="277" d="M80 0 L80 660 L195 660 L195 0 L80 0 Z " />
<glyph glyph-name="J" unicode="J" horiz-adv-x="477" d="M146 83 Q190 83 217.5 96 Q245 109 260.5 132 Q276 155 281.5 186 Q287 217 287 254 L287 660 L403 660 L403 269 Q403 219 395.5 169 Q388 119 362.5 79 Q337 39 289.5 14 Q242 -11 161 -11 Q145 -11 125.5 -9 Q106 -7 86 -3 Q66 1 47 7 Q28 13 12 21 L12 122 Q43 103 80.5 93 Q118 83 146 83 Z " />
<glyph glyph-name="K" unicode="K" horiz-adv-x="620" d="M189 353 L461 660 L588 660 L306 342 Q339 308 378 263 Q417 218 458 170.5 Q499 123 538.5 78.5 Q578 34 611 0 L476 0 Q444 33 407 76.5 Q370 120 332 165.5 Q294 211 257 254.5 Q220 298 189 331 L189 0 L73 0 L73 660 L189 660 L189 353 Z " />
<glyph glyph-name="L" unicode="L" horiz-adv-x="524" d="M188 660 L188 91 L513 91 L513 0 L73 0 L73 660 L188 660 Z " />
<glyph glyph-name="M" unicode="M" horiz-adv-x="815" d="M397 135 L186 400 Q184 398 183 398 L183 0 L73 0 L73 668 L95 668 Q173 568 251 471 Q329 374 408 274 Q421 291 445.5 322.5 Q470 354 500 392 Q530 430 563.5 471 Q597 512 627.5 550 Q658 588 682.5 619 Q707 650 720 668 L740 668 L740 0 L630 0 Q630 54 630 103 Q630 152 630.5 200.5 Q631 249 631 298.5 Q631 348 631 402 Q629 404 627 404 L418 135 L397 135 Z " />
<glyph glyph-name="N" unicode="N" horiz-adv-x="721" d="M73 0 L73 671 L95 671 Q112 654 146 619 Q180 584 222.5 540.5 Q265 497 311.5 449 Q358 401 400.5 357.5 Q443 314 477.5 279 Q512 244 529 227 L533 227 L533 660 L646 660 L646 -8 L626 -8 Q607 13 572.5 48.5 Q538 84 496 127 Q454 170 408 216.5 Q362 263 320 305.5 Q278 348 243.5 384 Q209 420 190 441 L187 441 L187 0 L73 0 Z " />
<glyph glyph-name="O" unicode="O" horiz-adv-x="794" d="M397 -11 Q315 -11 250.5 15 Q186 41 141 87 Q96 133 72 195.5 Q48 258 48 330 Q48 402 75 464 Q102 526 149 572.5 Q196 619 260 645.5 Q324 672 398 672 Q474 672 538 645.5 Q602 619 648 572.5 Q694 526 719.5 464 Q745 402 745 330 Q745 258 719.5 195.5 Q694 133 647.5 87 Q601 41 537 15 Q473 -11 397 -11 Z M398 575 Q346 575 303 556 Q260 537 229 504 Q198 471 181 426 Q164 381 164 330 Q164 277 180.5 232 Q197 187 227 154 Q257 121 300.5 102 Q344 83 398 83 Q451 83 494 102.5 Q537 122 567.5 155.5 Q598 189 614.5 234 Q631 279 631 330 Q631 381 614.5 425.5 Q598 470 567 503 Q536 536 493 555.5 Q450 575 398 575 Z " />
<glyph glyph-name="P" unicode="P" horiz-adv-x="580" d="M72 659 L312 659 Q373 659 418.5 640.5 Q464 622 494.5 591 Q525 560 540 521 Q555 482 555 440 Q555 390 537 349 Q519 308 487 278.5 Q455 249 411 232.5 Q367 216 315 216 L188 216 L188 0 L72 0 L72 659 Z M187 571 L187 305 L294 305 Q334 305 361.5 317 Q389 329 406 348 Q423 367 430.5 390.5 Q438 414 438 437 Q438 462 429.5 486 Q421 510 403 529 Q385 548 356.5 559.5 Q328 571 288 571 L187 571 Z " />
<glyph glyph-name="Q" unicode="Q" horiz-adv-x="797" d="M400 575 Q348 575 304.5 556 Q261 537 230 504 Q199 471 182 426 Q165 381 165 330 Q165 277 181.5 232 Q198 187 228.5 154 Q259 121 302.5 102 Q346 83 400 83 Q453 83 496 102.5 Q539 122 569.5 155.5 Q600 189 616.5 234 Q633 279 633 330 Q633 381 616.5 425.5 Q600 470 569 503 Q538 536 495 555.5 Q452 575 400 575 Z M399 672 Q475 672 539 645.5 Q603 619 649 572.5 Q695 526 720.5 464 Q746 402 746 330 Q746 276 731 226.5 Q716 177 688 136 Q660 95 620 64 Q580 33 530 15 Q530 14 529.5 13 Q529 12 529 11 Q583 -1 637.5 -13 Q692 -25 747 -39 Q745 -44 740 -58 Q735 -72 729 -87.5 Q723 -103 717.5 -117 Q712 -131 711 -136 Q695 -130 665 -119.5 Q635 -109 598 -96.5 Q561 -84 521 -70.5 Q481 -57 444 -44.5 Q407 -32 377 -21.5 Q347 -11 331 -5 Q264 5 212 34.5 Q160 64 124 108.5 Q88 153 69 210.5 Q50 268 50 333 Q50 405 76.5 466.5 Q103 528 150 574 Q197 620 261 646 Q325 672 399 672 Z " />
<glyph glyph-name="R" unicode="R" horiz-adv-x="617" d="M324 659 Q369 659 411.5 645.5 Q454 632 487.5 605 Q521 578 541 538.5 Q561 499 561 447 Q561 417 552 387.5 Q543 358 523.5 331.5 Q504 305 474 283 Q444 261 403 246 L600 0 L465 0 Q455 11 438.5 33 Q422 55 402 82.5 Q382 110 360.5 139.5 Q339 169 319 196.5 Q299 224 282.5 245.5 Q266 267 257 279 L257 293 Q306 296 342 310 Q378 324 401 344 Q424 364 435.5 389 Q447 414 447 439 Q447 501 408 535.5 Q369 570 306 570 L187 570 L187 0 L72 0 L72 659 L324 659 L324 659 Z " />
<glyph glyph-name="S" unicode="S" horiz-adv-x="518" d="M33 149 Q84 112 139 96.5 Q194 81 234 81 Q262 81 286.5 86 Q311 91 329.5 102.5 Q348 114 358.5 131.5 Q369 149 369 174 Q369 212 345 237 Q321 262 285 281.5 Q249 301 206.5 319 Q164 337 128 360 Q92 383 68 415 Q44 447 44 496 Q44 538 61 571 Q78 604 107 626.5 Q136 649 174.5 661 Q213 673 256 673 Q299 673 346.5 664 Q394 655 442 631 L442 529 Q403 555 356 568 Q309 581 274 581 Q252 581 231 576.5 Q210 572 194 562 Q178 552 168.5 536 Q159 520 159 498 Q159 470 183 451 Q207 432 243 415 Q279 398 321.5 379.5 Q364 361 400 335 Q436 309 460 271.5 Q484 234 484 179 Q484 91 422 40 Q360 -11 249 -11 Q225 -11 197.5 -8.5 Q170 -6 142 0 Q114 6 86 16.5 Q58 27 33 42 L33 149 Z " />
<glyph glyph-name="T" unicode="T" horiz-adv-x="545" d="M330 570 L330 0 L215 0 L215 570 L13 570 L13 661 L531 661 L531 570 L330 570 Z " />
<glyph glyph-name="U" unicode="U" horiz-adv-x="691" d="M503 660 L617 660 L617 253 Q617 196 599.5 147.5 Q582 99 547.5 64 Q513 29 462.5 9 Q412 -11 345 -11 Q277 -11 226 8 Q175 27 141 62 Q107 97 90 145 Q73 193 73 252 L73 660 L188 660 L188 256 Q188 223 197.5 192 Q207 161 226.5 137 Q246 113 275.5 99 Q305 85 346 85 Q386 85 416 98.5 Q446 112 465 134.5 Q484 157 493.5 187 Q503 217 503 251 L503 660 Z " />
<glyph glyph-name="V" unicode="V" horiz-adv-x="614" d="M298 -9 Q286 19 263.5 71.5 Q241 124 212.5 189 Q184 254 153 325 Q122 396 93.5 461 Q65 526 42 578.5 Q19 631 8 659 L129 659 Q134 646 152 601.5 Q170 557 195 494.5 Q220 432 249 359.5 Q278 287 306 218 L311 218 Q319 240 333 275.5 Q347 311 364 353 Q381 395 399 440 Q417 485 433.5 527 Q450 569 464 603.5 Q478 638 486 659 L604 659 L320 -9 L298 -9 Z " />
<glyph glyph-name="W" unicode="W" horiz-adv-x="932" d="M462 431 L289 -9 L268 -9 L8 659 L130 659 L288 252 L291 252 L455 665 L475 665 L642 252 L645 252 L801 659 L922 659 L661 -9 L641 -9 L465 431 L462 431 Z " />
<glyph glyph-name="X" unicode="X" horiz-adv-x="646" d="M323 322 L131 0 L8 0 L223 341 L23 659 L146 659 L323 359 L498 659 L623 659 Q573 579 521.5 500 Q470 421 421 341 L637 0 L511 0 L323 322 Z " />
<glyph glyph-name="Y" unicode="Y" horiz-adv-x="584" d="M302 374 L362 488 Q385 531 407.5 573.5 Q430 616 453 660 L575 660 Q519 563 464.5 466.5 Q410 370 355 273 L355 0 L240 0 L240 273 L8 660 L133 660 L231 491 L298 374 L302 374 Z " />
<glyph glyph-name="Z" unicode="Z" horiz-adv-x="548" d="M526 646 Q513 624 487 580 Q461 536 428 482 Q395 428 359.5 368 Q324 308 291 254 Q258 200 232 156 Q206 112 193 90 L521 90 L521 0 L18 0 L18 12 L354 569 L58 569 L58 660 L526 660 L526 646 Z " />
<glyph glyph-name="bracketleft" unicode="&#x5b;" horiz-adv-x="277" d="M67 729 L245 729 L245 661 L157 661 L157 -60 L245 -60 L245 -125 L67 -125 L67 729 Z " />
<glyph glyph-name="backslash" unicode="&#x5c;" horiz-adv-x="325" d="M276 -89 Q201 105 126.5 297.5 Q52 490 -22 685 L56 685 Q68 653 91.5 592 Q115 531 144 455.5 Q173 380 205 297.5 Q237 215 266.5 140 Q296 65 319.5 4 Q343 -57 355 -89 L276 -89 Z " />
<glyph glyph-name="bracketright" unicode="&#x5d;" horiz-adv-x="277" d="M211 -125 L33 -125 L33 -60 L121 -60 L121 661 L33 661 L33 729 L211 729 L211 -125 Z " />
<glyph glyph-name="asciicircum" unicode="&#x5e;" horiz-adv-x="493" d="M382 331 L245 544 L105 331 L22 331 L235 653 L255 653 L466 331 L382 331 Z " />
<glyph glyph-name="underscore" unicode="&#x5f;" horiz-adv-x="501" d="M3 -74 L497 -74 L497 -132 L3 -132 L3 -74 Z " />
<glyph glyph-name="grave" unicode="&#x60;" horiz-adv-x="492" d="M243 521 L112 656 L196 690 Q203 680 219 656 Q235 632 252.5 605.5 Q270 579 286 555 Q302 531 309 521 L243 521 Z " />
<glyph glyph-name="a" unicode="a" horiz-adv-x="510" d="M350 55 Q326 25 285 7 Q244 -11 190 -11 Q148 -11 119 0.5 Q90 12 72 30.5 Q54 49 46 72 Q38 95 38 117 Q38 150 50 178.5 Q62 207 87.5 227.5 Q113 248 152 260 Q191 272 245 272 L341 272 L341 284 Q341 379 229 379 Q201 379 164 369 Q127 359 89 339 L89 421 Q105 429 125 436 Q145 443 167 447.5 Q189 452 210.5 454.5 Q232 457 251 457 Q304 457 341 444 Q378 431 401.5 407 Q425 383 435.5 348.5 Q446 314 446 272 L446 0 L363 0 L353 55 L350 55 Z M140 130 Q140 95 165.5 78 Q191 61 228 61 Q256 61 277.5 71 Q299 81 313.5 98 Q328 115 335 137 Q342 159 342 183 L342 208 L253 208 Q199 208 169.5 189.5 Q140 171 140 130 Z " />
<glyph glyph-name="b" unicode="b" horiz-adv-x="575" d="M159 391 Q174 409 192.5 422 Q211 435 231 442.5 Q251 450 272 453.5 Q293 457 311 457 Q362 457 403 439.5 Q444 422 473.5 391 Q503 360 519 317 Q535 274 535 223 Q535 173 518.5 130 Q502 87 471.5 55.5 Q441 24 398 6 Q355 -12 303 -12 Q282 -12 259.5 -8 Q237 -4 215.5 4.5 Q194 13 175.5 26.5 Q157 40 144 60 L141 60 L127 0 L54 0 L54 711 L156 711 L156 391 L159 391 Z M161 222 Q161 155 197.5 114.5 Q234 74 294 74 Q325 74 350.5 85.5 Q376 97 394 117 Q412 137 422 164 Q432 191 432 222 Q432 252 422.5 279 Q413 306 395 326 Q377 346 351.5 358 Q326 370 295 370 Q263 370 238.5 358 Q214 346 196.5 326 Q179 306 170 279 Q161 252 161 222 Z " />
<glyph glyph-name="c" unicode="c" horiz-adv-x="437" d="M279 457 Q306 457 337.5 452.5 Q369 448 394 437 L394 348 Q370 362 343.5 367.5 Q317 373 295 373 Q264 373 237 362.5 Q210 352 190 332.5 Q170 313 158.5 284.5 Q147 256 147 220 Q147 153 186 113.5 Q225 74 293 74 Q322 74 353.5 82 Q385 90 410 106 L410 19 Q384 5 344 -3 Q304 -11 269 -11 Q213 -11 170 6.5 Q127 24 98 55 Q69 86 54.5 128 Q40 170 40 218 Q40 270 58 314 Q76 358 107.5 389.5 Q139 421 183 439 Q227 457 279 457 Z " />
<glyph glyph-name="d" unicode="d" horiz-adv-x="576" d="M416 223 Q416 253 407 280 Q398 307 380 327.5 Q362 348 336 359.5 Q310 371 277 371 Q246 371 221 359 Q196 347 178.5 326.5 Q161 306 151.5 279 Q142 252 142 221 Q142 156 178 115 Q214 74 279 74 Q309 74 334 85.5 Q359 97 377.5 117.5 Q396 138 406 165 Q416 192 416 223 Z M419 710 L521 710 Q521 531 521.5 355 Q522 179 522 0 L443 0 L428 57 Q427 58 426 58 Q411 40 392 27 Q373 14 351 5.5 Q329 -3 306.5 -7 Q284 -11 262 -11 Q211 -11 169.5 5 Q128 21 99 51 Q70 81 54.5 123 Q39 165 39 216 Q39 267 55.5 311 Q72 355 102 387.5 Q132 420 173.5 438 Q215 456 265 456 Q300 456 340 445 Q380 434 414 402 L419 404 L419 710 Z " />
<glyph glyph-name="e" unicode="e" horiz-adv-x="521" d="M265 458 Q316 458 355.5 441 Q395 424 422.5 393 Q450 362 464.5 320 Q479 278 479 227 L479 202 L146 202 Q148 168 160.5 143 Q173 118 193 102 Q213 86 239 78.5 Q265 71 294 71 Q333 71 373 82 Q413 93 458 125 L458 38 Q422 13 378 1 Q334 -11 286 -11 Q226 -11 180 6.5 Q134 24 103 55.5 Q72 87 56 130 Q40 173 40 224 Q40 273 56.5 315.5 Q73 358 102.5 389.5 Q132 421 173.5 439.5 Q215 458 265 458 Z M269 379 Q220 379 188.5 349 Q157 319 149 271 L382 271 Q374 320 345.5 349.5 Q317 379 269 379 Z " />
<glyph glyph-name="f" unicode="f" horiz-adv-x="328" d="M356 629 Q336 637 317 640 Q298 643 281 643 Q228 643 207 610.5 Q186 578 186 529 L186 445 L317 445 L317 365 L186 365 L186 0 L82 0 L82 365 L5 365 L5 432 L82 445 L82 529 Q82 573 93 609.5 Q104 646 127 672 Q150 698 185.5 712 Q221 726 269 726 Q311 726 356 713 L356 629 Z " />
<glyph glyph-name="g" unicode="g" horiz-adv-x="511" d="M38 -92 Q38 -57 56.5 -26 Q75 5 108 28 L78 33 Q49 38 37.5 53 Q26 68 26 88 L108 167 Q84 189 72.5 219.5 Q61 250 61 285 Q61 322 75.5 353.5 Q90 385 115 408 Q140 431 174.5 444 Q209 457 249 457 Q269 457 289.5 453 Q310 449 327 444 L482 444 L482 392 Q462 390 443 387 Q424 384 405 381 Q422 361 432 335.5 Q442 310 442 284 Q442 251 429 221 Q416 191 391.5 169 Q367 147 333 134 Q299 121 257 121 Q236 121 210 125.5 Q184 130 164 140 L131 95 L346 71 Q406 64 439 35.5 Q472 7 472 -50 Q472 -78 458.5 -108 Q445 -138 416 -163.5 Q387 -189 342.5 -205.5 Q298 -222 237 -222 Q181 -222 143 -210 Q105 -198 82 -179.5 Q59 -161 48.5 -138 Q38 -115 38 -92 Z M253 191 Q298 191 323.5 219.5 Q349 248 349 289 Q349 330 322 358 Q295 386 253 386 Q211 386 184.5 358 Q158 330 158 289 Q158 246 182.5 218.5 Q207 191 253 191 Z M237 -140 Q273 -140 298 -130.5 Q323 -121 338.5 -106 Q354 -91 360.5 -73.5 Q367 -56 367 -40 Q367 -18 350.5 -9 Q334 0 310 3 L167 20 Q153 5 142.5 -16.5 Q132 -38 132 -61 Q132 -76 137.5 -90.5 Q143 -105 155.5 -116 Q168 -127 188 -133.5 Q208 -140 237 -140 Z " />
<glyph glyph-name="h" unicode="h" horiz-adv-x="540" d="M371 0 L371 260 Q371 311 348 340.5 Q325 370 280 370 Q256 370 234.5 361.5 Q213 353 197 336 Q181 319 171.5 292.5 Q162 266 162 229 L162 0 L55 0 L55 711 L158 711 L158 386 L161 386 Q195 427 232 440.5 Q269 454 309 454 Q390 454 433 407 Q476 360 476 276 L476 0 L371 0 Z " />
<glyph glyph-name="i" unicode="i" horiz-adv-x="250" d="M71 0 L71 445 L177 445 L177 0 L71 0 Z M187 587 Q187 562 170 544 Q153 526 126 526 Q98 526 81.5 544 Q65 562 65 587 Q65 613 84 630.5 Q103 648 126 648 Q152 648 169.5 630.5 Q187 613 187 587 Z " />
<glyph glyph-name="j" unicode="j" horiz-adv-x="238" d="M180 587 Q180 561 163 543.5 Q146 526 120 526 Q92 526 75 543.5 Q58 561 58 587 Q58 613 76.5 630 Q95 647 120 647 Q146 647 163 629.5 Q180 612 180 587 Z M-20 -229 Q-29 -207 -39 -186.5 Q-49 -166 -58 -144 Q-22 -142 2 -132.5 Q26 -123 40.5 -105 Q55 -87 60.5 -60.5 Q66 -34 66 1 L66 445 L171 445 L171 -5 Q171 -65 156 -106.5 Q141 -148 115 -174.5 Q89 -201 54 -214 Q19 -227 -20 -229 Z " />
<glyph glyph-name="k" unicode="k" horiz-adv-x="505" d="M482 444 Q429 392 375 339.5 Q321 287 268 234 Q284 219 316 186 Q348 153 383.5 116.5 Q419 80 451 47.5 Q483 15 499 0 L371 0 L164 220 L164 0 L57 0 L57 711 L164 711 L164 243 Q171 251 186.5 267 Q202 283 221.5 302.5 Q241 322 262.5 343.5 Q284 365 303.5 384.5 Q323 404 338.5 420 Q354 436 361 444 L482 444 L482 444 Z " />
<glyph glyph-name="l" unicode="l" horiz-adv-x="232" d="M64 0 L64 711 L170 711 L170 0 L64 0 Z " />
<glyph glyph-name="m" unicode="m" horiz-adv-x="826" d="M657 0 L657 265 Q657 313 636.5 340.5 Q616 368 574 368 Q555 368 535.5 361.5 Q516 355 500.5 339.5 Q485 324 475.5 297 Q466 270 466 229 L466 0 L360 0 L360 263 Q360 314 339 340.5 Q318 367 280 367 Q259 367 238.5 359.5 Q218 352 202.5 336 Q187 320 177.5 293.5 Q168 267 168 230 L168 0 L63 0 L63 444 L143 444 L157 385 L161 383 Q177 404 196 418 Q215 432 235 440.5 Q255 449 274 452.5 Q293 456 310 456 Q361 456 396 433.5 Q431 411 448 369 Q478 418 519.5 437.5 Q561 457 597 457 Q687 457 724.5 406 Q762 355 762 264 L762 0 L657 0 Z " />
<glyph glyph-name="n" unicode="n" horiz-adv-x="546" d="M377 0 L377 258 Q377 309 353.5 340 Q330 371 288 371 Q264 371 242 362.5 Q220 354 203.5 336.5 Q187 319 177.5 292.5 Q168 266 168 229 L168 0 L63 0 L63 445 L141 445 Q142 441 144 432 Q146 423 148.5 413 Q151 403 153 394 Q155 385 156 381 L160 381 Q194 423 235 439 Q276 455 317 455 Q399 455 440.5 408 Q482 361 482 276 L482 0 L377 0 Z " />
<glyph glyph-name="o" unicode="o" horiz-adv-x="565" d="M283 457 Q337 457 381.5 439 Q426 421 457.5 389.5 Q489 358 506.5 315 Q524 272 524 223 Q524 173 506.5 130.5 Q489 88 457 56.5 Q425 25 380.5 7.5 Q336 -10 283 -10 Q226 -10 181 8 Q136 26 104.5 57 Q73 88 56.5 130.5 Q40 173 40 223 Q40 272 58.5 315 Q77 358 109 389.5 Q141 421 185.5 439 Q230 457 283 457 Z M284 372 Q252 372 226.5 360.5 Q201 349 183 328.5 Q165 308 155.5 281.5 Q146 255 146 225 Q146 193 155 165.5 Q164 138 182 118 Q200 98 225.5 86.5 Q251 75 284 75 Q316 75 341.5 87 Q367 99 385 119 Q403 139 412.5 166.5 Q422 194 422 225 Q422 255 412 281.5 Q402 308 384 328.5 Q366 349 340.5 360.5 Q315 372 284 372 Z " />
<glyph glyph-name="p" unicode="p" horiz-adv-x="579" d="M162 223 Q162 193 171 166 Q180 139 198 118.5 Q216 98 241.5 86.5 Q267 75 300 75 Q333 75 358 87 Q383 99 400.5 119.5 Q418 140 426.5 167 Q435 194 435 225 Q435 290 399.5 331 Q364 372 299 372 Q269 372 244 360 Q219 348 200.5 328 Q182 308 172 281 Q162 254 162 223 Z M158 -216 L55 -216 L55 446 L134 446 L149 383 L153 383 Q181 421 225 439.5 Q269 458 314 458 Q366 458 407.5 441.5 Q449 425 478.5 394.5 Q508 364 523.5 321.5 Q539 279 539 228 Q539 177 522 133.5 Q505 90 475 58.5 Q445 27 403.5 9 Q362 -9 313 -9 Q278 -9 237 1 Q196 11 162 45 Q161 45 161 44.5 Q161 44 160 44 Q159 43 158 43 L158 -216 Z " />
<glyph glyph-name="q" unicode="q" horiz-adv-x="576" d="M416 52 Q389 22 348 6 Q307 -10 262 -10 Q211 -10 170 7 Q129 24 100 54 Q71 84 55 126.5 Q39 169 39 220 Q39 271 56 315 Q73 359 103.5 390.5 Q134 422 176.5 440 Q219 458 271 458 Q313 458 355.5 442 Q398 426 430 388 L434 388 L448 446 L520 446 L520 -215 L419 -215 L419 52 L416 52 Z M414 224 Q414 291 377 331.5 Q340 372 280 372 Q249 372 223.5 360.5 Q198 349 180 329 Q162 309 152 282 Q142 255 142 224 Q142 192 151.5 165 Q161 138 179 118 Q197 98 222 86.5 Q247 75 279 75 Q310 75 335.5 87 Q361 99 378 119.5 Q395 140 404.5 167 Q414 194 414 224 Z " />
<glyph glyph-name="r" unicode="r" horiz-adv-x="352" d="M287 362 Q233 362 200.5 319.5 Q168 277 168 205 L168 0 L63 0 L63 444 L140 444 L155 370 Q156 369 159 369 Q180 412 216.5 434 Q253 456 298 456 Q309 456 321.5 454.5 Q334 453 345 448 L345 351 Q331 356 316 359 Q301 362 287 362 Z " />
<glyph glyph-name="s" unicode="s" horiz-adv-x="387" d="M23 119 Q59 92 100.5 79 Q142 66 171 66 Q207 66 231 78 Q255 90 255 119 Q255 140 239 154.5 Q223 169 198.5 181.5 Q174 194 145.5 206 Q117 218 92.5 234.5 Q68 251 52 273.5 Q36 296 36 330 Q36 361 48.5 384.5 Q61 408 82.5 424 Q104 440 133 448 Q162 456 195 456 Q222 456 259.5 449.5 Q297 443 335 426 L335 340 Q303 358 269.5 367.5 Q236 377 210 377 Q180 377 160 366.5 Q140 356 140 329 Q140 312 156 301 Q172 290 196 279 Q220 268 248.5 256.5 Q277 245 301 227.5 Q325 210 341 185 Q357 160 357 124 Q357 66 312 28 Q267 -10 183 -10 Q148 -10 104 -1.5 Q60 7 23 28 L23 119 Z " />
<glyph glyph-name="t" unicode="t" horiz-adv-x="350" d="M196 586 L196 445 L318 445 L318 365 L196 365 L196 152 Q196 116 209 96.5 Q222 77 257 77 Q271 77 292 83 Q313 89 336 103 L336 20 Q311 3 281.5 -3.5 Q252 -10 229 -10 Q187 -10 160 2 Q133 14 118 36 Q103 58 97 89 Q91 120 91 158 L91 365 L20 365 L20 425 L100 448 L175 586 L196 586 Z " />
<glyph glyph-name="u" unicode="u" horiz-adv-x="538" d="M168 446 L168 186 Q168 136 191.5 105.5 Q215 75 257 75 Q306 75 337.5 109 Q369 143 369 220 L369 445 L474 445 L474 0 L394 0 L378 61 L374 61 Q344 22 307.5 7 Q271 -8 231 -8 Q63 -8 63 172 L63 446 L168 446 Z " />
<glyph glyph-name="v" unicode="v" horiz-adv-x="499" d="M237 -6 Q180 107 124 219 Q68 331 11 445 L125 445 Q137 416 151 388.5 Q165 361 178 333 L249 176 L252 176 Q283 250 312.5 314.5 Q342 379 373 445 L487 445 L259 -6 L237 -6 Z " />
<glyph glyph-name="w" unicode="w" horiz-adv-x="735" d="M377 450 L511 185 L515 185 L624 445 L729 445 L532 -6 L511 -6 L368 280 L367 280 L226 -6 L205 -6 Q155 107 106 219 Q57 331 8 445 L116 445 Q144 379 171 314.5 Q198 250 226 185 L229 185 Q262 251 294.5 317.5 Q327 384 359 450 L377 450 Z " />
<glyph glyph-name="x" unicode="x" horiz-adv-x="490" d="M370 0 Q338 53 307.5 105.5 Q277 158 245 212 L117 0 L8 0 Q16 14 36.5 46 Q57 78 80 114 Q103 150 123.5 182 Q144 214 152 228 Q143 241 124 272 Q105 303 84 336.5 Q63 370 44 400.5 Q25 431 16 445 L125 445 L245 245 Q275 295 304 344.5 Q333 394 364 445 L474 445 Q440 391 404 337 Q368 283 335 229 L481 0 L370 0 L370 0 Z " />
<glyph glyph-name="y" unicode="y" horiz-adv-x="472" d="M239 126 Q245 140 254.5 165.5 Q264 191 275.5 221.5 Q287 252 300 285.5 Q313 319 324.5 349.5 Q336 380 345.5 405.5 Q355 431 361 445 L463 445 L184 -216 L81 -216 Q107 -156 133 -96.5 Q159 -37 185 23 L6 445 L113 445 Q143 367 173.5 285.5 Q204 204 233 126 L239 126 Z " />
<glyph glyph-name="z" unicode="z" horiz-adv-x="428" d="M407 433 Q346 344 286 256 Q226 168 164 79 L400 79 L400 0 L13 0 L13 11 Q24 26 43 54 Q62 82 85.5 116 Q109 150 134.5 187.5 Q160 225 183.5 259 Q207 293 226.5 320.5 Q246 348 257 364 L44 364 L44 445 L407 445 L407 433 Z " />
<glyph glyph-name="braceleft" unicode="&#x7b;" horiz-adv-x="326" d="M147 324 Q186 307 197 270 Q208 233 208 183 L208 10 Q208 -19 217.5 -39.5 Q227 -60 257 -60 L289 -60 L289 -127 L234 -127 Q191 -127 167.5 -109 Q144 -91 133 -64.5 Q122 -38 120 -7 Q118 24 118 50 L118 199 Q118 216 116 235 Q114 254 107 270.5 Q100 287 87.5 299.5 Q75 312 54 317 L54 335 Q90 343 104 373.5 Q118 404 118 441 L118 538 Q118 560 120 593 Q122 626 132.5 656.5 Q143 687 165.5 709 Q188 731 230 731 L289 731 L289 663 L260 663 Q243 663 232.5 657 Q222 651 216.5 641.5 Q211 632 209.5 619 Q208 606 208 592 L208 440 Q208 401 194 370.5 Q180 340 147 329 L147 324 Z " />
<glyph glyph-name="bar" unicode="&#x7c;" horiz-adv-x="301" d="M110 749 L191 749 L191 -142 L110 -142 L110 749 Z " />
<glyph glyph-name="braceright" unicode="&#x7d;" horiz-adv-x="326" d="M181 329 Q147 340 133 370.5 Q119 401 119 440 L119 592 Q119 621 110.5 642 Q102 663 67 663 L38 663 L38 731 L102 731 Q138 731 159.5 717 Q181 703 192.5 681.5 Q204 660 207 633.5 Q210 607 210 582 L210 441 Q210 404 224 374 Q238 344 274 336 L274 318 Q253 313 240 300.5 Q227 288 220.5 271 Q214 254 212 235 Q210 216 210 199 L210 25 Q210 -1 207 -28 Q204 -55 192.5 -77 Q181 -99 159 -113 Q137 -127 99 -127 L38 -127 L38 -60 L70 -60 Q101 -60 110 -39.5 Q119 -19 119 10 L119 183 Q119 233 130.5 270 Q142 307 181 324 L181 329 Z " />
<glyph glyph-name="asciitilde" unicode="&#x7e;" horiz-adv-x="525" d="M369 239 Q341 239 312 248 Q283 257 256 267.5 Q229 278 204.5 287 Q180 296 160 296 Q131 296 111.5 278 Q92 260 77 229 L23 276 Q44 322 76 349.5 Q108 377 156 377 Q182 377 209.5 368 Q237 359 264 348 Q291 337 315.5 328 Q340 319 361 319 Q390 319 412 339.5 Q434 360 448 392 L501 342 Q483 297 451 268 Q419 239 369 239 Z " />
<glyph glyph-name="dieresis" unicode="&#xa8;" horiz-adv-x="508" d="M216 594 Q216 571 201.5 556 Q187 541 164 541 Q140 541 125 556 Q110 571 110 594 Q110 617 126.5 631.5 Q143 646 164 646 Q187 646 201.5 631 Q216 616 216 594 Z M392 594 Q392 571 377.5 556 Q363 541 339 541 Q315 541 301 556 Q287 571 287 594 Q287 617 303 631.5 Q319 646 339 646 Q363 646 377.5 631 Q392 616 392 594 Z " />
<glyph glyph-name="sterling" unicode="&#xa3;" horiz-adv-x="560" d="M488 555 Q462 566 435 573 Q408 580 383 580 Q359 580 337 573.5 Q315 567 298.5 551 Q282 535 272.5 509.5 Q263 484 263 447 L262 369 L426 369 L426 303 L260 303 Q260 275 256.5 244 Q253 213 246.5 183.5 Q240 154 230 127 Q220 100 205 80 L498 80 L498 0 L65 0 L65 14 Q93 47 110 84 Q127 121 137 158.5 Q147 196 150.5 233 Q154 270 155 303 L83 303 L83 369 L156 369 L158 451 Q159 516 180 558 Q201 600 232 624.5 Q263 649 299 658.5 Q335 668 367 668 Q399 668 430.5 662 Q462 656 488 644 L488 555 L488 555 Z " />
<glyph glyph-name="trademark" unicode="&#x2122;" horiz-adv-x="773" d="M684 674 L696 674 L696 306 L624 306 L624 517 L621 517 Q598 488 574 459 Q550 430 526 400 L514 400 Q490 429 466.5 457.5 Q443 486 418 515 L416 515 L416 306 L343 306 L343 674 L356 674 L522 483 L684 674 Z M210 306 L138 306 L138 619 L33 619 L33 674 L312 674 L312 619 L210 619 L210 306 Z " />
<glyph glyph-name="perthousand" unicode="&#x2030;" horiz-adv-x="1133" d="M170 -24 L100 -24 L588 683 L658 683 L170 -24 Z M199 677 Q236 677 266 664.5 Q296 652 317.5 630.5 Q339 609 350.5 579.5 Q362 550 362 517 Q362 484 350 454.5 Q338 425 316.5 403 Q295 381 265 368.5 Q235 356 199 356 Q160 356 129.5 368.5 Q99 381 78 402.5 Q57 424 46 453.5 Q35 483 35 517 Q35 550 47.5 579.5 Q60 609 81.5 630.5 Q103 652 133 664.5 Q163 677 199 677 Z M200 607 Q162 607 138.5 580.5 Q115 554 115 517 Q115 477 137 450.5 Q159 424 200 424 Q238 424 260.5 451.5 Q283 479 283 517 Q283 554 260 580.5 Q237 607 200 607 Z M568 311 Q604 311 634 298.5 Q664 286 685.5 264.5 Q707 243 719 213.5 Q731 184 731 151 Q731 118 719 88.5 Q707 59 685 37.5 Q663 16 633.5 3.5 Q604 -9 568 -9 Q529 -9 498.5 3 Q468 15 447 36.5 Q426 58 415 87 Q404 116 404 150 Q404 183 416 212.5 Q428 242 449.5 264 Q471 286 501.5 298.5 Q532 311 568 311 Z M568 242 Q531 242 507.5 215 Q484 188 484 151 Q484 112 506 85.5 Q528 59 568 59 Q607 59 630 86 Q653 113 653 151 Q653 188 629.5 215 Q606 242 568 242 Z M940 311 Q976 311 1006 298.5 Q1036 286 1057.5 264.5 Q1079 243 1091 213.5 Q1103 184 1103 151 Q1103 118 1091 88.5 Q1079 59 1057 37.5 Q1035 16 1005.5 3.5 Q976 -9 940 -9 Q901 -9 870.5 3 Q840 15 819 36.5 Q798 58 787 87 Q776 116 776 150 Q776 183 788 212.5 Q800 242 821.5 264 Q843 286 873.5 298.5 Q904 311 940 311 Z M940 242 Q902 242 879 215 Q856 188 856 151 Q856 112 878 85.5 Q900 59 940 59 Q979 59 1001.5 86 Q1024 113 1024 151 Q1024 188 1001 215 Q978 242 940 242 Z " />
<glyph glyph-name="germandbls" unicode="&#xdf;" horiz-adv-x="579" d="M166 0 L60 0 L60 496 Q60 546 75 588 Q90 630 118.5 660.5 Q147 691 188.5 708 Q230 725 283 725 Q329 725 367 712 Q405 699 432 675.5 Q459 652 473.5 619.5 Q488 587 488 548 Q488 540 485.5 524.5 Q483 509 475.5 491 Q468 473 453.5 454 Q439 435 414 422 L414 417 Q472 397 506 343.5 Q540 290 540 220 Q540 177 526 135.5 Q512 94 484.5 62 Q457 30 416 10 Q375 -10 320 -10 Q304 -10 286.5 -7.5 Q269 -5 251 0 L251 83 Q276 76 301 76 Q333 76 358 87.5 Q383 99 400.5 119.5 Q418 140 427 167.5 Q436 195 436 228 Q436 274 420.5 302.5 Q405 331 381.5 347 Q358 363 330.5 368.5 Q303 374 278 374 L278 448 Q335 449 361 478.5 Q387 508 387 545 Q387 569 378 587.5 Q369 606 354 618.5 Q339 631 320.5 637.5 Q302 644 283 644 Q246 644 223 630.5 Q200 617 187.5 597 Q175 577 170.5 553.5 Q166 530 166 510 L166 0 Z " />
<glyph glyph-name="copyright" unicode="&#xa9;" horiz-adv-x="853" d="M424 -22 Q345 -22 278 6.5 Q211 35 162 85.5 Q113 136 85 204 Q57 272 57 350 Q57 429 86 497 Q115 565 165 614.5 Q215 664 283 692 Q351 720 428 720 Q503 720 569.5 691 Q636 662 685.5 612 Q735 562 763.5 494.5 Q792 427 792 350 Q792 272 763 204 Q734 136 684 85.5 Q634 35 567 6.5 Q500 -22 424 -22 Z M427 662 Q361 662 304.5 637.5 Q248 613 206.5 571 Q165 529 141 472 Q117 415 117 350 Q117 285 140.5 227.5 Q164 170 205 127.5 Q246 85 302.5 60 Q359 35 424 35 Q490 35 546 60 Q602 85 643 127.5 Q684 170 707 227.5 Q730 285 730 350 Q730 414 706.5 470.5 Q683 527 642 569.5 Q601 612 546 637 Q491 662 427 662 Z M569 135 Q543 121 507 115 Q471 109 442 109 Q384 109 339.5 126.5 Q295 144 265 174.5 Q235 205 219.5 247.5 Q204 290 204 341 Q204 391 221.5 434.5 Q239 478 270.5 510.5 Q302 543 346.5 561.5 Q391 580 445 580 Q467 580 498 576 Q529 572 555 561 L555 492 Q531 503 504.5 508 Q478 513 455 513 Q421 513 390.5 501.5 Q360 490 337 468.5 Q314 447 300.5 415 Q287 383 287 341 Q287 303 299.5 272.5 Q312 242 333.5 220 Q355 198 385.5 186 Q416 174 452 174 Q480 174 512 181.5 Q544 189 569 203 L569 135 Z " />
<glyph glyph-name="section" unicode="&#xa7;" horiz-adv-x="568" d="M495 303 Q495 265 473.5 231 Q452 197 412 178 Q444 155 460 127 Q476 99 476 70 Q476 34 459.5 5 Q443 -24 415 -43.5 Q387 -63 349 -73.5 Q311 -84 268 -84 Q209 -84 162 -71.5 Q115 -59 88 -43 L88 51 Q103 40 124 30 Q145 20 168 12.5 Q191 5 214.5 0.5 Q238 -4 259 -4 Q279 -4 299 -1 Q319 2 334.5 10 Q350 18 359.5 30.5 Q369 43 369 63 Q369 92 347.5 112.5 Q326 133 294 150.5 Q262 168 224 185 Q186 202 154 224 Q122 246 100.5 275.5 Q79 305 79 348 Q79 383 98 414 Q117 445 159 466 Q136 488 122.5 512 Q109 536 109 568 Q109 631 159 671.5 Q209 712 303 712 Q348 712 385.5 703 Q423 694 449 683 L449 597 Q422 611 383.5 621 Q345 631 308 631 Q290 631 272.5 627.5 Q255 624 240.5 616.5 Q226 609 217.5 598 Q209 587 209 572 Q209 545 230 526.5 Q251 508 282.5 492 Q314 476 351 460 Q388 444 420 422.5 Q452 401 473 372.5 Q494 344 495 303 Z M395 297 Q395 321 379.5 339.5 Q364 358 340.5 373 Q317 388 288 401 Q259 414 232 428 Q207 416 192 398.5 Q177 381 177 356 Q177 330 190.5 312 Q204 294 226.5 279.5 Q249 265 278.5 251.5 Q308 238 339 220 Q367 236 381 256 Q395 276 395 297 Z " />
<glyph glyph-name="degree" unicode="&#xb0;" horiz-adv-x="395" d="M198 415 Q169 415 146.5 424.5 Q124 434 108.5 450 Q93 466 84.5 488 Q76 510 76 535 Q76 560 86 582.5 Q96 605 112.5 621.5 Q129 638 151 647.5 Q173 657 198 657 Q225 657 247.5 647.5 Q270 638 286.5 621.5 Q303 605 312.5 582.5 Q322 560 322 535 Q322 510 312.5 488 Q303 466 286.5 450 Q270 434 247.5 424.5 Q225 415 198 415 Z M198 607 Q169 607 149 585.5 Q129 564 129 535 Q129 506 147.5 484.5 Q166 463 198 463 Q231 463 251 484.5 Q271 506 271 535 Q271 564 250.5 585.5 Q230 607 198 607 Z " />
<glyph glyph-name="plusminus" unicode="&#xb1;" horiz-adv-x="560" d="M477 67 L477 0 L80 0 L80 67 L477 67 Z M314 115 L244 115 L244 269 L80 269 L80 337 L244 337 L244 489 L314 489 L314 337 L477 337 L477 269 L314 269 L314 115 Z " />
<glyph glyph-name="yen" unicode="&#xa5;" horiz-adv-x="560" d="M60 270 L60 317 L209 317 Q201 331 187 358 Q173 385 156 418.5 Q139 452 120 488.5 Q101 525 84 558.5 Q67 592 53 619 Q39 646 31 660 L153 660 L286 358 L289 358 Q296 376 315.5 418.5 Q335 461 356.5 509 Q378 557 397.5 599.5 Q417 642 424 660 L541 660 Q496 574 451.5 488.5 Q407 403 361 317 L516 317 L516 270 L60 270 Z M516 221 L516 174 L342 174 L342 0 L228 0 L228 174 L60 174 L60 221 L516 221 Z " />
<glyph glyph-name="guillemotleft" unicode="&#xab;" horiz-adv-x="459" d="M269 14 L168 14 L37 198 L37 208 L169 392 L269 392 L133 206 L269 14 Z M431 14 L330 14 L200 198 L200 208 L332 392 L431 392 L295 206 L431 14 Z " />
<glyph glyph-name="guillemotright" unicode="&#xbb;" horiz-adv-x="459" d="M170 206 L34 392 L133 392 L265 208 L265 198 L135 14 L34 14 L170 206 Z M332 206 L196 392 L296 392 L428 208 L428 198 L297 14 L196 14 L332 206 Z " />
<glyph glyph-name="oe" unicode="&#x153;" horiz-adv-x="896" d="M280 457 Q342 457 390.5 431.5 Q439 406 468 361 Q495 406 541 432.5 Q587 459 644 459 Q695 459 735 441.5 Q775 424 802 393.5 Q829 363 843.5 320.5 Q858 278 858 227 L858 204 L525 204 Q527 169 539.5 144 Q552 119 572 102.5 Q592 86 618 78 Q644 70 673 70 Q711 70 752 80.5 Q793 91 838 123 L838 38 Q801 13 757 1 Q713 -11 666 -11 Q597 -11 547 14.5 Q497 40 468 85 Q439 40 388.5 15 Q338 -10 278 -10 Q221 -10 176 8 Q131 26 100 57 Q69 88 53 130.5 Q37 173 37 223 Q37 272 55.5 315 Q74 358 106 389.5 Q138 421 182.5 439 Q227 457 280 457 Z M281 372 Q249 372 223.5 360.5 Q198 349 180 328.5 Q162 308 152.5 281.5 Q143 255 143 225 Q143 193 152 165.5 Q161 138 179 118 Q197 98 222.5 86.5 Q248 75 281 75 Q313 75 338.5 87 Q364 99 381.5 119 Q399 139 408.5 166.5 Q418 194 418 225 Q418 255 408.5 281.5 Q399 308 381 328.5 Q363 349 337.5 360.5 Q312 372 281 372 Z M648 379 Q600 379 568.5 349 Q537 319 528 271 L761 271 Q753 320 724.5 349.5 Q696 379 648 379 Z " />
<glyph glyph-name="endash" unicode="&#x2013;" horiz-adv-x="576" d="M29 283 L546 283 L546 205 L29 205 L29 283 Z " />
<glyph glyph-name="quotedblleft" unicode="&#x201c;" horiz-adv-x="364" d="M169 490 Q169 465 151.5 447.5 Q134 430 110 430 Q84 430 66.5 446.5 Q49 463 49 489 Q49 509 57.5 535 Q66 561 79 587 Q92 613 107 638 Q122 663 135 681 L179 674 L131 546 Q150 539 159.5 524 Q169 509 169 490 Z M311 490 Q311 465 293.5 447.5 Q276 430 251 430 Q225 430 208 446.5 Q191 463 191 489 Q191 509 199.5 535 Q208 561 220.5 587 Q233 613 248 638 Q263 663 276 681 L320 674 L273 546 Q291 539 301 524 Q311 509 311 490 Z " />
<glyph glyph-name="quotedblright" unicode="&#x201d;" horiz-adv-x="364" d="M195 618 Q195 644 213 661.5 Q231 679 255 679 Q281 679 298.5 662 Q316 645 316 619 Q316 599 307.5 573.5 Q299 548 286 522 Q273 496 258 471 Q243 446 230 428 L185 435 L234 563 Q214 570 204.5 584.5 Q195 599 195 618 Z M54 618 Q54 644 71.5 661.5 Q89 679 114 679 Q140 679 157 662 Q174 645 174 619 Q174 599 165.5 573.5 Q157 548 144 522 Q131 496 116 471 Q101 446 89 428 L44 435 L92 563 Q73 570 63.5 584.5 Q54 599 54 618 Z " />
<glyph glyph-name="quoteleft" unicode="&#x2018;" horiz-adv-x="215" d="M168 490 Q168 465 150.5 447.5 Q133 430 108 430 Q82 430 65 446.5 Q48 463 48 489 Q48 509 56.5 535 Q65 561 78 587 Q91 613 106 638 Q121 663 133 681 L178 674 L130 546 Q149 539 158.5 524 Q168 509 168 490 Z " />
<glyph glyph-name="quoteright" unicode="&#x2019;" horiz-adv-x="215" d="M53 618 Q53 644 70 661.5 Q87 679 113 679 Q139 679 155.5 662 Q172 645 172 619 Q172 599 163.5 573.5 Q155 548 142 522 Q129 496 114.5 471 Q100 446 87 428 L43 435 L90 563 Q72 570 62.5 584.5 Q53 599 53 618 Z " />
<glyph glyph-name="&amp;#xb5;" unicode="&#xb5;" horiz-adv-x="538" d="M168 445 L169 176 Q169 134 192 104.5 Q215 75 254 75 Q303 75 335 109 Q367 143 367 214 L367 445 L474 445 L474 0 L393 0 L378 60 Q377 61 373 61 Q343 23 307.5 10 Q272 -3 232 -3 Q212 -3 196 1 Q180 5 169 16 L169 -216 L63 -216 L63 445 L168 445 Z " />
<glyph glyph-name="&amp;#x3bc;" unicode="&#x3bc;" horiz-adv-x="538" d="M168 445 L169 176 Q169 134 192 104.5 Q215 75 254 75 Q303 75 335 109 Q367 143 367 214 L367 445 L474 445 L474 0 L393 0 L378 60 Q377 61 373 61 Q343 23 307.5 10 Q272 -3 232 -3 Q212 -3 196 1 Q180 5 169 16 L169 -216 L63 -216 L63 445 L168 445 Z " />
<glyph glyph-name="pi" unicode="&#x3c0;" horiz-adv-x="551" d="M380 0 L380 360 L169 360 L169 0 L63 0 L63 445 L486 445 L486 0 L380 0 Z " />
<glyph glyph-name="emdash" unicode="&#x2014;" horiz-adv-x="833" d="M32 283 L802 283 L802 205 L32 205 L32 283 Z " />
<glyph glyph-name="exclam" unicode="&#x21;" horiz-adv-x="301" d="M109 173 Q108 195 107 236 Q106 277 105 327.5 Q104 378 102.5 432.5 Q101 487 99.5 537.5 Q98 588 97 628.5 Q96 669 95 691 L205 691 L193 173 L109 173 Z M212 50 Q212 25 193.5 7.5 Q175 -10 151 -10 Q125 -10 106.5 7.5 Q88 25 88 50 Q88 76 106.5 94 Q125 112 151 112 Q176 112 194 94 Q212 76 212 50 Z " />
<glyph glyph-name="dieresistonos" unicode="&#x385;" horiz-adv-x="508" d="M196 594 Q196 571 181.5 556 Q167 541 144 541 Q120 541 105 556 Q90 571 90 594 Q90 617 107 631.5 Q124 646 144 646 Q167 646 181.5 631 Q196 616 196 594 Z M451 594 Q451 571 436.5 556 Q422 541 399 541 Q375 541 360.5 556 Q346 571 346 594 Q346 617 362 631.5 Q378 646 399 646 Q422 646 436.5 631 Q451 616 451 594 Z M177 527 Q184 538 200 561.5 Q216 585 233.5 611 Q251 637 266.5 660.5 Q282 684 290 696 L374 662 L243 527 L177 527 Z " />
<glyph glyph-name="tonos" unicode="&#x384;" horiz-adv-x="492" d="M192 527 L305 696 L389 662 L258 527 L192 527 Z " />
<glyph glyph-name="Theta" unicode="&#x398;" horiz-adv-x="794" d="M397 -12 Q316 -12 251.5 14.5 Q187 41 141.5 87 Q96 133 72 195.5 Q48 258 48 330 Q48 402 75 464.5 Q102 527 149 573.5 Q196 620 260 647 Q324 674 398 674 Q475 674 539 647 Q603 620 649 573.5 Q695 527 720.5 464.5 Q746 402 746 330 Q746 258 720 195.5 Q694 133 648 87 Q602 41 537.5 14.5 Q473 -12 397 -12 Z M399 576 Q346 576 303 557 Q260 538 229 505 Q198 472 181 427 Q164 382 164 330 Q164 277 180.5 232 Q197 187 227.5 153.5 Q258 120 301.5 101 Q345 82 399 82 Q453 82 496 101.5 Q539 121 569.5 155 Q600 189 616.5 234 Q633 279 633 330 Q633 381 616.5 426 Q600 471 569 504 Q538 537 495 556.5 Q452 576 399 576 Z M242 385 L553 385 L553 298 L242 298 L242 385 Z " />
<glyph glyph-name="Lambda" unicode="&#x39b;" horiz-adv-x="643" d="M322 445 L318 445 L124 0 L12 0 L313 668 L334 668 L632 0 L515 0 L322 445 Z " />
<glyph glyph-name="Xi" unicode="&#x39e;" horiz-adv-x="593" d="M46 569 L46 661 L546 661 L546 569 L46 569 Z M558 94 L558 0 L35 0 L35 94 L558 94 Z M502 392 L502 302 L97 302 L97 392 L502 392 Z " />
<glyph glyph-name="Pi" unicode="&#x3a0;" horiz-adv-x="689" d="M499 0 L499 569 L188 569 L188 0 L73 0 L73 660 L613 660 L613 0 L499 0 Z " />
<glyph glyph-name="Sigma" unicode="&#x3a3;" horiz-adv-x="568" d="M192 90 L555 90 L555 0 L20 0 L20 12 L220 350 L31 646 L31 660 L537 660 L537 569 L207 569 Q242 515 277 461 Q312 407 347 353 L192 90 Z " />
<glyph glyph-name="Phi" unicode="&#x3a6;" horiz-adv-x="859" d="M811 341 Q811 284 788.5 235.5 Q766 187 723.5 151 Q681 115 621 92.5 Q561 70 486 64 L486 0 L373 0 L373 64 Q299 67 239 88.5 Q179 110 136 146.5 Q93 183 69.5 232.5 Q46 282 46 341 Q46 400 71 449.5 Q96 499 140 535 Q184 571 244 593 Q304 615 373 618 L373 660 L486 660 L486 618 Q556 615 616 592.5 Q676 570 719 533.5 Q762 497 786.5 447.5 Q811 398 811 341 Z M702 342 Q702 381 686 415 Q670 449 641.5 474.5 Q613 500 573 515 Q533 530 485 533 L485 150 Q536 153 576 168 Q616 183 644 208.5 Q672 234 687 268 Q702 302 702 342 Z M373 533 Q325 529 285.5 513.5 Q246 498 217.5 473 Q189 448 173.5 414.5 Q158 381 158 341 Q158 263 214.5 211 Q271 159 373 150 L373 533 Z " />
<glyph glyph-name="Psi" unicode="&#x3a8;" horiz-adv-x="789" d="M336 0 L336 182 Q269 185 218 206.5 Q167 228 132.5 264 Q98 300 80 349 Q62 398 62 456 L62 660 L176 660 L176 458 Q176 427 186 396.5 Q196 366 216 341 Q236 316 266 299.5 Q296 283 336 280 L336 660 L451 660 L451 280 Q491 283 521 297.5 Q551 312 571 335.5 Q591 359 601 389.5 Q611 420 611 454 L611 660 L726 660 L726 457 Q726 400 708 351.5 Q690 303 655 266.5 Q620 230 568.5 208 Q517 186 451 182 L451 0 L336 0 Z " />
<glyph glyph-name="Omega" unicode="&#x3a9;" horiz-adv-x="789" d="M396 576 Q342 576 298.5 556 Q255 536 224.5 501.5 Q194 467 177.5 421 Q161 375 161 322 Q161 281 171 235.5 Q181 190 201.5 147.5 Q222 105 252 70 Q282 35 323 15 L323 0 L38 0 L38 90 L144 90 Q146 92 146 94 Q96 142 72 205.5 Q48 269 48 336 Q48 408 74 469.5 Q100 531 146 576.5 Q192 622 256 647.5 Q320 673 396 673 Q472 673 535 647.5 Q598 622 643.5 577 Q689 532 714 471.5 Q739 411 739 342 Q739 276 715.5 211 Q692 146 641 94 Q642 93 642 90 L747 90 L747 0 L463 0 L463 15 Q506 35 537 70 Q568 105 588 147 Q608 189 618 234 Q628 279 628 320 Q628 369 613 415.5 Q598 462 568.5 497.5 Q539 533 496 554.5 Q453 576 396 576 Z " />
<glyph glyph-name="alpha" unicode="&#x3b1;" horiz-adv-x="589" d="M284 369 Q252 369 226.5 357.5 Q201 346 183 326 Q165 306 155.5 279.5 Q146 253 146 223 Q146 191 155 163.5 Q164 136 182 116 Q200 96 225.5 85 Q251 74 284 74 Q316 74 341 85.5 Q366 97 383.5 117.5 Q401 138 410.5 165 Q420 192 420 223 Q420 253 410.5 280 Q401 307 383 326.5 Q365 346 340 357.5 Q315 369 284 369 Z M273 455 Q320 455 364 437 Q408 419 436 384 Q437 387 440 395.5 Q443 404 446 414 Q449 424 451.5 432.5 Q454 441 456 445 L524 445 L524 0 L443 0 L432 61 Q430 61 430 61.5 Q430 62 428 62 Q400 30 361 10.5 Q322 -9 268 -9 Q214 -9 171.5 7.5 Q129 24 99.5 54 Q70 84 55 126 Q40 168 40 219 Q40 268 57 311 Q74 354 104.5 386 Q135 418 178 436.5 Q221 455 273 455 Z " />
<glyph glyph-name="beta" unicode="&#x3b2;" horiz-adv-x="573" d="M53 -212 L53 432 Q53 493 63.5 546.5 Q74 600 100 639.5 Q126 679 169.5 701.5 Q213 724 279 724 Q325 724 362.5 711 Q400 698 426 674.5 Q452 651 466.5 619 Q481 587 481 550 Q481 538 478 520.5 Q475 503 466.5 485 Q458 467 442.5 449.5 Q427 432 402 420 L402 415 Q432 405 456.5 385.5 Q481 366 498 340.5 Q515 315 524 284 Q533 253 533 220 Q533 173 517 131 Q501 89 472 57.5 Q443 26 403 8 Q363 -10 314 -10 Q260 -10 222.5 8.5 Q185 27 164 53 L159 53 L159 -212 L53 -212 Z M292 73 Q353 73 390 116 Q427 159 427 228 Q427 272 411.5 300 Q396 328 371 343.5 Q346 359 316 365 Q286 371 257 371 L257 439 Q290 441 313.5 450 Q337 459 351 472.5 Q365 486 371.5 503.5 Q378 521 378 540 Q378 562 369.5 580 Q361 598 347 611 Q333 624 315 631 Q297 638 278 638 Q238 638 214 622.5 Q190 607 177.5 584.5 Q165 562 161.5 536 Q158 510 158 489 L158 224 Q158 196 166 169 Q174 142 190.5 120.5 Q207 99 232 86 Q257 73 292 73 Z " />
<glyph glyph-name="psi" unicode="&#x3c8;" horiz-adv-x="688" d="M291 -11 Q234 -9 190.5 10.5 Q147 30 118 62.5 Q89 95 74.5 140 Q60 185 60 238 L60 445 L163 445 L163 217 Q163 189 172 163 Q181 137 197.5 117.5 Q214 98 237.5 86 Q261 74 291 73 L291 445 L395 445 L395 73 Q458 75 490 114 Q522 153 522 220 L522 445 L627 445 L627 223 Q627 177 612 135.5 Q597 94 567.5 62.5 Q538 31 495 11.5 Q452 -8 395 -11 L395 -218 L291 -218 L291 -11 Z " />
<glyph glyph-name="delta" unicode="&#x3b4;" horiz-adv-x="564" d="M420 228 Q420 253 413.5 278 Q407 303 390.5 325.5 Q374 348 347 366.5 Q320 385 280 397 Q245 391 219.5 373.5 Q194 356 177.5 332.5 Q161 309 153 282 Q145 255 145 228 Q145 196 154 168 Q163 140 180 119 Q197 98 223 86 Q249 74 283 74 Q315 74 340.5 86.5 Q366 99 383.5 120.5 Q401 142 410.5 170 Q420 198 420 228 Z M293 724 Q328 724 371 717.5 Q414 711 452 690 L452 602 Q414 624 375 633 Q336 642 305 642 Q260 642 232.5 625 Q205 608 205 574 Q205 547 228.5 529 Q252 511 287.5 494.5 Q323 478 364 459 Q405 440 440.5 410.5 Q476 381 499.5 337 Q523 293 523 227 Q523 177 506 134 Q489 91 457.5 59 Q426 27 381.5 8.5 Q337 -10 282 -10 Q225 -10 179.5 7.5 Q134 25 103 56.5 Q72 88 55.5 131 Q39 174 39 225 Q39 257 48.5 290.5 Q58 324 76.5 353.5 Q95 383 123 406.5 Q151 430 188 443 L188 448 Q149 467 126 498.5 Q103 530 103 572 Q103 603 115.5 631 Q128 659 152.5 679.5 Q177 700 212.5 712 Q248 724 293 724 Z " />
<glyph glyph-name="epsilon" unicode="&#x3b5;" horiz-adv-x="416" d="M226 -10 Q176 -10 140 0 Q104 10 81 27.5 Q58 45 46.5 68.5 Q35 92 35 119 Q35 134 39.5 150 Q44 166 54 182 Q64 198 79.5 212 Q95 226 117 235 L117 239 Q79 252 62 277 Q45 302 45 329 Q45 383 92 420.5 Q139 458 228 458 Q257 458 294.5 451.5 Q332 445 369 429 L369 343 Q337 362 301 369 Q265 376 239 376 Q204 376 176.5 361 Q149 346 149 317 Q149 295 166.5 286 Q184 277 210 277 L280 277 L280 201 L231 201 Q184 201 163 181.5 Q142 162 142 136 Q142 110 166 90 Q190 70 247 70 Q276 70 315 81 Q354 92 389 117 L389 29 Q351 7 306 -1.5 Q261 -10 226 -10 Z " />
<glyph glyph-name="phi" unicode="&#x3c6;" horiz-adv-x="716" d="M42 221 Q42 261 54 296.5 Q66 332 89.5 361 Q113 390 148 411 Q183 432 228 443 L264 382 Q203 365 174 321.5 Q145 278 145 225 Q145 196 156 169 Q167 142 188 120.5 Q209 99 239 85.5 Q269 72 307 71 L307 454 L411 454 Q470 454 518.5 437.5 Q567 421 601.5 391 Q636 361 655 319 Q674 277 674 225 Q674 178 655 136.5 Q636 95 601 63.5 Q566 32 517 12.5 Q468 -7 409 -10 L409 -218 L305 -218 L307 -9 Q241 -6 191 14 Q141 34 108 65.5 Q75 97 58.5 137.5 Q42 178 42 221 Z M573 222 Q573 251 564 278 Q555 305 535.5 326 Q516 347 484.5 360.5 Q453 374 407 375 L407 70 Q446 73 476.5 86 Q507 99 528.5 119 Q550 139 561.5 165.5 Q573 192 573 222 Z " />
<glyph glyph-name="gamma" unicode="&#x3b3;" horiz-adv-x="480" d="M243 139 Q247 149 255 169.5 Q263 190 271.5 212.5 Q280 235 288 255.5 Q296 276 300 285 Q303 294 312.5 317 Q322 340 332 365 Q342 390 351.5 413 Q361 436 364 445 L472 445 L295 18 Q295 4 295 -29 Q295 -62 295.5 -98.5 Q296 -135 296 -168.5 Q296 -202 296 -216 L188 -216 L189 17 L6 445 L119 445 L170 314 Q187 269 203.5 226 Q220 183 238 139 L243 139 Z " />
<glyph glyph-name="eta" unicode="&#x3b7;" horiz-adv-x="546" d="M377 0 L377 258 Q377 309 353.5 340 Q330 371 288 371 Q264 371 242 362.5 Q220 354 203.5 336.5 Q187 319 177.5 292.5 Q168 266 168 229 L168 0 L63 0 L63 445 L141 445 Q142 441 144 432 Q146 423 148.5 413 Q151 403 153 394 Q155 385 156 381 L160 381 Q194 423 235 439 Q276 455 317 455 Q399 455 440.5 408 Q482 361 482 276 L482 0 L377 0 Z " />
<glyph glyph-name="iota" unicode="&#x3b9;" horiz-adv-x="243" d="M68 0 L68 445 L175 445 L175 0 L68 0 Z " />
<glyph glyph-name="xi" unicode="&#x3be;" horiz-adv-x="437" d="M284 641 Q254 641 231.5 632.5 Q209 624 194 610.5 Q179 597 171.5 579.5 Q164 562 164 543 Q164 515 174.5 495 Q185 475 203 462.5 Q221 450 245 444.5 Q269 439 295 439 L389 439 L389 362 L282 362 Q248 362 223 351.5 Q198 341 182 323 Q166 305 158 281.5 Q150 258 150 233 Q150 203 164.5 181 Q179 159 204.5 141.5 Q230 124 265.5 108 Q301 92 344 74 Q403 50 425.5 28 Q448 6 448 -22 Q448 -45 425 -82 Q402 -119 348 -174 L277 -142 Q311 -100 323.5 -74.5 Q336 -49 336 -39 Q336 -25 316.5 -12.5 Q297 0 242 20 Q195 37 158 56 Q121 75 95.5 98.5 Q70 122 56 152 Q42 182 42 221 Q42 248 49 275 Q56 302 71 326 Q86 350 109 370 Q132 390 165 403 L165 408 Q135 417 114.5 432 Q94 447 81 466.5 Q68 486 62 508 Q56 530 56 551 Q56 581 68 612 Q80 643 106 668 Q132 693 171.5 708.5 Q211 724 267 724 Q300 724 345 715.5 Q390 707 426 688 L426 598 Q391 621 352.5 631 Q314 641 284 641 Z " />
<glyph glyph-name="kappa" unicode="&#x3ba;" horiz-adv-x="512" d="M489 444 Q436 392 381.5 339.5 Q327 287 274 234 L506 0 L378 0 Q371 9 354.5 26.5 Q338 44 317.5 65 Q297 86 274.5 110 Q252 134 231.5 155 Q211 176 194.5 193.5 Q178 211 171 220 L171 0 L63 0 L63 444 L171 444 L171 243 Q178 251 193.5 267 Q209 283 228.5 302.5 Q248 322 269.5 343.5 Q291 365 310.5 384.5 Q330 404 345.5 420 Q361 436 368 444 L489 444 L489 444 Z " />
<glyph glyph-name="lambda" unicode="&#x3bb;" horiz-adv-x="491" d="M247 320 Q242 308 231.5 282.5 Q221 257 208 225.5 Q195 194 180.5 159.5 Q166 125 153 93.5 Q140 62 129.5 37 Q119 12 114 0 L8 0 L201 441 Q175 510 148.5 578 Q122 646 95 715 L201 715 Q212 685 234.5 628.5 Q257 572 284.5 502.5 Q312 433 342 357 Q372 281 399.5 211.5 Q427 142 449 86 Q471 30 483 0 L372 0 L251 320 L247 320 Z " />
<glyph glyph-name="nu" unicode="&#x3bd;" horiz-adv-x="499" d="M237 -6 Q180 107 124 219 Q68 331 11 445 L125 445 Q137 416 151 388.5 Q165 361 178 333 L249 176 L252 176 Q283 250 312.5 314.5 Q342 379 373 445 L487 445 L259 -6 L237 -6 Z " />
<glyph glyph-name="omicron" unicode="&#x3bf;" horiz-adv-x="565" d="M283 457 Q337 457 381.5 439 Q426 421 457.5 389.5 Q489 358 506.5 315 Q524 272 524 223 Q524 173 506.5 130.5 Q489 88 457 56.5 Q425 25 380.5 7.5 Q336 -10 283 -10 Q226 -10 181 8 Q136 26 104.5 57 Q73 88 56.5 130.5 Q40 173 40 223 Q40 272 58.5 315 Q77 358 109 389.5 Q141 421 185.5 439 Q230 457 283 457 Z M284 372 Q252 372 226.5 360.5 Q201 349 183 328.5 Q165 308 155.5 281.5 Q146 255 146 225 Q146 193 155 165.5 Q164 138 182 118 Q200 98 225.5 86.5 Q251 75 284 75 Q316 75 341.5 87 Q367 99 385 119 Q403 139 412.5 166.5 Q422 194 422 225 Q422 255 412 281.5 Q402 308 384 328.5 Q366 349 340.5 360.5 Q315 372 284 372 Z " />
<glyph glyph-name="rho" unicode="&#x3c1;" horiz-adv-x="584" d="M159 46 L159 -213 L52 -213 L52 197 Q52 250 68 297 Q84 344 115 379.5 Q146 415 192 436 Q238 457 298 457 Q352 457 397 439 Q442 421 474 389 Q506 357 524 314 Q542 271 542 221 Q542 171 525.5 129 Q509 87 479 56 Q449 25 407.5 8 Q366 -9 315 -9 Q272 -9 232.5 5.5 Q193 20 164 49 L159 46 Z M437 223 Q437 253 427.5 280.5 Q418 308 400.5 328 Q383 348 357 360 Q331 372 298 372 Q265 372 239.5 360 Q214 348 196 327 Q178 306 168.5 278 Q159 250 159 219 Q159 190 168 164 Q177 138 195 118 Q213 98 239 86 Q265 74 298 74 Q359 74 398 114.5 Q437 155 437 223 Z " />
<glyph glyph-name="sigma" unicode="&#x3c3;" horiz-adv-x="567" d="M451 362 Q484 337 502 294 Q520 251 520 209 Q520 164 503 124 Q486 84 455 54.5 Q424 25 380 7.5 Q336 -10 282 -10 Q223 -10 178 8 Q133 26 103 57 Q73 88 57.5 129 Q42 170 42 216 Q42 264 60 306 Q78 348 109.5 379 Q141 410 185 427.5 Q229 445 282 445 L549 445 L549 365 L453 366 L451 362 Z M285 366 Q254 366 229 354.5 Q204 343 186 322.5 Q168 302 158 275.5 Q148 249 148 219 Q148 188 157 161 Q166 134 183.5 114.5 Q201 95 226 84 Q251 73 283 73 Q315 73 340 84.5 Q365 96 382.5 116 Q400 136 409 163 Q418 190 418 220 Q418 249 409.5 275 Q401 301 384 321 Q367 341 342 353 Q317 365 285 366 Z " />
<glyph glyph-name="tau" unicode="&#x3c4;" horiz-adv-x="385" d="M10 445 Q98 445 185.5 445 Q273 445 361 446 L361 365 L221 365 L221 152 Q221 117 235.5 96 Q250 75 282 75 Q296 75 317.5 81 Q339 87 361 101 L361 20 Q336 3 307 -3.5 Q278 -10 255 -10 Q212 -10 185 2 Q158 14 142.5 36 Q127 58 121.5 90 Q116 122 116 162 L116 365 L10 365 L10 445 L10 445 Z " />
<glyph glyph-name="theta" unicode="&#x3b8;" horiz-adv-x="565" d="M520 353 Q520 281 507 215.5 Q494 150 465.5 99.5 Q437 49 390.5 19.5 Q344 -10 278 -10 Q213 -10 168 19 Q123 48 95 97.5 Q67 147 54.5 213 Q42 279 42 353 Q42 426 55 493 Q68 560 96.5 611.5 Q125 663 170 693.5 Q215 724 280 724 Q346 724 391.5 693.5 Q437 663 465.5 611.5 Q494 560 507 493 Q520 426 520 353 Z M416 408 Q414 455 404.5 497 Q395 539 378 570 Q361 601 336.5 619 Q312 637 280 637 Q248 637 224 618 Q200 599 184 567.5 Q168 536 159 494.5 Q150 453 148 408 L416 408 Z M147 331 Q148 277 156 230.5 Q164 184 179.5 149.5 Q195 115 219.5 95.5 Q244 76 279 76 Q316 76 342 96.5 Q368 117 384.5 151.5 Q401 186 409 232.5 Q417 279 418 331 L147 331 Z " />
<glyph glyph-name="omega" unicode="&#x3c9;" horiz-adv-x="762" d="M719 220 Q719 177 707.5 136 Q696 95 671.5 62.5 Q647 30 610 10.5 Q573 -9 522 -9 Q475 -9 437.5 10.5 Q400 30 380 65 L375 65 Q353 36 317.5 13.5 Q282 -9 230 -9 Q182 -9 146.5 8 Q111 25 87.5 55 Q64 85 52.5 126 Q41 167 41 216 Q41 263 54 305.5 Q67 348 93 380 Q119 412 157 432 Q195 452 246 455 Q247 452 251 441 Q255 430 259.5 418 Q264 406 268 395.5 Q272 385 273 381 Q243 379 220 365.5 Q197 352 181 330 Q165 308 157 280 Q149 252 149 220 Q149 155 172.5 115 Q196 75 246 75 Q269 75 286 84 Q303 93 313.5 107 Q324 121 329 139.5 Q334 158 334 177 L334 303 L425 303 L425 173 Q425 130 449.5 102.5 Q474 75 512 75 Q560 75 586 114.5 Q612 154 612 220 Q612 252 603.5 280 Q595 308 579.5 330 Q564 352 541 365.5 Q518 379 489 381 L516 456 Q568 453 606 433 Q644 413 669 381 Q694 349 706.5 307.5 Q719 266 719 220 Z " />
<glyph glyph-name="sigma1" unicode="&#x3c2;" horiz-adv-x="431" d="M38 224 Q38 273 53.5 315.5 Q69 358 99 389.5 Q129 421 173 439 Q217 457 275 457 Q302 457 337 451.5 Q372 446 401 432 L401 346 Q377 360 345.5 366.5 Q314 373 288 373 Q224 373 183.5 336 Q143 299 143 231 Q143 208 149 188.5 Q155 169 170 151.5 Q185 134 210.5 117.5 Q236 101 274 84 Q340 55 371.5 33.5 Q403 12 403 -15 Q403 -39 378 -74.5 Q353 -110 301 -152 Q298 -151 287.5 -146.5 Q277 -142 266 -136.5 Q255 -131 244.5 -126.5 Q234 -122 231 -121 Q261 -88 274.5 -68.5 Q288 -49 288 -40 Q288 -29 261.5 -17 Q235 -5 183 20 Q142 38 114.5 59 Q87 80 70 104.5 Q53 129 45.5 158.5 Q38 188 38 224 Z " />
<glyph glyph-name="chi" unicode="&#x3c7;" horiz-adv-x="490" d="M370 0 Q338 53 307.5 105.5 Q277 158 245 212 L117 0 L8 0 Q16 14 36.5 46 Q57 78 80 114 Q103 150 123.5 182 Q144 214 152 228 Q143 241 124 272 Q105 303 84 336.5 Q63 370 44 400.5 Q25 431 16 445 L125 445 L245 245 Q275 295 304 344.5 Q333 394 364 445 L474 445 Q440 391 404 337 Q368 283 335 229 L481 0 L370 0 L370 0 Z " />
<glyph glyph-name="upsilon" unicode="&#x3c5;" horiz-adv-x="536" d="M369 445 L476 445 L476 206 Q476 149 459.5 108.5 Q443 68 414 41.5 Q385 15 346.5 2.5 Q308 -10 264 -10 Q165 -10 112.5 42 Q60 94 60 190 L60 445 L164 445 L164 192 Q164 168 169.5 147 Q175 126 187.5 109.5 Q200 93 219.5 83.5 Q239 74 267 74 Q320 74 344.5 107 Q369 140 369 196 L369 445 Z " />
<glyph glyph-name="zeta" unicode="&#x3b6;" horiz-adv-x="411" d="M311 626 Q310 628 310 629.5 Q310 631 309 632 L65 632 L65 711 L489 711 L489 698 Q418 634 355 566 Q292 498 244.5 434 Q197 370 169 314 Q141 258 141 218 Q141 191 155.5 171.5 Q170 152 196.5 135 Q223 118 260.5 101.5 Q298 85 344 65 Q392 43 414 23.5 Q436 4 436 -23 Q436 -38 426.5 -58 Q417 -78 402 -99.5 Q387 -121 367.5 -142.5 Q348 -164 327 -182 L257 -150 Q286 -114 305.5 -87.5 Q325 -61 325 -44 Q325 -30 302.5 -19.5 Q280 -9 232 11 Q187 29 150.5 48 Q114 67 88.5 90 Q63 113 49.5 142 Q36 171 36 210 Q36 252 58 303.5 Q80 355 118 410 Q156 465 205.5 520.5 Q255 576 311 626 Z " />
<glyph glyph-name="Euro" unicode="&#x20ac;" horiz-adv-x="560" d="M34 360 L34 407 L83 407 Q93 462 117 509.5 Q141 557 178.5 592.5 Q216 628 267.5 648.5 Q319 669 384 669 Q415 669 447 663.5 Q479 658 508 649 L508 556 Q448 576 393 576 Q314 576 262 532 Q210 488 192 407 L449 407 L449 360 L34 360 Z M449 312 L449 265 L188 265 Q194 226 209.5 193 Q225 160 249.5 136 Q274 112 308 98 Q342 84 385 84 Q416 84 452.5 91 Q489 98 524 113 L524 20 Q488 5 451 -1 Q414 -7 379 -7 Q318 -7 266.5 11 Q215 29 176 64 Q137 99 112 149.5 Q87 200 80 265 L34 265 L34 312 L449 312 Z " />
<glyph glyph-name="semicolon" unicode="&#x3b;" horiz-adv-x="240" d="M183 346 Q183 320 164.5 302.5 Q146 285 121 285 Q96 285 78 302.5 Q60 320 60 346 Q60 372 78 389.5 Q96 407 121 407 Q147 407 165 389.5 Q183 372 183 346 Z M55 53 Q55 80 73.5 98 Q92 116 118 116 Q145 116 162.5 98.5 Q180 81 180 52 Q180 32 171 4.5 Q162 -23 148.5 -51.5 Q135 -80 119.5 -107 Q104 -134 91 -153 L44 -147 L90 -2 Q73 5 64 20.5 Q55 36 55 53 Z " />
<glyph glyph-name="eth" unicode="&#xf0;" horiz-adv-x="561" d="M272 447 Q310 447 347.5 435.5 Q385 424 406 399 L409 401 Q396 441 368 479.5 Q340 518 309 550 Q286 534 262.5 519.5 Q239 505 216 489 L216 549 Q230 558 243 567 Q256 576 270 586 Q244 609 208 633.5 Q172 658 143 675 Q163 686 181.5 697 Q200 708 219 719 Q288 681 342 634 L439 699 L439 636 L381 598 Q448 527 485.5 439.5 Q523 352 523 258 Q523 210 509.5 162 Q496 114 467 75.5 Q438 37 392 13.5 Q346 -10 280 -10 Q223 -10 178 7 Q133 24 102 54.5 Q71 85 55 126.5 Q39 168 39 217 Q39 265 56.5 307 Q74 349 105.5 380 Q137 411 179.5 429 Q222 447 272 447 Z M280 361 Q249 361 224 350 Q199 339 181 319.5 Q163 300 153.5 274 Q144 248 144 218 Q144 188 153 161.5 Q162 135 179.5 115.5 Q197 96 222 85 Q247 74 280 74 Q313 74 338.5 86 Q364 98 381 118.5 Q398 139 407 165 Q416 191 416 219 Q416 249 406.5 274.5 Q397 300 379 319.5 Q361 339 336 350 Q311 361 280 361 Z " />
<glyph glyph-name="sfthyphen" unicode="&#xad;" horiz-adv-x="375" d="M56 282 L318 282 L318 207 L56 207 L56 282 Z " />
<glyph glyph-name="OE" unicode="&#x152;" horiz-adv-x="959" d="M925 0 L492 0 Q446 -11 396 -11 Q312 -11 247.5 15 Q183 41 138.5 87 Q94 133 71 195.5 Q48 258 48 332 Q48 404 73.5 466.5 Q99 529 145 575.5 Q191 622 255.5 648.5 Q320 675 397 675 Q426 675 454 671.5 Q482 668 507 660 L903 660 L903 569 L583 569 L583 390 L873 390 L873 301 L583 301 L583 90 L925 90 L925 0 Z M397 83 Q416 83 434.5 85.5 Q453 88 469 93 L469 568 Q434 579 397 579 Q343 579 299.5 559.5 Q256 540 225.5 506.5 Q195 473 179 428 Q163 383 163 332 Q163 279 178.5 233.5 Q194 188 224 154.5 Q254 121 297.5 102 Q341 83 397 83 Z " />
<glyph glyph-name="acute" unicode="&#xb4;" horiz-adv-x="492" d="M192 521 Q199 532 215 555.5 Q231 579 248.5 605.5 Q266 632 281.5 655.5 Q297 679 305 690 L389 656 L258 521 L192 521 Z " />
<glyph glyph-name="circumflex" unicode="&#x2c6;" horiz-adv-x="492" d="M309 521 L242 602 L171 521 L85 521 L235 683 L254 683 L399 521 L309 521 Z " />
<glyph glyph-name="registered" unicode="&#xae;" horiz-adv-x="602" d="M430 319 L365 319 L280 442 L280 451 Q322 454 340 467.5 Q358 481 358 503 Q358 527 342.5 539 Q327 551 302 551 L260 551 L260 319 L204 319 L204 597 L310 597 Q329 597 347.5 591.5 Q366 586 381 574.5 Q396 563 405 546 Q414 529 414 507 Q414 481 397.5 459.5 Q381 438 348 427 L430 319 Z M545 453 Q545 401 525.5 356 Q506 311 473 278 Q440 245 395.5 226 Q351 207 301 207 Q245 207 200 226 Q155 245 123.5 278 Q92 311 75 356 Q58 401 58 453 Q58 504 77 549 Q96 594 129 627 Q162 660 206.5 679 Q251 698 301 698 Q353 698 397.5 679 Q442 660 475 627 Q508 594 526.5 549 Q545 504 545 453 Z M499 453 Q499 494 484 531 Q469 568 442.5 595.5 Q416 623 379.5 639 Q343 655 301 655 Q259 655 222.5 639 Q186 623 159 595.5 Q132 568 117 531 Q102 494 102 453 Q102 411 116.5 374 Q131 337 157 309.5 Q183 282 219.5 266 Q256 250 301 250 Q343 250 379 266 Q415 282 442 309.5 Q469 337 484 374 Q499 411 499 453 Z " />
<glyph glyph-name="Alpha" unicode="&#x391;" horiz-adv-x="643" d="M464 126 L175 126 L123 0 L12 0 L313 669 L334 669 L632 0 L517 0 L464 126 Z M208 207 L432 207 L322 467 L318 467 L208 207 Z " />
<glyph glyph-name="Beta" unicode="&#x392;" horiz-adv-x="626" d="M457 356 Q490 345 513 327.5 Q536 310 550 287.5 Q564 265 570.5 240.5 Q577 216 577 192 Q577 151 561.5 115.5 Q546 80 518.5 54.5 Q491 29 453 14.5 Q415 0 369 0 L74 0 L74 661 L345 661 Q387 661 422.5 650 Q458 639 483.5 618.5 Q509 598 523.5 567.5 Q538 537 538 498 Q538 460 518.5 421.5 Q499 383 457 360 L457 356 Z M466 201 Q466 249 430.5 278.5 Q395 308 334 308 L186 308 L186 91 L342 91 Q380 91 404.5 101.5 Q429 112 442.5 128.5 Q456 145 461 164.5 Q466 184 466 201 Z M186 392 L321 392 Q336 392 354.5 395.5 Q373 399 389.5 409 Q406 419 417.5 436.5 Q429 454 429 482 Q429 522 403 547 Q377 572 328 572 L186 572 L186 392 Z " />
<glyph glyph-name="Gamma" unicode="&#x393;" horiz-adv-x="528" d="M188 0 L73 0 L73 660 L512 660 L512 569 L188 569 L188 0 Z " />
<glyph glyph-name="&amp;#x394;" unicode="&#x394;" horiz-adv-x="661" d="M648 0 L15 0 Q92 168 168 334.5 Q244 501 322 669 L342 669 L648 0 Z M157 91 L500 91 L329 474 L327 474 L157 91 Z " />
<glyph glyph-name="&amp;#x2206;" unicode="&#x2206;" horiz-adv-x="661" d="M648 0 L15 0 Q92 168 168 334.5 Q244 501 322 669 L342 669 L648 0 Z M157 91 L500 91 L329 474 L327 474 L157 91 Z " />
<glyph glyph-name="Epsilon" unicode="&#x395;" horiz-adv-x="564" d="M530 0 L73 0 L73 660 L508 660 L508 569 L188 569 L188 390 L479 390 L479 301 L188 301 L188 91 L530 91 L530 0 Z " />
<glyph glyph-name="Zeta" unicode="&#x396;" horiz-adv-x="548" d="M526 646 Q513 624 487 580 Q461 536 428 482 Q395 428 359.5 368 Q324 308 291 254 Q258 200 232 156 Q206 112 193 90 L521 90 L521 0 L18 0 L18 12 L354 569 L58 569 L58 660 L526 660 L526 646 Z " />
<glyph glyph-name="Eta" unicode="&#x397;" horiz-adv-x="684" d="M495 0 L495 299 L188 299 L188 0 L73 0 L73 660 L188 660 L188 391 L495 391 L495 660 L609 660 L609 0 L495 0 Z " />
<glyph glyph-name="Iota" unicode="&#x399;" horiz-adv-x="277" d="M80 0 L80 660 L195 660 L195 0 L80 0 Z " />
<glyph glyph-name="Kappa" unicode="&#x39a;" horiz-adv-x="620" d="M189 353 L461 660 L588 660 L306 342 Q339 308 378 263 Q417 218 458 170.5 Q499 123 538.5 78.5 Q578 34 611 0 L476 0 Q444 33 407 76.5 Q370 120 332 165.5 Q294 211 257 254.5 Q220 298 189 331 L189 0 L73 0 L73 660 L189 660 L189 353 Z " />
<glyph glyph-name="Mu" unicode="&#x39c;" horiz-adv-x="815" d="M397 135 L186 400 Q184 398 183 398 L183 0 L73 0 L73 668 L95 668 Q173 568 251 471 Q329 374 408 274 Q421 291 445.5 322.5 Q470 354 500 392 Q530 430 563.5 471 Q597 512 627.5 550 Q658 588 682.5 619 Q707 650 720 668 L740 668 L740 0 L630 0 Q630 54 630 103 Q630 152 630.5 200.5 Q631 249 631 298.5 Q631 348 631 402 Q629 404 627 404 L418 135 L397 135 Z " />
<glyph glyph-name="Nu" unicode="&#x39d;" horiz-adv-x="721" d="M73 0 L73 671 L95 671 Q112 654 146 619 Q180 584 222.5 540.5 Q265 497 311.5 449 Q358 401 400.5 357.5 Q443 314 477.5 279 Q512 244 529 227 L533 227 L533 660 L646 660 L646 -8 L626 -8 Q607 13 572.5 48.5 Q538 84 496 127 Q454 170 408 216.5 Q362 263 320 305.5 Q278 348 243.5 384 Q209 420 190 441 L187 441 L187 0 L73 0 Z " />
<glyph glyph-name="Omicron" unicode="&#x39f;" horiz-adv-x="794" d="M397 -11 Q315 -11 250.5 15 Q186 41 141 87 Q96 133 72 195.5 Q48 258 48 330 Q48 402 75 464 Q102 526 149 572.5 Q196 619 260 645.5 Q324 672 398 672 Q474 672 538 645.5 Q602 619 648 572.5 Q694 526 719.5 464 Q745 402 745 330 Q745 258 719.5 195.5 Q694 133 647.5 87 Q601 41 537 15 Q473 -11 397 -11 Z M398 575 Q346 575 303 556 Q260 537 229 504 Q198 471 181 426 Q164 381 164 330 Q164 277 180.5 232 Q197 187 227 154 Q257 121 300.5 102 Q344 83 398 83 Q451 83 494 102.5 Q537 122 567.5 155.5 Q598 189 614.5 234 Q631 279 631 330 Q631 381 614.5 425.5 Q598 470 567 503 Q536 536 493 555.5 Q450 575 398 575 Z " />
<glyph glyph-name="Rho" unicode="&#x3a1;" horiz-adv-x="580" d="M72 659 L312 659 Q373 659 418.5 640.5 Q464 622 494.5 591 Q525 560 540 521 Q555 482 555 440 Q555 390 537 349 Q519 308 487 278.5 Q455 249 411 232.5 Q367 216 315 216 L188 216 L188 0 L72 0 L72 659 Z M187 571 L187 305 L294 305 Q334 305 361.5 317 Q389 329 406 348 Q423 367 430.5 390.5 Q438 414 438 437 Q438 462 429.5 486 Q421 510 403 529 Q385 548 356.5 559.5 Q328 571 288 571 L187 571 Z " />
<glyph glyph-name="Tau" unicode="&#x3a4;" horiz-adv-x="545" d="M330 570 L330 0 L215 0 L215 570 L13 570 L13 661 L531 661 L531 570 L330 570 Z " />
<glyph glyph-name="Upsilon" unicode="&#x3a5;" horiz-adv-x="584" d="M302 374 L362 488 Q385 531 407.5 573.5 Q430 616 453 660 L575 660 Q519 563 464.5 466.5 Q410 370 355 273 L355 0 L240 0 L240 273 L8 660 L133 660 L231 491 L298 374 L302 374 Z " />
<glyph glyph-name="Chi" unicode="&#x3a7;" horiz-adv-x="646" d="M323 322 L131 0 L8 0 L223 341 L23 659 L146 659 L323 359 L498 659 L623 659 Q573 579 521.5 500 Q470 421 421 341 L637 0 L511 0 L323 322 Z " />
<glyph glyph-name="alphatonos" unicode="&#x3ac;" horiz-adv-x="589" d="M284 369 Q252 369 226.5 357.5 Q201 346 183 326 Q165 306 155.5 279.5 Q146 253 146 223 Q146 191 155 163.5 Q164 136 182 116 Q200 96 225.5 85 Q251 74 284 74 Q316 74 341 85.5 Q366 97 383.5 117.5 Q401 138 410.5 165 Q420 192 420 223 Q420 253 410.5 280 Q401 307 383 326.5 Q365 346 340 357.5 Q315 369 284 369 Z M273 455 Q320 455 364 437 Q408 419 436 384 Q437 387 440 395.5 Q443 404 446 414 Q449 424 451.5 432.5 Q454 441 456 445 L524 445 L524 0 L443 0 L432 61 Q430 61 430 61.5 Q430 62 428 62 Q400 30 361 10.5 Q322 -9 268 -9 Q214 -9 171.5 7.5 Q129 24 99.5 54 Q70 84 55 126 Q40 168 40 219 Q40 268 57 311 Q74 354 104.5 386 Q135 418 178 436.5 Q221 455 273 455 Z M224 527 L337 696 L421 662 L290 527 L224 527 Z " />
<glyph glyph-name="etatonos" unicode="&#x3ae;" horiz-adv-x="550" d="M377 0 L377 258 Q377 309 353.5 340 Q330 371 288 371 Q264 371 242 362.5 Q220 354 203.5 336.5 Q187 319 177.5 292.5 Q168 266 168 229 L168 0 L63 0 L63 445 L141 445 Q142 441 144 432 Q146 423 148.5 413 Q151 403 153 394 Q155 385 156 381 L160 381 Q194 423 235 439 Q276 455 317 455 Q399 455 440.5 408 Q482 361 482 276 L482 0 L377 0 Z M192 527 L305 696 L389 662 L258 527 L192 527 Z " />
<glyph glyph-name="iotatonos" unicode="&#x3af;" horiz-adv-x="243" d="M68 0 L68 445 L175 445 L175 0 L68 0 Z M71 527 L184 696 L268 662 L137 527 L71 527 Z " />
<glyph glyph-name="iotadieresistonos" unicode="&#x390;" horiz-adv-x="243" d="M68 0 L68 445 L175 445 L175 0 L68 0 Z M56 594 Q56 571 41.5 556 Q27 541 4 541 Q-20 541 -35 556 Q-50 571 -50 594 Q-50 617 -33 631.5 Q-16 646 4 646 Q27 646 41.5 631 Q56 616 56 594 Z M311 594 Q311 571 296.5 556 Q282 541 259 541 Q235 541 220.5 556 Q206 571 206 594 Q206 617 222 631.5 Q238 646 259 646 Q282 646 296.5 631 Q311 616 311 594 Z M37 527 Q44 538 60 561.5 Q76 585 93.5 611 Q111 637 126.5 660.5 Q142 684 150 696 L234 662 L103 527 L37 527 Z " />
<glyph glyph-name="iotadieresis" unicode="&#x3ca;" horiz-adv-x="243" d="M68 0 L68 445 L175 445 L175 0 L68 0 Z M89 594 Q89 571 74.5 556 Q60 541 37 541 Q13 541 -2 556 Q-17 571 -17 594 Q-17 617 -0.5 631.5 Q16 646 37 646 Q60 646 74.5 631 Q89 616 89 594 Z M265 594 Q265 571 250.5 556 Q236 541 212 541 Q188 541 174 556 Q160 571 160 594 Q160 617 176 631.5 Q192 646 212 646 Q236 646 250.5 631 Q265 616 265 594 Z " />
<glyph glyph-name="upsilondieresis" unicode="&#x3cb;" horiz-adv-x="536" d="M369 445 L476 445 L476 206 Q476 149 459.5 108.5 Q443 68 414 41.5 Q385 15 346.5 2.5 Q308 -10 264 -10 Q165 -10 112.5 42 Q60 94 60 190 L60 445 L164 445 L164 192 Q164 168 169.5 147 Q175 126 187.5 109.5 Q200 93 219.5 83.5 Q239 74 267 74 Q320 74 344.5 107 Q369 140 369 196 L369 445 Z M235 594 Q235 571 220.5 556 Q206 541 183 541 Q159 541 144 556 Q129 571 129 594 Q129 617 145.5 631.5 Q162 646 183 646 Q206 646 220.5 631 Q235 616 235 594 Z M411 594 Q411 571 396.5 556 Q382 541 358 541 Q334 541 320 556 Q306 571 306 594 Q306 617 322 631.5 Q338 646 358 646 Q382 646 396.5 631 Q411 616 411 594 Z " />
<glyph glyph-name="omicrontonos" unicode="&#x3cc;" horiz-adv-x="568" d="M284 457 Q338 457 382.5 439 Q427 421 458.5 389.5 Q490 358 507.5 315 Q525 272 525 223 Q525 173 507.5 130.5 Q490 88 458 56.5 Q426 25 381.5 7.5 Q337 -10 284 -10 Q227 -10 182 8 Q137 26 105.5 57 Q74 88 57.5 130.5 Q41 173 41 223 Q41 272 59.5 315 Q78 358 110 389.5 Q142 421 186.5 439 Q231 457 284 457 Z M285 372 Q253 372 227.5 360.5 Q202 349 184 328.5 Q166 308 156.5 281.5 Q147 255 147 225 Q147 193 156 165.5 Q165 138 183 118 Q201 98 226.5 86.5 Q252 75 285 75 Q317 75 342.5 87 Q368 99 386 119 Q404 139 413.5 166.5 Q423 194 423 225 Q423 255 413 281.5 Q403 308 385 328.5 Q367 349 341.5 360.5 Q316 372 285 372 Z M237 527 L350 696 L434 662 L303 527 L237 527 Z " />
<glyph glyph-name="upsilontonos" unicode="&#x3cd;" horiz-adv-x="541" d="M212 527 L325 696 L409 662 L278 527 L212 527 Z M372 445 L479 445 L479 206 Q479 149 462.5 108.5 Q446 68 417 41.5 Q388 15 349.5 2.5 Q311 -10 267 -10 Q168 -10 115.5 42 Q63 94 63 190 L63 445 L167 445 L167 192 Q167 168 172.5 147 Q178 126 190.5 109.5 Q203 93 222.5 83.5 Q242 74 270 74 Q323 74 347.5 107 Q372 140 372 196 L372 445 Z " />
<glyph glyph-name="upsilondieresistonos" unicode="&#x3b0;" horiz-adv-x="536" d="M369 445 L476 445 L476 206 Q476 149 459.5 108.5 Q443 68 414 41.5 Q385 15 346.5 2.5 Q308 -10 264 -10 Q165 -10 112.5 42 Q60 94 60 190 L60 445 L164 445 L164 192 Q164 168 169.5 147 Q175 126 187.5 109.5 Q200 93 219.5 83.5 Q239 74 267 74 Q320 74 344.5 107 Q369 140 369 196 L369 445 Z M202 594 Q202 571 187.5 556 Q173 541 150 541 Q126 541 111 556 Q96 571 96 594 Q96 617 113 631.5 Q130 646 150 646 Q173 646 187.5 631 Q202 616 202 594 Z M457 594 Q457 571 442.5 556 Q428 541 405 541 Q381 541 366.5 556 Q352 571 352 594 Q352 617 368 631.5 Q384 646 405 646 Q428 646 442.5 631 Q457 616 457 594 Z M183 527 Q190 538 206 561.5 Q222 585 239.5 611 Q257 637 272.5 660.5 Q288 684 296 696 L380 662 L249 527 L183 527 Z " />
<glyph glyph-name="guilsinglleft" unicode="&#x2039;" horiz-adv-x="299" d="M269 14 L168 14 L37 198 L37 208 L169 392 L269 392 L133 206 L269 14 Z " />
<glyph glyph-name="guilsinglright" unicode="&#x203a;" horiz-adv-x="299" d="M170 206 L34 392 L133 392 L265 208 L265 198 L135 14 L34 14 L170 206 Z " />
<glyph glyph-name="logicalnot" unicode="&#xac;" horiz-adv-x="560" d="M478 94 L407 94 L407 261 L80 261 L80 328 L478 328 L478 94 Z " />
<glyph glyph-name="tilde" unicode="&#x2dc;" horiz-adv-x="492" d="M402 611 Q390 579 368.5 556 Q347 533 315 533 Q297 533 279.5 540.5 Q262 548 245.5 557.5 Q229 567 214 574.5 Q199 582 186 582 Q170 582 156 567 Q142 552 131 528 L94 574 Q100 589 109 603 Q118 617 129 628 Q140 639 154 646 Q168 653 184 653 Q201 653 218 645 Q235 637 251.5 627.5 Q268 618 283.5 610 Q299 602 313 602 Q331 602 344 617.5 Q357 633 369 657 L402 611 Z " />
<glyph glyph-name="primemod" unicode="&#x2b9;" horiz-adv-x="237" d="M22 370 L140 659 L220 625 L84 370 L22 370 Z " />
<glyph glyph-name="caron" unicode="&#x2c7;" horiz-adv-x="492" d="M400 679 L255 516 L236 516 L86 679 L174 679 L243 596 L308 679 L400 679 Z " />
<glyph glyph-name="breve" unicode="&#x2d8;" horiz-adv-x="505" d="M247 524 Q212 524 186 536.5 Q160 549 142 570 Q124 591 114.5 618 Q105 645 104 675 L165 675 Q167 633 189 608.5 Q211 584 248 584 Q289 584 308.5 611.5 Q328 639 331 675 L391 675 Q389 648 380.5 621 Q372 594 354.5 572.5 Q337 551 310.5 537.5 Q284 524 247 524 Z " />
<glyph glyph-name="dotaccent" unicode="&#x2d9;" horiz-adv-x="475" d="M329 593 Q329 567 312 549 Q295 531 268 531 Q240 531 223.5 549 Q207 567 207 592 Q207 618 226 635.5 Q245 653 268 653 Q294 653 311.5 635.5 Q329 618 329 593 Z " />
<glyph glyph-name="ring" unicode="&#x2da;" horiz-adv-x="495" d="M251 517 Q203 517 174.5 546 Q146 575 146 618 Q146 640 154 659.5 Q162 679 176.5 693 Q191 707 210 715.5 Q229 724 251 724 Q298 724 328.5 693.5 Q359 663 359 618 Q359 575 328 546 Q297 517 251 517 Z M251 671 Q231 671 217 655 Q203 639 203 618 Q203 598 216 584 Q229 570 251 570 Q274 570 287.5 584 Q301 598 301 618 Q301 639 287.5 655 Q274 671 251 671 Z " />
<glyph glyph-name="ogonek" unicode="&#x2db;" horiz-adv-x="527" d="M385 19 Q342 -13 316.5 -52 Q291 -91 291 -120 Q291 -146 306.5 -157 Q322 -168 345 -168 Q368 -168 396.5 -158 Q425 -148 444 -137 L441 -192 Q415 -207 381 -216 Q347 -225 316 -225 Q271 -225 244.5 -205 Q218 -185 218 -143 Q218 -129 224.5 -107 Q231 -85 248 -59.5 Q265 -34 294.5 -8 Q324 18 369 41 L385 19 Z " />
<glyph glyph-name="hungarumlaut" unicode="&#x2dd;" horiz-adv-x="492" d="M244 527 L356 696 L440 662 L308 527 L244 527 Z M120 527 Q127 538 143 561.5 Q159 585 176.5 611 Q194 637 209.5 660.5 Q225 684 233 696 L317 662 L185 527 L120 527 Z " />
<glyph glyph-name="Circumflex" unicode="&#xf6c0;" horiz-adv-x="794" d="M471 721 L403 795 L331 721 L240 721 L396 874 L415 874 L565 721 L471 721 Z " />
<glyph glyph-name="commaaccent" unicode="&#xf6c3;" horiz-adv-x="607" d="M251 -101 Q251 -77 267.5 -60.5 Q284 -44 307 -44 Q332 -44 347.5 -60.5 Q363 -77 363 -103 Q363 -122 355 -145.5 Q347 -169 335.5 -193.5 Q324 -218 310.5 -240 Q297 -262 286 -278 L245 -271 L286 -153 Q268 -146 259.5 -132 Q251 -118 251 -101 Z " />
<glyph glyph-name="Acute" unicode="&#xf6c9;" horiz-adv-x="833" d="M342 723 Q350 734 368 756 Q386 778 406.5 802.5 Q427 827 445 849 Q463 871 471 882 L560 848 L415 723 L342 723 Z " />
<glyph glyph-name="Caron" unicode="&#xf6ca;" horiz-adv-x="794" d="M556 871 L406 719 L387 719 L232 871 L323 871 L396 793 L464 871 L556 871 Z " />
<glyph glyph-name="Dieresis" unicode="&#xf6cb;" horiz-adv-x="789" d="M361 794 Q361 771 346 755.5 Q331 740 308 740 Q284 740 269.5 755.5 Q255 771 255 793 Q255 816 271.5 831.5 Q288 847 308 847 Q331 847 346 831.5 Q361 816 361 794 Z M537 794 Q537 771 522.5 755.5 Q508 740 485 740 Q460 740 446 755.5 Q432 771 432 793 Q432 816 448 831.5 Q464 847 485 847 Q508 847 522.5 831.5 Q537 816 537 794 Z " />
<glyph glyph-name="Grave" unicode="&#xf6ce;" horiz-adv-x="794" d="M388 723 L243 848 L332 882 L460 723 L388 723 Z " />
<glyph glyph-name="Hungarumlaut" unicode="&#xf6cf;" horiz-adv-x="833" d="M416 723 Q424 734 442 756 Q460 778 480 802.5 Q500 827 518 849 Q536 871 544 882 Q550 879 562.5 874.5 Q575 870 588.5 865 Q602 860 614.5 855.5 Q627 851 633 848 Q624 840 604 822.5 Q584 805 561.5 785.5 Q539 766 518.5 748.5 Q498 731 489 723 L416 723 Z M276 723 Q284 734 302 756 Q320 778 340 802.5 Q360 827 378 849 Q396 871 404 882 Q410 879 422.5 874.5 Q435 870 448.5 865 Q462 860 474.5 855.5 Q487 851 493 848 Q484 840 463.5 822.5 Q443 805 421 785.5 Q399 766 378.5 748.5 Q358 731 349 723 L276 723 Z " />
<glyph glyph-name="Macron" unicode="&#xf6d0;" horiz-adv-x="794" d="M242 823 L545 823 L545 751 L242 751 L242 823 Z " />
<glyph glyph-name="ff" unicode="&#xfb00;" horiz-adv-x="589" d="M82 520 Q82 562 93.5 597.5 Q105 633 129 658.5 Q153 684 189 698.5 Q225 713 275 713 Q300 713 338.5 707 Q377 701 415 681 Q437 702 468.5 713 Q500 724 547 724 Q570 724 589.5 720.5 Q609 717 629 712 L629 627 Q609 635 590 638 Q571 641 555 641 Q501 641 480 609 Q459 577 459 528 L459 445 L591 445 L591 364 L459 364 L459 0 L355 0 L355 364 L186 364 L186 0 L82 0 L82 364 L5 364 L5 433 Q10 434 20.5 435.5 Q31 437 43 439 Q55 441 66 443 Q77 445 82 445 L82 520 Z M355 528 Q355 575 367 613 Q341 624 318 627 Q295 630 277 630 Q252 630 234.5 621 Q217 612 206.5 596.5 Q196 581 191 560.5 Q186 540 186 518 L186 445 L355 445 L355 528 Z " />
<glyph glyph-name="fi" unicode="&#xfb01;" horiz-adv-x="505" d="M340 0 L340 365 L186 365 L186 0 L82 0 L82 365 L5 365 L5 434 L82 445 L82 537 Q82 628 130.5 680.5 Q179 733 282 733 Q314 733 352.5 727 Q391 721 426 704 L426 616 Q390 635 355.5 642.5 Q321 650 293 650 Q234 650 210 618 Q186 586 186 534 L186 445 L446 445 L446 0 L340 0 Z " />
<glyph glyph-name="fl" unicode="&#xfb02;" horiz-adv-x="512" d="M292 364 L186 364 L186 0 L82 0 L82 364 L5 364 L5 433 Q10 434 20.5 435.5 Q31 437 43 439 Q55 441 66 443 Q77 445 82 445 L82 535 Q82 578 93.5 614 Q105 650 129 676 Q153 702 190 716.5 Q227 731 278 731 Q297 731 319 729.5 Q341 728 363.5 725 Q386 722 408.5 717 Q431 712 450 705 L450 0 L345 0 L345 639 Q328 644 314 645.5 Q300 647 289 647 Q232 647 209 615 Q186 583 186 532 L186 445 L292 445 L292 364 Z " />
<glyph glyph-name="ffi" unicode="&#xfb03;" horiz-adv-x="782" d="M720 445 L720 0 L614 0 L614 364 L456 364 L456 0 L351 0 L351 364 L186 364 L186 0 L82 0 L82 364 L5 364 L5 433 Q24 436 43 439.5 Q62 443 82 445 L82 523 Q82 565 93.5 600 Q105 635 129 660.5 Q153 686 189 700 Q225 714 275 714 Q303 714 337.5 708.5 Q372 703 407 686 Q459 732 562 732 Q589 732 625 727 Q661 722 695 704 L695 615 Q659 635 625 642.5 Q591 650 563 650 Q503 650 479.5 617.5 Q456 585 456 533 L456 445 L720 445 Z M351 536 Q351 579 363 614 Q338 625 318.5 628.5 Q299 632 282 632 Q255 632 237 623 Q219 614 207.5 599 Q196 584 191 563.5 Q186 543 186 519 L186 445 L351 445 L351 536 Z " />
<glyph glyph-name="ffl" unicode="&#xfb04;" horiz-adv-x="785" d="M560 364 L453 364 L453 0 L348 0 L348 364 L186 364 L186 0 L82 0 L82 364 L5 364 L5 433 Q10 434 20.5 435.5 Q31 437 43 439 Q55 441 66 443 Q77 445 82 445 L82 488 Q82 536 91 577.5 Q100 619 122 649.5 Q144 680 181 697 Q218 714 275 714 Q306 714 340 708 Q374 702 407 686 Q431 707 466 719 Q501 731 548 731 Q558 731 578.5 730 Q599 729 624 726.5 Q649 724 675 719 Q701 714 723 705 L723 0 L618 0 L618 639 Q602 644 587 645.5 Q572 647 561 647 Q530 647 509.5 638.5 Q489 630 476.5 614.5 Q464 599 458.5 578 Q453 557 453 532 L453 445 L560 445 L560 364 Z M348 535 Q348 556 351 577 Q354 598 362 615 Q339 626 318.5 629 Q298 632 283 632 Q256 632 237.5 623 Q219 614 207.5 599 Q196 584 191 563.5 Q186 543 186 519 L186 445 L348 445 L348 535 Z " />
<glyph glyph-name="longs_t" unicode="&#xfb05;" horiz-adv-x="592" d="M186 0 L82 0 L82 364 L5 364 L5 433 Q10 434 20.5 435.5 Q31 437 43 439 Q55 441 66 443 Q77 445 82 445 L82 534 Q82 576 93 611 Q104 646 126.5 671.5 Q149 697 184.5 711 Q220 725 270 725 Q297 725 327 720 Q357 715 390 698 L390 613 Q355 631 330 636.5 Q305 642 282 642 Q254 642 235.5 633.5 Q217 625 206 609.5 Q195 594 190.5 573.5 Q186 553 186 529 L186 0 Z M439 586 L439 445 L561 445 L561 365 L439 365 L439 152 Q439 116 452 96.5 Q465 77 500 77 Q515 77 536 83 Q557 89 579 103 L579 20 Q554 3 525 -3.5 Q496 -10 473 -10 Q431 -10 404 2 Q377 14 361.5 36 Q346 58 340 89 Q334 120 334 158 L334 365 L263 365 L263 425 L344 448 Q347 456 358 475.5 Q369 495 381 517 Q393 539 404 558.5 Q415 578 418 586 L439 586 Z " />
<glyph glyph-name="paragraph" unicode="&#xb6;" horiz-adv-x="556" d="M257 290 Q213 290 176.5 305.5 Q140 321 114 348 Q88 375 73 410.5 Q58 446 58 487 Q58 528 73 563.5 Q88 599 114.5 625.5 Q141 652 177.5 667.5 Q214 683 257 683 L336 683 L336 290 L257 290 Z M257 -102 Q294 -100 318 -90.5 Q342 -81 356.5 -63 Q371 -45 377 -18.5 Q383 8 383 44 L383 682 L486 682 L486 38 Q486 -22 471 -63.5 Q456 -105 430 -131.5 Q404 -158 369.5 -171 Q335 -184 295 -187 L257 -102 Z " />
<glyph glyph-name="quotesinglbase" unicode="&#x201a;" horiz-adv-x="228" d="M57 50 Q57 76 74.5 94 Q92 112 117 112 Q143 112 160.5 95 Q178 78 178 52 Q178 31 169 4 Q160 -23 147 -51 Q134 -79 118.5 -105.5 Q103 -132 91 -150 L46 -143 L95 -5 Q76 1 66.5 16.5 Q57 32 57 50 Z " />
<glyph glyph-name="quotedblbase" unicode="&#x201e;" horiz-adv-x="370" d="M54 50 Q54 76 72 94 Q90 112 115 112 Q141 112 158.5 95 Q176 78 176 52 Q176 31 167 4 Q158 -23 145 -51 Q132 -79 116.5 -105.5 Q101 -132 89 -150 L43 -143 L93 -5 Q74 1 64 16.5 Q54 32 54 50 Z M200 50 Q200 76 217.5 94 Q235 112 260 112 Q286 112 304 95 Q322 78 322 52 Q322 31 313 4 Q304 -23 290.5 -51 Q277 -79 261.5 -105.5 Q246 -132 234 -150 L189 -143 L238 -5 Q219 1 209.5 16.5 Q200 32 200 50 Z " />
<glyph glyph-name="ellipsis" unicode="&#x2026;" horiz-adv-x="670" d="M181 52 Q181 26 163 8 Q145 -10 120 -10 Q94 -10 75.5 8 Q57 26 57 52 Q57 78 75.5 96 Q94 114 120 114 Q146 114 163.5 96 Q181 78 181 52 Z M399 52 Q399 26 380.5 8 Q362 -10 337 -10 Q311 -10 292.5 8 Q274 26 274 52 Q274 78 292.5 96 Q311 114 337 114 Q363 114 381 96 Q399 78 399 52 Z M616 52 Q616 26 598 8 Q580 -10 554 -10 Q528 -10 510 8 Q492 26 492 52 Q492 78 510 96 Q528 114 554 114 Q580 114 598 96 Q616 78 616 52 Z " />
<glyph glyph-name="dagger" unicode="&#x2020;" horiz-adv-x="545" d="M58 495 L217 495 L217 680 L323 680 L323 495 L485 495 L485 406 L324 406 L324 -112 L218 -112 L218 406 L58 406 L58 495 Z " />
<glyph glyph-name="daggerdbl" unicode="&#x2021;" horiz-adv-x="545" d="M58 498 L216 498 L216 680 L322 680 L322 498 L485 498 L485 411 L323 411 L323 202 L485 202 L485 114 L323 114 L323 -112 L217 -112 L217 114 L58 114 L58 202 L217 202 L217 411 L58 411 L58 498 Z " />
<glyph glyph-name="brokenbar" unicode="&#xa6;" horiz-adv-x="300" d="M110 396 L110 750 L191 750 L191 396 L110 396 Z M191 269 L191 -143 L110 -143 L110 269 L191 269 Z " />
<glyph glyph-name="divide" unicode="&#xf7;" horiz-adv-x="560" d="M339 443 Q339 419 321.5 401.5 Q304 384 280 384 Q256 384 238.5 401.5 Q221 419 221 443 Q221 468 238 485.5 Q255 503 280 503 Q305 503 322 485.5 Q339 468 339 443 Z M80 262 L80 331 L478 331 L478 262 L80 262 Z M339 148 Q339 123 321.5 106 Q304 89 280 89 Q256 89 238.5 106.5 Q221 124 221 148 Q221 173 238 189.5 Q255 206 280 206 Q305 206 322 189.5 Q339 173 339 148 Z " />
<glyph glyph-name="multiply" unicode="&#xd7;" horiz-adv-x="560" d="M162 122 L114 172 Q171 230 232 290 Q203 319 174 348 Q145 377 116 406 L163 454 Q192 425 221 396 Q250 367 279 338 Q308 367 337 396 Q366 425 395 454 L444 404 Q415 375 386.5 346 Q358 317 329 288 Q358 259 386.5 230.5 Q415 202 444 173 L397 125 Q368 154 339 183 Q310 212 281 241 L162 122 Z " />
<glyph glyph-name="cedilla" unicode="&#xb8;" horiz-adv-x="434" d="M341 -136 Q341 -154 333 -171.5 Q325 -189 309.5 -202.5 Q294 -216 270 -224.5 Q246 -233 214 -233 Q194 -233 172 -229 Q150 -225 129 -217 L129 -162 Q146 -170 167 -175 Q188 -180 210 -180 Q238 -180 254 -168 Q270 -156 270 -138 Q270 -117 252 -107.5 Q234 -98 213 -98 Q204 -98 195.5 -100 Q187 -102 179 -104 L167 -96 L226 32 Q232 30 245 27 Q258 24 264 22 L228 -51 Q259 -52 281 -60 Q303 -68 316 -80 Q329 -92 335 -106.5 Q341 -121 341 -136 Z " />
<glyph glyph-name="macron" unicode="&#xaf;" horiz-adv-x="505" d="M102 617 L394 617 L394 547 L102 547 L102 617 Z " />
<glyph glyph-name="questiondown" unicode="&#xbf;" horiz-adv-x="510" d="M184 -56 Q184 -98 215.5 -127 Q247 -156 306 -156 Q349 -156 388 -143.5 Q427 -131 461 -113 L461 -210 Q416 -230 373 -238 Q330 -246 292 -246 Q242 -246 201.5 -233 Q161 -220 132.5 -196.5 Q104 -173 88 -140 Q72 -107 72 -67 Q72 -29 87.5 2 Q103 33 126 59.5 Q149 86 176.5 109 Q204 132 227 153 Q250 174 265.5 194.5 Q281 215 281 237 Q281 254 270 271 L359 290 Q376 253 376 228 Q376 198 362 173.5 Q348 149 326.5 127 Q305 105 280 84 Q255 63 233.5 41.5 Q212 20 198 -4 Q184 -28 184 -56 Z M247 397 Q247 423 264.5 440 Q282 457 307 457 Q336 457 352.5 440 Q369 423 369 397 Q369 371 351.5 353.5 Q334 336 307 336 Q281 336 264 353.5 Q247 371 247 397 Z " />
<glyph glyph-name="exclamdown" unicode="&#xa1;" horiz-adv-x="301" d="M193 273 L205 -243 L95 -243 Q96 -221 97 -180.5 Q98 -140 99.5 -90 Q101 -40 102.5 15 Q104 70 105 120 Q106 170 107 210.5 Q108 251 109 273 L193 273 Z M212 397 Q212 371 194 353 Q176 335 151 335 Q125 335 106.5 353 Q88 371 88 397 Q88 422 106.5 439.5 Q125 457 151 457 Q175 457 193.5 439.5 Q212 422 212 397 Z " />
<glyph glyph-name="florin" unicode="&#x192;" horiz-adv-x="560" d="M151 401 L240 401 L249 483 Q260 581 302 626.5 Q344 672 419 672 Q439 672 460.5 669 Q482 666 508 658 L508 572 Q475 582 445 582 Q405 582 384 558 Q363 534 355 477 L346 401 L448 401 L448 328 L339 328 L319 159 Q311 88 297 39.5 Q283 -9 262 -39 Q241 -69 211.5 -82 Q182 -95 142 -95 Q119 -95 97 -91 Q75 -87 49 -77 L49 16 Q91 0 119 0 Q143 0 158.5 9.5 Q174 19 184.5 41.5 Q195 64 201.5 102.5 Q208 141 215 200 L231 328 L151 328 L151 401 Z " />
<glyph glyph-name="Iotadieresis" unicode="&#x3aa;" horiz-adv-x="277" d="M80 0 L80 660 L195 660 L195 0 L80 0 Z M104 794 Q104 771 89 755.5 Q74 740 51 740 Q27 740 12.5 755.5 Q-2 771 -2 793 Q-2 816 14.5 831.5 Q31 847 51 847 Q74 847 89 831.5 Q104 816 104 794 Z M280 794 Q280 771 265.5 755.5 Q251 740 228 740 Q203 740 189 755.5 Q175 771 175 793 Q175 816 191 831.5 Q207 847 228 847 Q251 847 265.5 831.5 Q280 816 280 794 Z " />
<glyph glyph-name="Upsilondieresis" unicode="&#x3ab;" horiz-adv-x="584" d="M302 374 L362 488 Q385 531 407.5 573.5 Q430 616 453 660 L575 660 Q519 563 464.5 466.5 Q410 370 355 273 L355 0 L240 0 L240 273 L8 660 L133 660 L231 491 L298 374 L302 374 Z M265 778 Q265 755 250 739.5 Q235 724 212 724 Q188 724 173.5 739.5 Q159 755 159 777 Q159 800 175.5 815.5 Q192 831 212 831 Q235 831 250 815.5 Q265 800 265 778 Z M441 778 Q441 755 426.5 739.5 Q412 724 389 724 Q364 724 350 739.5 Q336 755 336 777 Q336 800 352 815.5 Q368 831 389 831 Q412 831 426.5 815.5 Q441 800 441 778 Z " />
<glyph glyph-name="bullet" unicode="&#x2022;" horiz-adv-x="477" d="M111 238 Q111 264 121 287.5 Q131 311 148.5 328.5 Q166 346 189 356 Q212 366 239 366 Q266 366 289 356 Q312 346 329.5 328.5 Q347 311 357 287.5 Q367 264 367 238 Q367 211 357 188 Q347 165 329.5 148 Q312 131 289 121 Q266 111 239 111 Q212 111 189 121 Q166 131 148.5 148 Q131 165 121 188 Q111 211 111 238 Z " />
<glyph glyph-name="Alphatonos" unicode="&#x386;" horiz-adv-x="643" d="M464 126 L175 126 L123 0 L12 0 L313 669 L334 669 L632 0 L517 0 L464 126 Z M208 207 L432 207 L322 467 L318 467 L208 207 Z M-10 518 L103 687 L187 653 L56 518 L-10 518 Z " />
<glyph glyph-name="anoteleia" unicode="&#x387;" horiz-adv-x="232" d="M176 343 Q176 317 158 299 Q140 281 114 281 Q88 281 70 299 Q52 317 52 343 Q52 369 70 387 Q88 405 114 405 Q140 405 158 387 Q176 369 176 343 Z " />
<glyph glyph-name="Epsilontonos" unicode="&#x388;" horiz-adv-x="564" d="M530 0 L73 0 L73 660 L508 660 L508 569 L188 569 L188 390 L479 390 L479 301 L188 301 L188 91 L530 91 L530 0 Z M-165 518 L-52 687 L32 653 L-99 518 L-165 518 Z " />
<glyph glyph-name="Etatonos" unicode="&#x389;" horiz-adv-x="684" d="M495 0 L495 299 L188 299 L188 0 L73 0 L73 660 L188 660 L188 391 L495 391 L495 660 L609 660 L609 0 L495 0 Z M-166 517 L-53 686 L31 652 L-100 517 L-166 517 Z " />
<glyph glyph-name="Iotatonos" unicode="&#x38a;" horiz-adv-x="277" d="M80 0 L80 660 L195 660 L195 0 L80 0 Z M-153 517 L-40 686 L44 652 L-87 517 L-153 517 Z " />
<glyph glyph-name="Omicrontonos" unicode="&#x38c;" horiz-adv-x="794" d="M397 -11 Q315 -11 250.5 15 Q186 41 141 87 Q96 133 72 195.5 Q48 258 48 330 Q48 402 75 464 Q102 526 149 572.5 Q196 619 260 645.5 Q324 672 398 672 Q474 672 538 645.5 Q602 619 648 572.5 Q694 526 719.5 464 Q745 402 745 330 Q745 258 719.5 195.5 Q694 133 647.5 87 Q601 41 537 15 Q473 -11 397 -11 Z M398 575 Q346 575 303 556 Q260 537 229 504 Q198 471 181 426 Q164 381 164 330 Q164 277 180.5 232 Q197 187 227 154 Q257 121 300.5 102 Q344 83 398 83 Q451 83 494 102.5 Q537 122 567.5 155.5 Q598 189 614.5 234 Q631 279 631 330 Q631 381 614.5 425.5 Q598 470 567 503 Q536 536 493 555.5 Q450 575 398 575 Z M-116 517 L-3 686 L81 652 L-50 517 L-116 517 Z " />
<glyph glyph-name="Upsilontonos" unicode="&#x38e;" horiz-adv-x="584" d="M302 374 L362 488 Q385 531 407.5 573.5 Q430 616 453 660 L575 660 Q519 563 464.5 466.5 Q410 370 355 273 L355 0 L240 0 L240 273 L8 660 L133 660 L231 491 L298 374 L302 374 Z M-205 518 L-92 687 L-8 653 L-139 518 L-205 518 Z " />
<glyph glyph-name="Omegatonos" unicode="&#x38f;" horiz-adv-x="789" d="M396 576 Q342 576 298.5 556 Q255 536 224.5 501.5 Q194 467 177.5 421 Q161 375 161 322 Q161 281 171 235.5 Q181 190 201.5 147.5 Q222 105 252 70 Q282 35 323 15 L323 0 L38 0 L38 90 L144 90 Q146 92 146 94 Q96 142 72 205.5 Q48 269 48 336 Q48 408 74 469.5 Q100 531 146 576.5 Q192 622 256 647.5 Q320 673 396 673 Q472 673 535 647.5 Q598 622 643.5 577 Q689 532 714 471.5 Q739 411 739 342 Q739 276 715.5 211 Q692 146 641 94 Q642 93 642 90 L747 90 L747 0 L463 0 L463 15 Q506 35 537 70 Q568 105 588 147 Q608 189 618 234 Q628 279 628 320 Q628 369 613 415.5 Q598 462 568.5 497.5 Q539 533 496 554.5 Q453 576 396 576 Z M-124 516 L-11 685 L73 651 L-58 516 L-124 516 Z " />
<glyph glyph-name="omegatonos" unicode="&#x3ce;" horiz-adv-x="762" d="M719 220 Q719 177 707.5 136 Q696 95 671.5 62.5 Q647 30 610 10.5 Q573 -9 522 -9 Q475 -9 437.5 10.5 Q400 30 380 65 L375 65 Q353 36 317.5 13.5 Q282 -9 230 -9 Q182 -9 146.5 8 Q111 25 87.5 55 Q64 85 52.5 126 Q41 167 41 216 Q41 263 54 305.5 Q67 348 93 380 Q119 412 157 432 Q195 452 246 455 Q247 452 251 441 Q255 430 259.5 418 Q264 406 268 395.5 Q272 385 273 381 Q243 379 220 365.5 Q197 352 181 330 Q165 308 157 280 Q149 252 149 220 Q149 155 172.5 115 Q196 75 246 75 Q269 75 286 84 Q303 93 313.5 107 Q324 121 329 139.5 Q334 158 334 177 L334 303 L425 303 L425 173 Q425 130 449.5 102.5 Q474 75 512 75 Q560 75 586 114.5 Q612 154 612 220 Q612 252 603.5 280 Q595 308 579.5 330 Q564 352 541 365.5 Q518 379 489 381 L516 456 Q568 453 606 433 Q644 413 669 381 Q694 349 706.5 307.5 Q719 266 719 220 Z M328 525 L441 694 L525 660 L394 525 L328 525 Z " />
<glyph glyph-name="epsilontonos" unicode="&#x3ad;" horiz-adv-x="416" d="M154 527 L267 696 L351 662 L220 527 L154 527 Z M226 -10 Q176 -10 140 0 Q104 10 81 27.5 Q58 45 46.5 68.5 Q35 92 35 119 Q35 134 39.5 150 Q44 166 54 182 Q64 198 79.5 212 Q95 226 117 235 L117 239 Q79 252 62 277 Q45 302 45 329 Q45 383 92 420.5 Q139 458 228 458 Q257 458 294.5 451.5 Q332 445 369 429 L369 343 Q337 362 301 369 Q265 376 239 376 Q204 376 176.5 361 Q149 346 149 317 Q149 295 166.5 286 Q184 277 210 277 L280 277 L280 201 L231 201 Q184 201 163 181.5 Q142 162 142 136 Q142 110 166 90 Q190 70 247 70 Q276 70 315 81 Q354 92 389 117 L389 29 Q351 7 306 -1.5 Q261 -10 226 -10 Z " />
<glyph glyph-name="currency" unicode="&#xa4;" horiz-adv-x="560" d="M83 287 Q83 314 92 342.5 Q101 371 115 395 L61 451 Q65 455 72.5 462.5 Q80 470 88.5 478 Q97 486 104.5 494 Q112 502 116 506 L170 450 Q221 484 278 484 Q307 484 335 475 Q363 466 387 449 L441 503 Q455 489 468.5 476 Q482 463 496 449 Q483 435 469 421.5 Q455 408 441 393 Q456 370 464.5 343 Q473 316 473 287 Q473 259 464 231.5 Q455 204 441 181 L497 127 L441 71 L386 125 Q362 110 335 101.5 Q308 93 278 93 Q249 93 221.5 101.5 Q194 110 170 125 L118 71 L62 127 L116 179 Q99 202 91 230 Q83 258 83 287 Z M157 287 Q157 262 166.5 240.5 Q176 219 192.5 203 Q209 187 231 177.5 Q253 168 277 168 Q302 168 324 177.5 Q346 187 362 203 Q378 219 387.5 240.5 Q397 262 397 287 Q397 312 388 334 Q379 356 362.5 372.5 Q346 389 324 398.5 Q302 408 277 408 Q253 408 231 398.5 Q209 389 192.5 372.5 Q176 356 166.5 334 Q157 312 157 287 Z " />
<glyph glyph-name="Oslash" unicode="&#xd8;" horiz-adv-x="794" d="M397 -11 Q281 -11 200 41 L167 0 L108 0 L162 67 Q107 114 78 182 Q49 250 49 331 Q49 403 75.5 465 Q102 527 149 573 Q196 619 260 645.5 Q324 672 398 672 Q456 672 506.5 657 Q557 642 599 613 L636 661 L695 661 L634 585 Q687 538 716 472.5 Q745 407 745 331 Q745 259 719.5 196.5 Q694 134 648 88 Q602 42 538 15.5 Q474 -11 397 -11 Z M162 331 Q162 277 179.5 230.5 Q197 184 229 151 L535 535 Q508 555 473.5 566.5 Q439 578 399 578 Q346 578 302.5 559 Q259 540 228 506.5 Q197 473 179.5 428 Q162 383 162 331 Z M399 81 Q453 81 496 101 Q539 121 570 155 Q601 189 617.5 234.5 Q634 280 634 331 Q634 382 617 426 Q600 470 569 504 L263 120 Q290 102 324.5 91.5 Q359 81 399 81 Z " />
<glyph glyph-name="oslash" unicode="&#xf8;" horiz-adv-x="561" d="M281 457 Q325 457 361.5 445.5 Q398 434 427 413 L455 444 L508 444 L457 387 Q489 355 505.5 314 Q522 273 522 223 Q522 173 504.5 130.5 Q487 88 455 56.5 Q423 25 378.5 7.5 Q334 -10 281 -10 Q239 -10 204 0 Q169 10 140 28 L115 0 L61 0 L108 52 Q74 84 56.5 127.5 Q39 171 39 223 Q39 272 57 315 Q75 358 107.5 389.5 Q140 421 184 439 Q228 457 281 457 Z M283 376 Q251 376 225 364 Q199 352 180.5 331.5 Q162 311 152 283.5 Q142 256 142 225 Q142 165 171 125 L369 346 Q351 360 329.5 368 Q308 376 283 376 Z M422 225 Q422 250 415 273.5 Q408 297 396 316 L199 95 Q216 84 236.5 77.5 Q257 71 283 71 Q315 71 341 83 Q367 95 385 116 Q403 137 412.5 165 Q422 193 422 225 Z " />
<glyph glyph-name="ae" unicode="&#xe6;" horiz-adv-x="815" d="M562 459 Q613 459 653 443 Q693 427 720.5 397.5 Q748 368 762.5 326.5 Q777 285 777 234 L777 207 L443 207 Q444 172 456.5 145.5 Q469 119 489.5 101.5 Q510 84 536.5 75.5 Q563 67 592 67 Q630 67 670.5 77.5 Q711 88 756 120 L756 38 Q720 13 676 1 Q632 -11 584 -11 Q517 -11 465.5 15 Q414 41 388 89 Q370 59 347 39 Q324 19 298.5 8 Q273 -3 246.5 -7.5 Q220 -12 195 -12 Q150 -12 118.5 -0.5 Q87 11 66.5 29.5 Q46 48 36.5 71 Q27 94 27 117 Q27 157 43.5 186 Q60 215 87.5 233.5 Q115 252 152 261 Q189 270 231 270 L333 270 L333 284 Q333 332 306 355.5 Q279 379 221 379 Q193 379 155 369.5 Q117 360 78 339 L78 422 Q94 430 115 437 Q136 444 157.5 448.5 Q179 453 201 455.5 Q223 458 242 458 Q361 458 402 383 Q431 419 472.5 439 Q514 459 562 459 Z M131 131 Q131 97 156 79.5 Q181 62 220 62 Q248 62 269.5 72.5 Q291 83 305.5 100.5 Q320 118 327 141.5 Q334 165 334 191 L334 206 L259 206 Q236 206 213 203.5 Q190 201 172 192.5 Q154 184 142.5 169.5 Q131 155 131 131 Z M566 379 Q515 379 482.5 351 Q450 323 445 269 L681 269 Q676 324 646.5 351.5 Q617 379 566 379 Z " />
<glyph glyph-name="thorn" unicode="&#xfe;" horiz-adv-x="583" d="M161 49 L161 -216 L57 -216 L57 711 L161 711 L161 387 Q165 385 166 385 Q195 423 237 438.5 Q279 454 324 454 Q379 454 420.5 436 Q462 418 490 387 Q518 356 532 313.5 Q546 271 546 223 Q546 172 528 129.5 Q510 87 479.5 56.5 Q449 26 407.5 8.5 Q366 -9 318 -9 Q276 -9 234 5.5 Q192 20 166 53 L161 49 Z M303 73 Q334 73 359 84.5 Q384 96 402 116.5 Q420 137 430 164 Q440 191 440 222 Q440 287 404.5 329 Q369 371 303 371 Q271 371 245.5 359 Q220 347 202 326.5 Q184 306 174.5 279 Q165 252 165 221 Q165 191 174.5 164 Q184 137 202 116.5 Q220 96 245.5 84.5 Q271 73 303 73 Z " />
<glyph glyph-name="Thorn" unicode="&#xde;" horiz-adv-x="580" d="M556 358 Q556 327 544.5 290.5 Q533 254 506.5 222 Q480 190 436.5 168.5 Q393 147 329 147 L188 147 L188 0 L74 0 L74 661 L188 661 L188 566 L329 566 Q383 566 425 549.5 Q467 533 496 504.5 Q525 476 540.5 438.5 Q556 401 556 358 Z M442 354 Q442 374 435.5 395.5 Q429 417 414 435 Q399 453 374 464.5 Q349 476 312 476 L188 476 L188 234 L312 234 Q374 234 408 268 Q442 302 442 354 Z " />
<glyph glyph-name="AE" unicode="&#xc6;" horiz-adv-x="949" d="M467 0 L467 131 L216 131 Q190 98 164 65.5 Q138 33 112 0 L-12 0 Q119 166 249 330 Q379 494 510 660 L893 660 L893 569 L574 569 L574 390 L864 390 L864 301 L574 301 L574 91 L915 91 L915 0 L467 0 Z M465 453 Q414 390 365.5 328.5 Q317 267 266 204 L469 204 L469 453 L465 453 Z " />
<glyph glyph-name="Eth" unicode="&#xd0;" horiz-adv-x="690" d="M73 0 L73 306 L16 306 L16 372 L73 372 L73 660 L307 660 Q387 660 449 635.5 Q511 611 554 567.5 Q597 524 619 464 Q641 404 641 332 Q641 261 620 200.5 Q599 140 558 95.5 Q517 51 457.5 25.5 Q398 0 320 0 L73 0 Z M528 332 Q528 450 466.5 509.5 Q405 569 272 569 L187 569 L187 372 L362 372 L362 306 L187 306 L187 91 L275 91 Q406 91 467 149 Q528 207 528 332 Z " />
<glyph glyph-name="cent" unicode="&#xa2;" horiz-adv-x="538" d="M279 78 Q232 84 196.5 103.5 Q161 123 137 153 Q113 183 101 221.5 Q89 260 89 304 Q89 350 103 389.5 Q117 429 142 460 Q167 491 202 511.5 Q237 532 279 540 L279 649 L346 649 L346 543 Q370 541 396 536 Q422 531 442 523 L442 435 Q419 449 391 454 Q363 459 340 459 Q309 459 282 448.5 Q255 438 235 418.5 Q215 399 203.5 370.5 Q192 342 192 306 Q192 240 231 200 Q270 160 338 160 Q367 160 400.5 167.5 Q434 175 459 192 L459 105 Q438 93 407 86 Q376 79 346 77 L346 -31 L279 -31 L279 78 Z " />
<glyph glyph-name="periodcentered" unicode="&#xb7;" horiz-adv-x="232" d="M176 250 Q176 224 158 206.5 Q140 189 114 189 Q88 189 70 206.5 Q52 224 52 250 Q52 276 70 294 Q88 312 114 312 Q140 312 158 294 Q176 276 176 250 Z " />
<glyph glyph-name="Scaron" unicode="&#x160;" horiz-adv-x="518" d="M33 149 Q84 112 139 96.5 Q194 81 234 81 Q262 81 286.5 86 Q311 91 329.5 102.5 Q348 114 358.5 131.5 Q369 149 369 174 Q369 212 345 237 Q321 262 285 281.5 Q249 301 206.5 319 Q164 337 128 360 Q92 383 68 415 Q44 447 44 496 Q44 538 61 571 Q78 604 107 626.5 Q136 649 174.5 661 Q213 673 256 673 Q299 673 346.5 664 Q394 655 442 631 L442 529 Q403 555 356 568 Q309 581 274 581 Q252 581 231 576.5 Q210 572 194 562 Q178 552 168.5 536 Q159 520 159 498 Q159 470 183 451 Q207 432 243 415 Q279 398 321.5 379.5 Q364 361 400 335 Q436 309 460 271.5 Q484 234 484 179 Q484 91 422 40 Q360 -11 249 -11 Q225 -11 197.5 -8.5 Q170 -6 142 0 Q114 6 86 16.5 Q58 27 33 42 L33 149 Z M414 871 L264 719 L245 719 L90 871 L181 871 L254 793 L322 871 L414 871 Z " />
<glyph glyph-name="Zcaron" unicode="&#x17d;" horiz-adv-x="548" d="M526 646 Q513 624 487 580 Q461 536 428 482 Q395 428 359.5 368 Q324 308 291 254 Q258 200 232 156 Q206 112 193 90 L521 90 L521 0 L18 0 L18 12 L354 569 L58 569 L58 660 L526 660 L526 646 Z M455 871 L305 719 L286 719 L131 871 L222 871 L295 793 L363 871 L455 871 Z " />
<glyph glyph-name="scaron" unicode="&#x161;" horiz-adv-x="387" d="M23 119 Q59 92 100.5 79 Q142 66 171 66 Q207 66 231 78 Q255 90 255 119 Q255 140 239 154.5 Q223 169 198.5 181.5 Q174 194 145.5 206 Q117 218 92.5 234.5 Q68 251 52 273.5 Q36 296 36 330 Q36 361 48.5 384.5 Q61 408 82.5 424 Q104 440 133 448 Q162 456 195 456 Q222 456 259.5 449.5 Q297 443 335 426 L335 340 Q303 358 269.5 367.5 Q236 377 210 377 Q180 377 160 366.5 Q140 356 140 329 Q140 312 156 301 Q172 290 196 279 Q220 268 248.5 256.5 Q277 245 301 227.5 Q325 210 341 185 Q357 160 357 124 Q357 66 312 28 Q267 -10 183 -10 Q148 -10 104 -1.5 Q60 7 23 28 L23 119 Z M348 679 L203 516 L184 516 L34 679 L122 679 L191 596 L256 679 L348 679 Z " />
<glyph glyph-name="zcaron" unicode="&#x17e;" horiz-adv-x="428" d="M407 433 Q346 344 286 256 Q226 168 164 79 L400 79 L400 0 L13 0 L13 11 Q24 26 43 54 Q62 82 85.5 116 Q109 150 134.5 187.5 Q160 225 183.5 259 Q207 293 226.5 320.5 Q246 348 257 364 L44 364 L44 445 L407 445 L407 433 Z M380 679 L235 516 L216 516 L66 679 L154 679 L223 596 L288 679 L380 679 Z " />
<glyph glyph-name="Ydieresis" unicode="&#x178;" horiz-adv-x="584" d="M302 374 L362 488 Q385 531 407.5 573.5 Q430 616 453 660 L575 660 Q519 563 464.5 466.5 Q410 370 355 273 L355 0 L240 0 L240 273 L8 660 L133 660 L231 491 L298 374 L302 374 Z M264 783 Q264 760 249 744.5 Q234 729 211 729 Q187 729 172.5 744.5 Q158 760 158 782 Q158 805 174.5 820.5 Q191 836 211 836 Q234 836 249 820.5 Q264 805 264 783 Z M440 783 Q440 760 425.5 744.5 Q411 729 388 729 Q363 729 349 744.5 Q335 760 335 782 Q335 805 351 820.5 Q367 836 388 836 Q411 836 425.5 820.5 Q440 805 440 783 Z " />
<glyph glyph-name="Agrave" unicode="&#xc0;" horiz-adv-x="643" d="M464 126 L175 126 L123 0 L12 0 L313 669 L334 669 L632 0 L517 0 L464 126 Z M208 207 L432 207 L322 467 L318 467 L208 207 Z M285 723 L140 848 L229 882 L357 723 L285 723 Z " />
<glyph glyph-name="Aacute" unicode="&#xc1;" horiz-adv-x="643" d="M464 126 L175 126 L123 0 L12 0 L313 669 L334 669 L632 0 L517 0 L464 126 Z M208 207 L432 207 L322 467 L318 467 L208 207 Z M277 723 Q285 734 303 756 Q321 778 341.5 802.5 Q362 827 380 849 Q398 871 406 882 L495 848 L350 723 L277 723 Z " />
<glyph glyph-name="Acircumflex" unicode="&#xc2;" horiz-adv-x="643" d="M464 126 L175 126 L123 0 L12 0 L313 669 L334 669 L632 0 L517 0 L464 126 Z M208 207 L432 207 L322 467 L318 467 L208 207 Z M393 718 L325 792 L253 718 L162 718 L318 871 L337 871 L487 718 L393 718 Z " />
<glyph glyph-name="Atilde" unicode="&#xc3;" horiz-adv-x="643" d="M464 126 L175 126 L123 0 L12 0 L313 669 L334 669 L632 0 L517 0 L464 126 Z M208 207 L432 207 L322 467 L318 467 L208 207 Z M475 822 Q463 790 441.5 767 Q420 744 388 744 Q370 744 352.5 751.5 Q335 759 318.5 768.5 Q302 778 287 785.5 Q272 793 259 793 Q243 793 229 778 Q215 763 204 739 L167 785 Q173 800 182 814 Q191 828 202 839 Q213 850 227 857 Q241 864 257 864 Q274 864 291 856 Q308 848 324.5 838.5 Q341 829 356.5 821 Q372 813 386 813 Q404 813 417 828.5 Q430 844 442 868 L475 822 Z " />
<glyph glyph-name="Adieresis" unicode="&#xc4;" horiz-adv-x="643" d="M464 126 L175 126 L123 0 L12 0 L313 669 L334 669 L632 0 L517 0 L464 126 Z M208 207 L432 207 L322 467 L318 467 L208 207 Z M289 794 Q289 771 274 755.5 Q259 740 236 740 Q212 740 197.5 755.5 Q183 771 183 793 Q183 816 199.5 831.5 Q216 847 236 847 Q259 847 274 831.5 Q289 816 289 794 Z M465 794 Q465 771 450.5 755.5 Q436 740 413 740 Q388 740 374 755.5 Q360 771 360 793 Q360 816 376 831.5 Q392 847 413 847 Q436 847 450.5 831.5 Q465 816 465 794 Z " />
<glyph glyph-name="Aring" unicode="&#xc5;" horiz-adv-x="643" d="M464 126 L175 126 L123 0 L12 0 L303 648 Q263 653 239.5 681 Q216 709 216 748 Q216 770 224 789.5 Q232 809 246.5 823 Q261 837 280 845.5 Q299 854 321 854 Q368 854 398.5 823.5 Q429 793 429 748 Q429 710 405 683 Q381 656 343 649 L632 0 L517 0 L464 126 Z M208 207 L432 207 L322 467 L318 467 L208 207 Z M321 801 Q301 801 287 785 Q273 769 273 748 Q273 728 286 714 Q299 700 321 700 Q344 700 357.5 714 Q371 728 371 748 Q371 769 357.5 785 Q344 801 321 801 Z " />
<glyph glyph-name="Ccedilla" unicode="&#xc7;" horiz-adv-x="618" d="M473 -144 Q473 -162 465 -179.5 Q457 -197 441.5 -210.5 Q426 -224 402 -232.5 Q378 -241 346 -241 Q326 -241 304 -237 Q282 -233 261 -225 L261 -170 Q278 -178 299 -183 Q320 -188 342 -188 Q370 -188 386 -176 Q402 -164 402 -146 Q402 -125 384 -115.5 Q366 -106 345 -106 Q336 -106 327.5 -108 Q319 -110 311 -112 L299 -104 L343 -8 Q271 0 216.5 28.5 Q162 57 124.5 101.5 Q87 146 68 203.5 Q49 261 49 327 Q49 399 74.5 462.5 Q100 526 146.5 572.5 Q193 619 257 646 Q321 673 399 673 Q415 673 436.5 671.5 Q458 670 480.5 666.5 Q503 663 525 657.5 Q547 652 565 644 L565 545 Q523 565 485 571.5 Q447 578 414 578 Q364 578 319 561.5 Q274 545 240 513 Q206 481 186 434 Q166 387 166 327 Q166 214 230 149 Q294 84 408 84 Q450 84 496.5 95.5 Q543 107 588 131 L588 31 Q567 20 542.5 12 Q518 4 492.5 -1 Q467 -6 441.5 -8.5 Q416 -11 395 -11 Q392 -11 389 -10.5 Q386 -10 384 -10 L360 -59 Q391 -60 413 -68 Q435 -76 448 -88 Q461 -100 467 -114.5 Q473 -129 473 -144 Z " />
<glyph glyph-name="Egrave" unicode="&#xc8;" horiz-adv-x="564" d="M530 0 L73 0 L73 660 L508 660 L508 569 L188 569 L188 390 L479 390 L479 301 L188 301 L188 91 L530 91 L530 0 Z M301 723 L156 848 L245 882 L373 723 L301 723 Z " />
<glyph glyph-name="Eacute" unicode="&#xc9;" horiz-adv-x="564" d="M530 0 L73 0 L73 660 L508 660 L508 569 L188 569 L188 390 L479 390 L479 301 L188 301 L188 91 L530 91 L530 0 Z M220 723 Q228 734 246 756 Q264 778 284.5 802.5 Q305 827 323 849 Q341 871 349 882 L438 848 L293 723 L220 723 Z " />
<glyph glyph-name="Ecircumflex" unicode="&#xca;" horiz-adv-x="564" d="M530 0 L73 0 L73 660 L508 660 L508 569 L188 569 L188 390 L479 390 L479 301 L188 301 L188 91 L530 91 L530 0 Z M360 721 L292 795 L220 721 L129 721 L285 874 L304 874 L454 721 L360 721 Z " />
<glyph glyph-name="Edieresis" unicode="&#xcb;" horiz-adv-x="564" d="M530 0 L73 0 L73 660 L508 660 L508 569 L188 569 L188 390 L479 390 L479 301 L188 301 L188 91 L530 91 L530 0 Z M251 794 Q251 771 236 755.5 Q221 740 198 740 Q174 740 159.5 755.5 Q145 771 145 793 Q145 816 161.5 831.5 Q178 847 198 847 Q221 847 236 831.5 Q251 816 251 794 Z M427 794 Q427 771 412.5 755.5 Q398 740 375 740 Q350 740 336 755.5 Q322 771 322 793 Q322 816 338 831.5 Q354 847 375 847 Q398 847 412.5 831.5 Q427 816 427 794 Z " />
<glyph glyph-name="Igrave" unicode="&#xcc;" horiz-adv-x="277" d="M80 0 L80 660 L195 660 L195 0 L80 0 Z M125 723 L-20 848 L69 882 L197 723 L125 723 Z " />
<glyph glyph-name="Iacute" unicode="&#xcd;" horiz-adv-x="277" d="M80 0 L80 660 L195 660 L195 0 L80 0 Z M88 723 Q96 734 114 756 Q132 778 152.5 802.5 Q173 827 191 849 Q209 871 217 882 L306 848 L161 723 L88 723 Z " />
<glyph glyph-name="Icircumflex" unicode="&#xce;" horiz-adv-x="277" d="M80 0 L80 660 L195 660 L195 0 L80 0 Z M207 721 L139 795 L67 721 L-24 721 L132 874 L151 874 L301 721 L207 721 Z " />
<glyph glyph-name="Idieresis" unicode="&#xcf;" horiz-adv-x="277" d="M80 0 L80 660 L195 660 L195 0 L80 0 Z M103 794 Q103 771 88 755.5 Q73 740 50 740 Q26 740 11.5 755.5 Q-3 771 -3 793 Q-3 816 13.5 831.5 Q30 847 50 847 Q73 847 88 831.5 Q103 816 103 794 Z M279 794 Q279 771 264.5 755.5 Q250 740 227 740 Q202 740 188 755.5 Q174 771 174 793 Q174 816 190 831.5 Q206 847 227 847 Q250 847 264.5 831.5 Q279 816 279 794 Z " />
<glyph glyph-name="Ntilde" unicode="&#xd1;" horiz-adv-x="721" d="M73 0 L73 671 L95 671 Q112 654 146 619 Q180 584 222.5 540.5 Q265 497 311.5 449 Q358 401 400.5 357.5 Q443 314 477.5 279 Q512 244 529 227 L533 227 L533 660 L646 660 L646 -8 L626 -8 Q607 13 572.5 48.5 Q538 84 496 127 Q454 170 408 216.5 Q362 263 320 305.5 Q278 348 243.5 384 Q209 420 190 441 L187 441 L187 0 L73 0 Z M517 815 Q505 783 483.5 760 Q462 737 430 737 Q412 737 394.5 744.5 Q377 752 360.5 761.5 Q344 771 329 778.5 Q314 786 301 786 Q285 786 271 771 Q257 756 246 732 L209 778 Q215 793 224 807 Q233 821 244 832 Q255 843 269 850 Q283 857 299 857 Q316 857 333 849 Q350 841 366.5 831.5 Q383 822 398.5 814 Q414 806 428 806 Q446 806 459 821.5 Q472 837 484 861 L517 815 Z " />
<glyph glyph-name="Ograve" unicode="&#xd2;" horiz-adv-x="794" d="M397 -11 Q315 -11 250.5 15 Q186 41 141 87 Q96 133 72 195.5 Q48 258 48 330 Q48 402 75 464 Q102 526 149 572.5 Q196 619 260 645.5 Q324 672 398 672 Q474 672 538 645.5 Q602 619 648 572.5 Q694 526 719.5 464 Q745 402 745 330 Q745 258 719.5 195.5 Q694 133 647.5 87 Q601 41 537 15 Q473 -11 397 -11 Z M398 575 Q346 575 303 556 Q260 537 229 504 Q198 471 181 426 Q164 381 164 330 Q164 277 180.5 232 Q197 187 227 154 Q257 121 300.5 102 Q344 83 398 83 Q451 83 494 102.5 Q537 122 567.5 155.5 Q598 189 614.5 234 Q631 279 631 330 Q631 381 614.5 425.5 Q598 470 567 503 Q536 536 493 555.5 Q450 575 398 575 Z M388 723 L243 848 L332 882 L460 723 L388 723 Z " />
<glyph glyph-name="Oacute" unicode="&#xd3;" horiz-adv-x="794" d="M397 -11 Q315 -11 250.5 15 Q186 41 141 87 Q96 133 72 195.5 Q48 258 48 330 Q48 402 75 464 Q102 526 149 572.5 Q196 619 260 645.5 Q324 672 398 672 Q474 672 538 645.5 Q602 619 648 572.5 Q694 526 719.5 464 Q745 402 745 330 Q745 258 719.5 195.5 Q694 133 647.5 87 Q601 41 537 15 Q473 -11 397 -11 Z M398 575 Q346 575 303 556 Q260 537 229 504 Q198 471 181 426 Q164 381 164 330 Q164 277 180.5 232 Q197 187 227 154 Q257 121 300.5 102 Q344 83 398 83 Q451 83 494 102.5 Q537 122 567.5 155.5 Q598 189 614.5 234 Q631 279 631 330 Q631 381 614.5 425.5 Q598 470 567 503 Q536 536 493 555.5 Q450 575 398 575 Z M351 723 Q359 734 377 756 Q395 778 415.5 802.5 Q436 827 454 849 Q472 871 480 882 L569 848 L424 723 L351 723 Z " />
<glyph glyph-name="Ocircumflex" unicode="&#xd4;" horiz-adv-x="794" d="M397 -11 Q315 -11 250.5 15 Q186 41 141 87 Q96 133 72 195.5 Q48 258 48 330 Q48 402 75 464 Q102 526 149 572.5 Q196 619 260 645.5 Q324 672 398 672 Q474 672 538 645.5 Q602 619 648 572.5 Q694 526 719.5 464 Q745 402 745 330 Q745 258 719.5 195.5 Q694 133 647.5 87 Q601 41 537 15 Q473 -11 397 -11 Z M398 575 Q346 575 303 556 Q260 537 229 504 Q198 471 181 426 Q164 381 164 330 Q164 277 180.5 232 Q197 187 227 154 Q257 121 300.5 102 Q344 83 398 83 Q451 83 494 102.5 Q537 122 567.5 155.5 Q598 189 614.5 234 Q631 279 631 330 Q631 381 614.5 425.5 Q598 470 567 503 Q536 536 493 555.5 Q450 575 398 575 Z M472 721 L404 795 L332 721 L241 721 L397 874 L416 874 L566 721 L472 721 Z " />
<glyph glyph-name="Otilde" unicode="&#xd5;" horiz-adv-x="794" d="M397 -11 Q315 -11 250.5 15 Q186 41 141 87 Q96 133 72 195.5 Q48 258 48 330 Q48 402 75 464 Q102 526 149 572.5 Q196 619 260 645.5 Q324 672 398 672 Q474 672 538 645.5 Q602 619 648 572.5 Q694 526 719.5 464 Q745 402 745 330 Q745 258 719.5 195.5 Q694 133 647.5 87 Q601 41 537 15 Q473 -11 397 -11 Z M398 575 Q346 575 303 556 Q260 537 229 504 Q198 471 181 426 Q164 381 164 330 Q164 277 180.5 232 Q197 187 227 154 Q257 121 300.5 102 Q344 83 398 83 Q451 83 494 102.5 Q537 122 567.5 155.5 Q598 189 614.5 234 Q631 279 631 330 Q631 381 614.5 425.5 Q598 470 567 503 Q536 536 493 555.5 Q450 575 398 575 Z M555 823 Q543 791 521.5 768 Q500 745 468 745 Q450 745 432.5 752.5 Q415 760 398.5 769.5 Q382 779 367 786.5 Q352 794 339 794 Q323 794 309 779 Q295 764 284 740 L247 786 Q253 801 262 815 Q271 829 282 840 Q293 851 307 858 Q321 865 337 865 Q354 865 371 857 Q388 849 404.5 839.5 Q421 830 436.5 822 Q452 814 466 814 Q484 814 497 829.5 Q510 845 522 869 L555 823 Z " />
<glyph glyph-name="Odieresis" unicode="&#xd6;" horiz-adv-x="794" d="M397 -11 Q315 -11 250.5 15 Q186 41 141 87 Q96 133 72 195.5 Q48 258 48 330 Q48 402 75 464 Q102 526 149 572.5 Q196 619 260 645.5 Q324 672 398 672 Q474 672 538 645.5 Q602 619 648 572.5 Q694 526 719.5 464 Q745 402 745 330 Q745 258 719.5 195.5 Q694 133 647.5 87 Q601 41 537 15 Q473 -11 397 -11 Z M398 575 Q346 575 303 556 Q260 537 229 504 Q198 471 181 426 Q164 381 164 330 Q164 277 180.5 232 Q197 187 227 154 Q257 121 300.5 102 Q344 83 398 83 Q451 83 494 102.5 Q537 122 567.5 155.5 Q598 189 614.5 234 Q631 279 631 330 Q631 381 614.5 425.5 Q598 470 567 503 Q536 536 493 555.5 Q450 575 398 575 Z M358 794 Q358 771 343 755.5 Q328 740 305 740 Q281 740 266.5 755.5 Q252 771 252 793 Q252 816 268.5 831.5 Q285 847 305 847 Q328 847 343 831.5 Q358 816 358 794 Z M534 794 Q534 771 519.5 755.5 Q505 740 482 740 Q457 740 443 755.5 Q429 771 429 793 Q429 816 445 831.5 Q461 847 482 847 Q505 847 519.5 831.5 Q534 816 534 794 Z " />
<glyph glyph-name="Ugrave" unicode="&#xd9;" horiz-adv-x="691" d="M503 660 L617 660 L617 253 Q617 196 599.5 147.5 Q582 99 547.5 64 Q513 29 462.5 9 Q412 -11 345 -11 Q277 -11 226 8 Q175 27 141 62 Q107 97 90 145 Q73 193 73 252 L73 660 L188 660 L188 256 Q188 223 197.5 192 Q207 161 226.5 137 Q246 113 275.5 99 Q305 85 346 85 Q386 85 416 98.5 Q446 112 465 134.5 Q484 157 493.5 187 Q503 217 503 251 L503 660 Z M342 723 L197 848 L286 882 L414 723 L342 723 Z " />
<glyph glyph-name="Uacute" unicode="&#xda;" horiz-adv-x="691" d="M503 660 L617 660 L617 253 Q617 196 599.5 147.5 Q582 99 547.5 64 Q513 29 462.5 9 Q412 -11 345 -11 Q277 -11 226 8 Q175 27 141 62 Q107 97 90 145 Q73 193 73 252 L73 660 L188 660 L188 256 Q188 223 197.5 192 Q207 161 226.5 137 Q246 113 275.5 99 Q305 85 346 85 Q386 85 416 98.5 Q446 112 465 134.5 Q484 157 493.5 187 Q503 217 503 251 L503 660 Z M287 723 Q295 734 313 756 Q331 778 351.5 802.5 Q372 827 390 849 Q408 871 416 882 L505 848 L360 723 L287 723 Z " />
<glyph glyph-name="Ucircumflex" unicode="&#xdb;" horiz-adv-x="691" d="M503 660 L617 660 L617 253 Q617 196 599.5 147.5 Q582 99 547.5 64 Q513 29 462.5 9 Q412 -11 345 -11 Q277 -11 226 8 Q175 27 141 62 Q107 97 90 145 Q73 193 73 252 L73 660 L188 660 L188 256 Q188 223 197.5 192 Q207 161 226.5 137 Q246 113 275.5 99 Q305 85 346 85 Q386 85 416 98.5 Q446 112 465 134.5 Q484 157 493.5 187 Q503 217 503 251 L503 660 Z M419 720 L350 793 L277 720 L185 720 L343 872 L362 872 L514 720 L419 720 Z " />
<glyph glyph-name="Udieresis" unicode="&#xdc;" horiz-adv-x="691" d="M503 660 L617 660 L617 253 Q617 196 599.5 147.5 Q582 99 547.5 64 Q513 29 462.5 9 Q412 -11 345 -11 Q277 -11 226 8 Q175 27 141 62 Q107 97 90 145 Q73 193 73 252 L73 660 L188 660 L188 256 Q188 223 197.5 192 Q207 161 226.5 137 Q246 113 275.5 99 Q305 85 346 85 Q386 85 416 98.5 Q446 112 465 134.5 Q484 157 493.5 187 Q503 217 503 251 L503 660 Z M311 794 Q311 771 296 755.5 Q281 740 258 740 Q234 740 219.5 755.5 Q205 771 205 793 Q205 816 221.5 831.5 Q238 847 258 847 Q281 847 296 831.5 Q311 816 311 794 Z M487 794 Q487 771 472.5 755.5 Q458 740 435 740 Q410 740 396 755.5 Q382 771 382 793 Q382 816 398 831.5 Q414 847 435 847 Q458 847 472.5 831.5 Q487 816 487 794 Z " />
<glyph glyph-name="Yacute" unicode="&#xdd;" horiz-adv-x="584" d="M302 374 L362 488 Q385 531 407.5 573.5 Q430 616 453 660 L575 660 Q519 563 464.5 466.5 Q410 370 355 273 L355 0 L240 0 L240 273 L8 660 L133 660 L231 491 L298 374 L302 374 Z M238 719 Q246 730 264 752 Q282 774 302.5 798.5 Q323 823 341 845 Q359 867 367 878 L456 844 L311 719 L238 719 Z " />
<glyph glyph-name="agrave" unicode="&#xe0;" horiz-adv-x="510" d="M350 55 Q326 25 285 7 Q244 -11 190 -11 Q148 -11 119 0.5 Q90 12 72 30.5 Q54 49 46 72 Q38 95 38 117 Q38 150 50 178.5 Q62 207 87.5 227.5 Q113 248 152 260 Q191 272 245 272 L341 272 L341 284 Q341 379 229 379 Q201 379 164 369 Q127 359 89 339 L89 421 Q105 429 125 436 Q145 443 167 447.5 Q189 452 210.5 454.5 Q232 457 251 457 Q304 457 341 444 Q378 431 401.5 407 Q425 383 435.5 348.5 Q446 314 446 272 L446 0 L363 0 L353 55 L350 55 Z M140 130 Q140 95 165.5 78 Q191 61 228 61 Q256 61 277.5 71 Q299 81 313.5 98 Q328 115 335 137 Q342 159 342 183 L342 208 L253 208 Q199 208 169.5 189.5 Q140 171 140 130 Z M251 521 L120 656 L204 690 Q211 680 227 656 Q243 632 260.5 605.5 Q278 579 294 555 Q310 531 317 521 L251 521 Z " />
<glyph glyph-name="aacute" unicode="&#xe1;" horiz-adv-x="510" d="M350 55 Q326 25 285 7 Q244 -11 190 -11 Q148 -11 119 0.5 Q90 12 72 30.5 Q54 49 46 72 Q38 95 38 117 Q38 150 50 178.5 Q62 207 87.5 227.5 Q113 248 152 260 Q191 272 245 272 L341 272 L341 284 Q341 379 229 379 Q201 379 164 369 Q127 359 89 339 L89 421 Q105 429 125 436 Q145 443 167 447.5 Q189 452 210.5 454.5 Q232 457 251 457 Q304 457 341 444 Q378 431 401.5 407 Q425 383 435.5 348.5 Q446 314 446 272 L446 0 L363 0 L353 55 L350 55 Z M140 130 Q140 95 165.5 78 Q191 61 228 61 Q256 61 277.5 71 Q299 81 313.5 98 Q328 115 335 137 Q342 159 342 183 L342 208 L253 208 Q199 208 169.5 189.5 Q140 171 140 130 Z M199 521 Q206 532 222 555.5 Q238 579 255.5 605.5 Q273 632 288.5 655.5 Q304 679 312 690 L396 656 L265 521 L199 521 Z " />
<glyph glyph-name="acircumflex" unicode="&#xe2;" horiz-adv-x="510" d="M350 55 Q326 25 285 7 Q244 -11 190 -11 Q148 -11 119 0.5 Q90 12 72 30.5 Q54 49 46 72 Q38 95 38 117 Q38 150 50 178.5 Q62 207 87.5 227.5 Q113 248 152 260 Q191 272 245 272 L341 272 L341 284 Q341 379 229 379 Q201 379 164 369 Q127 359 89 339 L89 421 Q105 429 125 436 Q145 443 167 447.5 Q189 452 210.5 454.5 Q232 457 251 457 Q304 457 341 444 Q378 431 401.5 407 Q425 383 435.5 348.5 Q446 314 446 272 L446 0 L363 0 L353 55 L350 55 Z M140 130 Q140 95 165.5 78 Q191 61 228 61 Q256 61 277.5 71 Q299 81 313.5 98 Q328 115 335 137 Q342 159 342 183 L342 208 L253 208 Q199 208 169.5 189.5 Q140 171 140 130 Z M326 521 L259 602 L188 521 L102 521 L252 683 L271 683 L416 521 L326 521 Z " />
<glyph glyph-name="atilde" unicode="&#xe3;" horiz-adv-x="510" d="M350 55 Q326 25 285 7 Q244 -11 190 -11 Q148 -11 119 0.5 Q90 12 72 30.5 Q54 49 46 72 Q38 95 38 117 Q38 150 50 178.5 Q62 207 87.5 227.5 Q113 248 152 260 Q191 272 245 272 L341 272 L341 284 Q341 379 229 379 Q201 379 164 369 Q127 359 89 339 L89 421 Q105 429 125 436 Q145 443 167 447.5 Q189 452 210.5 454.5 Q232 457 251 457 Q304 457 341 444 Q378 431 401.5 407 Q425 383 435.5 348.5 Q446 314 446 272 L446 0 L363 0 L353 55 L350 55 Z M140 130 Q140 95 165.5 78 Q191 61 228 61 Q256 61 277.5 71 Q299 81 313.5 98 Q328 115 335 137 Q342 159 342 183 L342 208 L253 208 Q199 208 169.5 189.5 Q140 171 140 130 Z M409 612 Q397 580 375.5 557 Q354 534 322 534 Q304 534 286.5 541.5 Q269 549 252.5 558.5 Q236 568 221 575.5 Q206 583 193 583 Q177 583 163 568 Q149 553 138 529 L101 575 Q107 590 116 604 Q125 618 136 629 Q147 640 161 647 Q175 654 191 654 Q208 654 225 646 Q242 638 258.5 628.5 Q275 619 290.5 611 Q306 603 320 603 Q338 603 351 618.5 Q364 634 376 658 L409 612 Z " />
<glyph glyph-name="adieresis" unicode="&#xe4;" horiz-adv-x="510" d="M350 55 Q326 25 285 7 Q244 -11 190 -11 Q148 -11 119 0.5 Q90 12 72 30.5 Q54 49 46 72 Q38 95 38 117 Q38 150 50 178.5 Q62 207 87.5 227.5 Q113 248 152 260 Q191 272 245 272 L341 272 L341 284 Q341 379 229 379 Q201 379 164 369 Q127 359 89 339 L89 421 Q105 429 125 436 Q145 443 167 447.5 Q189 452 210.5 454.5 Q232 457 251 457 Q304 457 341 444 Q378 431 401.5 407 Q425 383 435.5 348.5 Q446 314 446 272 L446 0 L363 0 L353 55 L350 55 Z M140 130 Q140 95 165.5 78 Q191 61 228 61 Q256 61 277.5 71 Q299 81 313.5 98 Q328 115 335 137 Q342 159 342 183 L342 208 L253 208 Q199 208 169.5 189.5 Q140 171 140 130 Z M225 594 Q225 571 210.5 556 Q196 541 173 541 Q149 541 134 556 Q119 571 119 594 Q119 617 135.5 631.5 Q152 646 173 646 Q196 646 210.5 631 Q225 616 225 594 Z M401 594 Q401 571 386.5 556 Q372 541 348 541 Q324 541 310 556 Q296 571 296 594 Q296 617 312 631.5 Q328 646 348 646 Q372 646 386.5 631 Q401 616 401 594 Z " />
<glyph glyph-name="aring" unicode="&#xe5;" horiz-adv-x="510" d="M350 55 Q326 25 285 7 Q244 -11 190 -11 Q148 -11 119 0.5 Q90 12 72 30.5 Q54 49 46 72 Q38 95 38 117 Q38 150 50 178.5 Q62 207 87.5 227.5 Q113 248 152 260 Q191 272 245 272 L341 272 L341 284 Q341 379 229 379 Q201 379 164 369 Q127 359 89 339 L89 421 Q105 429 125 436 Q145 443 167 447.5 Q189 452 210.5 454.5 Q232 457 251 457 Q304 457 341 444 Q378 431 401.5 407 Q425 383 435.5 348.5 Q446 314 446 272 L446 0 L363 0 L353 55 L350 55 Z M140 130 Q140 95 165.5 78 Q191 61 228 61 Q256 61 277.5 71 Q299 81 313.5 98 Q328 115 335 137 Q342 159 342 183 L342 208 L253 208 Q199 208 169.5 189.5 Q140 171 140 130 Z M259 515 Q211 515 182.5 544 Q154 573 154 616 Q154 638 162 657.5 Q170 677 184.5 691 Q199 705 218 713.5 Q237 722 259 722 Q306 722 336.5 691.5 Q367 661 367 616 Q367 573 336 544 Q305 515 259 515 Z M259 669 Q239 669 225 653 Q211 637 211 616 Q211 596 224 582 Q237 568 259 568 Q282 568 295.5 582 Q309 596 309 616 Q309 637 295.5 653 Q282 669 259 669 Z " />
<glyph glyph-name="ccedilla" unicode="&#xe7;" horiz-adv-x="437" d="M353 -136 Q353 -154 345 -171.5 Q337 -189 321.5 -202.5 Q306 -216 282 -224.5 Q258 -233 226 -233 Q206 -233 184 -229 Q162 -225 141 -217 L141 -162 Q158 -170 179 -175 Q200 -180 222 -180 Q250 -180 266 -168 Q282 -156 282 -138 Q282 -117 264 -107.5 Q246 -98 225 -98 Q216 -98 207.5 -100 Q199 -102 191 -104 L179 -96 L220 -7 Q176 0 142 20 Q108 40 85.5 70 Q63 100 51.5 137.5 Q40 175 40 218 Q40 270 58 314 Q76 358 107.5 389.5 Q139 421 183 439 Q227 457 279 457 Q306 457 337.5 452.5 Q369 448 394 437 L394 348 Q370 362 343.5 367.5 Q317 373 295 373 Q264 373 237 362.5 Q210 352 190 332.5 Q170 313 158.5 284.5 Q147 256 147 220 Q147 153 186 113.5 Q225 74 293 74 Q322 74 353.5 82 Q385 90 410 106 L410 19 Q384 5 344 -3 Q304 -11 269 -11 L259 -11 L240 -51 Q271 -52 293 -60 Q315 -68 328 -80 Q341 -92 347 -106.5 Q353 -121 353 -136 Z " />
<glyph glyph-name="egrave" unicode="&#xe8;" horiz-adv-x="521" d="M265 458 Q316 458 355.5 441 Q395 424 422.5 393 Q450 362 464.5 320 Q479 278 479 227 L479 202 L146 202 Q148 168 160.5 143 Q173 118 193 102 Q213 86 239 78.5 Q265 71 294 71 Q333 71 373 82 Q413 93 458 125 L458 38 Q422 13 378 1 Q334 -11 286 -11 Q226 -11 180 6.5 Q134 24 103 55.5 Q72 87 56 130 Q40 173 40 224 Q40 273 56.5 315.5 Q73 358 102.5 389.5 Q132 421 173.5 439.5 Q215 458 265 458 Z M269 379 Q220 379 188.5 349 Q157 319 149 271 L382 271 Q374 320 345.5 349.5 Q317 379 269 379 Z M262 521 L131 656 L215 690 Q222 680 238 656 Q254 632 271.5 605.5 Q289 579 305 555 Q321 531 328 521 L262 521 Z " />
<glyph glyph-name="eacute" unicode="&#xe9;" horiz-adv-x="521" d="M265 458 Q316 458 355.5 441 Q395 424 422.5 393 Q450 362 464.5 320 Q479 278 479 227 L479 202 L146 202 Q148 168 160.5 143 Q173 118 193 102 Q213 86 239 78.5 Q265 71 294 71 Q333 71 373 82 Q413 93 458 125 L458 38 Q422 13 378 1 Q334 -11 286 -11 Q226 -11 180 6.5 Q134 24 103 55.5 Q72 87 56 130 Q40 173 40 224 Q40 273 56.5 315.5 Q73 358 102.5 389.5 Q132 421 173.5 439.5 Q215 458 265 458 Z M269 379 Q220 379 188.5 349 Q157 319 149 271 L382 271 Q374 320 345.5 349.5 Q317 379 269 379 Z M204 521 Q211 532 227 555.5 Q243 579 260.5 605.5 Q278 632 293.5 655.5 Q309 679 317 690 L401 656 L270 521 L204 521 Z " />
<glyph glyph-name="ecircumflex" unicode="&#xea;" horiz-adv-x="521" d="M265 458 Q316 458 355.5 441 Q395 424 422.5 393 Q450 362 464.5 320 Q479 278 479 227 L479 202 L146 202 Q148 168 160.5 143 Q173 118 193 102 Q213 86 239 78.5 Q265 71 294 71 Q333 71 373 82 Q413 93 458 125 L458 38 Q422 13 378 1 Q334 -11 286 -11 Q226 -11 180 6.5 Q134 24 103 55.5 Q72 87 56 130 Q40 173 40 224 Q40 273 56.5 315.5 Q73 358 102.5 389.5 Q132 421 173.5 439.5 Q215 458 265 458 Z M338 521 L271 602 L200 521 L114 521 L264 683 L283 683 L428 521 L338 521 Z M269 379 Q220 379 188.5 349 Q157 319 149 271 L382 271 Q374 320 345.5 349.5 Q317 379 269 379 Z " />
<glyph glyph-name="edieresis" unicode="&#xeb;" horiz-adv-x="521" d="M265 458 Q316 458 355.5 441 Q395 424 422.5 393 Q450 362 464.5 320 Q479 278 479 227 L479 202 L146 202 Q148 168 160.5 143 Q173 118 193 102 Q213 86 239 78.5 Q265 71 294 71 Q333 71 373 82 Q413 93 458 125 L458 38 Q422 13 378 1 Q334 -11 286 -11 Q226 -11 180 6.5 Q134 24 103 55.5 Q72 87 56 130 Q40 173 40 224 Q40 273 56.5 315.5 Q73 358 102.5 389.5 Q132 421 173.5 439.5 Q215 458 265 458 Z M269 379 Q220 379 188.5 349 Q157 319 149 271 L382 271 Q374 320 345.5 349.5 Q317 379 269 379 Z M232 594 Q232 571 217.5 556 Q203 541 180 541 Q156 541 141 556 Q126 571 126 594 Q126 617 142.5 631.5 Q159 646 180 646 Q203 646 217.5 631 Q232 616 232 594 Z M408 594 Q408 571 393.5 556 Q379 541 355 541 Q331 541 317 556 Q303 571 303 594 Q303 617 319 631.5 Q335 646 355 646 Q379 646 393.5 631 Q408 616 408 594 Z " />
<glyph glyph-name="dotlessi" unicode="&#x131;" horiz-adv-x="250" d="M71 0 L71 445 L177 445 L177 0 L71 0 Z " />
<glyph glyph-name="igrave" unicode="&#xec;" horiz-adv-x="250" d="M71 0 L71 445 L177 445 L177 0 L71 0 Z M109 521 L-22 656 L62 690 Q69 680 85 656 Q101 632 118.5 605.5 Q136 579 152 555 Q168 531 175 521 L109 521 Z " />
<glyph glyph-name="iacute" unicode="&#xed;" horiz-adv-x="250" d="M75 521 Q82 532 98 555.5 Q114 579 131.5 605.5 Q149 632 164.5 655.5 Q180 679 188 690 L272 656 L141 521 L75 521 Z M71 0 L71 445 L177 445 L177 0 L71 0 Z " />
<glyph glyph-name="icircumflex" unicode="&#xee;" horiz-adv-x="250" d="M71 0 L71 445 L177 445 L177 0 L71 0 Z M193 521 L126 602 L55 521 L-31 521 L119 683 L138 683 L283 521 L193 521 Z " />
<glyph glyph-name="idieresis" unicode="&#xef;" horiz-adv-x="250" d="M93 594 Q93 571 78.5 556 Q64 541 41 541 Q17 541 2 556 Q-13 571 -13 594 Q-13 617 3.5 631.5 Q20 646 41 646 Q64 646 78.5 631 Q93 616 93 594 Z M269 594 Q269 571 254.5 556 Q240 541 216 541 Q192 541 178 556 Q164 571 164 594 Q164 617 180 631.5 Q196 646 216 646 Q240 646 254.5 631 Q269 616 269 594 Z M71 0 L71 445 L177 445 L177 0 L71 0 Z " />
<glyph glyph-name="ntilde" unicode="&#xf1;" horiz-adv-x="550" d="M378 0 L378 258 Q378 309 354.5 340 Q331 371 289 371 Q265 371 243 362.5 Q221 354 204.5 336.5 Q188 319 178.5 292.5 Q169 266 169 229 L169 0 L64 0 L64 445 L142 445 Q143 441 145 432 Q147 423 149.5 413 Q152 403 154 394 Q156 385 157 381 L161 381 Q195 423 236 439 Q277 455 318 455 Q400 455 441.5 408 Q483 361 483 276 L483 0 L378 0 Z M416 612 Q404 580 382.5 557 Q361 534 329 534 Q311 534 293.5 541.5 Q276 549 259.5 558.5 Q243 568 228 575.5 Q213 583 200 583 Q184 583 170 568 Q156 553 145 529 L108 575 Q114 590 123 604 Q132 618 143 629 Q154 640 168 647 Q182 654 198 654 Q215 654 232 646 Q249 638 265.5 628.5 Q282 619 297.5 611 Q313 603 327 603 Q345 603 358 618.5 Q371 634 383 658 L416 612 Z " />
<glyph glyph-name="ograve" unicode="&#xf2;" horiz-adv-x="565" d="M283 457 Q337 457 381.5 439 Q426 421 457.5 389.5 Q489 358 506.5 315 Q524 272 524 223 Q524 173 506.5 130.5 Q489 88 457 56.5 Q425 25 380.5 7.5 Q336 -10 283 -10 Q226 -10 181 8 Q136 26 104.5 57 Q73 88 56.5 130.5 Q40 173 40 223 Q40 272 58.5 315 Q77 358 109 389.5 Q141 421 185.5 439 Q230 457 283 457 Z M284 372 Q252 372 226.5 360.5 Q201 349 183 328.5 Q165 308 155.5 281.5 Q146 255 146 225 Q146 193 155 165.5 Q164 138 182 118 Q200 98 225.5 86.5 Q251 75 284 75 Q316 75 341.5 87 Q367 99 385 119 Q403 139 412.5 166.5 Q422 194 422 225 Q422 255 412 281.5 Q402 308 384 328.5 Q366 349 340.5 360.5 Q315 372 284 372 Z M273 521 L142 656 L226 690 Q233 680 249 656 Q265 632 282.5 605.5 Q300 579 316 555 Q332 531 339 521 L273 521 Z " />
<glyph glyph-name="oacute" unicode="&#xf3;" horiz-adv-x="565" d="M283 457 Q337 457 381.5 439 Q426 421 457.5 389.5 Q489 358 506.5 315 Q524 272 524 223 Q524 173 506.5 130.5 Q489 88 457 56.5 Q425 25 380.5 7.5 Q336 -10 283 -10 Q226 -10 181 8 Q136 26 104.5 57 Q73 88 56.5 130.5 Q40 173 40 223 Q40 272 58.5 315 Q77 358 109 389.5 Q141 421 185.5 439 Q230 457 283 457 Z M284 372 Q252 372 226.5 360.5 Q201 349 183 328.5 Q165 308 155.5 281.5 Q146 255 146 225 Q146 193 155 165.5 Q164 138 182 118 Q200 98 225.5 86.5 Q251 75 284 75 Q316 75 341.5 87 Q367 99 385 119 Q403 139 412.5 166.5 Q422 194 422 225 Q422 255 412 281.5 Q402 308 384 328.5 Q366 349 340.5 360.5 Q315 372 284 372 Z M236 521 Q243 532 259 555.5 Q275 579 292.5 605.5 Q310 632 325.5 655.5 Q341 679 349 690 L433 656 L302 521 L236 521 Z " />
<glyph glyph-name="ocircumflex" unicode="&#xf4;" horiz-adv-x="565" d="M283 457 Q337 457 381.5 439 Q426 421 457.5 389.5 Q489 358 506.5 315 Q524 272 524 223 Q524 173 506.5 130.5 Q489 88 457 56.5 Q425 25 380.5 7.5 Q336 -10 283 -10 Q226 -10 181 8 Q136 26 104.5 57 Q73 88 56.5 130.5 Q40 173 40 223 Q40 272 58.5 315 Q77 358 109 389.5 Q141 421 185.5 439 Q230 457 283 457 Z M284 372 Q252 372 226.5 360.5 Q201 349 183 328.5 Q165 308 155.5 281.5 Q146 255 146 225 Q146 193 155 165.5 Q164 138 182 118 Q200 98 225.5 86.5 Q251 75 284 75 Q316 75 341.5 87 Q367 99 385 119 Q403 139 412.5 166.5 Q422 194 422 225 Q422 255 412 281.5 Q402 308 384 328.5 Q366 349 340.5 360.5 Q315 372 284 372 Z M352 521 L285 602 L214 521 L128 521 L278 683 L297 683 L442 521 L352 521 Z " />
<glyph glyph-name="otilde" unicode="&#xf5;" horiz-adv-x="565" d="M283 457 Q337 457 381.5 439 Q426 421 457.5 389.5 Q489 358 506.5 315 Q524 272 524 223 Q524 173 506.5 130.5 Q489 88 457 56.5 Q425 25 380.5 7.5 Q336 -10 283 -10 Q226 -10 181 8 Q136 26 104.5 57 Q73 88 56.5 130.5 Q40 173 40 223 Q40 272 58.5 315 Q77 358 109 389.5 Q141 421 185.5 439 Q230 457 283 457 Z M284 372 Q252 372 226.5 360.5 Q201 349 183 328.5 Q165 308 155.5 281.5 Q146 255 146 225 Q146 193 155 165.5 Q164 138 182 118 Q200 98 225.5 86.5 Q251 75 284 75 Q316 75 341.5 87 Q367 99 385 119 Q403 139 412.5 166.5 Q422 194 422 225 Q422 255 412 281.5 Q402 308 384 328.5 Q366 349 340.5 360.5 Q315 372 284 372 Z M437 611 Q425 579 403.5 556 Q382 533 350 533 Q332 533 314.5 540.5 Q297 548 280.5 557.5 Q264 567 249 574.5 Q234 582 221 582 Q205 582 191 567 Q177 552 166 528 L129 574 Q135 589 144 603 Q153 617 164 628 Q175 639 189 646 Q203 653 219 653 Q236 653 253 645 Q270 637 286.5 627.5 Q303 618 318.5 610 Q334 602 348 602 Q366 602 379 617.5 Q392 633 404 657 L437 611 Z " />
<glyph glyph-name="odieresis" unicode="&#xf6;" horiz-adv-x="565" d="M283 457 Q337 457 381.5 439 Q426 421 457.5 389.5 Q489 358 506.5 315 Q524 272 524 223 Q524 173 506.5 130.5 Q489 88 457 56.5 Q425 25 380.5 7.5 Q336 -10 283 -10 Q226 -10 181 8 Q136 26 104.5 57 Q73 88 56.5 130.5 Q40 173 40 223 Q40 272 58.5 315 Q77 358 109 389.5 Q141 421 185.5 439 Q230 457 283 457 Z M284 372 Q252 372 226.5 360.5 Q201 349 183 328.5 Q165 308 155.5 281.5 Q146 255 146 225 Q146 193 155 165.5 Q164 138 182 118 Q200 98 225.5 86.5 Q251 75 284 75 Q316 75 341.5 87 Q367 99 385 119 Q403 139 412.5 166.5 Q422 194 422 225 Q422 255 412 281.5 Q402 308 384 328.5 Q366 349 340.5 360.5 Q315 372 284 372 Z M245 594 Q245 571 230.5 556 Q216 541 193 541 Q169 541 154 556 Q139 571 139 594 Q139 617 155.5 631.5 Q172 646 193 646 Q216 646 230.5 631 Q245 616 245 594 Z M421 594 Q421 571 406.5 556 Q392 541 368 541 Q344 541 330 556 Q316 571 316 594 Q316 617 332 631.5 Q348 646 368 646 Q392 646 406.5 631 Q421 616 421 594 Z " />
<glyph glyph-name="ugrave" unicode="&#xf9;" horiz-adv-x="539" d="M168 446 L168 186 Q168 136 191.5 105.5 Q215 75 257 75 Q306 75 337.5 109 Q369 143 369 220 L369 445 L474 445 L474 0 L394 0 L378 61 L374 61 Q344 22 307.5 7 Q271 -8 231 -8 Q63 -8 63 172 L63 446 L168 446 Z M259 521 L128 656 L212 690 Q219 680 235 656 Q251 632 268.5 605.5 Q286 579 302 555 Q318 531 325 521 L259 521 Z " />
<glyph glyph-name="uacute" unicode="&#xfa;" horiz-adv-x="539" d="M168 446 L168 186 Q168 136 191.5 105.5 Q215 75 257 75 Q306 75 337.5 109 Q369 143 369 220 L369 445 L474 445 L474 0 L394 0 L378 61 L374 61 Q344 22 307.5 7 Q271 -8 231 -8 Q63 -8 63 172 L63 446 L168 446 Z M217 521 Q224 532 240 555.5 Q256 579 273.5 605.5 Q291 632 306.5 655.5 Q322 679 330 690 L414 656 L283 521 L217 521 Z " />
<glyph glyph-name="ucircumflex" unicode="&#xfb;" horiz-adv-x="539" d="M168 446 L168 186 Q168 136 191.5 105.5 Q215 75 257 75 Q306 75 337.5 109 Q369 143 369 220 L369 445 L474 445 L474 0 L394 0 L378 61 L374 61 Q344 22 307.5 7 Q271 -8 231 -8 Q63 -8 63 172 L63 446 L168 446 Z M337 521 L270 602 L199 521 L113 521 L263 683 L282 683 L427 521 L337 521 Z " />
<glyph glyph-name="udieresis" unicode="&#xfc;" horiz-adv-x="539" d="M168 446 L168 186 Q168 136 191.5 105.5 Q215 75 257 75 Q306 75 337.5 109 Q369 143 369 220 L369 445 L474 445 L474 0 L394 0 L378 61 L374 61 Q344 22 307.5 7 Q271 -8 231 -8 Q63 -8 63 172 L63 446 L168 446 Z M232 594 Q232 571 217.5 556 Q203 541 180 541 Q156 541 141 556 Q126 571 126 594 Q126 617 142.5 631.5 Q159 646 180 646 Q203 646 217.5 631 Q232 616 232 594 Z M408 594 Q408 571 393.5 556 Q379 541 355 541 Q331 541 317 556 Q303 571 303 594 Q303 617 319 631.5 Q335 646 355 646 Q379 646 393.5 631 Q408 616 408 594 Z " />
<glyph glyph-name="yacute" unicode="&#xfd;" horiz-adv-x="472" d="M239 126 Q245 140 254.5 165.5 Q264 191 275.5 221.5 Q287 252 300 285.5 Q313 319 324.5 349.5 Q336 380 345.5 405.5 Q355 431 361 445 L463 445 L184 -216 L81 -216 Q107 -156 133 -96.5 Q159 -37 185 23 L6 445 L113 445 Q143 367 173.5 285.5 Q204 204 233 126 L239 126 Z M194 520 Q201 531 217 554.5 Q233 578 250.5 604.5 Q268 631 283.5 654.5 Q299 678 307 689 L391 655 L260 520 L194 520 Z " />
<glyph glyph-name="ydieresis" unicode="&#xff;" horiz-adv-x="472" d="M239 126 Q245 140 254.5 165.5 Q264 191 275.5 221.5 Q287 252 300 285.5 Q313 319 324.5 349.5 Q336 380 345.5 405.5 Q355 431 361 445 L463 445 L184 -216 L81 -216 Q107 -156 133 -96.5 Q159 -37 185 23 L6 445 L113 445 Q143 367 173.5 285.5 Q204 204 233 126 L239 126 Z M207 587 Q207 564 192.5 549 Q178 534 155 534 Q131 534 116 549 Q101 564 101 587 Q101 610 117.5 624.5 Q134 639 155 639 Q178 639 192.5 624 Q207 609 207 587 Z M383 587 Q383 564 368.5 549 Q354 534 330 534 Q306 534 292 549 Q278 564 278 587 Q278 610 294 624.5 Q310 639 330 639 Q354 639 368.5 624 Q383 609 383 587 Z " />
<glyph glyph-name="dollar" unicode="&#x24;" horiz-adv-x="560" d="M249 -3 Q207 -1 159.5 11 Q112 23 70 49 L70 145 Q94 128 121 115 Q148 102 175 94 Q202 86 226.5 82 Q251 78 270 78 Q333 78 365 104.5 Q397 131 397 174 Q397 212 373.5 237 Q350 262 315 281.5 Q280 301 239 318.5 Q198 336 163 359 Q128 382 104.5 414 Q81 446 81 494 Q81 565 127 608.5 Q173 652 249 661 L249 765 L316 765 L316 662 Q350 659 386 650.5 Q422 642 459 624 L459 532 Q417 560 372 572 Q327 584 292 584 Q269 584 249 579.5 Q229 575 214 564.5 Q199 554 190 536.5 Q181 519 181 493 Q181 466 204.5 446 Q228 426 263.5 408.5 Q299 391 340.5 372.5 Q382 354 417.5 328.5 Q453 303 476.5 268.5 Q500 234 500 184 Q500 110 452 59.5 Q404 9 316 -2 L316 -102 L249 -102 L249 -3 Z " />
<glyph glyph-name="Amacron" unicode="&#x100;" horiz-adv-x="643" d="M464 126 L175 126 L123 0 L12 0 L313 669 L334 669 L632 0 L517 0 L464 126 Z M208 207 L432 207 L322 467 L318 467 L208 207 Z M170 823 L473 823 L473 751 L170 751 L170 823 Z " />
<glyph glyph-name="amacron" unicode="&#x101;" horiz-adv-x="510" d="M350 55 Q326 25 285 7 Q244 -11 190 -11 Q148 -11 119 0.5 Q90 12 72 30.5 Q54 49 46 72 Q38 95 38 117 Q38 150 50 178.5 Q62 207 87.5 227.5 Q113 248 152 260 Q191 272 245 272 L341 272 L341 284 Q341 379 229 379 Q201 379 164 369 Q127 359 89 339 L89 421 Q105 429 125 436 Q145 443 167 447.5 Q189 452 210.5 454.5 Q232 457 251 457 Q304 457 341 444 Q378 431 401.5 407 Q425 383 435.5 348.5 Q446 314 446 272 L446 0 L363 0 L353 55 L350 55 Z M140 130 Q140 95 165.5 78 Q191 61 228 61 Q256 61 277.5 71 Q299 81 313.5 98 Q328 115 335 137 Q342 159 342 183 L342 208 L253 208 Q199 208 169.5 189.5 Q140 171 140 130 Z M108 617 L400 617 L400 547 L108 547 L108 617 Z " />
<glyph glyph-name="Abreve" unicode="&#x102;" horiz-adv-x="643" d="M464 126 L175 126 L123 0 L12 0 L313 669 L334 669 L632 0 L517 0 L464 126 Z M208 207 L432 207 L322 467 L318 467 L208 207 Z M324 716 Q289 716 262.5 728.5 Q236 741 218.5 762 Q201 783 191.5 810 Q182 837 181 866 L242 866 Q243 824 265.5 799.5 Q288 775 325 775 Q345 775 360 782.5 Q375 790 385 803 Q395 816 400.5 832 Q406 848 408 866 L468 866 Q466 839 457.5 812 Q449 785 431.5 764 Q414 743 387.5 729.5 Q361 716 324 716 Z " />
<glyph glyph-name="abreve" unicode="&#x103;" horiz-adv-x="510" d="M350 55 Q326 25 285 7 Q244 -11 190 -11 Q148 -11 119 0.5 Q90 12 72 30.5 Q54 49 46 72 Q38 95 38 117 Q38 150 50 178.5 Q62 207 87.5 227.5 Q113 248 152 260 Q191 272 245 272 L341 272 L341 284 Q341 379 229 379 Q201 379 164 369 Q127 359 89 339 L89 421 Q105 429 125 436 Q145 443 167 447.5 Q189 452 210.5 454.5 Q232 457 251 457 Q304 457 341 444 Q378 431 401.5 407 Q425 383 435.5 348.5 Q446 314 446 272 L446 0 L363 0 L353 55 L350 55 Z M140 130 Q140 95 165.5 78 Q191 61 228 61 Q256 61 277.5 71 Q299 81 313.5 98 Q328 115 335 137 Q342 159 342 183 L342 208 L253 208 Q199 208 169.5 189.5 Q140 171 140 130 Z M254 524 Q219 524 193 536.5 Q167 549 149 570 Q131 591 121.5 618 Q112 645 111 675 L172 675 Q174 633 196 608.5 Q218 584 255 584 Q296 584 315.5 611.5 Q335 639 338 675 L398 675 Q396 648 387.5 621 Q379 594 361.5 572.5 Q344 551 317.5 537.5 Q291 524 254 524 Z " />
<glyph glyph-name="Aogonek" unicode="&#x104;" horiz-adv-x="643" d="M542 0 Q508 -30 489 -62.5 Q470 -95 470 -121 Q470 -147 485.5 -158 Q501 -169 524 -169 Q547 -169 575.5 -159 Q604 -149 623 -138 L620 -193 Q594 -208 560 -217 Q526 -226 495 -226 Q450 -226 423.5 -206 Q397 -186 397 -144 Q397 -131 402 -112 Q407 -93 419.5 -71.5 Q432 -50 454 -26.5 Q476 -3 509 18 L464 126 L175 126 L123 0 L12 0 L313 669 L334 669 L632 0 L542 0 Z M208 207 L432 207 L322 467 L318 467 L208 207 Z " />
<glyph glyph-name="aogonek" unicode="&#x105;" horiz-adv-x="510" d="M350 55 Q326 25 285 7 Q244 -11 190 -11 Q148 -11 119 0.5 Q90 12 72 30.5 Q54 49 46 72 Q38 95 38 117 Q38 150 50 178.5 Q62 207 87.5 227.5 Q113 248 152 260 Q191 272 245 272 L341 272 L341 284 Q341 379 229 379 Q201 379 164 369 Q127 359 89 339 L89 421 Q105 429 125 436 Q145 443 167 447.5 Q189 452 210.5 454.5 Q232 457 251 457 Q304 457 341 444 Q378 431 401.5 407 Q425 383 435.5 348.5 Q446 314 446 272 L446 0 L394 0 Q360 -30 340.5 -63 Q321 -96 321 -122 Q321 -148 336.5 -159 Q352 -170 375 -170 Q398 -170 426.5 -160 Q455 -150 474 -139 L471 -194 Q445 -209 411 -218 Q377 -227 346 -227 Q301 -227 274.5 -207 Q248 -187 248 -145 Q248 -132 253 -113 Q258 -94 270.5 -72.5 Q283 -51 305 -27.5 Q327 -4 360 17 L353 55 L350 55 Z M140 130 Q140 95 165.5 78 Q191 61 228 61 Q256 61 277.5 71 Q299 81 313.5 98 Q328 115 335 137 Q342 159 342 183 L342 208 L253 208 Q199 208 169.5 189.5 Q140 171 140 130 Z " />
<glyph glyph-name="Cacute" unicode="&#x106;" horiz-adv-x="618" d="M588 31 Q567 20 542.5 12 Q518 4 492.5 -1 Q467 -6 441.5 -8.5 Q416 -11 395 -11 Q311 -11 246.5 15 Q182 41 138 86.5 Q94 132 71.5 193.5 Q49 255 49 327 Q49 399 74.5 462.5 Q100 526 146.5 572.5 Q193 619 257 646 Q321 673 399 673 Q415 673 436.5 671.5 Q458 670 480.5 666.5 Q503 663 525 657.5 Q547 652 565 644 L565 545 Q523 565 485 571.5 Q447 578 414 578 Q364 578 319 561.5 Q274 545 240 513 Q206 481 186 434 Q166 387 166 327 Q166 214 230 149 Q294 84 408 84 Q450 84 496.5 95.5 Q543 107 588 131 L588 31 Z M302 723 Q310 734 328 756 Q346 778 366.5 802.5 Q387 827 405 849 Q423 871 431 882 L520 848 L375 723 L302 723 Z " />
<glyph glyph-name="cacute" unicode="&#x107;" horiz-adv-x="437" d="M279 457 Q306 457 337.5 452.5 Q369 448 394 437 L394 348 Q370 362 343.5 367.5 Q317 373 295 373 Q264 373 237 362.5 Q210 352 190 332.5 Q170 313 158.5 284.5 Q147 256 147 220 Q147 153 186 113.5 Q225 74 293 74 Q322 74 353.5 82 Q385 90 410 106 L410 19 Q384 5 344 -3 Q304 -11 269 -11 Q213 -11 170 6.5 Q127 24 98 55 Q69 86 54.5 128 Q40 170 40 218 Q40 270 58 314 Q76 358 107.5 389.5 Q139 421 183 439 Q227 457 279 457 Z M191 521 Q198 532 214 555.5 Q230 579 247.5 605.5 Q265 632 280.5 655.5 Q296 679 304 690 L388 656 L257 521 L191 521 Z " />
<glyph glyph-name="Ccircumflex" unicode="&#x108;" horiz-adv-x="618" d="M588 31 Q567 20 542.5 12 Q518 4 492.5 -1 Q467 -6 441.5 -8.5 Q416 -11 395 -11 Q311 -11 246.5 15 Q182 41 138 86.5 Q94 132 71.5 193.5 Q49 255 49 327 Q49 399 74.5 462.5 Q100 526 146.5 572.5 Q193 619 257 646 Q321 673 399 673 Q415 673 436.5 671.5 Q458 670 480.5 666.5 Q503 663 525 657.5 Q547 652 565 644 L565 545 Q523 565 485 571.5 Q447 578 414 578 Q364 578 319 561.5 Q274 545 240 513 Q206 481 186 434 Q166 387 166 327 Q166 214 230 149 Q294 84 408 84 Q450 84 496.5 95.5 Q543 107 588 131 L588 31 Z M451 723 L383 797 L311 723 L220 723 L376 876 L395 876 L545 723 L451 723 Z " />
<glyph glyph-name="ccircumflex" unicode="&#x109;" horiz-adv-x="437" d="M279 457 Q306 457 337.5 452.5 Q369 448 394 437 L394 348 Q370 362 343.5 367.5 Q317 373 295 373 Q264 373 237 362.5 Q210 352 190 332.5 Q170 313 158.5 284.5 Q147 256 147 220 Q147 153 186 113.5 Q225 74 293 74 Q322 74 353.5 82 Q385 90 410 106 L410 19 Q384 5 344 -3 Q304 -11 269 -11 Q213 -11 170 6.5 Q127 24 98 55 Q69 86 54.5 128 Q40 170 40 218 Q40 270 58 314 Q76 358 107.5 389.5 Q139 421 183 439 Q227 457 279 457 Z M320 521 L253 602 L182 521 L96 521 L246 683 L265 683 L410 521 L320 521 Z " />
<glyph glyph-name="Cdotaccent" unicode="&#x10a;" horiz-adv-x="618" d="M588 31 Q567 20 542.5 12 Q518 4 492.5 -1 Q467 -6 441.5 -8.5 Q416 -11 395 -11 Q311 -11 246.5 15 Q182 41 138 86.5 Q94 132 71.5 193.5 Q49 255 49 327 Q49 399 74.5 462.5 Q100 526 146.5 572.5 Q193 619 257 646 Q321 673 399 673 Q415 673 436.5 671.5 Q458 670 480.5 666.5 Q503 663 525 657.5 Q547 652 565 644 L565 545 Q523 565 485 571.5 Q447 578 414 578 Q364 578 319 561.5 Q274 545 240 513 Q206 481 186 434 Q166 387 166 327 Q166 214 230 149 Q294 84 408 84 Q450 84 496.5 95.5 Q543 107 588 131 L588 31 Z M439 803 Q439 777 422 759 Q405 741 378 741 Q350 741 333.5 759 Q317 777 317 802 Q317 828 336 845.5 Q355 863 378 863 Q404 863 421.5 845.5 Q439 828 439 803 Z " />
<glyph glyph-name="cdotaccent" unicode="&#x10b;" horiz-adv-x="437" d="M279 457 Q306 457 337.5 452.5 Q369 448 394 437 L394 348 Q370 362 343.5 367.5 Q317 373 295 373 Q264 373 237 362.5 Q210 352 190 332.5 Q170 313 158.5 284.5 Q147 256 147 220 Q147 153 186 113.5 Q225 74 293 74 Q322 74 353.5 82 Q385 90 410 106 L410 19 Q384 5 344 -3 Q304 -11 269 -11 Q213 -11 170 6.5 Q127 24 98 55 Q69 86 54.5 128 Q40 170 40 218 Q40 270 58 314 Q76 358 107.5 389.5 Q139 421 183 439 Q227 457 279 457 Z M325 594 Q325 568 308 550 Q291 532 264 532 Q236 532 219.5 550 Q203 568 203 593 Q203 619 222 636.5 Q241 654 264 654 Q290 654 307.5 636.5 Q325 619 325 594 Z " />
<glyph glyph-name="Ccaron" unicode="&#x10c;" horiz-adv-x="618" d="M588 31 Q567 20 542.5 12 Q518 4 492.5 -1 Q467 -6 441.5 -8.5 Q416 -11 395 -11 Q311 -11 246.5 15 Q182 41 138 86.5 Q94 132 71.5 193.5 Q49 255 49 327 Q49 399 74.5 462.5 Q100 526 146.5 572.5 Q193 619 257 646 Q321 673 399 673 Q415 673 436.5 671.5 Q458 670 480.5 666.5 Q503 663 525 657.5 Q547 652 565 644 L565 545 Q523 565 485 571.5 Q447 578 414 578 Q364 578 319 561.5 Q274 545 240 513 Q206 481 186 434 Q166 387 166 327 Q166 214 230 149 Q294 84 408 84 Q450 84 496.5 95.5 Q543 107 588 131 L588 31 Z M538 873 L388 721 L369 721 L214 873 L305 873 L378 795 L446 873 L538 873 Z " />
<glyph glyph-name="ccaron" unicode="&#x10d;" horiz-adv-x="437" d="M279 457 Q306 457 337.5 452.5 Q369 448 394 437 L394 348 Q370 362 343.5 367.5 Q317 373 295 373 Q264 373 237 362.5 Q210 352 190 332.5 Q170 313 158.5 284.5 Q147 256 147 220 Q147 153 186 113.5 Q225 74 293 74 Q322 74 353.5 82 Q385 90 410 106 L410 19 Q384 5 344 -3 Q304 -11 269 -11 Q213 -11 170 6.5 Q127 24 98 55 Q69 86 54.5 128 Q40 170 40 218 Q40 270 58 314 Q76 358 107.5 389.5 Q139 421 183 439 Q227 457 279 457 Z M417 680 L272 517 L253 517 L103 680 L191 680 L260 597 L325 680 L417 680 Z " />
<glyph glyph-name="Dcaron" unicode="&#x10e;" horiz-adv-x="690" d="M528 332 Q528 383 515 426 Q502 469 475 501 Q448 533 407 551 Q366 569 310 569 L187 569 L187 91 L318 91 Q420 92 474 156 Q528 220 528 332 Z M73 0 L73 660 L307 660 Q387 660 449 635.5 Q511 611 554 567.5 Q597 524 619 464 Q641 404 641 332 Q641 261 620 200.5 Q599 140 558 95.5 Q517 51 457.5 25.5 Q398 0 320 0 L73 0 Z M456 871 L306 719 L287 719 L132 871 L223 871 L296 793 L364 871 L456 871 Z " />
<glyph glyph-name="dcaron" unicode="&#x10f;" horiz-adv-x="674" d="M421 223 Q421 253 412 280 Q403 307 385 327.5 Q367 348 341 359.5 Q315 371 282 371 Q251 371 226 359 Q201 347 183.5 326.5 Q166 306 156.5 279 Q147 252 147 221 Q147 156 183 115 Q219 74 284 74 Q314 74 339 85.5 Q364 97 382.5 117.5 Q401 138 411 165 Q421 192 421 223 Z M424 710 L526 710 Q526 531 526.5 355 Q527 179 527 0 L448 0 L433 57 Q432 58 431 58 Q416 40 397 27 Q378 14 356 5.5 Q334 -3 311.5 -7 Q289 -11 267 -11 Q216 -11 174.5 5 Q133 21 104 51 Q75 81 59.5 123 Q44 165 44 216 Q44 267 60.5 311 Q77 355 107 387.5 Q137 420 178.5 438 Q220 456 270 456 Q305 456 345 445 Q385 434 419 402 L424 404 L424 710 Z M581 662 Q581 686 597.5 702.5 Q614 719 637 719 Q662 719 677.5 702.5 Q693 686 693 660 Q693 641 685 617.5 Q677 594 665.5 569.5 Q654 545 640.5 523 Q627 501 616 485 L575 492 L616 610 Q598 617 589.5 631 Q581 645 581 662 Z " />
<glyph glyph-name="Dcroat" unicode="&#x110;" horiz-adv-x="690" d="M73 0 L73 306 L16 306 L16 372 L73 372 L73 660 L307 660 Q387 660 449 635.5 Q511 611 554 567.5 Q597 524 619 464 Q641 404 641 332 Q641 261 620 200.5 Q599 140 558 95.5 Q517 51 457.5 25.5 Q398 0 320 0 L73 0 Z M528 332 Q528 450 466.5 509.5 Q405 569 272 569 L187 569 L187 372 L362 372 L362 306 L187 306 L187 91 L275 91 Q406 91 467 149 Q528 207 528 332 Z " />
<glyph glyph-name="dcroat" unicode="&#x111;" horiz-adv-x="582" d="M423 553 L242 553 L242 608 L423 608 L423 710 L525 710 L525 608 L580 608 L580 553 L525 553 Q525 413 525.5 276 Q526 139 526 0 L447 0 L432 57 Q431 58 430 58 Q415 40 396 27 Q377 14 355 5.5 Q333 -3 310.5 -7 Q288 -11 266 -11 Q215 -11 173.5 5 Q132 21 103 51 Q74 81 58.5 123 Q43 165 43 216 Q43 267 59.5 311 Q76 355 106 387.5 Q136 420 177.5 438 Q219 456 269 456 Q304 456 344 445 Q384 434 418 402 L423 404 L423 553 Z M420 223 Q420 253 411 280 Q402 307 384 327.5 Q366 348 340 359.5 Q314 371 281 371 Q250 371 225 359 Q200 347 182.5 326.5 Q165 306 155.5 279 Q146 252 146 221 Q146 156 182 115 Q218 74 283 74 Q313 74 338 85.5 Q363 97 381.5 117.5 Q400 138 410 165 Q420 192 420 223 Z " />
<glyph glyph-name="Emacron" unicode="&#x112;" horiz-adv-x="564" d="M530 0 L73 0 L73 660 L508 660 L508 569 L188 569 L188 390 L479 390 L479 301 L188 301 L188 91 L530 91 L530 0 Z M149 826 L452 826 L452 754 L149 754 L149 826 Z " />
<glyph glyph-name="emacron" unicode="&#x113;" horiz-adv-x="521" d="M265 458 Q316 458 355.5 441 Q395 424 422.5 393 Q450 362 464.5 320 Q479 278 479 227 L479 202 L146 202 Q148 168 160.5 143 Q173 118 193 102 Q213 86 239 78.5 Q265 71 294 71 Q333 71 373 82 Q413 93 458 125 L458 38 Q422 13 378 1 Q334 -11 286 -11 Q226 -11 180 6.5 Q134 24 103 55.5 Q72 87 56 130 Q40 173 40 224 Q40 273 56.5 315.5 Q73 358 102.5 389.5 Q132 421 173.5 439.5 Q215 458 265 458 Z M123 617 L415 617 L415 547 L123 547 L123 617 Z M269 379 Q220 379 188.5 349 Q157 319 149 271 L382 271 Q374 320 345.5 349.5 Q317 379 269 379 Z " />
<glyph glyph-name="Ebreve" unicode="&#x114;" horiz-adv-x="564" d="M530 0 L73 0 L73 660 L508 660 L508 569 L188 569 L188 390 L479 390 L479 301 L188 301 L188 91 L530 91 L530 0 Z M298 716 Q263 716 236.5 728.5 Q210 741 192.5 762 Q175 783 165.5 810 Q156 837 155 866 L216 866 Q217 824 239.5 799.5 Q262 775 299 775 Q319 775 334 782.5 Q349 790 359 803 Q369 816 374.5 832 Q380 848 382 866 L442 866 Q440 839 431.5 812 Q423 785 405.5 764 Q388 743 361.5 729.5 Q335 716 298 716 Z " />
<glyph glyph-name="ebreve" unicode="&#x115;" horiz-adv-x="521" d="M265 458 Q316 458 355.5 441 Q395 424 422.5 393 Q450 362 464.5 320 Q479 278 479 227 L479 202 L146 202 Q148 168 160.5 143 Q173 118 193 102 Q213 86 239 78.5 Q265 71 294 71 Q333 71 373 82 Q413 93 458 125 L458 38 Q422 13 378 1 Q334 -11 286 -11 Q226 -11 180 6.5 Q134 24 103 55.5 Q72 87 56 130 Q40 173 40 224 Q40 273 56.5 315.5 Q73 358 102.5 389.5 Q132 421 173.5 439.5 Q215 458 265 458 Z M269 524 Q234 524 208 536.5 Q182 549 164 570 Q146 591 136.5 618 Q127 645 126 675 L187 675 Q189 633 211 608.5 Q233 584 270 584 Q311 584 330.5 611.5 Q350 639 353 675 L413 675 Q411 648 402.5 621 Q394 594 376.5 572.5 Q359 551 332.5 537.5 Q306 524 269 524 Z M269 379 Q220 379 188.5 349 Q157 319 149 271 L382 271 Q374 320 345.5 349.5 Q317 379 269 379 Z " />
<glyph glyph-name="Edotaccent" unicode="&#x116;" horiz-adv-x="564" d="M530 0 L73 0 L73 660 L508 660 L508 569 L188 569 L188 390 L479 390 L479 301 L188 301 L188 91 L530 91 L530 0 Z M362 800 Q362 774 345 756 Q328 738 301 738 Q273 738 256.5 756 Q240 774 240 799 Q240 825 259 842.5 Q278 860 301 860 Q327 860 344.5 842.5 Q362 825 362 800 Z " />
<glyph glyph-name="edotaccent" unicode="&#x117;" horiz-adv-x="521" d="M265 458 Q316 458 355.5 441 Q395 424 422.5 393 Q450 362 464.5 320 Q479 278 479 227 L479 202 L146 202 Q148 168 160.5 143 Q173 118 193 102 Q213 86 239 78.5 Q265 71 294 71 Q333 71 373 82 Q413 93 458 125 L458 38 Q422 13 378 1 Q334 -11 286 -11 Q226 -11 180 6.5 Q134 24 103 55.5 Q72 87 56 130 Q40 173 40 224 Q40 273 56.5 315.5 Q73 358 102.5 389.5 Q132 421 173.5 439.5 Q215 458 265 458 Z M269 379 Q220 379 188.5 349 Q157 319 149 271 L382 271 Q374 320 345.5 349.5 Q317 379 269 379 Z M329 594 Q329 568 312 550 Q295 532 268 532 Q240 532 223.5 550 Q207 568 207 593 Q207 619 226 636.5 Q245 654 268 654 Q294 654 311.5 636.5 Q329 619 329 594 Z " />
<glyph glyph-name="Eogonek" unicode="&#x118;" horiz-adv-x="564" d="M530 0 L447 0 Q410 -31 389 -65.5 Q368 -100 368 -127 Q368 -153 383.5 -164 Q399 -175 422 -175 Q445 -175 473.5 -165 Q502 -155 521 -144 L518 -199 Q492 -214 458 -223 Q424 -232 393 -232 Q348 -232 321.5 -212 Q295 -192 295 -150 Q295 -138 299.5 -121 Q304 -104 314.5 -84 Q325 -64 343.5 -42.5 Q362 -21 390 0 L73 0 L73 660 L508 660 L508 569 L188 569 L188 390 L479 390 L479 301 L188 301 L188 91 L530 91 L530 0 Z " />
<glyph glyph-name="eogonek" unicode="&#x119;" horiz-adv-x="521" d="M265 458 Q316 458 355.5 441 Q395 424 422.5 393 Q450 362 464.5 320 Q479 278 479 227 L479 202 L146 202 Q148 168 160.5 143 Q173 118 193 102 Q213 86 239 78.5 Q265 71 294 71 Q333 71 373 82 Q413 93 458 125 L458 38 Q424 15 382 2 Q348 -27 329 -60 Q310 -93 310 -119 Q310 -145 325.5 -156 Q341 -167 364 -167 Q387 -167 415.5 -157 Q444 -147 463 -136 L460 -191 Q434 -206 400 -215 Q366 -224 335 -224 Q290 -224 263.5 -204 Q237 -184 237 -142 Q237 -121 252 -84.5 Q267 -48 309 -10 Q303 -11 297.5 -11 Q292 -11 286 -11 Q226 -11 180 6.5 Q134 24 103 55.5 Q72 87 56 130 Q40 173 40 224 Q40 273 56.5 315.5 Q73 358 102.5 389.5 Q132 421 173.5 439.5 Q215 458 265 458 Z M269 379 Q220 379 188.5 349 Q157 319 149 271 L382 271 Q374 320 345.5 349.5 Q317 379 269 379 Z " />
<glyph glyph-name="Ecaron" unicode="&#x11a;" horiz-adv-x="564" d="M530 0 L73 0 L73 660 L508 660 L508 569 L188 569 L188 390 L479 390 L479 301 L188 301 L188 91 L530 91 L530 0 Z M458 871 L308 719 L289 719 L134 871 L225 871 L298 793 L366 871 L458 871 Z " />
<glyph glyph-name="ecaron" unicode="&#x11b;" horiz-adv-x="521" d="M265 458 Q316 458 355.5 441 Q395 424 422.5 393 Q450 362 464.5 320 Q479 278 479 227 L479 202 L146 202 Q148 168 160.5 143 Q173 118 193 102 Q213 86 239 78.5 Q265 71 294 71 Q333 71 373 82 Q413 93 458 125 L458 38 Q422 13 378 1 Q334 -11 286 -11 Q226 -11 180 6.5 Q134 24 103 55.5 Q72 87 56 130 Q40 173 40 224 Q40 273 56.5 315.5 Q73 358 102.5 389.5 Q132 421 173.5 439.5 Q215 458 265 458 Z M422 679 L277 516 L258 516 L108 679 L196 679 L265 596 L330 679 L422 679 Z M269 379 Q220 379 188.5 349 Q157 319 149 271 L382 271 Q374 320 345.5 349.5 Q317 379 269 379 Z " />
<glyph glyph-name="Gcircumflex" unicode="&#x11c;" horiz-adv-x="674" d="M48 325 Q48 398 73.5 461.5 Q99 525 146 572.5 Q193 620 258 647 Q323 674 403 674 Q421 674 443.5 672.5 Q466 671 490.5 667 Q515 663 540 656 Q565 649 586 638 L586 535 Q540 560 494 568.5 Q448 577 411 577 Q359 577 314 560 Q269 543 236 510.5 Q203 478 184 431 Q165 384 165 324 Q165 273 179.5 229 Q194 185 223 152 Q252 119 296 100.5 Q340 82 399 82 Q426 82 456.5 88 Q487 94 510 103 L510 334 L614 334 L614 29 Q568 9 508 -0.5 Q448 -10 387 -10 Q304 -10 240.5 16 Q177 42 134 87 Q91 132 69.5 193 Q48 254 48 325 Z M466 724 L398 798 L326 724 L235 724 L391 877 L410 877 L560 724 L466 724 Z " />
<glyph glyph-name="gcircumflex" unicode="&#x11d;" horiz-adv-x="511" d="M38 -92 Q38 -57 56.5 -26 Q75 5 108 28 L78 33 Q49 38 37.5 53 Q26 68 26 88 L108 167 Q84 189 72.5 219.5 Q61 250 61 285 Q61 322 75.5 353.5 Q90 385 115 408 Q140 431 174.5 444 Q209 457 249 457 Q269 457 289.5 453 Q310 449 327 444 L482 444 L482 392 Q462 390 443 387 Q424 384 405 381 Q422 361 432 335.5 Q442 310 442 284 Q442 251 429 221 Q416 191 391.5 169 Q367 147 333 134 Q299 121 257 121 Q236 121 210 125.5 Q184 130 164 140 L131 95 L346 71 Q406 64 439 35.5 Q472 7 472 -50 Q472 -78 458.5 -108 Q445 -138 416 -163.5 Q387 -189 342.5 -205.5 Q298 -222 237 -222 Q181 -222 143 -210 Q105 -198 82 -179.5 Q59 -161 48.5 -138 Q38 -115 38 -92 Z M253 191 Q298 191 323.5 219.5 Q349 248 349 289 Q349 330 322 358 Q295 386 253 386 Q211 386 184.5 358 Q158 330 158 289 Q158 246 182.5 218.5 Q207 191 253 191 Z M237 -140 Q273 -140 298 -130.5 Q323 -121 338.5 -106 Q354 -91 360.5 -73.5 Q367 -56 367 -40 Q367 -18 350.5 -9 Q334 0 310 3 L167 20 Q153 5 142.5 -16.5 Q132 -38 132 -61 Q132 -76 137.5 -90.5 Q143 -105 155.5 -116 Q168 -127 188 -133.5 Q208 -140 237 -140 Z M328 521 L261 602 L190 521 L104 521 L254 683 L273 683 L418 521 L328 521 Z " />
<glyph glyph-name="Gbreve" unicode="&#x11e;" horiz-adv-x="674" d="M48 325 Q48 398 73.5 461.5 Q99 525 146 572.5 Q193 620 258 647 Q323 674 403 674 Q421 674 443.5 672.5 Q466 671 490.5 667 Q515 663 540 656 Q565 649 586 638 L586 535 Q540 560 494 568.5 Q448 577 411 577 Q359 577 314 560 Q269 543 236 510.5 Q203 478 184 431 Q165 384 165 324 Q165 273 179.5 229 Q194 185 223 152 Q252 119 296 100.5 Q340 82 399 82 Q426 82 456.5 88 Q487 94 510 103 L510 334 L614 334 L614 29 Q568 9 508 -0.5 Q448 -10 387 -10 Q304 -10 240.5 16 Q177 42 134 87 Q91 132 69.5 193 Q48 254 48 325 Z M398 716 Q363 716 336.5 728.5 Q310 741 292.5 762 Q275 783 265.5 810 Q256 837 255 866 L316 866 Q317 824 339.5 799.5 Q362 775 399 775 Q419 775 434 782.5 Q449 790 459 803 Q469 816 474.5 832 Q480 848 482 866 L542 866 Q540 839 531.5 812 Q523 785 505.5 764 Q488 743 461.5 729.5 Q435 716 398 716 Z " />
<glyph glyph-name="gbreve" unicode="&#x11f;" horiz-adv-x="511" d="M38 -92 Q38 -57 56.5 -26 Q75 5 108 28 L78 33 Q49 38 37.5 53 Q26 68 26 88 L108 167 Q84 189 72.5 219.5 Q61 250 61 285 Q61 322 75.5 353.5 Q90 385 115 408 Q140 431 174.5 444 Q209 457 249 457 Q269 457 289.5 453 Q310 449 327 444 L482 444 L482 392 Q462 390 443 387 Q424 384 405 381 Q422 361 432 335.5 Q442 310 442 284 Q442 251 429 221 Q416 191 391.5 169 Q367 147 333 134 Q299 121 257 121 Q236 121 210 125.5 Q184 130 164 140 L131 95 L346 71 Q406 64 439 35.5 Q472 7 472 -50 Q472 -78 458.5 -108 Q445 -138 416 -163.5 Q387 -189 342.5 -205.5 Q298 -222 237 -222 Q181 -222 143 -210 Q105 -198 82 -179.5 Q59 -161 48.5 -138 Q38 -115 38 -92 Z M253 191 Q298 191 323.5 219.5 Q349 248 349 289 Q349 330 322 358 Q295 386 253 386 Q211 386 184.5 358 Q158 330 158 289 Q158 246 182.5 218.5 Q207 191 253 191 Z M237 -140 Q273 -140 298 -130.5 Q323 -121 338.5 -106 Q354 -91 360.5 -73.5 Q367 -56 367 -40 Q367 -18 350.5 -9 Q334 0 310 3 L167 20 Q153 5 142.5 -16.5 Q132 -38 132 -61 Q132 -76 137.5 -90.5 Q143 -105 155.5 -116 Q168 -127 188 -133.5 Q208 -140 237 -140 Z M262 524 Q227 524 201 536.5 Q175 549 157 570 Q139 591 129.5 618 Q120 645 119 675 L180 675 Q182 633 204 608.5 Q226 584 263 584 Q304 584 323.5 611.5 Q343 639 346 675 L406 675 Q404 648 395.5 621 Q387 594 369.5 572.5 Q352 551 325.5 537.5 Q299 524 262 524 Z " />
<glyph glyph-name="Gdotaccent" unicode="&#x120;" horiz-adv-x="674" d="M48 325 Q48 398 73.5 461.5 Q99 525 146 572.5 Q193 620 258 647 Q323 674 403 674 Q421 674 443.5 672.5 Q466 671 490.5 667 Q515 663 540 656 Q565 649 586 638 L586 535 Q540 560 494 568.5 Q448 577 411 577 Q359 577 314 560 Q269 543 236 510.5 Q203 478 184 431 Q165 384 165 324 Q165 273 179.5 229 Q194 185 223 152 Q252 119 296 100.5 Q340 82 399 82 Q426 82 456.5 88 Q487 94 510 103 L510 334 L614 334 L614 29 Q568 9 508 -0.5 Q448 -10 387 -10 Q304 -10 240.5 16 Q177 42 134 87 Q91 132 69.5 193 Q48 254 48 325 Z M459 803 Q459 777 442 759 Q425 741 398 741 Q370 741 353.5 759 Q337 777 337 802 Q337 828 356 845.5 Q375 863 398 863 Q424 863 441.5 845.5 Q459 828 459 803 Z " />
<glyph glyph-name="gdotaccent" unicode="&#x121;" horiz-adv-x="511" d="M38 -92 Q38 -57 56.5 -26 Q75 5 108 28 L78 33 Q49 38 37.5 53 Q26 68 26 88 L108 167 Q84 189 72.5 219.5 Q61 250 61 285 Q61 322 75.5 353.5 Q90 385 115 408 Q140 431 174.5 444 Q209 457 249 457 Q269 457 289.5 453 Q310 449 327 444 L482 444 L482 392 Q462 390 443 387 Q424 384 405 381 Q422 361 432 335.5 Q442 310 442 284 Q442 251 429 221 Q416 191 391.5 169 Q367 147 333 134 Q299 121 257 121 Q236 121 210 125.5 Q184 130 164 140 L131 95 L346 71 Q406 64 439 35.5 Q472 7 472 -50 Q472 -78 458.5 -108 Q445 -138 416 -163.5 Q387 -189 342.5 -205.5 Q298 -222 237 -222 Q181 -222 143 -210 Q105 -198 82 -179.5 Q59 -161 48.5 -138 Q38 -115 38 -92 Z M253 191 Q298 191 323.5 219.5 Q349 248 349 289 Q349 330 322 358 Q295 386 253 386 Q211 386 184.5 358 Q158 330 158 289 Q158 246 182.5 218.5 Q207 191 253 191 Z M237 -140 Q273 -140 298 -130.5 Q323 -121 338.5 -106 Q354 -91 360.5 -73.5 Q367 -56 367 -40 Q367 -18 350.5 -9 Q334 0 310 3 L167 20 Q153 5 142.5 -16.5 Q132 -38 132 -61 Q132 -76 137.5 -90.5 Q143 -105 155.5 -116 Q168 -127 188 -133.5 Q208 -140 237 -140 Z M320 594 Q320 568 303 550 Q286 532 259 532 Q231 532 214.5 550 Q198 568 198 593 Q198 619 217 636.5 Q236 654 259 654 Q285 654 302.5 636.5 Q320 619 320 594 Z " />
<glyph glyph-name="Gcommaaccent" unicode="&#x122;" horiz-adv-x="674" d="M48 325 Q48 398 73.5 461.5 Q99 525 146 572.5 Q193 620 258 647 Q323 674 403 674 Q421 674 443.5 672.5 Q466 671 490.5 667 Q515 663 540 656 Q565 649 586 638 L586 535 Q540 560 494 568.5 Q448 577 411 577 Q359 577 314 560 Q269 543 236 510.5 Q203 478 184 431 Q165 384 165 324 Q165 273 179.5 229 Q194 185 223 152 Q252 119 296 100.5 Q340 82 399 82 Q426 82 456.5 88 Q487 94 510 103 L510 334 L614 334 L614 29 Q568 9 508 -0.5 Q448 -10 387 -10 Q304 -10 240.5 16 Q177 42 134 87 Q91 132 69.5 193 Q48 254 48 325 Z M327 -104 Q327 -80 343.5 -63.5 Q360 -47 383 -47 Q408 -47 423.5 -63.5 Q439 -80 439 -106 Q439 -125 431 -148.5 Q423 -172 411.5 -196.5 Q400 -221 386.5 -243 Q373 -265 362 -281 L321 -274 L362 -156 Q344 -149 335.5 -135 Q327 -121 327 -104 Z " />
<glyph glyph-name="gcommaaccent" unicode="&#x123;" horiz-adv-x="511" d="M38 -92 Q38 -57 56.5 -26 Q75 5 108 28 L78 33 Q49 38 37.5 53 Q26 68 26 88 L108 167 Q84 189 72.5 219.5 Q61 250 61 285 Q61 322 75.5 353.5 Q90 385 115 408 Q140 431 174.5 444 Q209 457 249 457 Q269 457 289.5 453 Q310 449 327 444 L482 444 L482 392 Q462 390 443 387 Q424 384 405 381 Q422 361 432 335.5 Q442 310 442 284 Q442 251 429 221 Q416 191 391.5 169 Q367 147 333 134 Q299 121 257 121 Q236 121 210 125.5 Q184 130 164 140 L131 95 L346 71 Q406 64 439 35.5 Q472 7 472 -50 Q472 -78 458.5 -108 Q445 -138 416 -163.5 Q387 -189 342.5 -205.5 Q298 -222 237 -222 Q181 -222 143 -210 Q105 -198 82 -179.5 Q59 -161 48.5 -138 Q38 -115 38 -92 Z M253 191 Q298 191 323.5 219.5 Q349 248 349 289 Q349 330 322 358 Q295 386 253 386 Q211 386 184.5 358 Q158 330 158 289 Q158 246 182.5 218.5 Q207 191 253 191 Z M237 -140 Q273 -140 298 -130.5 Q323 -121 338.5 -106 Q354 -91 360.5 -73.5 Q367 -56 367 -40 Q367 -18 350.5 -9 Q334 0 310 3 L167 20 Q153 5 142.5 -16.5 Q132 -38 132 -61 Q132 -76 137.5 -90.5 Q143 -105 155.5 -116 Q168 -127 188 -133.5 Q208 -140 237 -140 Z M309 583 Q309 559 292.5 542.5 Q276 526 253 526 Q228 526 212.5 542.5 Q197 559 197 585 Q197 604 205 627.5 Q213 651 224.5 675.5 Q236 700 249.5 722 Q263 744 274 760 L315 753 L274 635 Q292 628 300.5 614 Q309 600 309 583 Z " />
<glyph glyph-name="Hcircumflex" unicode="&#x124;" horiz-adv-x="684" d="M495 0 L495 299 L188 299 L188 0 L73 0 L73 660 L188 660 L188 391 L495 391 L495 660 L609 660 L609 0 L495 0 Z M411 721 L343 795 L271 721 L180 721 L336 874 L355 874 L505 721 L411 721 Z " />
<glyph glyph-name="hcircumflex" unicode="&#x125;" horiz-adv-x="543" d="M370 0 L370 260 Q370 311 347 340.5 Q324 370 279 370 Q255 370 233.5 361.5 Q212 353 196 336 Q180 319 170.5 292.5 Q161 266 161 229 L161 0 L54 0 L54 711 L157 711 L157 386 L160 386 Q194 427 231 440.5 Q268 454 308 454 Q389 454 432 407 Q475 360 475 276 L475 0 L370 0 Z M175 741 L107 815 L35 741 L-56 741 L100 894 L119 894 L269 741 L175 741 Z " />
<glyph glyph-name="Hbar" unicode="&#x126;" horiz-adv-x="684" d="M26 571 L73 571 L73 660 L188 660 L188 571 L495 571 L495 660 L609 660 L609 571 L652 571 L652 512 L609 512 L609 0 L495 0 L495 299 L188 299 L188 0 L73 0 L73 512 L26 512 L26 571 Z M495 391 L495 512 L188 512 L188 391 L495 391 Z " />
<glyph glyph-name="hbar" unicode="&#x127;" horiz-adv-x="540" d="M371 0 L371 260 Q371 309 347 339.5 Q323 370 280 370 Q256 370 234.5 361.5 Q213 353 197 336 Q181 319 171.5 292.5 Q162 266 162 229 L162 0 L55 0 L55 553 L8 553 L8 608 L55 608 L55 711 L158 711 L158 608 L334 608 L334 553 L158 553 L158 386 L161 386 Q196 428 233 442 Q270 456 309 456 Q390 456 433 408.5 Q476 361 476 276 L476 0 L371 0 Z " />
<glyph glyph-name="Itilde" unicode="&#x128;" horiz-adv-x="277" d="M80 0 L80 660 L195 660 L195 0 L80 0 Z M297 818 Q285 786 263.5 763 Q242 740 210 740 Q192 740 174.5 747.5 Q157 755 140.5 764.5 Q124 774 109 781.5 Q94 789 81 789 Q65 789 51 774 Q37 759 26 735 L-11 781 Q-5 796 4 810 Q13 824 24 835 Q35 846 49 853 Q63 860 79 860 Q96 860 113 852 Q130 844 146.5 834.5 Q163 825 178.5 817 Q194 809 208 809 Q226 809 239 824.5 Q252 840 264 864 L297 818 Z " />
<glyph glyph-name="itilde" unicode="&#x129;" horiz-adv-x="250" d="M279 611 Q267 579 245.5 556 Q224 533 192 533 Q174 533 156.5 540.5 Q139 548 122.5 557.5 Q106 567 91 574.5 Q76 582 63 582 Q47 582 33 567 Q19 552 8 528 L-29 574 Q-23 589 -14 603 Q-5 617 6 628 Q17 639 31 646 Q45 653 61 653 Q78 653 95 645 Q112 637 128.5 627.5 Q145 618 160.5 610 Q176 602 190 602 Q208 602 221 617.5 Q234 633 246 657 L279 611 Z M71 0 L71 445 L177 445 L177 0 L71 0 Z " />
<glyph glyph-name="Imacron" unicode="&#x12a;" horiz-adv-x="277" d="M80 0 L80 660 L195 660 L195 0 L80 0 Z M-12 823 L291 823 L291 751 L-12 751 L-12 823 Z " />
<glyph glyph-name="imacron" unicode="&#x12b;" horiz-adv-x="250" d="M-22 617 L270 617 L270 547 L-22 547 L-22 617 Z M71 0 L71 445 L177 445 L177 0 L71 0 Z " />
<glyph glyph-name="Ibreve" unicode="&#x12c;" horiz-adv-x="290" d="M86 0 L86 660 L201 660 L201 0 L86 0 Z M145 716 Q110 716 83.5 728.5 Q57 741 39.5 762 Q22 783 12.5 810 Q3 837 2 866 L63 866 Q64 824 86.5 799.5 Q109 775 146 775 Q166 775 181 782.5 Q196 790 206 803 Q216 816 221.5 832 Q227 848 229 866 L289 866 Q287 839 278.5 812 Q270 785 252.5 764 Q235 743 208.5 729.5 Q182 716 145 716 Z " />
<glyph glyph-name="ibreve" unicode="&#x12d;" horiz-adv-x="250" d="M126 526 Q91 526 65 538.5 Q39 551 21 572 Q3 593 -6.5 620 Q-16 647 -17 677 L44 677 Q46 635 68 610.5 Q90 586 127 586 Q168 586 187.5 613.5 Q207 641 210 677 L270 677 Q268 650 259.5 623 Q251 596 233.5 574.5 Q216 553 189.5 539.5 Q163 526 126 526 Z M71 0 L71 445 L177 445 L177 0 L71 0 Z " />
<glyph glyph-name="Iogonek" unicode="&#x12e;" horiz-adv-x="277" d="M153 0 Q118 -30 98.5 -63.5 Q79 -97 79 -123 Q79 -149 94.5 -160 Q110 -171 133 -171 Q156 -171 184.5 -161 Q213 -151 232 -140 L229 -195 Q203 -210 169 -219 Q135 -228 104 -228 Q59 -228 32.5 -208 Q6 -188 6 -146 Q6 -134 10 -117.5 Q14 -101 24 -81.5 Q34 -62 51.5 -41 Q69 -20 95 0 L80 0 L80 660 L195 660 L195 0 L153 0 Z " />
<glyph glyph-name="iogonek" unicode="&#x12f;" horiz-adv-x="250" d="M137 0 Q102 -30 82.5 -63.5 Q63 -97 63 -123 Q63 -149 78.5 -160 Q94 -171 117 -171 Q140 -171 168.5 -161 Q197 -151 216 -140 L213 -195 Q187 -210 153 -219 Q119 -228 88 -228 Q43 -228 16.5 -208 Q-10 -188 -10 -146 Q-10 -134 -6 -117.5 Q-2 -101 8 -81.5 Q18 -62 35.5 -41 Q53 -20 79 0 L71 0 L71 445 L177 445 L177 0 L137 0 Z M187 587 Q187 562 170 544 Q153 526 126 526 Q98 526 81.5 544 Q65 562 65 587 Q65 613 84 630.5 Q103 648 126 648 Q152 648 169.5 630.5 Q187 613 187 587 Z " />
<glyph glyph-name="Idotaccent" unicode="&#x130;" horiz-adv-x="277" d="M80 0 L80 660 L195 660 L195 0 L80 0 Z M201 800 Q201 774 184 756 Q167 738 140 738 Q112 738 95.5 756 Q79 774 79 799 Q79 825 98 842.5 Q117 860 140 860 Q166 860 183.5 842.5 Q201 825 201 800 Z " />
<glyph glyph-name="IJ" unicode="&#x132;" horiz-adv-x="708" d="M74 0 L74 660 L189 660 L189 0 L74 0 Z M375 83 Q419 83 446.5 96 Q474 109 489.5 132 Q505 155 510.5 186 Q516 217 516 254 L516 660 L632 660 L632 269 Q632 219 624.5 169 Q617 119 591.5 79 Q566 39 518.5 14 Q471 -11 390 -11 Q374 -11 354.5 -9 Q335 -7 315 -3 Q295 1 276 7 Q257 13 241 21 L241 122 Q272 103 309.5 93 Q347 83 375 83 Z " />
<glyph glyph-name="ij" unicode="&#x133;" horiz-adv-x="455" d="M65 0 L65 445 L171 445 L171 0 L65 0 Z M181 587 Q181 562 164 544 Q147 526 120 526 Q92 526 75.5 544 Q59 562 59 587 Q59 613 78 630.5 Q97 648 120 648 Q146 648 163.5 630.5 Q181 613 181 587 Z M398 587 Q398 561 381 543.5 Q364 526 338 526 Q310 526 293 543.5 Q276 561 276 587 Q276 613 294.5 630 Q313 647 338 647 Q364 647 381 629.5 Q398 612 398 587 Z M198 -229 Q189 -207 179 -186.5 Q169 -166 160 -144 Q196 -142 220 -132.5 Q244 -123 258.5 -105 Q273 -87 278.5 -60.5 Q284 -34 284 1 L284 445 L389 445 L389 -5 Q389 -65 374 -106.5 Q359 -148 333 -174.5 Q307 -201 272 -214 Q237 -227 198 -229 Z " />
<glyph glyph-name="Jcircumflex" unicode="&#x134;" horiz-adv-x="477" d="M146 84 Q190 84 217.5 97 Q245 110 260.5 133 Q276 156 281.5 187 Q287 218 287 255 L287 661 L403 661 L403 270 Q403 220 395.5 170 Q388 120 362.5 80 Q337 40 289.5 15 Q242 -10 161 -10 Q145 -10 125.5 -8 Q106 -6 86 -2 Q66 2 47 8 Q28 14 12 22 L12 123 Q43 104 80.5 94 Q118 84 146 84 Z M415 721 L347 795 L275 721 L184 721 L340 874 L359 874 L509 721 L415 721 Z " />
<glyph glyph-name="jcircumflex" unicode="&#x135;" horiz-adv-x="238" d="M-20 -229 Q-29 -208 -38.5 -187.5 Q-48 -167 -56 -146 Q-20 -144 3.5 -133 Q27 -122 41 -102.5 Q55 -83 60.5 -57 Q66 -31 66 1 L66 445 L170 445 L170 47 Q170 -28 157.5 -79.5 Q145 -131 121 -163.5 Q97 -196 61.5 -211 Q26 -226 -20 -229 Z M185 521 L118 602 L47 521 L-39 521 L111 683 L130 683 L275 521 L185 521 Z " />
<glyph glyph-name="Kcommaaccent" unicode="&#x136;" horiz-adv-x="620" d="M189 353 L461 660 L588 660 L306 342 Q339 308 378 263 Q417 218 458 170.5 Q499 123 538.5 78.5 Q578 34 611 0 L476 0 Q444 33 407 76.5 Q370 120 332 165.5 Q294 211 257 254.5 Q220 298 189 331 L189 0 L73 0 L73 660 L189 660 L189 353 Z M239 -86 Q239 -62 255.5 -45.5 Q272 -29 295 -29 Q320 -29 335.5 -45.5 Q351 -62 351 -88 Q351 -107 343 -130.5 Q335 -154 323.5 -178.5 Q312 -203 298.5 -225 Q285 -247 274 -263 L233 -256 L274 -138 Q256 -131 247.5 -117 Q239 -103 239 -86 Z " />
<glyph glyph-name="kcommaaccent" unicode="&#x137;" horiz-adv-x="505" d="M482 444 Q429 392 375 339.5 Q321 287 268 234 Q284 219 316 186 Q348 153 383.5 116.5 Q419 80 451 47.5 Q483 15 499 0 L371 0 L164 220 L164 0 L57 0 L57 711 L164 711 L164 243 Q171 251 186.5 267 Q202 283 221.5 302.5 Q241 322 262.5 343.5 Q284 365 303.5 384.5 Q323 404 338.5 420 Q354 436 361 444 L482 444 Z M187 -98 Q187 -74 203.5 -57.5 Q220 -41 243 -41 Q268 -41 283.5 -57.5 Q299 -74 299 -100 Q299 -119 291 -142.5 Q283 -166 271.5 -190.5 Q260 -215 246.5 -237 Q233 -259 222 -275 L181 -268 L222 -150 Q204 -143 195.5 -129 Q187 -115 187 -98 Z " />
<glyph glyph-name="kgreenlandic" unicode="&#x138;" horiz-adv-x="505" d="M476 444 Q423 392 368.5 339.5 Q314 287 261 234 L493 0 L365 0 Q358 9 341.5 26.5 Q325 44 304.5 65 Q284 86 261.5 110 Q239 134 218.5 155 Q198 176 181.5 193.5 Q165 211 158 220 L158 0 L50 0 L50 444 L158 444 L158 243 Q165 251 180.5 267 Q196 283 215.5 302.5 Q235 322 256.5 343.5 Q278 365 297.5 384.5 Q317 404 332.5 420 Q348 436 355 444 L476 444 L476 444 Z " />
<glyph glyph-name="Lacute" unicode="&#x139;" horiz-adv-x="524" d="M188 660 L188 91 L513 91 L513 0 L73 0 L73 660 L188 660 Z M76 723 Q84 734 102 756 Q120 778 140.5 802.5 Q161 827 179 849 Q197 871 205 882 L294 848 L149 723 L76 723 Z " />
<glyph glyph-name="lacute" unicode="&#x13a;" horiz-adv-x="235" d="M64 0 L64 711 L170 711 L170 0 L64 0 Z M65 755 Q73 766 91 788 Q109 810 129.5 834.5 Q150 859 168 881 Q186 903 194 914 L283 880 L138 755 L65 755 Z " />
<glyph glyph-name="Lcommaaccent" unicode="&#x13b;" horiz-adv-x="524" d="M188 660 L188 91 L513 91 L513 0 L73 0 L73 660 L188 660 Z M236 -101 Q236 -77 252.5 -60.5 Q269 -44 292 -44 Q317 -44 332.5 -60.5 Q348 -77 348 -103 Q348 -122 340 -145.5 Q332 -169 320.5 -193.5 Q309 -218 295.5 -240 Q282 -262 271 -278 L230 -271 L271 -153 Q253 -146 244.5 -132 Q236 -118 236 -101 Z " />
<glyph glyph-name="lcommaaccent" unicode="&#x13c;" horiz-adv-x="235" d="M64 0 L64 711 L170 711 L170 0 L64 0 Z M60 -101 Q60 -77 76.5 -60.5 Q93 -44 116 -44 Q141 -44 156.5 -60.5 Q172 -77 172 -103 Q172 -122 164 -145.5 Q156 -169 144.5 -193.5 Q133 -218 119.5 -240 Q106 -262 95 -278 L54 -271 L95 -153 Q77 -146 68.5 -132 Q60 -118 60 -101 Z " />
<glyph glyph-name="Lcaron" unicode="&#x13d;" horiz-adv-x="524" d="M188 660 L188 91 L513 91 L513 0 L73 0 L73 660 L188 660 Z M339 613 Q339 637 355.5 653.5 Q372 670 395 670 Q420 670 435.5 653.5 Q451 637 451 611 Q451 592 443 568.5 Q435 545 423.5 520.5 Q412 496 398.5 474 Q385 452 374 436 L333 443 L374 561 Q356 568 347.5 582 Q339 596 339 613 Z " />
<glyph glyph-name="lcaron" unicode="&#x13e;" horiz-adv-x="324" d="M71 0 L71 711 L177 711 L177 0 L71 0 Z M232 662 Q232 686 248.5 702.5 Q265 719 288 719 Q313 719 328.5 702.5 Q344 686 344 660 Q344 641 336 617.5 Q328 594 316.5 569.5 Q305 545 291.5 523 Q278 501 267 485 L226 492 L267 610 Q249 617 240.5 631 Q232 645 232 662 Z " />
<glyph glyph-name="Ldot" unicode="&#x13f;" horiz-adv-x="524" d="M188 660 L188 91 L513 91 L513 0 L73 0 L73 660 L188 660 Z M435 337 Q435 311 418 293 Q401 275 374 275 Q346 275 329.5 293 Q313 311 313 336 Q313 362 332 379.5 Q351 397 374 397 Q400 397 417.5 379.5 Q435 362 435 337 Z " />
<glyph glyph-name="ldot" unicode="&#x140;" horiz-adv-x="333" d="M71 0 L71 711 L177 711 L177 0 L71 0 Z M341 351 Q341 325 324 307 Q307 289 280 289 Q252 289 235.5 307 Q219 325 219 350 Q219 376 238 393.5 Q257 411 280 411 Q306 411 323.5 393.5 Q341 376 341 351 Z " />
<glyph glyph-name="Lslash" unicode="&#x141;" horiz-adv-x="524" d="M-1 256 Q18 266 36.5 276 Q55 286 74 295 L74 660 L188 660 L188 343 Q226 362 262.5 381 Q299 400 337 420 L337 358 L188 282 L188 91 L514 91 L514 0 L74 0 L74 235 Q69 232 58.5 227 Q48 222 36.5 216.5 Q25 211 14.5 206 Q4 201 -1 198 L-1 256 Z " />
<glyph glyph-name="lslash" unicode="&#x142;" horiz-adv-x="235" d="M63 0 L63 264 Q43 253 24 244 Q5 235 -14 224 L-14 284 Q5 295 24 305 Q43 315 63 325 L63 711 L170 711 L170 370 L255 413 L255 350 Q234 339 212.5 328.5 Q191 318 170 307 L170 0 L63 0 Z " />
<glyph glyph-name="Nacute" unicode="&#x143;" horiz-adv-x="721" d="M73 0 L73 671 L95 671 Q112 654 146 619 Q180 584 222.5 540.5 Q265 497 311.5 449 Q358 401 400.5 357.5 Q443 314 477.5 279 Q512 244 529 227 L533 227 L533 660 L646 660 L646 -8 L626 -8 Q607 13 572.5 48.5 Q538 84 496 127 Q454 170 408 216.5 Q362 263 320 305.5 Q278 348 243.5 384 Q209 420 190 441 L187 441 L187 0 L73 0 Z M290 720 Q298 731 316 753 Q334 775 354.5 799.5 Q375 824 393 846 Q411 868 419 879 L508 845 L363 720 L290 720 Z " />
<glyph glyph-name="nacute" unicode="&#x144;" horiz-adv-x="550" d="M378 0 L378 258 Q378 309 354.5 340 Q331 371 289 371 Q265 371 243 362.5 Q221 354 204.5 336.5 Q188 319 178.5 292.5 Q169 266 169 229 L169 0 L64 0 L64 445 L142 445 Q143 441 145 432 Q147 423 149.5 413 Q152 403 154 394 Q156 385 157 381 L161 381 Q195 423 236 439 Q277 455 318 455 Q400 455 441.5 408 Q483 361 483 276 L483 0 L378 0 Z M197 521 Q204 532 220 555.5 Q236 579 253.5 605.5 Q271 632 286.5 655.5 Q302 679 310 690 L394 656 L263 521 L197 521 Z " />
<glyph glyph-name="Ncommaaccent" unicode="&#x145;" horiz-adv-x="721" d="M73 0 L73 671 L95 671 Q112 654 146 619 Q180 584 222.5 540.5 Q265 497 311.5 449 Q358 401 400.5 357.5 Q443 314 477.5 279 Q512 244 529 227 L533 227 L533 660 L646 660 L646 -8 L626 -8 Q607 13 572.5 48.5 Q538 84 496 127 Q454 170 408 216.5 Q362 263 320 305.5 Q278 348 243.5 384 Q209 420 190 441 L187 441 L187 0 L73 0 Z M312 -87 Q312 -63 328.5 -46.5 Q345 -30 368 -30 Q393 -30 408.5 -46.5 Q424 -63 424 -89 Q424 -108 416 -131.5 Q408 -155 396.5 -179.5 Q385 -204 371.5 -226 Q358 -248 347 -264 L306 -257 L347 -139 Q329 -132 320.5 -118 Q312 -104 312 -87 Z " />
<glyph glyph-name="ncommaaccent" unicode="&#x146;" horiz-adv-x="550" d="M378 0 L378 258 Q378 309 354.5 340 Q331 371 289 371 Q265 371 243 362.5 Q221 354 204.5 336.5 Q188 319 178.5 292.5 Q169 266 169 229 L169 0 L64 0 L64 445 L142 445 Q143 441 145 432 Q147 423 149.5 413 Q152 403 154 394 Q156 385 157 381 L161 381 Q195 423 236 439 Q277 455 318 455 Q400 455 441.5 408 Q483 361 483 276 L483 0 L378 0 Z M218 -96 Q218 -72 234.5 -55.5 Q251 -39 274 -39 Q299 -39 314.5 -55.5 Q330 -72 330 -98 Q330 -117 322 -140.5 Q314 -164 302.5 -188.5 Q291 -213 277.5 -235 Q264 -257 253 -273 L212 -266 L253 -148 Q235 -141 226.5 -127 Q218 -113 218 -96 Z " />
<glyph glyph-name="Ncaron" unicode="&#x147;" horiz-adv-x="721" d="M73 0 L73 671 L95 671 Q112 654 146 619 Q180 584 222.5 540.5 Q265 497 311.5 449 Q358 401 400.5 357.5 Q443 314 477.5 279 Q512 244 529 227 L533 227 L533 660 L646 660 L646 -8 L626 -8 Q607 13 572.5 48.5 Q538 84 496 127 Q454 170 408 216.5 Q362 263 320 305.5 Q278 348 243.5 384 Q209 420 190 441 L187 441 L187 0 L73 0 Z M527 871 L377 719 L358 719 L203 871 L294 871 L367 793 L435 871 L527 871 Z " />
<glyph glyph-name="ncaron" unicode="&#x148;" horiz-adv-x="550" d="M378 0 L378 258 Q378 309 354.5 340 Q331 371 289 371 Q265 371 243 362.5 Q221 354 204.5 336.5 Q188 319 178.5 292.5 Q169 266 169 229 L169 0 L64 0 L64 445 L142 445 Q143 441 145 432 Q147 423 149.5 413 Q152 403 154 394 Q156 385 157 381 L161 381 Q195 423 236 439 Q277 455 318 455 Q400 455 441.5 408 Q483 361 483 276 L483 0 L378 0 Z M416 679 L271 516 L252 516 L102 679 L190 679 L259 596 L324 679 L416 679 Z " />
<glyph glyph-name="napostrophe" unicode="&#x149;" horiz-adv-x="581" d="M409 0 L409 258 Q409 309 385.5 340 Q362 371 320 371 Q296 371 274 362.5 Q252 354 235.5 336.5 Q219 319 209.5 292.5 Q200 266 200 229 L200 0 L95 0 L95 445 L173 445 Q174 441 176 432 Q178 423 180.5 413 Q183 403 185 394 Q187 385 188 381 L192 381 Q226 423 267 439 Q308 455 349 455 Q431 455 472.5 408 Q514 361 514 276 L514 0 L409 0 Z M1 642 Q1 666 17.5 682.5 Q34 699 57 699 Q82 699 97.5 682.5 Q113 666 113 640 Q113 621 105 597.5 Q97 574 85.5 549.5 Q74 525 60.5 503 Q47 481 36 465 L-5 472 L36 590 Q18 597 9.5 611 Q1 625 1 642 Z " />
<glyph glyph-name="Eng" unicode="&#x14a;" horiz-adv-x="721" d="M73 0 L73 676 L95 676 L529 208 L533 208 L533 660 L646 660 L646 34 Q646 -38 632.5 -87.5 Q619 -137 594 -168 Q569 -199 533 -214 Q497 -229 452 -231 Q442 -211 432 -190 Q422 -169 413 -149 Q449 -147 473 -135.5 Q497 -124 511.5 -104.5 Q526 -85 531.5 -58.5 Q537 -32 537 0 L537 66 L190 459 L187 459 L187 0 L73 0 Z " />
<glyph glyph-name="eng" unicode="&#x14b;" horiz-adv-x="550" d="M485 11 Q485 -54 472 -98.5 Q459 -143 434.5 -171.5 Q410 -200 374.5 -213.5 Q339 -227 294 -230 L258 -149 Q294 -147 317.5 -136 Q341 -125 354.5 -106 Q368 -87 373 -61 Q378 -35 378 -3 Q378 19 378 58 Q378 97 378.5 136.5 Q379 176 379 208.5 Q379 241 379 252 Q379 303 355 336.5 Q331 370 289 370 Q265 370 243.5 361.5 Q222 353 205.5 336 Q189 319 179.5 292.5 Q170 266 170 229 L170 0 L63 0 L63 445 L146 445 Q146 441 148 432 Q150 423 152 413 Q154 403 156 394 Q158 385 158 381 L162 381 Q196 423 236.5 439 Q277 455 318 455 Q401 455 443 408 Q485 361 485 276 L485 11 Z " />
<glyph glyph-name="Omacron" unicode="&#x14c;" horiz-adv-x="794" d="M397 -11 Q315 -11 250.5 15 Q186 41 141 87 Q96 133 72 195.5 Q48 258 48 330 Q48 402 75 464 Q102 526 149 572.5 Q196 619 260 645.5 Q324 672 398 672 Q474 672 538 645.5 Q602 619 648 572.5 Q694 526 719.5 464 Q745 402 745 330 Q745 258 719.5 195.5 Q694 133 647.5 87 Q601 41 537 15 Q473 -11 397 -11 Z M398 575 Q346 575 303 556 Q260 537 229 504 Q198 471 181 426 Q164 381 164 330 Q164 277 180.5 232 Q197 187 227 154 Q257 121 300.5 102 Q344 83 398 83 Q451 83 494 102.5 Q537 122 567.5 155.5 Q598 189 614.5 234 Q631 279 631 330 Q631 381 614.5 425.5 Q598 470 567 503 Q536 536 493 555.5 Q450 575 398 575 Z M240 827 L543 827 L543 755 L240 755 L240 827 Z " />
<glyph glyph-name="omacron" unicode="&#x14d;" horiz-adv-x="565" d="M283 457 Q337 457 381.5 439 Q426 421 457.5 389.5 Q489 358 506.5 315 Q524 272 524 223 Q524 173 506.5 130.5 Q489 88 457 56.5 Q425 25 380.5 7.5 Q336 -10 283 -10 Q226 -10 181 8 Q136 26 104.5 57 Q73 88 56.5 130.5 Q40 173 40 223 Q40 272 58.5 315 Q77 358 109 389.5 Q141 421 185.5 439 Q230 457 283 457 Z M284 372 Q252 372 226.5 360.5 Q201 349 183 328.5 Q165 308 155.5 281.5 Q146 255 146 225 Q146 193 155 165.5 Q164 138 182 118 Q200 98 225.5 86.5 Q251 75 284 75 Q316 75 341.5 87 Q367 99 385 119 Q403 139 412.5 166.5 Q422 194 422 225 Q422 255 412 281.5 Q402 308 384 328.5 Q366 349 340.5 360.5 Q315 372 284 372 Z M136 617 L428 617 L428 547 L136 547 L136 617 Z " />
<glyph glyph-name="Obreve" unicode="&#x14e;" horiz-adv-x="794" d="M397 -11 Q315 -11 250.5 15 Q186 41 141 87 Q96 133 72 195.5 Q48 258 48 330 Q48 402 75 464 Q102 526 149 572.5 Q196 619 260 645.5 Q324 672 398 672 Q474 672 538 645.5 Q602 619 648 572.5 Q694 526 719.5 464 Q745 402 745 330 Q745 258 719.5 195.5 Q694 133 647.5 87 Q601 41 537 15 Q473 -11 397 -11 Z M398 575 Q346 575 303 556 Q260 537 229 504 Q198 471 181 426 Q164 381 164 330 Q164 277 180.5 232 Q197 187 227 154 Q257 121 300.5 102 Q344 83 398 83 Q451 83 494 102.5 Q537 122 567.5 155.5 Q598 189 614.5 234 Q631 279 631 330 Q631 381 614.5 425.5 Q598 470 567 503 Q536 536 493 555.5 Q450 575 398 575 Z M397 716 Q362 716 335.5 728.5 Q309 741 291.5 762 Q274 783 264.5 810 Q255 837 254 866 L315 866 Q316 824 338.5 799.5 Q361 775 398 775 Q418 775 433 782.5 Q448 790 458 803 Q468 816 473.5 832 Q479 848 481 866 L541 866 Q539 839 530.5 812 Q522 785 504.5 764 Q487 743 460.5 729.5 Q434 716 397 716 Z " />
<glyph glyph-name="obreve" unicode="&#x14f;" horiz-adv-x="565" d="M283 457 Q337 457 381.5 439 Q426 421 457.5 389.5 Q489 358 506.5 315 Q524 272 524 223 Q524 173 506.5 130.5 Q489 88 457 56.5 Q425 25 380.5 7.5 Q336 -10 283 -10 Q226 -10 181 8 Q136 26 104.5 57 Q73 88 56.5 130.5 Q40 173 40 223 Q40 272 58.5 315 Q77 358 109 389.5 Q141 421 185.5 439 Q230 457 283 457 Z M284 372 Q252 372 226.5 360.5 Q201 349 183 328.5 Q165 308 155.5 281.5 Q146 255 146 225 Q146 193 155 165.5 Q164 138 182 118 Q200 98 225.5 86.5 Q251 75 284 75 Q316 75 341.5 87 Q367 99 385 119 Q403 139 412.5 166.5 Q422 194 422 225 Q422 255 412 281.5 Q402 308 384 328.5 Q366 349 340.5 360.5 Q315 372 284 372 Z M283 524 Q248 524 222 536.5 Q196 549 178 570 Q160 591 150.5 618 Q141 645 140 675 L201 675 Q203 633 225 608.5 Q247 584 284 584 Q325 584 344.5 611.5 Q364 639 367 675 L427 675 Q425 648 416.5 621 Q408 594 390.5 572.5 Q373 551 346.5 537.5 Q320 524 283 524 Z " />
<glyph glyph-name="Ohungarumlaut" unicode="&#x150;" horiz-adv-x="794" d="M397 -11 Q315 -11 250.5 15 Q186 41 141 87 Q96 133 72 195.5 Q48 258 48 330 Q48 402 75 464 Q102 526 149 572.5 Q196 619 260 645.5 Q324 672 398 672 Q474 672 538 645.5 Q602 619 648 572.5 Q694 526 719.5 464 Q745 402 745 330 Q745 258 719.5 195.5 Q694 133 647.5 87 Q601 41 537 15 Q473 -11 397 -11 Z M398 575 Q346 575 303 556 Q260 537 229 504 Q198 471 181 426 Q164 381 164 330 Q164 277 180.5 232 Q197 187 227 154 Q257 121 300.5 102 Q344 83 398 83 Q451 83 494 102.5 Q537 122 567.5 155.5 Q598 189 614.5 234 Q631 279 631 330 Q631 381 614.5 425.5 Q598 470 567 503 Q536 536 493 555.5 Q450 575 398 575 Z M412 723 Q420 734 438 756 Q456 778 476 802.5 Q496 827 514 849 Q532 871 540 882 Q546 879 558.5 874.5 Q571 870 584.5 865 Q598 860 610.5 855.5 Q623 851 629 848 Q620 840 600 822.5 Q580 805 557.5 785.5 Q535 766 514.5 748.5 Q494 731 485 723 L412 723 Z M272 723 Q280 734 298 756 Q316 778 336 802.5 Q356 827 374 849 Q392 871 400 882 Q406 879 418.5 874.5 Q431 870 444.5 865 Q458 860 470.5 855.5 Q483 851 489 848 Q480 840 459.5 822.5 Q439 805 417 785.5 Q395 766 374.5 748.5 Q354 731 345 723 L272 723 Z " />
<glyph glyph-name="ohungarumlaut" unicode="&#x151;" horiz-adv-x="565" d="M283 457 Q337 457 381.5 439 Q426 421 457.5 389.5 Q489 358 506.5 315 Q524 272 524 223 Q524 173 506.5 130.5 Q489 88 457 56.5 Q425 25 380.5 7.5 Q336 -10 283 -10 Q226 -10 181 8 Q136 26 104.5 57 Q73 88 56.5 130.5 Q40 173 40 223 Q40 272 58.5 315 Q77 358 109 389.5 Q141 421 185.5 439 Q230 457 283 457 Z M284 372 Q252 372 226.5 360.5 Q201 349 183 328.5 Q165 308 155.5 281.5 Q146 255 146 225 Q146 193 155 165.5 Q164 138 182 118 Q200 98 225.5 86.5 Q251 75 284 75 Q316 75 341.5 87 Q367 99 385 119 Q403 139 412.5 166.5 Q422 194 422 225 Q422 255 412 281.5 Q402 308 384 328.5 Q366 349 340.5 360.5 Q315 372 284 372 Z M291 527 L403 696 L487 662 L355 527 L291 527 Z M167 527 Q174 538 190 561.5 Q206 585 223.5 611 Q241 637 256.5 660.5 Q272 684 280 696 L364 662 L232 527 L167 527 Z " />
<glyph glyph-name="Racute" unicode="&#x154;" horiz-adv-x="617" d="M324 659 Q369 659 411.5 645.5 Q454 632 487.5 605 Q521 578 541 538.5 Q561 499 561 447 Q561 417 552 387.5 Q543 358 523.5 331.5 Q504 305 474 283 Q444 261 403 246 L600 0 L465 0 Q455 11 438.5 33 Q422 55 402 82.5 Q382 110 360.5 139.5 Q339 169 319 196.5 Q299 224 282.5 245.5 Q266 267 257 279 L257 293 Q306 296 342 310 Q378 324 401 344 Q424 364 435.5 389 Q447 414 447 439 Q447 501 408 535.5 Q369 570 306 570 L187 570 L187 0 L72 0 L72 659 L324 659 Z M206 723 Q214 734 232 756 Q250 778 270.5 802.5 Q291 827 309 849 Q327 871 335 882 L424 848 L279 723 L206 723 Z " />
<glyph glyph-name="racute" unicode="&#x155;" horiz-adv-x="352" d="M287 362 Q233 362 200.5 319.5 Q168 277 168 205 L168 0 L63 0 L63 444 L140 444 L155 370 Q156 369 159 369 Q180 412 216.5 434 Q253 456 298 456 Q309 456 321.5 454.5 Q334 453 345 448 L345 351 Q331 356 316 359 Q301 362 287 362 Z M83 521 Q90 532 106 555.5 Q122 579 139.5 605.5 Q157 632 172.5 655.5 Q188 679 196 690 L280 656 L149 521 L83 521 Z " />
<glyph glyph-name="Rcommaaccent" unicode="&#x156;" horiz-adv-x="617" d="M324 659 Q369 659 411.5 645.5 Q454 632 487.5 605 Q521 578 541 538.5 Q561 499 561 447 Q561 417 552 387.5 Q543 358 523.5 331.5 Q504 305 474 283 Q444 261 403 246 L600 0 L465 0 Q455 11 438.5 33 Q422 55 402 82.5 Q382 110 360.5 139.5 Q339 169 319 196.5 Q299 224 282.5 245.5 Q266 267 257 279 L257 293 Q306 296 342 310 Q378 324 401 344 Q424 364 435.5 389 Q447 414 447 439 Q447 501 408 535.5 Q369 570 306 570 L187 570 L187 0 L72 0 L72 659 L324 659 Z M245 -84 Q245 -60 261.5 -43.5 Q278 -27 301 -27 Q326 -27 341.5 -43.5 Q357 -60 357 -86 Q357 -105 349 -128.5 Q341 -152 329.5 -176.5 Q318 -201 304.5 -223 Q291 -245 280 -261 L239 -254 L280 -136 Q262 -129 253.5 -115 Q245 -101 245 -84 Z " />
<glyph glyph-name="rcommaaccent" unicode="&#x157;" horiz-adv-x="352" d="M287 362 Q233 362 200.5 319.5 Q168 277 168 205 L168 0 L63 0 L63 444 L140 444 L155 370 Q156 369 159 369 Q180 412 216.5 434 Q253 456 298 456 Q309 456 321.5 454.5 Q334 453 345 448 L345 351 Q331 356 316 359 Q301 362 287 362 Z M57 -100 Q57 -76 73.5 -59.5 Q90 -43 113 -43 Q138 -43 153.5 -59.5 Q169 -76 169 -102 Q169 -121 161 -144.5 Q153 -168 141.5 -192.5 Q130 -217 116.5 -239 Q103 -261 92 -277 L51 -270 L92 -152 Q74 -145 65.5 -131 Q57 -117 57 -100 Z " />
<glyph glyph-name="Rcaron" unicode="&#x158;" horiz-adv-x="617" d="M324 659 Q369 659 411.5 645.5 Q454 632 487.5 605 Q521 578 541 538.5 Q561 499 561 447 Q561 417 552 387.5 Q543 358 523.5 331.5 Q504 305 474 283 Q444 261 403 246 L600 0 L465 0 Q455 11 438.5 33 Q422 55 402 82.5 Q382 110 360.5 139.5 Q339 169 319 196.5 Q299 224 282.5 245.5 Q266 267 257 279 L257 293 Q306 296 342 310 Q378 324 401 344 Q424 364 435.5 389 Q447 414 447 439 Q447 501 408 535.5 Q369 570 306 570 L187 570 L187 0 L72 0 L72 659 L324 659 Z M448 871 L298 719 L279 719 L124 871 L215 871 L288 793 L356 871 L448 871 Z " />
<glyph glyph-name="rcaron" unicode="&#x159;" horiz-adv-x="352" d="M287 362 Q233 362 200.5 319.5 Q168 277 168 205 L168 0 L63 0 L63 444 L140 444 L155 370 Q156 369 159 369 Q180 412 216.5 434 Q253 456 298 456 Q309 456 321.5 454.5 Q334 453 345 448 L345 351 Q331 356 316 359 Q301 362 287 362 Z M322 679 L177 516 L158 516 L8 679 L96 679 L165 596 L230 679 L322 679 Z " />
<glyph glyph-name="Sacute" unicode="&#x15a;" horiz-adv-x="518" d="M33 149 Q84 112 139 96.5 Q194 81 234 81 Q262 81 286.5 86 Q311 91 329.5 102.5 Q348 114 358.5 131.5 Q369 149 369 174 Q369 212 345 237 Q321 262 285 281.5 Q249 301 206.5 319 Q164 337 128 360 Q92 383 68 415 Q44 447 44 496 Q44 538 61 571 Q78 604 107 626.5 Q136 649 174.5 661 Q213 673 256 673 Q299 673 346.5 664 Q394 655 442 631 L442 529 Q403 555 356 568 Q309 581 274 581 Q252 581 231 576.5 Q210 572 194 562 Q178 552 168.5 536 Q159 520 159 498 Q159 470 183 451 Q207 432 243 415 Q279 398 321.5 379.5 Q364 361 400 335 Q436 309 460 271.5 Q484 234 484 179 Q484 91 422 40 Q360 -11 249 -11 Q225 -11 197.5 -8.5 Q170 -6 142 0 Q114 6 86 16.5 Q58 27 33 42 L33 149 Z M178 723 Q186 734 204 756 Q222 778 242.5 802.5 Q263 827 281 849 Q299 871 307 882 L396 848 L251 723 L178 723 Z " />
<glyph glyph-name="sacute" unicode="&#x15b;" horiz-adv-x="387" d="M23 119 Q59 92 100.5 79 Q142 66 171 66 Q207 66 231 78 Q255 90 255 119 Q255 140 239 154.5 Q223 169 198.5 181.5 Q174 194 145.5 206 Q117 218 92.5 234.5 Q68 251 52 273.5 Q36 296 36 330 Q36 361 48.5 384.5 Q61 408 82.5 424 Q104 440 133 448 Q162 456 195 456 Q222 456 259.5 449.5 Q297 443 335 426 L335 340 Q303 358 269.5 367.5 Q236 377 210 377 Q180 377 160 366.5 Q140 356 140 329 Q140 312 156 301 Q172 290 196 279 Q220 268 248.5 256.5 Q277 245 301 227.5 Q325 210 341 185 Q357 160 357 124 Q357 66 312 28 Q267 -10 183 -10 Q148 -10 104 -1.5 Q60 7 23 28 L23 119 Z M122 521 Q129 532 145 555.5 Q161 579 178.5 605.5 Q196 632 211.5 655.5 Q227 679 235 690 L319 656 L188 521 L122 521 Z " />
<glyph glyph-name="Scircumflex" unicode="&#x15c;" horiz-adv-x="518" d="M33 149 Q84 112 139 96.5 Q194 81 234 81 Q262 81 286.5 86 Q311 91 329.5 102.5 Q348 114 358.5 131.5 Q369 149 369 174 Q369 212 345 237 Q321 262 285 281.5 Q249 301 206.5 319 Q164 337 128 360 Q92 383 68 415 Q44 447 44 496 Q44 538 61 571 Q78 604 107 626.5 Q136 649 174.5 661 Q213 673 256 673 Q299 673 346.5 664 Q394 655 442 631 L442 529 Q403 555 356 568 Q309 581 274 581 Q252 581 231 576.5 Q210 572 194 562 Q178 552 168.5 536 Q159 520 159 498 Q159 470 183 451 Q207 432 243 415 Q279 398 321.5 379.5 Q364 361 400 335 Q436 309 460 271.5 Q484 234 484 179 Q484 91 422 40 Q360 -11 249 -11 Q225 -11 197.5 -8.5 Q170 -6 142 0 Q114 6 86 16.5 Q58 27 33 42 L33 149 Z M332 721 L264 795 L192 721 L101 721 L257 874 L276 874 L426 721 L332 721 Z " />
<glyph glyph-name="scircumflex" unicode="&#x15d;" horiz-adv-x="387" d="M23 119 Q59 92 100.5 79 Q142 66 171 66 Q207 66 231 78 Q255 90 255 119 Q255 140 239 154.5 Q223 169 198.5 181.5 Q174 194 145.5 206 Q117 218 92.5 234.5 Q68 251 52 273.5 Q36 296 36 330 Q36 361 48.5 384.5 Q61 408 82.5 424 Q104 440 133 448 Q162 456 195 456 Q222 456 259.5 449.5 Q297 443 335 426 L335 340 Q303 358 269.5 367.5 Q236 377 210 377 Q180 377 160 366.5 Q140 356 140 329 Q140 312 156 301 Q172 290 196 279 Q220 268 248.5 256.5 Q277 245 301 227.5 Q325 210 341 185 Q357 160 357 124 Q357 66 312 28 Q267 -10 183 -10 Q148 -10 104 -1.5 Q60 7 23 28 L23 119 Z M260 521 L193 602 L122 521 L36 521 L186 683 L205 683 L350 521 L260 521 Z " />
<glyph glyph-name="Scedilla" unicode="&#x15e;" horiz-adv-x="518" d="M361 -139 Q361 -157 353 -174.5 Q345 -192 329.5 -205.5 Q314 -219 290 -227.5 Q266 -236 234 -236 Q214 -236 192 -232 Q170 -228 149 -220 L149 -165 Q166 -173 187 -178 Q208 -183 230 -183 Q258 -183 274 -171 Q290 -159 290 -141 Q290 -120 272 -110.5 Q254 -101 233 -101 Q224 -101 215.5 -103 Q207 -105 199 -107 L187 -99 L227 -10 Q182 -8 130 3 Q78 14 33 42 L33 149 Q84 112 139 96.5 Q194 81 234 81 Q262 81 286.5 86 Q311 91 329.5 102.5 Q348 114 358.5 131.5 Q369 149 369 174 Q369 212 345 237 Q321 262 285 281.5 Q249 301 206.5 319 Q164 337 128 360 Q92 383 68 415 Q44 447 44 496 Q44 538 61 571 Q78 604 107 626.5 Q136 649 174.5 661 Q213 673 256 673 Q299 673 346.5 664 Q394 655 442 631 L442 529 Q403 555 356 568 Q309 581 274 581 Q252 581 231 576.5 Q210 572 194 562 Q178 552 168.5 536 Q159 520 159 498 Q159 470 183 451 Q207 432 243 415 Q279 398 321.5 379.5 Q364 361 400 335 Q436 309 460 271.5 Q484 234 484 179 Q484 95 427.5 45 Q371 -5 269 -10 L248 -54 Q279 -55 301 -63 Q323 -71 336 -83 Q349 -95 355 -109.5 Q361 -124 361 -139 Z " />
<glyph glyph-name="scedilla" unicode="&#x15f;" horiz-adv-x="387" d="M287 -136 Q287 -154 279 -171.5 Q271 -189 255.5 -202.5 Q240 -216 216 -224.5 Q192 -233 160 -233 Q140 -233 118 -229 Q96 -225 75 -217 L75 -162 Q92 -170 113 -175 Q134 -180 156 -180 Q184 -180 200 -168 Q216 -156 216 -138 Q216 -117 198 -107.5 Q180 -98 159 -98 Q150 -98 141.5 -100 Q133 -102 125 -104 L113 -96 L153 -9 Q121 -6 86.5 2.5 Q52 11 23 28 L23 119 Q59 92 100.5 79 Q142 66 171 66 Q207 66 231 78 Q255 90 255 119 Q255 140 239 154.5 Q223 169 198.5 181.5 Q174 194 145.5 206 Q117 218 92.5 234.5 Q68 251 52 273.5 Q36 296 36 330 Q36 361 48.5 384.5 Q61 408 82.5 424 Q104 440 133 448 Q162 456 195 456 Q222 456 259.5 449.5 Q297 443 335 426 L335 340 Q303 358 269.5 367.5 Q236 377 210 377 Q180 377 160 366.5 Q140 356 140 329 Q140 312 156 301 Q172 290 196 279 Q220 268 248.5 256.5 Q277 245 301 227.5 Q325 210 341 185 Q357 160 357 124 Q357 67 314.5 30 Q272 -7 194 -10 L174 -51 Q205 -52 227 -60 Q249 -68 262 -80 Q275 -92 281 -106.5 Q287 -121 287 -136 Z " />
<glyph glyph-name="Tcommaaccent" unicode="&#x162;" horiz-adv-x="545" d="M376 -136 Q376 -154 368 -171.5 Q360 -189 344.5 -202.5 Q329 -216 305 -224.5 Q281 -233 249 -233 Q229 -233 207 -229 Q185 -225 164 -217 L164 -162 Q181 -170 202 -175 Q223 -180 245 -180 Q273 -180 289 -168 Q305 -156 305 -138 Q305 -117 287 -107.5 Q269 -98 248 -98 Q239 -98 230.5 -100 Q222 -102 214 -104 L202 -96 L246 0 L215 0 L215 570 L13 570 L13 661 L531 661 L531 570 L330 570 L330 0 L288 0 L263 -51 Q294 -52 316 -60 Q338 -68 351 -80 Q364 -92 370 -106.5 Q376 -121 376 -136 Z " />
<glyph glyph-name="tcommaaccent" unicode="&#x163;" horiz-adv-x="350" d="M280 -136 Q280 -154 272 -171.5 Q264 -189 248.5 -202.5 Q233 -216 209 -224.5 Q185 -233 153 -233 Q133 -233 111 -229 Q89 -225 68 -217 L68 -162 Q85 -170 106 -175 Q127 -180 149 -180 Q177 -180 193 -168 Q209 -156 209 -138 Q209 -117 191 -107.5 Q173 -98 152 -98 Q143 -98 134.5 -100 Q126 -102 118 -104 L106 -96 L153 5 Q116 25 103.5 64.5 Q91 104 91 158 L91 365 L20 365 L20 425 L100 448 L175 586 L196 586 L196 445 L318 445 L318 365 L196 365 L196 152 Q196 116 209 96.5 Q222 77 257 77 Q271 77 292 83 Q313 89 336 103 L336 20 Q311 3 281.5 -3.5 Q252 -10 229 -10 Q205 -10 189 -6 L167 -51 Q198 -52 220 -60 Q242 -68 255 -80 Q268 -92 274 -106.5 Q280 -121 280 -136 Z " />
<glyph glyph-name="Tcaron" unicode="&#x164;" horiz-adv-x="545" d="M330 570 L330 0 L215 0 L215 570 L13 570 L13 661 L531 661 L531 570 L330 570 Z M436 871 L286 719 L267 719 L112 871 L203 871 L276 793 L344 871 L436 871 Z " />
<glyph glyph-name="tcaron" unicode="&#x165;" horiz-adv-x="381" d="M193 586 L193 445 L315 445 L315 365 L193 365 L193 152 Q193 116 206 96.5 Q219 77 254 77 Q268 77 289 83 Q310 89 333 103 L333 20 Q308 3 278.5 -3.5 Q249 -10 226 -10 Q184 -10 157 2 Q130 14 115 36 Q100 58 94 89 Q88 120 88 158 L88 365 L17 365 L17 425 L97 448 L172 586 L193 586 Z M271 677 Q271 701 287.5 717.5 Q304 734 327 734 Q352 734 367.5 717.5 Q383 701 383 675 Q383 656 375 632.5 Q367 609 355.5 584.5 Q344 560 330.5 538 Q317 516 306 500 L265 507 L306 625 Q288 632 279.5 646 Q271 660 271 677 Z " />
<glyph glyph-name="Tbar" unicode="&#x166;" horiz-adv-x="545" d="M330 570 L330 377 L481 377 L481 317 L330 317 L330 0 L215 0 L215 317 L64 317 L64 377 L215 377 L215 570 L14 570 L14 661 L531 661 L531 570 L330 570 Z " />
<glyph glyph-name="tbar" unicode="&#x167;" horiz-adv-x="353" d="M196 586 L196 445 L318 445 L318 365 L196 365 L196 291 L304 291 L304 239 L196 239 L196 181 Q196 156 197.5 136 Q199 116 205 102.5 Q211 89 223.5 82 Q236 75 257 75 Q271 75 292 81 Q313 87 336 101 L336 20 Q311 3 281.5 -3.5 Q252 -10 229 -10 Q187 -10 160 2 Q133 14 118 37.5 Q103 61 97 94.5 Q91 128 91 170 L91 239 L27 239 L27 291 L91 291 L91 365 L20 365 L20 425 L99 450 L175 586 L196 586 Z " />
<glyph glyph-name="Utilde" unicode="&#x168;" horiz-adv-x="691" d="M503 660 L617 660 L617 253 Q617 196 599.5 147.5 Q582 99 547.5 64 Q513 29 462.5 9 Q412 -11 345 -11 Q277 -11 226 8 Q175 27 141 62 Q107 97 90 145 Q73 193 73 252 L73 660 L188 660 L188 256 Q188 223 197.5 192 Q207 161 226.5 137 Q246 113 275.5 99 Q305 85 346 85 Q386 85 416 98.5 Q446 112 465 134.5 Q484 157 493.5 187 Q503 217 503 251 L503 660 Z M503 814 Q491 782 469.5 759 Q448 736 416 736 Q398 736 380.5 743.5 Q363 751 346.5 760.5 Q330 770 315 777.5 Q300 785 287 785 Q271 785 257 770 Q243 755 232 731 L195 777 Q201 792 210 806 Q219 820 230 831 Q241 842 255 849 Q269 856 285 856 Q302 856 319 848 Q336 840 352.5 830.5 Q369 821 384.5 813 Q400 805 414 805 Q432 805 445 820.5 Q458 836 470 860 L503 814 Z " />
<glyph glyph-name="utilde" unicode="&#x169;" horiz-adv-x="539" d="M168 446 L168 186 Q168 136 191.5 105.5 Q215 75 257 75 Q306 75 337.5 109 Q369 143 369 220 L369 445 L474 445 L474 0 L394 0 L378 61 L374 61 Q344 22 307.5 7 Q271 -8 231 -8 Q63 -8 63 172 L63 446 L168 446 Z M425 611 Q413 579 391.5 556 Q370 533 338 533 Q320 533 302.5 540.5 Q285 548 268.5 557.5 Q252 567 237 574.5 Q222 582 209 582 Q193 582 179 567 Q165 552 154 528 L117 574 Q123 589 132 603 Q141 617 152 628 Q163 639 177 646 Q191 653 207 653 Q224 653 241 645 Q258 637 274.5 627.5 Q291 618 306.5 610 Q322 602 336 602 Q354 602 367 617.5 Q380 633 392 657 L425 611 Z " />
<glyph glyph-name="Umacron" unicode="&#x16a;" horiz-adv-x="691" d="M503 660 L617 660 L617 253 Q617 196 599.5 147.5 Q582 99 547.5 64 Q513 29 462.5 9 Q412 -11 345 -11 Q277 -11 226 8 Q175 27 141 62 Q107 97 90 145 Q73 193 73 252 L73 660 L188 660 L188 256 Q188 223 197.5 192 Q207 161 226.5 137 Q246 113 275.5 99 Q305 85 346 85 Q386 85 416 98.5 Q446 112 465 134.5 Q484 157 493.5 187 Q503 217 503 251 L503 660 Z M195 822 L498 822 L498 750 L195 750 L195 822 Z " />
<glyph glyph-name="umacron" unicode="&#x16b;" horiz-adv-x="539" d="M168 446 L168 186 Q168 136 191.5 105.5 Q215 75 257 75 Q306 75 337.5 109 Q369 143 369 220 L369 445 L474 445 L474 0 L394 0 L378 61 L374 61 Q344 22 307.5 7 Q271 -8 231 -8 Q63 -8 63 172 L63 446 L168 446 Z M126 617 L418 617 L418 547 L126 547 L126 617 Z " />
<glyph glyph-name="Ubreve" unicode="&#x16c;" horiz-adv-x="691" d="M503 660 L617 660 L617 253 Q617 196 599.5 147.5 Q582 99 547.5 64 Q513 29 462.5 9 Q412 -11 345 -11 Q277 -11 226 8 Q175 27 141 62 Q107 97 90 145 Q73 193 73 252 L73 660 L188 660 L188 256 Q188 223 197.5 192 Q207 161 226.5 137 Q246 113 275.5 99 Q305 85 346 85 Q386 85 416 98.5 Q446 112 465 134.5 Q484 157 493.5 187 Q503 217 503 251 L503 660 Z M349 716 Q314 716 287.5 728.5 Q261 741 243.5 762 Q226 783 216.5 810 Q207 837 206 866 L267 866 Q268 824 290.5 799.5 Q313 775 350 775 Q370 775 385 782.5 Q400 790 410 803 Q420 816 425.5 832 Q431 848 433 866 L493 866 Q491 839 482.5 812 Q474 785 456.5 764 Q439 743 412.5 729.5 Q386 716 349 716 Z " />
<glyph glyph-name="ubreve" unicode="&#x16d;" horiz-adv-x="539" d="M168 446 L168 186 Q168 136 191.5 105.5 Q215 75 257 75 Q306 75 337.5 109 Q369 143 369 220 L369 445 L474 445 L474 0 L394 0 L378 61 L374 61 Q344 22 307.5 7 Q271 -8 231 -8 Q63 -8 63 172 L63 446 L168 446 Z M267 518 Q232 518 206 530.5 Q180 543 162 564 Q144 585 134.5 612 Q125 639 124 669 L185 669 Q187 627 209 602.5 Q231 578 268 578 Q309 578 328.5 605.5 Q348 633 351 669 L411 669 Q409 642 400.5 615 Q392 588 374.5 566.5 Q357 545 330.5 531.5 Q304 518 267 518 Z " />
<glyph glyph-name="Uring" unicode="&#x16e;" horiz-adv-x="691" d="M503 660 L617 660 L617 253 Q617 196 599.5 147.5 Q582 99 547.5 64 Q513 29 462.5 9 Q412 -11 345 -11 Q277 -11 226 8 Q175 27 141 62 Q107 97 90 145 Q73 193 73 252 L73 660 L188 660 L188 256 Q188 223 197.5 192 Q207 161 226.5 137 Q246 113 275.5 99 Q305 85 346 85 Q386 85 416 98.5 Q446 112 465 134.5 Q484 157 493.5 187 Q503 217 503 251 L503 660 Z M348 716 Q300 716 271.5 745 Q243 774 243 817 Q243 839 251 858.5 Q259 878 273.5 892 Q288 906 307 914.5 Q326 923 348 923 Q395 923 425.5 892.5 Q456 862 456 817 Q456 774 425 745 Q394 716 348 716 Z M348 870 Q328 870 314 854 Q300 838 300 817 Q300 797 313 783 Q326 769 348 769 Q371 769 384.5 783 Q398 797 398 817 Q398 838 384.5 854 Q371 870 348 870 Z " />
</font>
</svg>
