<?xml version="1.0" encoding="UTF-8"?>
<svg xmlns="http://www.w3.org/2000/svg" xmlns:xlink="http://www.w3.org/1999/xlink" version="1.2" >
<font id="PFBagueSansPro-Bold">
<font-face  font-family="PF Bague Sans Pro" units-per-em="1000" ascent="750" descent="-250" font-style="normal" font-weight="700" font-stretch="normal" cap-height="659" x-height="445" underline-position="-85" underline-thickness="70" />
<missing-glyph  horiz-adv-x="455" d="M5 699 L448 699 L448 0 L5 0 L5 699 Z M226 291 Q194 232 161 174.5 Q128 117 95 58 L357 58 Q324 117 291 174.5 Q258 232 226 291 Z M95 639 Q128 581 160.5 523 Q193 465 226 406 Q258 465 291 523 Q324 581 357 639 L95 639 Z M389 122 L389 575 Q357 518 325.5 462 Q294 406 262 349 L389 122 Z M63 575 L63 122 Q95 179 127 235.5 Q159 292 191 349 L63 575 Z " />
<glyph glyph-name="NULL" d="" />
<glyph glyph-name="nonmarkingreturn" unicode="&#xd;" horiz-adv-x="240" d="" />
<glyph glyph-name="space" unicode="&#x20;" horiz-adv-x="240" d="" />
<glyph glyph-name="percent" unicode="&#x25;" horiz-adv-x="797" d="M197 -27 L113 -27 L591 684 L675 684 L197 -27 Z M205 682 Q244 682 275 669 Q306 656 328 634 Q350 612 362 582.5 Q374 553 374 519 Q374 485 362 455.5 Q350 426 327.5 403.5 Q305 381 274 368 Q243 355 205 355 Q165 355 133.5 367.5 Q102 380 80 402 Q58 424 46.5 454 Q35 484 35 519 Q35 553 47.5 582.5 Q60 612 82.5 634 Q105 656 136 669 Q167 682 205 682 Z M206 597 Q173 597 153 574 Q133 551 133 519 Q133 484 152 461 Q171 438 206 438 Q238 438 258 461.5 Q278 485 278 519 Q278 551 258 574 Q238 597 206 597 Z M591 316 Q630 316 661 303 Q692 290 714 268 Q736 246 748 216.5 Q760 187 760 153 Q760 119 748 89.5 Q736 60 713.5 38 Q691 16 660 3 Q629 -10 591 -10 Q551 -10 519.5 2 Q488 14 466 36 Q444 58 432.5 87.5 Q421 117 421 152 Q421 186 433 215.5 Q445 245 467.5 267.5 Q490 290 521.5 303 Q553 316 591 316 Z M592 232 Q560 232 540 208.5 Q520 185 520 153 Q520 118 538.5 95 Q557 72 592 72 Q625 72 645 95 Q665 118 665 153 Q665 185 644.5 208.5 Q624 232 592 232 Z " />
<glyph glyph-name="ampersand" unicode="&#x26;" horiz-adv-x="713" d="M619 -63 Q538 -18 464 36 Q424 8 377 -8 Q330 -24 272 -24 Q167 -24 109.5 24 Q52 72 52 158 Q52 182 59.5 209.5 Q67 237 83.5 263 Q100 289 125 312.5 Q150 336 185 353 Q156 420 156 473 Q156 562 212 614.5 Q268 667 368 667 Q406 667 447 658.5 Q488 650 526 630 Q524 605 522 580 Q520 555 518 529 Q489 543 451.5 553.5 Q414 564 383 564 Q334 564 309.5 538.5 Q285 513 285 470 Q285 407 334 331 Q383 255 467 179 Q497 218 519.5 270 Q542 322 558 382 Q581 368 603.5 353.5 Q626 339 649 324 Q633 268 608.5 213.5 Q584 159 547 112 Q621 54 711 7 L619 -63 Z M288 73 Q315 73 338 81 Q361 89 380 103 Q338 141 301.5 181 Q265 221 239 262 Q211 248 194 222.5 Q177 197 177 171 Q177 124 208.5 98.5 Q240 73 288 73 Z " />
<glyph glyph-name="quotesingle" unicode="&#x27;" horiz-adv-x="219" d="M60 447 L60 683 L159 683 L159 447 L60 447 Z " />
<glyph glyph-name="parenleft" unicode="&#x28;" horiz-adv-x="314" d="M302 705 Q176 511 176 300 Q176 197 207 96.5 Q238 -4 302 -101 L226 -137 Q186 -90 155 -36.5 Q124 17 103 73.5 Q82 130 71.5 187.5 Q61 245 61 300 Q61 414 104 528 Q147 642 227 735 L302 705 Z " />
<glyph glyph-name="parenright" unicode="&#x29;" horiz-adv-x="314" d="M95 735 Q175 642 218.5 528 Q262 414 262 300 Q262 245 251 187.5 Q240 130 219 73.5 Q198 17 167 -36.5 Q136 -90 96 -137 L21 -101 Q84 -4 115.5 96.5 Q147 197 147 300 Q147 402 114.5 505.5 Q82 609 20 705 L95 735 Z " />
<glyph glyph-name="asterisk" unicode="&#x2a;" horiz-adv-x="452" d="M338 400 L254 467 L268 358 L181 358 L194 466 L109 399 L64 477 Q90 487 115 496.5 Q140 506 166 515 L64 556 Q75 576 86 595 Q97 614 108 634 Q129 617 150 600 Q171 583 192 566 Q188 593 185.5 619.5 Q183 646 179 674 L268 674 L253 567 L338 633 Q349 613 360 594 Q371 575 382 556 L283 517 L382 478 L338 400 Z " />
<glyph glyph-name="plus" unicode="&#x2b;" horiz-adv-x="572" d="M327 85 L243 85 L243 252 L80 252 L80 333 L243 333 L243 497 L327 497 L327 333 L489 333 L489 252 L327 252 L327 85 Z " />
<glyph glyph-name="comma" unicode="&#x2c;" horiz-adv-x="239" d="M45 61 Q45 92 66 113 Q87 134 117 134 Q149 134 169 112.5 Q189 91 189 59 Q189 35 179 5.5 Q169 -24 154 -54.5 Q139 -85 121.5 -113 Q104 -141 88 -161 L35 -154 L84 -2 Q64 6 54.5 23.5 Q45 41 45 61 Z " />
<glyph glyph-name="hyphen" unicode="&#x2d;" horiz-adv-x="374" d="M53 290 L320 290 L320 201 L53 201 L53 290 Z " />
<glyph glyph-name="period" unicode="&#x2e;" horiz-adv-x="243" d="M190 61 Q190 32 169 11 Q148 -10 120 -10 Q90 -10 69 11 Q48 32 48 61 Q48 92 69 113 Q90 134 120 134 Q149 134 169.5 113 Q190 92 190 61 Z " />
<glyph glyph-name="slash" unicode="&#x2f;" horiz-adv-x="343" d="M-16 -90 Q54 104 124.5 296 Q195 488 266 683 L365 683 Q293 488 222.5 296 Q152 104 80 -90 L-16 -90 Z " />
<glyph glyph-name="zero" unicode="0" horiz-adv-x="572" d="M286 672 Q364 672 414 640.5 Q464 609 493 559.5 Q522 510 533.5 449 Q545 388 545 330 Q545 271 533 211 Q521 151 491 101.5 Q461 52 410.5 21 Q360 -10 284 -10 Q208 -10 158 20 Q108 50 78.5 98 Q49 146 37 207 Q25 268 25 330 Q25 389 37 449.5 Q49 510 78.5 559.5 Q108 609 158.5 640.5 Q209 672 286 672 Z M286 563 Q246 563 222 540.5 Q198 518 184.5 483.5 Q171 449 166.5 408.5 Q162 368 162 331 Q162 292 166.5 250.5 Q171 209 184.5 175 Q198 141 222 119.5 Q246 98 286 98 Q325 98 348.5 120 Q372 142 385.5 175.5 Q399 209 403.5 250.5 Q408 292 408 331 Q408 370 403.5 411 Q399 452 385.5 485.5 Q372 519 348.5 541 Q325 563 286 563 Z " />
<glyph glyph-name="one" unicode="1" horiz-adv-x="572" d="M396 0 L255 0 L255 472 L101 404 L101 529 L377 667 L396 667 L396 0 Z " />
<glyph glyph-name="two" unicode="2" horiz-adv-x="572" d="M42 13 Q44 75 58.5 121 Q73 167 98 202 Q123 237 157 264.5 Q191 292 231 318 Q256 335 282.5 352.5 Q309 370 331 389.5 Q353 409 366.5 431.5 Q380 454 380 481 Q380 526 350.5 547.5 Q321 569 280 569 Q235 569 208 541 Q181 513 181 466 Q181 447 188 418 L64 440 Q61 454 60 464 Q59 474 59 487 Q59 530 78 565 Q97 600 128.5 624.5 Q160 649 201 662.5 Q242 676 286 676 Q332 676 373.5 664 Q415 652 446.5 628 Q478 604 497 568 Q516 532 516 484 Q516 452 503.5 423 Q491 394 471 368.5 Q451 343 425 321.5 Q399 300 372 282 Q344 263 314 244.5 Q284 226 258 204.5 Q232 183 213 157.5 Q194 132 188 100 L520 100 L520 0 L60 0 L42 13 Z " />
<glyph glyph-name="three" unicode="3" horiz-adv-x="572" d="M145 349 L307 556 Q307 557 306.5 558 Q306 559 306 560 L54 560 L54 659 L507 659 L507 640 L327 421 Q419 401 461.5 346.5 Q504 292 504 214 Q504 165 485 124 Q466 83 431.5 53.5 Q397 24 349.5 7.5 Q302 -9 245 -9 Q195 -9 143.5 0.5 Q92 10 35 42 L35 162 Q82 122 131 108.5 Q180 95 223 95 Q295 95 335 130 Q375 165 375 219 Q375 252 361.5 274.5 Q348 297 326 311 Q304 325 276 331 Q248 337 220 337 Q204 337 188.5 335 Q173 333 159 330 L145 349 Z " />
<glyph glyph-name="four" unicode="4" horiz-adv-x="572" d="M483 447 L483 248 L553 248 L553 149 L483 149 L483 0 L350 0 L350 149 L5 149 L5 165 L305 660 L449 660 L193 248 L350 248 L350 338 L419 447 L483 447 Z " />
<glyph glyph-name="five" unicode="5" horiz-adv-x="572" d="M293 427 Q339 427 381.5 414 Q424 401 456 374.5 Q488 348 507.5 308 Q527 268 527 214 Q527 164 507.5 123 Q488 82 453.5 52.5 Q419 23 371.5 7 Q324 -9 267 -9 Q204 -9 154.5 3.5 Q105 16 59 42 L59 163 Q90 133 141 114 Q192 95 246 95 Q315 95 356.5 128.5 Q398 162 398 217 Q398 248 386.5 270 Q375 292 354.5 306 Q334 320 307 326.5 Q280 333 250 333 Q215 333 176.5 325 Q138 317 101 298 L83 307 L128 660 L497 660 L497 561 L226 561 Q221 524 216.5 487.5 Q212 451 207 414 Q228 422 251.5 424.5 Q275 427 293 427 Z " />
<glyph glyph-name="six" unicode="6" horiz-adv-x="572" d="M406 659 L244 404 Q244 402 246 400 Q264 408 285 411.5 Q306 415 325 415 Q373 415 411.5 399 Q450 383 477.5 355.5 Q505 328 520 290 Q535 252 535 208 Q535 159 517 119 Q499 79 466 50.5 Q433 22 387.5 6 Q342 -10 287 -10 Q231 -10 185 5 Q139 20 106 48 Q73 76 54.5 117 Q36 158 36 210 Q36 255 51 299.5 Q66 344 87 378 L260 659 L406 659 Z M287 326 Q262 326 240.5 317.5 Q219 309 203 294 Q187 279 178 258 Q169 237 169 212 Q169 163 199.5 130 Q230 97 287 97 Q341 97 372.5 129.5 Q404 162 404 212 Q404 236 396 256.5 Q388 277 372.5 292.5 Q357 308 335.5 317 Q314 326 287 326 Z " />
<glyph glyph-name="seven" unicode="7" horiz-adv-x="572" d="M99 0 Q162 140 224 279.5 Q286 419 349 559 L61 559 L61 659 L524 659 L524 642 Q452 480 381 320.5 Q310 161 238 0 L99 0 Z " />
<glyph glyph-name="eight" unicode="8" horiz-adv-x="572" d="M387 475 Q387 515 360 540.5 Q333 566 289 566 Q246 566 219 540 Q192 514 192 475 Q192 436 219 411 Q246 386 290 386 Q332 386 359.5 411.5 Q387 437 387 475 Z M404 204 Q404 249 374 279.5 Q344 310 288 310 Q235 310 203.5 279.5 Q172 249 172 204 Q172 182 180 162.5 Q188 143 203 128 Q218 113 239.5 104.5 Q261 96 288 96 Q315 96 336.5 104.5 Q358 113 373 128 Q388 143 396 162.5 Q404 182 404 204 Z M431 351 Q485 326 510 283.5 Q535 241 535 190 Q535 145 517.5 108 Q500 71 467.5 45 Q435 19 389.5 4.5 Q344 -10 288 -10 Q230 -10 184 4 Q138 18 105.5 44 Q73 70 55.5 106 Q38 142 38 187 Q38 237 64.5 280.5 Q91 324 140 346 L141 350 Q118 362 103 378.5 Q88 395 79 413 Q70 431 66.5 450 Q63 469 63 486 Q63 528 80.5 562.5 Q98 597 128.5 621.5 Q159 646 200 659 Q241 672 288 672 Q336 672 377 658.5 Q418 645 447.5 620.5 Q477 596 493.5 562 Q510 528 510 487 Q510 448 489.5 411.5 Q469 375 431 355 L431 351 Z " />
<glyph glyph-name="nine" unicode="9" horiz-adv-x="572" d="M165 0 L328 257 Q325 260 325 261 Q306 253 285.5 249.5 Q265 246 246 246 Q199 246 160.5 262 Q122 278 95 305.5 Q68 333 53 370.5 Q38 408 38 452 Q38 501 56 541 Q74 581 106.5 610 Q139 639 184.5 655 Q230 671 286 671 Q341 671 387 656 Q433 641 466 612.5 Q499 584 517 543.5 Q535 503 535 451 Q535 403 519.5 361 Q504 319 484 284 Q442 211 399 140.5 Q356 70 311 0 L165 0 Z M285 336 Q336 336 369 366.5 Q402 397 402 448 Q402 498 372 531 Q342 564 286 564 Q232 564 200.5 531 Q169 498 169 448 Q169 401 200 368.5 Q231 336 285 336 Z " />
<glyph glyph-name="colon" unicode="&#x3a;" horiz-adv-x="257" d="M197 61 Q197 32 176 11.5 Q155 -9 126 -9 Q97 -9 75.5 11.5 Q54 32 54 61 Q54 91 75.5 112 Q97 133 126 133 Q155 133 176 112 Q197 91 197 61 Z M197 344 Q197 315 176 294 Q155 273 126 273 Q97 273 76 294 Q55 315 55 344 Q55 373 76 394 Q97 415 126 415 Q155 415 176 394 Q197 373 197 344 Z " />
<glyph glyph-name="less" unicode="&#x3c;" horiz-adv-x="572" d="M492 48 L80 281 L80 297 L492 532 L492 428 L236 290 L492 149 L492 48 Z " />
<glyph glyph-name="equal" unicode="&#x3d;" horiz-adv-x="572" d="M82 170 L82 249 L489 249 L489 170 L82 170 Z M82 342 L82 421 L489 421 L489 342 L82 342 Z " />
<glyph glyph-name="greater" unicode="&#x3e;" horiz-adv-x="572" d="M80 149 L335 291 L80 428 L80 532 L492 297 L492 281 L80 48 L80 149 Z " />
<glyph glyph-name="question" unicode="&#x3f;" horiz-adv-x="522" d="M319 496 Q319 531 292.5 555 Q266 579 215 579 Q172 579 129 565 Q86 551 54 534 L54 654 Q104 675 151 683.5 Q198 692 236 692 Q291 692 334 678 Q377 664 406 639.5 Q435 615 450.5 581.5 Q466 548 466 510 Q466 474 451 444 Q436 414 413 388.5 Q390 363 363.5 340.5 Q337 318 314 297.5 Q291 277 276 257 Q261 237 261 217 Q261 201 270 188 L161 167 Q143 204 143 231 Q143 259 156 283 Q169 307 188.5 328 Q208 349 231 368.5 Q254 388 273.5 408 Q293 428 306 449.5 Q319 471 319 496 Z M295 57 Q295 28 274.5 7.5 Q254 -13 225 -13 Q191 -13 172 7.5 Q153 28 153 57 Q153 87 173 107.5 Q193 128 225 128 Q256 128 275.5 107.5 Q295 87 295 57 Z " />
<glyph glyph-name="at" unicode="&#x40;" horiz-adv-x="921" d="M512 303 L466 303 Q450 303 435 300.5 Q420 298 408.5 291.5 Q397 285 390 274.5 Q383 264 383 249 Q383 229 397 217 Q411 205 435 205 Q474 205 493 227 Q512 249 512 283 L512 303 Z M394 131 Q363 131 340 140 Q317 149 302 163.5 Q287 178 280 196.5 Q273 215 273 235 Q273 268 287 291 Q301 314 324.5 329 Q348 344 379.5 350.5 Q411 357 447 357 L511 357 L511 368 Q511 398 492.5 414 Q474 430 431 430 Q412 430 380.5 423 Q349 416 319 399 L319 484 Q346 497 384.5 504.5 Q423 512 458 512 Q503 512 534.5 501 Q566 490 585.5 469.5 Q605 449 613.5 420 Q622 391 622 356 L622 264 Q622 234 630.5 217 Q639 200 668 200 Q710 200 732.5 238.5 Q755 277 755 334 Q755 390 736 438 Q717 486 681.5 520.5 Q646 555 594.5 574.5 Q543 594 478 594 Q408 594 350.5 571 Q293 548 251.5 508 Q210 468 187 413.5 Q164 359 164 295 Q164 231 184.5 177.5 Q205 124 243 85 Q281 46 336.5 24.5 Q392 3 462 3 Q507 3 561 16 Q615 29 672 65 L672 -25 Q645 -42 617 -53 Q589 -64 561 -70 Q533 -76 507.5 -78.5 Q482 -81 461 -81 Q369 -81 297 -52.5 Q225 -24 175 26 Q125 76 98.5 144.5 Q72 213 72 293 Q72 374 103 444.5 Q134 515 188.5 567 Q243 619 317 649 Q391 679 477 679 Q561 679 629.5 653.5 Q698 628 746 583 Q794 538 820.5 476 Q847 414 847 341 Q847 298 834.5 258 Q822 218 797.5 187 Q773 156 736.5 137.5 Q700 119 652 119 Q600 119 572 141 Q544 163 536 192 Q535 193 532 193 Q501 155 465 143 Q429 131 394 131 Z " />
<glyph glyph-name="A" unicode="A" horiz-adv-x="662" d="M457 104 L204 104 L158 0 L10 0 L323 672 L345 672 L653 0 L502 0 L457 104 Z M249 206 L413 206 L334 389 L330 389 L249 206 Z " />
<glyph glyph-name="B" unicode="B" horiz-adv-x="639" d="M479 356 Q510 345 532 327 Q554 309 567.5 287.5 Q581 266 587.5 242 Q594 218 594 194 Q594 154 579 118.5 Q564 83 536.5 57 Q509 31 470.5 15.5 Q432 0 385 0 L68 0 L68 661 L362 661 Q405 661 440.5 649 Q476 637 501.5 615.5 Q527 594 541 563.5 Q555 533 555 496 Q555 458 536 421 Q517 384 479 360 L479 356 Z M451 206 Q451 247 421.5 270.5 Q392 294 341 294 L213 294 L213 115 L348 115 Q380 115 400 124 Q420 133 431.5 146.5 Q443 160 447 176 Q451 192 451 206 Z M213 400 L324 400 Q337 400 352.5 402.5 Q368 405 382 413 Q396 421 405.5 435.5 Q415 450 415 473 Q415 507 393 528 Q371 549 329 549 L213 549 L213 400 Z " />
<glyph glyph-name="C" unicode="C" horiz-adv-x="622" d="M590 27 Q569 16 544 9 Q519 2 493.5 -3 Q468 -8 443.5 -10 Q419 -12 398 -12 Q312 -12 246.5 14 Q181 40 136 85.5 Q91 131 68 193 Q45 255 45 327 Q45 398 70 461 Q95 524 141.5 571 Q188 618 254 645.5 Q320 673 402 673 Q418 673 439.5 671.5 Q461 670 484 667 Q507 664 529 658.5 Q551 653 569 646 L569 521 Q531 538 493.5 545 Q456 552 423 552 Q377 552 336 537.5 Q295 523 264 494.5 Q233 466 214.5 424 Q196 382 196 327 Q196 223 255.5 166 Q315 109 415 109 Q456 109 501 120 Q546 131 589 153 L590 27 Z " />
<glyph glyph-name="D" unicode="D" horiz-adv-x="697" d="M505 332 Q505 379 493.5 418.5 Q482 458 458 486 Q434 514 398 529.5 Q362 545 313 545 L215 545 L215 115 L319 115 Q360 115 394.5 128.5 Q429 142 453.5 169 Q478 196 491.5 237 Q505 278 505 332 Z M67 0 L67 660 L309 660 Q393 660 457 635 Q521 610 564 566 Q607 522 629 462 Q651 402 651 332 Q651 263 630 202.5 Q609 142 568 97 Q527 52 465.5 26 Q404 0 323 0 L67 0 Z " />
<glyph glyph-name="E" unicode="E" horiz-adv-x="569" d="M533 0 L67 0 L67 660 L514 660 L514 545 L216 545 L216 399 L483 399 L483 288 L216 288 L216 115 L533 115 L533 0 Z " />
<glyph glyph-name="F" unicode="F" horiz-adv-x="535" d="M67 0 L67 660 L519 660 L519 545 L216 545 L216 376 L481 376 L481 265 L216 265 L216 0 L67 0 Z " />
<glyph glyph-name="G" unicode="G" horiz-adv-x="680" d="M44 325 Q44 397 69 460.5 Q94 524 141 571.5 Q188 619 255 646.5 Q322 674 406 674 Q444 674 496.5 666.5 Q549 659 594 638 L594 509 Q550 532 504 541.5 Q458 551 418 551 Q370 551 329.5 535.5 Q289 520 259.5 490.5 Q230 461 213 419 Q196 377 196 323 Q196 278 208.5 238.5 Q221 199 246.5 170 Q272 141 310.5 124 Q349 107 402 107 Q423 107 448 111 Q473 115 491 122 L491 340 L623 340 L623 27 Q574 7 513 -2 Q452 -11 390 -11 Q305 -11 240 14 Q175 39 131.5 84 Q88 129 66 190.5 Q44 252 44 325 Z " />
<glyph glyph-name="H" unicode="H" horiz-adv-x="694" d="M477 0 L477 285 L216 285 L216 0 L67 0 L67 660 L216 660 L216 401 L477 401 L477 660 L626 660 L626 0 L477 0 Z " />
<glyph glyph-name="I" unicode="I" horiz-adv-x="295" d="M72 0 L72 660 L221 660 L221 0 L72 0 Z " />
<glyph glyph-name="J" unicode="J" horiz-adv-x="497" d="M148 108 Q186 108 211 119.5 Q236 131 251 152 Q266 173 272 202 Q278 231 278 266 L278 660 L429 660 L429 279 Q429 224 420 171.5 Q411 119 383.5 78.5 Q356 38 305.5 13 Q255 -12 172 -12 Q155 -12 135 -10 Q115 -8 94 -4 Q73 0 52.5 6.5 Q32 13 14 22 L14 147 Q47 128 83.5 118 Q120 108 148 108 Z " />
<glyph glyph-name="K" unicode="K" horiz-adv-x="645" d="M217 357 L457 660 L619 660 L360 342 L637 0 L465 0 L217 327 L217 0 L67 0 L67 660 L217 660 L217 357 Z " />
<glyph glyph-name="L" unicode="L" horiz-adv-x="532" d="M216 660 L216 115 L521 115 L521 0 L67 0 L67 660 L216 660 Z " />
<glyph glyph-name="M" unicode="M" horiz-adv-x="815" d="M397 122 L213 323 Q212 322 210 322 L210 0 L67 0 L67 671 L89 671 Q169 577 248.5 486.5 Q328 396 408 302 L726 671 L747 671 L747 0 L603 0 L603 322 Q602 323 599 323 L419 122 L397 122 Z " />
<glyph glyph-name="N" unicode="N" horiz-adv-x="721" d="M67 0 L67 673 L89 673 Q192 572 294.5 482 Q397 392 501 291 L505 291 L505 660 L653 660 L653 -11 L632 -11 L218 381 L215 381 L215 0 L67 0 Z " />
<glyph glyph-name="O" unicode="O" horiz-adv-x="799" d="M399 -11 Q316 -11 250.5 15 Q185 41 139 87 Q93 133 68.5 195.5 Q44 258 44 330 Q44 402 71 464 Q98 526 145.5 572.5 Q193 619 258 645.5 Q323 672 400 672 Q478 672 543 645.5 Q608 619 654.5 572.5 Q701 526 727 464 Q753 402 753 330 Q753 258 727 195.5 Q701 133 654 87 Q607 41 542 15 Q477 -11 399 -11 Z M401 549 Q354 549 316 532 Q278 515 251 485.5 Q224 456 209 416 Q194 376 194 330 Q194 283 208.5 242.5 Q223 202 250 172 Q277 142 315 125 Q353 108 401 108 Q448 108 486 125.5 Q524 143 550.5 173 Q577 203 591.5 243.5 Q606 284 606 330 Q606 375 591.5 415 Q577 455 550.5 485 Q524 515 486 532 Q448 549 401 549 Z " />
<glyph glyph-name="P" unicode="P" horiz-adv-x="590" d="M66 659 L319 659 Q383 659 430 640 Q477 621 508 590.5 Q539 560 554 520 Q569 480 569 438 Q569 390 551.5 349 Q534 308 502 277.5 Q470 247 425.5 230 Q381 213 326 213 L216 213 L216 0 L66 0 L66 659 Z M215 548 L215 324 L293 324 Q330 324 354.5 334.5 Q379 345 393.5 361 Q408 377 414 396.5 Q420 416 420 435 Q420 456 413 476.5 Q406 497 390.5 513 Q375 529 351 538.5 Q327 548 294 548 L215 548 Z " />
<glyph glyph-name="Q" unicode="Q" horiz-adv-x="804" d="M403 549 Q357 549 319 532 Q281 515 253.5 485.5 Q226 456 211 416 Q196 376 196 330 Q196 283 210.5 242.5 Q225 202 252 172 Q279 142 317 125 Q355 108 403 108 Q450 108 488 125.5 Q526 143 553 173 Q580 203 594.5 243.5 Q609 284 609 330 Q609 375 594.5 415 Q580 455 553 485 Q526 515 488 532 Q450 549 403 549 Z M402 672 Q481 672 546 645.5 Q611 619 657.5 572.5 Q704 526 729.5 464 Q755 402 755 330 Q755 278 741 230.5 Q727 183 701 143 Q675 103 637.5 72 Q600 41 554 22 Q553 21 553 19 Q603 7 652.5 -5 Q702 -17 753 -30 L707 -149 Q610 -112 514 -76 Q418 -40 321 -3 Q257 8 206 38 Q155 68 120 112 Q85 156 66 212 Q47 268 47 332 Q47 404 73.5 466 Q100 528 147.5 573.5 Q195 619 260 645.5 Q325 672 402 672 Z " />
<glyph glyph-name="R" unicode="R" horiz-adv-x="634" d="M333 659 Q381 659 425.5 645 Q470 631 503.5 604 Q537 577 557.5 536.5 Q578 496 578 443 Q578 418 571 390 Q564 362 548 335 Q532 308 507 284 Q482 260 446 243 L620 0 L450 0 L276 269 L276 283 Q318 288 347.5 302 Q377 316 395.5 335.5 Q414 355 422.5 377.5 Q431 400 431 422 Q431 479 397 512.5 Q363 546 305 546 L215 546 L215 0 L66 0 L66 659 L333 659 L333 659 Z " />
<glyph glyph-name="S" unicode="S" horiz-adv-x="538" d="M32 177 Q55 159 83 146 Q111 133 139 124 Q167 115 193.5 110.5 Q220 106 241 106 Q265 106 285.5 110 Q306 114 322 123 Q338 132 347 145.5 Q356 159 356 179 Q356 210 332.5 232 Q309 254 274 272 Q239 290 198.5 308 Q158 326 123 350.5 Q88 375 64.5 408.5 Q41 442 41 491 Q41 533 57.5 566.5 Q74 600 104 624 Q134 648 175 661 Q216 674 266 674 Q308 674 359.5 665 Q411 656 463 632 L463 504 Q445 516 422.5 526 Q400 536 377 542.5 Q354 549 331.5 553 Q309 557 290 557 Q250 557 220 542 Q190 527 190 492 Q190 469 213.5 452.5 Q237 436 272 420 Q307 404 347.5 385.5 Q388 367 423 340.5 Q458 314 481.5 275.5 Q505 237 505 182 Q505 142 490 107 Q475 72 444.5 45.5 Q414 19 368 3.5 Q322 -12 260 -12 Q234 -12 205 -9.5 Q176 -7 146 -0.5 Q116 6 86.5 16 Q57 26 32 41 L32 177 Z " />
<glyph glyph-name="T" unicode="T" horiz-adv-x="559" d="M354 546 L354 0 L205 0 L205 546 L12 546 L12 661 L546 661 L546 546 L354 546 Z " />
<glyph glyph-name="U" unicode="U" horiz-adv-x="701" d="M485 660 L633 660 L633 262 Q633 203 615 153 Q597 103 562 66.5 Q527 30 473.5 9.5 Q420 -11 350 -11 Q278 -11 224.5 9 Q171 29 136 64.5 Q101 100 84 149.5 Q67 199 67 259 L67 660 L216 660 L216 260 Q216 232 224 205 Q232 178 248.5 157 Q265 136 290.5 123.5 Q316 111 351 111 Q385 111 410.5 123 Q436 135 452.5 154.5 Q469 174 477 200 Q485 226 485 255 L485 660 Z " />
<glyph glyph-name="V" unicode="V" horiz-adv-x="641" d="M312 -12 L7 659 L166 659 L320 294 L324 294 L476 659 L632 659 L335 -12 L312 -12 Z " />
<glyph glyph-name="W" unicode="W" horiz-adv-x="960" d="M475 379 L304 -12 L282 -12 L7 659 L171 659 L309 328 L313 328 L468 667 L489 667 L649 328 L653 328 L788 659 L951 659 L676 -12 L654 -12 L479 379 L475 379 Z " />
<glyph glyph-name="X" unicode="X" horiz-adv-x="671" d="M335 317 L167 0 L7 0 L203 341 L20 659 L180 659 L335 363 L489 659 L650 659 L465 341 Q513 255 563.5 170.5 Q614 86 662 0 L501 0 L335 317 Z " />
<glyph glyph-name="Y" unicode="Y" horiz-adv-x="611" d="M314 382 L444 660 L603 660 L383 261 L383 0 L234 0 L234 261 L7 660 L168 660 L310 382 L314 382 Z " />
<glyph glyph-name="Z" unicode="Z" horiz-adv-x="577" d="M556 644 Q478 510 399.5 379 Q321 248 242 114 L547 114 L547 0 L17 0 L17 15 Q97 148 175.5 280 Q254 412 334 545 L58 545 L58 660 L556 660 L556 644 Z " />
<glyph glyph-name="bracketleft" unicode="&#x5b;" horiz-adv-x="289" d="M63 727 L257 727 L257 643 L177 643 L177 -49 L257 -49 L257 -128 L63 -128 L63 727 Z " />
<glyph glyph-name="backslash" unicode="&#x5c;" horiz-adv-x="343" d="M267 -90 Q195 104 124.5 296 Q54 488 -16 683 L81 683 Q153 488 223 296 Q293 104 365 -90 L267 -90 Z " />
<glyph glyph-name="bracketright" unicode="&#x5d;" horiz-adv-x="289" d="M229 -128 L36 -128 L36 -49 L115 -49 L115 643 L36 643 L36 727 L229 727 L229 -128 Z " />
<glyph glyph-name="asciicircum" unicode="&#x5e;" horiz-adv-x="505" d="M376 320 L250 517 L122 320 L21 320 L239 650 L260 650 L478 320 L376 320 Z " />
<glyph glyph-name="underscore" unicode="&#x5f;" horiz-adv-x="496" d="M2 -69 L493 -69 L493 -139 L2 -139 L2 -69 Z " />
<glyph glyph-name="grave" unicode="&#x60;" horiz-adv-x="507" d="M250 516 L112 652 Q136 663 160 673.5 Q184 684 209 695 L327 516 L250 516 Z " />
<glyph glyph-name="a" unicode="a" horiz-adv-x="520" d="M337 52 Q312 23 271.5 6 Q231 -11 180 -11 Q141 -11 113.5 -0.5 Q86 10 68 28 Q50 46 41.5 69 Q33 92 33 116 Q33 147 45 175.5 Q57 204 82.5 225.5 Q108 247 147 259.5 Q186 272 241 272 L328 272 L328 281 Q328 321 304 341.5 Q280 362 226 362 Q201 362 162.5 353 Q124 344 88 324 L88 425 Q121 440 168 449.5 Q215 459 259 459 Q314 459 353 445 Q392 431 416 406 Q440 381 451 345.5 Q462 310 462 267 L462 0 L350 0 L340 52 L337 52 Z M163 136 Q163 109 183 95 Q203 81 233 81 Q280 81 304 110.5 Q328 140 328 179 L328 196 L258 196 Q212 196 187.5 182 Q163 168 163 136 Z " />
<glyph glyph-name="b" unicode="b" horiz-adv-x="583" d="M184 403 Q212 434 251 446 Q290 458 324 458 Q375 458 416.5 440.5 Q458 423 487 392 Q516 361 532 318 Q548 275 548 224 Q548 174 531.5 131 Q515 88 485 56.5 Q455 25 412 7 Q369 -11 315 -11 Q297 -11 276.5 -8 Q256 -5 235 2.5 Q214 10 195 22.5 Q176 35 162 53 L158 53 L144 0 L50 0 L50 711 L181 711 L181 403 L184 403 Z M188 223 Q188 165 218.5 130.5 Q249 96 301 96 Q328 96 349.5 105.5 Q371 115 386 132.5 Q401 150 409.5 173 Q418 196 418 223 Q418 248 410 271.5 Q402 295 387 312 Q372 329 350.5 339.5 Q329 350 302 350 Q275 350 253.5 339.5 Q232 329 217.5 311.5 Q203 294 195.5 271 Q188 248 188 223 Z " />
<glyph glyph-name="c" unicode="c" horiz-adv-x="440" d="M280 459 Q309 459 341 454 Q373 449 397 439 L397 329 Q374 343 348.5 348 Q323 353 302 353 Q275 353 251 344 Q227 335 209 318.5 Q191 302 181 277.5 Q171 253 171 222 Q171 162 205.5 128.5 Q240 95 299 95 Q326 95 356.5 103 Q387 111 413 126 L413 19 Q400 12 382.5 6.5 Q365 1 345.5 -3 Q326 -7 305.5 -9 Q285 -11 267 -11 Q211 -11 167.5 6.5 Q124 24 94.5 54.5 Q65 85 50 127 Q35 169 35 218 Q35 272 53 316 Q71 360 103.5 392 Q136 424 181 441.5 Q226 459 280 459 Z " />
<glyph glyph-name="d" unicode="d" horiz-adv-x="585" d="M398 224 Q398 250 390 273 Q382 296 367 313.5 Q352 331 330 341 Q308 351 280 351 Q254 351 233 341 Q212 331 197 313.5 Q182 296 174 272.5 Q166 249 166 222 Q166 165 196.5 130.5 Q227 96 282 96 Q307 96 328.5 106 Q350 116 365.5 133 Q381 150 389.5 173.5 Q398 197 398 224 Z M402 415 Q402 489 402.5 562.5 Q403 636 403 710 L533 710 Q533 531 533.5 355 Q534 179 534 0 L432 0 L414 52 Q384 18 339 3.5 Q294 -11 255 -11 Q202 -11 161 5.5 Q120 22 92 52 Q64 82 49 124 Q34 166 34 216 Q34 269 51 313.5 Q68 358 98 390 Q128 422 169.5 440 Q211 458 261 458 Q292 458 328.5 449 Q365 440 397 412 L402 415 Z " />
<glyph glyph-name="e" unicode="e" horiz-adv-x="522" d="M265 460 Q317 460 358 443.5 Q399 427 427.5 396.5 Q456 366 471 323 Q486 280 486 227 L486 197 L169 197 Q172 167 183.5 147 Q195 127 213 115 Q231 103 254 97.5 Q277 92 303 92 Q338 92 377.5 102.5 Q417 113 464 144 L464 37 Q426 12 381 0.5 Q336 -11 289 -11 Q225 -11 177 7.5 Q129 26 97.5 58 Q66 90 50.5 133 Q35 176 35 225 Q35 274 51.5 316.5 Q68 359 98 391 Q128 423 170.5 441.5 Q213 460 265 460 Z M270 363 Q232 363 207 339.5 Q182 316 173 281 L362 281 Q354 319 331 341 Q308 363 270 363 Z " />
<glyph glyph-name="f" unicode="f" horiz-adv-x="348" d="M378 609 Q340 623 304 623 Q254 623 233.5 593.5 Q213 564 213 517 L213 446 L340 446 L340 345 L213 345 L213 0 L79 0 L79 345 L5 345 L5 432 L79 446 L79 520 Q79 619 130.5 673 Q182 727 282 727 Q305 727 328.5 724 Q352 721 378 713 L378 609 Z " />
<glyph glyph-name="g" unicode="g" horiz-adv-x="519" d="M33 -95 Q33 -61 51 -30 Q69 1 102 23 L75 28 Q46 33 33 48.5 Q20 64 20 81 L20 87 L103 170 Q78 192 67.5 222.5 Q57 253 57 285 Q57 323 72 355 Q87 387 113.5 410 Q140 433 175.5 446 Q211 459 253 459 Q275 459 297 454.5 Q319 450 337 445 L496 445 L496 383 Q478 381 460.5 378 Q443 375 426 372 Q441 351 448.5 327.5 Q456 304 456 283 Q456 251 443 221.5 Q430 192 405.5 170 Q381 148 345.5 135 Q310 122 265 122 Q245 122 219.5 126 Q194 130 173 139 L150 101 L367 77 Q432 69 461.5 41 Q491 13 491 -42 Q491 -66 478 -97.5 Q465 -129 435.5 -157.5 Q406 -186 358 -205.5 Q310 -225 240 -225 Q181 -225 141.5 -213 Q102 -201 78 -182 Q54 -163 43.5 -140 Q33 -117 33 -95 Z M241 -123 Q271 -123 292.5 -115 Q314 -107 328 -95 Q342 -83 349 -68 Q356 -53 356 -39 Q356 -21 341.5 -12.5 Q327 -4 306 -2 L177 12 Q165 -1 156.5 -18 Q148 -35 148 -54 Q148 -81 170.5 -102 Q193 -123 241 -123 Z M259 207 Q297 207 318 231.5 Q339 256 339 291 Q339 326 316.5 349.5 Q294 373 259 373 Q224 373 202 349 Q180 325 180 291 Q180 254 200.5 230.5 Q221 207 259 207 Z " />
<glyph glyph-name="h" unicode="h" horiz-adv-x="552" d="M359 0 L359 256 Q359 296 340.5 323 Q322 350 284 350 Q244 350 215.5 321 Q187 292 187 229 L187 0 L51 0 L51 711 L182 711 L182 392 Q183 392 183.5 391.5 Q184 391 185 391 Q217 430 253.5 442.5 Q290 455 329 455 Q409 455 451.5 409.5 Q494 364 494 283 L494 0 L359 0 Z " />
<glyph glyph-name="i" unicode="i" horiz-adv-x="264" d="M63 0 L63 446 L200 446 L200 0 L63 0 Z M208 594 Q208 564 187.5 541.5 Q167 519 134 519 Q99 519 79 541.5 Q59 564 59 594 Q59 610 65.5 623.5 Q72 637 82.5 647 Q93 657 106.5 662.5 Q120 668 134 668 Q166 668 187 646 Q208 624 208 594 Z " />
<glyph glyph-name="j" unicode="j" horiz-adv-x="255" d="M202 594 Q202 563 181.5 541 Q161 519 128 519 Q94 519 73.5 541 Q53 563 53 593 Q53 625 76 646 Q99 667 128 667 Q161 667 181.5 645 Q202 623 202 594 Z M-21 -224 Q-32 -197 -43 -171 Q-54 -145 -65 -119 Q-28 -116 -4 -106.5 Q20 -97 34 -79.5 Q48 -62 54 -36 Q60 -10 60 26 L60 445 L195 445 L195 17 Q195 -49 177.5 -93.5 Q160 -138 130 -166.5 Q100 -195 61 -208 Q22 -221 -21 -224 Z " />
<glyph glyph-name="k" unicode="k" horiz-adv-x="528" d="M509 445 Q462 392 416.5 339.5 Q371 287 324 233 L522 0 L368 0 L191 217 L191 0 L52 0 L52 711 L191 711 L191 245 Q234 296 276.5 345 Q319 394 361 445 L509 445 L509 445 Z " />
<glyph glyph-name="l" unicode="l" horiz-adv-x="250" d="M58 0 L58 711 L194 711 L194 0 L58 0 Z " />
<glyph glyph-name="m" unicode="m" horiz-adv-x="833" d="M184 388 Q215 427 255.5 442.5 Q296 458 329 458 Q380 458 414.5 436 Q449 414 466 372 Q496 422 537 440.5 Q578 459 613 459 Q659 459 690 445.5 Q721 432 740 406.5 Q759 381 767 343.5 Q775 306 775 258 L775 0 L640 0 L640 262 Q640 299 623 324.5 Q606 350 570 350 Q553 350 537.5 344 Q522 338 510 324 Q498 310 491 286.5 Q484 263 484 229 L484 0 L349 0 L349 258 Q349 300 331.5 325 Q314 350 279 350 Q244 350 218 321.5 Q192 293 192 232 L192 0 L57 0 L57 445 L163 445 L180 391 L184 388 Z " />
<glyph glyph-name="n" unicode="n" horiz-adv-x="557" d="M364 0 L364 255 Q364 295 344.5 322.5 Q325 350 290 350 Q249 350 220.5 321 Q192 292 192 229 L192 0 L57 0 L57 445 L162 445 Q167 430 170 414.5 Q173 399 177 384 L181 384 Q216 426 257.5 441 Q299 456 340 456 Q419 456 459 409.5 Q499 363 499 283 L499 0 L364 0 Z " />
<glyph glyph-name="o" unicode="o" horiz-adv-x="568" d="M285 459 Q342 459 388 441 Q434 423 466 391.5 Q498 360 515.5 317 Q533 274 533 224 Q533 173 515 130.5 Q497 88 464.5 56.5 Q432 25 386 7.5 Q340 -10 285 -10 Q226 -10 180 7.5 Q134 25 101.5 56.5 Q69 88 52 131 Q35 174 35 224 Q35 274 53 317 Q71 360 104 391.5 Q137 423 183 441 Q229 459 285 459 Z M286 351 Q259 351 237.5 341 Q216 331 201 314 Q186 297 178 274 Q170 251 170 226 Q170 169 200 133.5 Q230 98 286 98 Q341 98 372 135 Q403 172 403 226 Q403 252 395 274.5 Q387 297 371.5 314 Q356 331 334.5 341 Q313 351 286 351 Z " />
<glyph glyph-name="p" unicode="p" horiz-adv-x="590" d="M191 222 Q191 196 198.5 173 Q206 150 221 133 Q236 116 258 106 Q280 96 308 96 Q335 96 356.5 106 Q378 116 392.5 133.5 Q407 151 414.5 174 Q422 197 422 224 Q422 281 392 315.5 Q362 350 307 350 Q282 350 260.5 340 Q239 330 223.5 313 Q208 296 199.5 272.5 Q191 249 191 222 Z M184 -216 L51 -216 L51 446 L156 446 L172 386 L176 386 Q203 423 245.5 440.5 Q288 458 330 458 Q384 458 426 441 Q468 424 496.5 393.5 Q525 363 540 320.5 Q555 278 555 228 Q555 175 538 131.5 Q521 88 491 56.5 Q461 25 419 8 Q377 -9 328 -9 Q297 -9 258.5 0 Q220 9 188 38 Q187 38 186 37 Q185 36 184 36 L184 -216 Z " />
<glyph glyph-name="q" unicode="q" horiz-adv-x="586" d="M403 44 Q402 44 401.5 44.5 Q401 45 400 45 Q374 18 335 4 Q296 -10 257 -10 Q206 -10 164.5 6.5 Q123 23 94 53.5 Q65 84 49.5 126.5 Q34 169 34 220 Q34 271 50.5 314.5 Q67 358 97.5 390 Q128 422 171 440.5 Q214 459 267 459 Q306 459 347.5 444 Q389 429 421 394 L425 394 L439 446 L534 446 L534 -216 L403 -216 L403 44 Z M395 223 Q395 281 364 315.5 Q333 350 281 350 Q228 350 196.5 314 Q165 278 165 223 Q165 196 173 173 Q181 150 196 133 Q211 116 232 106 Q253 96 280 96 Q307 96 328.5 106.5 Q350 117 365 134.5 Q380 152 387.5 175 Q395 198 395 223 Z " />
<glyph glyph-name="r" unicode="r" horiz-adv-x="378" d="M179 374 Q199 416 234.5 436.5 Q270 457 312 457 Q326 457 341 454.5 Q356 452 370 447 L370 324 Q355 331 337 335 Q319 339 302 339 Q254 339 223 302 Q192 265 192 197 L192 0 L57 0 L57 445 L157 445 L174 374 L179 374 Z " />
<glyph glyph-name="s" unicode="s" horiz-adv-x="399" d="M22 142 Q57 116 100.5 101.5 Q144 87 175 87 Q241 87 241 123 Q241 139 225.5 151 Q210 163 187 175 Q164 187 137 199.5 Q110 212 87 229 Q64 246 48.5 269.5 Q33 293 33 327 Q33 357 45.5 381.5 Q58 406 80 423 Q102 440 133 449 Q164 458 201 458 Q229 458 269 451 Q309 444 348 427 L348 320 Q319 337 284 347 Q249 357 221 357 Q165 357 165 324 Q165 311 180.5 301.5 Q196 292 218.5 282 Q241 272 268 260 Q295 248 317.5 230.5 Q340 213 355.5 187.5 Q371 162 371 126 Q371 99 360 74.5 Q349 50 327 31 Q305 12 270.5 1 Q236 -10 190 -10 Q152 -10 106 -1.5 Q60 7 22 28 L22 142 Z " />
<glyph glyph-name="t" unicode="t" horiz-adv-x="369" d="M220 591 L220 445 L339 445 L339 345 L220 345 L220 168 Q220 133 233 116 Q246 99 278 99 Q292 99 312 104.5 Q332 110 354 123 L354 20 Q327 3 295 -4 Q263 -11 237 -11 Q155 -11 120.5 31 Q86 73 86 145 L86 345 L17 345 L17 420 L101 447 L198 591 L220 591 Z " />
<glyph glyph-name="u" unicode="u" horiz-adv-x="549" d="M192 446 L192 188 Q192 151 211 123.5 Q230 96 265 96 Q306 96 331 125.5 Q356 155 356 218 L356 445 L491 445 L491 0 L383 0 L367 61 L363 61 Q332 21 295.5 7 Q259 -7 220 -7 Q57 -7 57 169 L57 446 L192 446 Z " />
<glyph glyph-name="v" unicode="v" horiz-adv-x="524" d="M249 -8 L9 445 L155 445 L204 347 Q215 325 231 291 Q247 257 261 225 L265 225 Q276 255 288 279 Q300 303 311 326 L365 445 L513 445 L273 -8 L249 -8 Z " />
<glyph glyph-name="w" unicode="w" horiz-adv-x="753" d="M386 454 L514 234 L518 234 L614 445 L750 445 L541 -8 L518 -8 L376 248 L238 -8 L214 -8 L4 445 L143 445 L241 234 L245 234 L366 454 L386 454 Z " />
<glyph glyph-name="x" unicode="x" horiz-adv-x="514" d="M257 209 Q229 156 202 104 Q175 52 147 0 L8 0 L137 229 Q107 283 76.5 337 Q46 391 15 445 L153 445 Q180 396 205.5 347 Q231 298 257 249 Q283 298 308.5 347 Q334 396 361 445 L499 445 Q468 391 437.5 337 Q407 283 377 229 L506 0 L367 0 Q339 52 312 104 Q285 156 257 209 Z " />
<glyph glyph-name="y" unicode="y" horiz-adv-x="492" d="M247 162 L351 446 L485 446 L202 -216 L71 -216 Q99 -154 125.5 -93 Q152 -32 180 28 L3 446 L140 446 Q166 375 191 304 Q216 233 241 162 L247 162 Z " />
<glyph glyph-name="z" unicode="z" horiz-adv-x="441" d="M423 433 Q367 349 312.5 266.5 Q258 184 201 100 L413 100 L413 0 L12 0 L12 12 L234 344 L43 344 L43 445 L423 445 L423 433 Z " />
<glyph glyph-name="braceleft" unicode="&#x7b;" horiz-adv-x="349" d="M165 320 Q206 306 219 271.5 Q232 237 232 190 L232 20 Q232 -9 242 -28.5 Q252 -48 284 -48 L311 -48 L311 -129 L244 -129 Q200 -129 175 -113 Q150 -97 137.5 -72.5 Q125 -48 121.5 -17.5 Q118 13 118 42 L118 194 Q118 211 115.5 230 Q113 249 106.5 265.5 Q100 282 87.5 294 Q75 306 54 311 L54 328 Q90 336 104 366.5 Q118 397 118 433 L118 550 Q118 577 121 608 Q124 639 136.5 665.5 Q149 692 173.5 710 Q198 728 241 728 L311 728 L311 645 L288 645 Q270 645 259 639.5 Q248 634 242 624 Q236 614 234 601.5 Q232 589 232 575 L232 430 Q232 391 216 362.5 Q200 334 165 325 L165 320 Z " />
<glyph glyph-name="bar" unicode="&#x7c;" horiz-adv-x="330" d="M115 744 L215 744 L215 -144 L115 -144 L115 744 Z " />
<glyph glyph-name="braceright" unicode="&#x7d;" horiz-adv-x="349" d="M188 325 Q153 334 136.5 362.5 Q120 391 120 430 L120 575 Q120 589 118.5 601.5 Q117 614 111 624 Q105 634 94 639.5 Q83 645 65 645 L41 645 L41 728 L111 728 Q150 728 174 715 Q198 702 211.5 680.5 Q225 659 230 631.5 Q235 604 235 575 L235 434 Q235 398 249 368 Q263 338 299 330 L299 312 Q278 307 265.5 294.5 Q253 282 246 265.5 Q239 249 237 230 Q235 211 235 194 L235 35 Q235 6 231 -23 Q227 -52 214 -75.5 Q201 -99 176 -114 Q151 -129 109 -129 L41 -129 L41 -48 L69 -48 Q101 -48 110.5 -28.5 Q120 -9 120 20 L120 190 Q120 237 133.5 271.5 Q147 306 188 320 L188 325 Z " />
<glyph glyph-name="asciitilde" unicode="&#x7e;" horiz-adv-x="546" d="M383 228 Q354 228 325 236 Q296 244 269 254 Q242 264 217.5 272 Q193 280 172 280 Q145 280 127 266 Q109 252 93 225 L25 269 Q71 379 164 379 Q189 379 216 370.5 Q243 362 269.5 352 Q296 342 321 333.5 Q346 325 368 325 Q397 325 416.5 340.5 Q436 356 453 389 L521 342 Q501 290 467 259 Q433 228 383 228 Z " />
<glyph glyph-name="dieresis" unicode="&#xa8;" horiz-adv-x="532" d="M236 599 Q236 573 218.5 554.5 Q201 536 174 536 Q145 536 128 554.5 Q111 573 111 599 Q111 627 130.5 644 Q150 661 174 661 Q201 661 218.5 643 Q236 625 236 599 Z M422 599 Q422 573 405 554.5 Q388 536 360 536 Q331 536 314.5 554.5 Q298 573 298 599 Q298 627 317 644 Q336 661 360 661 Q388 661 405 643 Q422 625 422 599 Z " />
<glyph glyph-name="sterling" unicode="&#xa3;" horiz-adv-x="572" d="M503 529 Q474 542 444.5 549.5 Q415 557 389 557 Q367 557 347.5 551 Q328 545 313.5 531.5 Q299 518 290.5 496.5 Q282 475 282 443 L281 377 L433 377 L433 296 L278 296 Q276 243 265.5 189.5 Q255 136 231 101 L515 101 L515 0 L56 0 L56 15 Q81 46 97 80.5 Q113 115 122.5 151 Q132 187 136.5 223.5 Q141 260 143 296 L77 296 L77 377 L145 377 L147 448 Q149 511 169.5 553.5 Q190 596 221 622 Q252 648 290 659 Q328 670 365 670 Q400 670 435 663 Q470 656 503 641 L503 529 L503 529 Z " />
<glyph glyph-name="trademark" unicode="&#x2122;" horiz-adv-x="797" d="M711 677 L723 677 L723 305 L635 305 L635 494 L632 494 Q611 468 589.5 442.5 Q568 417 547 391 L534 391 Q512 417 491 442 Q470 467 447 492 L445 492 L445 305 L356 305 L356 677 L369 677 L540 494 L711 677 Z M224 305 L137 305 L137 611 L35 611 L35 676 L324 676 L324 611 L224 611 L224 305 Z " />
<glyph glyph-name="perthousand" unicode="&#x2030;" horiz-adv-x="1173" d="M197 -27 L113 -27 L591 684 L675 684 L197 -27 Z M205 682 Q244 682 275 669 Q306 656 328 634 Q350 612 362 582.5 Q374 553 374 519 Q374 485 362 455.5 Q350 426 327.5 403.5 Q305 381 274 368 Q243 355 205 355 Q165 355 133.5 367.5 Q102 380 80 402 Q58 424 46.5 454 Q35 484 35 519 Q35 553 47.5 582.5 Q60 612 82.5 634 Q105 656 136 669 Q167 682 205 682 Z M206 597 Q173 597 153 574 Q133 551 133 519 Q133 484 152 461 Q171 438 206 438 Q238 438 258 461.5 Q278 485 278 519 Q278 551 258 574 Q238 597 206 597 Z M591 316 Q630 316 661 303 Q692 290 714 268 Q736 246 748 216.5 Q760 187 760 153 Q760 119 748 89.5 Q736 60 713.5 38 Q691 16 660 3 Q629 -10 591 -10 Q551 -10 519.5 2 Q488 14 466 36 Q444 58 432.5 87.5 Q421 117 421 152 Q421 186 433 215.5 Q445 245 467.5 267.5 Q490 290 521.5 303 Q553 316 591 316 Z M592 232 Q560 232 540 208.5 Q520 185 520 153 Q520 118 538.5 95 Q557 72 592 72 Q625 72 645 95 Q665 118 665 153 Q665 185 644.5 208.5 Q624 232 592 232 Z M973 316 Q1012 316 1043 303 Q1074 290 1096.5 268 Q1119 246 1131 216.5 Q1143 187 1143 153 Q1143 119 1130.5 89.5 Q1118 60 1095.5 38 Q1073 16 1042 3 Q1011 -10 973 -10 Q933 -10 901.5 2 Q870 14 848.5 36 Q827 58 815.5 87.5 Q804 117 804 152 Q804 186 816 215.5 Q828 245 850 267.5 Q872 290 903.5 303 Q935 316 973 316 Z M974 232 Q942 232 922 208.5 Q902 185 902 153 Q902 118 920.5 95 Q939 72 974 72 Q1007 72 1026.5 95 Q1046 118 1046 153 Q1046 185 1026 208.5 Q1006 232 974 232 Z " />
<glyph glyph-name="germandbls" unicode="&#xdf;" horiz-adv-x="594" d="M193 0 L58 0 L58 490 Q58 541 73.5 584 Q89 627 119 658.5 Q149 690 192.5 708 Q236 726 292 726 Q341 726 380.5 712.5 Q420 699 448 675 Q476 651 491.5 618 Q507 585 507 545 Q507 537 505 522 Q503 507 495.5 489 Q488 471 474 452.5 Q460 434 437 421 L437 416 Q466 406 488.5 386.5 Q511 367 526.5 341.5 Q542 316 550 285 Q558 254 558 220 Q558 178 545 137 Q532 96 505 63 Q478 30 437 10 Q396 -10 339 -10 Q322 -10 304.5 -7 Q287 -4 266 1 L266 105 Q290 99 310 99 Q339 99 361 109.5 Q383 120 397.5 138.5 Q412 157 419 181 Q426 205 426 232 Q426 274 413 299.5 Q400 325 379.5 339 Q359 353 334.5 357.5 Q310 362 286 362 L286 453 Q335 454 357.5 480 Q380 506 380 540 Q380 559 372 575 Q364 591 351 602 Q338 613 322.5 619 Q307 625 292 625 Q261 625 242 614 Q223 603 212 586 Q201 569 197 549 Q193 529 193 511 L193 0 Z " />
<glyph glyph-name="copyright" unicode="&#xa9;" horiz-adv-x="862" d="M430 -29 Q349 -29 280.5 0 Q212 29 162.5 80 Q113 131 85.5 200 Q58 269 58 349 Q58 430 87.5 499 Q117 568 167.5 618 Q218 668 286.5 696.5 Q355 725 433 725 Q509 725 576 696 Q643 667 693.5 616.5 Q744 566 773 497.5 Q802 429 802 349 Q802 269 772.5 200 Q743 131 692.5 80 Q642 29 574.5 0 Q507 -29 430 -29 Z M432 657 Q367 657 312 633 Q257 609 216.5 567 Q176 525 153 469 Q130 413 130 349 Q130 285 152.5 228.5 Q175 172 215 130 Q255 88 310 63.5 Q365 39 430 39 Q495 39 549.5 63.5 Q604 88 644 130 Q684 172 706 228.5 Q728 285 728 349 Q728 412 705.5 468 Q683 524 643.5 566 Q604 608 549.5 632.5 Q495 657 432 657 Z M575 138 Q548 124 512.5 118.5 Q477 113 449 113 Q391 113 346.5 130 Q302 147 272 178 Q242 209 226.5 250.5 Q211 292 211 342 Q211 390 228 432.5 Q245 475 276 507.5 Q307 540 351.5 558.5 Q396 577 452 577 Q474 577 505 573 Q536 569 562 559 L562 475 Q539 486 514 490.5 Q489 495 466 495 Q435 495 407.5 485.5 Q380 476 359 456.5 Q338 437 326 408.5 Q314 380 314 342 Q314 307 325 280 Q336 253 356 233.5 Q376 214 403 204 Q430 194 462 194 Q489 194 519.5 201 Q550 208 574 222 L575 138 Z " />
<glyph glyph-name="section" unicode="&#xa7;" horiz-adv-x="577" d="M508 306 Q508 272 488.5 238.5 Q469 205 432 186 Q465 163 480 135 Q495 107 495 78 Q495 39 477.5 9 Q460 -21 430 -41 Q400 -61 360 -71.5 Q320 -82 276 -82 Q217 -82 168 -70 Q119 -58 88 -41 L88 73 Q104 61 126 50.5 Q148 40 172.5 32 Q197 24 221.5 19 Q246 14 267 14 Q284 14 300.5 17 Q317 20 330.5 26.5 Q344 33 352.5 44 Q361 55 361 72 Q361 98 339.5 116 Q318 134 286.5 150 Q255 166 217.5 182 Q180 198 148.5 219.5 Q117 241 95.5 270.5 Q74 300 74 344 Q74 376 91 406.5 Q108 437 147 458 Q122 481 110.5 505 Q99 529 99 559 Q99 627 151.5 670 Q204 713 306 713 Q354 713 393.5 703.5 Q433 694 462 682 L462 579 Q434 593 393.5 603 Q353 613 315 613 Q279 613 251 601 Q223 589 223 563 Q223 549 230 538.5 Q237 528 247.5 520 Q258 512 271.5 505 Q285 498 299 492 Q336 479 373 463 Q410 447 440 425 Q470 403 489 374 Q508 345 508 306 Z M385 300 Q385 321 372 336.5 Q359 352 338 365 Q317 378 291.5 389.5 Q266 401 241 412 Q221 401 208 386 Q195 371 195 351 Q195 329 207 313.5 Q219 298 239 285.5 Q259 273 285 261.5 Q311 250 339 236 Q361 250 373 266.5 Q385 283 385 300 Z " />
<glyph glyph-name="degree" unicode="&#xb0;" horiz-adv-x="382" d="M192 417 Q163 417 140 426.5 Q117 436 101 452.5 Q85 469 76.5 491 Q68 513 68 538 Q68 563 78 585.5 Q88 608 104.5 624.5 Q121 641 143.5 650.5 Q166 660 192 660 Q218 660 241 650.5 Q264 641 280.5 624.5 Q297 608 306.5 585.5 Q316 563 316 538 Q316 513 306.5 491 Q297 469 280.5 452.5 Q264 436 241 426.5 Q218 417 192 417 Z M192 604 Q164 604 145.5 584 Q127 564 127 538 Q127 511 144.5 491 Q162 471 192 471 Q222 471 240.5 491 Q259 511 259 538 Q259 564 240 584 Q221 604 192 604 Z " />
<glyph glyph-name="plusminus" unicode="&#xb1;" horiz-adv-x="572" d="M489 80 L489 0 L80 0 L80 80 L489 80 Z M327 123 L243 123 L243 273 L80 273 L80 354 L243 354 L243 502 L327 502 L327 354 L489 354 L489 273 L327 273 L327 123 Z " />
<glyph glyph-name="yen" unicode="&#xa5;" horiz-adv-x="572" d="M57 262 L57 314 L195 314 L24 660 L181 660 L292 372 L295 372 Q322 444 349.5 515.5 Q377 587 404 660 L557 660 Q513 573 470.5 487 Q428 401 383 314 L528 314 L528 262 L57 262 Z M528 217 L528 165 L363 165 L363 0 L215 0 L215 165 L57 165 L57 217 L528 217 Z " />
<glyph glyph-name="guillemotleft" unicode="&#xab;" horiz-adv-x="488" d="M285 13 L161 13 L33 201 L33 211 L162 399 L285 399 L150 209 L285 13 Z M465 13 L341 13 L213 201 L213 211 L343 399 L465 399 L330 209 L465 13 Z " />
<glyph glyph-name="guillemotright" unicode="&#xbb;" horiz-adv-x="488" d="M163 209 L28 399 L150 399 L280 211 L280 201 L152 13 L28 13 L163 209 Z M343 209 L208 399 L331 399 L460 211 L460 201 L332 13 L208 13 L343 209 Z " />
<glyph glyph-name="oe" unicode="&#x153;" horiz-adv-x="886" d="M283 459 Q341 459 388 436.5 Q435 414 463 375 Q490 414 534 437.5 Q578 461 631 461 Q683 461 724.5 444.5 Q766 428 794.5 397.5 Q823 367 838 323.5 Q853 280 853 227 L853 200 L536 200 Q538 170 549.5 149 Q561 128 579 115 Q597 102 620.5 96 Q644 90 670 90 Q705 90 745 99.5 Q785 109 831 140 L831 37 Q793 12 748 0.5 Q703 -11 656 -11 Q590 -11 541.5 11 Q493 33 464 74 Q435 34 385.5 12 Q336 -10 279 -10 Q220 -10 174.5 7.5 Q129 25 97.5 56.5 Q66 88 49.5 131 Q33 174 33 224 Q33 274 51 317 Q69 360 102 391.5 Q135 423 181 441 Q227 459 283 459 Z M284 351 Q257 351 235.5 341 Q214 331 199 314 Q184 297 176 274 Q168 251 168 226 Q168 169 198 133.5 Q228 98 284 98 Q338 98 369 135 Q400 172 400 226 Q400 252 392 274.5 Q384 297 369 314 Q354 331 332.5 341 Q311 351 284 351 Z M637 363 Q599 363 574 339.5 Q549 316 540 281 L729 281 Q721 319 698 341 Q675 363 637 363 Z " />
<glyph glyph-name="endash" unicode="&#x2013;" horiz-adv-x="593" d="M28 296 L565 296 L565 200 L28 200 L28 296 Z " />
<glyph glyph-name="quotedblleft" unicode="&#x201c;" horiz-adv-x="400" d="M185 471 Q185 442 165.5 421.5 Q146 401 117 401 Q86 401 66.5 420.5 Q47 440 47 470 Q47 493 57 521 Q67 549 81.5 577.5 Q96 606 113.5 632.5 Q131 659 146 679 L196 671 L141 536 Q164 528 174.5 510 Q185 492 185 471 Z M348 471 Q348 442 328 421.5 Q308 401 279 401 Q248 401 229 420.5 Q210 440 210 470 Q210 493 219.5 521 Q229 549 244 577.5 Q259 606 276 632.5 Q293 659 308 679 L358 671 L303 536 Q326 528 337 510 Q348 492 348 471 Z " />
<glyph glyph-name="quotedblright" unicode="&#x201d;" horiz-adv-x="400" d="M215 605 Q215 635 235 655.5 Q255 676 284 676 Q314 676 334 656.5 Q354 637 354 607 Q354 584 344 556 Q334 528 319.5 499.5 Q305 471 287.5 444 Q270 417 255 398 L204 406 L260 541 Q237 549 226 566.5 Q215 584 215 605 Z M53 605 Q53 635 73 655.5 Q93 676 122 676 Q152 676 171.5 656.5 Q191 637 191 607 Q191 584 181 556 Q171 528 156.5 499.5 Q142 471 125 444 Q108 417 93 398 L42 406 L97 541 Q74 549 63.5 566.5 Q53 584 53 605 Z " />
<glyph glyph-name="quoteleft" unicode="&#x2018;" horiz-adv-x="230" d="M185 471 Q185 442 165 421.5 Q145 401 116 401 Q85 401 65.5 420.5 Q46 440 46 470 Q46 493 56 521 Q66 549 80.5 577.5 Q95 606 112 632.5 Q129 659 144 679 L195 671 L140 536 Q163 528 174 510 Q185 492 185 471 Z " />
<glyph glyph-name="quoteright" unicode="&#x2019;" horiz-adv-x="230" d="M50 605 Q50 635 70 655.5 Q90 676 119 676 Q149 676 168.5 656.5 Q188 637 188 607 Q188 584 178.5 556 Q169 528 154 499.5 Q139 471 122 444 Q105 417 90 398 L39 406 L94 541 Q71 549 60.5 566.5 Q50 584 50 605 Z " />
<glyph glyph-name="&amp;#xb5;" unicode="&#xb5;" horiz-adv-x="549" d="M192 445 L192 181 Q192 165 197 150 Q202 135 211.5 123 Q221 111 234 103.5 Q247 96 263 96 Q304 96 329.5 125.5 Q355 155 355 214 L355 445 L491 445 L491 0 L382 0 L367 61 L362 61 Q334 26 300.5 14 Q267 2 231 2 Q206 2 192 12 L192 -216 L57 -216 L57 445 L192 445 Z " />
<glyph glyph-name="&amp;#x3bc;" unicode="&#x3bc;" horiz-adv-x="549" d="M192 445 L192 181 Q192 165 197 150 Q202 135 211.5 123 Q221 111 234 103.5 Q247 96 263 96 Q304 96 329.5 125.5 Q355 155 355 214 L355 445 L491 445 L491 0 L382 0 L367 61 L362 61 Q334 26 300.5 14 Q267 2 231 2 Q206 2 192 12 L192 -216 L57 -216 L57 445 L192 445 Z " />
<glyph glyph-name="pi" unicode="&#x3c0;" horiz-adv-x="561" d="M367 0 L367 341 L192 341 L192 0 L57 0 L57 446 L502 446 L502 0 L367 0 Z " />
<glyph glyph-name="emdash" unicode="&#x2014;" horiz-adv-x="842" d="M31 296 L812 296 L812 200 L31 200 L31 296 Z " />
<glyph glyph-name="exclam" unicode="&#x21;" horiz-adv-x="317" d="M104 187 L89 692 L227 692 L214 187 L104 187 Z M230 59 Q230 30 209 10 Q188 -10 159 -10 Q129 -10 107.5 10 Q86 30 86 59 Q86 89 107.5 110.5 Q129 132 159 132 Q188 132 209 110.5 Q230 89 230 59 Z " />
<glyph glyph-name="dieresistonos" unicode="&#x385;" horiz-adv-x="532" d="M196 599 Q196 573 178.5 554.5 Q161 536 134 536 Q105 536 88 554.5 Q71 573 71 599 Q71 627 90.5 644 Q110 661 134 661 Q161 661 178.5 643 Q196 625 196 599 Z M492 599 Q492 573 475 554.5 Q458 536 430 536 Q401 536 384.5 554.5 Q368 573 368 599 Q368 627 387 644 Q406 661 430 661 Q458 661 475 643 Q492 625 492 599 Z M173 525 Q202 570 232 614.5 Q262 659 292 705 L388 661 L250 525 L173 525 Z " />
<glyph glyph-name="tonos" unicode="&#x384;" horiz-adv-x="507" d="M193 525 L312 705 L408 661 L270 525 L193 525 Z " />
<glyph glyph-name="Theta" unicode="&#x398;" horiz-adv-x="799" d="M399 -12 Q317 -12 251.5 14.5 Q186 41 140 87 Q94 133 69 195.5 Q44 258 44 330 Q44 402 71 464.5 Q98 527 145.5 573.5 Q193 620 258 647 Q323 674 400 674 Q479 674 544 647 Q609 620 655.5 573.5 Q702 527 728 464.5 Q754 402 754 330 Q754 258 728 195.5 Q702 133 654.5 87 Q607 41 542 14.5 Q477 -12 399 -12 Z M401 550 Q354 550 316 533 Q278 516 251 486 Q224 456 209 416 Q194 376 194 330 Q194 283 208.5 242 Q223 201 250 171 Q277 141 315 124 Q353 107 401 107 Q449 107 487 124.5 Q525 142 551.5 172.5 Q578 203 592.5 243.5 Q607 284 607 330 Q607 376 592.5 416 Q578 456 551 486 Q524 516 486 533 Q448 550 401 550 Z M262 394 L537 394 L537 282 L262 282 L262 394 Z " />
<glyph glyph-name="Lambda" unicode="&#x39b;" horiz-adv-x="662" d="M332 391 L328 391 L155 0 L10 0 L323 671 L345 671 L653 0 L502 0 L332 391 Z " />
<glyph glyph-name="Xi" unicode="&#x39e;" horiz-adv-x="610" d="M45 545 L45 661 L564 661 L564 545 L45 545 Z M575 117 L575 0 L35 0 L35 117 L575 117 Z M517 401 L517 289 L100 289 L100 401 L517 401 Z " />
<glyph glyph-name="Pi" unicode="&#x3a0;" horiz-adv-x="698" d="M480 0 L480 545 L216 545 L216 0 L67 0 L67 660 L629 660 L629 0 L480 0 Z " />
<glyph glyph-name="Sigma" unicode="&#x3a3;" horiz-adv-x="586" d="M240 114 L573 114 L573 0 L17 0 L17 15 L212 346 L27 644 L27 660 L555 660 L555 545 L253 545 Q285 496 315.5 447 Q346 398 377 349 L240 114 Z " />
<glyph glyph-name="Phi" unicode="&#x3a6;" horiz-adv-x="884" d="M841 341 Q841 285 818.5 236.5 Q796 188 754 151.5 Q712 115 651.5 91.5 Q591 68 515 62 L515 0 L369 0 L369 62 Q292 66 231.5 87.5 Q171 109 128.5 146 Q86 183 63.5 232.5 Q41 282 41 341 Q41 399 65.5 448 Q90 497 133.5 534 Q177 571 237.5 593 Q298 615 369 618 L369 660 L516 660 L516 618 Q588 614 648 591.5 Q708 569 750.5 532 Q793 495 817 446 Q841 397 841 341 Z M699 341 Q699 375 685.5 405 Q672 435 648 458.5 Q624 482 590 496 Q556 510 514 513 L514 168 Q557 171 591 185 Q625 199 649 222 Q673 245 686 275.5 Q699 306 699 341 Z M369 513 Q327 510 293 495.5 Q259 481 235 458 Q211 435 198 404.5 Q185 374 185 340 Q185 273 232 225 Q279 177 369 168 L369 513 Z " />
<glyph glyph-name="Psi" unicode="&#x3a8;" horiz-adv-x="825" d="M337 0 L337 175 Q266 179 213 201.5 Q160 224 125 261 Q90 298 72.5 348 Q55 398 55 457 L55 660 L204 660 L204 454 Q204 428 211.5 402 Q219 376 235 354.5 Q251 333 276.5 318 Q302 303 337 300 L337 660 L486 660 L486 300 Q520 303 545 316 Q570 329 586.5 349 Q603 369 611.5 395 Q620 421 620 449 L620 660 L769 660 L769 460 Q769 401 751 351 Q733 301 697.5 263.5 Q662 226 609 202.5 Q556 179 486 175 L486 0 L337 0 Z " />
<glyph glyph-name="Omega" unicode="&#x3a9;" horiz-adv-x="795" d="M399 550 Q350 550 311.5 531.5 Q273 513 247 481.5 Q221 450 207 407 Q193 364 193 316 Q193 276 202.5 232 Q212 188 230 147.5 Q248 107 274 73 Q300 39 333 18 L333 0 L32 0 L32 114 L130 114 Q132 116 132 118 Q89 166 68.5 225 Q48 284 48 345 Q48 415 73.5 475 Q99 535 145 579 Q191 623 256 648 Q321 673 399 673 Q477 673 540.5 648 Q604 623 650 579.5 Q696 536 721 477 Q746 418 746 350 Q746 290 725.5 229.5 Q705 169 661 118 Q662 117 662 114 L759 114 L759 0 L458 0 L458 18 Q494 38 521 72 Q548 106 566 146.5 Q584 187 593 230.5 Q602 274 602 314 Q602 360 589.5 402.5 Q577 445 551.5 478 Q526 511 488 530.5 Q450 550 399 550 Z " />
<glyph glyph-name="alpha" unicode="&#x3b1;" horiz-adv-x="595" d="M286 349 Q259 349 237.5 339 Q216 329 201 312 Q186 295 178 272 Q170 249 170 224 Q170 167 200 131.5 Q230 96 286 96 Q340 96 371 133 Q402 170 402 224 Q402 277 371 313 Q340 349 286 349 Z M269 457 Q315 457 357.5 440 Q400 423 428 390 Q433 404 438 418 Q443 432 448 446 L537 446 L537 0 L434 0 L422 56 Q420 56 420 56.5 Q420 57 418 57 Q389 26 351 9 Q313 -8 260 -8 Q152 -8 93.5 52.5 Q35 113 35 218 Q35 267 51.5 310.5 Q68 354 98 386.5 Q128 419 171.5 438 Q215 457 269 457 Z " />
<glyph glyph-name="beta" unicode="&#x3b2;" horiz-adv-x="583" d="M46 -211 L46 431 Q46 492 58 545.5 Q70 599 98 639 Q126 679 171.5 702 Q217 725 285 725 Q334 725 373 711.5 Q412 698 439.5 674 Q467 650 481.5 617.5 Q496 585 496 548 Q496 534 492.5 516 Q489 498 480.5 480 Q472 462 456.5 445.5 Q441 429 417 418 L417 413 Q450 402 474 382 Q498 362 514.5 336 Q531 310 539 280.5 Q547 251 547 220 Q547 170 530.5 128 Q514 86 484.5 55.5 Q455 25 415 7.5 Q375 -10 328 -10 Q280 -10 245.5 5 Q211 20 188 43 Q184 43 183 42 L183 -211 L46 -211 Z M295 94 Q349 94 380 132 Q411 170 411 229 Q411 266 398 291 Q385 316 364 331 Q343 346 316.5 352 Q290 358 263 358 L263 442 Q320 445 343 471.5 Q366 498 366 531 Q366 548 359 563 Q352 578 340 589.5 Q328 601 312.5 608 Q297 615 281 615 Q246 615 226 601 Q206 587 196 566 Q186 545 183.5 521.5 Q181 498 181 479 L181 226 Q181 201 187.5 177 Q194 153 208 134.5 Q222 116 243.5 105 Q265 94 295 94 Z " />
<glyph glyph-name="psi" unicode="&#x3c8;" horiz-adv-x="727" d="M295 -12 Q241 -9 196.5 9 Q152 27 120.5 58.5 Q89 90 72 133.5 Q55 177 55 232 L55 445 L187 445 L187 222 Q187 195 195.5 171.5 Q204 148 218.5 130.5 Q233 113 252.5 103 Q272 93 295 93 L295 445 L429 445 L429 93 Q481 95 509 129 Q537 163 537 224 L537 445 L671 445 L671 233 Q671 186 655.5 143.5 Q640 101 609.5 67.5 Q579 34 534 12.5 Q489 -9 429 -12 Q429 -63 429.5 -114.5 Q430 -166 430 -218 L295 -218 L295 -12 Z " />
<glyph glyph-name="delta" unicode="&#x3b4;" horiz-adv-x="570" d="M403 232 Q403 253 397.5 275 Q392 297 378 317 Q364 337 341 353.5 Q318 370 283 380 Q254 375 233 360 Q212 345 198 324.5 Q184 304 177 280 Q170 256 170 232 Q170 205 177 180.5 Q184 156 198.5 137.5 Q213 119 235 108 Q257 97 287 97 Q315 97 336.5 108 Q358 119 373 138 Q388 157 395.5 181.5 Q403 206 403 232 Z M298 725 Q314 725 335 723.5 Q356 722 378 718 Q400 714 422 707 Q444 700 464 689 L464 580 Q429 600 386 610 Q343 620 311 620 Q271 620 248.5 606 Q226 592 226 567 Q226 544 249 528 Q272 512 306 496.5 Q340 481 380 461.5 Q420 442 454 412.5 Q488 383 511 339.5 Q534 296 534 231 Q534 181 516.5 137 Q499 93 467 60.5 Q435 28 389 9 Q343 -10 285 -10 Q226 -10 179.5 8 Q133 26 101 57.5 Q69 89 52 132.5 Q35 176 35 227 Q35 259 44 291 Q53 323 70.5 351.5 Q88 380 114 402.5 Q140 425 173 439 L173 444 Q136 464 116 495 Q96 526 96 566 Q96 599 109.5 628 Q123 657 149 678.5 Q175 700 212.5 712.5 Q250 725 298 725 Z " />
<glyph glyph-name="epsilon" unicode="&#x3b5;" horiz-adv-x="421" d="M222 -10 Q171 -10 135 0 Q99 10 75.5 27.5 Q52 45 41 68.5 Q30 92 30 118 Q30 149 48.5 182 Q67 215 112 234 L112 238 Q74 251 56.5 276 Q39 301 39 329 Q39 356 51 380 Q63 404 87 421.5 Q111 439 146 449.5 Q181 460 227 460 Q259 460 298 453.5 Q337 447 376 432 L376 324 Q363 332 346.5 338 Q330 344 313 348 Q296 352 279.5 354 Q263 356 249 356 Q217 356 193.5 345.5 Q170 335 170 312 Q170 301 180 292.5 Q190 284 214 284 L285 284 L285 190 L242 190 Q202 190 184.5 175 Q167 160 167 140 Q167 122 187 107.5 Q207 93 255 93 Q284 93 324 104 Q364 115 396 138 L396 29 Q355 7 307.5 -1.5 Q260 -10 222 -10 Z " />
<glyph glyph-name="phi" unicode="&#x3c6;" horiz-adv-x="741" d="M37 220 Q37 258 49 293.5 Q61 329 84.5 358.5 Q108 388 143.5 409.5 Q179 431 227 442 L270 370 Q218 352 193.5 313.5 Q169 275 169 227 Q169 203 178 179.5 Q187 156 204.5 136.5 Q222 117 247.5 104.5 Q273 92 306 91 L306 453 L438 453 Q498 453 547 436.5 Q596 420 631 390 Q666 360 685 318 Q704 276 704 224 Q704 177 685 135.5 Q666 94 630.5 62.5 Q595 31 545.5 11.5 Q496 -8 436 -11 L436 -218 L303 -218 L305 -10 Q235 -7 184.5 14 Q134 35 101 67 Q68 99 52.5 139 Q37 179 37 220 Z M576 222 Q576 246 568.5 269.5 Q561 293 544.5 312 Q528 331 501 342.5 Q474 354 434 356 L434 89 Q467 91 493 102.5 Q519 114 537.5 132 Q556 150 566 173 Q576 196 576 222 Z " />
<glyph glyph-name="gamma" unicode="&#x3b3;" horiz-adv-x="509" d="M259 159 L308 297 Q322 335 335.5 371.5 Q349 408 363 445 L501 445 L326 8 Q326 -48 326.5 -104 Q327 -160 327 -217 L189 -217 L191 8 Q144 118 98 226.5 Q52 335 6 445 L150 445 L196 317 Q210 277 224.5 237.5 Q239 198 254 159 L259 159 Z " />
<glyph glyph-name="eta" unicode="&#x3b7;" horiz-adv-x="557" d="M364 0 L364 255 Q364 295 344.5 322.5 Q325 350 290 350 Q249 350 220.5 321 Q192 292 192 229 L192 0 L57 0 L57 445 L162 445 Q167 430 170 414.5 Q173 399 177 384 L181 384 Q216 426 257.5 441 Q299 456 340 456 Q419 456 459 409.5 Q499 363 499 283 L499 0 L364 0 Z " />
<glyph glyph-name="iota" unicode="&#x3b9;" horiz-adv-x="259" d="M61 0 L61 446 L198 446 L198 0 L61 0 Z " />
<glyph glyph-name="xi" unicode="&#x3be;" horiz-adv-x="450" d="M297 620 Q243 620 215 595 Q187 570 187 534 Q187 486 220.5 464.5 Q254 443 306 443 L398 443 L398 348 L289 348 Q229 348 201 317 Q173 286 173 239 Q173 211 188 190.5 Q203 170 229 152.5 Q255 135 289 118 Q323 101 362 82 Q410 58 435 36 Q460 14 460 -14 Q460 -43 433.5 -83 Q407 -123 344 -180 L258 -138 Q293 -99 306.5 -75 Q320 -51 320 -40 Q320 -34 315 -28 Q310 -22 298 -14.5 Q286 -7 265.5 2.5 Q245 12 214 26 Q175 44 142.5 62.5 Q110 81 86 103.5 Q62 126 49 154.5 Q36 183 36 221 Q36 248 43 274.5 Q50 301 65 325 Q80 349 103.5 368.5 Q127 388 160 401 L160 406 Q129 415 108 430.5 Q87 446 74.5 465 Q62 484 56.5 505 Q51 526 51 546 Q51 578 64 610 Q77 642 104.5 667.5 Q132 693 173.5 708.5 Q215 724 272 724 Q288 724 309.5 722 Q331 720 353 716 Q375 712 397 705.5 Q419 699 437 690 L437 581 Q406 600 367.5 610 Q329 620 297 620 Z " />
<glyph glyph-name="kappa" unicode="&#x3ba;" horiz-adv-x="533" d="M514 445 Q467 392 421.5 339.5 Q376 287 329 233 L527 0 L373 0 Q329 54 285 108 Q241 162 196 217 L196 0 L57 0 L57 445 L196 445 L196 245 Q239 296 281.5 345 Q324 394 366 445 L514 445 L514 445 Z " />
<glyph glyph-name="lambda" unicode="&#x3bb;" horiz-adv-x="511" d="M255 291 Q226 218 198 145.5 Q170 73 141 0 L7 0 L198 442 Q172 511 146.5 580 Q121 649 95 718 L229 718 Q298 538 366 359 Q434 180 503 0 L362 0 L260 291 L255 291 Z " />
<glyph glyph-name="nu" unicode="&#x3bd;" horiz-adv-x="524" d="M249 -8 L9 445 L155 445 L204 347 Q215 325 231 291 Q247 257 261 225 L265 225 Q276 255 288 279 Q300 303 311 326 L365 445 L513 445 L273 -8 L249 -8 Z " />
<glyph glyph-name="omicron" unicode="&#x3bf;" horiz-adv-x="568" d="M285 459 Q342 459 388 441 Q434 423 466 391.5 Q498 360 515.5 317 Q533 274 533 224 Q533 173 515 130.5 Q497 88 464.5 56.5 Q432 25 386 7.5 Q340 -10 285 -10 Q226 -10 180 7.5 Q134 25 101.5 56.5 Q69 88 52 131 Q35 174 35 224 Q35 274 53 317 Q71 360 104 391.5 Q137 423 183 441 Q229 459 285 459 Z M286 351 Q259 351 237.5 341 Q216 331 201 314 Q186 297 178 274 Q170 251 170 226 Q170 169 200 133.5 Q230 98 286 98 Q341 98 372 135 Q403 172 403 226 Q403 252 395 274.5 Q387 297 371.5 314 Q356 331 334.5 341 Q313 351 286 351 Z " />
<glyph glyph-name="rho" unicode="&#x3c1;" horiz-adv-x="589" d="M181 36 L181 -211 L45 -211 L45 188 Q45 246 62 295.5 Q79 345 111.5 381 Q144 417 191.5 437.5 Q239 458 300 458 Q356 458 402.5 440 Q449 422 482 390.5 Q515 359 533 315 Q551 271 551 220 Q551 170 534.5 128 Q518 86 488 55.5 Q458 25 416.5 8 Q375 -9 325 -9 Q288 -9 251 3 Q214 15 186 39 L181 36 Z M417 223 Q417 277 386.5 314.5 Q356 352 300 352 Q272 352 250 341.5 Q228 331 212.5 313 Q197 295 189 271 Q181 247 181 220 Q181 196 188.5 173 Q196 150 211 133 Q226 116 248 105.5 Q270 95 299 95 Q351 95 384 130 Q417 165 417 223 Z " />
<glyph glyph-name="sigma" unicode="&#x3c3;" horiz-adv-x="579" d="M472 344 Q487 332 498.5 315.5 Q510 299 517.5 280.5 Q525 262 529 242.5 Q533 223 533 205 Q533 161 516.5 122 Q500 83 468 54 Q436 25 390 7.5 Q344 -10 286 -10 Q224 -10 177.5 8.5 Q131 27 100 58 Q69 89 53.5 130 Q38 171 38 215 Q38 264 56 306 Q74 348 106.5 379 Q139 410 184.5 428 Q230 446 286 446 L562 446 L562 345 L474 348 L472 344 Z M292 347 Q265 347 243 337 Q221 327 206 309.5 Q191 292 182.5 269 Q174 246 174 221 Q174 167 204 131.5 Q234 96 288 96 Q315 96 336.5 105.5 Q358 115 372.5 132 Q387 149 395 172 Q403 195 403 222 Q403 272 374.5 308 Q346 344 292 347 Z " />
<glyph glyph-name="tau" unicode="&#x3c4;" horiz-adv-x="398" d="M7 445 Q100 445 190.5 445.5 Q281 446 373 447 L373 345 L241 345 L241 168 Q241 133 253.5 114 Q266 95 298 95 Q312 95 332.5 100.5 Q353 106 374 119 L374 20 Q348 3 316 -4 Q284 -11 258 -11 Q175 -11 140.5 32.5 Q106 76 106 164 L106 345 L7 345 L7 445 L7 445 Z " />
<glyph glyph-name="theta" unicode="&#x3b8;" horiz-adv-x="576" d="M535 353 Q535 286 522.5 221 Q510 156 481 104.5 Q452 53 404 21.5 Q356 -10 284 -10 Q215 -10 168 19.5 Q121 49 92 99.5 Q63 150 50.5 215.5 Q38 281 38 353 Q38 424 51 491 Q64 558 93.5 610 Q123 662 170.5 693.5 Q218 725 286 725 Q357 725 405 692.5 Q453 660 482 607.5 Q511 555 523 488 Q535 421 535 353 Z M402 417 Q400 457 392.5 493 Q385 529 370.5 556 Q356 583 335 598.5 Q314 614 286 614 Q258 614 237.5 597.5 Q217 581 203 553.5 Q189 526 181.5 490.5 Q174 455 173 417 L402 417 Z M172 323 Q173 275 179.5 234 Q186 193 199 163 Q212 133 233 116 Q254 99 285 99 Q317 99 339.5 117 Q362 135 376.5 165.5 Q391 196 397.5 236.5 Q404 277 405 323 L172 323 Z " />
<glyph glyph-name="omega" unicode="&#x3c9;" horiz-adv-x="770" d="M732 220 Q732 176 719.5 134.5 Q707 93 682 61 Q657 29 619 10 Q581 -9 529 -9 Q484 -9 445 8 Q406 25 384 61 L379 61 Q355 30 318.5 10.5 Q282 -9 234 -9 Q184 -9 147 8 Q110 25 85.5 55.5 Q61 86 48.5 127.5 Q36 169 36 217 Q36 265 50 307.5 Q64 350 91 382 Q118 414 158 434 Q198 454 251 457 L285 366 Q259 363 238.5 351 Q218 339 203.5 319.5 Q189 300 181.5 274.5 Q174 249 174 220 Q174 167 192 132.5 Q210 98 255 98 Q293 98 311 124 Q329 150 329 184 L329 301 L439 301 L439 181 Q439 139 460.5 118.5 Q482 98 511 98 Q549 98 572 129 Q595 160 595 220 Q595 249 587 274.5 Q579 300 564.5 319.5 Q550 339 530 351 Q510 363 485 366 L520 457 Q573 454 613 434 Q653 414 679.5 382.5 Q706 351 719 309.5 Q732 268 732 220 Z " />
<glyph glyph-name="sigma1" unicode="&#x3c2;" horiz-adv-x="448" d="M35 223 Q35 271 49.5 313.5 Q64 356 94.5 388 Q125 420 171 439 Q217 458 280 458 Q309 458 346 452 Q383 446 415 430 L415 325 Q392 339 358.5 346 Q325 353 298 353 Q238 353 203.5 320.5 Q169 288 169 234 Q169 213 175 195.5 Q181 178 195.5 162 Q210 146 234.5 130.5 Q259 115 296 98 Q359 69 389.5 45.5 Q420 22 420 -6 Q420 -38 388.5 -77.5 Q357 -117 300 -159 L215 -117 Q274 -55 274 -38 Q274 -33 268 -28 Q262 -23 248.5 -16 Q235 -9 212.5 1.5 Q190 12 157 29 Q91 62 63 109 Q35 156 35 223 Z " />
<glyph glyph-name="chi" unicode="&#x3c7;" horiz-adv-x="514" d="M257 209 Q229 156 202 104 Q175 52 147 0 L8 0 L137 229 Q107 283 76.5 337 Q46 391 15 445 L153 445 Q180 396 205.5 347 Q231 298 257 249 Q283 298 308.5 347 Q334 396 361 445 L499 445 Q468 391 437.5 337 Q407 283 377 229 L506 0 L367 0 Q339 52 312 104 Q285 156 257 209 Z " />
<glyph glyph-name="upsilon" unicode="&#x3c5;" horiz-adv-x="548" d="M356 445 L493 445 L493 217 Q493 153 473.5 109.5 Q454 66 422.5 39.5 Q391 13 350.5 1.5 Q310 -10 268 -10 Q167 -10 111 42 Q55 94 55 191 L55 445 L189 445 L189 193 Q189 175 193.5 157.5 Q198 140 208 126.5 Q218 113 233.5 104.5 Q249 96 272 96 Q316 96 336 124.5 Q356 153 356 201 L356 445 Z " />
<glyph glyph-name="zeta" unicode="&#x3b6;" horiz-adv-x="427" d="M290 606 Q289 608 289 609.5 Q289 611 288 612 L65 612 L65 712 L508 712 L508 698 Q441 635 379.5 566 Q318 497 270.5 432.5 Q223 368 194.5 312 Q166 256 166 218 Q166 194 182 176.5 Q198 159 225.5 143.5 Q253 128 289.5 112.5 Q326 97 367 77 Q409 56 430.5 36.5 Q452 17 452 -9 Q452 -26 441 -49.5 Q430 -73 412.5 -98 Q395 -123 372.5 -147 Q350 -171 327 -190 L240 -148 Q271 -112 290.5 -86.5 Q310 -61 310 -45 Q310 -31 289.5 -21 Q269 -11 225 8 Q182 27 146.5 46.5 Q111 66 85.5 89 Q60 112 46 141 Q32 170 32 207 Q32 248 53 298 Q74 348 109.5 400.5 Q145 453 192 506 Q239 559 290 606 Z " />
<glyph glyph-name="Euro" unicode="&#x20ac;" horiz-adv-x="572" d="M32 357 L32 410 L80 410 Q90 464 115 511.5 Q140 559 178.5 594.5 Q217 630 269.5 650 Q322 670 389 670 Q419 670 454.5 664.5 Q490 659 520 649 L520 529 Q491 540 462 545.5 Q433 551 404 551 Q333 551 286 514.5 Q239 478 221 410 L455 410 L455 357 L32 357 Z M455 314 L455 261 L217 261 Q231 194 275.5 152 Q320 110 396 110 Q428 110 464 118 Q500 126 535 141 L535 20 Q497 5 458 -1 Q419 -7 384 -7 Q321 -7 268 11 Q215 29 175.5 63.5 Q136 98 111 148 Q86 198 78 261 L32 261 L32 314 L455 314 Z " />
<glyph glyph-name="semicolon" unicode="&#x3b;" horiz-adv-x="263" d="M202 344 Q202 315 181 294 Q160 273 131 273 Q102 273 81 294 Q60 315 60 344 Q60 373 81 394 Q102 415 131 415 Q160 415 181 394 Q202 373 202 344 Z M55 61 Q55 92 76 113 Q97 134 127 134 Q159 134 179 112.5 Q199 91 199 59 Q199 35 189 5.5 Q179 -24 164 -54.5 Q149 -85 131.5 -113 Q114 -141 98 -161 L45 -154 L94 -2 Q74 6 64.5 23.5 Q55 41 55 61 Z " />
<glyph glyph-name="eth" unicode="&#xf0;" horiz-adv-x="568" d="M250 585 Q238 595 222 607 Q206 619 188.5 631 Q171 643 154 653.5 Q137 664 125 671 L220 725 Q252 707 282 687.5 Q312 668 339 645 L433 708 L433 638 L384 606 Q456 534 495.5 444 Q535 354 535 260 Q535 211 521.5 163 Q508 115 478 76.5 Q448 38 400.5 14 Q353 -10 285 -10 Q225 -10 178.5 7 Q132 24 100 55 Q68 86 51.5 128 Q35 170 35 220 Q35 268 52.5 310 Q70 352 101.5 383.5 Q133 415 176.5 433.5 Q220 452 271 452 Q310 452 342 441 Q374 430 390 412 L394 414 Q381 449 352 483 Q323 517 294 546 L203 487 L203 553 L250 585 Z M285 343 Q259 343 237.5 333.5 Q216 324 201 307.5 Q186 291 178 268.5 Q170 246 170 221 Q170 167 199.5 132 Q229 97 285 97 Q313 97 334.5 107 Q356 117 370.5 134.5 Q385 152 392.5 174.5 Q400 197 400 222 Q400 273 369 308 Q338 343 285 343 Z " />
<glyph glyph-name="sfthyphen" unicode="&#xad;" horiz-adv-x="374" d="M53 290 L320 290 L320 201 L53 201 L53 290 Z " />
<glyph glyph-name="OE" unicode="&#x152;" horiz-adv-x="971" d="M935 0 L498 0 Q451 -11 398 -11 Q314 -11 248.5 15 Q183 41 137.5 87 Q92 133 68 195.5 Q44 258 44 331 Q44 403 70 465.5 Q96 528 143 574.5 Q190 621 255 648 Q320 675 399 675 Q460 675 511 660 L916 660 L916 545 L618 545 L618 399 L884 399 L884 288 L618 288 L618 114 L935 114 L935 0 Z M400 108 Q439 108 469 120 L469 540 Q453 545 435.5 548.5 Q418 552 400 552 Q352 552 313.5 535 Q275 518 248.5 488 Q222 458 207.5 417.5 Q193 377 193 331 Q193 283 207 242.5 Q221 202 247.5 172 Q274 142 312.5 125 Q351 108 400 108 Z " />
<glyph glyph-name="acute" unicode="&#xb4;" horiz-adv-x="507" d="M193 516 Q222 561 252 605.5 Q282 650 312 695 L408 652 L270 516 L193 516 Z " />
<glyph glyph-name="circumflex" unicode="&#x2c6;" horiz-adv-x="507" d="M314 516 L253 590 L187 516 L87 516 L245 690 L266 690 L419 516 L314 516 Z " />
<glyph glyph-name="registered" unicode="&#xae;" horiz-adv-x="599" d="M431 316 L356 316 L284 437 L284 446 Q319 450 334 463 Q349 476 349 496 Q349 516 336 527 Q323 538 301 538 L266 538 L266 316 L199 316 L199 591 L312 591 Q332 591 351 585 Q370 579 384.5 568 Q399 557 408 539.5 Q417 522 417 500 Q417 477 403 456 Q389 435 359 422 L431 316 Z M547 449 Q547 396 527.5 350 Q508 304 474.5 270 Q441 236 396 217 Q351 198 300 198 Q243 198 197.5 217 Q152 236 120 270 Q88 304 71 350 Q54 396 54 449 Q54 502 73.5 547.5 Q93 593 126 626.5 Q159 660 204 679 Q249 698 300 698 Q352 698 397 679 Q442 660 475.5 626.5 Q509 593 528 547.5 Q547 502 547 449 Z M496 449 Q496 490 481.5 526.5 Q467 563 440.5 590.5 Q414 618 378 634 Q342 650 300 650 Q258 650 222 634 Q186 618 159.5 590.5 Q133 563 118 526.5 Q103 490 103 449 Q103 407 117 370 Q131 333 157 305.5 Q183 278 219.5 262 Q256 246 300 246 Q342 246 378 262 Q414 278 440.5 305.5 Q467 333 481.5 370 Q496 407 496 449 Z " />
<glyph glyph-name="Alpha" unicode="&#x391;" horiz-adv-x="662" d="M457 104 L204 104 L158 0 L10 0 L323 672 L345 672 L653 0 L502 0 L457 104 Z M249 206 L413 206 L334 389 L330 389 L249 206 Z " />
<glyph glyph-name="Beta" unicode="&#x392;" horiz-adv-x="639" d="M479 356 Q510 345 532 327 Q554 309 567.5 287.5 Q581 266 587.5 242 Q594 218 594 194 Q594 154 579 118.5 Q564 83 536.5 57 Q509 31 470.5 15.5 Q432 0 385 0 L68 0 L68 661 L362 661 Q405 661 440.5 649 Q476 637 501.5 615.5 Q527 594 541 563.5 Q555 533 555 496 Q555 458 536 421 Q517 384 479 360 L479 356 Z M451 206 Q451 247 421.5 270.5 Q392 294 341 294 L213 294 L213 115 L348 115 Q380 115 400 124 Q420 133 431.5 146.5 Q443 160 447 176 Q451 192 451 206 Z M213 400 L324 400 Q337 400 352.5 402.5 Q368 405 382 413 Q396 421 405.5 435.5 Q415 450 415 473 Q415 507 393 528 Q371 549 329 549 L213 549 L213 400 Z " />
<glyph glyph-name="Gamma" unicode="&#x393;" horiz-adv-x="535" d="M216 0 L67 0 L67 660 L519 660 L519 545 L216 545 L216 0 Z " />
<glyph glyph-name="&amp;#x394;" unicode="&#x394;" horiz-adv-x="676" d="M664 0 L12 0 Q92 168 170.5 335.5 Q249 503 329 672 L350 672 L664 0 Z M333 428 Q298 346 263 272 Q228 198 193 115 L477 115 L335 428 L333 428 Z " />
<glyph glyph-name="&amp;#x2206;" unicode="&#x2206;" horiz-adv-x="676" d="M664 0 L12 0 Q92 168 170.5 335.5 Q249 503 329 672 L350 672 L664 0 Z M333 428 Q298 346 263 272 Q228 198 193 115 L477 115 L335 428 L333 428 Z " />
<glyph glyph-name="Epsilon" unicode="&#x395;" horiz-adv-x="569" d="M533 0 L67 0 L67 660 L514 660 L514 545 L216 545 L216 399 L483 399 L483 288 L216 288 L216 115 L533 115 L533 0 Z " />
<glyph glyph-name="Zeta" unicode="&#x396;" horiz-adv-x="577" d="M556 644 Q478 510 399.5 379 Q321 248 242 114 L547 114 L547 0 L17 0 L17 15 Q97 148 175.5 280 Q254 412 334 545 L58 545 L58 660 L556 660 L556 644 Z " />
<glyph glyph-name="Eta" unicode="&#x397;" horiz-adv-x="694" d="M477 0 L477 285 L216 285 L216 0 L67 0 L67 660 L216 660 L216 401 L477 401 L477 660 L626 660 L626 0 L477 0 Z " />
<glyph glyph-name="Iota" unicode="&#x399;" horiz-adv-x="295" d="M72 0 L72 660 L221 660 L221 0 L72 0 Z " />
<glyph glyph-name="Kappa" unicode="&#x39a;" horiz-adv-x="645" d="M217 357 L457 660 L619 660 L360 342 L637 0 L465 0 L217 327 L217 0 L67 0 L67 660 L217 660 L217 357 Z " />
<glyph glyph-name="Mu" unicode="&#x39c;" horiz-adv-x="815" d="M397 122 L213 323 Q212 322 210 322 L210 0 L67 0 L67 671 L89 671 Q169 577 248.5 486.5 Q328 396 408 302 L726 671 L747 671 L747 0 L603 0 L603 322 Q602 323 599 323 L419 122 L397 122 Z " />
<glyph glyph-name="Nu" unicode="&#x39d;" horiz-adv-x="721" d="M67 0 L67 673 L89 673 Q192 572 294.5 482 Q397 392 501 291 L505 291 L505 660 L653 660 L653 -11 L632 -11 L218 381 L215 381 L215 0 L67 0 Z " />
<glyph glyph-name="Omicron" unicode="&#x39f;" horiz-adv-x="799" d="M399 -11 Q316 -11 250.5 15 Q185 41 139 87 Q93 133 68.5 195.5 Q44 258 44 330 Q44 402 71 464 Q98 526 145.5 572.5 Q193 619 258 645.5 Q323 672 400 672 Q478 672 543 645.5 Q608 619 654.5 572.5 Q701 526 727 464 Q753 402 753 330 Q753 258 727 195.5 Q701 133 654 87 Q607 41 542 15 Q477 -11 399 -11 Z M401 549 Q354 549 316 532 Q278 515 251 485.5 Q224 456 209 416 Q194 376 194 330 Q194 283 208.5 242.5 Q223 202 250 172 Q277 142 315 125 Q353 108 401 108 Q448 108 486 125.5 Q524 143 550.5 173 Q577 203 591.5 243.5 Q606 284 606 330 Q606 375 591.5 415 Q577 455 550.5 485 Q524 515 486 532 Q448 549 401 549 Z " />
<glyph glyph-name="Rho" unicode="&#x3a1;" horiz-adv-x="590" d="M66 659 L319 659 Q383 659 430 640 Q477 621 508 590.5 Q539 560 554 520 Q569 480 569 438 Q569 390 551.5 349 Q534 308 502 277.5 Q470 247 425.5 230 Q381 213 326 213 L216 213 L216 0 L66 0 L66 659 Z M215 548 L215 324 L293 324 Q330 324 354.5 334.5 Q379 345 393.5 361 Q408 377 414 396.5 Q420 416 420 435 Q420 456 413 476.5 Q406 497 390.5 513 Q375 529 351 538.5 Q327 548 294 548 L215 548 Z " />
<glyph glyph-name="Tau" unicode="&#x3a4;" horiz-adv-x="559" d="M354 546 L354 0 L205 0 L205 546 L12 546 L12 661 L546 661 L546 546 L354 546 Z " />
<glyph glyph-name="Upsilon" unicode="&#x3a5;" horiz-adv-x="611" d="M314 382 L444 660 L603 660 L383 261 L383 0 L234 0 L234 261 L7 660 L168 660 L310 382 L314 382 Z " />
<glyph glyph-name="Chi" unicode="&#x3a7;" horiz-adv-x="671" d="M335 317 L167 0 L7 0 L203 341 L20 659 L180 659 L335 363 L489 659 L650 659 L465 341 Q513 255 563.5 170.5 Q614 86 662 0 L501 0 L335 317 Z " />
<glyph glyph-name="alphatonos" unicode="&#x3ac;" horiz-adv-x="595" d="M286 349 Q259 349 237.5 339 Q216 329 201 312 Q186 295 178 272 Q170 249 170 224 Q170 167 200 131.5 Q230 96 286 96 Q340 96 371 133 Q402 170 402 224 Q402 277 371 313 Q340 349 286 349 Z M269 457 Q315 457 357.5 440 Q400 423 428 390 Q433 404 438 418 Q443 432 448 446 L537 446 L537 0 L434 0 L422 56 Q420 56 420 56.5 Q420 57 418 57 Q389 26 351 9 Q313 -8 260 -8 Q152 -8 93.5 52.5 Q35 113 35 218 Q35 267 51.5 310.5 Q68 354 98 386.5 Q128 419 171.5 438 Q215 457 269 457 Z M214 525 L333 705 L429 661 L291 525 L214 525 Z " />
<glyph glyph-name="etatonos" unicode="&#x3ae;" horiz-adv-x="559" d="M364 0 L364 255 Q364 295 344.5 322.5 Q325 350 290 350 Q249 350 220.5 321 Q192 292 192 229 L192 0 L57 0 L57 445 L162 445 Q167 430 170 414.5 Q173 399 177 384 L181 384 Q216 426 257.5 441 Q299 456 340 456 Q419 456 459 409.5 Q499 363 499 283 L499 0 L364 0 Z M189 525 L308 705 L404 661 L266 525 L189 525 Z " />
<glyph glyph-name="iotatonos" unicode="&#x3af;" horiz-adv-x="259" d="M61 0 L61 446 L198 446 L198 0 L61 0 Z M72 525 L191 705 L287 661 L149 525 L72 525 Z " />
<glyph glyph-name="iotadieresistonos" unicode="&#x390;" horiz-adv-x="259" d="M61 0 L61 446 L198 446 L198 0 L61 0 Z M53 599 Q53 573 35.5 554.5 Q18 536 -9 536 Q-38 536 -55 554.5 Q-72 573 -72 599 Q-72 627 -52.5 644 Q-33 661 -9 661 Q18 661 35.5 643 Q53 625 53 599 Z M349 599 Q349 573 332 554.5 Q315 536 287 536 Q258 536 241.5 554.5 Q225 573 225 599 Q225 627 244 644 Q263 661 287 661 Q315 661 332 643 Q349 625 349 599 Z M30 525 Q59 570 89 614.5 Q119 659 149 705 L245 661 L107 525 L30 525 Z " />
<glyph glyph-name="iotadieresis" unicode="&#x3ca;" horiz-adv-x="259" d="M61 0 L61 446 L198 446 L198 0 L61 0 Z M102 599 Q102 573 84.5 554.5 Q67 536 40 536 Q11 536 -6 554.5 Q-23 573 -23 599 Q-23 627 -3.5 644 Q16 661 40 661 Q67 661 84.5 643 Q102 625 102 599 Z M288 599 Q288 573 271 554.5 Q254 536 226 536 Q197 536 180.5 554.5 Q164 573 164 599 Q164 627 183 644 Q202 661 226 661 Q254 661 271 643 Q288 625 288 599 Z " />
<glyph glyph-name="upsilondieresis" unicode="&#x3cb;" horiz-adv-x="548" d="M356 445 L493 445 L493 217 Q493 153 473.5 109.5 Q454 66 422.5 39.5 Q391 13 350.5 1.5 Q310 -10 268 -10 Q167 -10 111 42 Q55 94 55 191 L55 445 L189 445 L189 193 Q189 175 193.5 157.5 Q198 140 208 126.5 Q218 113 233.5 104.5 Q249 96 272 96 Q316 96 336 124.5 Q356 153 356 201 L356 445 Z M245 599 Q245 573 227.5 554.5 Q210 536 183 536 Q154 536 137 554.5 Q120 573 120 599 Q120 627 139.5 644 Q159 661 183 661 Q210 661 227.5 643 Q245 625 245 599 Z M431 599 Q431 573 414 554.5 Q397 536 369 536 Q340 536 323.5 554.5 Q307 573 307 599 Q307 627 326 644 Q345 661 369 661 Q397 661 414 643 Q431 625 431 599 Z " />
<glyph glyph-name="omicrontonos" unicode="&#x3cc;" horiz-adv-x="573" d="M287 459 Q344 459 390 441 Q436 423 468 391.5 Q500 360 517.5 317 Q535 274 535 224 Q535 173 517 130.5 Q499 88 466.5 56.5 Q434 25 388 7.5 Q342 -10 287 -10 Q228 -10 182 7.5 Q136 25 103.5 56.5 Q71 88 54 131 Q37 174 37 224 Q37 274 55 317 Q73 360 106 391.5 Q139 423 185 441 Q231 459 287 459 Z M288 351 Q261 351 239.5 341 Q218 331 203 314 Q188 297 180 274 Q172 251 172 226 Q172 169 202 133.5 Q232 98 288 98 Q343 98 374 135 Q405 172 405 226 Q405 252 397 274.5 Q389 297 373.5 314 Q358 331 336.5 341 Q315 351 288 351 Z M233 525 L352 705 L448 661 L310 525 L233 525 Z " />
<glyph glyph-name="upsilontonos" unicode="&#x3cd;" horiz-adv-x="555" d="M213 525 L332 705 L428 661 L290 525 L213 525 Z M362 445 L499 445 L499 217 Q499 153 479.5 109.5 Q460 66 428.5 39.5 Q397 13 356.5 1.5 Q316 -10 274 -10 Q173 -10 117 42 Q61 94 61 191 L61 445 L195 445 L195 193 Q195 175 199.5 157.5 Q204 140 214 126.5 Q224 113 239.5 104.5 Q255 96 278 96 Q322 96 342 124.5 Q362 153 362 201 L362 445 Z " />
<glyph glyph-name="upsilondieresistonos" unicode="&#x3b0;" horiz-adv-x="548" d="M356 445 L493 445 L493 217 Q493 153 473.5 109.5 Q454 66 422.5 39.5 Q391 13 350.5 1.5 Q310 -10 268 -10 Q167 -10 111 42 Q55 94 55 191 L55 445 L189 445 L189 193 Q189 175 193.5 157.5 Q198 140 208 126.5 Q218 113 233.5 104.5 Q249 96 272 96 Q316 96 336 124.5 Q356 153 356 201 L356 445 Z M196 599 Q196 573 178.5 554.5 Q161 536 134 536 Q105 536 88 554.5 Q71 573 71 599 Q71 627 90.5 644 Q110 661 134 661 Q161 661 178.5 643 Q196 625 196 599 Z M492 599 Q492 573 475 554.5 Q458 536 430 536 Q401 536 384.5 554.5 Q368 573 368 599 Q368 627 387 644 Q406 661 430 661 Q458 661 475 643 Q492 625 492 599 Z M173 525 Q202 570 232 614.5 Q262 659 292 705 L388 661 L250 525 L173 525 Z " />
<glyph glyph-name="guilsinglleft" unicode="&#x2039;" horiz-adv-x="310" d="M285 13 L161 13 L33 201 L33 211 L162 399 L285 399 L150 209 L285 13 Z " />
<glyph glyph-name="guilsinglright" unicode="&#x203a;" horiz-adv-x="310" d="M163 209 L28 399 L150 399 L280 211 L280 201 L152 13 L28 13 L163 209 Z " />
<glyph glyph-name="logicalnot" unicode="&#xac;" horiz-adv-x="572" d="M490 86 L405 86 L405 252 L81 252 L81 333 L490 333 L490 86 Z " />
<glyph glyph-name="tilde" unicode="&#x2dc;" horiz-adv-x="507" d="M418 610 Q405 575 382.5 551 Q360 527 327 527 Q309 527 291 535 Q273 543 256 552 Q239 561 223.5 569 Q208 577 194 577 Q179 577 164.5 562.5 Q150 548 138 522 L97 577 Q103 593 112.5 608 Q122 623 134 635 Q146 647 160.5 654 Q175 661 192 661 Q209 661 226.5 653 Q244 645 260.5 635 Q277 625 293 617 Q309 609 324 609 Q342 609 355 624 Q368 639 381 665 L418 610 Z " />
<glyph glyph-name="primemod" unicode="&#x2b9;" horiz-adv-x="256" d="M20 338 Q52 415 82.5 491.5 Q113 568 145 646 L239 602 L94 338 L20 338 Z " />
<glyph glyph-name="caron" unicode="&#x2c7;" horiz-adv-x="507" d="M420 683 L267 509 L246 509 L88 683 L188 683 L253 610 L315 683 L420 683 Z " />
<glyph glyph-name="breve" unicode="&#x2d8;" horiz-adv-x="527" d="M260 516 Q222 516 193.5 529.5 Q165 543 146.5 565.5 Q128 588 118 617 Q108 646 107 677 L176 677 Q178 634 202 611.5 Q226 589 262 589 Q300 589 320.5 615 Q341 641 346 677 L414 677 Q412 648 402.5 619.5 Q393 591 374.5 568 Q356 545 328 530.5 Q300 516 260 516 Z " />
<glyph glyph-name="dotaccent" unicode="&#x2d9;" horiz-adv-x="505" d="M350 596 Q350 565 329.5 542.5 Q309 520 276 520 Q241 520 221 542.5 Q201 565 201 594 Q201 627 224 648 Q247 669 276 669 Q308 669 329 647 Q350 625 350 596 Z " />
<glyph glyph-name="ring" unicode="&#x2da;" horiz-adv-x="511" d="M261 509 Q209 509 177 541 Q145 573 145 620 Q145 644 154 665.5 Q163 687 178.5 703 Q194 719 215.5 728 Q237 737 261 737 Q286 737 308 728 Q330 719 346 703 Q362 687 371 665.5 Q380 644 380 620 Q380 596 371 576 Q362 556 346 541 Q330 526 308 517.5 Q286 509 261 509 Z M261 672 Q241 672 228 656.5 Q215 641 215 620 Q215 601 228 587.5 Q241 574 261 574 Q283 574 296 587.5 Q309 601 309 620 Q309 641 296 656.5 Q283 672 261 672 Z " />
<glyph glyph-name="ogonek" unicode="&#x2db;" horiz-adv-x="530" d="M400 20 Q361 -11 335.5 -49 Q310 -87 310 -117 Q310 -143 326.5 -154.5 Q343 -166 368 -166 Q391 -166 419 -156.5 Q447 -147 467 -136 L465 -197 Q437 -214 400 -223 Q363 -232 331 -232 Q278 -232 251 -210 Q224 -188 224 -147 Q224 -131 231.5 -107 Q239 -83 256.5 -57 Q274 -31 304 -4.5 Q334 22 379 44 L400 20 Z " />
<glyph glyph-name="hungarumlaut" unicode="&#x2dd;" horiz-adv-x="507" d="M253 525 L371 705 L467 661 L329 525 L253 525 Z M112 525 Q142 570 171.5 614.5 Q201 659 230 705 L327 661 L188 525 L112 525 Z " />
<glyph glyph-name="Circumflex" unicode="&#xf6c0;" horiz-adv-x="799" d="M470 717 L407 786 L339 717 L234 717 L399 882 L420 882 L579 717 L470 717 Z " />
<glyph glyph-name="commaaccent" unicode="&#xf6c3;" horiz-adv-x="624" d="M251 -110 Q251 -81 270.5 -62 Q290 -43 316 -43 Q346 -43 364 -63 Q382 -83 382 -114 Q382 -135 373 -160.5 Q364 -186 351 -212 Q338 -238 323 -261.5 Q308 -285 295 -301 L247 -293 L293 -171 Q271 -163 261 -146.5 Q251 -130 251 -110 Z " />
<glyph glyph-name="Acute" unicode="&#xf6c9;" horiz-adv-x="827" d="M333 718 Q366 761 399.5 803.5 Q433 846 466 890 L569 846 Q531 814 494 782 Q457 750 419 718 L333 718 Z " />
<glyph glyph-name="Caron" unicode="&#xf6ca;" horiz-adv-x="799" d="M571 878 L412 714 L391 714 L227 878 L332 878 L400 807 L463 878 L571 878 Z " />
<glyph glyph-name="Dieresis" unicode="&#xf6cb;" horiz-adv-x="791" d="M369 794 Q369 768 351.5 749 Q334 730 306 730 Q277 730 260 748.5 Q243 767 243 792 Q243 821 262.5 838.5 Q282 856 306 856 Q334 856 351.5 837.5 Q369 819 369 794 Z M555 794 Q555 768 538 749 Q521 730 493 730 Q464 730 447.5 748.5 Q431 767 431 792 Q431 821 450 838.5 Q469 856 493 856 Q521 856 538 837.5 Q555 819 555 794 Z " />
<glyph glyph-name="Grave" unicode="&#xf6ce;" horiz-adv-x="799" d="M387 718 Q349 750 312 782 Q275 814 237 846 Q263 857 288 868 Q313 879 339 890 L472 718 L387 718 Z " />
<glyph glyph-name="Hungarumlaut" unicode="&#xf6cf;" horiz-adv-x="827" d="M410 718 Q443 761 476.5 803.5 Q510 846 543 890 Q569 879 594.5 868 Q620 857 645 846 Q608 814 571 782 Q534 750 496 718 L410 718 Z M265 718 Q298 761 331.5 803.5 Q365 846 398 890 Q424 879 449.5 868 Q475 857 500 846 Q462 814 425.5 782 Q389 750 351 718 L265 718 Z " />
<glyph glyph-name="Macron" unicode="&#xf6d0;" horiz-adv-x="799" d="M237 830 L554 830 L554 744 L237 744 L237 830 Z " />
<glyph glyph-name="ff" unicode="&#xfb00;" horiz-adv-x="621" d="M79 514 Q79 608 131.5 663.5 Q184 719 287 719 Q311 719 351.5 713 Q392 707 434 686 Q480 725 568 725 Q597 725 618 721 Q639 717 659 712 L659 607 Q639 615 620.5 618 Q602 621 586 621 Q535 621 514.5 592.5 Q494 564 494 516 L494 446 L622 446 L622 344 L494 344 L494 0 L360 0 L360 344 L212 344 L212 0 L79 0 L79 344 L5 344 L5 433 L79 446 L79 514 Z M360 519 Q360 545 363 564.5 Q366 584 371 601 Q348 609 328.5 611.5 Q309 614 292 614 Q271 614 255.5 605.5 Q240 597 230.5 583 Q221 569 216.5 550.5 Q212 532 212 512 L212 446 L360 446 L360 519 Z " />
<glyph glyph-name="fi" unicode="&#xfb01;" horiz-adv-x="536" d="M346 0 L346 345 L213 345 L213 0 L79 0 L79 345 L5 345 L5 434 L79 446 L79 532 Q79 635 134.5 687 Q190 739 298 739 Q334 739 375 733 Q416 727 451 711 L451 601 Q417 618 382 625.5 Q347 633 318 633 Q261 633 237 604.5 Q213 576 213 525 L213 446 L482 446 L482 0 L346 0 Z " />
<glyph glyph-name="fl" unicode="&#xfb02;" horiz-adv-x="546" d="M309 344 L212 344 L212 0 L79 0 L79 344 L5 344 L5 433 L79 446 L79 529 Q79 625 132 680.5 Q185 736 291 736 Q312 736 337.5 734.5 Q363 733 389 730 Q415 727 441 722.5 Q467 718 490 713 L490 0 L355 0 L355 623 Q342 627 331.5 628 Q321 629 312 629 Q258 629 235 600.5 Q212 572 212 522 L212 445 L309 445 L309 344 Z " />
<glyph glyph-name="ffi" unicode="&#xfb03;" horiz-adv-x="822" d="M491 446 Q560 446 628 445.5 Q696 445 765 445 L765 0 L629 0 L629 344 L491 344 L491 0 L357 0 L357 344 L212 344 L212 0 L79 0 L79 344 L5 344 L5 433 L79 446 L79 516 Q79 609 131.5 664.5 Q184 720 286 720 Q313 720 349.5 714.5 Q386 709 422 693 Q451 716 494 726.5 Q537 737 589 737 Q620 737 657.5 731.5 Q695 726 729 711 L729 600 Q695 617 660.5 625 Q626 633 597 633 Q539 633 515 604 Q491 575 491 524 L491 446 Z M357 531 Q357 550 359.5 568 Q362 586 367 602 Q348 609 333 612.5 Q318 616 303 616 Q253 616 232.5 587.5 Q212 559 212 513 L212 446 L357 446 L357 531 Z " />
<glyph glyph-name="ffl" unicode="&#xfb04;" horiz-adv-x="827" d="M586 344 L489 344 L489 0 L355 0 L355 344 L212 344 L212 0 L79 0 L79 344 L5 344 L5 433 L79 446 L79 490 Q79 542 90.5 584.5 Q102 627 126.5 657 Q151 687 190.5 703.5 Q230 720 286 720 Q318 720 353 713.5 Q388 707 422 692 Q448 713 485 724.5 Q522 736 570 736 Q584 736 607.5 735 Q631 734 659 731.5 Q687 729 716 724.5 Q745 720 771 713 L771 0 L636 0 L636 623 Q624 627 612 628 Q600 629 592 629 Q535 629 512 600.5 Q489 572 489 522 L489 445 L586 445 L586 344 Z M355 529 Q355 549 357.5 567.5 Q360 586 366 603 Q348 611 332 613.5 Q316 616 304 616 Q254 616 233 587.5 Q212 559 212 513 L212 446 L355 446 L355 529 Z " />
<glyph glyph-name="longs_t" unicode="&#xfb05;" horiz-adv-x="632" d="M212 0 L79 0 L79 344 L5 344 L5 433 L79 446 L79 524 Q79 616 130 671 Q181 726 283 726 Q310 726 340 721 Q370 716 403 702 L403 597 Q372 612 348.5 617 Q325 622 304 622 Q252 622 232 593 Q212 564 212 517 L212 0 Z M483 591 L483 445 L602 445 L602 345 L483 345 L483 168 Q483 133 496 116 Q509 99 541 99 Q555 99 575 104.5 Q595 110 617 123 L617 20 Q590 3 558 -4 Q526 -11 500 -11 Q418 -11 383.5 31 Q349 73 349 145 L349 345 L280 345 L280 420 L364 447 L461 591 L483 591 Z " />
<glyph glyph-name="paragraph" unicode="&#xb6;" horiz-adv-x="573" d="M259 269 Q213 269 174.5 285 Q136 301 108.5 329 Q81 357 65.5 394.5 Q50 432 50 475 Q50 517 66 554.5 Q82 592 110 619.5 Q138 647 176 663 Q214 679 259 679 L338 679 L338 269 L259 269 Z M301 -194 Q290 -168 279.5 -142.5 Q269 -117 258 -91 Q295 -89 319 -79.5 Q343 -70 357 -52.5 Q371 -35 377 -9 Q383 17 383 53 L383 679 L512 679 L512 44 Q512 -21 495 -65 Q478 -109 449 -137 Q420 -165 382 -178 Q344 -191 301 -194 Z " />
<glyph glyph-name="quotesinglbase" unicode="&#x201a;" horiz-adv-x="239" d="M52 58 Q52 89 72.5 110 Q93 131 122 131 Q154 131 173.5 111 Q193 91 193 61 Q193 37 183 7.5 Q173 -22 158 -52 Q143 -82 125.5 -109.5 Q108 -137 94 -156 L42 -148 L97 -7 Q74 1 63 19 Q52 37 52 58 Z " />
<glyph glyph-name="quotedblbase" unicode="&#x201e;" horiz-adv-x="405" d="M51 58 Q51 89 72 110 Q93 131 122 131 Q153 131 173 111 Q193 91 193 61 Q193 37 183 7.5 Q173 -22 158 -52 Q143 -82 125.5 -109.5 Q108 -137 93 -156 L41 -148 L97 -7 Q74 1 62.5 19 Q51 37 51 58 Z M218 58 Q218 89 238.5 110 Q259 131 288 131 Q320 131 340 111 Q360 91 360 61 Q360 37 350 7.5 Q340 -22 325 -52 Q310 -82 292.5 -109.5 Q275 -137 260 -156 L208 -148 L263 -7 Q240 1 229 19 Q218 37 218 58 Z " />
<glyph glyph-name="ellipsis" unicode="&#x2026;" horiz-adv-x="713" d="M201 61 Q201 32 180 11 Q159 -10 131 -10 Q100 -10 78.5 11 Q57 32 57 61 Q57 91 78.5 112 Q100 133 131 133 Q160 133 180.5 112 Q201 91 201 61 Z M430 61 Q430 32 409 11 Q388 -10 359 -10 Q329 -10 307.5 11 Q286 32 286 61 Q286 91 307.5 112 Q329 133 359 133 Q388 133 409 112 Q430 91 430 61 Z M659 61 Q659 32 637.5 11 Q616 -10 587 -10 Q558 -10 536.5 11 Q515 32 515 61 Q515 91 536.5 112 Q558 133 587 133 Q617 133 638 112 Q659 91 659 61 Z " />
<glyph glyph-name="dagger" unicode="&#x2020;" horiz-adv-x="567" d="M58 494 L212 494 L212 676 L347 676 L347 494 L507 494 L507 383 L348 383 L348 -115 L213 -115 L213 383 L58 383 L58 494 Z " />
<glyph glyph-name="daggerdbl" unicode="&#x2021;" horiz-adv-x="567" d="M58 499 L212 499 L212 676 L346 676 L346 499 L507 499 L507 391 L347 391 L347 199 L507 199 L507 89 L347 89 L347 -115 L213 -115 L213 89 L58 89 L58 199 L213 199 L213 391 L58 391 L58 499 Z " />
<glyph glyph-name="brokenbar" unicode="&#xa6;" horiz-adv-x="329" d="M116 385 L116 745 L215 745 L215 385 L116 385 Z M215 263 L215 -145 L116 -145 L116 263 L215 263 Z " />
<glyph glyph-name="divide" unicode="&#xf7;" horiz-adv-x="572" d="M355 451 Q355 423 335 403 Q315 383 286 383 Q258 383 238 403 Q218 423 218 451 Q218 480 237.5 500 Q257 520 286 520 Q315 520 335 500 Q355 480 355 451 Z M80 254 L80 336 L490 336 L490 254 L80 254 Z M355 139 Q355 110 335 90.5 Q315 71 286 71 Q258 71 238 91 Q218 111 218 139 Q218 168 237.5 187.5 Q257 207 286 207 Q315 207 335 187.5 Q355 168 355 139 Z " />
<glyph glyph-name="multiply" unicode="&#xd7;" horiz-adv-x="572" d="M287 231 Q229 171 169 113 L111 172 Q168 230 228 289 L113 405 L170 462 L285 347 L400 462 Q415 448 429.5 433 Q444 418 459 403 L345 287 L459 173 L402 115 L287 231 L287 231 Z " />
<glyph glyph-name="cedilla" unicode="&#xb8;" horiz-adv-x="438" d="M349 -141 Q349 -158 341.5 -176 Q334 -194 318 -209 Q302 -224 276.5 -233.5 Q251 -243 215 -243 Q172 -243 128 -227 L128 -165 Q145 -173 165.5 -178 Q186 -183 209 -183 Q234 -183 250 -171.5 Q266 -160 266 -141 Q266 -121 249.5 -112.5 Q233 -104 213 -104 Q195 -104 178 -111 Q173 -107 168.5 -104 Q164 -101 159 -96 Q176 -62 193 -29 Q210 4 228 37 Q240 34 252.5 31 Q265 28 277 24 L235 -51 Q266 -53 287.5 -61 Q309 -69 322.5 -81.5 Q336 -94 342.5 -109.5 Q349 -125 349 -141 Z " />
<glyph glyph-name="macron" unicode="&#xaf;" horiz-adv-x="527" d="M106 628 L415 628 L415 544 L106 544 L106 628 Z " />
<glyph glyph-name="questiondown" unicode="&#xbf;" horiz-adv-x="522" d="M208 -49 Q208 -85 235.5 -109 Q263 -133 313 -133 Q357 -133 399.5 -119 Q442 -105 474 -87 L474 -208 Q424 -229 377.5 -237.5 Q331 -246 292 -246 Q236 -246 193.5 -232 Q151 -218 121.5 -193 Q92 -168 77 -135 Q62 -102 62 -63 Q62 -27 77 3 Q92 33 115 58.5 Q138 84 164.5 106.5 Q191 129 214 149.5 Q237 170 252 189.5 Q267 209 267 229 Q267 244 258 259 L367 279 Q385 243 385 215 Q385 186 372 162.5 Q359 139 339 118 Q319 97 296.5 77.5 Q274 58 254 38.5 Q234 19 221 -2.5 Q208 -24 208 -49 Z M233 389 Q233 418 253.5 438.5 Q274 459 303 459 Q337 459 356 438.5 Q375 418 375 389 Q375 359 355 338.5 Q335 318 303 318 Q272 318 252.5 338.5 Q233 359 233 389 Z " />
<glyph glyph-name="exclamdown" unicode="&#xa1;" horiz-adv-x="317" d="M214 260 L227 -243 L89 -243 L104 260 L214 260 Z M230 389 Q230 359 209 338 Q188 317 159 317 Q129 317 107.5 338 Q86 359 86 389 Q86 418 107.5 438.5 Q129 459 159 459 Q188 459 209 438.5 Q230 418 230 389 Z " />
<glyph glyph-name="florin" unicode="&#x192;" horiz-adv-x="572" d="M141 403 L231 403 L239 476 Q249 580 295 627 Q341 674 419 674 Q442 674 467 670.5 Q492 667 521 658 L521 549 Q505 554 489.5 556.5 Q474 559 458 559 Q423 559 402 538.5 Q381 518 375 468 L368 403 L472 403 L472 312 L359 312 L342 153 Q334 84 320 36 Q306 -12 282.5 -42 Q259 -72 226.5 -85.5 Q194 -99 151 -99 Q125 -99 101 -94.5 Q77 -90 47 -79 L47 36 Q89 20 117 20 Q139 20 154 28.5 Q169 37 179 57.5 Q189 78 195 111.5 Q201 145 207 196 L221 312 L141 312 L141 403 Z " />
<glyph glyph-name="Iotadieresis" unicode="&#x3aa;" horiz-adv-x="295" d="M72 0 L72 660 L221 660 L221 0 L72 0 Z M118 794 Q118 768 100.5 749 Q83 730 55 730 Q26 730 9 748.5 Q-8 767 -8 792 Q-8 821 11.5 838.5 Q31 856 55 856 Q83 856 100.5 837.5 Q118 819 118 794 Z M304 794 Q304 768 287 749 Q270 730 242 730 Q213 730 196.5 748.5 Q180 767 180 792 Q180 821 199 838.5 Q218 856 242 856 Q270 856 287 837.5 Q304 819 304 794 Z " />
<glyph glyph-name="Upsilondieresis" unicode="&#x3ab;" horiz-adv-x="611" d="M314 382 L444 660 L603 660 L383 261 L383 0 L234 0 L234 261 L7 660 L168 660 L310 382 L314 382 Z M282 782 Q282 756 264.5 737 Q247 718 219 718 Q190 718 173 736.5 Q156 755 156 780 Q156 809 175.5 826.5 Q195 844 219 844 Q247 844 264.5 825.5 Q282 807 282 782 Z M468 782 Q468 756 451 737 Q434 718 406 718 Q377 718 360.5 736.5 Q344 755 344 780 Q344 809 363 826.5 Q382 844 406 844 Q434 844 451 825.5 Q468 807 468 782 Z " />
<glyph glyph-name="bullet" unicode="&#x2022;" horiz-adv-x="483" d="M104 241 Q104 269 115 294.5 Q126 320 144.5 338.5 Q163 357 188 368 Q213 379 242 379 Q271 379 296.5 368 Q322 357 340.5 338.5 Q359 320 370 294.5 Q381 269 381 241 Q381 212 370 187 Q359 162 340.5 143 Q322 124 296.5 113.5 Q271 103 242 103 Q213 103 188 113.5 Q163 124 144.5 143 Q126 162 115 187 Q104 212 104 241 Z " />
<glyph glyph-name="Alphatonos" unicode="&#x386;" horiz-adv-x="662" d="M457 104 L204 104 L158 0 L10 0 L323 672 L345 672 L653 0 L502 0 L457 104 Z M249 206 L413 206 L334 389 L330 389 L249 206 Z M-18 510 L101 690 L197 646 L59 510 L-18 510 Z " />
<glyph glyph-name="anoteleia" unicode="&#x387;" horiz-adv-x="257" d="M197 339 Q197 310 176 289 Q155 268 126 268 Q97 268 75.5 289 Q54 310 54 339 Q54 369 75.5 390 Q97 411 126 411 Q155 411 176 390 Q197 369 197 339 Z " />
<glyph glyph-name="Epsilontonos" unicode="&#x388;" horiz-adv-x="569" d="M533 0 L67 0 L67 660 L514 660 L514 545 L216 545 L216 399 L483 399 L483 288 L216 288 L216 115 L533 115 L533 0 Z M-186 510 L-67 690 L29 646 L-109 510 L-186 510 Z " />
<glyph glyph-name="Etatonos" unicode="&#x389;" horiz-adv-x="694" d="M477 0 L477 285 L216 285 L216 0 L67 0 L67 660 L216 660 L216 401 L477 401 L477 660 L626 660 L626 0 L477 0 Z M-187 510 L-68 690 L28 646 L-110 510 L-187 510 Z " />
<glyph glyph-name="Iotatonos" unicode="&#x38a;" horiz-adv-x="295" d="M72 0 L72 660 L221 660 L221 0 L72 0 Z M-177 510 L-58 690 L38 646 L-100 510 L-177 510 Z " />
<glyph glyph-name="Omicrontonos" unicode="&#x38c;" horiz-adv-x="799" d="M399 -11 Q316 -11 250.5 15 Q185 41 139 87 Q93 133 68.5 195.5 Q44 258 44 330 Q44 402 71 464 Q98 526 145.5 572.5 Q193 619 258 645.5 Q323 672 400 672 Q478 672 543 645.5 Q608 619 654.5 572.5 Q701 526 727 464 Q753 402 753 330 Q753 258 727 195.5 Q701 133 654 87 Q607 41 542 15 Q477 -11 399 -11 Z M401 549 Q354 549 316 532 Q278 515 251 485.5 Q224 456 209 416 Q194 376 194 330 Q194 283 208.5 242.5 Q223 202 250 172 Q277 142 315 125 Q353 108 401 108 Q448 108 486 125.5 Q524 143 550.5 173 Q577 203 591.5 243.5 Q606 284 606 330 Q606 375 591.5 415 Q577 455 550.5 485 Q524 515 486 532 Q448 549 401 549 Z M-132 510 L-13 690 L83 646 L-55 510 L-132 510 Z " />
<glyph glyph-name="Upsilontonos" unicode="&#x38e;" horiz-adv-x="611" d="M314 382 L444 660 L603 660 L383 261 L383 0 L234 0 L234 261 L7 660 L168 660 L310 382 L314 382 Z M-222 510 L-103 690 L-7 646 L-145 510 L-222 510 Z " />
<glyph glyph-name="Omegatonos" unicode="&#x38f;" horiz-adv-x="795" d="M399 550 Q350 550 311.5 531.5 Q273 513 247 481.5 Q221 450 207 407 Q193 364 193 316 Q193 276 202.5 232 Q212 188 230 147.5 Q248 107 274 73 Q300 39 333 18 L333 0 L32 0 L32 114 L130 114 Q132 116 132 118 Q89 166 68.5 225 Q48 284 48 345 Q48 415 73.5 475 Q99 535 145 579 Q191 623 256 648 Q321 673 399 673 Q477 673 540.5 648 Q604 623 650 579.5 Q696 536 721 477 Q746 418 746 350 Q746 290 725.5 229.5 Q705 169 661 118 Q662 117 662 114 L759 114 L759 0 L458 0 L458 18 Q494 38 521 72 Q548 106 566 146.5 Q584 187 593 230.5 Q602 274 602 314 Q602 360 589.5 402.5 Q577 445 551.5 478 Q526 511 488 530.5 Q450 550 399 550 Z M-141 509 L-22 689 L74 645 L-64 509 L-141 509 Z " />
<glyph glyph-name="omegatonos" unicode="&#x3ce;" horiz-adv-x="770" d="M732 220 Q732 176 719.5 134.5 Q707 93 682 61 Q657 29 619 10 Q581 -9 529 -9 Q484 -9 445 8 Q406 25 384 61 L379 61 Q355 30 318.5 10.5 Q282 -9 234 -9 Q184 -9 147 8 Q110 25 85.5 55.5 Q61 86 48.5 127.5 Q36 169 36 217 Q36 265 50 307.5 Q64 350 91 382 Q118 414 158 434 Q198 454 251 457 L285 366 Q259 363 238.5 351 Q218 339 203.5 319.5 Q189 300 181.5 274.5 Q174 249 174 220 Q174 167 192 132.5 Q210 98 255 98 Q293 98 311 124 Q329 150 329 184 L329 301 L439 301 L439 181 Q439 139 460.5 118.5 Q482 98 511 98 Q549 98 572 129 Q595 160 595 220 Q595 249 587 274.5 Q579 300 564.5 319.5 Q550 339 530 351 Q510 363 485 366 L520 457 Q573 454 613 434 Q653 414 679.5 382.5 Q706 351 719 309.5 Q732 268 732 220 Z M327 521 L446 701 L542 657 L404 521 L327 521 Z " />
<glyph glyph-name="epsilontonos" unicode="&#x3ad;" horiz-adv-x="421" d="M145 525 L264 705 L360 661 L222 525 L145 525 Z M222 -10 Q171 -10 135 0 Q99 10 75.5 27.5 Q52 45 41 68.5 Q30 92 30 118 Q30 149 48.5 182 Q67 215 112 234 L112 238 Q74 251 56.5 276 Q39 301 39 329 Q39 356 51 380 Q63 404 87 421.5 Q111 439 146 449.5 Q181 460 227 460 Q259 460 298 453.5 Q337 447 376 432 L376 324 Q363 332 346.5 338 Q330 344 313 348 Q296 352 279.5 354 Q263 356 249 356 Q217 356 193.5 345.5 Q170 335 170 312 Q170 301 180 292.5 Q190 284 214 284 L285 284 L285 190 L242 190 Q202 190 184.5 175 Q167 160 167 140 Q167 122 187 107.5 Q207 93 255 93 Q284 93 324 104 Q364 115 396 138 L396 29 Q355 7 307.5 -1.5 Q260 -10 222 -10 Z " />
<glyph glyph-name="currency" unicode="&#xa4;" horiz-adv-x="572" d="M85 289 Q85 315 93 343 Q101 371 115 394 L58 452 Q75 468 90 484 Q105 500 122 516 L178 458 Q228 489 284 489 Q342 489 391 457 L447 514 Q464 498 479.5 483 Q495 468 511 451 Q497 437 482.5 422.5 Q468 408 454 393 Q468 370 475.5 343.5 Q483 317 483 289 Q483 262 475 235 Q467 208 453 185 L512 129 L447 64 L390 120 Q366 106 339.5 98 Q313 90 284 90 Q255 90 228.5 98 Q202 106 178 120 L123 64 L59 129 L115 184 Q100 207 92.5 233.5 Q85 260 85 289 Z M173 289 Q173 266 181.5 246 Q190 226 205 211 Q220 196 240 187.5 Q260 179 283 179 Q306 179 326.5 187.5 Q347 196 362 211 Q377 226 385.5 246 Q394 266 394 289 Q394 312 385.5 332 Q377 352 362 367 Q347 382 327 391 Q307 400 283 400 Q260 400 240 391 Q220 382 205 367 Q190 352 181.5 332 Q173 312 173 289 Z " />
<glyph glyph-name="Oslash" unicode="&#xd8;" horiz-adv-x="799" d="M399 -12 Q285 -12 202 39 L171 0 L109 0 L162 66 Q105 113 75 181 Q45 249 45 331 Q45 403 72 465 Q99 527 146 573.5 Q193 620 258 646.5 Q323 673 400 673 Q459 673 510 658 Q561 643 603 615 L639 661 L699 661 L640 587 Q694 539 723.5 473.5 Q753 408 753 331 Q753 259 727 196 Q701 133 654.5 87 Q608 41 542.5 14.5 Q477 -12 399 -12 Z M191 331 Q191 234 247 172 L522 516 Q498 533 467.5 543 Q437 553 402 553 Q355 553 316 535.5 Q277 518 249 488 Q221 458 206 417.5 Q191 377 191 331 Z M402 105 Q450 105 488.5 122.5 Q527 140 554 171 Q581 202 595.5 243 Q610 284 610 331 Q610 375 596 413.5 Q582 452 556 482 L282 139 Q306 123 336.5 114 Q367 105 402 105 Z " />
<glyph glyph-name="oslash" unicode="&#xf8;" horiz-adv-x="568" d="M285 459 Q329 459 366 448.5 Q403 438 432 418 L457 445 L510 445 L463 392 Q497 360 515 317.5 Q533 275 533 224 Q533 173 515 130.5 Q497 88 464.5 56.5 Q432 25 386 7.5 Q340 -10 285 -10 Q202 -10 143 26 L120 0 L65 0 L110 50 Q73 82 54 126 Q35 170 35 224 Q35 274 53 317 Q71 360 104 391.5 Q137 423 183 441 Q229 459 285 459 Z M287 357 Q259 357 236.5 346.5 Q214 336 198.5 318 Q183 300 174.5 276.5 Q166 253 166 226 Q166 176 189 142 L359 333 Q327 357 287 357 Z M407 226 Q407 247 401.5 266.5 Q396 286 386 302 L216 111 Q246 92 287 92 Q315 92 337 102.5 Q359 113 374.5 131 Q390 149 398.5 173.5 Q407 198 407 226 Z " />
<glyph glyph-name="ae" unicode="&#xe6;" horiz-adv-x="814" d="M558 461 Q663 461 722 400 Q781 339 781 232 L781 201 L463 201 Q464 169 475.5 147 Q487 125 505.5 111 Q524 97 548 90.5 Q572 84 598 84 Q633 84 672.5 93.5 Q712 103 758 134 L758 37 Q720 12 675.5 0.5 Q631 -11 583 -11 Q517 -11 466.5 11.5 Q416 34 388 77 Q370 51 346.5 33.5 Q323 16 297.5 5.5 Q272 -5 246 -9 Q220 -13 195 -13 Q153 -13 121 -2.5 Q89 8 68 25.5 Q47 43 36 66.5 Q25 90 25 116 Q25 153 39 181.5 Q53 210 78.5 229.5 Q104 249 139 259.5 Q174 270 215 270 L322 271 L322 281 Q322 321 298 341.5 Q274 362 220 362 Q195 362 155.5 353 Q116 344 79 324 L79 425 Q112 440 159.5 450 Q207 460 251 460 Q361 460 406 394 Q436 426 475 443.5 Q514 461 558 461 Z M157 137 Q157 108 177 92.5 Q197 77 229 77 Q276 77 300 109.5 Q324 142 324 189 L324 199 L263 199 Q243 199 224 197 Q205 195 190 188.5 Q175 182 166 169.5 Q157 157 157 137 Z M564 363 Q521 363 494.5 339 Q468 315 465 270 L659 270 Q652 363 564 363 Z " />
<glyph glyph-name="thorn" unicode="&#xfe;" horiz-adv-x="593" d="M186 40 L186 -216 L52 -216 L52 711 L186 711 L186 394 Q190 392 191 392 Q219 426 258.5 440.5 Q298 455 339 455 Q394 455 435.5 437 Q477 419 505 387.5 Q533 356 546.5 314 Q560 272 560 224 Q560 172 542.5 129 Q525 86 494 55.5 Q463 25 421.5 8 Q380 -9 332 -9 Q295 -9 256 3 Q217 15 191 44 L186 40 Z M310 94 Q336 94 357.5 104 Q379 114 394 131 Q409 148 417.5 171.5 Q426 195 426 222 Q426 279 395.5 314.5 Q365 350 310 350 Q283 350 261.5 340 Q240 330 225 312.5 Q210 295 202 271.5 Q194 248 194 221 Q194 195 202 172 Q210 149 225 131.5 Q240 114 261.5 104 Q283 94 310 94 Z " />
<glyph glyph-name="Thorn" unicode="&#xde;" horiz-adv-x="590" d="M570 357 Q570 323 557.5 285.5 Q545 248 517 216 Q489 184 444.5 163 Q400 142 337 142 L216 142 L216 0 L68 0 L68 661 L216 661 L216 570 L332 570 Q390 570 434.5 552.5 Q479 535 509 506 Q539 477 554.5 438.5 Q570 400 570 357 Z M423 353 Q423 371 417.5 389.5 Q412 408 399 423 Q386 438 364.5 448 Q343 458 312 458 L216 458 L216 251 L312 251 Q366 251 394.5 280.5 Q423 310 423 353 Z " />
<glyph glyph-name="AE" unicode="&#xc6;" horiz-adv-x="945" d="M456 0 L456 113 L237 113 L150 0 L-8 0 L500 660 L891 660 L891 545 L593 545 L593 399 L859 399 L859 288 L593 288 L593 115 L910 115 L910 0 L456 0 Z M294 201 L459 201 L459 410 L455 410 L294 201 Z " />
<glyph glyph-name="Eth" unicode="&#xd0;" horiz-adv-x="697" d="M67 0 L67 299 L13 299 L13 375 L67 375 L67 660 L309 660 Q393 660 457 635 Q521 610 564 566 Q607 522 629 462 Q651 402 651 332 Q651 263 630 202.5 Q609 142 568 97 Q527 52 465.5 26 Q404 0 323 0 L67 0 Z M505 332 Q505 438 451.5 491.5 Q398 545 285 545 L215 545 L215 375 L362 375 L362 299 L215 299 L215 115 L287 115 Q399 115 452 168.5 Q505 222 505 332 Z " />
<glyph glyph-name="cent" unicode="&#xa2;" horiz-adv-x="556" d="M278 80 Q231 86 196 105.5 Q161 125 137 155 Q113 185 101 223.5 Q89 262 89 306 Q89 352 102.5 391 Q116 430 141 461 Q166 492 201 512.5 Q236 533 278 541 L278 653 L357 653 L357 546 Q381 544 406 539 Q431 534 451 526 L451 417 Q428 430 400 435 Q372 440 350 440 Q295 440 257.5 406 Q220 372 220 309 Q220 250 254.5 216.5 Q289 183 348 183 Q375 183 408 190.5 Q441 198 467 213 L467 107 Q447 96 417 88.5 Q387 81 357 78 L357 -31 L278 -31 L278 80 Z " />
<glyph glyph-name="periodcentered" unicode="&#xb7;" horiz-adv-x="257" d="M197 251 Q197 222 176 201 Q155 180 126 180 Q97 180 75.5 201 Q54 222 54 251 Q54 281 75.5 301.5 Q97 322 126 322 Q155 322 176 301.5 Q197 281 197 251 Z " />
<glyph glyph-name="Scaron" unicode="&#x160;" horiz-adv-x="538" d="M32 177 Q55 159 83 146 Q111 133 139 124 Q167 115 193.5 110.5 Q220 106 241 106 Q265 106 285.5 110 Q306 114 322 123 Q338 132 347 145.5 Q356 159 356 179 Q356 210 332.5 232 Q309 254 274 272 Q239 290 198.5 308 Q158 326 123 350.5 Q88 375 64.5 408.5 Q41 442 41 491 Q41 533 57.5 566.5 Q74 600 104 624 Q134 648 175 661 Q216 674 266 674 Q308 674 359.5 665 Q411 656 463 632 L463 504 Q445 516 422.5 526 Q400 536 377 542.5 Q354 549 331.5 553 Q309 557 290 557 Q250 557 220 542 Q190 527 190 492 Q190 469 213.5 452.5 Q237 436 272 420 Q307 404 347.5 385.5 Q388 367 423 340.5 Q458 314 481.5 275.5 Q505 237 505 182 Q505 142 490 107 Q475 72 444.5 45.5 Q414 19 368 3.5 Q322 -12 260 -12 Q234 -12 205 -9.5 Q176 -7 146 -0.5 Q116 6 86.5 16 Q57 26 32 41 L32 177 Z M432 878 L273 714 L252 714 L88 878 L193 878 L261 807 L324 878 L432 878 Z " />
<glyph glyph-name="Zcaron" unicode="&#x17d;" horiz-adv-x="577" d="M556 644 Q478 510 399.5 379 Q321 248 242 114 L547 114 L547 0 L17 0 L17 15 Q97 148 175.5 280 Q254 412 334 545 L58 545 L58 660 L556 660 L556 644 Z M482 878 L323 714 L302 714 L138 878 L243 878 L311 807 L374 878 L482 878 Z " />
<glyph glyph-name="scaron" unicode="&#x161;" horiz-adv-x="399" d="M22 142 Q57 116 100.5 101.5 Q144 87 175 87 Q241 87 241 123 Q241 139 225.5 151 Q210 163 187 175 Q164 187 137 199.5 Q110 212 87 229 Q64 246 48.5 269.5 Q33 293 33 327 Q33 357 45.5 381.5 Q58 406 80 423 Q102 440 133 449 Q164 458 201 458 Q229 458 269 451 Q309 444 348 427 L348 320 Q319 337 284 347 Q249 357 221 357 Q165 357 165 324 Q165 311 180.5 301.5 Q196 292 218.5 282 Q241 272 268 260 Q295 248 317.5 230.5 Q340 213 355.5 187.5 Q371 162 371 126 Q371 99 360 74.5 Q349 50 327 31 Q305 12 270.5 1 Q236 -10 190 -10 Q152 -10 106 -1.5 Q60 7 22 28 L22 142 Z M363 683 L210 509 L189 509 L31 683 L131 683 L196 610 L258 683 L363 683 Z " />
<glyph glyph-name="zcaron" unicode="&#x17e;" horiz-adv-x="441" d="M423 433 Q367 349 312.5 266.5 Q258 184 201 100 L413 100 L413 0 L12 0 L12 12 L234 344 L43 344 L43 445 L423 445 L423 433 Z M398 683 L245 509 L224 509 L66 683 L166 683 L231 610 L293 683 L398 683 Z " />
<glyph glyph-name="Ydieresis" unicode="&#x178;" horiz-adv-x="611" d="M314 382 L444 660 L603 660 L383 261 L383 0 L234 0 L234 261 L7 660 L168 660 L310 382 L314 382 Z M282 786 Q282 760 264.5 741 Q247 722 219 722 Q190 722 173 740.5 Q156 759 156 784 Q156 813 175.5 830.5 Q195 848 219 848 Q247 848 264.5 829.5 Q282 811 282 786 Z M468 786 Q468 760 451 741 Q434 722 406 722 Q377 722 360.5 740.5 Q344 759 344 784 Q344 813 363 830.5 Q382 848 406 848 Q434 848 451 829.5 Q468 811 468 786 Z " />
<glyph glyph-name="Agrave" unicode="&#xc0;" horiz-adv-x="662" d="M457 104 L204 104 L158 0 L10 0 L323 672 L345 672 L653 0 L502 0 L457 104 Z M249 206 L413 206 L334 389 L330 389 L249 206 Z M293 718 Q255 750 218 782 Q181 814 143 846 Q169 857 194 868 Q219 879 245 890 L378 718 L293 718 Z " />
<glyph glyph-name="Aacute" unicode="&#xc1;" horiz-adv-x="662" d="M457 104 L204 104 L158 0 L10 0 L323 672 L345 672 L653 0 L502 0 L457 104 Z M249 206 L413 206 L334 389 L330 389 L249 206 Z M279 718 Q312 761 345.5 803.5 Q379 846 412 890 L515 846 Q477 814 440 782 Q403 750 365 718 L279 718 Z " />
<glyph glyph-name="Acircumflex" unicode="&#xc2;" horiz-adv-x="662" d="M457 104 L204 104 L158 0 L10 0 L323 672 L345 672 L653 0 L502 0 L457 104 Z M249 206 L413 206 L334 389 L330 389 L249 206 Z M399 715 L336 784 L268 715 L163 715 L328 880 L349 880 L508 715 L399 715 Z " />
<glyph glyph-name="Atilde" unicode="&#xc3;" horiz-adv-x="662" d="M457 104 L204 104 L158 0 L10 0 L323 672 L345 672 L653 0 L502 0 L457 104 Z M249 206 L413 206 L334 389 L330 389 L249 206 Z M491 820 Q478 785 455.5 761 Q433 737 400 737 Q382 737 364 745 Q346 753 329 762 Q312 771 296.5 779 Q281 787 267 787 Q252 787 237.5 772.5 Q223 758 211 732 L170 787 Q176 803 185.5 818 Q195 833 207 845 Q219 857 233.5 864 Q248 871 265 871 Q282 871 299.5 863 Q317 855 333.5 845 Q350 835 366 827 Q382 819 397 819 Q415 819 428 834 Q441 849 454 875 L491 820 Z " />
<glyph glyph-name="Adieresis" unicode="&#xc4;" horiz-adv-x="662" d="M457 104 L204 104 L158 0 L10 0 L323 672 L345 672 L653 0 L502 0 L457 104 Z M249 206 L413 206 L334 389 L330 389 L249 206 Z M303 794 Q303 768 285.5 749 Q268 730 240 730 Q211 730 194 748.5 Q177 767 177 792 Q177 821 196.5 838.5 Q216 856 240 856 Q268 856 285.5 837.5 Q303 819 303 794 Z M489 794 Q489 768 472 749 Q455 730 427 730 Q398 730 381.5 748.5 Q365 767 365 792 Q365 821 384 838.5 Q403 856 427 856 Q455 856 472 837.5 Q489 819 489 794 Z " />
<glyph glyph-name="Aring" unicode="&#xc5;" horiz-adv-x="662" d="M457 104 L204 104 L158 0 L10 0 L319 663 Q273 668 245 698.5 Q217 729 217 773 Q217 797 226 818.5 Q235 840 250.5 856 Q266 872 287.5 881 Q309 890 333 890 Q358 890 380 881 Q402 872 418 856 Q434 840 443 818.5 Q452 797 452 773 Q452 729 423 698.5 Q394 668 349 663 L653 0 L502 0 L457 104 Z M249 206 L413 206 L334 389 L330 389 L249 206 Z M333 825 Q313 825 300 809.5 Q287 794 287 773 Q287 754 300 740.5 Q313 727 333 727 Q355 727 368 740.5 Q381 754 381 773 Q381 794 368 809.5 Q355 825 333 825 Z " />
<glyph glyph-name="Ccedilla" unicode="&#xc7;" horiz-adv-x="622" d="M479 -151 Q479 -168 471.5 -186 Q464 -204 448 -219 Q432 -234 406.5 -243.5 Q381 -253 345 -253 Q302 -253 258 -237 L258 -175 Q275 -183 295.5 -188 Q316 -193 339 -193 Q364 -193 380 -181.5 Q396 -170 396 -151 Q396 -131 379.5 -122.5 Q363 -114 343 -114 Q325 -114 308 -121 Q303 -117 298.5 -114 Q294 -111 289 -106 Q302 -81 314 -56.5 Q326 -32 339 -8 Q267 1 212.5 29.5 Q158 58 120.5 102.5 Q83 147 64 204 Q45 261 45 327 Q45 398 70 461 Q95 524 141.5 571 Q188 618 254 645.5 Q320 673 402 673 Q418 673 439.5 671.5 Q461 670 484 667 Q507 664 529 658.5 Q551 653 569 646 L569 521 Q531 538 493.5 545 Q456 552 423 552 Q377 552 336 537.5 Q295 523 264 494.5 Q233 466 214.5 424 Q196 382 196 327 Q196 223 255.5 166 Q315 109 415 109 Q456 109 501 120 Q546 131 589 153 L590 27 Q569 16 544 9 Q519 2 493.5 -3 Q468 -8 443.5 -10 Q419 -12 398 -12 L392 -12 L365 -61 Q396 -63 417.5 -71 Q439 -79 452.5 -91.5 Q466 -104 472.5 -119.5 Q479 -135 479 -151 Z " />
<glyph glyph-name="Egrave" unicode="&#xc8;" horiz-adv-x="569" d="M533 0 L67 0 L67 660 L514 660 L514 545 L216 545 L216 399 L483 399 L483 288 L216 288 L216 115 L533 115 L533 0 Z M296 718 Q258 750 221 782 Q184 814 146 846 Q172 857 197 868 Q222 879 248 890 L381 718 L296 718 Z " />
<glyph glyph-name="Eacute" unicode="&#xc9;" horiz-adv-x="569" d="M533 0 L67 0 L67 660 L514 660 L514 545 L216 545 L216 399 L483 399 L483 288 L216 288 L216 115 L533 115 L533 0 Z M212 718 Q245 761 278.5 803.5 Q312 846 345 890 L448 846 Q410 814 373 782 Q336 750 298 718 L212 718 Z " />
<glyph glyph-name="Ecircumflex" unicode="&#xca;" horiz-adv-x="569" d="M533 0 L67 0 L67 660 L514 660 L514 545 L216 545 L216 399 L483 399 L483 288 L216 288 L216 115 L533 115 L533 0 Z M357 717 L294 786 L226 717 L121 717 L286 882 L307 882 L466 717 L357 717 Z " />
<glyph glyph-name="Edieresis" unicode="&#xcb;" horiz-adv-x="569" d="M533 0 L67 0 L67 660 L514 660 L514 545 L216 545 L216 399 L483 399 L483 288 L216 288 L216 115 L533 115 L533 0 Z M258 794 Q258 768 240.5 749 Q223 730 195 730 Q166 730 149 748.5 Q132 767 132 792 Q132 821 151.5 838.5 Q171 856 195 856 Q223 856 240.5 837.5 Q258 819 258 794 Z M444 794 Q444 768 427 749 Q410 730 382 730 Q353 730 336.5 748.5 Q320 767 320 792 Q320 821 339 838.5 Q358 856 382 856 Q410 856 427 837.5 Q444 819 444 794 Z " />
<glyph glyph-name="Igrave" unicode="&#xcc;" horiz-adv-x="295" d="M72 0 L72 660 L221 660 L221 0 L72 0 Z M128 718 Q90 750 53 782 Q16 814 -22 846 Q4 857 29 868 Q54 879 80 890 L213 718 L128 718 Z " />
<glyph glyph-name="Iacute" unicode="&#xcd;" horiz-adv-x="295" d="M72 0 L72 660 L221 660 L221 0 L72 0 Z M91 718 Q124 761 157.5 803.5 Q191 846 224 890 L327 846 Q289 814 252 782 Q215 750 177 718 L91 718 Z " />
<glyph glyph-name="Icircumflex" unicode="&#xce;" horiz-adv-x="295" d="M72 0 L72 660 L221 660 L221 0 L72 0 Z M212 717 L149 786 L81 717 L-24 717 L141 882 L162 882 L321 717 L212 717 Z " />
<glyph glyph-name="Idieresis" unicode="&#xcf;" horiz-adv-x="295" d="M72 0 L72 660 L221 660 L221 0 L72 0 Z M118 794 Q118 768 100.5 749 Q83 730 55 730 Q26 730 9 748.5 Q-8 767 -8 792 Q-8 821 11.5 838.5 Q31 856 55 856 Q83 856 100.5 837.5 Q118 819 118 794 Z M304 794 Q304 768 287 749 Q270 730 242 730 Q213 730 196.5 748.5 Q180 767 180 792 Q180 821 199 838.5 Q218 856 242 856 Q270 856 287 837.5 Q304 819 304 794 Z " />
<glyph glyph-name="Ntilde" unicode="&#xd1;" horiz-adv-x="721" d="M67 0 L67 673 L89 673 Q192 572 294.5 482 Q397 392 501 291 L505 291 L505 660 L653 660 L653 -11 L632 -11 L218 381 L215 381 L215 0 L67 0 Z M520 815 Q507 780 484.5 756 Q462 732 429 732 Q411 732 393 740 Q375 748 358 757 Q341 766 325.5 774 Q310 782 296 782 Q281 782 266.5 767.5 Q252 753 240 727 L199 782 Q205 798 214.5 813 Q224 828 236 840 Q248 852 262.5 859 Q277 866 294 866 Q311 866 328.5 858 Q346 850 362.5 840 Q379 830 395 822 Q411 814 426 814 Q444 814 457 829 Q470 844 483 870 L520 815 Z " />
<glyph glyph-name="Ograve" unicode="&#xd2;" horiz-adv-x="799" d="M399 -11 Q316 -11 250.5 15 Q185 41 139 87 Q93 133 68.5 195.5 Q44 258 44 330 Q44 402 71 464 Q98 526 145.5 572.5 Q193 619 258 645.5 Q323 672 400 672 Q478 672 543 645.5 Q608 619 654.5 572.5 Q701 526 727 464 Q753 402 753 330 Q753 258 727 195.5 Q701 133 654 87 Q607 41 542 15 Q477 -11 399 -11 Z M401 549 Q354 549 316 532 Q278 515 251 485.5 Q224 456 209 416 Q194 376 194 330 Q194 283 208.5 242.5 Q223 202 250 172 Q277 142 315 125 Q353 108 401 108 Q448 108 486 125.5 Q524 143 550.5 173 Q577 203 591.5 243.5 Q606 284 606 330 Q606 375 591.5 415 Q577 455 550.5 485 Q524 515 486 532 Q448 549 401 549 Z M382 718 Q344 750 307 782 Q270 814 232 846 Q258 857 283 868 Q308 879 334 890 L467 718 L382 718 Z " />
<glyph glyph-name="Oacute" unicode="&#xd3;" horiz-adv-x="799" d="M399 -11 Q316 -11 250.5 15 Q185 41 139 87 Q93 133 68.5 195.5 Q44 258 44 330 Q44 402 71 464 Q98 526 145.5 572.5 Q193 619 258 645.5 Q323 672 400 672 Q478 672 543 645.5 Q608 619 654.5 572.5 Q701 526 727 464 Q753 402 753 330 Q753 258 727 195.5 Q701 133 654 87 Q607 41 542 15 Q477 -11 399 -11 Z M401 549 Q354 549 316 532 Q278 515 251 485.5 Q224 456 209 416 Q194 376 194 330 Q194 283 208.5 242.5 Q223 202 250 172 Q277 142 315 125 Q353 108 401 108 Q448 108 486 125.5 Q524 143 550.5 173 Q577 203 591.5 243.5 Q606 284 606 330 Q606 375 591.5 415 Q577 455 550.5 485 Q524 515 486 532 Q448 549 401 549 Z M347 718 Q380 761 413.5 803.5 Q447 846 480 890 L583 846 Q545 814 508 782 Q471 750 433 718 L347 718 Z " />
<glyph glyph-name="Ocircumflex" unicode="&#xd4;" horiz-adv-x="799" d="M399 -11 Q316 -11 250.5 15 Q185 41 139 87 Q93 133 68.5 195.5 Q44 258 44 330 Q44 402 71 464 Q98 526 145.5 572.5 Q193 619 258 645.5 Q323 672 400 672 Q478 672 543 645.5 Q608 619 654.5 572.5 Q701 526 727 464 Q753 402 753 330 Q753 258 727 195.5 Q701 133 654 87 Q607 41 542 15 Q477 -11 399 -11 Z M401 549 Q354 549 316 532 Q278 515 251 485.5 Q224 456 209 416 Q194 376 194 330 Q194 283 208.5 242.5 Q223 202 250 172 Q277 142 315 125 Q353 108 401 108 Q448 108 486 125.5 Q524 143 550.5 173 Q577 203 591.5 243.5 Q606 284 606 330 Q606 375 591.5 415 Q577 455 550.5 485 Q524 515 486 532 Q448 549 401 549 Z M473 717 L410 786 L342 717 L237 717 L402 882 L423 882 L582 717 L473 717 Z " />
<glyph glyph-name="Otilde" unicode="&#xd5;" horiz-adv-x="799" d="M399 -11 Q316 -11 250.5 15 Q185 41 139 87 Q93 133 68.5 195.5 Q44 258 44 330 Q44 402 71 464 Q98 526 145.5 572.5 Q193 619 258 645.5 Q323 672 400 672 Q478 672 543 645.5 Q608 619 654.5 572.5 Q701 526 727 464 Q753 402 753 330 Q753 258 727 195.5 Q701 133 654 87 Q607 41 542 15 Q477 -11 399 -11 Z M401 549 Q354 549 316 532 Q278 515 251 485.5 Q224 456 209 416 Q194 376 194 330 Q194 283 208.5 242.5 Q223 202 250 172 Q277 142 315 125 Q353 108 401 108 Q448 108 486 125.5 Q524 143 550.5 173 Q577 203 591.5 243.5 Q606 284 606 330 Q606 375 591.5 415 Q577 455 550.5 485 Q524 515 486 532 Q448 549 401 549 Z M563 820 Q550 785 527.5 761 Q505 737 472 737 Q454 737 436 745 Q418 753 401 762 Q384 771 368.5 779 Q353 787 339 787 Q324 787 309.5 772.5 Q295 758 283 732 L242 787 Q248 803 257.5 818 Q267 833 279 845 Q291 857 305.5 864 Q320 871 337 871 Q354 871 371.5 863 Q389 855 405.5 845 Q422 835 438 827 Q454 819 469 819 Q487 819 500 834 Q513 849 526 875 L563 820 Z " />
<glyph glyph-name="Odieresis" unicode="&#xd6;" horiz-adv-x="799" d="M399 -11 Q316 -11 250.5 15 Q185 41 139 87 Q93 133 68.5 195.5 Q44 258 44 330 Q44 402 71 464 Q98 526 145.5 572.5 Q193 619 258 645.5 Q323 672 400 672 Q478 672 543 645.5 Q608 619 654.5 572.5 Q701 526 727 464 Q753 402 753 330 Q753 258 727 195.5 Q701 133 654 87 Q607 41 542 15 Q477 -11 399 -11 Z M401 549 Q354 549 316 532 Q278 515 251 485.5 Q224 456 209 416 Q194 376 194 330 Q194 283 208.5 242.5 Q223 202 250 172 Q277 142 315 125 Q353 108 401 108 Q448 108 486 125.5 Q524 143 550.5 173 Q577 203 591.5 243.5 Q606 284 606 330 Q606 375 591.5 415 Q577 455 550.5 485 Q524 515 486 532 Q448 549 401 549 Z M367 794 Q367 768 349.5 749 Q332 730 304 730 Q275 730 258 748.5 Q241 767 241 792 Q241 821 260.5 838.5 Q280 856 304 856 Q332 856 349.5 837.5 Q367 819 367 794 Z M553 794 Q553 768 536 749 Q519 730 491 730 Q462 730 445.5 748.5 Q429 767 429 792 Q429 821 448 838.5 Q467 856 491 856 Q519 856 536 837.5 Q553 819 553 794 Z " />
<glyph glyph-name="Ugrave" unicode="&#xd9;" horiz-adv-x="701" d="M485 660 L633 660 L633 262 Q633 203 615 153 Q597 103 562 66.5 Q527 30 473.5 9.5 Q420 -11 350 -11 Q278 -11 224.5 9 Q171 29 136 64.5 Q101 100 84 149.5 Q67 199 67 259 L67 660 L216 660 L216 260 Q216 232 224 205 Q232 178 248.5 157 Q265 136 290.5 123.5 Q316 111 351 111 Q385 111 410.5 123 Q436 135 452.5 154.5 Q469 174 477 200 Q485 226 485 255 L485 660 Z M341 718 Q303 750 266 782 Q229 814 191 846 Q217 857 242 868 Q267 879 293 890 L426 718 L341 718 Z " />
<glyph glyph-name="Uacute" unicode="&#xda;" horiz-adv-x="701" d="M485 660 L633 660 L633 262 Q633 203 615 153 Q597 103 562 66.5 Q527 30 473.5 9.5 Q420 -11 350 -11 Q278 -11 224.5 9 Q171 29 136 64.5 Q101 100 84 149.5 Q67 199 67 259 L67 660 L216 660 L216 260 Q216 232 224 205 Q232 178 248.5 157 Q265 136 290.5 123.5 Q316 111 351 111 Q385 111 410.5 123 Q436 135 452.5 154.5 Q469 174 477 200 Q485 226 485 255 L485 660 Z M286 718 Q319 761 352.5 803.5 Q386 846 419 890 L522 846 Q484 814 447 782 Q410 750 372 718 L286 718 Z " />
<glyph glyph-name="Ucircumflex" unicode="&#xdb;" horiz-adv-x="701" d="M485 660 L633 660 L633 262 Q633 203 615 153 Q597 103 562 66.5 Q527 30 473.5 9.5 Q420 -11 350 -11 Q278 -11 224.5 9 Q171 29 136 64.5 Q101 100 84 149.5 Q67 199 67 259 L67 660 L216 660 L216 260 Q216 232 224 205 Q232 178 248.5 157 Q265 136 290.5 123.5 Q316 111 351 111 Q385 111 410.5 123 Q436 135 452.5 154.5 Q469 174 477 200 Q485 226 485 255 L485 660 Z M418 716 L354 785 L284 716 L177 716 L346 880 L367 880 L529 716 L418 716 Z " />
<glyph glyph-name="Udieresis" unicode="&#xdc;" horiz-adv-x="701" d="M485 660 L633 660 L633 262 Q633 203 615 153 Q597 103 562 66.5 Q527 30 473.5 9.5 Q420 -11 350 -11 Q278 -11 224.5 9 Q171 29 136 64.5 Q101 100 84 149.5 Q67 199 67 259 L67 660 L216 660 L216 260 Q216 232 224 205 Q232 178 248.5 157 Q265 136 290.5 123.5 Q316 111 351 111 Q385 111 410.5 123 Q436 135 452.5 154.5 Q469 174 477 200 Q485 226 485 255 L485 660 Z M321 794 Q321 768 303.5 749 Q286 730 258 730 Q229 730 212 748.5 Q195 767 195 792 Q195 821 214.5 838.5 Q234 856 258 856 Q286 856 303.5 837.5 Q321 819 321 794 Z M507 794 Q507 768 490 749 Q473 730 445 730 Q416 730 399.5 748.5 Q383 767 383 792 Q383 821 402 838.5 Q421 856 445 856 Q473 856 490 837.5 Q507 819 507 794 Z " />
<glyph glyph-name="Yacute" unicode="&#xdd;" horiz-adv-x="611" d="M314 382 L444 660 L603 660 L383 261 L383 0 L234 0 L234 261 L7 660 L168 660 L310 382 L314 382 Z M244 715 Q277 758 310.5 800.5 Q344 843 377 887 L480 843 Q442 811 405 779 Q368 747 330 715 L244 715 Z " />
<glyph glyph-name="agrave" unicode="&#xe0;" horiz-adv-x="520" d="M337 52 Q312 23 271.5 6 Q231 -11 180 -11 Q141 -11 113.5 -0.5 Q86 10 68 28 Q50 46 41.5 69 Q33 92 33 116 Q33 147 45 175.5 Q57 204 82.5 225.5 Q108 247 147 259.5 Q186 272 241 272 L328 272 L328 281 Q328 321 304 341.5 Q280 362 226 362 Q201 362 162.5 353 Q124 344 88 324 L88 425 Q121 440 168 449.5 Q215 459 259 459 Q314 459 353 445 Q392 431 416 406 Q440 381 451 345.5 Q462 310 462 267 L462 0 L350 0 L340 52 L337 52 Z M163 136 Q163 109 183 95 Q203 81 233 81 Q280 81 304 110.5 Q328 140 328 179 L328 196 L258 196 Q212 196 187.5 182 Q163 168 163 136 Z M254 516 L116 652 Q140 663 164 673.5 Q188 684 213 695 L331 516 L254 516 Z " />
<glyph glyph-name="aacute" unicode="&#xe1;" horiz-adv-x="520" d="M337 52 Q312 23 271.5 6 Q231 -11 180 -11 Q141 -11 113.5 -0.5 Q86 10 68 28 Q50 46 41.5 69 Q33 92 33 116 Q33 147 45 175.5 Q57 204 82.5 225.5 Q108 247 147 259.5 Q186 272 241 272 L328 272 L328 281 Q328 321 304 341.5 Q280 362 226 362 Q201 362 162.5 353 Q124 344 88 324 L88 425 Q121 440 168 449.5 Q215 459 259 459 Q314 459 353 445 Q392 431 416 406 Q440 381 451 345.5 Q462 310 462 267 L462 0 L350 0 L340 52 L337 52 Z M163 136 Q163 109 183 95 Q203 81 233 81 Q280 81 304 110.5 Q328 140 328 179 L328 196 L258 196 Q212 196 187.5 182 Q163 168 163 136 Z M197 516 Q226 561 256 605.5 Q286 650 316 695 L412 652 L274 516 L197 516 Z " />
<glyph glyph-name="acircumflex" unicode="&#xe2;" horiz-adv-x="520" d="M337 52 Q312 23 271.5 6 Q231 -11 180 -11 Q141 -11 113.5 -0.5 Q86 10 68 28 Q50 46 41.5 69 Q33 92 33 116 Q33 147 45 175.5 Q57 204 82.5 225.5 Q108 247 147 259.5 Q186 272 241 272 L328 272 L328 281 Q328 321 304 341.5 Q280 362 226 362 Q201 362 162.5 353 Q124 344 88 324 L88 425 Q121 440 168 449.5 Q215 459 259 459 Q314 459 353 445 Q392 431 416 406 Q440 381 451 345.5 Q462 310 462 267 L462 0 L350 0 L340 52 L337 52 Z M163 136 Q163 109 183 95 Q203 81 233 81 Q280 81 304 110.5 Q328 140 328 179 L328 196 L258 196 Q212 196 187.5 182 Q163 168 163 136 Z M329 516 L268 590 L202 516 L102 516 L260 690 L281 690 L434 516 L329 516 Z " />
<glyph glyph-name="atilde" unicode="&#xe3;" horiz-adv-x="520" d="M337 52 Q312 23 271.5 6 Q231 -11 180 -11 Q141 -11 113.5 -0.5 Q86 10 68 28 Q50 46 41.5 69 Q33 92 33 116 Q33 147 45 175.5 Q57 204 82.5 225.5 Q108 247 147 259.5 Q186 272 241 272 L328 272 L328 281 Q328 321 304 341.5 Q280 362 226 362 Q201 362 162.5 353 Q124 344 88 324 L88 425 Q121 440 168 449.5 Q215 459 259 459 Q314 459 353 445 Q392 431 416 406 Q440 381 451 345.5 Q462 310 462 267 L462 0 L350 0 L340 52 L337 52 Z M163 136 Q163 109 183 95 Q203 81 233 81 Q280 81 304 110.5 Q328 140 328 179 L328 196 L258 196 Q212 196 187.5 182 Q163 168 163 136 Z M422 611 Q409 576 386.5 552 Q364 528 331 528 Q313 528 295 536 Q277 544 260 553 Q243 562 227.5 570 Q212 578 198 578 Q183 578 168.5 563.5 Q154 549 142 523 L101 578 Q107 594 116.5 609 Q126 624 138 636 Q150 648 164.5 655 Q179 662 196 662 Q213 662 230.5 654 Q248 646 264.5 636 Q281 626 297 618 Q313 610 328 610 Q346 610 359 625 Q372 640 385 666 L422 611 Z " />
<glyph glyph-name="adieresis" unicode="&#xe4;" horiz-adv-x="520" d="M337 52 Q312 23 271.5 6 Q231 -11 180 -11 Q141 -11 113.5 -0.5 Q86 10 68 28 Q50 46 41.5 69 Q33 92 33 116 Q33 147 45 175.5 Q57 204 82.5 225.5 Q108 247 147 259.5 Q186 272 241 272 L328 272 L328 281 Q328 321 304 341.5 Q280 362 226 362 Q201 362 162.5 353 Q124 344 88 324 L88 425 Q121 440 168 449.5 Q215 459 259 459 Q314 459 353 445 Q392 431 416 406 Q440 381 451 345.5 Q462 310 462 267 L462 0 L350 0 L340 52 L337 52 Z M163 136 Q163 109 183 95 Q203 81 233 81 Q280 81 304 110.5 Q328 140 328 179 L328 196 L258 196 Q212 196 187.5 182 Q163 168 163 136 Z M237 599 Q237 573 219.5 554.5 Q202 536 175 536 Q146 536 129 554.5 Q112 573 112 599 Q112 627 131.5 644 Q151 661 175 661 Q202 661 219.5 643 Q237 625 237 599 Z M423 599 Q423 573 406 554.5 Q389 536 361 536 Q332 536 315.5 554.5 Q299 573 299 599 Q299 627 318 644 Q337 661 361 661 Q389 661 406 643 Q423 625 423 599 Z " />
<glyph glyph-name="aring" unicode="&#xe5;" horiz-adv-x="520" d="M337 52 Q312 23 271.5 6 Q231 -11 180 -11 Q141 -11 113.5 -0.5 Q86 10 68 28 Q50 46 41.5 69 Q33 92 33 116 Q33 147 45 175.5 Q57 204 82.5 225.5 Q108 247 147 259.5 Q186 272 241 272 L328 272 L328 281 Q328 321 304 341.5 Q280 362 226 362 Q201 362 162.5 353 Q124 344 88 324 L88 425 Q121 440 168 449.5 Q215 459 259 459 Q314 459 353 445 Q392 431 416 406 Q440 381 451 345.5 Q462 310 462 267 L462 0 L350 0 L340 52 L337 52 Z M163 136 Q163 109 183 95 Q203 81 233 81 Q280 81 304 110.5 Q328 140 328 179 L328 196 L258 196 Q212 196 187.5 182 Q163 168 163 136 Z M266 509 Q214 509 182 541 Q150 573 150 620 Q150 644 159 665.5 Q168 687 183.5 703 Q199 719 220.5 728 Q242 737 266 737 Q291 737 313 728 Q335 719 351 703 Q367 687 376 665.5 Q385 644 385 620 Q385 596 376 576 Q367 556 351 541 Q335 526 313 517.5 Q291 509 266 509 Z M266 672 Q246 672 233 656.5 Q220 641 220 620 Q220 601 233 587.5 Q246 574 266 574 Q288 574 301 587.5 Q314 601 314 620 Q314 641 301 656.5 Q288 672 266 672 Z " />
<glyph glyph-name="ccedilla" unicode="&#xe7;" horiz-adv-x="440" d="M354 -141 Q354 -158 346.5 -176 Q339 -194 323 -209 Q307 -224 281.5 -233.5 Q256 -243 220 -243 Q177 -243 133 -227 L133 -165 Q150 -173 170.5 -178 Q191 -183 214 -183 Q239 -183 255 -171.5 Q271 -160 271 -141 Q271 -121 254.5 -112.5 Q238 -104 218 -104 Q200 -104 183 -111 Q178 -107 173.5 -104 Q169 -101 164 -96 Q175 -73 186.5 -50.5 Q198 -28 210 -5 Q124 11 79.5 72 Q35 133 35 218 Q35 272 53 316 Q71 360 103.5 392 Q136 424 181 441.5 Q226 459 280 459 Q309 459 341 454 Q373 449 397 439 L397 329 Q374 343 348.5 348 Q323 353 302 353 Q275 353 251 344 Q227 335 209 318.5 Q191 302 181 277.5 Q171 253 171 222 Q171 162 205.5 128.5 Q240 95 299 95 Q326 95 356.5 103 Q387 111 413 126 L413 19 Q400 12 382.5 6.5 Q365 1 345.5 -3 Q326 -7 305.5 -9 Q285 -11 267 -11 L262 -11 L240 -51 Q271 -53 292.5 -61 Q314 -69 327.5 -81.5 Q341 -94 347.5 -109.5 Q354 -125 354 -141 Z " />
<glyph glyph-name="egrave" unicode="&#xe8;" horiz-adv-x="522" d="M265 460 Q317 460 358 443.5 Q399 427 427.5 396.5 Q456 366 471 323 Q486 280 486 227 L486 197 L169 197 Q172 167 183.5 147 Q195 127 213 115 Q231 103 254 97.5 Q277 92 303 92 Q338 92 377.5 102.5 Q417 113 464 144 L464 37 Q426 12 381 0.5 Q336 -11 289 -11 Q225 -11 177 7.5 Q129 26 97.5 58 Q66 90 50.5 133 Q35 176 35 225 Q35 274 51.5 316.5 Q68 359 98 391 Q128 423 170.5 441.5 Q213 460 265 460 Z M270 363 Q232 363 207 339.5 Q182 316 173 281 L362 281 Q354 319 331 341 Q308 363 270 363 Z M261 516 L123 652 Q147 663 171 673.5 Q195 684 220 695 L338 516 L261 516 Z " />
<glyph glyph-name="eacute" unicode="&#xe9;" horiz-adv-x="522" d="M265 460 Q317 460 358 443.5 Q399 427 427.5 396.5 Q456 366 471 323 Q486 280 486 227 L486 197 L169 197 Q172 167 183.5 147 Q195 127 213 115 Q231 103 254 97.5 Q277 92 303 92 Q338 92 377.5 102.5 Q417 113 464 144 L464 37 Q426 12 381 0.5 Q336 -11 289 -11 Q225 -11 177 7.5 Q129 26 97.5 58 Q66 90 50.5 133 Q35 176 35 225 Q35 274 51.5 316.5 Q68 359 98 391 Q128 423 170.5 441.5 Q213 460 265 460 Z M270 363 Q232 363 207 339.5 Q182 316 173 281 L362 281 Q354 319 331 341 Q308 363 270 363 Z M197 516 Q226 561 256 605.5 Q286 650 316 695 L412 652 L274 516 L197 516 Z " />
<glyph glyph-name="ecircumflex" unicode="&#xea;" horiz-adv-x="522" d="M265 460 Q317 460 358 443.5 Q399 427 427.5 396.5 Q456 366 471 323 Q486 280 486 227 L486 197 L169 197 Q172 167 183.5 147 Q195 127 213 115 Q231 103 254 97.5 Q277 92 303 92 Q338 92 377.5 102.5 Q417 113 464 144 L464 37 Q426 12 381 0.5 Q336 -11 289 -11 Q225 -11 177 7.5 Q129 26 97.5 58 Q66 90 50.5 133 Q35 176 35 225 Q35 274 51.5 316.5 Q68 359 98 391 Q128 423 170.5 441.5 Q213 460 265 460 Z M270 363 Q232 363 207 339.5 Q182 316 173 281 L362 281 Q354 319 331 341 Q308 363 270 363 Z M333 516 L272 590 L206 516 L106 516 L264 690 L285 690 L438 516 L333 516 Z " />
<glyph glyph-name="edieresis" unicode="&#xeb;" horiz-adv-x="522" d="M265 460 Q317 460 358 443.5 Q399 427 427.5 396.5 Q456 366 471 323 Q486 280 486 227 L486 197 L169 197 Q172 167 183.5 147 Q195 127 213 115 Q231 103 254 97.5 Q277 92 303 92 Q338 92 377.5 102.5 Q417 113 464 144 L464 37 Q426 12 381 0.5 Q336 -11 289 -11 Q225 -11 177 7.5 Q129 26 97.5 58 Q66 90 50.5 133 Q35 176 35 225 Q35 274 51.5 316.5 Q68 359 98 391 Q128 423 170.5 441.5 Q213 460 265 460 Z M270 363 Q232 363 207 339.5 Q182 316 173 281 L362 281 Q354 319 331 341 Q308 363 270 363 Z M238 599 Q238 573 220.5 554.5 Q203 536 176 536 Q147 536 130 554.5 Q113 573 113 599 Q113 627 132.5 644 Q152 661 176 661 Q203 661 220.5 643 Q238 625 238 599 Z M424 599 Q424 573 407 554.5 Q390 536 362 536 Q333 536 316.5 554.5 Q300 573 300 599 Q300 627 319 644 Q338 661 362 661 Q390 661 407 643 Q424 625 424 599 Z " />
<glyph glyph-name="dotlessi" unicode="&#x131;" horiz-adv-x="264" d="M63 0 L63 446 L200 446 L200 0 L63 0 Z " />
<glyph glyph-name="igrave" unicode="&#xec;" horiz-adv-x="264" d="M113 516 L-25 652 Q-1 663 23 673.5 Q47 684 72 695 L190 516 L113 516 Z M63 0 L63 446 L200 446 L200 0 L63 0 Z " />
<glyph glyph-name="iacute" unicode="&#xed;" horiz-adv-x="264" d="M73 516 Q102 561 132 605.5 Q162 650 192 695 L288 652 L150 516 L73 516 Z M63 0 L63 446 L200 446 L200 0 L63 0 Z " />
<glyph glyph-name="icircumflex" unicode="&#xee;" horiz-adv-x="264" d="M63 0 L63 446 L200 446 L200 0 L63 0 Z M196 516 L135 590 L69 516 L-31 516 L127 690 L148 690 L301 516 L196 516 Z " />
<glyph glyph-name="idieresis" unicode="&#xef;" horiz-adv-x="264" d="M105 599 Q105 573 87.5 554.5 Q70 536 43 536 Q14 536 -3 554.5 Q-20 573 -20 599 Q-20 627 -0.5 644 Q19 661 43 661 Q70 661 87.5 643 Q105 625 105 599 Z M291 599 Q291 573 274 554.5 Q257 536 229 536 Q200 536 183.5 554.5 Q167 573 167 599 Q167 627 186 644 Q205 661 229 661 Q257 661 274 643 Q291 625 291 599 Z M63 0 L63 446 L200 446 L200 0 L63 0 Z " />
<glyph glyph-name="ntilde" unicode="&#xf1;" horiz-adv-x="559" d="M365 0 L365 255 Q365 295 345.5 322.5 Q326 350 291 350 Q250 350 221.5 321 Q193 292 193 229 L193 0 L58 0 L58 445 L163 445 Q168 430 171 414.5 Q174 399 178 384 L182 384 Q217 426 258.5 441 Q300 456 341 456 Q420 456 460 409.5 Q500 363 500 283 L500 0 L365 0 Z M427 612 Q414 577 391.5 553 Q369 529 336 529 Q318 529 300 537 Q282 545 265 554 Q248 563 232.5 571 Q217 579 203 579 Q188 579 173.5 564.5 Q159 550 147 524 L106 579 Q112 595 121.5 610 Q131 625 143 637 Q155 649 169.5 656 Q184 663 201 663 Q218 663 235.5 655 Q253 647 269.5 637 Q286 627 302 619 Q318 611 333 611 Q351 611 364 626 Q377 641 390 667 L427 612 Z " />
<glyph glyph-name="ograve" unicode="&#xf2;" horiz-adv-x="568" d="M285 459 Q342 459 388 441 Q434 423 466 391.5 Q498 360 515.5 317 Q533 274 533 224 Q533 173 515 130.5 Q497 88 464.5 56.5 Q432 25 386 7.5 Q340 -10 285 -10 Q226 -10 180 7.5 Q134 25 101.5 56.5 Q69 88 52 131 Q35 174 35 224 Q35 274 53 317 Q71 360 104 391.5 Q137 423 183 441 Q229 459 285 459 Z M286 351 Q259 351 237.5 341 Q216 331 201 314 Q186 297 178 274 Q170 251 170 226 Q170 169 200 133.5 Q230 98 286 98 Q341 98 372 135 Q403 172 403 226 Q403 252 395 274.5 Q387 297 371.5 314 Q356 331 334.5 341 Q313 351 286 351 Z M270 516 L132 652 Q156 663 180 673.5 Q204 684 229 695 L347 516 L270 516 Z " />
<glyph glyph-name="oacute" unicode="&#xf3;" horiz-adv-x="568" d="M285 459 Q342 459 388 441 Q434 423 466 391.5 Q498 360 515.5 317 Q533 274 533 224 Q533 173 515 130.5 Q497 88 464.5 56.5 Q432 25 386 7.5 Q340 -10 285 -10 Q226 -10 180 7.5 Q134 25 101.5 56.5 Q69 88 52 131 Q35 174 35 224 Q35 274 53 317 Q71 360 104 391.5 Q137 423 183 441 Q229 459 285 459 Z M286 351 Q259 351 237.5 341 Q216 331 201 314 Q186 297 178 274 Q170 251 170 226 Q170 169 200 133.5 Q230 98 286 98 Q341 98 372 135 Q403 172 403 226 Q403 252 395 274.5 Q387 297 371.5 314 Q356 331 334.5 341 Q313 351 286 351 Z M228 516 Q257 561 287 605.5 Q317 650 347 695 L443 652 L305 516 L228 516 Z " />
<glyph glyph-name="ocircumflex" unicode="&#xf4;" horiz-adv-x="568" d="M285 459 Q342 459 388 441 Q434 423 466 391.5 Q498 360 515.5 317 Q533 274 533 224 Q533 173 515 130.5 Q497 88 464.5 56.5 Q432 25 386 7.5 Q340 -10 285 -10 Q226 -10 180 7.5 Q134 25 101.5 56.5 Q69 88 52 131 Q35 174 35 224 Q35 274 53 317 Q71 360 104 391.5 Q137 423 183 441 Q229 459 285 459 Z M286 351 Q259 351 237.5 341 Q216 331 201 314 Q186 297 178 274 Q170 251 170 226 Q170 169 200 133.5 Q230 98 286 98 Q341 98 372 135 Q403 172 403 226 Q403 252 395 274.5 Q387 297 371.5 314 Q356 331 334.5 341 Q313 351 286 351 Z M348 516 L287 590 L221 516 L121 516 L279 690 L300 690 L453 516 L348 516 Z " />
<glyph glyph-name="otilde" unicode="&#xf5;" horiz-adv-x="568" d="M285 459 Q342 459 388 441 Q434 423 466 391.5 Q498 360 515.5 317 Q533 274 533 224 Q533 173 515 130.5 Q497 88 464.5 56.5 Q432 25 386 7.5 Q340 -10 285 -10 Q226 -10 180 7.5 Q134 25 101.5 56.5 Q69 88 52 131 Q35 174 35 224 Q35 274 53 317 Q71 360 104 391.5 Q137 423 183 441 Q229 459 285 459 Z M286 351 Q259 351 237.5 341 Q216 331 201 314 Q186 297 178 274 Q170 251 170 226 Q170 169 200 133.5 Q230 98 286 98 Q341 98 372 135 Q403 172 403 226 Q403 252 395 274.5 Q387 297 371.5 314 Q356 331 334.5 341 Q313 351 286 351 Z M445 610 Q432 575 409.5 551 Q387 527 354 527 Q336 527 318 535 Q300 543 283 552 Q266 561 250.5 569 Q235 577 221 577 Q206 577 191.5 562.5 Q177 548 165 522 L124 577 Q130 593 139.5 608 Q149 623 161 635 Q173 647 187.5 654 Q202 661 219 661 Q236 661 253.5 653 Q271 645 287.5 635 Q304 625 320 617 Q336 609 351 609 Q369 609 382 624 Q395 639 408 665 L445 610 Z " />
<glyph glyph-name="odieresis" unicode="&#xf6;" horiz-adv-x="568" d="M285 459 Q342 459 388 441 Q434 423 466 391.5 Q498 360 515.5 317 Q533 274 533 224 Q533 173 515 130.5 Q497 88 464.5 56.5 Q432 25 386 7.5 Q340 -10 285 -10 Q226 -10 180 7.5 Q134 25 101.5 56.5 Q69 88 52 131 Q35 174 35 224 Q35 274 53 317 Q71 360 104 391.5 Q137 423 183 441 Q229 459 285 459 Z M286 351 Q259 351 237.5 341 Q216 331 201 314 Q186 297 178 274 Q170 251 170 226 Q170 169 200 133.5 Q230 98 286 98 Q341 98 372 135 Q403 172 403 226 Q403 252 395 274.5 Q387 297 371.5 314 Q356 331 334.5 341 Q313 351 286 351 Z M252 599 Q252 573 234.5 554.5 Q217 536 190 536 Q161 536 144 554.5 Q127 573 127 599 Q127 627 146.5 644 Q166 661 190 661 Q217 661 234.5 643 Q252 625 252 599 Z M438 599 Q438 573 421 554.5 Q404 536 376 536 Q347 536 330.5 554.5 Q314 573 314 599 Q314 627 333 644 Q352 661 376 661 Q404 661 421 643 Q438 625 438 599 Z " />
<glyph glyph-name="ugrave" unicode="&#xf9;" horiz-adv-x="550" d="M192 446 L192 188 Q192 151 211 123.5 Q230 96 265 96 Q306 96 331 125.5 Q356 155 356 218 L356 445 L491 445 L491 0 L383 0 L367 61 L363 61 Q332 21 295.5 7 Q259 -7 220 -7 Q57 -7 57 169 L57 446 L192 446 Z M260 516 L122 652 Q146 663 170 673.5 Q194 684 219 695 L337 516 L260 516 Z " />
<glyph glyph-name="uacute" unicode="&#xfa;" horiz-adv-x="550" d="M192 446 L192 188 Q192 151 211 123.5 Q230 96 265 96 Q306 96 331 125.5 Q356 155 356 218 L356 445 L491 445 L491 0 L383 0 L367 61 L363 61 Q332 21 295.5 7 Q259 -7 220 -7 Q57 -7 57 169 L57 446 L192 446 Z M214 516 Q243 561 273 605.5 Q303 650 333 695 L429 652 L291 516 L214 516 Z " />
<glyph glyph-name="ucircumflex" unicode="&#xfb;" horiz-adv-x="550" d="M192 446 L192 188 Q192 151 211 123.5 Q230 96 265 96 Q306 96 331 125.5 Q356 155 356 218 L356 445 L491 445 L491 0 L383 0 L367 61 L363 61 Q332 21 295.5 7 Q259 -7 220 -7 Q57 -7 57 169 L57 446 L192 446 Z M336 516 L275 590 L209 516 L109 516 L267 690 L288 690 L441 516 L336 516 Z " />
<glyph glyph-name="udieresis" unicode="&#xfc;" horiz-adv-x="550" d="M192 446 L192 188 Q192 151 211 123.5 Q230 96 265 96 Q306 96 331 125.5 Q356 155 356 218 L356 445 L491 445 L491 0 L383 0 L367 61 L363 61 Q332 21 295.5 7 Q259 -7 220 -7 Q57 -7 57 169 L57 446 L192 446 Z M242 599 Q242 573 224.5 554.5 Q207 536 180 536 Q151 536 134 554.5 Q117 573 117 599 Q117 627 136.5 644 Q156 661 180 661 Q207 661 224.5 643 Q242 625 242 599 Z M428 599 Q428 573 411 554.5 Q394 536 366 536 Q337 536 320.5 554.5 Q304 573 304 599 Q304 627 323 644 Q342 661 366 661 Q394 661 411 643 Q428 625 428 599 Z " />
<glyph glyph-name="yacute" unicode="&#xfd;" horiz-adv-x="492" d="M247 162 L351 446 L485 446 L202 -216 L71 -216 Q99 -154 125.5 -93 Q152 -32 180 28 L3 446 L140 446 Q166 375 191 304 Q216 233 241 162 L247 162 Z M196 515 Q225 560 255 604.5 Q285 649 315 694 L411 651 L273 515 L196 515 Z " />
<glyph glyph-name="ydieresis" unicode="&#xff;" horiz-adv-x="492" d="M247 162 L351 446 L485 446 L202 -216 L71 -216 Q99 -154 125.5 -93 Q152 -32 180 28 L3 446 L140 446 Q166 375 191 304 Q216 233 241 162 L247 162 Z M218 594 Q218 568 200.5 549.5 Q183 531 156 531 Q127 531 110 549.5 Q93 568 93 594 Q93 622 112.5 639 Q132 656 156 656 Q183 656 200.5 638 Q218 620 218 594 Z M404 594 Q404 568 387 549.5 Q370 531 342 531 Q313 531 296.5 549.5 Q280 568 280 594 Q280 622 299 639 Q318 656 342 656 Q370 656 387 638 Q404 620 404 594 Z " />
<glyph glyph-name="dollar" unicode="&#x24;" horiz-adv-x="572" d="M251 -2 Q207 1 159 13 Q111 25 70 50 L70 170 Q92 153 120.5 140 Q149 127 178 118 Q207 109 234 104 Q261 99 281 99 Q335 99 361 121.5 Q387 144 387 179 Q387 212 364 234 Q341 256 307 274 Q273 292 233 309 Q193 326 159 349.5 Q125 373 102 406 Q79 439 79 488 Q79 555 123.5 602 Q168 649 251 660 L251 770 L330 770 L330 661 Q365 658 402 649.5 Q439 641 477 623 L477 511 Q434 539 386 552 Q338 565 301 565 Q260 565 233 548 Q206 531 206 489 Q206 464 229 446 Q252 428 287 410.5 Q322 393 362 374.5 Q402 356 437 331 Q472 306 495 271.5 Q518 237 518 188 Q518 154 506.5 122.5 Q495 91 471.5 65.5 Q448 40 413 22.5 Q378 5 330 -1 L330 -106 L251 -106 L251 -2 Z " />
<glyph glyph-name="Amacron" unicode="&#x100;" horiz-adv-x="662" d="M457 104 L204 104 L158 0 L10 0 L323 672 L345 672 L653 0 L502 0 L457 104 Z M249 206 L413 206 L334 389 L330 389 L249 206 Z M173 830 L490 830 L490 744 L173 744 L173 830 Z " />
<glyph glyph-name="amacron" unicode="&#x101;" horiz-adv-x="520" d="M337 52 Q312 23 271.5 6 Q231 -11 180 -11 Q141 -11 113.5 -0.5 Q86 10 68 28 Q50 46 41.5 69 Q33 92 33 116 Q33 147 45 175.5 Q57 204 82.5 225.5 Q108 247 147 259.5 Q186 272 241 272 L328 272 L328 281 Q328 321 304 341.5 Q280 362 226 362 Q201 362 162.5 353 Q124 344 88 324 L88 425 Q121 440 168 449.5 Q215 459 259 459 Q314 459 353 445 Q392 431 416 406 Q440 381 451 345.5 Q462 310 462 267 L462 0 L350 0 L340 52 L337 52 Z M163 136 Q163 109 183 95 Q203 81 233 81 Q280 81 304 110.5 Q328 140 328 179 L328 196 L258 196 Q212 196 187.5 182 Q163 168 163 136 Z M106 628 L415 628 L415 544 L106 544 L106 628 Z " />
<glyph glyph-name="Abreve" unicode="&#x102;" horiz-adv-x="662" d="M457 104 L204 104 L158 0 L10 0 L323 672 L345 672 L653 0 L502 0 L457 104 Z M249 206 L413 206 L334 389 L330 389 L249 206 Z M334 712 Q296 712 267.5 725.5 Q239 739 220.5 761 Q202 783 192 812 Q182 841 181 871 L250 871 Q252 829 276 806 Q300 783 336 783 Q374 783 394.5 809.5 Q415 836 420 871 L488 871 Q486 843 476.5 814.5 Q467 786 448.5 763.5 Q430 741 402 726.5 Q374 712 334 712 Z " />
<glyph glyph-name="abreve" unicode="&#x103;" horiz-adv-x="520" d="M337 52 Q312 23 271.5 6 Q231 -11 180 -11 Q141 -11 113.5 -0.5 Q86 10 68 28 Q50 46 41.5 69 Q33 92 33 116 Q33 147 45 175.5 Q57 204 82.5 225.5 Q108 247 147 259.5 Q186 272 241 272 L328 272 L328 281 Q328 321 304 341.5 Q280 362 226 362 Q201 362 162.5 353 Q124 344 88 324 L88 425 Q121 440 168 449.5 Q215 459 259 459 Q314 459 353 445 Q392 431 416 406 Q440 381 451 345.5 Q462 310 462 267 L462 0 L350 0 L340 52 L337 52 Z M163 136 Q163 109 183 95 Q203 81 233 81 Q280 81 304 110.5 Q328 140 328 179 L328 196 L258 196 Q212 196 187.5 182 Q163 168 163 136 Z M262 516 Q224 516 195.5 529.5 Q167 543 148.5 565.5 Q130 588 120 617 Q110 646 109 677 L178 677 Q180 634 204 611.5 Q228 589 264 589 Q302 589 322.5 615 Q343 641 348 677 L416 677 Q414 648 404.5 619.5 Q395 591 376.5 568 Q358 545 330 530.5 Q302 516 262 516 Z " />
<glyph glyph-name="Aogonek" unicode="&#x104;" horiz-adv-x="662" d="M544 0 Q515 -29 496.5 -60 Q478 -91 478 -117 Q478 -143 494.5 -154.5 Q511 -166 536 -166 Q559 -166 587 -156.5 Q615 -147 635 -136 L633 -197 Q605 -214 568 -223 Q531 -232 499 -232 Q446 -232 419 -210 Q392 -188 392 -147 Q392 -133 397 -114 Q402 -95 414 -73.5 Q426 -52 446 -29.5 Q466 -7 496 14 L457 104 L204 104 L158 0 L10 0 L323 672 L345 672 L653 0 L544 0 Z M249 206 L413 206 L334 389 L330 389 L249 206 Z " />
<glyph glyph-name="aogonek" unicode="&#x105;" horiz-adv-x="520" d="M337 52 Q312 23 271.5 6 Q231 -11 180 -11 Q141 -11 113.5 -0.5 Q86 10 68 28 Q50 46 41.5 69 Q33 92 33 116 Q33 147 45 175.5 Q57 204 82.5 225.5 Q108 247 147 259.5 Q186 272 241 272 L328 272 L328 281 Q328 321 304 341.5 Q280 362 226 362 Q201 362 162.5 353 Q124 344 88 324 L88 425 Q121 440 168 449.5 Q215 459 259 459 Q314 459 353 445 Q392 431 416 406 Q440 381 451 345.5 Q462 310 462 267 L462 0 L393 0 Q362 -29 343.5 -60.5 Q325 -92 325 -118 Q325 -144 341.5 -155.5 Q358 -167 383 -167 Q406 -167 434 -157.5 Q462 -148 482 -137 L480 -198 Q452 -215 415 -224 Q378 -233 346 -233 Q293 -233 266 -211 Q239 -189 239 -148 Q239 -134 244.5 -114.5 Q250 -95 262.5 -73.5 Q275 -52 295.5 -29 Q316 -6 347 15 L340 52 L337 52 Z M163 136 Q163 109 183 95 Q203 81 233 81 Q280 81 304 110.5 Q328 140 328 179 L328 196 L258 196 Q212 196 187.5 182 Q163 168 163 136 Z " />
<glyph glyph-name="Cacute" unicode="&#x106;" horiz-adv-x="622" d="M590 27 Q569 16 544 9 Q519 2 493.5 -3 Q468 -8 443.5 -10 Q419 -12 398 -12 Q312 -12 246.5 14 Q181 40 136 85.5 Q91 131 68 193 Q45 255 45 327 Q45 398 70 461 Q95 524 141.5 571 Q188 618 254 645.5 Q320 673 402 673 Q418 673 439.5 671.5 Q461 670 484 667 Q507 664 529 658.5 Q551 653 569 646 L569 521 Q531 538 493.5 545 Q456 552 423 552 Q377 552 336 537.5 Q295 523 264 494.5 Q233 466 214.5 424 Q196 382 196 327 Q196 223 255.5 166 Q315 109 415 109 Q456 109 501 120 Q546 131 589 153 L590 27 Z M296 718 Q329 761 362.5 803.5 Q396 846 429 890 L532 846 Q494 814 457 782 Q420 750 382 718 L296 718 Z " />
<glyph glyph-name="cacute" unicode="&#x107;" horiz-adv-x="440" d="M280 459 Q309 459 341 454 Q373 449 397 439 L397 329 Q374 343 348.5 348 Q323 353 302 353 Q275 353 251 344 Q227 335 209 318.5 Q191 302 181 277.5 Q171 253 171 222 Q171 162 205.5 128.5 Q240 95 299 95 Q326 95 356.5 103 Q387 111 413 126 L413 19 Q400 12 382.5 6.5 Q365 1 345.5 -3 Q326 -7 305.5 -9 Q285 -11 267 -11 Q211 -11 167.5 6.5 Q124 24 94.5 54.5 Q65 85 50 127 Q35 169 35 218 Q35 272 53 316 Q71 360 103.5 392 Q136 424 181 441.5 Q226 459 280 459 Z M183 516 Q212 561 242 605.5 Q272 650 302 695 L398 652 L260 516 L183 516 Z " />
<glyph glyph-name="Ccircumflex" unicode="&#x108;" horiz-adv-x="622" d="M590 27 Q569 16 544 9 Q519 2 493.5 -3 Q468 -8 443.5 -10 Q419 -12 398 -12 Q312 -12 246.5 14 Q181 40 136 85.5 Q91 131 68 193 Q45 255 45 327 Q45 398 70 461 Q95 524 141.5 571 Q188 618 254 645.5 Q320 673 402 673 Q418 673 439.5 671.5 Q461 670 484 667 Q507 664 529 658.5 Q551 653 569 646 L569 521 Q531 538 493.5 545 Q456 552 423 552 Q377 552 336 537.5 Q295 523 264 494.5 Q233 466 214.5 424 Q196 382 196 327 Q196 223 255.5 166 Q315 109 415 109 Q456 109 501 120 Q546 131 589 153 L590 27 Z M445 721 L382 790 L314 721 L209 721 L374 886 L395 886 L554 721 L445 721 Z " />
<glyph glyph-name="ccircumflex" unicode="&#x109;" horiz-adv-x="440" d="M280 459 Q309 459 341 454 Q373 449 397 439 L397 329 Q374 343 348.5 348 Q323 353 302 353 Q275 353 251 344 Q227 335 209 318.5 Q191 302 181 277.5 Q171 253 171 222 Q171 162 205.5 128.5 Q240 95 299 95 Q326 95 356.5 103 Q387 111 413 126 L413 19 Q400 12 382.5 6.5 Q365 1 345.5 -3 Q326 -7 305.5 -9 Q285 -11 267 -11 Q211 -11 167.5 6.5 Q124 24 94.5 54.5 Q65 85 50 127 Q35 169 35 218 Q35 272 53 316 Q71 360 103.5 392 Q136 424 181 441.5 Q226 459 280 459 Z M314 516 L253 590 L187 516 L87 516 L245 690 L266 690 L419 516 L314 516 Z " />
<glyph glyph-name="Cdotaccent" unicode="&#x10a;" horiz-adv-x="622" d="M590 27 Q569 16 544 9 Q519 2 493.5 -3 Q468 -8 443.5 -10 Q419 -12 398 -12 Q312 -12 246.5 14 Q181 40 136 85.5 Q91 131 68 193 Q45 255 45 327 Q45 398 70 461 Q95 524 141.5 571 Q188 618 254 645.5 Q320 673 402 673 Q418 673 439.5 671.5 Q461 670 484 667 Q507 664 529 658.5 Q551 653 569 646 L569 521 Q531 538 493.5 545 Q456 552 423 552 Q377 552 336 537.5 Q295 523 264 494.5 Q233 466 214.5 424 Q196 382 196 327 Q196 223 255.5 166 Q315 109 415 109 Q456 109 501 120 Q546 131 589 153 L590 27 Z M457 807 Q457 776 436.5 753.5 Q416 731 383 731 Q348 731 328 753.5 Q308 776 308 805 Q308 838 331 859 Q354 880 383 880 Q415 880 436 858 Q457 836 457 807 Z " />
<glyph glyph-name="cdotaccent" unicode="&#x10b;" horiz-adv-x="440" d="M280 459 Q309 459 341 454 Q373 449 397 439 L397 329 Q374 343 348.5 348 Q323 353 302 353 Q275 353 251 344 Q227 335 209 318.5 Q191 302 181 277.5 Q171 253 171 222 Q171 162 205.5 128.5 Q240 95 299 95 Q326 95 356.5 103 Q387 111 413 126 L413 19 Q400 12 382.5 6.5 Q365 1 345.5 -3 Q326 -7 305.5 -9 Q285 -11 267 -11 Q211 -11 167.5 6.5 Q124 24 94.5 54.5 Q65 85 50 127 Q35 169 35 218 Q35 272 53 316 Q71 360 103.5 392 Q136 424 181 441.5 Q226 459 280 459 Z M341 599 Q341 568 320.5 545.5 Q300 523 267 523 Q232 523 212 545.5 Q192 568 192 597 Q192 630 215 651 Q238 672 267 672 Q299 672 320 650 Q341 628 341 599 Z " />
<glyph glyph-name="Ccaron" unicode="&#x10c;" horiz-adv-x="622" d="M590 27 Q569 16 544 9 Q519 2 493.5 -3 Q468 -8 443.5 -10 Q419 -12 398 -12 Q312 -12 246.5 14 Q181 40 136 85.5 Q91 131 68 193 Q45 255 45 327 Q45 398 70 461 Q95 524 141.5 571 Q188 618 254 645.5 Q320 673 402 673 Q418 673 439.5 671.5 Q461 670 484 667 Q507 664 529 658.5 Q551 653 569 646 L569 521 Q531 538 493.5 545 Q456 552 423 552 Q377 552 336 537.5 Q295 523 264 494.5 Q233 466 214.5 424 Q196 382 196 327 Q196 223 255.5 166 Q315 109 415 109 Q456 109 501 120 Q546 131 589 153 L590 27 Z M551 882 L392 718 L371 718 L207 882 L312 882 L380 811 L443 882 L551 882 Z " />
<glyph glyph-name="ccaron" unicode="&#x10d;" horiz-adv-x="440" d="M280 459 Q309 459 341 454 Q373 449 397 439 L397 329 Q374 343 348.5 348 Q323 353 302 353 Q275 353 251 344 Q227 335 209 318.5 Q191 302 181 277.5 Q171 253 171 222 Q171 162 205.5 128.5 Q240 95 299 95 Q326 95 356.5 103 Q387 111 413 126 L413 19 Q400 12 382.5 6.5 Q365 1 345.5 -3 Q326 -7 305.5 -9 Q285 -11 267 -11 Q211 -11 167.5 6.5 Q124 24 94.5 54.5 Q65 85 50 127 Q35 169 35 218 Q35 272 53 316 Q71 360 103.5 392 Q136 424 181 441.5 Q226 459 280 459 Z M426 685 L273 511 L252 511 L94 685 L194 685 L259 612 L321 685 L426 685 Z " />
<glyph glyph-name="Dcaron" unicode="&#x10e;" horiz-adv-x="697" d="M505 332 Q505 379 493.5 418.5 Q482 458 458 486 Q434 514 398 529.5 Q362 545 313 545 L215 545 L215 115 L319 115 Q360 115 394.5 128.5 Q429 142 453.5 169 Q478 196 491.5 237 Q505 278 505 332 Z M67 0 L67 660 L309 660 Q393 660 457 635 Q521 610 564 566 Q607 522 629 462 Q651 402 651 332 Q651 263 630 202.5 Q609 142 568 97 Q527 52 465.5 26 Q404 0 323 0 L67 0 Z M472 878 L313 714 L292 714 L128 878 L233 878 L301 807 L364 878 L472 878 Z " />
<glyph glyph-name="dcaron" unicode="&#x10f;" horiz-adv-x="710" d="M403 224 Q403 250 395 273 Q387 296 372 313.5 Q357 331 335 341 Q313 351 285 351 Q259 351 238 341 Q217 331 202 313.5 Q187 296 179 272.5 Q171 249 171 222 Q171 165 201.5 130.5 Q232 96 287 96 Q312 96 333.5 106 Q355 116 370.5 133 Q386 150 394.5 173.5 Q403 197 403 224 Z M407 415 Q407 489 407.5 562.5 Q408 636 408 710 L538 710 Q538 531 538.5 355 Q539 179 539 0 L437 0 L419 52 Q389 18 344 3.5 Q299 -11 260 -11 Q207 -11 166 5.5 Q125 22 97 52 Q69 82 54 124 Q39 166 39 216 Q39 269 56 313.5 Q73 358 103 390 Q133 422 174.5 440 Q216 458 266 458 Q297 458 333.5 449 Q370 440 402 412 L407 415 Z M592 652 Q592 681 611.5 700 Q631 719 657 719 Q687 719 705 699 Q723 679 723 648 Q723 627 714 601.5 Q705 576 692 550 Q679 524 664 500.5 Q649 477 636 461 L588 469 L634 591 Q612 599 602 615.5 Q592 632 592 652 Z " />
<glyph glyph-name="Dcroat" unicode="&#x110;" horiz-adv-x="697" d="M67 0 L67 299 L13 299 L13 375 L67 375 L67 660 L309 660 Q393 660 457 635 Q521 610 564 566 Q607 522 629 462 Q651 402 651 332 Q651 263 630 202.5 Q609 142 568 97 Q527 52 465.5 26 Q404 0 323 0 L67 0 Z M505 332 Q505 438 451.5 491.5 Q398 545 285 545 L215 545 L215 375 L362 375 L362 299 L215 299 L215 115 L287 115 Q399 115 452 168.5 Q505 222 505 332 Z " />
<glyph glyph-name="dcroat" unicode="&#x111;" horiz-adv-x="589" d="M405 547 L236 547 L236 610 L406 610 L406 710 L536 710 L536 610 L589 610 L589 547 L536 547 Q536 409 536.5 273 Q537 137 537 0 L435 0 L417 52 Q387 18 342 3.5 Q297 -11 258 -11 Q205 -11 164 5.5 Q123 22 95 52 Q67 82 52 124 Q37 166 37 216 Q37 269 54 313.5 Q71 358 101 390 Q131 422 172.5 440 Q214 458 264 458 Q295 458 331.5 449 Q368 440 400 412 L405 415 L405 547 Z M401 224 Q401 250 393 273 Q385 296 370 313.5 Q355 331 333 341 Q311 351 283 351 Q257 351 236 341 Q215 331 200 313.5 Q185 296 177 272.5 Q169 249 169 222 Q169 165 199.5 130.5 Q230 96 285 96 Q310 96 331.5 106 Q353 116 368.5 133 Q384 150 392.5 173.5 Q401 197 401 224 Z " />
<glyph glyph-name="Emacron" unicode="&#x112;" horiz-adv-x="569" d="M533 0 L67 0 L67 660 L514 660 L514 545 L216 545 L216 399 L483 399 L483 288 L216 288 L216 115 L533 115 L533 0 Z M141 832 L458 832 L458 746 L141 746 L141 832 Z " />
<glyph glyph-name="emacron" unicode="&#x113;" horiz-adv-x="522" d="M265 460 Q317 460 358 443.5 Q399 427 427.5 396.5 Q456 366 471 323 Q486 280 486 227 L486 197 L169 197 Q172 167 183.5 147 Q195 127 213 115 Q231 103 254 97.5 Q277 92 303 92 Q338 92 377.5 102.5 Q417 113 464 144 L464 37 Q426 12 381 0.5 Q336 -11 289 -11 Q225 -11 177 7.5 Q129 26 97.5 58 Q66 90 50.5 133 Q35 176 35 225 Q35 274 51.5 316.5 Q68 359 98 391 Q128 423 170.5 441.5 Q213 460 265 460 Z M270 363 Q232 363 207 339.5 Q182 316 173 281 L362 281 Q354 319 331 341 Q308 363 270 363 Z M115 628 L424 628 L424 544 L115 544 L115 628 Z " />
<glyph glyph-name="Ebreve" unicode="&#x114;" horiz-adv-x="569" d="M533 0 L67 0 L67 660 L514 660 L514 545 L216 545 L216 399 L483 399 L483 288 L216 288 L216 115 L533 115 L533 0 Z M300 712 Q262 712 233.5 725.5 Q205 739 186.5 761 Q168 783 158 812 Q148 841 147 871 L216 871 Q218 829 242 806 Q266 783 302 783 Q340 783 360.5 809.5 Q381 836 386 871 L454 871 Q452 843 442.5 814.5 Q433 786 414.5 763.5 Q396 741 368 726.5 Q340 712 300 712 Z " />
<glyph glyph-name="ebreve" unicode="&#x115;" horiz-adv-x="522" d="M265 460 Q317 460 358 443.5 Q399 427 427.5 396.5 Q456 366 471 323 Q486 280 486 227 L486 197 L169 197 Q172 167 183.5 147 Q195 127 213 115 Q231 103 254 97.5 Q277 92 303 92 Q338 92 377.5 102.5 Q417 113 464 144 L464 37 Q426 12 381 0.5 Q336 -11 289 -11 Q225 -11 177 7.5 Q129 26 97.5 58 Q66 90 50.5 133 Q35 176 35 225 Q35 274 51.5 316.5 Q68 359 98 391 Q128 423 170.5 441.5 Q213 460 265 460 Z M270 363 Q232 363 207 339.5 Q182 316 173 281 L362 281 Q354 319 331 341 Q308 363 270 363 Z M271 516 Q233 516 204.5 529.5 Q176 543 157.5 565.5 Q139 588 129 617 Q119 646 118 677 L187 677 Q189 634 213 611.5 Q237 589 273 589 Q311 589 331.5 615 Q352 641 357 677 L425 677 Q423 648 413.5 619.5 Q404 591 385.5 568 Q367 545 339 530.5 Q311 516 271 516 Z " />
<glyph glyph-name="Edotaccent" unicode="&#x116;" horiz-adv-x="569" d="M533 0 L67 0 L67 660 L514 660 L514 545 L216 545 L216 399 L483 399 L483 288 L216 288 L216 115 L533 115 L533 0 Z M377 802 Q377 771 356.5 748.5 Q336 726 303 726 Q268 726 248 748.5 Q228 771 228 800 Q228 833 251 854 Q274 875 303 875 Q335 875 356 853 Q377 831 377 802 Z " />
<glyph glyph-name="edotaccent" unicode="&#x117;" horiz-adv-x="522" d="M265 460 Q317 460 358 443.5 Q399 427 427.5 396.5 Q456 366 471 323 Q486 280 486 227 L486 197 L169 197 Q172 167 183.5 147 Q195 127 213 115 Q231 103 254 97.5 Q277 92 303 92 Q338 92 377.5 102.5 Q417 113 464 144 L464 37 Q426 12 381 0.5 Q336 -11 289 -11 Q225 -11 177 7.5 Q129 26 97.5 58 Q66 90 50.5 133 Q35 176 35 225 Q35 274 51.5 316.5 Q68 359 98 391 Q128 423 170.5 441.5 Q213 460 265 460 Z M270 363 Q232 363 207 339.5 Q182 316 173 281 L362 281 Q354 319 331 341 Q308 363 270 363 Z M344 598 Q344 567 323.5 544.5 Q303 522 270 522 Q235 522 215 544.5 Q195 567 195 596 Q195 629 218 650 Q241 671 270 671 Q302 671 323 649 Q344 627 344 598 Z " />
<glyph glyph-name="Eogonek" unicode="&#x118;" horiz-adv-x="569" d="M533 0 L454 0 Q421 -29 400.5 -63 Q380 -97 380 -124 Q380 -150 396.5 -161.5 Q413 -173 438 -173 Q461 -173 489 -163.5 Q517 -154 537 -143 L535 -204 Q507 -221 470 -230 Q433 -239 401 -239 Q348 -239 321 -217 Q294 -195 294 -154 Q294 -141 298.5 -122.5 Q303 -104 314 -83.5 Q325 -63 343 -41.5 Q361 -20 388 0 L67 0 L67 660 L514 660 L514 545 L216 545 L216 399 L483 399 L483 288 L216 288 L216 115 L533 115 L533 0 Z " />
<glyph glyph-name="eogonek" unicode="&#x119;" horiz-adv-x="522" d="M265 460 Q317 460 358 443.5 Q399 427 427.5 396.5 Q456 366 471 323 Q486 280 486 227 L486 197 L169 197 Q172 167 183.5 147 Q195 127 213 115 Q231 103 254 97.5 Q277 92 303 92 Q338 92 377.5 102.5 Q417 113 464 144 L464 37 Q429 14 388 2 Q358 -26 339.5 -57.5 Q321 -89 321 -115 Q321 -141 337.5 -152.5 Q354 -164 379 -164 Q402 -164 430 -154.5 Q458 -145 478 -134 L476 -195 Q448 -212 411 -221 Q374 -230 342 -230 Q289 -230 262 -208 Q235 -186 235 -145 Q235 -122 250 -85 Q265 -48 305 -10 Q301 -10 297 -10.5 Q293 -11 289 -11 Q225 -11 177 7.5 Q129 26 97.5 58 Q66 90 50.5 133 Q35 176 35 225 Q35 274 51.5 316.5 Q68 359 98 391 Q128 423 170.5 441.5 Q213 460 265 460 Z M270 363 Q232 363 207 339.5 Q182 316 173 281 L362 281 Q354 319 331 341 Q308 363 270 363 Z " />
<glyph glyph-name="Ecaron" unicode="&#x11a;" horiz-adv-x="569" d="M533 0 L67 0 L67 660 L514 660 L514 545 L216 545 L216 399 L483 399 L483 288 L216 288 L216 115 L533 115 L533 0 Z M469 878 L310 714 L289 714 L125 878 L230 878 L298 807 L361 878 L469 878 Z " />
<glyph glyph-name="ecaron" unicode="&#x11b;" horiz-adv-x="522" d="M265 460 Q317 460 358 443.5 Q399 427 427.5 396.5 Q456 366 471 323 Q486 280 486 227 L486 197 L169 197 Q172 167 183.5 147 Q195 127 213 115 Q231 103 254 97.5 Q277 92 303 92 Q338 92 377.5 102.5 Q417 113 464 144 L464 37 Q426 12 381 0.5 Q336 -11 289 -11 Q225 -11 177 7.5 Q129 26 97.5 58 Q66 90 50.5 133 Q35 176 35 225 Q35 274 51.5 316.5 Q68 359 98 391 Q128 423 170.5 441.5 Q213 460 265 460 Z M270 363 Q232 363 207 339.5 Q182 316 173 281 L362 281 Q354 319 331 341 Q308 363 270 363 Z M431 683 L278 509 L257 509 L99 683 L199 683 L264 610 L326 683 L431 683 Z " />
<glyph glyph-name="Gcircumflex" unicode="&#x11c;" horiz-adv-x="680" d="M44 325 Q44 397 69 460.5 Q94 524 141 571.5 Q188 619 255 646.5 Q322 674 406 674 Q444 674 496.5 666.5 Q549 659 594 638 L594 509 Q550 532 504 541.5 Q458 551 418 551 Q370 551 329.5 535.5 Q289 520 259.5 490.5 Q230 461 213 419 Q196 377 196 323 Q196 278 208.5 238.5 Q221 199 246.5 170 Q272 141 310.5 124 Q349 107 402 107 Q423 107 448 111 Q473 115 491 122 L491 340 L623 340 L623 27 Q574 7 513 -2 Q452 -11 390 -11 Q305 -11 240 14 Q175 39 131.5 84 Q88 129 66 190.5 Q44 252 44 325 Z M464 719 L401 788 L333 719 L228 719 L393 884 L414 884 L573 719 L464 719 Z " />
<glyph glyph-name="gcircumflex" unicode="&#x11d;" horiz-adv-x="519" d="M33 -95 Q33 -61 51 -30 Q69 1 102 23 L75 28 Q46 33 33 48.5 Q20 64 20 81 L20 87 L103 170 Q78 192 67.5 222.5 Q57 253 57 285 Q57 323 72 355 Q87 387 113.5 410 Q140 433 175.5 446 Q211 459 253 459 Q275 459 297 454.5 Q319 450 337 445 L496 445 L496 383 Q478 381 460.5 378 Q443 375 426 372 Q441 351 448.5 327.5 Q456 304 456 283 Q456 251 443 221.5 Q430 192 405.5 170 Q381 148 345.5 135 Q310 122 265 122 Q245 122 219.5 126 Q194 130 173 139 L150 101 L367 77 Q432 69 461.5 41 Q491 13 491 -42 Q491 -66 478 -97.5 Q465 -129 435.5 -157.5 Q406 -186 358 -205.5 Q310 -225 240 -225 Q181 -225 141.5 -213 Q102 -201 78 -182 Q54 -163 43.5 -140 Q33 -117 33 -95 Z M326 516 L265 590 L199 516 L99 516 L257 690 L278 690 L431 516 L326 516 Z M241 -123 Q271 -123 292.5 -115 Q314 -107 328 -95 Q342 -83 349 -68 Q356 -53 356 -39 Q356 -21 341.5 -12.5 Q327 -4 306 -2 L177 12 Q165 -1 156.5 -18 Q148 -35 148 -54 Q148 -81 170.5 -102 Q193 -123 241 -123 Z M259 207 Q297 207 318 231.5 Q339 256 339 291 Q339 326 316.5 349.5 Q294 373 259 373 Q224 373 202 349 Q180 325 180 291 Q180 254 200.5 230.5 Q221 207 259 207 Z " />
<glyph glyph-name="Gbreve" unicode="&#x11e;" horiz-adv-x="680" d="M44 325 Q44 397 69 460.5 Q94 524 141 571.5 Q188 619 255 646.5 Q322 674 406 674 Q444 674 496.5 666.5 Q549 659 594 638 L594 509 Q550 532 504 541.5 Q458 551 418 551 Q370 551 329.5 535.5 Q289 520 259.5 490.5 Q230 461 213 419 Q196 377 196 323 Q196 278 208.5 238.5 Q221 199 246.5 170 Q272 141 310.5 124 Q349 107 402 107 Q423 107 448 111 Q473 115 491 122 L491 340 L623 340 L623 27 Q574 7 513 -2 Q452 -11 390 -11 Q305 -11 240 14 Q175 39 131.5 84 Q88 129 66 190.5 Q44 252 44 325 Z M401 712 Q363 712 334.5 725.5 Q306 739 287.5 761 Q269 783 259 812 Q249 841 248 871 L317 871 Q319 829 343 806 Q367 783 403 783 Q441 783 461.5 809.5 Q482 836 487 871 L555 871 Q553 843 543.5 814.5 Q534 786 515.5 763.5 Q497 741 469 726.5 Q441 712 401 712 Z " />
<glyph glyph-name="gbreve" unicode="&#x11f;" horiz-adv-x="519" d="M33 -95 Q33 -61 51 -30 Q69 1 102 23 L75 28 Q46 33 33 48.5 Q20 64 20 81 L20 87 L103 170 Q78 192 67.5 222.5 Q57 253 57 285 Q57 323 72 355 Q87 387 113.5 410 Q140 433 175.5 446 Q211 459 253 459 Q275 459 297 454.5 Q319 450 337 445 L496 445 L496 383 Q478 381 460.5 378 Q443 375 426 372 Q441 351 448.5 327.5 Q456 304 456 283 Q456 251 443 221.5 Q430 192 405.5 170 Q381 148 345.5 135 Q310 122 265 122 Q245 122 219.5 126 Q194 130 173 139 L150 101 L367 77 Q432 69 461.5 41 Q491 13 491 -42 Q491 -66 478 -97.5 Q465 -129 435.5 -157.5 Q406 -186 358 -205.5 Q310 -225 240 -225 Q181 -225 141.5 -213 Q102 -201 78 -182 Q54 -163 43.5 -140 Q33 -117 33 -95 Z M265 516 Q227 516 198.5 529.5 Q170 543 151.5 565.5 Q133 588 123 617 Q113 646 112 677 L181 677 Q183 634 207 611.5 Q231 589 267 589 Q305 589 325.5 615 Q346 641 351 677 L419 677 Q417 648 407.5 619.5 Q398 591 379.5 568 Q361 545 333 530.5 Q305 516 265 516 Z M241 -123 Q271 -123 292.5 -115 Q314 -107 328 -95 Q342 -83 349 -68 Q356 -53 356 -39 Q356 -21 341.5 -12.5 Q327 -4 306 -2 L177 12 Q165 -1 156.5 -18 Q148 -35 148 -54 Q148 -81 170.5 -102 Q193 -123 241 -123 Z M259 207 Q297 207 318 231.5 Q339 256 339 291 Q339 326 316.5 349.5 Q294 373 259 373 Q224 373 202 349 Q180 325 180 291 Q180 254 200.5 230.5 Q221 207 259 207 Z " />
<glyph glyph-name="Gdotaccent" unicode="&#x120;" horiz-adv-x="680" d="M44 325 Q44 397 69 460.5 Q94 524 141 571.5 Q188 619 255 646.5 Q322 674 406 674 Q444 674 496.5 666.5 Q549 659 594 638 L594 509 Q550 532 504 541.5 Q458 551 418 551 Q370 551 329.5 535.5 Q289 520 259.5 490.5 Q230 461 213 419 Q196 377 196 323 Q196 278 208.5 238.5 Q221 199 246.5 170 Q272 141 310.5 124 Q349 107 402 107 Q423 107 448 111 Q473 115 491 122 L491 340 L623 340 L623 27 Q574 7 513 -2 Q452 -11 390 -11 Q305 -11 240 14 Q175 39 131.5 84 Q88 129 66 190.5 Q44 252 44 325 Z M476 807 Q476 776 455.5 753.5 Q435 731 402 731 Q367 731 347 753.5 Q327 776 327 805 Q327 838 350 859 Q373 880 402 880 Q434 880 455 858 Q476 836 476 807 Z " />
<glyph glyph-name="gdotaccent" unicode="&#x121;" horiz-adv-x="519" d="M33 -95 Q33 -61 51 -30 Q69 1 102 23 L75 28 Q46 33 33 48.5 Q20 64 20 81 L20 87 L103 170 Q78 192 67.5 222.5 Q57 253 57 285 Q57 323 72 355 Q87 387 113.5 410 Q140 433 175.5 446 Q211 459 253 459 Q275 459 297 454.5 Q319 450 337 445 L496 445 L496 383 Q478 381 460.5 378 Q443 375 426 372 Q441 351 448.5 327.5 Q456 304 456 283 Q456 251 443 221.5 Q430 192 405.5 170 Q381 148 345.5 135 Q310 122 265 122 Q245 122 219.5 126 Q194 130 173 139 L150 101 L367 77 Q432 69 461.5 41 Q491 13 491 -42 Q491 -66 478 -97.5 Q465 -129 435.5 -157.5 Q406 -186 358 -205.5 Q310 -225 240 -225 Q181 -225 141.5 -213 Q102 -201 78 -182 Q54 -163 43.5 -140 Q33 -117 33 -95 Z M241 -123 Q271 -123 292.5 -115 Q314 -107 328 -95 Q342 -83 349 -68 Q356 -53 356 -39 Q356 -21 341.5 -12.5 Q327 -4 306 -2 L177 12 Q165 -1 156.5 -18 Q148 -35 148 -54 Q148 -81 170.5 -102 Q193 -123 241 -123 Z M259 207 Q297 207 318 231.5 Q339 256 339 291 Q339 326 316.5 349.5 Q294 373 259 373 Q224 373 202 349 Q180 325 180 291 Q180 254 200.5 230.5 Q221 207 259 207 Z M338 598 Q338 567 317.5 544.5 Q297 522 264 522 Q229 522 209 544.5 Q189 567 189 596 Q189 629 212 650 Q235 671 264 671 Q296 671 317 649 Q338 627 338 598 Z " />
<glyph glyph-name="Gcommaaccent" unicode="&#x122;" horiz-adv-x="680" d="M44 325 Q44 397 69 460.5 Q94 524 141 571.5 Q188 619 255 646.5 Q322 674 406 674 Q444 674 496.5 666.5 Q549 659 594 638 L594 509 Q550 532 504 541.5 Q458 551 418 551 Q370 551 329.5 535.5 Q289 520 259.5 490.5 Q230 461 213 419 Q196 377 196 323 Q196 278 208.5 238.5 Q221 199 246.5 170 Q272 141 310.5 124 Q349 107 402 107 Q423 107 448 111 Q473 115 491 122 L491 340 L623 340 L623 27 Q574 7 513 -2 Q452 -11 390 -11 Q305 -11 240 14 Q175 39 131.5 84 Q88 129 66 190.5 Q44 252 44 325 Z M326 -116 Q326 -87 345.5 -68 Q365 -49 391 -49 Q421 -49 439 -69 Q457 -89 457 -120 Q457 -141 448 -166.5 Q439 -192 426 -218 Q413 -244 398 -267.5 Q383 -291 370 -307 L322 -299 L368 -177 Q346 -169 336 -152.5 Q326 -136 326 -116 Z " />
<glyph glyph-name="gcommaaccent" unicode="&#x123;" horiz-adv-x="519" d="M33 -95 Q33 -61 51 -30 Q69 1 102 23 L75 28 Q46 33 33 48.5 Q20 64 20 81 L20 87 L103 170 Q78 192 67.5 222.5 Q57 253 57 285 Q57 323 72 355 Q87 387 113.5 410 Q140 433 175.5 446 Q211 459 253 459 Q275 459 297 454.5 Q319 450 337 445 L496 445 L496 383 Q478 381 460.5 378 Q443 375 426 372 Q441 351 448.5 327.5 Q456 304 456 283 Q456 251 443 221.5 Q430 192 405.5 170 Q381 148 345.5 135 Q310 122 265 122 Q245 122 219.5 126 Q194 130 173 139 L150 101 L367 77 Q432 69 461.5 41 Q491 13 491 -42 Q491 -66 478 -97.5 Q465 -129 435.5 -157.5 Q406 -186 358 -205.5 Q310 -225 240 -225 Q181 -225 141.5 -213 Q102 -201 78 -182 Q54 -163 43.5 -140 Q33 -117 33 -95 Z M323 585 Q323 556 303.5 537 Q284 518 258 518 Q228 518 210 538 Q192 558 192 589 Q192 610 201 635.5 Q210 661 223 687 Q236 713 251 736 Q266 759 279 776 L327 768 L281 646 Q303 638 313 621.5 Q323 605 323 585 Z M241 -123 Q271 -123 292.5 -115 Q314 -107 328 -95 Q342 -83 349 -68 Q356 -53 356 -39 Q356 -21 341.5 -12.5 Q327 -4 306 -2 L177 12 Q165 -1 156.5 -18 Q148 -35 148 -54 Q148 -81 170.5 -102 Q193 -123 241 -123 Z M259 207 Q297 207 318 231.5 Q339 256 339 291 Q339 326 316.5 349.5 Q294 373 259 373 Q224 373 202 349 Q180 325 180 291 Q180 254 200.5 230.5 Q221 207 259 207 Z " />
<glyph glyph-name="Hcircumflex" unicode="&#x124;" horiz-adv-x="694" d="M477 0 L477 285 L216 285 L216 0 L67 0 L67 660 L216 660 L216 401 L477 401 L477 660 L626 660 L626 0 L477 0 Z M411 717 L348 786 L280 717 L175 717 L340 882 L361 882 L520 717 L411 717 Z " />
<glyph glyph-name="hcircumflex" unicode="&#x125;" horiz-adv-x="554" d="M358 0 L358 256 Q358 296 339.5 323 Q321 350 283 350 Q243 350 214.5 321 Q186 292 186 229 L186 0 L50 0 L50 711 L181 711 L181 392 Q182 392 182.5 391.5 Q183 391 184 391 Q216 430 252.5 442.5 Q289 455 328 455 Q408 455 450.5 409.5 Q493 364 493 283 L493 0 L358 0 Z M179 745 L116 814 L48 745 L-57 745 L108 910 L129 910 L288 745 L179 745 Z " />
<glyph glyph-name="Hbar" unicode="&#x126;" horiz-adv-x="694" d="M22 573 L67 573 L67 660 L216 660 L216 573 L477 573 L477 660 L626 660 L626 573 L668 573 L668 507 L626 507 L626 0 L477 0 L477 285 L216 285 L216 0 L67 0 L67 507 L22 507 L22 573 Z M477 401 L477 507 L216 507 L216 401 L477 401 Z " />
<glyph glyph-name="hbar" unicode="&#x127;" horiz-adv-x="552" d="M359 0 L359 256 Q359 293 339 321.5 Q319 350 284 350 Q244 350 215.5 321 Q187 292 187 229 L187 0 L51 0 L51 547 L6 547 L6 610 L51 610 L51 711 L182 711 L182 610 L350 610 L350 547 L182 547 L182 392 Q183 392 183.5 391.5 Q184 391 185 391 Q219 431 255.5 444.5 Q292 458 329 458 Q409 458 451.5 412 Q494 366 494 283 L494 0 L359 0 Z " />
<glyph glyph-name="Itilde" unicode="&#x128;" horiz-adv-x="295" d="M72 0 L72 660 L221 660 L221 0 L72 0 Z M313 813 Q300 778 277.5 754 Q255 730 222 730 Q204 730 186 738 Q168 746 151 755 Q134 764 118.5 772 Q103 780 89 780 Q74 780 59.5 765.5 Q45 751 33 725 L-8 780 Q-2 796 7.5 811 Q17 826 29 838 Q41 850 55.5 857 Q70 864 87 864 Q104 864 121.5 856 Q139 848 155.5 838 Q172 828 188 820 Q204 812 219 812 Q237 812 250 827 Q263 842 276 868 L313 813 Z " />
<glyph glyph-name="itilde" unicode="&#x129;" horiz-adv-x="264" d="M293 611 Q280 576 257.5 552 Q235 528 202 528 Q184 528 166 536 Q148 544 131 553 Q114 562 98.5 570 Q83 578 69 578 Q54 578 39.5 563.5 Q25 549 13 523 L-28 578 Q-22 594 -12.5 609 Q-3 624 9 636 Q21 648 35.5 655 Q50 662 67 662 Q84 662 101.5 654 Q119 646 135.5 636 Q152 626 168 618 Q184 610 199 610 Q217 610 230 625 Q243 640 256 666 L293 611 Z M63 0 L63 446 L200 446 L200 0 L63 0 Z " />
<glyph glyph-name="Imacron" unicode="&#x12a;" horiz-adv-x="295" d="M72 0 L72 660 L221 660 L221 0 L72 0 Z M-9 830 L308 830 L308 744 L-9 744 L-9 830 Z " />
<glyph glyph-name="imacron" unicode="&#x12b;" horiz-adv-x="264" d="M-23 628 L286 628 L286 544 L-23 544 L-23 628 Z M63 0 L63 446 L200 446 L200 0 L63 0 Z " />
<glyph glyph-name="Ibreve" unicode="&#x12c;" horiz-adv-x="320" d="M84 0 L84 660 L233 660 L233 0 L84 0 Z M161 713 Q123 713 94.5 726.5 Q66 740 47.5 762 Q29 784 19 813 Q9 842 8 872 L77 872 Q79 830 103 807 Q127 784 163 784 Q201 784 221.5 810.5 Q242 837 247 872 L315 872 Q313 844 303.5 815.5 Q294 787 275.5 764.5 Q257 742 229 727.5 Q201 713 161 713 Z " />
<glyph glyph-name="ibreve" unicode="&#x12d;" horiz-adv-x="264" d="M134 517 Q96 517 67.5 530.5 Q39 544 20.5 566.5 Q2 589 -8 618 Q-18 647 -19 678 L50 678 Q52 635 76 612.5 Q100 590 136 590 Q174 590 194.5 616 Q215 642 220 678 L288 678 Q286 649 276.5 620.5 Q267 592 248.5 569 Q230 546 202 531.5 Q174 517 134 517 Z M63 0 L63 446 L200 446 L200 0 L63 0 Z " />
<glyph glyph-name="Iogonek" unicode="&#x12e;" horiz-adv-x="295" d="M170 0 Q138 -29 118 -62 Q98 -95 98 -122 Q98 -148 114.5 -159.5 Q131 -171 156 -171 Q179 -171 207 -161.5 Q235 -152 255 -141 L253 -202 Q225 -219 188 -228 Q151 -237 119 -237 Q66 -237 39 -215 Q12 -193 12 -152 Q12 -139 16.5 -121 Q21 -103 31.5 -83 Q42 -63 60 -41.5 Q78 -20 104 0 L72 0 L72 660 L221 660 L221 0 L170 0 Z " />
<glyph glyph-name="iogonek" unicode="&#x12f;" horiz-adv-x="264" d="M151 0 Q119 -29 99 -62 Q79 -95 79 -122 Q79 -148 95.5 -159.5 Q112 -171 137 -171 Q160 -171 188 -161.5 Q216 -152 236 -141 L234 -202 Q206 -219 169 -228 Q132 -237 100 -237 Q47 -237 20 -215 Q-7 -193 -7 -152 Q-7 -139 -2.5 -121 Q2 -103 12.5 -83 Q23 -63 41 -41.5 Q59 -20 85 0 L63 0 L63 446 L200 446 L200 0 L151 0 Z M208 594 Q208 564 187.5 541.5 Q167 519 134 519 Q99 519 79 541.5 Q59 564 59 594 Q59 610 65.5 623.5 Q72 637 82.5 647 Q93 657 106.5 662.5 Q120 668 134 668 Q166 668 187 646 Q208 624 208 594 Z " />
<glyph glyph-name="Idotaccent" unicode="&#x130;" horiz-adv-x="295" d="M72 0 L72 660 L221 660 L221 0 L72 0 Z M224 802 Q224 771 203.5 748.5 Q183 726 150 726 Q115 726 95 748.5 Q75 771 75 800 Q75 833 98 854 Q121 875 150 875 Q182 875 203 853 Q224 831 224 802 Z " />
<glyph glyph-name="IJ" unicode="&#x132;" horiz-adv-x="753" d="M68 0 L68 660 L217 660 L217 0 L68 0 Z M402 108 Q440 108 465 119.5 Q490 131 505 152 Q520 173 526 202 Q532 231 532 266 L532 660 L683 660 L683 279 Q683 224 674 171.5 Q665 119 637.5 78.5 Q610 38 559.5 13 Q509 -12 426 -12 Q409 -12 389 -10 Q369 -8 348 -4 Q327 0 306.5 6.5 Q286 13 268 22 L268 147 Q301 128 337.5 118 Q374 108 402 108 Z " />
<glyph glyph-name="ij" unicode="&#x133;" horiz-adv-x="494" d="M59 0 L59 446 L196 446 L196 0 L59 0 Z M204 594 Q204 564 183.5 541.5 Q163 519 130 519 Q95 519 75 541.5 Q55 564 55 594 Q55 610 61.5 623.5 Q68 637 78.5 647 Q89 657 102.5 662.5 Q116 668 130 668 Q162 668 183 646 Q204 624 204 594 Z M442 594 Q442 563 421.5 541 Q401 519 368 519 Q334 519 313.5 541 Q293 563 293 593 Q293 625 316 646 Q339 667 368 667 Q401 667 421.5 645 Q442 623 442 594 Z M219 -224 Q208 -197 197 -171 Q186 -145 175 -119 Q212 -116 236 -106.5 Q260 -97 274 -79.5 Q288 -62 294 -36 Q300 -10 300 26 L300 445 L435 445 L435 17 Q435 -49 417.5 -93.5 Q400 -138 370 -166.5 Q340 -195 301 -208 Q262 -221 219 -224 Z " />
<glyph glyph-name="Jcircumflex" unicode="&#x134;" horiz-adv-x="497" d="M148 109 Q186 109 211 120.5 Q236 132 251 153 Q266 174 272 203 Q278 232 278 267 L278 661 L429 661 L429 280 Q429 225 420 172.5 Q411 120 383.5 79.5 Q356 39 305.5 14 Q255 -11 172 -11 Q155 -11 135 -9 Q115 -7 94 -3 Q73 1 52.5 7.5 Q32 14 14 23 L14 148 Q47 129 83.5 119 Q120 109 148 109 Z M419 717 L356 786 L288 717 L183 717 L348 882 L369 882 L528 717 L419 717 Z " />
<glyph glyph-name="jcircumflex" unicode="&#x135;" horiz-adv-x="255" d="M-64 -127 Q-28 -125 -4 -114.5 Q20 -104 34.5 -85.5 Q49 -67 54.5 -40.5 Q60 -14 60 19 L60 445 L194 445 L194 48 Q194 -29 178 -81 Q162 -133 133.5 -165.5 Q105 -198 65.5 -213 Q26 -228 -21 -231 L-64 -127 Z M187 516 L126 590 L60 516 L-40 516 L118 690 L139 690 L292 516 L187 516 Z " />
<glyph glyph-name="Kcommaaccent" unicode="&#x136;" horiz-adv-x="645" d="M217 357 L457 660 L619 660 L360 342 L637 0 L465 0 L217 327 L217 0 L67 0 L67 660 L217 660 L217 357 Z M246 -99 Q246 -70 265.5 -51 Q285 -32 311 -32 Q341 -32 359 -52 Q377 -72 377 -103 Q377 -124 368 -149.5 Q359 -175 346 -201 Q333 -227 318 -250.5 Q303 -274 290 -290 L242 -282 L288 -160 Q266 -152 256 -135.5 Q246 -119 246 -99 Z " />
<glyph glyph-name="kcommaaccent" unicode="&#x137;" horiz-adv-x="528" d="M509 445 Q462 392 416.5 339.5 Q371 287 324 233 L522 0 L368 0 L191 217 L191 0 L52 0 L52 711 L191 711 L191 245 Q234 296 276.5 345 Q319 394 361 445 L509 445 Z M191 -108 Q191 -79 210.5 -60 Q230 -41 256 -41 Q286 -41 304 -61 Q322 -81 322 -112 Q322 -133 313 -158.5 Q304 -184 291 -210 Q278 -236 263 -259.5 Q248 -283 235 -299 L187 -291 L233 -169 Q211 -161 201 -144.5 Q191 -128 191 -108 Z " />
<glyph glyph-name="kgreenlandic" unicode="&#x138;" horiz-adv-x="528" d="M505 445 Q458 392 412.5 339.5 Q367 287 320 233 L518 0 L364 0 Q320 54 276 108 Q232 162 187 217 L187 0 L48 0 L48 445 L187 445 L187 245 Q230 296 272.5 345 Q315 394 357 445 L505 445 L505 445 Z " />
<glyph glyph-name="Lacute" unicode="&#x139;" horiz-adv-x="532" d="M216 660 L216 115 L521 115 L521 0 L67 0 L67 660 L216 660 Z M79 718 Q112 761 145.5 803.5 Q179 846 212 890 L315 846 Q277 814 240 782 Q203 750 165 718 L79 718 Z " />
<glyph glyph-name="lacute" unicode="&#x13a;" horiz-adv-x="252" d="M58 0 L58 711 L194 711 L194 0 L58 0 Z M68 753 Q101 796 134.5 838.5 Q168 881 201 925 L304 881 Q266 849 229 817 Q192 785 154 753 L68 753 Z " />
<glyph glyph-name="Lcommaaccent" unicode="&#x13b;" horiz-adv-x="532" d="M216 660 L216 115 L521 115 L521 0 L67 0 L67 660 L216 660 Z M229 -110 Q229 -81 248.5 -62 Q268 -43 294 -43 Q324 -43 342 -63 Q360 -83 360 -114 Q360 -135 351 -160.5 Q342 -186 329 -212 Q316 -238 301 -261.5 Q286 -285 273 -301 L225 -293 L271 -171 Q249 -163 239 -146.5 Q229 -130 229 -110 Z " />
<glyph glyph-name="lcommaaccent" unicode="&#x13c;" horiz-adv-x="252" d="M58 0 L58 711 L194 711 L194 0 L58 0 Z M62 -110 Q62 -81 81.5 -62 Q101 -43 127 -43 Q157 -43 175 -63 Q193 -83 193 -114 Q193 -135 184 -160.5 Q175 -186 162 -212 Q149 -238 134 -261.5 Q119 -285 106 -301 L58 -293 L104 -171 Q82 -163 72 -146.5 Q62 -130 62 -110 Z " />
<glyph glyph-name="Lcaron" unicode="&#x13d;" horiz-adv-x="532" d="M216 660 L216 115 L521 115 L521 0 L67 0 L67 660 L216 660 Z M353 604 Q353 633 372.5 652 Q392 671 418 671 Q448 671 466 651 Q484 631 484 600 Q484 579 475 553.5 Q466 528 453 502 Q440 476 425 452.5 Q410 429 397 413 L349 421 L395 543 Q373 551 363 567.5 Q353 584 353 604 Z " />
<glyph glyph-name="lcaron" unicode="&#x13e;" horiz-adv-x="374" d="M70 0 L70 711 L206 711 L206 0 L70 0 Z M256 653 Q256 682 275.5 701 Q295 720 321 720 Q351 720 369 700 Q387 680 387 649 Q387 628 378 602.5 Q369 577 356 551 Q343 525 328 501.5 Q313 478 300 462 L252 470 L298 592 Q276 600 266 616.5 Q256 633 256 653 Z " />
<glyph glyph-name="Ldot" unicode="&#x13f;" horiz-adv-x="532" d="M216 660 L216 115 L521 115 L521 0 L67 0 L67 660 L216 660 Z M470 349 Q470 318 449.5 295.5 Q429 273 396 273 Q361 273 341 295.5 Q321 318 321 347 Q321 380 344 401 Q367 422 396 422 Q428 422 449 400 Q470 378 470 349 Z " />
<glyph glyph-name="ldot" unicode="&#x140;" horiz-adv-x="388" d="M70 0 L70 711 L206 711 L206 0 L70 0 Z M393 357 Q393 326 372.5 303.5 Q352 281 319 281 Q284 281 264 303.5 Q244 326 244 355 Q244 388 267 409 Q290 430 319 430 Q351 430 372 408 Q393 386 393 357 Z " />
<glyph glyph-name="Lslash" unicode="&#x141;" horiz-adv-x="532" d="M-2 273 Q15 281 32.5 289.5 Q50 298 68 306 L68 660 L216 660 L216 362 Q250 378 283.5 394 Q317 410 351 427 L351 357 L216 294 L216 115 L521 115 L521 0 L68 0 L68 239 L-2 207 L-2 273 Z " />
<glyph glyph-name="lslash" unicode="&#x142;" horiz-adv-x="252" d="M57 0 L57 265 Q39 256 21 248 Q3 240 -14 231 L-14 298 Q3 307 21 315.5 Q39 324 57 333 L57 711 L194 711 L194 384 L272 421 L272 351 Q252 341 232.5 332 Q213 323 194 314 L194 0 L57 0 Z " />
<glyph glyph-name="Nacute" unicode="&#x143;" horiz-adv-x="721" d="M67 0 L67 673 L89 673 Q192 572 294.5 482 Q397 392 501 291 L505 291 L505 660 L653 660 L653 -11 L632 -11 L218 381 L215 381 L215 0 L67 0 Z M270 716 Q303 759 336.5 801.5 Q370 844 403 888 L506 844 Q468 812 431 780 Q394 748 356 716 L270 716 Z " />
<glyph glyph-name="nacute" unicode="&#x144;" horiz-adv-x="559" d="M365 0 L365 255 Q365 295 345.5 322.5 Q326 350 291 350 Q250 350 221.5 321 Q193 292 193 229 L193 0 L58 0 L58 445 L163 445 Q168 430 171 414.5 Q174 399 178 384 L182 384 Q217 426 258.5 441 Q300 456 341 456 Q420 456 460 409.5 Q500 363 500 283 L500 0 L365 0 Z M182 516 Q211 561 241 605.5 Q271 650 301 695 L397 652 L259 516 L182 516 Z " />
<glyph glyph-name="Ncommaaccent" unicode="&#x145;" horiz-adv-x="721" d="M67 0 L67 673 L89 673 Q192 572 294.5 482 Q397 392 501 291 L505 291 L505 660 L653 660 L653 -11 L632 -11 L218 381 L215 381 L215 0 L67 0 Z M308 -100 Q308 -71 327.5 -52 Q347 -33 373 -33 Q403 -33 421 -53 Q439 -73 439 -104 Q439 -125 430 -150.5 Q421 -176 408 -202 Q395 -228 380 -251.5 Q365 -275 352 -291 L304 -283 L350 -161 Q328 -153 318 -136.5 Q308 -120 308 -100 Z " />
<glyph glyph-name="ncommaaccent" unicode="&#x146;" horiz-adv-x="559" d="M365 0 L365 255 Q365 295 345.5 322.5 Q326 350 291 350 Q250 350 221.5 321 Q193 292 193 229 L193 0 L58 0 L58 445 L163 445 Q168 430 171 414.5 Q174 399 178 384 L182 384 Q217 426 258.5 441 Q300 456 341 456 Q420 456 460 409.5 Q500 363 500 283 L500 0 L365 0 Z M214 -106 Q214 -77 233.5 -58 Q253 -39 279 -39 Q309 -39 327 -59 Q345 -79 345 -110 Q345 -131 336 -156.5 Q327 -182 314 -208 Q301 -234 286 -257.5 Q271 -281 258 -297 L210 -289 L256 -167 Q234 -159 224 -142.5 Q214 -126 214 -106 Z " />
<glyph glyph-name="Ncaron" unicode="&#x147;" horiz-adv-x="721" d="M67 0 L67 673 L89 673 Q192 572 294.5 482 Q397 392 501 291 L505 291 L505 660 L653 660 L653 -11 L632 -11 L218 381 L215 381 L215 0 L67 0 Z M529 878 L370 714 L349 714 L185 878 L290 878 L358 807 L421 878 L529 878 Z " />
<glyph glyph-name="ncaron" unicode="&#x148;" horiz-adv-x="559" d="M365 0 L365 255 Q365 295 345.5 322.5 Q326 350 291 350 Q250 350 221.5 321 Q193 292 193 229 L193 0 L58 0 L58 445 L163 445 Q168 430 171 414.5 Q174 399 178 384 L182 384 Q217 426 258.5 441 Q300 456 341 456 Q420 456 460 409.5 Q500 363 500 283 L500 0 L365 0 Z M428 683 L275 509 L254 509 L96 683 L196 683 L261 610 L323 683 L428 683 Z " />
<glyph glyph-name="napostrophe" unicode="&#x149;" horiz-adv-x="610" d="M415 0 L415 255 Q415 295 395.5 322.5 Q376 350 341 350 Q300 350 271.5 321 Q243 292 243 229 L243 0 L108 0 L108 445 L213 445 Q218 430 221 414.5 Q224 399 228 384 L232 384 Q267 426 308.5 441 Q350 456 391 456 Q470 456 510 409.5 Q550 363 550 283 L550 0 L415 0 Z M2 650 Q2 679 21.5 698 Q41 717 67 717 Q97 717 115 697 Q133 677 133 646 Q133 625 124 599.5 Q115 574 102 548 Q89 522 74 498.5 Q59 475 46 459 L-2 467 L44 589 Q22 597 12 613.5 Q2 630 2 650 Z " />
<glyph glyph-name="Eng" unicode="&#x14a;" horiz-adv-x="721" d="M67 0 L67 677 L89 677 Q294 468 501 262 L505 262 L505 660 L653 660 L653 56 Q653 -24 637.5 -78.5 Q622 -133 593 -166.5 Q564 -200 523 -215.5 Q482 -231 431 -234 Q419 -208 407 -181.5 Q395 -155 384 -129 Q421 -127 445 -115.5 Q469 -104 483.5 -85 Q498 -66 504 -39 Q510 -12 510 21 L510 89 L218 407 L215 407 L215 0 L67 0 Z " />
<glyph glyph-name="eng" unicode="&#x14b;" horiz-adv-x="559" d="M501 37 Q501 -37 485 -87 Q469 -137 440 -168 Q411 -199 371.5 -213.5 Q332 -228 284 -231 L242 -129 Q279 -127 302.5 -116.5 Q326 -106 339.5 -87.5 Q353 -69 358.5 -43 Q364 -17 364 17 Q364 62 364 96 Q364 130 364.5 157.5 Q365 185 365 207.5 Q365 230 365 251 Q365 292 345 321 Q325 350 291 350 Q251 350 222 321 Q193 292 193 229 L193 0 L57 0 L57 445 L167 445 L181 384 L185 384 Q219 426 259 441 Q299 456 341 456 Q421 456 461 409.5 Q501 363 501 283 L501 37 Z " />
<glyph glyph-name="Omacron" unicode="&#x14c;" horiz-adv-x="799" d="M399 -11 Q316 -11 250.5 15 Q185 41 139 87 Q93 133 68.5 195.5 Q44 258 44 330 Q44 402 71 464 Q98 526 145.5 572.5 Q193 619 258 645.5 Q323 672 400 672 Q478 672 543 645.5 Q608 619 654.5 572.5 Q701 526 727 464 Q753 402 753 330 Q753 258 727 195.5 Q701 133 654 87 Q607 41 542 15 Q477 -11 399 -11 Z M401 549 Q354 549 316 532 Q278 515 251 485.5 Q224 456 209 416 Q194 376 194 330 Q194 283 208.5 242.5 Q223 202 250 172 Q277 142 315 125 Q353 108 401 108 Q448 108 486 125.5 Q524 143 550.5 173 Q577 203 591.5 243.5 Q606 284 606 330 Q606 375 591.5 415 Q577 455 550.5 485 Q524 515 486 532 Q448 549 401 549 Z M237 833 L554 833 L554 747 L237 747 L237 833 Z " />
<glyph glyph-name="omacron" unicode="&#x14d;" horiz-adv-x="568" d="M285 459 Q342 459 388 441 Q434 423 466 391.5 Q498 360 515.5 317 Q533 274 533 224 Q533 173 515 130.5 Q497 88 464.5 56.5 Q432 25 386 7.5 Q340 -10 285 -10 Q226 -10 180 7.5 Q134 25 101.5 56.5 Q69 88 52 131 Q35 174 35 224 Q35 274 53 317 Q71 360 104 391.5 Q137 423 183 441 Q229 459 285 459 Z M286 351 Q259 351 237.5 341 Q216 331 201 314 Q186 297 178 274 Q170 251 170 226 Q170 169 200 133.5 Q230 98 286 98 Q341 98 372 135 Q403 172 403 226 Q403 252 395 274.5 Q387 297 371.5 314 Q356 331 334.5 341 Q313 351 286 351 Z M131 628 L440 628 L440 544 L131 544 L131 628 Z " />
<glyph glyph-name="Obreve" unicode="&#x14e;" horiz-adv-x="799" d="M399 -11 Q316 -11 250.5 15 Q185 41 139 87 Q93 133 68.5 195.5 Q44 258 44 330 Q44 402 71 464 Q98 526 145.5 572.5 Q193 619 258 645.5 Q323 672 400 672 Q478 672 543 645.5 Q608 619 654.5 572.5 Q701 526 727 464 Q753 402 753 330 Q753 258 727 195.5 Q701 133 654 87 Q607 41 542 15 Q477 -11 399 -11 Z M401 549 Q354 549 316 532 Q278 515 251 485.5 Q224 456 209 416 Q194 376 194 330 Q194 283 208.5 242.5 Q223 202 250 172 Q277 142 315 125 Q353 108 401 108 Q448 108 486 125.5 Q524 143 550.5 173 Q577 203 591.5 243.5 Q606 284 606 330 Q606 375 591.5 415 Q577 455 550.5 485 Q524 515 486 532 Q448 549 401 549 Z M400 712 Q362 712 333.5 725.5 Q305 739 286.5 761 Q268 783 258 812 Q248 841 247 871 L316 871 Q318 829 342 806 Q366 783 402 783 Q440 783 460.5 809.5 Q481 836 486 871 L554 871 Q552 843 542.5 814.5 Q533 786 514.5 763.5 Q496 741 468 726.5 Q440 712 400 712 Z " />
<glyph glyph-name="obreve" unicode="&#x14f;" horiz-adv-x="568" d="M285 459 Q342 459 388 441 Q434 423 466 391.5 Q498 360 515.5 317 Q533 274 533 224 Q533 173 515 130.5 Q497 88 464.5 56.5 Q432 25 386 7.5 Q340 -10 285 -10 Q226 -10 180 7.5 Q134 25 101.5 56.5 Q69 88 52 131 Q35 174 35 224 Q35 274 53 317 Q71 360 104 391.5 Q137 423 183 441 Q229 459 285 459 Z M286 351 Q259 351 237.5 341 Q216 331 201 314 Q186 297 178 274 Q170 251 170 226 Q170 169 200 133.5 Q230 98 286 98 Q341 98 372 135 Q403 172 403 226 Q403 252 395 274.5 Q387 297 371.5 314 Q356 331 334.5 341 Q313 351 286 351 Z M286 516 Q248 516 219.5 529.5 Q191 543 172.5 565.5 Q154 588 144 617 Q134 646 133 677 L202 677 Q204 634 228 611.5 Q252 589 288 589 Q326 589 346.5 615 Q367 641 372 677 L440 677 Q438 648 428.5 619.5 Q419 591 400.5 568 Q382 545 354 530.5 Q326 516 286 516 Z " />
<glyph glyph-name="Ohungarumlaut" unicode="&#x150;" horiz-adv-x="799" d="M399 -11 Q316 -11 250.5 15 Q185 41 139 87 Q93 133 68.5 195.5 Q44 258 44 330 Q44 402 71 464 Q98 526 145.5 572.5 Q193 619 258 645.5 Q323 672 400 672 Q478 672 543 645.5 Q608 619 654.5 572.5 Q701 526 727 464 Q753 402 753 330 Q753 258 727 195.5 Q701 133 654 87 Q607 41 542 15 Q477 -11 399 -11 Z M401 549 Q354 549 316 532 Q278 515 251 485.5 Q224 456 209 416 Q194 376 194 330 Q194 283 208.5 242.5 Q223 202 250 172 Q277 142 315 125 Q353 108 401 108 Q448 108 486 125.5 Q524 143 550.5 173 Q577 203 591.5 243.5 Q606 284 606 330 Q606 375 591.5 415 Q577 455 550.5 485 Q524 515 486 532 Q448 549 401 549 Z M405 718 Q438 761 471.5 803.5 Q505 846 538 890 Q564 879 589.5 868 Q615 857 640 846 Q603 814 566 782 Q529 750 491 718 L405 718 Z M260 718 Q293 761 326.5 803.5 Q360 846 393 890 Q419 879 444.5 868 Q470 857 495 846 Q457 814 420.5 782 Q384 750 346 718 L260 718 Z " />
<glyph glyph-name="ohungarumlaut" unicode="&#x151;" horiz-adv-x="568" d="M285 459 Q342 459 388 441 Q434 423 466 391.5 Q498 360 515.5 317 Q533 274 533 224 Q533 173 515 130.5 Q497 88 464.5 56.5 Q432 25 386 7.5 Q340 -10 285 -10 Q226 -10 180 7.5 Q134 25 101.5 56.5 Q69 88 52 131 Q35 174 35 224 Q35 274 53 317 Q71 360 104 391.5 Q137 423 183 441 Q229 459 285 459 Z M286 351 Q259 351 237.5 341 Q216 331 201 314 Q186 297 178 274 Q170 251 170 226 Q170 169 200 133.5 Q230 98 286 98 Q341 98 372 135 Q403 172 403 226 Q403 252 395 274.5 Q387 297 371.5 314 Q356 331 334.5 341 Q313 351 286 351 Z M294 525 L412 705 L508 661 L370 525 L294 525 Z M153 525 Q183 570 212.5 614.5 Q242 659 271 705 L368 661 L229 525 L153 525 Z " />
<glyph glyph-name="Racute" unicode="&#x154;" horiz-adv-x="634" d="M333 659 Q381 659 425.5 645 Q470 631 503.5 604 Q537 577 557.5 536.5 Q578 496 578 443 Q578 418 571 390 Q564 362 548 335 Q532 308 507 284 Q482 260 446 243 L620 0 L450 0 L276 269 L276 283 Q318 288 347.5 302 Q377 316 395.5 335.5 Q414 355 422.5 377.5 Q431 400 431 422 Q431 479 397 512.5 Q363 546 305 546 L215 546 L215 0 L66 0 L66 659 L333 659 Z M209 718 Q242 761 275.5 803.5 Q309 846 342 890 L445 846 Q407 814 370 782 Q333 750 295 718 L209 718 Z " />
<glyph glyph-name="racute" unicode="&#x155;" horiz-adv-x="378" d="M179 374 Q199 416 234.5 436.5 Q270 457 312 457 Q326 457 341 454.5 Q356 452 370 447 L370 324 Q355 331 337 335 Q319 339 302 339 Q254 339 223 302 Q192 265 192 197 L192 0 L57 0 L57 445 L157 445 L174 374 L179 374 Z M89 516 Q118 561 148 605.5 Q178 650 208 695 L304 652 L166 516 L89 516 Z " />
<glyph glyph-name="Rcommaaccent" unicode="&#x156;" horiz-adv-x="634" d="M333 659 Q381 659 425.5 645 Q470 631 503.5 604 Q537 577 557.5 536.5 Q578 496 578 443 Q578 418 571 390 Q564 362 548 335 Q532 308 507 284 Q482 260 446 243 L620 0 L450 0 L276 269 L276 283 Q318 288 347.5 302 Q377 316 395.5 335.5 Q414 355 422.5 377.5 Q431 400 431 422 Q431 479 397 512.5 Q363 546 305 546 L215 546 L215 0 L66 0 L66 659 L333 659 Z M244 -98 Q244 -69 263.5 -50 Q283 -31 309 -31 Q339 -31 357 -51 Q375 -71 375 -102 Q375 -123 366 -148.5 Q357 -174 344 -200 Q331 -226 316 -249.5 Q301 -273 288 -289 L240 -281 L286 -159 Q264 -151 254 -134.5 Q244 -118 244 -98 Z " />
<glyph glyph-name="rcommaaccent" unicode="&#x157;" horiz-adv-x="378" d="M179 374 Q199 416 234.5 436.5 Q270 457 312 457 Q326 457 341 454.5 Q356 452 370 447 L370 324 Q355 331 337 335 Q319 339 302 339 Q254 339 223 302 Q192 265 192 197 L192 0 L57 0 L57 445 L157 445 L174 374 L179 374 Z M58 -109 Q58 -80 77.5 -61 Q97 -42 123 -42 Q153 -42 171 -62 Q189 -82 189 -113 Q189 -134 180 -159.5 Q171 -185 158 -211 Q145 -237 130 -260.5 Q115 -284 102 -300 L54 -292 L100 -170 Q78 -162 68 -145.5 Q58 -129 58 -109 Z " />
<glyph glyph-name="Rcaron" unicode="&#x158;" horiz-adv-x="634" d="M333 659 Q381 659 425.5 645 Q470 631 503.5 604 Q537 577 557.5 536.5 Q578 496 578 443 Q578 418 571 390 Q564 362 548 335 Q532 308 507 284 Q482 260 446 243 L620 0 L450 0 L276 269 L276 283 Q318 288 347.5 302 Q377 316 395.5 335.5 Q414 355 422.5 377.5 Q431 400 431 422 Q431 479 397 512.5 Q363 546 305 546 L215 546 L215 0 L66 0 L66 659 L333 659 Z M465 878 L306 714 L285 714 L121 878 L226 878 L294 807 L357 878 L465 878 Z " />
<glyph glyph-name="rcaron" unicode="&#x159;" horiz-adv-x="378" d="M179 374 Q199 416 234.5 436.5 Q270 457 312 457 Q326 457 341 454.5 Q356 452 370 447 L370 324 Q355 331 337 335 Q319 339 302 339 Q254 339 223 302 Q192 265 192 197 L192 0 L57 0 L57 445 L157 445 L174 374 L179 374 Z M344 683 L191 509 L170 509 L12 683 L112 683 L177 610 L239 683 L344 683 Z " />
<glyph glyph-name="Sacute" unicode="&#x15a;" horiz-adv-x="538" d="M32 177 Q55 159 83 146 Q111 133 139 124 Q167 115 193.5 110.5 Q220 106 241 106 Q265 106 285.5 110 Q306 114 322 123 Q338 132 347 145.5 Q356 159 356 179 Q356 210 332.5 232 Q309 254 274 272 Q239 290 198.5 308 Q158 326 123 350.5 Q88 375 64.5 408.5 Q41 442 41 491 Q41 533 57.5 566.5 Q74 600 104 624 Q134 648 175 661 Q216 674 266 674 Q308 674 359.5 665 Q411 656 463 632 L463 504 Q445 516 422.5 526 Q400 536 377 542.5 Q354 549 331.5 553 Q309 557 290 557 Q250 557 220 542 Q190 527 190 492 Q190 469 213.5 452.5 Q237 436 272 420 Q307 404 347.5 385.5 Q388 367 423 340.5 Q458 314 481.5 275.5 Q505 237 505 182 Q505 142 490 107 Q475 72 444.5 45.5 Q414 19 368 3.5 Q322 -12 260 -12 Q234 -12 205 -9.5 Q176 -7 146 -0.5 Q116 6 86.5 16 Q57 26 32 41 L32 177 Z M181 718 Q214 761 247.5 803.5 Q281 846 314 890 L417 846 Q379 814 342 782 Q305 750 267 718 L181 718 Z " />
<glyph glyph-name="sacute" unicode="&#x15b;" horiz-adv-x="399" d="M22 142 Q57 116 100.5 101.5 Q144 87 175 87 Q241 87 241 123 Q241 139 225.5 151 Q210 163 187 175 Q164 187 137 199.5 Q110 212 87 229 Q64 246 48.5 269.5 Q33 293 33 327 Q33 357 45.5 381.5 Q58 406 80 423 Q102 440 133 449 Q164 458 201 458 Q229 458 269 451 Q309 444 348 427 L348 320 Q319 337 284 347 Q249 357 221 357 Q165 357 165 324 Q165 311 180.5 301.5 Q196 292 218.5 282 Q241 272 268 260 Q295 248 317.5 230.5 Q340 213 355.5 187.5 Q371 162 371 126 Q371 99 360 74.5 Q349 50 327 31 Q305 12 270.5 1 Q236 -10 190 -10 Q152 -10 106 -1.5 Q60 7 22 28 L22 142 Z M120 516 Q149 561 179 605.5 Q209 650 239 695 L335 652 L197 516 L120 516 Z " />
<glyph glyph-name="Scircumflex" unicode="&#x15c;" horiz-adv-x="538" d="M32 177 Q55 159 83 146 Q111 133 139 124 Q167 115 193.5 110.5 Q220 106 241 106 Q265 106 285.5 110 Q306 114 322 123 Q338 132 347 145.5 Q356 159 356 179 Q356 210 332.5 232 Q309 254 274 272 Q239 290 198.5 308 Q158 326 123 350.5 Q88 375 64.5 408.5 Q41 442 41 491 Q41 533 57.5 566.5 Q74 600 104 624 Q134 648 175 661 Q216 674 266 674 Q308 674 359.5 665 Q411 656 463 632 L463 504 Q445 516 422.5 526 Q400 536 377 542.5 Q354 549 331.5 553 Q309 557 290 557 Q250 557 220 542 Q190 527 190 492 Q190 469 213.5 452.5 Q237 436 272 420 Q307 404 347.5 385.5 Q388 367 423 340.5 Q458 314 481.5 275.5 Q505 237 505 182 Q505 142 490 107 Q475 72 444.5 45.5 Q414 19 368 3.5 Q322 -12 260 -12 Q234 -12 205 -9.5 Q176 -7 146 -0.5 Q116 6 86.5 16 Q57 26 32 41 L32 177 Z M338 718 L275 787 L207 718 L102 718 L267 883 L288 883 L447 718 L338 718 Z " />
<glyph glyph-name="scircumflex" unicode="&#x15d;" horiz-adv-x="399" d="M22 142 Q57 116 100.5 101.5 Q144 87 175 87 Q241 87 241 123 Q241 139 225.5 151 Q210 163 187 175 Q164 187 137 199.5 Q110 212 87 229 Q64 246 48.5 269.5 Q33 293 33 327 Q33 357 45.5 381.5 Q58 406 80 423 Q102 440 133 449 Q164 458 201 458 Q229 458 269 451 Q309 444 348 427 L348 320 Q319 337 284 347 Q249 357 221 357 Q165 357 165 324 Q165 311 180.5 301.5 Q196 292 218.5 282 Q241 272 268 260 Q295 248 317.5 230.5 Q340 213 355.5 187.5 Q371 162 371 126 Q371 99 360 74.5 Q349 50 327 31 Q305 12 270.5 1 Q236 -10 190 -10 Q152 -10 106 -1.5 Q60 7 22 28 L22 142 Z M261 516 L200 590 L134 516 L34 516 L192 690 L213 690 L366 516 L261 516 Z " />
<glyph glyph-name="Scedilla" unicode="&#x15e;" horiz-adv-x="538" d="M371 -143 Q371 -160 363.5 -178 Q356 -196 340 -211 Q324 -226 298.5 -235.5 Q273 -245 237 -245 Q194 -245 150 -229 L150 -167 Q167 -175 187.5 -180 Q208 -185 231 -185 Q256 -185 272 -173.5 Q288 -162 288 -143 Q288 -123 271.5 -114.5 Q255 -106 235 -106 Q217 -106 200 -113 Q195 -109 190.5 -106 Q186 -103 181 -98 L225 -11 Q177 -8 126 3.5 Q75 15 32 41 L32 177 Q55 159 83 146 Q111 133 139 124 Q167 115 193.5 110.5 Q220 106 241 106 Q265 106 285.5 110 Q306 114 322 123 Q338 132 347 145.5 Q356 159 356 179 Q356 210 332.5 232 Q309 254 274 272 Q239 290 198.5 308 Q158 326 123 350.5 Q88 375 64.5 408.5 Q41 442 41 491 Q41 533 57.5 566.5 Q74 600 104 624 Q134 648 175 661 Q216 674 266 674 Q308 674 359.5 665 Q411 656 463 632 L463 504 Q445 516 422.5 526 Q400 536 377 542.5 Q354 549 331.5 553 Q309 557 290 557 Q250 557 220 542 Q190 527 190 492 Q190 469 213.5 452.5 Q237 436 272 420 Q307 404 347.5 385.5 Q388 367 423 340.5 Q458 314 481.5 275.5 Q505 237 505 182 Q505 144 491 110 Q477 76 449 50 Q421 24 379 8 Q337 -8 280 -11 L257 -53 Q288 -55 309.5 -63 Q331 -71 344.5 -83.5 Q358 -96 364.5 -111.5 Q371 -127 371 -143 Z " />
<glyph glyph-name="scedilla" unicode="&#x15f;" horiz-adv-x="399" d="M295 -141 Q295 -158 287.5 -176 Q280 -194 264 -209 Q248 -224 222.5 -233.5 Q197 -243 161 -243 Q118 -243 74 -227 L74 -165 Q91 -173 111.5 -178 Q132 -183 155 -183 Q180 -183 196 -171.5 Q212 -160 212 -141 Q212 -121 195.5 -112.5 Q179 -104 159 -104 Q141 -104 124 -111 Q119 -107 114.5 -104 Q110 -101 105 -96 L150 -8 Q118 -5 84.5 3.5 Q51 12 22 28 L22 142 Q57 116 100.5 101.5 Q144 87 175 87 Q241 87 241 123 Q241 139 225.5 151 Q210 163 187 175 Q164 187 137 199.5 Q110 212 87 229 Q64 246 48.5 269.5 Q33 293 33 327 Q33 357 45.5 381.5 Q58 406 80 423 Q102 440 133 449 Q164 458 201 458 Q229 458 269 451 Q309 444 348 427 L348 320 Q319 337 284 347 Q249 357 221 357 Q165 357 165 324 Q165 311 180.5 301.5 Q196 292 218.5 282 Q241 272 268 260 Q295 248 317.5 230.5 Q340 213 355.5 187.5 Q371 162 371 126 Q371 100 361 76.5 Q351 53 330.5 34.5 Q310 16 278.5 4 Q247 -8 204 -9 L181 -51 Q212 -53 233.5 -61 Q255 -69 268.5 -81.5 Q282 -94 288.5 -109.5 Q295 -125 295 -141 Z " />
<glyph glyph-name="Tcommaaccent" unicode="&#x162;" horiz-adv-x="559" d="M388 -141 Q388 -158 380.5 -176 Q373 -194 357 -209 Q341 -224 315.5 -233.5 Q290 -243 254 -243 Q211 -243 167 -227 L167 -165 Q184 -173 204.5 -178 Q225 -183 248 -183 Q273 -183 289 -171.5 Q305 -160 305 -141 Q305 -121 288.5 -112.5 Q272 -104 252 -104 Q234 -104 217 -111 Q212 -107 207.5 -104 Q203 -101 198 -96 Q210 -71 222 -47 Q234 -23 247 0 L205 0 L205 546 L12 546 L12 661 L546 661 L546 546 L354 546 L354 0 L302 0 L274 -51 Q305 -53 326.5 -61 Q348 -69 361.5 -81.5 Q375 -94 381.5 -109.5 Q388 -125 388 -141 Z " />
<glyph glyph-name="tcommaaccent" unicode="&#x163;" horiz-adv-x="369" d="M292 -141 Q292 -158 284.5 -176 Q277 -194 261 -209 Q245 -224 219.5 -233.5 Q194 -243 158 -243 Q115 -243 71 -227 L71 -165 Q88 -173 108.5 -178 Q129 -183 152 -183 Q177 -183 193 -171.5 Q209 -160 209 -141 Q209 -121 192.5 -112.5 Q176 -104 156 -104 Q138 -104 121 -111 Q116 -107 111.5 -104 Q107 -101 102 -96 Q115 -70 127.5 -45 Q140 -20 154 5 Q118 23 102 59 Q86 95 86 145 L86 345 L17 345 L17 420 L101 447 L198 591 L220 591 L220 445 L339 445 L339 345 L220 345 L220 168 Q220 133 233 116 Q246 99 278 99 Q292 99 312 104.5 Q332 110 354 123 L354 20 Q327 3 295 -4 Q263 -11 237 -11 Q218 -11 202 -8 L178 -51 Q209 -53 230.5 -61 Q252 -69 265.5 -81.5 Q279 -94 285.5 -109.5 Q292 -125 292 -141 Z " />
<glyph glyph-name="Tcaron" unicode="&#x164;" horiz-adv-x="559" d="M354 546 L354 0 L205 0 L205 546 L12 546 L12 661 L546 661 L546 546 L354 546 Z M453 878 L294 714 L273 714 L109 878 L214 878 L282 807 L345 878 L453 878 Z " />
<glyph glyph-name="tcaron" unicode="&#x165;" horiz-adv-x="419" d="M214 591 L214 445 L333 445 L333 345 L214 345 L214 168 Q214 133 227 116 Q240 99 272 99 Q286 99 306 104.5 Q326 110 348 123 L348 20 Q321 3 289 -4 Q257 -11 231 -11 Q149 -11 114.5 31 Q80 73 80 145 L80 345 L11 345 L11 420 L95 447 L192 591 L214 591 Z M291 683 Q291 712 310.5 731 Q330 750 356 750 Q386 750 404 730 Q422 710 422 679 Q422 658 413 632.5 Q404 607 391 581 Q378 555 363 531.5 Q348 508 335 492 L287 500 L333 622 Q311 630 301 646.5 Q291 663 291 683 Z " />
<glyph glyph-name="Tbar" unicode="&#x166;" horiz-adv-x="559" d="M354 546 L354 372 L497 372 L497 305 L354 305 L354 0 L205 0 L205 305 L62 305 L62 372 L205 372 L205 546 L13 546 L13 661 L546 661 L546 546 L354 546 Z " />
<glyph glyph-name="tbar" unicode="&#x167;" horiz-adv-x="371" d="M220 591 L220 445 L339 445 L339 345 L220 345 L220 286 L322 286 L322 228 L220 228 Q221 203 221 179 Q221 155 226 136.5 Q231 118 242.5 106.5 Q254 95 278 95 Q292 95 312 100.5 Q332 106 354 119 L354 20 Q327 3 295 -4 Q263 -11 237 -11 Q155 -11 120.5 34 Q86 79 86 170 L86 228 L26 228 L26 286 L86 286 L86 345 L17 345 L17 420 Q38 431 58.5 441 Q79 451 100 461 L198 591 L220 591 Z " />
<glyph glyph-name="Utilde" unicode="&#x168;" horiz-adv-x="701" d="M485 660 L633 660 L633 262 Q633 203 615 153 Q597 103 562 66.5 Q527 30 473.5 9.5 Q420 -11 350 -11 Q278 -11 224.5 9 Q171 29 136 64.5 Q101 100 84 149.5 Q67 199 67 259 L67 660 L216 660 L216 260 Q216 232 224 205 Q232 178 248.5 157 Q265 136 290.5 123.5 Q316 111 351 111 Q385 111 410.5 123 Q436 135 452.5 154.5 Q469 174 477 200 Q485 226 485 255 L485 660 Z M513 812 Q500 777 477.5 753 Q455 729 422 729 Q404 729 386 737 Q368 745 351 754 Q334 763 318.5 771 Q303 779 289 779 Q274 779 259.5 764.5 Q245 750 233 724 L192 779 Q198 795 207.5 810 Q217 825 229 837 Q241 849 255.5 856 Q270 863 287 863 Q304 863 321.5 855 Q339 847 355.5 837 Q372 827 388 819 Q404 811 419 811 Q437 811 450 826 Q463 841 476 867 L513 812 Z " />
<glyph glyph-name="utilde" unicode="&#x169;" horiz-adv-x="550" d="M192 446 L192 188 Q192 151 211 123.5 Q230 96 265 96 Q306 96 331 125.5 Q356 155 356 218 L356 445 L491 445 L491 0 L383 0 L367 61 L363 61 Q332 21 295.5 7 Q259 -7 220 -7 Q57 -7 57 169 L57 446 L192 446 Z M436 610 Q423 575 400.5 551 Q378 527 345 527 Q327 527 309 535 Q291 543 274 552 Q257 561 241.5 569 Q226 577 212 577 Q197 577 182.5 562.5 Q168 548 156 522 L115 577 Q121 593 130.5 608 Q140 623 152 635 Q164 647 178.5 654 Q193 661 210 661 Q227 661 244.5 653 Q262 645 278.5 635 Q295 625 311 617 Q327 609 342 609 Q360 609 373 624 Q386 639 399 665 L436 610 Z " />
<glyph glyph-name="Umacron" unicode="&#x16a;" horiz-adv-x="701" d="M485 660 L633 660 L633 262 Q633 203 615 153 Q597 103 562 66.5 Q527 30 473.5 9.5 Q420 -11 350 -11 Q278 -11 224.5 9 Q171 29 136 64.5 Q101 100 84 149.5 Q67 199 67 259 L67 660 L216 660 L216 260 Q216 232 224 205 Q232 178 248.5 157 Q265 136 290.5 123.5 Q316 111 351 111 Q385 111 410.5 123 Q436 135 452.5 154.5 Q469 174 477 200 Q485 226 485 255 L485 660 Z M194 829 L511 829 L511 743 L194 743 L194 829 Z " />
<glyph glyph-name="umacron" unicode="&#x16b;" horiz-adv-x="550" d="M192 446 L192 188 Q192 151 211 123.5 Q230 96 265 96 Q306 96 331 125.5 Q356 155 356 218 L356 445 L491 445 L491 0 L383 0 L367 61 L363 61 Q332 21 295.5 7 Q259 -7 220 -7 Q57 -7 57 169 L57 446 L192 446 Z M123 628 L432 628 L432 544 L123 544 L123 628 Z " />
<glyph glyph-name="Ubreve" unicode="&#x16c;" horiz-adv-x="701" d="M485 660 L633 660 L633 262 Q633 203 615 153 Q597 103 562 66.5 Q527 30 473.5 9.5 Q420 -11 350 -11 Q278 -11 224.5 9 Q171 29 136 64.5 Q101 100 84 149.5 Q67 199 67 259 L67 660 L216 660 L216 260 Q216 232 224 205 Q232 178 248.5 157 Q265 136 290.5 123.5 Q316 111 351 111 Q385 111 410.5 123 Q436 135 452.5 154.5 Q469 174 477 200 Q485 226 485 255 L485 660 Z M354 702 Q316 702 287.5 715.5 Q259 729 240.5 751.5 Q222 774 212 803 Q202 832 201 863 L271 863 Q273 820 296.5 797.5 Q320 775 356 775 Q394 775 414.5 801 Q435 827 440 863 L508 863 Q506 834 497 805.5 Q488 777 469.5 754 Q451 731 422.5 716.5 Q394 702 354 702 Z " />
<glyph glyph-name="ubreve" unicode="&#x16d;" horiz-adv-x="550" d="M192 446 L192 188 Q192 151 211 123.5 Q230 96 265 96 Q306 96 331 125.5 Q356 155 356 218 L356 445 L491 445 L491 0 L383 0 L367 61 L363 61 Q332 21 295.5 7 Q259 -7 220 -7 Q57 -7 57 169 L57 446 L192 446 Z M273 512 Q235 512 206.5 525.5 Q178 539 159.5 561.5 Q141 584 131 613 Q121 642 120 673 L189 673 Q191 630 215 607.5 Q239 585 275 585 Q313 585 333.5 611 Q354 637 359 673 L427 673 Q425 644 415.5 615.5 Q406 587 387.5 564 Q369 541 341 526.5 Q313 512 273 512 Z " />
<glyph glyph-name="Uring" unicode="&#x16e;" horiz-adv-x="701" d="M485 660 L633 660 L633 262 Q633 203 615 153 Q597 103 562 66.5 Q527 30 473.5 9.5 Q420 -11 350 -11 Q278 -11 224.5 9 Q171 29 136 64.5 Q101 100 84 149.5 Q67 199 67 259 L67 660 L216 660 L216 260 Q216 232 224 205 Q232 178 248.5 157 Q265 136 290.5 123.5 Q316 111 351 111 Q385 111 410.5 123 Q436 135 452.5 154.5 Q469 174 477 200 Q485 226 485 255 L485 660 Z M352 709 Q300 709 268 741 Q236 773 236 820 Q236 844 245 865.5 Q254 887 269.5 903 Q285 919 306.5 928 Q328 937 352 937 Q377 937 399 928 Q421 919 437 903 Q453 887 462 865.5 Q471 844 471 820 Q471 796 462 776 Q453 756 437 741 Q421 726 399 717.5 Q377 709 352 709 Z M352 872 Q332 872 319 856.5 Q306 841 306 820 Q306 801 319 787.5 Q332 774 352 774 Q374 774 387 787.5 Q400 801 400 820 Q400 841 387 856.5 Q374 872 352 872 Z " />
<glyph glyph-name="uring" unicode="&#x16f;" horiz-adv-x="550" d="M192 446 L192 188 Q192 151 211 123.5 Q230 96 265 96 Q306 96 331 125.5 Q356 155 356 218 L356 445 L491 445 L491 0 L383 0 L367 61 L363 61 Q332 21 295.5 7 Q259 -7 220 -7 Q57 -7 57 169 L57 446 L192 446 Z M276 505 Q224 505 192 537 Q160 569 160 616 Q160 640 169 661.5 Q178 683 193.5 699 Q209 715 230.5 724 Q252 733 276 733 Q301 733 323 724 Q345 715 361 699 Q377 683 386 661.5 Q395 640 395 616 Q395 592 386 572 Q377 552 361 537 Q345 522 323 513.5 Q301 505 276 505 Z M276 668 Q256 668 243 652.5 Q230 637 230 616 Q230 597 243 583.5 Q256 570 276 570 Q298 570 311 583.5 Q324 597 324 616 Q324 637 311 652.5 Q298 668 276 668 Z " />
<glyph glyph-name="Uhungarumlaut" unicode="&#x170;" horiz-adv-x="701" d="M485 660 L633 660 L633 262 Q633 203 615 153 Q597 103 562 66.5 Q527 30 473.5 9.5 Q420 -11 350 -11 Q278 -11 224.5 9 Q171 29 136 64.5 Q101 100 84 149.5 Q67 199 67 259 L67 660 L216 660 L216 260 Q216 232 224 205 Q232 178 248.5 157 Q265 136 290.5 123.5 Q316 111 351 111 Q385 111 410.5 123 Q436 135 452.5 154.5 Q469 174 477 200 Q485 226 485 255 L485 660 Z M349 718 Q382 761 415.5 803.5 Q449 846 482 890 Q508 879 533.5 868 Q559 857 584 846 Q547 814 510 782 Q473 750 435 718 L349 718 Z M204 718 Q237 761 270.5 803.5 Q304 846 337 890 Q363 879 388.5 868 Q414 857 439 846 Q401 814 364.5 782 Q328 750 290 718 L204 718 Z " />
<glyph glyph-name="uhungarumlaut" unicode="&#x171;" horiz-adv-x="550" d="M192 446 L192 188 Q192 151 211 123.5 Q230 96 265 96 Q306 96 331 125.5 Q356 155 356 218 L356 445 L491 445 L491 0 L383 0 L367 61 L363 61 Q332 21 295.5 7 Q259 -7 220 -7 Q57 -7 57 169 L57 446 L192 446 Z M271 525 L389 705 L485 661 L347 525 L271 525 Z M130 525 Q160 570 189.5 614.5 Q219 659 248 705 L345 661 L206 525 L130 525 Z " />
<glyph glyph-name="Uogonek" unicode="&#x172;" horiz-adv-x="701" d="M485 660 L633 660 L633 262 Q633 207 617.5 160 Q602 113 571.5 77.5 Q541 42 495 19.5 Q449 -3 388 -9 Q357 -38 338.5 -70 Q320 -102 320 -128 Q320 -154 336.5 -165.5 Q353 -177 378 -177 Q401 -177 429 -167.5 Q457 -158 477 -147 L475 -208 Q447 -225 410 -234 Q373 -243 341 -243 Q288 -243 261 -221 Q234 -199 234 -158 Q234 -145 238.5 -128 Q243 -111 253 -91.5 Q263 -72 279.5 -51 Q296 -30 321 -10 Q256 -6 208.5 15.5 Q161 37 129.5 72 Q98 107 82.5 154.5 Q67 202 67 259 L67 660 L216 660 L216 260 Q216 232 224 205 Q232 178 248.5 157 Q265 136 290.5 123.5 Q316 111 351 111 Q385 111 410.5 123 Q436 135 452.5 154.5 Q469 174 477 200 Q485 226 485 255 L485 660 Z " />
<glyph glyph-name="uogonek" unicode="&#x173;" horiz-adv-x="550" d="M192 446 L192 188 Q192 151 211 123.5 Q230 96 265 96 Q306 96 331 125.5 Q356 155 356 218 L356 445 L491 445 L491 0 L425 0 Q394 -28 376 -59.5 Q358 -91 358 -117 Q358 -143 374 -154.5 Q390 -166 416 -166 Q439 -166 466.5 -156.5 Q494 -147 515 -135 L512 -197 Q484 -214 447 -223 Q410 -232 378 -232 Q326 -232 298.5 -210 Q271 -188 271 -146 Q271 -133 276 -113.5 Q281 -94 293.5 -72.5 Q306 -51 326.5 -28.5 Q347 -6 379 15 L367 61 L363 61 Q331 19 293.5 5.5 Q256 -8 215 -8 Q134 -8 95.5 37 Q57 82 57 169 L57 446 L192 446 Z " />
<glyph glyph-name="Wcircumflex" unicode="&#x174;" horiz-adv-x="960" d="M475 379 L304 -12 L282 -12 L7 659 L171 659 L309 328 L313 328 L468 667 L489 667 L649 328 L653 328 L788 659 L951 659 L676 -12 L654 -12 L479 379 L475 379 Z M543 717 L480 786 L412 717 L307 717 L472 882 L493 882 L652 717 L543 717 Z " />
<glyph glyph-name="wcircumflex" unicode="&#x175;" horiz-adv-x="753" d="M386 454 L514 234 L518 234 L614 445 L750 445 L541 -8 L518 -8 L376 248 L238 -8 L214 -8 L4 445 L143 445 L241 234 L245 234 L366 454 L386 454 Z M437 516 L376 590 L310 516 L210 516 L368 690 L389 690 L542 516 L437 516 Z " />
<glyph glyph-name="Ycircumflex" unicode="&#x176;" horiz-adv-x="611" d="M314 382 L444 660 L603 660 L383 261 L383 0 L234 0 L234 261 L7 660 L168 660 L310 382 L314 382 Z M376 717 L313 786 L245 717 L140 717 L305 882 L326 882 L485 717 L376 717 Z " />
<glyph glyph-name="ycircumflex" unicode="&#x177;" horiz-adv-x="492" d="M247 162 L351 446 L485 446 L202 -216 L71 -216 Q99 -154 125.5 -93 Q152 -32 180 28 L3 446 L140 446 Q166 375 191 304 Q216 233 241 162 L247 162 Z M310 516 L249 590 L183 516 L83 516 L241 690 L262 690 L415 516 L310 516 Z " />
<glyph glyph-name="Zacute" unicode="&#x179;" horiz-adv-x="577" d="M556 644 Q478 510 399.5 379 Q321 248 242 114 L547 114 L547 0 L17 0 L17 15 Q97 148 175.5 280 Q254 412 334 545 L58 545 L58 660 L556 660 L556 644 Z M231 718 Q264 761 297.5 803.5 Q331 846 364 890 L467 846 Q429 814 392 782 Q355 750 317 718 L231 718 Z " />
<glyph glyph-name="zacute" unicode="&#x17a;" horiz-adv-x="441" d="M423 433 Q367 349 312.5 266.5 Q258 184 201 100 L413 100 L413 0 L12 0 L12 12 L234 344 L43 344 L43 445 L423 445 L423 433 Z M167 516 Q196 561 226 605.5 Q256 650 286 695 L382 652 L244 516 L167 516 Z " />
<glyph glyph-name="Zdotaccent" unicode="&#x17b;" horiz-adv-x="577" d="M556 644 Q478 510 399.5 379 Q321 248 242 114 L547 114 L547 0 L17 0 L17 15 Q97 148 175.5 280 Q254 412 334 545 L58 545 L58 660 L556 660 L556 644 Z M388 803 Q388 772 367.5 749.5 Q347 727 314 727 Q279 727 259 749.5 Q239 772 239 801 Q239 834 262 855 Q285 876 314 876 Q346 876 367 854 Q388 832 388 803 Z " />
<glyph glyph-name="zdotaccent" unicode="&#x17c;" horiz-adv-x="441" d="M423 433 Q367 349 312.5 266.5 Q258 184 201 100 L413 100 L413 0 L12 0 L12 12 L234 344 L43 344 L43 445 L423 445 L423 433 Z M308 596 Q308 565 287.5 542.5 Q267 520 234 520 Q199 520 179 542.5 Q159 565 159 594 Q159 627 182 648 Q205 669 234 669 Q266 669 287 647 Q308 625 308 596 Z " />
<glyph glyph-name="AEacute" unicode="&#x1fc;" horiz-adv-x="945" d="M456 0 L456 113 L237 113 L150 0 L-8 0 L500 660 L891 660 L891 545 L593 545 L593 399 L859 399 L859 288 L593 288 L593 115 L910 115 L910 0 L456 0 Z M294 201 L459 201 L459 410 L455 410 L294 201 Z M523 718 Q556 761 589.5 803.5 Q623 846 656 890 L759 846 Q721 814 684 782 Q647 750 609 718 L523 718 Z " />
<glyph glyph-name="aeacute" unicode="&#x1fd;" horiz-adv-x="814" d="M558 461 Q663 461 722 400 Q781 339 781 232 L781 201 L463 201 Q464 169 475.5 147 Q487 125 505.5 111 Q524 97 548 90.5 Q572 84 598 84 Q633 84 672.5 93.5 Q712 103 758 134 L758 37 Q720 12 675.5 0.5 Q631 -11 583 -11 Q517 -11 466.5 11.5 Q416 34 388 77 Q370 51 346.5 33.5 Q323 16 297.5 5.5 Q272 -5 246 -9 Q220 -13 195 -13 Q153 -13 121 -2.5 Q89 8 68 25.5 Q47 43 36 66.5 Q25 90 25 116 Q25 153 39 181.5 Q53 210 78.5 229.5 Q104 249 139 259.5 Q174 270 215 270 L322 271 L322 281 Q322 321 298 341.5 Q274 362 220 362 Q195 362 155.5 353 Q116 344 79 324 L79 425 Q112 440 159.5 450 Q207 460 251 460 Q361 460 406 394 Q436 426 475 443.5 Q514 461 558 461 Z M157 137 Q157 108 177 92.5 Q197 77 229 77 Q276 77 300 109.5 Q324 142 324 189 L324 199 L263 199 Q243 199 224 197 Q205 195 190 188.5 Q175 182 166 169.5 Q157 157 157 137 Z M364 516 Q393 561 423 605.5 Q453 650 483 695 L579 652 L441 516 L364 516 Z M564 363 Q521 363 494.5 339 Q468 315 465 270 L659 270 Q652 363 564 363 Z " />
<glyph glyph-name="Oslashacute" unicode="&#x1fe;" horiz-adv-x="799" d="M351 720 Q384 763 417.5 805.5 Q451 848 484 892 L587 848 Q549 816 512 784 Q475 752 437 720 L351 720 Z M399 -12 Q285 -12 202 39 L171 0 L109 0 L162 66 Q105 113 75 181 Q45 249 45 331 Q45 403 72 465 Q99 527 146 573.5 Q193 620 258 646.5 Q323 673 400 673 Q459 673 510 658 Q561 643 603 615 L639 661 L699 661 L640 587 Q694 539 723.5 473.5 Q753 408 753 331 Q753 259 727 196 Q701 133 654.5 87 Q608 41 542.5 14.5 Q477 -12 399 -12 Z M191 331 Q191 234 247 172 L522 516 Q498 533 467.5 543 Q437 553 402 553 Q355 553 316 535.5 Q277 518 249 488 Q221 458 206 417.5 Q191 377 191 331 Z M402 105 Q450 105 488.5 122.5 Q527 140 554 171 Q581 202 595.5 243 Q610 284 610 331 Q610 375 596 413.5 Q582 452 556 482 L282 139 Q306 123 336.5 114 Q367 105 402 105 Z " />
<glyph glyph-name="Scommaaccent" unicode="&#x218;" horiz-adv-x="538" d="M32 177 Q55 159 83 146 Q111 133 139 124 Q167 115 193.5 110.5 Q220 106 241 106 Q265 106 285.5 110 Q306 114 322 123 Q338 132 347 145.5 Q356 159 356 179 Q356 210 332.5 232 Q309 254 274 272 Q239 290 198.5 308 Q158 326 123 350.5 Q88 375 64.5 408.5 Q41 442 41 491 Q41 533 57.5 566.5 Q74 600 104 624 Q134 648 175 661 Q216 674 266 674 Q308 674 359.5 665 Q411 656 463 632 L463 504 Q445 516 422.5 526 Q400 536 377 542.5 Q354 549 331.5 553 Q309 557 290 557 Q250 557 220 542 Q190 527 190 492 Q190 469 213.5 452.5 Q237 436 272 420 Q307 404 347.5 385.5 Q388 367 423 340.5 Q458 314 481.5 275.5 Q505 237 505 182 Q505 142 490 107 Q475 72 444.5 45.5 Q414 19 368 3.5 Q322 -12 260 -12 Q234 -12 205 -9.5 Q176 -7 146 -0.5 Q116 6 86.5 16 Q57 26 32 41 L32 177 Z M184 -110 Q184 -81 203.5 -62 Q223 -43 249 -43 Q279 -43 297 -63 Q315 -83 315 -114 Q315 -135 306 -160.5 Q297 -186 284 -212 Q271 -238 256 -261.5 Q241 -285 228 -301 L180 -293 L226 -171 Q204 -163 194 -146.5 Q184 -130 184 -110 Z " />
<glyph glyph-name="scommaaccent" unicode="&#x219;" horiz-adv-x="399" d="M22 142 Q57 116 100.5 101.5 Q144 87 175 87 Q241 87 241 123 Q241 139 225.5 151 Q210 163 187 175 Q164 187 137 199.5 Q110 212 87 229 Q64 246 48.5 269.5 Q33 293 33 327 Q33 357 45.5 381.5 Q58 406 80 423 Q102 440 133 449 Q164 458 201 458 Q229 458 269 451 Q309 444 348 427 L348 320 Q319 337 284 347 Q249 357 221 357 Q165 357 165 324 Q165 311 180.5 301.5 Q196 292 218.5 282 Q241 272 268 260 Q295 248 317.5 230.5 Q340 213 355.5 187.5 Q371 162 371 126 Q371 99 360 74.5 Q349 50 327 31 Q305 12 270.5 1 Q236 -10 190 -10 Q152 -10 106 -1.5 Q60 7 22 28 L22 142 Z M126 -110 Q126 -81 145.5 -62 Q165 -43 191 -43 Q221 -43 239 -63 Q257 -83 257 -114 Q257 -135 248 -160.5 Q239 -186 226 -212 Q213 -238 198 -261.5 Q183 -285 170 -301 L122 -293 L168 -171 Q146 -163 136 -146.5 Q126 -130 126 -110 Z " />
<glyph glyph-name="longs" unicode="&#x17f;" horiz-adv-x="290" d="M378 609 Q340 623 304 623 Q254 623 233.5 593.5 Q213 564 213 517 L213 0 L79 0 L79 345 L5 345 L5 432 L79 446 L79 520 Q79 619 130.5 673 Q182 727 282 727 Q305 727 328.5 724 Q352 721 378 713 L378 609 Z " />
<glyph glyph-name="uni021A" unicode="&#x21a;" horiz-adv-x="559" d="M354 546 L354 0 L205 0 L205 546 L12 546 L12 661 L546 661 L546 546 L354 546 Z M210 -108 Q210 -79 229.5 -60 Q249 -41 275 -41 Q305 -41 323 -61 Q341 -81 341 -112 Q341 -133 332 -158.5 Q323 -184 310 -210 Q297 -236 282 -259.5 Q267 -283 254 -299 L206 -291 L252 -169 Q230 -161 220 -144.5 Q210 -128 210 -108 Z " />
<glyph glyph-name="uni021B" unicode="&#x21b;" horiz-adv-x="369" d="M220 591 L220 445 L339 445 L339 345 L220 345 L220 168 Q220 133 233 116 Q246 99 278 99 Q292 99 312 104.5 Q332 110 354 123 L354 20 Q327 3 295 -4 Q263 -11 237 -11 Q155 -11 120.5 31 Q86 73 86 145 L86 345 L17 345 L17 420 L101 447 L198 591 L220 591 Z M105 -110 Q105 -81 124.5 -62 Q144 -43 170 -43 Q200 -43 218 -63 Q236 -83 236 -114 Q236 -135 227 -160.5 Q218 -186 205 -212 Q192 -238 177 -261.5 Q162 -285 149 -301 L101 -293 L147 -171 Q125 -163 115 -146.5 Q105 -130 105 -110 Z " />
<glyph glyph-name="lozenge" unicode="&#x25ca;" horiz-adv-x="545" d="M259 0 Q205 84 151 167.5 Q97 251 43 336 L259 668 L285 668 L500 336 Q446 251 392.5 167.5 Q339 84 285 0 L259 0 Z M272 550 Q239 496 205.5 443 Q172 390 139 336 L272 112 L406 336 L272 550 Z " />
</font>
</svg>
