<?xml version="1.0" standalone="no"?>
<!DOCTYPE svg PUBLIC "-//W3C//DTD SVG 1.1//EN" "http://www.w3.org/Graphics/SVG/1.1/DTD/svg11.dtd" >
<svg xmlns="http://www.w3.org/2000/svg" xmlns:xlink="http://www.w3.org/1999/xlink" version="1.1">
<metadata>
This is a custom SVG webfont generated by Typotheque.
</metadata>
<defs>
<font id="typotheque_webfonts_service" horiz-adv-x="240" >
<font-face units-per-em="1000" ascent="855" descent="-145" />
<missing-glyph horiz-adv-x="211" />
<glyph horiz-adv-x="0" />
<glyph horiz-adv-x="0" />
<glyph unicode=" "  horiz-adv-x="211" />
<glyph unicode="&#x09;" horiz-adv-x="211" />
<glyph unicode="&#xa0;" horiz-adv-x="211" />
<glyph unicode="C" horiz-adv-x="674" d="M646 234q5 -51 -13 -95t-56 -76t-94.5 -50.5t-127.5 -18.5q-72 0 -131.5 20.5t-101.5 61.5t-65.5 103t-23.5 146q0 85 22.5 151.5t65 112t104.5 69t140 23.5q69 0 123 -18t90 -50.5t52.5 -76.5t11.5 -95h-107q1 8 1 15v14q0 50 -14.5 83.5t-39.5 54t-57 29t-67 8.5 q-36 0 -72 -11t-65.5 -44.5t-48 -96.5t-18.5 -168q0 -95 17 -152.5t44.5 -89.5t62 -42.5t69.5 -10.5t71 9t64.5 32t44.5 62.5t12 100.5h107v0z" />
<glyph unicode="c" horiz-adv-x="674" d="M646 234q5 -51 -13 -95t-56 -76t-94.5 -50.5t-127.5 -18.5q-72 0 -131.5 20.5t-101.5 61.5t-65.5 103t-23.5 146q0 85 22.5 151.5t65 112t104.5 69t140 23.5q69 0 123 -18t90 -50.5t52.5 -76.5t11.5 -95h-107q1 8 1 15v14q0 50 -14.5 83.5t-39.5 54t-57 29t-67 8.5 q-36 0 -72 -11t-65.5 -44.5t-48 -96.5t-18.5 -168q0 -95 17 -152.5t44.5 -89.5t62 -42.5t69.5 -10.5t71 9t64.5 32t44.5 62.5t12 100.5h107v0z" />
<glyph unicode="D" horiz-adv-x="726" d="M70 0v675h343q51 0 101 -20.5t90 -61.5t65 -103t25 -146q0 -87 -26 -152t-67 -107.5t-92 -63.5t-101 -21h-338zM185 639v-603h219q24 0 53 7.5t54.5 37.5t43 90t17.5 164q0 94 -15.5 153.5t-40 93t-54.5 45.5t-58 12h-219z" />
<glyph unicode="d" horiz-adv-x="726" d="M70 0v675h343q51 0 101 -20.5t90 -61.5t65 -103t25 -146q0 -87 -26 -152t-67 -107.5t-92 -63.5t-101 -21h-338zM185 639v-603h219q24 0 53 7.5t54.5 37.5t43 90t17.5 164q0 94 -15.5 153.5t-40 93t-54.5 45.5t-58 12h-219z" />
<glyph unicode="E" horiz-adv-x="642" d="M70 0v675h542v-36h-427v-272h403v-36h-403v-295h430v-36h-545z" />
<glyph unicode="e" horiz-adv-x="642" d="M70 0v675h542v-36h-427v-272h403v-36h-403v-295h430v-36h-545z" />
<glyph unicode="F" horiz-adv-x="629" d="M70 0v675h540v-36h-425v-283h415v-36h-415v-320h-115z" />
<glyph unicode="f" horiz-adv-x="629" d="M70 0v675h540v-36h-425v-283h415v-36h-415v-320h-115z" />
<glyph unicode="G" horiz-adv-x="697" d="M554 91q-28 -48 -86 -72.5t-131 -24.5q-64 0 -119.5 20t-97 60.5t-65 101.5t-23.5 144q0 86 24.5 153t70 113.5t109.5 70.5t142 24q64 0 116 -15.5t88 -45t53.5 -71t12.5 -92.5h-107q4 59 -10 96t-39.5 57.5t-58.5 27.5t-66 7q-37 0 -75 -10.5t-69 -44.5t-50.5 -97.5 t-19.5 -169.5q0 -93 16.5 -150.5t43.5 -89t62 -42.5t72 -11q33 0 67 8.5t62 28.5t45.5 54.5t17.5 87.5v86h-204v36h304l15 -16v-315h-30l-67 90z" />
<glyph unicode="g" horiz-adv-x="697" d="M554 91q-28 -48 -86 -72.5t-131 -24.5q-64 0 -119.5 20t-97 60.5t-65 101.5t-23.5 144q0 86 24.5 153t70 113.5t109.5 70.5t142 24q64 0 116 -15.5t88 -45t53.5 -71t12.5 -92.5h-107q4 59 -10 96t-39.5 57.5t-58.5 27.5t-66 7q-37 0 -75 -10.5t-69 -44.5t-50.5 -97.5 t-19.5 -169.5q0 -93 16.5 -150.5t43.5 -89t62 -42.5t72 -11q33 0 67 8.5t62 28.5t45.5 54.5t17.5 87.5v86h-204v36h304l15 -16v-315h-30l-67 90z" />
<glyph unicode="H" horiz-adv-x="766" d="M70 0v675h115v-304h396v304h115v-675h-115v335h-396v-335h-115z" />
<glyph unicode="h" horiz-adv-x="766" d="M70 0v675h115v-304h396v304h115v-675h-115v335h-396v-335h-115z" />
<glyph unicode="I" horiz-adv-x="255" d="M70 0v675h115v-675h-115z" />
<glyph unicode="i" horiz-adv-x="255" d="M70 0v675h115v-675h-115z" />
<glyph unicode="J" horiz-adv-x="604" d="M540 270q0 -49 -12 -98.5t-42.5 -89t-83 -64t-134.5 -24.5q-71 0 -119 18.5t-77.5 50t-42.5 72.5t-13 86q0 14 1 26.5t3 26.5h110q-2 -18 -3.5 -35t-1.5 -33q0 -86 38 -131t115 -45q81 0 113.5 57t32.5 175v413h116v-405z" />
<glyph unicode="j" horiz-adv-x="604" d="M540 270q0 -49 -12 -98.5t-42.5 -89t-83 -64t-134.5 -24.5q-71 0 -119 18.5t-77.5 50t-42.5 72.5t-13 86q0 14 1 26.5t3 26.5h110q-2 -18 -3.5 -35t-1.5 -33q0 -86 38 -131t115 -45q81 0 113.5 57t32.5 175v413h116v-405z" />
<glyph unicode="K" horiz-adv-x="659" d="M70 0v675h115v-335h148l277 335h44l-234 -284l254 -391h-141l-203 304h-145v-304h-115z" />
<glyph unicode="k" horiz-adv-x="659" d="M70 0v675h115v-335h148l277 335h44l-234 -284l254 -391h-141l-203 304h-145v-304h-115z" />
<glyph unicode="L" horiz-adv-x="624" d="M185 675v-639h428v-36h-543v675h115z" />
<glyph unicode="l" horiz-adv-x="624" d="M185 675v-639h428v-36h-543v675h115z" />
<glyph unicode="M" horiz-adv-x="874" d="M691 0v536l-254 -536h-75l-256 497v-497h-36v675h81l291 -568l263 568h99v-675h-113z" />
<glyph unicode="m" horiz-adv-x="874" d="M691 0v536l-254 -536h-75l-256 497v-497h-36v675h81l291 -568l263 568h99v-675h-113z" />
<glyph unicode="N" horiz-adv-x="751" d="M610 0l-504 514v-514h-36v675h71l504 -525v525h36v-675h-71z" />
<glyph unicode="n" horiz-adv-x="751" d="M610 0l-504 514v-514h-36v675h71l504 -525v525h36v-675h-71z" />
<glyph unicode="O" horiz-adv-x="731" d="M367 30q39 0 76.5 10.5t67 44.5t48 97.5t18.5 169.5q0 93 -15.5 150t-43 89t-65 43t-82.5 11q-42 0 -81.5 -11t-69.5 -44.5t-48 -96.5t-18 -168q0 -85 13 -141.5t39 -90.5t66.5 -48.5t94.5 -14.5zM374 681q76 0 136 -21.5t102 -63.5t64 -104.5t22 -144.5 q0 -89 -24.5 -155t-69.5 -110t-107 -66t-137 -22q-70 0 -130 19.5t-103.5 60.5t-68.5 103.5t-25 148.5q0 171 88 263t253 92z" />
<glyph unicode="o" horiz-adv-x="731" d="M367 30q39 0 76.5 10.5t67 44.5t48 97.5t18.5 169.5q0 93 -15.5 150t-43 89t-65 43t-82.5 11q-42 0 -81.5 -11t-69.5 -44.5t-48 -96.5t-18 -168q0 -85 13 -141.5t39 -90.5t66.5 -48.5t94.5 -14.5zM374 681q76 0 136 -21.5t102 -63.5t64 -104.5t22 -144.5 q0 -89 -24.5 -155t-69.5 -110t-107 -66t-137 -22q-70 0 -130 19.5t-103.5 60.5t-68.5 103.5t-25 148.5q0 171 88 263t253 92z" />
<glyph unicode="P" horiz-adv-x="674" d="M655 481q0 -59 -23 -99t-57.5 -64.5t-75 -35t-74.5 -10.5h-240v-272h-115v675h370q29 0 66 -8t70 -30t56 -59.5t23 -96.5zM533 478q0 80 -27.5 120.5t-80.5 40.5h-240v-331h239q51 0 80 40.5t29 129.5z" />
<glyph unicode="p" horiz-adv-x="674" d="M655 481q0 -59 -23 -99t-57.5 -64.5t-75 -35t-74.5 -10.5h-240v-272h-115v675h370q29 0 66 -8t70 -30t56 -59.5t23 -96.5zM533 478q0 80 -27.5 120.5t-80.5 40.5h-240v-331h239q51 0 80 40.5t29 129.5z" />
<glyph unicode="Q" horiz-adv-x="731" d="M374 681q76 0 136 -21.5t102 -63.5t64 -104.5t22 -144.5q0 -79 -20 -140.5t-56 -105t-86.5 -69.5t-112.5 -34l19 -122h-40l-14 119q-7 0 -14 -0.5t-14 -0.5q-70 0 -130 19.5t-103.5 60.5t-68.5 103.5t-25 148.5q0 171 88 263t253 92zM383 30l-20 140h40l14 -136 q32 6 61 23t51 53t35 94.5t13 147.5q0 93 -15.5 150t-43 89t-65 43t-82.5 11q-42 0 -81.5 -11t-69.5 -44.5t-48 -96.5t-18 -168q0 -85 13 -141.5t39 -90.5t66.5 -48.5t94.5 -14.5h16z" />
<glyph unicode="q" horiz-adv-x="731" d="M374 681q76 0 136 -21.5t102 -63.5t64 -104.5t22 -144.5q0 -79 -20 -140.5t-56 -105t-86.5 -69.5t-112.5 -34l19 -122h-40l-14 119q-7 0 -14 -0.5t-14 -0.5q-70 0 -130 19.5t-103.5 60.5t-68.5 103.5t-25 148.5q0 171 88 263t253 92zM383 30l-20 140h40l14 -136 q32 6 61 23t51 53t35 94.5t13 147.5q0 93 -15.5 150t-43 89t-65 43t-82.5 11q-42 0 -81.5 -11t-69.5 -44.5t-48 -96.5t-18 -168q0 -85 13 -141.5t39 -90.5t66.5 -48.5t94.5 -14.5h16z" />
<glyph unicode="R" horiz-adv-x="699" d="M664 495q0 -45 -15.5 -76t-40 -51t-55.5 -31t-62 -16q27 -5 53.5 -14.5t48.5 -25t35.5 -38.5t14.5 -56v-38q0 -38 4 -74.5t17 -74.5h-116q-13 35 -16.5 65t-3.5 62v55q0 42 -14.5 67t-34.5 38.5t-41.5 17.5t-36.5 5h-216v-310h-115v675h380q30 0 67 -7t69.5 -26.5 t55 -54.5t22.5 -92zM543 492q0 71 -27.5 109t-80.5 38h-250v-293h248q25 0 45.5 7t34.5 23.5t22 44.5t8 71z" />
<glyph unicode="r" horiz-adv-x="699" d="M664 495q0 -45 -15.5 -76t-40 -51t-55.5 -31t-62 -16q27 -5 53.5 -14.5t48.5 -25t35.5 -38.5t14.5 -56v-38q0 -38 4 -74.5t17 -74.5h-116q-13 35 -16.5 65t-3.5 62v55q0 42 -14.5 67t-34.5 38.5t-41.5 17.5t-36.5 5h-216v-310h-115v675h380q30 0 67 -7t69.5 -26.5 t55 -54.5t22.5 -92zM543 492q0 71 -27.5 109t-80.5 38h-250v-293h248q25 0 45.5 7t34.5 23.5t22 44.5t8 71z" />
<glyph unicode="S" horiz-adv-x="657" d="M629 200q0 -56 -28.5 -95t-73 -63.5t-98 -36t-103.5 -11.5q-66 0 -122.5 15t-97 43t-62.5 67.5t-17 88.5h107q-7 -85 44 -131.5t157 -46.5q37 0 70 7.5t57.5 24t38.5 42.5t14 62q0 25 -7 45.5t-28.5 37.5t-61.5 30t-106 23q-24 5 -54 10.5t-60.5 14t-59.5 21t-52 31.5 t-36.5 45.5t-13.5 62.5q0 44 22 80t62 61.5t94 39t119 13.5q73 0 128.5 -16.5t91.5 -45.5t52.5 -69t12.5 -86h-107q2 14 -1 44t-21.5 60.5t-57 53.5t-107.5 23q-86 0 -133 -31t-47 -87q0 -41 22.5 -64t58 -36t79 -20.5t86.5 -16.5q120 -19 179.5 -63t59.5 -127z" />
<glyph unicode="s" horiz-adv-x="657" d="M629 200q0 -56 -28.5 -95t-73 -63.5t-98 -36t-103.5 -11.5q-66 0 -122.5 15t-97 43t-62.5 67.5t-17 88.5h107q-7 -85 44 -131.5t157 -46.5q37 0 70 7.5t57.5 24t38.5 42.5t14 62q0 25 -7 45.5t-28.5 37.5t-61.5 30t-106 23q-24 5 -54 10.5t-60.5 14t-59.5 21t-52 31.5 t-36.5 45.5t-13.5 62.5q0 44 22 80t62 61.5t94 39t119 13.5q73 0 128.5 -16.5t91.5 -45.5t52.5 -69t12.5 -86h-107q2 14 -1 44t-21.5 60.5t-57 53.5t-107.5 23q-86 0 -133 -31t-47 -87q0 -41 22.5 -64t58 -36t79 -20.5t86.5 -16.5q120 -19 179.5 -63t59.5 -127z" />
<glyph unicode="T" horiz-adv-x="613" d="M10 675h593v-36h-237v-639h-116v639h-240v36z" />
<glyph unicode="t" horiz-adv-x="613" d="M10 675h593v-36h-237v-639h-116v639h-240v36z" />
<glyph unicode="U" horiz-adv-x="743" d="M680 230q0 -47 -14 -89.5t-47.5 -75t-91 -52t-144.5 -19.5q-77 0 -136 15.5t-100 45t-62 71t-21 92.5v457h115v-475q0 -38 11 -69.5t37 -54t68 -34.5t104 -12q67 0 114 14.5t76 40.5t42 61.5t13 78.5v450h36v-445z" />
<glyph unicode="u" horiz-adv-x="743" d="M680 230q0 -47 -14 -89.5t-47.5 -75t-91 -52t-144.5 -19.5q-77 0 -136 15.5t-100 45t-62 71t-21 92.5v457h115v-475q0 -38 11 -69.5t37 -54t68 -34.5t104 -12q67 0 114 14.5t76 40.5t42 61.5t13 78.5v450h36v-445z" />
<glyph unicode="V" horiz-adv-x="630" d="M352 100l243 575h41l-275 -675h-92l-271 675h121z" />
<glyph unicode="v" horiz-adv-x="630" d="M352 100l243 575h41l-275 -675h-92l-271 675h121z" />
<glyph unicode="W" horiz-adv-x="935" d="M719 106l170 569h41l-202 -675h-96l-173 545l-157 -545h-92l-203 675h121l165 -569l163 569h83z" />
<glyph unicode="w" horiz-adv-x="935" d="M719 106l170 569h41l-202 -675h-96l-173 545l-157 -545h-92l-203 675h121l165 -569l163 569h83z" />
<glyph unicode="X" horiz-adv-x="589" d="M456 0l-201 297l-222 -297h-41l242 327l-239 348h139l200 -292l213 292h41l-232 -323l245 -352h-145z" />
<glyph unicode="x" horiz-adv-x="589" d="M456 0l-201 297l-222 -297h-41l242 327l-239 348h139l200 -292l213 292h41l-232 -323l245 -352h-145z" />
<glyph unicode="Y" horiz-adv-x="638" d="M-8 675h136l243 -353l220 353h36l-245 -397v-278h-115v278z" />
<glyph unicode="y" horiz-adv-x="638" d="M-8 675h136l243 -353l220 353h36l-245 -397v-278h-115v278z" />
<glyph unicode="Z" horiz-adv-x="574" d="M159 36h400v-36h-552v31l404 608h-391v36h542v-35z" />
<glyph unicode="z" horiz-adv-x="574" d="M159 36h400v-36h-552v31l404 608h-391v36h542v-35z" />
<glyph horiz-adv-x="721" d="M369 681q153 0 235.5 -84t82.5 -250q0 -89 -24 -155t-67.5 -110t-104.5 -66t-136 -22q-70 0 -129 19.5t-101.5 60.5t-66.5 103.5t-24 148.5q0 85 21.5 151t64 111.5t105 69t144.5 23.5zM362 30q39 0 75.5 10.5t65 44.5t46 97.5t17.5 169.5q0 22 -1 42t-3 38l-402 -202 q6 -57 21 -95t40 -61.5t60 -33.5t81 -10zM156 325q0 -19 0.5 -35.5t1.5 -32.5l401 202q-8 58 -25 94t-42 56.5t-57 28t-69 7.5q-42 0 -80.5 -11t-67 -44.5t-45.5 -96.5t-17 -168z" />
<glyph unicode="0" horiz-adv-x="721" d="M362 30q39 0 75.5 10.5t65 44.5t46 97.5t17.5 169.5q0 93 -14.5 150t-41 89t-63 43t-81.5 11q-42 0 -80.5 -11t-67 -44.5t-45.5 -96.5t-17 -168q0 -85 12 -141.5t37 -90.5t64 -48.5t93 -14.5zM369 681q153 0 235.5 -84t82.5 -250q0 -89 -24 -155t-67.5 -110t-104.5 -66 t-136 -22q-70 0 -129 19.5t-101.5 60.5t-66.5 103.5t-24 148.5q0 85 21.5 151t64 111.5t105 69t144.5 23.5z" />
<glyph unicode="1" horiz-adv-x="285" d="M98 0v558h-86v32q35 0 65 6.5t51.5 18.5t34 28t12.5 35h39v-678h-116z" />
<glyph unicode="2" horiz-adv-x="669" d="M338 645q-40 0 -75.5 -8t-61.5 -28.5t-40 -56.5t-9 -93h-114q-4 53 16 94t60.5 69.5t99 43.5t131.5 15q77 0 132 -15.5t90 -41t51.5 -57t16.5 -62.5q0 -42 -23.5 -77t-62.5 -64.5t-88.5 -54t-101.5 -46t-102.5 -40.5t-90.5 -38t-65.5 -38t-27.5 -41h563v-106h-608v62 q0 40 21 70.5t55 55.5t77.5 46t89 42.5t89 45t77.5 53.5t55 67.5t21 87.5q0 18 -8 38t-27.5 37t-53.5 28.5t-86 11.5z" />
<glyph unicode="3" horiz-adv-x="672" d="M330 30q34 0 67.5 10.5t60 31t43 51t16.5 70.5q0 39 -12 65.5t-29 43t-36 23.5t-32 7h-186v35h187q20 0 38 12t32 33t22.5 48.5t8.5 58.5q0 32 -14.5 56t-40 39.5t-59.5 23t-73 7.5q-35 0 -69.5 -6.5t-60.5 -25.5t-40.5 -53.5t-9.5 -90.5h-107q-5 52 14 92t58.5 66.5 t98.5 40t135 13.5q80 0 135 -14t89 -37.5t49 -53.5t15 -62q0 -33 -13.5 -60.5t-36.5 -48t-53 -34t-63 -19.5q78 -8 125.5 -49t47.5 -108q0 -44 -22.5 -81t-63.5 -63.5t-97.5 -41.5t-125.5 -15q-63 0 -119.5 13t-97.5 39.5t-63 66.5t-17 93h107q-5 -51 12.5 -85t46.5 -54 t65 -28.5t68 -8.5z" />
<glyph unicode="4" horiz-adv-x="655" d="M536 154v-154h-116v154h-416v58l457 463h75v-423h103v-98h-103zM420 586l-326 -334h326v334z" />
<glyph unicode="5" horiz-adv-x="668" d="M522 225q0 41 -10.5 71.5t-34.5 50.5t-63.5 30t-96.5 10q-98 0 -156.5 -25t-72.5 -66h-36v379h566v-106h-530v-217q21 29 83.5 50t168.5 21q69 0 124.5 -12t95 -37t61 -63.5t21.5 -91.5q0 -48 -20.5 -89.5t-60 -71.5t-97.5 -47t-132 -17q-63 0 -119 13t-97 39.5 t-63.5 66.5t-17.5 93h108q-5 -52 11.5 -86t45.5 -54t65 -28t70 -8q95 0 141 53.5t46 141.5z" />
<glyph unicode="6" horiz-adv-x="678" d="M649 221q0 -60 -25 -102.5t-66.5 -70.5t-96 -41t-114.5 -13q-63 0 -120 16t-100 55t-68 104t-25 162t27.5 164t74 108.5t106.5 59.5t126 18q62 0 113.5 -14.5t87.5 -40t54 -59.5t13 -73h-113q3 13 -0.5 38t-20 50t-49.5 44t-90 19q-109 0 -158 -76.5t-50 -226.5 q9 14 29 28t49.5 25.5t67.5 18.5t85 7q51 0 98.5 -10t84 -33.5t58.5 -62t22 -94.5zM345 370q-40 0 -73 -6.5t-58 -17.5t-40 -25t-18 -29q7 -131 55 -196.5t136 -65.5q37 0 70 13t58 37t39.5 57t14.5 73q0 36 -10.5 65.5t-33 50.5t-57 32.5t-83.5 11.5z" />
<glyph unicode="7" horiz-adv-x="562" d="M563 632l-379 -632h-46l342 569h-474v106h557v-43z" />
<glyph unicode="8" horiz-adv-x="686" d="M653 178q0 -42 -23.5 -76t-65.5 -58t-100 -37t-127 -13q-66 0 -121.5 12t-96 35.5t-63 57t-22.5 76.5q0 42 21.5 71t52.5 48.5t66 31.5t62 18q-33 8 -67 20.5t-61.5 31.5t-45 46t-17.5 63q0 46 25.5 79t68 54.5t96.5 32t111 10.5q60 0 114 -11t94.5 -32.5t64 -53.5 t23.5 -73q0 -34 -17.5 -60.5t-44.5 -46t-60.5 -33.5t-65.5 -23q37 -8 73 -23t64 -36.5t45 -49t17 -61.5zM533 173q0 41 -16.5 69.5t-43.5 46.5t-61.5 26.5t-70.5 8.5q-35 0 -69 -8t-60 -25t-42 -45.5t-16 -68.5q0 -41 15.5 -69t41.5 -45.5t60 -25t71 -7.5t71.5 7.5t61 24.5 t42.5 44t16 67zM522 504q0 34 -14 60.5t-38 44.5t-57 27t-71 9t-70 -8.5t-56 -26t-37.5 -44t-13.5 -61.5q0 -36 15 -63.5t39.5 -45.5t56.5 -27t66 -9q33 0 65 8.5t57.5 26.5t41.5 45t16 64z" />
<glyph unicode="9" horiz-adv-x="678" d="M29 453q0 59 21.5 102t61 71t94.5 41.5t123 13.5q71 0 129 -16.5t99.5 -55.5t64 -103t22.5 -159q0 -99 -27.5 -166.5t-74 -109t-107 -59.5t-125.5 -18q-63 0 -114.5 14.5t-87 40t-53.5 59.5t-13 73h113q-3 -13 0.5 -38t19.5 -50t49.5 -44t90.5 -19q108 0 157 76t51 227 q-9 -14 -29 -28.5t-49.5 -25.5t-68.5 -18t-87 -7q-50 0 -97 9.5t-83 33t-58 61.5t-22 95zM332 305q40 0 73.5 6.5t58 17.5t40 25t18.5 29q-6 130 -51.5 196t-141.5 66q-41 0 -74 -13.5t-56.5 -37t-36.5 -56t-13 -71.5q0 -74 43 -118t140 -44z" />
<glyph unicode="&#xc1;" horiz-adv-x="633" d="M429 204h-308l-85 -204h-42l276 675h95l268 -675h-122zM137 242h277l-135 337zM344 724h-47l94 118h83z" />
<glyph unicode="&#xe1;" horiz-adv-x="633" d="M429 204h-308l-85 -204h-42l276 675h95l268 -675h-122zM137 242h277l-135 337zM344 724h-47l94 118h83z" />
<glyph unicode="&#xc2;" horiz-adv-x="633" d="M429 204h-308l-85 -204h-42l276 675h95l268 -675h-122zM137 242h277l-135 337zM293 849h55l95 -127h-46l-77 80l-78 -80h-42z" />
<glyph unicode="&#xe2;" horiz-adv-x="633" d="M429 204h-308l-85 -204h-42l276 675h95l268 -675h-122zM137 242h277l-135 337zM293 849h55l95 -127h-46l-77 80l-78 -80h-42z" />
<glyph unicode="&#xc4;" horiz-adv-x="633" d="M429 204h-308l-85 -204h-42l276 675h95l268 -675h-122zM137 242h277l-135 337zM182 777q0 22 15 37t37 15t37 -15t15 -37t-15 -37t-37 -15t-37 15t-15 37zM342 777q0 22 15 37t37 15t37 -15t15 -37t-15 -37t-37 -15t-37 15t-15 37z" />
<glyph unicode="&#xe4;" horiz-adv-x="633" d="M429 204h-308l-85 -204h-42l276 675h95l268 -675h-122zM137 242h277l-135 337zM182 777q0 22 15 37t37 15t37 -15t15 -37t-15 -37t-37 -15t-37 15t-15 37zM342 777q0 22 15 37t37 15t37 -15t15 -37t-15 -37t-37 -15t-37 15t-15 37z" />
<glyph unicode="&#xc5;" horiz-adv-x="633" d="M429 204h-308l-85 -204h-42l276 675h95l268 -675h-122zM137 242h277l-135 337zM430 801q0 -24 -9.5 -42.5t-25 -30.5t-36.5 -18t-43 -6q-47 0 -79.5 24t-32.5 72t32.5 72.5t80.5 24.5t80.5 -25t32.5 -71zM377 802q0 44 -18 61t-42 17q-26 0 -42.5 -18t-16.5 -60t18 -61.5 t42 -19.5q23 0 41 18.5t18 62.5z" />
<glyph unicode="&#xe5;" horiz-adv-x="633" d="M429 204h-308l-85 -204h-42l276 675h95l268 -675h-122zM137 242h277l-135 337zM430 801q0 -24 -9.5 -42.5t-25 -30.5t-36.5 -18t-43 -6q-47 0 -79.5 24t-32.5 72t32.5 72.5t80.5 24.5t80.5 -25t32.5 -71zM377 802q0 44 -18 61t-42 17q-26 0 -42.5 -18t-16.5 -60t18 -61.5 t42 -19.5q23 0 41 18.5t18 62.5z" />
<glyph unicode="&#xc0;" horiz-adv-x="633" d="M429 204h-308l-85 -204h-42l276 675h95l268 -675h-122zM137 242h277l-135 337zM165 842h83l94 -118h-47z" />
<glyph unicode="&#xe0;" horiz-adv-x="633" d="M429 204h-308l-85 -204h-42l276 675h95l268 -675h-122zM137 242h277l-135 337zM165 842h83l94 -118h-47z" />
<glyph unicode="&#xc3;" horiz-adv-x="633" d="M429 204h-308l-85 -204h-42l276 675h95l268 -675h-122zM137 242h277l-135 337zM459 836q0 -101 -68 -101q-15 0 -37 4t-45 9t-44.5 9t-35.5 4q-12 0 -24.5 -6t-16.5 -27h-16q0 53 21 77t49 24q13 0 31.5 -4t39.5 -8.5t42 -8.5t39 -4q14 0 29.5 5.5t18.5 26.5h17z" />
<glyph unicode="&#xe3;" horiz-adv-x="633" d="M429 204h-308l-85 -204h-42l276 675h95l268 -675h-122zM137 242h277l-135 337zM459 836q0 -101 -68 -101q-15 0 -37 4t-45 9t-44.5 9t-35.5 4q-12 0 -24.5 -6t-16.5 -27h-16q0 53 21 77t49 24q13 0 31.5 -4t39.5 -8.5t42 -8.5t39 -4q14 0 29.5 5.5t18.5 26.5h17z" />
<glyph unicode="&#x102;" horiz-adv-x="633" d="M429 204h-308l-85 -204h-42l276 675h95l268 -675h-122zM137 242h277l-135 337zM435 840q0 -37 -10 -61.5t-26.5 -38.5t-38.5 -20t-46 -6q-25 0 -47 6t-38 20.5t-25.5 39t-9.5 60.5h17q0 -18 11 -29.5t26.5 -18t33 -9t31.5 -2.5q15 0 33.5 2.5t34 9.5t26.5 18t11 29h17z " />
<glyph unicode="&#x103;" horiz-adv-x="633" d="M429 204h-308l-85 -204h-42l276 675h95l268 -675h-122zM137 242h277l-135 337zM435 840q0 -37 -10 -61.5t-26.5 -38.5t-38.5 -20t-46 -6q-25 0 -47 6t-38 20.5t-25.5 39t-9.5 60.5h17q0 -18 11 -29.5t26.5 -18t33 -9t31.5 -2.5q15 0 33.5 2.5t34 9.5t26.5 18t11 29h17z " />
<glyph unicode="&#x100;" horiz-adv-x="633" d="M429 204h-308l-85 -204h-42l276 675h95l268 -675h-122zM137 242h277l-135 337zM170 736v56h290v-56h-290z" />
<glyph unicode="&#x101;" horiz-adv-x="633" d="M429 204h-308l-85 -204h-42l276 675h95l268 -675h-122zM137 242h277l-135 337zM170 736v56h290v-56h-290z" />
<glyph unicode="&#x104;" horiz-adv-x="633" d="M429 204h-308l-85 -204h-42l276 675h95l268 -675h-34q-34 -22 -48 -54.5t-14 -67.5q0 -33 11 -45t29 -12q8 0 19 2t22 8v-20q-11 -6 -30 -10t-36 -4q-34 0 -59.5 20t-25.5 62q0 46 26.5 75t65.5 46h-48zM137 242h277l-135 337z" />
<glyph unicode="&#x105;" horiz-adv-x="633" d="M429 204h-308l-85 -204h-42l276 675h95l268 -675h-34q-34 -22 -48 -54.5t-14 -67.5q0 -33 11 -45t29 -12q8 0 19 2t22 8v-20q-11 -6 -30 -10t-36 -4q-34 0 -59.5 20t-25.5 62q0 46 26.5 75t65.5 46h-48zM137 242h277l-135 337z" />
<glyph unicode="&#xc6;" horiz-adv-x="1001" d="M430 0v205h-273l-130 -205h-45l432 675h557v-36h-426v-272h402v-36h-402v-295h429v-36h-544zM430 242v390l-249 -390h249z" />
<glyph unicode="&#xe6;" horiz-adv-x="1001" d="M430 0v205h-273l-130 -205h-45l432 675h557v-36h-426v-272h402v-36h-402v-295h429v-36h-544zM430 242v390l-249 -390h249z" />
<glyph unicode="&#x1fc;" horiz-adv-x="1001" d="M430 0v205h-273l-130 -205h-45l432 675h557v-36h-426v-272h402v-36h-402v-295h429v-36h-544zM430 242v390l-249 -390h249zM715 724h-47l94 118h83z" />
<glyph unicode="&#x1fd;" horiz-adv-x="1001" d="M430 0v205h-273l-130 -205h-45l432 675h557v-36h-426v-272h402v-36h-402v-295h429v-36h-544zM430 242v390l-249 -390h249zM715 724h-47l94 118h83z" />
<glyph unicode="&#x1e2;" horiz-adv-x="1001" d="M430 0v205h-273l-130 -205h-45l432 675h557v-36h-426v-272h402v-36h-402v-295h429v-36h-544zM430 242v390l-249 -390h249zM575 736v56h290v-56h-290z" />
<glyph unicode="&#x1e3;" horiz-adv-x="1001" d="M430 0v205h-273l-130 -205h-45l432 675h557v-36h-426v-272h402v-36h-402v-295h429v-36h-544zM430 242v390l-249 -390h249zM575 736v56h290v-56h-290z" />
<glyph unicode="&#xc7;" horiz-adv-x="674" d="M466 -140q0 -26 -9 -43.5t-23 -28t-33 -15t-38 -4.5q-48 0 -77 23v22q8 -10 27 -17t36 -7q15 0 24.5 6.5t14.5 16t6.5 21.5t1.5 23t-2 25.5t-9 27t-20.5 21.5t-36.5 9h-18l7 56q-64 5 -116.5 27.5t-89.5 63.5t-57.5 100.5t-20.5 137.5q0 85 22.5 151.5t65 112t104.5 69 t140 23.5q69 0 123 -18t90 -50.5t52.5 -76.5t11.5 -95h-107q1 8 1 15v14q0 50 -14.5 83.5t-39.5 54t-57 29t-67 8.5q-36 0 -72 -11t-65.5 -44.5t-48 -96.5t-18.5 -168q0 -95 17 -152.5t44.5 -89.5t62 -42.5t69.5 -10.5t71 9t64.5 32t44.5 62.5t12 100.5h107q5 -49 -12 -91.5 t-52 -74.5t-87.5 -51t-118.5 -22l-25 -38q54 0 84.5 -24.5t30.5 -72.5z" />
<glyph unicode="&#xe7;" horiz-adv-x="674" d="M466 -140q0 -26 -9 -43.5t-23 -28t-33 -15t-38 -4.5q-48 0 -77 23v22q8 -10 27 -17t36 -7q15 0 24.5 6.5t14.5 16t6.5 21.5t1.5 23t-2 25.5t-9 27t-20.5 21.5t-36.5 9h-18l7 56q-64 5 -116.5 27.5t-89.5 63.5t-57.5 100.5t-20.5 137.5q0 85 22.5 151.5t65 112t104.5 69 t140 23.5q69 0 123 -18t90 -50.5t52.5 -76.5t11.5 -95h-107q1 8 1 15v14q0 50 -14.5 83.5t-39.5 54t-57 29t-67 8.5q-36 0 -72 -11t-65.5 -44.5t-48 -96.5t-18.5 -168q0 -95 17 -152.5t44.5 -89.5t62 -42.5t69.5 -10.5t71 9t64.5 32t44.5 62.5t12 100.5h107q5 -49 -12 -91.5 t-52 -74.5t-87.5 -51t-118.5 -22l-25 -38q54 0 84.5 -24.5t30.5 -72.5z" />
<glyph unicode="&#x106;" horiz-adv-x="674" d="M646 234q5 -51 -13 -95t-56 -76t-94.5 -50.5t-127.5 -18.5q-72 0 -131.5 20.5t-101.5 61.5t-65.5 103t-23.5 146q0 85 22.5 151.5t65 112t104.5 69t140 23.5q69 0 123 -18t90 -50.5t52.5 -76.5t11.5 -95h-107q1 8 1 15v14q0 50 -14.5 83.5t-39.5 54t-57 29t-67 8.5 q-36 0 -72 -11t-65.5 -44.5t-48 -96.5t-18.5 -168q0 -95 17 -152.5t44.5 -89.5t62 -42.5t69.5 -10.5t71 9t64.5 32t44.5 62.5t12 100.5h107zM346 724h-47l94 118h83z" />
<glyph unicode="&#x107;" horiz-adv-x="674" d="M646 234q5 -51 -13 -95t-56 -76t-94.5 -50.5t-127.5 -18.5q-72 0 -131.5 20.5t-101.5 61.5t-65.5 103t-23.5 146q0 85 22.5 151.5t65 112t104.5 69t140 23.5q69 0 123 -18t90 -50.5t52.5 -76.5t11.5 -95h-107q1 8 1 15v14q0 50 -14.5 83.5t-39.5 54t-57 29t-67 8.5 q-36 0 -72 -11t-65.5 -44.5t-48 -96.5t-18.5 -168q0 -95 17 -152.5t44.5 -89.5t62 -42.5t69.5 -10.5t71 9t64.5 32t44.5 62.5t12 100.5h107zM346 724h-47l94 118h83z" />
<glyph unicode="&#x10c;" horiz-adv-x="674" d="M646 234q5 -51 -13 -95t-56 -76t-94.5 -50.5t-127.5 -18.5q-72 0 -131.5 20.5t-101.5 61.5t-65.5 103t-23.5 146q0 85 22.5 151.5t65 112t104.5 69t140 23.5q69 0 123 -18t90 -50.5t52.5 -76.5t11.5 -95h-107q1 8 1 15v14q0 50 -14.5 83.5t-39.5 54t-57 29t-67 8.5 q-36 0 -72 -11t-65.5 -44.5t-48 -96.5t-18.5 -168q0 -95 17 -152.5t44.5 -89.5t62 -42.5t69.5 -10.5t71 9t64.5 32t44.5 62.5t12 100.5h107zM379 722h-55l-94 127h46l76 -78l79 78h42z" />
<glyph unicode="&#x10d;" horiz-adv-x="674" d="M646 234q5 -51 -13 -95t-56 -76t-94.5 -50.5t-127.5 -18.5q-72 0 -131.5 20.5t-101.5 61.5t-65.5 103t-23.5 146q0 85 22.5 151.5t65 112t104.5 69t140 23.5q69 0 123 -18t90 -50.5t52.5 -76.5t11.5 -95h-107q1 8 1 15v14q0 50 -14.5 83.5t-39.5 54t-57 29t-67 8.5 q-36 0 -72 -11t-65.5 -44.5t-48 -96.5t-18.5 -168q0 -95 17 -152.5t44.5 -89.5t62 -42.5t69.5 -10.5t71 9t64.5 32t44.5 62.5t12 100.5h107zM379 722h-55l-94 127h46l76 -78l79 78h42z" />
<glyph unicode="&#x108;" horiz-adv-x="674" d="M646 234q5 -51 -13 -95t-56 -76t-94.5 -50.5t-127.5 -18.5q-72 0 -131.5 20.5t-101.5 61.5t-65.5 103t-23.5 146q0 85 22.5 151.5t65 112t104.5 69t140 23.5q69 0 123 -18t90 -50.5t52.5 -76.5t11.5 -95h-107q1 8 1 15v14q0 50 -14.5 83.5t-39.5 54t-57 29t-67 8.5 q-36 0 -72 -11t-65.5 -44.5t-48 -96.5t-18.5 -168q0 -95 17 -152.5t44.5 -89.5t62 -42.5t69.5 -10.5t71 9t64.5 32t44.5 62.5t12 100.5h107zM321 849h55l95 -127h-46l-77 80l-78 -80h-42z" />
<glyph unicode="&#x109;" horiz-adv-x="674" d="M646 234q5 -51 -13 -95t-56 -76t-94.5 -50.5t-127.5 -18.5q-72 0 -131.5 20.5t-101.5 61.5t-65.5 103t-23.5 146q0 85 22.5 151.5t65 112t104.5 69t140 23.5q69 0 123 -18t90 -50.5t52.5 -76.5t11.5 -95h-107q1 8 1 15v14q0 50 -14.5 83.5t-39.5 54t-57 29t-67 8.5 q-36 0 -72 -11t-65.5 -44.5t-48 -96.5t-18.5 -168q0 -95 17 -152.5t44.5 -89.5t62 -42.5t69.5 -10.5t71 9t64.5 32t44.5 62.5t12 100.5h107zM321 849h55l95 -127h-46l-77 80l-78 -80h-42z" />
<glyph unicode="&#x10a;" horiz-adv-x="674" d="M298 772q0 23 16 39.5t39 16.5t39.5 -16.5t16.5 -39.5t-16.5 -39t-39.5 -16t-39 16t-16 39zM646 234q5 -51 -13 -95t-56 -76t-94.5 -50.5t-127.5 -18.5q-72 0 -131.5 20.5t-101.5 61.5t-65.5 103t-23.5 146q0 85 22.5 151.5t65 112t104.5 69t140 23.5q69 0 123 -18 t90 -50.5t52.5 -76.5t11.5 -95h-107q1 8 1 15v14q0 50 -14.5 83.5t-39.5 54t-57 29t-67 8.5q-36 0 -72 -11t-65.5 -44.5t-48 -96.5t-18.5 -168q0 -95 17 -152.5t44.5 -89.5t62 -42.5t69.5 -10.5t71 9t64.5 32t44.5 62.5t12 100.5h107z" />
<glyph unicode="&#x10b;" horiz-adv-x="674" d="M298 772q0 23 16 39.5t39 16.5t39.5 -16.5t16.5 -39.5t-16.5 -39t-39.5 -16t-39 16t-16 39zM646 234q5 -51 -13 -95t-56 -76t-94.5 -50.5t-127.5 -18.5q-72 0 -131.5 20.5t-101.5 61.5t-65.5 103t-23.5 146q0 85 22.5 151.5t65 112t104.5 69t140 23.5q69 0 123 -18 t90 -50.5t52.5 -76.5t11.5 -95h-107q1 8 1 15v14q0 50 -14.5 83.5t-39.5 54t-57 29t-67 8.5q-36 0 -72 -11t-65.5 -44.5t-48 -96.5t-18.5 -168q0 -95 17 -152.5t44.5 -89.5t62 -42.5t69.5 -10.5t71 9t64.5 32t44.5 62.5t12 100.5h107z" />
<glyph unicode="&#x10e;" horiz-adv-x="726" d="M70 0v675h343q51 0 101 -20.5t90 -61.5t65 -103t25 -146q0 -87 -26 -152t-67 -107.5t-92 -63.5t-101 -21h-338zM185 639v-603h219q24 0 53 7.5t54.5 37.5t43 90t17.5 164q0 94 -15.5 153.5t-40 93t-54.5 45.5t-58 12h-219zM354 722h-55l-94 127h46l76 -78l79 78h42z" />
<glyph unicode="&#x10f;" horiz-adv-x="726" d="M70 0v675h343q51 0 101 -20.5t90 -61.5t65 -103t25 -146q0 -87 -26 -152t-67 -107.5t-92 -63.5t-101 -21h-338zM185 639v-603h219q24 0 53 7.5t54.5 37.5t43 90t17.5 164q0 94 -15.5 153.5t-40 93t-54.5 45.5t-58 12h-219zM354 722h-55l-94 127h46l76 -78l79 78h42z" />
<glyph unicode="&#x110;" horiz-adv-x="727" d="M71 0v318h-58v35h58v322h343q51 0 101 -20.5t90 -61.5t65 -103t25 -146q0 -87 -26 -152t-67 -107.5t-92 -63.5t-101 -21h-338zM186 318v-282h219q24 0 53 7.5t54.5 37.5t43 90t17.5 164q0 94 -15.5 153.5t-40 93t-54.5 45.5t-58 12h-219v-286h160v-35h-160z" />
<glyph unicode="&#x111;" horiz-adv-x="727" d="M71 0v318h-58v35h58v322h343q51 0 101 -20.5t90 -61.5t65 -103t25 -146q0 -87 -26 -152t-67 -107.5t-92 -63.5t-101 -21h-338zM186 318v-282h219q24 0 53 7.5t54.5 37.5t43 90t17.5 164q0 94 -15.5 153.5t-40 93t-54.5 45.5t-58 12h-219v-286h160v-35h-160z" />
<glyph unicode="&#xc9;" horiz-adv-x="642" d="M70 0v675h542v-36h-427v-272h403v-36h-403v-295h430v-36h-545zM353 724h-47l94 118h83z" />
<glyph unicode="&#xe9;" horiz-adv-x="642" d="M70 0v675h542v-36h-427v-272h403v-36h-403v-295h430v-36h-545zM353 724h-47l94 118h83z" />
<glyph unicode="&#xca;" horiz-adv-x="642" d="M70 0v675h542v-36h-427v-272h403v-36h-403v-295h430v-36h-545zM322 849h55l95 -127h-46l-77 80l-78 -80h-42z" />
<glyph unicode="&#xea;" horiz-adv-x="642" d="M70 0v675h542v-36h-427v-272h403v-36h-403v-295h430v-36h-545zM322 849h55l95 -127h-46l-77 80l-78 -80h-42z" />
<glyph unicode="&#xcb;" horiz-adv-x="642" d="M70 0v675h542v-36h-427v-272h403v-36h-403v-295h430v-36h-545zM377 777q0 22 15 37t37 15t37 -15t15 -37t-15 -37t-37 -15t-37 15t-15 37zM217 777q0 22 15 37t37 15t37 -15t15 -37t-15 -37t-37 -15t-37 15t-15 37z" />
<glyph unicode="&#xeb;" horiz-adv-x="642" d="M70 0v675h542v-36h-427v-272h403v-36h-403v-295h430v-36h-545zM377 777q0 22 15 37t37 15t37 -15t15 -37t-15 -37t-37 -15t-37 15t-15 37zM217 777q0 22 15 37t37 15t37 -15t15 -37t-15 -37t-37 -15t-37 15t-15 37z" />
<glyph unicode="&#xc8;" horiz-adv-x="642" d="M70 0v675h542v-36h-427v-272h403v-36h-403v-295h430v-36h-545zM219 842h83l94 -118h-47z" />
<glyph unicode="&#xe8;" horiz-adv-x="642" d="M70 0v675h542v-36h-427v-272h403v-36h-403v-295h430v-36h-545zM219 842h83l94 -118h-47z" />
<glyph unicode="&#x114;" horiz-adv-x="642" d="M70 0v675h542v-36h-427v-272h403v-36h-403v-295h430v-36h-545zM474 840q0 -37 -10 -61.5t-26.5 -38.5t-38.5 -20t-46 -6q-25 0 -47 6t-38 20.5t-25.5 39t-9.5 60.5h17q0 -18 11 -29.5t26.5 -18t33 -9t31.5 -2.5q15 0 33.5 2.5t34 9.5t26.5 18t11 29h17z" />
<glyph unicode="&#x115;" horiz-adv-x="642" d="M70 0v675h542v-36h-427v-272h403v-36h-403v-295h430v-36h-545zM474 840q0 -37 -10 -61.5t-26.5 -38.5t-38.5 -20t-46 -6q-25 0 -47 6t-38 20.5t-25.5 39t-9.5 60.5h17q0 -18 11 -29.5t26.5 -18t33 -9t31.5 -2.5q15 0 33.5 2.5t34 9.5t26.5 18t11 29h17z" />
<glyph unicode="&#x11a;" horiz-adv-x="642" d="M70 0v675h542v-36h-427v-272h403v-36h-403v-295h430v-36h-545zM373 722h-55l-94 127h46l76 -78l79 78h42z" />
<glyph unicode="&#x11b;" horiz-adv-x="642" d="M70 0v675h542v-36h-427v-272h403v-36h-403v-295h430v-36h-545zM373 722h-55l-94 127h46l76 -78l79 78h42z" />
<glyph unicode="&#x116;" horiz-adv-x="642" d="M70 0v675h542v-36h-427v-272h403v-36h-403v-295h430v-36h-545zM298 772q0 23 16 39.5t39 16.5t39.5 -16.5t16.5 -39.5t-16.5 -39t-39.5 -16t-39 16t-16 39z" />
<glyph unicode="&#x117;" horiz-adv-x="642" d="M70 0v675h542v-36h-427v-272h403v-36h-403v-295h430v-36h-545zM298 772q0 23 16 39.5t39 16.5t39.5 -16.5t16.5 -39.5t-16.5 -39t-39.5 -16t-39 16t-16 39z" />
<glyph unicode="&#x112;" horiz-adv-x="642" d="M70 0v675h542v-36h-427v-272h403v-36h-403v-295h430v-36h-545zM203 736v56h290v-56h-290z" />
<glyph unicode="&#x113;" horiz-adv-x="642" d="M70 0v675h542v-36h-427v-272h403v-36h-403v-295h430v-36h-545zM203 736v56h290v-56h-290z" />
<glyph unicode="&#x118;" horiz-adv-x="642" d="M540 0q-34 -22 -48 -54.5t-14 -67.5q0 -33 11 -45t29 -12q8 0 19 2t22 8v-20q-11 -6 -30 -10t-36 -4q-34 0 -59.5 20t-25.5 62q0 46 26.5 75t65.5 46h-430v675h542v-36h-427v-272h403v-36h-403v-295h430v-36h-75z" />
<glyph unicode="&#x119;" horiz-adv-x="642" d="M540 0q-34 -22 -48 -54.5t-14 -67.5q0 -33 11 -45t29 -12q8 0 19 2t22 8v-20q-11 -6 -30 -10t-36 -4q-34 0 -59.5 20t-25.5 62q0 46 26.5 75t65.5 46h-430v675h542v-36h-427v-272h403v-36h-403v-295h430v-36h-75z" />
<glyph unicode="&#x1ebc;" horiz-adv-x="642" d="M70 0v675h542v-36h-427v-272h403v-36h-403v-295h430v-36h-545zM493 836q0 -101 -68 -101q-15 0 -37 4t-45 9t-44.5 9t-35.5 4q-12 0 -24.5 -6t-16.5 -27h-16q0 53 21 77t49 24q13 0 31.5 -4t39.5 -8.5t42 -8.5t39 -4q14 0 29.5 5.5t18.5 26.5h17z" />
<glyph unicode="&#x1ebd;" horiz-adv-x="642" d="M70 0v675h542v-36h-427v-272h403v-36h-403v-295h430v-36h-545zM493 836q0 -101 -68 -101q-15 0 -37 4t-45 9t-44.5 9t-35.5 4q-12 0 -24.5 -6t-16.5 -27h-16q0 53 21 77t49 24q13 0 31.5 -4t39.5 -8.5t42 -8.5t39 -4q14 0 29.5 5.5t18.5 26.5h17z" />
<glyph unicode="&#x11e;" horiz-adv-x="697" d="M554 91q-28 -48 -86 -72.5t-131 -24.5q-64 0 -119.5 20t-97 60.5t-65 101.5t-23.5 144q0 86 24.5 153t70 113.5t109.5 70.5t142 24q64 0 116 -15.5t88 -45t53.5 -71t12.5 -92.5h-107q4 59 -10 96t-39.5 57.5t-58.5 27.5t-66 7q-37 0 -75 -10.5t-69 -44.5t-50.5 -97.5 t-19.5 -169.5q0 -93 16.5 -150.5t43.5 -89t62 -42.5t72 -11q33 0 67 8.5t62 28.5t45.5 54.5t17.5 87.5v86h-204v36h304l15 -16v-315h-30l-67 90zM487 840q0 -37 -10 -61.5t-26.5 -38.5t-38.5 -20t-46 -6q-25 0 -47 6t-38 20.5t-25.5 39t-9.5 60.5h17q0 -18 11 -29.5 t26.5 -18t33 -9t31.5 -2.5q15 0 33.5 2.5t34 9.5t26.5 18t11 29h17z" />
<glyph unicode="&#x11f;" horiz-adv-x="697" d="M554 91q-28 -48 -86 -72.5t-131 -24.5q-64 0 -119.5 20t-97 60.5t-65 101.5t-23.5 144q0 86 24.5 153t70 113.5t109.5 70.5t142 24q64 0 116 -15.5t88 -45t53.5 -71t12.5 -92.5h-107q4 59 -10 96t-39.5 57.5t-58.5 27.5t-66 7q-37 0 -75 -10.5t-69 -44.5t-50.5 -97.5 t-19.5 -169.5q0 -93 16.5 -150.5t43.5 -89t62 -42.5t72 -11q33 0 67 8.5t62 28.5t45.5 54.5t17.5 87.5v86h-204v36h304l15 -16v-315h-30l-67 90zM487 840q0 -37 -10 -61.5t-26.5 -38.5t-38.5 -20t-46 -6q-25 0 -47 6t-38 20.5t-25.5 39t-9.5 60.5h17q0 -18 11 -29.5 t26.5 -18t33 -9t31.5 -2.5q15 0 33.5 2.5t34 9.5t26.5 18t11 29h17z" />
<glyph unicode="&#x122;" horiz-adv-x="697" d="M554 91q-28 -48 -86 -72.5t-131 -24.5q-64 0 -119.5 20t-97 60.5t-65 101.5t-23.5 144q0 86 24.5 153t70 113.5t109.5 70.5t142 24q64 0 116 -15.5t88 -45t53.5 -71t12.5 -92.5h-107q4 59 -10 96t-39.5 57.5t-58.5 27.5t-66 7q-37 0 -75 -10.5t-69 -44.5t-50.5 -97.5 t-19.5 -169.5q0 -93 16.5 -150.5t43.5 -89t62 -42.5t72 -11q33 0 67 8.5t62 28.5t45.5 54.5t17.5 87.5v86h-204v36h304l15 -16v-315h-30l-67 90zM345 -244h-28l-1 183h78z" />
<glyph unicode="&#x123;" horiz-adv-x="697" d="M554 91q-28 -48 -86 -72.5t-131 -24.5q-64 0 -119.5 20t-97 60.5t-65 101.5t-23.5 144q0 86 24.5 153t70 113.5t109.5 70.5t142 24q64 0 116 -15.5t88 -45t53.5 -71t12.5 -92.5h-107q4 59 -10 96t-39.5 57.5t-58.5 27.5t-66 7q-37 0 -75 -10.5t-69 -44.5t-50.5 -97.5 t-19.5 -169.5q0 -93 16.5 -150.5t43.5 -89t62 -42.5t72 -11q33 0 67 8.5t62 28.5t45.5 54.5t17.5 87.5v86h-204v36h304l15 -16v-315h-30l-67 90zM345 -244h-28l-1 183h78z" />
<glyph unicode="&#x11c;" horiz-adv-x="697" d="M554 91q-28 -48 -86 -72.5t-131 -24.5q-64 0 -119.5 20t-97 60.5t-65 101.5t-23.5 144q0 86 24.5 153t70 113.5t109.5 70.5t142 24q64 0 116 -15.5t88 -45t53.5 -71t12.5 -92.5h-107q4 59 -10 96t-39.5 57.5t-58.5 27.5t-66 7q-37 0 -75 -10.5t-69 -44.5t-50.5 -97.5 t-19.5 -169.5q0 -93 16.5 -150.5t43.5 -89t62 -42.5t72 -11q33 0 67 8.5t62 28.5t45.5 54.5t17.5 87.5v86h-204v36h304l15 -16v-315h-30l-67 90zM329 849h55l95 -127h-46l-77 80l-78 -80h-42z" />
<glyph unicode="&#x11d;" horiz-adv-x="697" d="M554 91q-28 -48 -86 -72.5t-131 -24.5q-64 0 -119.5 20t-97 60.5t-65 101.5t-23.5 144q0 86 24.5 153t70 113.5t109.5 70.5t142 24q64 0 116 -15.5t88 -45t53.5 -71t12.5 -92.5h-107q4 59 -10 96t-39.5 57.5t-58.5 27.5t-66 7q-37 0 -75 -10.5t-69 -44.5t-50.5 -97.5 t-19.5 -169.5q0 -93 16.5 -150.5t43.5 -89t62 -42.5t72 -11q33 0 67 8.5t62 28.5t45.5 54.5t17.5 87.5v86h-204v36h304l15 -16v-315h-30l-67 90zM329 849h55l95 -127h-46l-77 80l-78 -80h-42z" />
<glyph unicode="&#x120;" horiz-adv-x="697" d="M554 91q-28 -48 -86 -72.5t-131 -24.5q-64 0 -119.5 20t-97 60.5t-65 101.5t-23.5 144q0 86 24.5 153t70 113.5t109.5 70.5t142 24q64 0 116 -15.5t88 -45t53.5 -71t12.5 -92.5h-107q4 59 -10 96t-39.5 57.5t-58.5 27.5t-66 7q-37 0 -75 -10.5t-69 -44.5t-50.5 -97.5 t-19.5 -169.5q0 -93 16.5 -150.5t43.5 -89t62 -42.5t72 -11q33 0 67 8.5t62 28.5t45.5 54.5t17.5 87.5v86h-204v36h304l15 -16v-315h-30l-67 90zM301 772q0 23 16 39.5t39 16.5t39.5 -16.5t16.5 -39.5t-16.5 -39t-39.5 -16t-39 16t-16 39z" />
<glyph unicode="&#x121;" horiz-adv-x="697" d="M554 91q-28 -48 -86 -72.5t-131 -24.5q-64 0 -119.5 20t-97 60.5t-65 101.5t-23.5 144q0 86 24.5 153t70 113.5t109.5 70.5t142 24q64 0 116 -15.5t88 -45t53.5 -71t12.5 -92.5h-107q4 59 -10 96t-39.5 57.5t-58.5 27.5t-66 7q-37 0 -75 -10.5t-69 -44.5t-50.5 -97.5 t-19.5 -169.5q0 -93 16.5 -150.5t43.5 -89t62 -42.5t72 -11q33 0 67 8.5t62 28.5t45.5 54.5t17.5 87.5v86h-204v36h304l15 -16v-315h-30l-67 90zM301 772q0 23 16 39.5t39 16.5t39.5 -16.5t16.5 -39.5t-16.5 -39t-39.5 -16t-39 16t-16 39z" />
<glyph unicode="&#x126;" horiz-adv-x="766" d="M70 0v504h-47v35h47v136h115v-136h396v136h115v-136h52v-35h-52v-504h-115v335h-396v-335h-115zM185 371h396v133h-396v-133z" />
<glyph unicode="&#x127;" horiz-adv-x="766" d="M70 0v504h-47v35h47v136h115v-136h396v136h115v-136h52v-35h-52v-504h-115v335h-396v-335h-115zM185 371h396v133h-396v-133z" />
<glyph unicode="&#x124;" horiz-adv-x="766" d="M70 0v675h115v-304h396v304h115v-675h-115v335h-396v-335h-115zM346 848h55l95 -127h-46l-77 80l-78 -80h-42z" />
<glyph unicode="&#x125;" horiz-adv-x="766" d="M70 0v675h115v-304h396v304h115v-675h-115v335h-396v-335h-115zM346 848h55l95 -127h-46l-77 80l-78 -80h-42z" />
<glyph unicode="&#xcd;" horiz-adv-x="255" d="M70 0v675h115v-675h-115zM142 724h-47l94 118h83z" />
<glyph unicode="&#xed;" horiz-adv-x="255" d="M70 0v675h115v-675h-115zM142 724h-47l94 118h83z" />
<glyph unicode="&#xce;" horiz-adv-x="255" d="M70 0v675h115v-675h-115zM98 849h55l95 -127h-46l-77 80l-78 -80h-42z" />
<glyph unicode="&#xee;" horiz-adv-x="255" d="M70 0v675h115v-675h-115zM98 849h55l95 -127h-46l-77 80l-78 -80h-42z" />
<glyph unicode="&#xcf;" horiz-adv-x="255" d="M70 0v675h115v-675h-115zM-3 777q0 22 15 37t37 15t37 -15t15 -37t-15 -37t-37 -15t-37 15t-15 37zM157 777q0 22 15 37t37 15t37 -15t15 -37t-15 -37t-37 -15t-37 15t-15 37z" />
<glyph unicode="&#xef;" horiz-adv-x="255" d="M70 0v675h115v-675h-115zM-3 777q0 22 15 37t37 15t37 -15t15 -37t-15 -37t-37 -15t-37 15t-15 37zM157 777q0 22 15 37t37 15t37 -15t15 -37t-15 -37t-37 -15t-37 15t-15 37z" />
<glyph unicode="&#xcc;" horiz-adv-x="255" d="M70 0v675h115v-675h-115zM-23 842h83l94 -118h-47z" />
<glyph unicode="&#xec;" horiz-adv-x="255" d="M70 0v675h115v-675h-115zM-23 842h83l94 -118h-47z" />
<glyph unicode="&#x12c;" horiz-adv-x="255" d="M70 0v675h115v-675h-115zM247 840q0 -37 -10 -61.5t-26.5 -38.5t-38.5 -20t-46 -6q-25 0 -47 6t-38 20.5t-25.5 39t-9.5 60.5h17q0 -18 11 -29.5t26.5 -18t33 -9t31.5 -2.5q15 0 33.5 2.5t34 9.5t26.5 18t11 29h17z" />
<glyph unicode="&#x12d;" horiz-adv-x="255" d="M70 0v675h115v-675h-115zM247 840q0 -37 -10 -61.5t-26.5 -38.5t-38.5 -20t-46 -6q-25 0 -47 6t-38 20.5t-25.5 39t-9.5 60.5h17q0 -18 11 -29.5t26.5 -18t33 -9t31.5 -2.5q15 0 33.5 2.5t34 9.5t26.5 18t11 29h17z" />
<glyph unicode="&#x130;" horiz-adv-x="255" d="M70 0v675h115v-675h-115zM74 772q0 23 16 39.5t39 16.5t39.5 -16.5t16.5 -39.5t-16.5 -39t-39.5 -16t-39 16t-16 39z" />
<glyph unicode="&#x12a;" horiz-adv-x="255" d="M70 0v675h115v-675h-115zM-16 736v56h290v-56h-290z" />
<glyph unicode="&#x12b;" horiz-adv-x="255" d="M70 0v675h115v-675h-115zM-16 736v56h290v-56h-290z" />
<glyph unicode="&#x12e;" horiz-adv-x="255" d="M175 -189q-11 -6 -30 -10t-36 -4q-34 0 -59.5 20t-25.5 62q0 46 26.5 75t65.5 46h-46v675h115v-675h-29q-34 -22 -48 -54.5t-14 -67.5q0 -33 11 -45t29 -12q8 0 19 2t22 8v-20v0z" />
<glyph unicode="&#x12f;" horiz-adv-x="255" d="M175 -189q-11 -6 -30 -10t-36 -4q-34 0 -59.5 20t-25.5 62q0 46 26.5 75t65.5 46h-46v675h115v-675h-29q-34 -22 -48 -54.5t-14 -67.5q0 -33 11 -45t29 -12q8 0 19 2t22 8v-20v0z" />
<glyph unicode="&#x128;" horiz-adv-x="255" d="M70 0v675h115v-675h-115zM272 836q0 -101 -68 -101q-15 0 -37 4t-45 9t-44.5 9t-35.5 4q-12 0 -24.5 -6t-16.5 -27h-16q0 53 21 77t49 24q13 0 31.5 -4t39.5 -8.5t42 -8.5t39 -4q14 0 29.5 5.5t18.5 26.5h17z" />
<glyph unicode="&#x129;" horiz-adv-x="255" d="M70 0v675h115v-675h-115zM272 836q0 -101 -68 -101q-15 0 -37 4t-45 9t-44.5 9t-35.5 4q-12 0 -24.5 -6t-16.5 -27h-16q0 53 21 77t49 24q13 0 31.5 -4t39.5 -8.5t42 -8.5t39 -4q14 0 29.5 5.5t18.5 26.5h17z" />
<glyph unicode="&#x134;" horiz-adv-x="604" d="M540 270q0 -49 -12 -98.5t-42.5 -89t-83 -64t-134.5 -24.5q-71 0 -119 18.5t-77.5 50t-42.5 72.5t-13 86q0 14 1 26.5t3 26.5h110q-2 -18 -3.5 -35t-1.5 -33q0 -86 38 -131t115 -45q81 0 113.5 57t32.5 175v413h116v-405zM453 849h55l95 -127h-46l-77 80l-78 -80h-42z " />
<glyph unicode="&#x135;" horiz-adv-x="604" d="M540 270q0 -49 -12 -98.5t-42.5 -89t-83 -64t-134.5 -24.5q-71 0 -119 18.5t-77.5 50t-42.5 72.5t-13 86q0 14 1 26.5t3 26.5h110q-2 -18 -3.5 -35t-1.5 -33q0 -86 38 -131t115 -45q81 0 113.5 57t32.5 175v413h116v-405zM453 849h55l95 -127h-46l-77 80l-78 -80h-42z " />
<glyph unicode="&#x136;" horiz-adv-x="659" d="M70 0v675h115v-335h148l277 335h44l-234 -284l254 -391h-141l-203 304h-145v-304h-115zM325 -244h-28l-1 183h78z" />
<glyph unicode="&#x137;" horiz-adv-x="659" d="M70 0v675h115v-335h148l277 335h44l-234 -284l254 -391h-141l-203 304h-145v-304h-115zM325 -244h-28l-1 183h78z" />
<glyph unicode="&#x139;" horiz-adv-x="624" d="M185 675v-639h428v-36h-543v675h115zM146 724h-47l94 118h83z" />
<glyph unicode="&#x13a;" horiz-adv-x="624" d="M185 675v-639h428v-36h-543v675h115zM146 724h-47l94 118h83z" />
<glyph unicode="&#x13d;" horiz-adv-x="624" d="M185 675v-639h428v-36h-543v675h115zM382 491h-23l-7 183h82z" />
<glyph unicode="&#x13e;" horiz-adv-x="624" d="M185 675v-639h428v-36h-543v675h115zM382 491h-23l-7 183h82z" />
<glyph unicode="&#x13b;" horiz-adv-x="624" d="M185 675v-639h428v-36h-543v675h115zM338 -244h-28l-1 183h78z" />
<glyph unicode="&#x13c;" horiz-adv-x="624" d="M185 675v-639h428v-36h-543v675h115zM338 -244h-28l-1 183h78z" />
<glyph unicode="&#x13f;" horiz-adv-x="624" d="M185 675v-639h428v-36h-543v675h115zM345 340q0 26 18.5 45t44.5 19t45 -19t19 -45t-19 -44.5t-45 -18.5t-44.5 18.5t-18.5 44.5z" />
<glyph unicode="&#x140;" horiz-adv-x="624" d="M185 675v-639h428v-36h-543v675h115zM345 340q0 26 18.5 45t44.5 19t45 -19t19 -45t-19 -44.5t-45 -18.5t-44.5 18.5t-18.5 44.5z" />
<glyph unicode="&#x141;" horiz-adv-x="630" d="M191 675v-345l212 79v-34l-212 -79v-260h428v-36h-543v253l-70 -26v35l70 26v387h115z" />
<glyph unicode="&#x142;" horiz-adv-x="630" d="M191 675v-345l212 79v-34l-212 -79v-260h428v-36h-543v253l-70 -26v35l70 26v387h115z" />
<glyph unicode="&#xd1;" horiz-adv-x="751" d="M610 0l-504 514v-514h-36v675h71l504 -525v525h36v-675h-71zM531 836q0 -101 -68 -101q-15 0 -37 4t-45 9t-44.5 9t-35.5 4q-12 0 -24.5 -6t-16.5 -27h-16q0 53 21 77t49 24q13 0 31.5 -4t39.5 -8.5t42 -8.5t39 -4q14 0 29.5 5.5t18.5 26.5h17z" />
<glyph unicode="&#xf1;" horiz-adv-x="751" d="M610 0l-504 514v-514h-36v675h71l504 -525v525h36v-675h-71zM531 836q0 -101 -68 -101q-15 0 -37 4t-45 9t-44.5 9t-35.5 4q-12 0 -24.5 -6t-16.5 -27h-16q0 53 21 77t49 24q13 0 31.5 -4t39.5 -8.5t42 -8.5t39 -4q14 0 29.5 5.5t18.5 26.5h17z" />
<glyph unicode="&#x143;" horiz-adv-x="751" d="M610 0l-504 514v-514h-36v675h71l504 -525v525h36v-675h-71zM388 724h-47l94 118h83z" />
<glyph unicode="&#x144;" horiz-adv-x="751" d="M610 0l-504 514v-514h-36v675h71l504 -525v525h36v-675h-71zM388 724h-47l94 118h83z" />
<glyph unicode="&#x147;" horiz-adv-x="751" d="M610 0l-504 514v-514h-36v675h71l504 -525v525h36v-675h-71zM416 722h-55l-94 127h46l76 -78l79 78h42z" />
<glyph unicode="&#x148;" horiz-adv-x="751" d="M610 0l-504 514v-514h-36v675h71l504 -525v525h36v-675h-71zM416 722h-55l-94 127h46l76 -78l79 78h42z" />
<glyph unicode="&#x145;" horiz-adv-x="751" d="M610 0l-504 514v-514h-36v675h71l504 -525v525h36v-675h-71zM361 -244h-28l-1 183h78z" />
<glyph unicode="&#x146;" horiz-adv-x="751" d="M610 0l-504 514v-514h-36v675h71l504 -525v525h36v-675h-71zM361 -244h-28l-1 183h78z" />
<glyph unicode="&#x14a;" horiz-adv-x="751" d="M681 -10q0 -34 -9 -61t-29 -45.5t-52 -27t-79 -4.5v31q19 0 42 1t43.5 10t34 28.5t13.5 57.5v20h-35l-504 514v-514h-36v675h71l504 -525v525h36v-685v0z" />
<glyph unicode="&#x14b;" horiz-adv-x="751" d="M681 -10q0 -34 -9 -61t-29 -45.5t-52 -27t-79 -4.5v31q19 0 42 1t43.5 10t34 28.5t13.5 57.5v20h-35l-504 514v-514h-36v675h71l504 -525v525h36v-685v0z" />
<glyph unicode="&#x1e46;" horiz-adv-x="751" d="M610 0l-504 514v-514h-36v675h71l504 -525v525h36v-675h-71zM321 -107q0 23 15.5 38.5t38.5 15.5q22 0 37.5 -15.5t15.5 -38.5q0 -22 -15.5 -37.5t-37.5 -15.5q-23 0 -38.5 15.5t-15.5 37.5z" />
<glyph unicode="&#x1e47;" horiz-adv-x="751" d="M610 0l-504 514v-514h-36v675h71l504 -525v525h36v-675h-71zM321 -107q0 23 15.5 38.5t38.5 15.5q22 0 37.5 -15.5t15.5 -38.5q0 -22 -15.5 -37.5t-37.5 -15.5q-23 0 -38.5 15.5t-15.5 37.5z" />
<glyph unicode="&#xd2;" horiz-adv-x="731" d="M221 842h83l94 -118h-47zM367 30q39 0 76.5 10.5t67 44.5t48 97.5t18.5 169.5q0 93 -15.5 150t-43 89t-65 43t-82.5 11q-42 0 -81.5 -11t-69.5 -44.5t-48 -96.5t-18 -168q0 -85 13 -141.5t39 -90.5t66.5 -48.5t94.5 -14.5zM374 681q76 0 136 -21.5t102 -63.5t64 -104.5 t22 -144.5q0 -89 -24.5 -155t-69.5 -110t-107 -66t-137 -22q-70 0 -130 19.5t-103.5 60.5t-68.5 103.5t-25 148.5q0 171 88 263t253 92z" />
<glyph unicode="&#xf2;" horiz-adv-x="731" d="M221 842h83l94 -118h-47zM367 30q39 0 76.5 10.5t67 44.5t48 97.5t18.5 169.5q0 93 -15.5 150t-43 89t-65 43t-82.5 11q-42 0 -81.5 -11t-69.5 -44.5t-48 -96.5t-18 -168q0 -85 13 -141.5t39 -90.5t66.5 -48.5t94.5 -14.5zM374 681q76 0 136 -21.5t102 -63.5t64 -104.5 t22 -144.5q0 -89 -24.5 -155t-69.5 -110t-107 -66t-137 -22q-70 0 -130 19.5t-103.5 60.5t-68.5 103.5t-25 148.5q0 171 88 263t253 92z" />
<glyph unicode="&#xd6;" horiz-adv-x="731" d="M228 777q0 22 15 37t37 15t37 -15t15 -37t-15 -37t-37 -15t-37 15t-15 37zM388 777q0 22 15 37t37 15t37 -15t15 -37t-15 -37t-37 -15t-37 15t-15 37zM367 30q39 0 76.5 10.5t67 44.5t48 97.5t18.5 169.5q0 93 -15.5 150t-43 89t-65 43t-82.5 11q-42 0 -81.5 -11 t-69.5 -44.5t-48 -96.5t-18 -168q0 -85 13 -141.5t39 -90.5t66.5 -48.5t94.5 -14.5zM374 681q76 0 136 -21.5t102 -63.5t64 -104.5t22 -144.5q0 -89 -24.5 -155t-69.5 -110t-107 -66t-137 -22q-70 0 -130 19.5t-103.5 60.5t-68.5 103.5t-25 148.5q0 171 88 263t253 92z" />
<glyph unicode="&#xf6;" horiz-adv-x="731" d="M228 777q0 22 15 37t37 15t37 -15t15 -37t-15 -37t-37 -15t-37 15t-15 37zM388 777q0 22 15 37t37 15t37 -15t15 -37t-15 -37t-37 -15t-37 15t-15 37zM367 30q39 0 76.5 10.5t67 44.5t48 97.5t18.5 169.5q0 93 -15.5 150t-43 89t-65 43t-82.5 11q-42 0 -81.5 -11 t-69.5 -44.5t-48 -96.5t-18 -168q0 -85 13 -141.5t39 -90.5t66.5 -48.5t94.5 -14.5zM374 681q76 0 136 -21.5t102 -63.5t64 -104.5t22 -144.5q0 -89 -24.5 -155t-69.5 -110t-107 -66t-137 -22q-70 0 -130 19.5t-103.5 60.5t-68.5 103.5t-25 148.5q0 171 88 263t253 92z" />
<glyph unicode="&#xd5;" horiz-adv-x="731" d="M492 836q0 -101 -68 -101q-15 0 -37 4t-45 9t-44.5 9t-35.5 4q-12 0 -24.5 -6t-16.5 -27h-16q0 53 21 77t49 24q13 0 31.5 -4t39.5 -8.5t42 -8.5t39 -4q14 0 29.5 5.5t18.5 26.5h17zM367 30q39 0 76.5 10.5t67 44.5t48 97.5t18.5 169.5q0 93 -15.5 150t-43 89t-65 43 t-82.5 11q-42 0 -81.5 -11t-69.5 -44.5t-48 -96.5t-18 -168q0 -85 13 -141.5t39 -90.5t66.5 -48.5t94.5 -14.5zM374 681q76 0 136 -21.5t102 -63.5t64 -104.5t22 -144.5q0 -89 -24.5 -155t-69.5 -110t-107 -66t-137 -22q-70 0 -130 19.5t-103.5 60.5t-68.5 103.5t-25 148.5 q0 171 88 263t253 92z" />
<glyph unicode="&#xf5;" horiz-adv-x="731" d="M492 836q0 -101 -68 -101q-15 0 -37 4t-45 9t-44.5 9t-35.5 4q-12 0 -24.5 -6t-16.5 -27h-16q0 53 21 77t49 24q13 0 31.5 -4t39.5 -8.5t42 -8.5t39 -4q14 0 29.5 5.5t18.5 26.5h17zM367 30q39 0 76.5 10.5t67 44.5t48 97.5t18.5 169.5q0 93 -15.5 150t-43 89t-65 43 t-82.5 11q-42 0 -81.5 -11t-69.5 -44.5t-48 -96.5t-18 -168q0 -85 13 -141.5t39 -90.5t66.5 -48.5t94.5 -14.5zM374 681q76 0 136 -21.5t102 -63.5t64 -104.5t22 -144.5q0 -89 -24.5 -155t-69.5 -110t-107 -66t-137 -22q-70 0 -130 19.5t-103.5 60.5t-68.5 103.5t-25 148.5 q0 171 88 263t253 92z" />
<glyph unicode="&#x14e;" horiz-adv-x="731" d="M473 840q0 -37 -10 -61.5t-26.5 -38.5t-38.5 -20t-46 -6q-25 0 -47 6t-38 20.5t-25.5 39t-9.5 60.5h17q0 -18 11 -29.5t26.5 -18t33 -9t31.5 -2.5q15 0 33.5 2.5t34 9.5t26.5 18t11 29h17zM367 30q39 0 76.5 10.5t67 44.5t48 97.5t18.5 169.5q0 93 -15.5 150t-43 89 t-65 43t-82.5 11q-42 0 -81.5 -11t-69.5 -44.5t-48 -96.5t-18 -168q0 -85 13 -141.5t39 -90.5t66.5 -48.5t94.5 -14.5zM374 681q76 0 136 -21.5t102 -63.5t64 -104.5t22 -144.5q0 -89 -24.5 -155t-69.5 -110t-107 -66t-137 -22q-70 0 -130 19.5t-103.5 60.5t-68.5 103.5 t-25 148.5q0 171 88 263t253 92z" />
<glyph unicode="&#x14f;" horiz-adv-x="731" d="M473 840q0 -37 -10 -61.5t-26.5 -38.5t-38.5 -20t-46 -6q-25 0 -47 6t-38 20.5t-25.5 39t-9.5 60.5h17q0 -18 11 -29.5t26.5 -18t33 -9t31.5 -2.5q15 0 33.5 2.5t34 9.5t26.5 18t11 29h17zM367 30q39 0 76.5 10.5t67 44.5t48 97.5t18.5 169.5q0 93 -15.5 150t-43 89 t-65 43t-82.5 11q-42 0 -81.5 -11t-69.5 -44.5t-48 -96.5t-18 -168q0 -85 13 -141.5t39 -90.5t66.5 -48.5t94.5 -14.5zM374 681q76 0 136 -21.5t102 -63.5t64 -104.5t22 -144.5q0 -89 -24.5 -155t-69.5 -110t-107 -66t-137 -22q-70 0 -130 19.5t-103.5 60.5t-68.5 103.5 t-25 148.5q0 171 88 263t253 92z" />
<glyph unicode="&#xd3;" horiz-adv-x="731" d="M358 724h-47l94 118h83zM367 30q39 0 76.5 10.5t67 44.5t48 97.5t18.5 169.5q0 93 -15.5 150t-43 89t-65 43t-82.5 11q-42 0 -81.5 -11t-69.5 -44.5t-48 -96.5t-18 -168q0 -85 13 -141.5t39 -90.5t66.5 -48.5t94.5 -14.5zM374 681q76 0 136 -21.5t102 -63.5t64 -104.5 t22 -144.5q0 -89 -24.5 -155t-69.5 -110t-107 -66t-137 -22q-70 0 -130 19.5t-103.5 60.5t-68.5 103.5t-25 148.5q0 171 88 263t253 92z" />
<glyph unicode="&#xf3;" horiz-adv-x="731" d="M358 724h-47l94 118h83zM367 30q39 0 76.5 10.5t67 44.5t48 97.5t18.5 169.5q0 93 -15.5 150t-43 89t-65 43t-82.5 11q-42 0 -81.5 -11t-69.5 -44.5t-48 -96.5t-18 -168q0 -85 13 -141.5t39 -90.5t66.5 -48.5t94.5 -14.5zM374 681q76 0 136 -21.5t102 -63.5t64 -104.5 t22 -144.5q0 -89 -24.5 -155t-69.5 -110t-107 -66t-137 -22q-70 0 -130 19.5t-103.5 60.5t-68.5 103.5t-25 148.5q0 171 88 263t253 92z" />
<glyph unicode="&#xd4;" horiz-adv-x="731" d="M374 681q76 0 136 -21.5t102 -63.5t64 -104.5t22 -144.5q0 -89 -24.5 -155t-69.5 -110t-107 -66t-137 -22q-70 0 -130 19.5t-103.5 60.5t-68.5 103.5t-25 148.5q0 171 88 263t253 92zM367 30q39 0 76.5 10.5t67 44.5t48 97.5t18.5 169.5q0 93 -15.5 150t-43 89t-65 43 t-82.5 11q-42 0 -81.5 -11t-69.5 -44.5t-48 -96.5t-18 -168q0 -85 13 -141.5t39 -90.5t66.5 -48.5t94.5 -14.5zM332 849h55l95 -127h-46l-77 80l-78 -80h-42z" />
<glyph unicode="&#xf4;" horiz-adv-x="731" d="M374 681q76 0 136 -21.5t102 -63.5t64 -104.5t22 -144.5q0 -89 -24.5 -155t-69.5 -110t-107 -66t-137 -22q-70 0 -130 19.5t-103.5 60.5t-68.5 103.5t-25 148.5q0 171 88 263t253 92zM367 30q39 0 76.5 10.5t67 44.5t48 97.5t18.5 169.5q0 93 -15.5 150t-43 89t-65 43 t-82.5 11q-42 0 -81.5 -11t-69.5 -44.5t-48 -96.5t-18 -168q0 -85 13 -141.5t39 -90.5t66.5 -48.5t94.5 -14.5zM332 849h55l95 -127h-46l-77 80l-78 -80h-42z" />
<glyph unicode="&#x150;" horiz-adv-x="731" d="M374 681q76 0 136 -21.5t102 -63.5t64 -104.5t22 -144.5q0 -89 -24.5 -155t-69.5 -110t-107 -66t-137 -22q-70 0 -130 19.5t-103.5 60.5t-68.5 103.5t-25 148.5q0 171 88 263t253 92zM367 30q39 0 76.5 10.5t67 44.5t48 97.5t18.5 169.5q0 93 -15.5 150t-43 89t-65 43 t-82.5 11q-42 0 -81.5 -11t-69.5 -44.5t-48 -96.5t-18 -168q0 -85 13 -141.5t39 -90.5t66.5 -48.5t94.5 -14.5zM314 724h-47l94 118h83zM434 724h-47l94 118h83z" />
<glyph unicode="&#x151;" horiz-adv-x="731" d="M374 681q76 0 136 -21.5t102 -63.5t64 -104.5t22 -144.5q0 -89 -24.5 -155t-69.5 -110t-107 -66t-137 -22q-70 0 -130 19.5t-103.5 60.5t-68.5 103.5t-25 148.5q0 171 88 263t253 92zM367 30q39 0 76.5 10.5t67 44.5t48 97.5t18.5 169.5q0 93 -15.5 150t-43 89t-65 43 t-82.5 11q-42 0 -81.5 -11t-69.5 -44.5t-48 -96.5t-18 -168q0 -85 13 -141.5t39 -90.5t66.5 -48.5t94.5 -14.5zM314 724h-47l94 118h83zM434 724h-47l94 118h83z" />
<glyph unicode="&#x14c;" horiz-adv-x="731" d="M216 736v56h290v-56h-290zM367 30q39 0 76.5 10.5t67 44.5t48 97.5t18.5 169.5q0 93 -15.5 150t-43 89t-65 43t-82.5 11q-42 0 -81.5 -11t-69.5 -44.5t-48 -96.5t-18 -168q0 -85 13 -141.5t39 -90.5t66.5 -48.5t94.5 -14.5zM374 681q76 0 136 -21.5t102 -63.5t64 -104.5 t22 -144.5q0 -89 -24.5 -155t-69.5 -110t-107 -66t-137 -22q-70 0 -130 19.5t-103.5 60.5t-68.5 103.5t-25 148.5q0 171 88 263t253 92z" />
<glyph unicode="&#x14d;" horiz-adv-x="731" d="M216 736v56h290v-56h-290zM367 30q39 0 76.5 10.5t67 44.5t48 97.5t18.5 169.5q0 93 -15.5 150t-43 89t-65 43t-82.5 11q-42 0 -81.5 -11t-69.5 -44.5t-48 -96.5t-18 -168q0 -85 13 -141.5t39 -90.5t66.5 -48.5t94.5 -14.5zM374 681q76 0 136 -21.5t102 -63.5t64 -104.5 t22 -144.5q0 -89 -24.5 -155t-69.5 -110t-107 -66t-137 -22q-70 0 -130 19.5t-103.5 60.5t-68.5 103.5t-25 148.5q0 171 88 263t253 92z" />
<glyph unicode="&#xd8;" horiz-adv-x="733" d="M375 681q135 0 219 -67l56 61h48l-79 -85q80 -86 80 -243q0 -89 -24.5 -155t-69.5 -110t-107 -66t-137 -22q-67 0 -123.5 17t-100.5 54l-59 -65h-49l83 90q-37 41 -57.5 99.5t-20.5 136.5q0 171 88 263t253 92zM368 30q39 0 76.5 10.5t67 44.5t48 97.5t18.5 169.5 q0 54 -5.5 95.5t-15.5 73.5l-368 -400q25 -51 69.5 -71t109.5 -20zM155 325q0 -106 19 -167l368 399q-27 52 -71 70t-99 18q-42 0 -81.5 -11t-69.5 -44.5t-48 -96.5t-18 -168z" />
<glyph unicode="&#xf8;" horiz-adv-x="733" d="M375 681q135 0 219 -67l56 61h48l-79 -85q80 -86 80 -243q0 -89 -24.5 -155t-69.5 -110t-107 -66t-137 -22q-67 0 -123.5 17t-100.5 54l-59 -65h-49l83 90q-37 41 -57.5 99.5t-20.5 136.5q0 171 88 263t253 92zM368 30q39 0 76.5 10.5t67 44.5t48 97.5t18.5 169.5 q0 54 -5.5 95.5t-15.5 73.5l-368 -400q25 -51 69.5 -71t109.5 -20zM155 325q0 -106 19 -167l368 399q-27 52 -71 70t-99 18q-42 0 -81.5 -11t-69.5 -44.5t-48 -96.5t-18 -168z" />
<glyph unicode="&#x1fe;" horiz-adv-x="733" d="M375 681q135 0 219 -67l56 61h48l-79 -85q80 -86 80 -243q0 -89 -24.5 -155t-69.5 -110t-107 -66t-137 -22q-67 0 -123.5 17t-100.5 54l-59 -65h-49l83 90q-37 41 -57.5 99.5t-20.5 136.5q0 171 88 263t253 92zM368 30q39 0 76.5 10.5t67 44.5t48 97.5t18.5 169.5 q0 54 -5.5 95.5t-15.5 73.5l-368 -400q25 -51 69.5 -71t109.5 -20zM155 325q0 -106 19 -167l368 399q-27 52 -71 70t-99 18q-42 0 -81.5 -11t-69.5 -44.5t-48 -96.5t-18 -168zM375 724h-47l94 118h83z" />
<glyph unicode="&#x1ff;" horiz-adv-x="733" d="M375 681q135 0 219 -67l56 61h48l-79 -85q80 -86 80 -243q0 -89 -24.5 -155t-69.5 -110t-107 -66t-137 -22q-67 0 -123.5 17t-100.5 54l-59 -65h-49l83 90q-37 41 -57.5 99.5t-20.5 136.5q0 171 88 263t253 92zM368 30q39 0 76.5 10.5t67 44.5t48 97.5t18.5 169.5 q0 54 -5.5 95.5t-15.5 73.5l-368 -400q25 -51 69.5 -71t109.5 -20zM155 325q0 -106 19 -167l368 399q-27 52 -71 70t-99 18q-42 0 -81.5 -11t-69.5 -44.5t-48 -96.5t-18 -168zM375 724h-47l94 118h83z" />
<glyph unicode="&#x154;" horiz-adv-x="699" d="M664 495q0 -45 -15.5 -76t-40 -51t-55.5 -31t-62 -16q27 -5 53.5 -14.5t48.5 -25t35.5 -38.5t14.5 -56v-38q0 -38 4 -74.5t17 -74.5h-116q-13 35 -16.5 65t-3.5 62v55q0 47 -17.5 73t-40.5 38t-46 14.5t-34 2.5h-205v-310h-115v675h380q30 0 67 -7t69.5 -26.5t55 -54.5 t22.5 -92zM543 492q0 71 -27.5 109t-80.5 38h-250v-293h248q25 0 45.5 7t34.5 23.5t22 44.5t8 71zM342 724h-47l94 118h83z" />
<glyph unicode="&#x155;" horiz-adv-x="699" d="M664 495q0 -45 -15.5 -76t-40 -51t-55.5 -31t-62 -16q27 -5 53.5 -14.5t48.5 -25t35.5 -38.5t14.5 -56v-38q0 -38 4 -74.5t17 -74.5h-116q-13 35 -16.5 65t-3.5 62v55q0 47 -17.5 73t-40.5 38t-46 14.5t-34 2.5h-205v-310h-115v675h380q30 0 67 -7t69.5 -26.5t55 -54.5 t22.5 -92zM543 492q0 71 -27.5 109t-80.5 38h-250v-293h248q25 0 45.5 7t34.5 23.5t22 44.5t8 71zM342 724h-47l94 118h83z" />
<glyph unicode="&#x158;" horiz-adv-x="699" d="M664 495q0 -45 -15.5 -76t-40 -51t-55.5 -31t-62 -16q27 -5 53.5 -14.5t48.5 -25t35.5 -38.5t14.5 -56v-38q0 -38 4 -74.5t17 -74.5h-116q-13 35 -16.5 65t-3.5 62v55q0 47 -17.5 73t-40.5 38t-46 14.5t-34 2.5h-205v-310h-115v675h380q30 0 67 -7t69.5 -26.5t55 -54.5 t22.5 -92zM543 492q0 71 -27.5 109t-80.5 38h-250v-293h248q25 0 45.5 7t34.5 23.5t22 44.5t8 71zM364 722h-55l-94 127h46l76 -78l79 78h42z" />
<glyph unicode="&#x159;" horiz-adv-x="699" d="M664 495q0 -45 -15.5 -76t-40 -51t-55.5 -31t-62 -16q27 -5 53.5 -14.5t48.5 -25t35.5 -38.5t14.5 -56v-38q0 -38 4 -74.5t17 -74.5h-116q-13 35 -16.5 65t-3.5 62v55q0 47 -17.5 73t-40.5 38t-46 14.5t-34 2.5h-205v-310h-115v675h380q30 0 67 -7t69.5 -26.5t55 -54.5 t22.5 -92zM543 492q0 71 -27.5 109t-80.5 38h-250v-293h248q25 0 45.5 7t34.5 23.5t22 44.5t8 71zM364 722h-55l-94 127h46l76 -78l79 78h42z" />
<glyph unicode="&#x156;" horiz-adv-x="699" d="M664 495q0 -45 -15.5 -76t-40 -51t-55.5 -31t-62 -16q27 -5 53.5 -14.5t48.5 -25t35.5 -38.5t14.5 -56v-38q0 -38 4 -74.5t17 -74.5h-116q-13 35 -16.5 65t-3.5 62v55q0 47 -17.5 73t-40.5 38t-46 14.5t-34 2.5h-205v-310h-115v675h380q30 0 67 -7t69.5 -26.5t55 -54.5 t22.5 -92zM543 492q0 71 -27.5 109t-80.5 38h-250v-293h248q25 0 45.5 7t34.5 23.5t22 44.5t8 71zM347 -244h-28l-1 183h78z" />
<glyph unicode="&#x157;" horiz-adv-x="699" d="M664 495q0 -45 -15.5 -76t-40 -51t-55.5 -31t-62 -16q27 -5 53.5 -14.5t48.5 -25t35.5 -38.5t14.5 -56v-38q0 -38 4 -74.5t17 -74.5h-116q-13 35 -16.5 65t-3.5 62v55q0 47 -17.5 73t-40.5 38t-46 14.5t-34 2.5h-205v-310h-115v675h380q30 0 67 -7t69.5 -26.5t55 -54.5 t22.5 -92zM543 492q0 71 -27.5 109t-80.5 38h-250v-293h248q25 0 45.5 7t34.5 23.5t22 44.5t8 71zM347 -244h-28l-1 183h78z" />
<glyph unicode="&#x15a;" horiz-adv-x="657" d="M629 200q0 -56 -28.5 -95t-73 -63.5t-98 -36t-103.5 -11.5q-66 0 -122.5 15t-97 43t-62.5 67.5t-17 88.5h107q-7 -85 44 -131.5t157 -46.5q37 0 70 7.5t57.5 24t38.5 42.5t14 62q0 25 -7 45.5t-28.5 37.5t-61.5 30t-106 23q-24 5 -54 10.5t-60.5 14t-59.5 21t-52 31.5 t-36.5 45.5t-13.5 62.5q0 44 22 80t62 61.5t94 39t119 13.5q73 0 128.5 -16.5t91.5 -45.5t52.5 -69t12.5 -86h-107q2 14 -1 44t-21.5 60.5t-57 53.5t-107.5 23q-86 0 -133 -31t-47 -87q0 -41 22.5 -64t58 -36t79 -20.5t86.5 -16.5q120 -19 179.5 -63t59.5 -127zM329 724h-47 l94 118h83z" />
<glyph unicode="&#x15b;" horiz-adv-x="657" d="M629 200q0 -56 -28.5 -95t-73 -63.5t-98 -36t-103.5 -11.5q-66 0 -122.5 15t-97 43t-62.5 67.5t-17 88.5h107q-7 -85 44 -131.5t157 -46.5q37 0 70 7.5t57.5 24t38.5 42.5t14 62q0 25 -7 45.5t-28.5 37.5t-61.5 30t-106 23q-24 5 -54 10.5t-60.5 14t-59.5 21t-52 31.5 t-36.5 45.5t-13.5 62.5q0 44 22 80t62 61.5t94 39t119 13.5q73 0 128.5 -16.5t91.5 -45.5t52.5 -69t12.5 -86h-107q2 14 -1 44t-21.5 60.5t-57 53.5t-107.5 23q-86 0 -133 -31t-47 -87q0 -41 22.5 -64t58 -36t79 -20.5t86.5 -16.5q120 -19 179.5 -63t59.5 -127zM329 724h-47 l94 118h83z" />
<glyph unicode="&#x15e;" horiz-adv-x="657" d="M433 -140q0 -26 -9 -43.5t-23 -28t-33 -15t-38 -4.5q-48 0 -77 23v22q8 -10 27 -17t36 -7q15 0 24.5 6.5t14.5 16t6.5 21.5t1.5 23t-2 25.5t-9 27t-20.5 21.5t-36.5 9h-18l7 56q-58 4 -107 21t-83.5 44.5t-52.5 64.5t-14 82h107q-7 -85 44 -131.5t157 -46.5q37 0 70 7.5 t57.5 24t38.5 42.5t14 62q0 25 -7 45.5t-28.5 37.5t-61.5 30t-106 23q-24 5 -54 10.5t-60.5 14t-59.5 21t-52 31.5t-36.5 45.5t-13.5 62.5q0 44 22 80t62 61.5t94 39t119 13.5q73 0 128.5 -16.5t91.5 -45.5t52.5 -69t12.5 -86h-107q2 14 -1 44t-21.5 60.5t-57 53.5 t-107.5 23q-86 0 -133 -31t-47 -87q0 -41 22.5 -64t58 -36t79 -20.5t86.5 -16.5q120 -19 179.5 -63t59.5 -127q0 -53 -26.5 -91.5t-67.5 -63t-92 -37t-100 -13.5l-25 -38q54 0 84.5 -24.5t30.5 -72.5z" />
<glyph unicode="&#x15f;" horiz-adv-x="657" d="M433 -140q0 -26 -9 -43.5t-23 -28t-33 -15t-38 -4.5q-48 0 -77 23v22q8 -10 27 -17t36 -7q15 0 24.5 6.5t14.5 16t6.5 21.5t1.5 23t-2 25.5t-9 27t-20.5 21.5t-36.5 9h-18l7 56q-58 4 -107 21t-83.5 44.5t-52.5 64.5t-14 82h107q-7 -85 44 -131.5t157 -46.5q37 0 70 7.5 t57.5 24t38.5 42.5t14 62q0 25 -7 45.5t-28.5 37.5t-61.5 30t-106 23q-24 5 -54 10.5t-60.5 14t-59.5 21t-52 31.5t-36.5 45.5t-13.5 62.5q0 44 22 80t62 61.5t94 39t119 13.5q73 0 128.5 -16.5t91.5 -45.5t52.5 -69t12.5 -86h-107q2 14 -1 44t-21.5 60.5t-57 53.5 t-107.5 23q-86 0 -133 -31t-47 -87q0 -41 22.5 -64t58 -36t79 -20.5t86.5 -16.5q120 -19 179.5 -63t59.5 -127q0 -53 -26.5 -91.5t-67.5 -63t-92 -37t-100 -13.5l-25 -38q54 0 84.5 -24.5t30.5 -72.5z" />
<glyph unicode="&#x160;" horiz-adv-x="657" d="M629 200q0 -56 -28.5 -95t-73 -63.5t-98 -36t-103.5 -11.5q-66 0 -122.5 15t-97 43t-62.5 67.5t-17 88.5h107q-7 -85 44 -131.5t157 -46.5q37 0 70 7.5t57.5 24t38.5 42.5t14 62q0 25 -7 45.5t-28.5 37.5t-61.5 30t-106 23q-24 5 -54 10.5t-60.5 14t-59.5 21t-52 31.5 t-36.5 45.5t-13.5 62.5q0 44 22 80t62 61.5t94 39t119 13.5q73 0 128.5 -16.5t91.5 -45.5t52.5 -69t12.5 -86h-107q2 14 -1 44t-21.5 60.5t-57 53.5t-107.5 23q-86 0 -133 -31t-47 -87q0 -41 22.5 -64t58 -36t79 -20.5t86.5 -16.5q120 -19 179.5 -63t59.5 -127zM354 722h-55 l-94 127h46l76 -78l79 78h42z" />
<glyph unicode="&#x161;" horiz-adv-x="657" d="M629 200q0 -56 -28.5 -95t-73 -63.5t-98 -36t-103.5 -11.5q-66 0 -122.5 15t-97 43t-62.5 67.5t-17 88.5h107q-7 -85 44 -131.5t157 -46.5q37 0 70 7.5t57.5 24t38.5 42.5t14 62q0 25 -7 45.5t-28.5 37.5t-61.5 30t-106 23q-24 5 -54 10.5t-60.5 14t-59.5 21t-52 31.5 t-36.5 45.5t-13.5 62.5q0 44 22 80t62 61.5t94 39t119 13.5q73 0 128.5 -16.5t91.5 -45.5t52.5 -69t12.5 -86h-107q2 14 -1 44t-21.5 60.5t-57 53.5t-107.5 23q-86 0 -133 -31t-47 -87q0 -41 22.5 -64t58 -36t79 -20.5t86.5 -16.5q120 -19 179.5 -63t59.5 -127zM354 722h-55 l-94 127h46l76 -78l79 78h42z" />
<glyph unicode="&#x15c;" horiz-adv-x="657" d="M629 200q0 -56 -28.5 -95t-73 -63.5t-98 -36t-103.5 -11.5q-66 0 -122.5 15t-97 43t-62.5 67.5t-17 88.5h107q-7 -85 44 -131.5t157 -46.5q37 0 70 7.5t57.5 24t38.5 42.5t14 62q0 25 -7 45.5t-28.5 37.5t-61.5 30t-106 23q-24 5 -54 10.5t-60.5 14t-59.5 21t-52 31.5 t-36.5 45.5t-13.5 62.5q0 44 22 80t62 61.5t94 39t119 13.5q73 0 128.5 -16.5t91.5 -45.5t52.5 -69t12.5 -86h-107q2 14 -1 44t-21.5 60.5t-57 53.5t-107.5 23q-86 0 -133 -31t-47 -87q0 -41 22.5 -64t58 -36t79 -20.5t86.5 -16.5q120 -19 179.5 -63t59.5 -127zM293 849h55 l95 -127h-46l-77 80l-78 -80h-42z" />
<glyph unicode="&#x15d;" horiz-adv-x="657" d="M629 200q0 -56 -28.5 -95t-73 -63.5t-98 -36t-103.5 -11.5q-66 0 -122.5 15t-97 43t-62.5 67.5t-17 88.5h107q-7 -85 44 -131.5t157 -46.5q37 0 70 7.5t57.5 24t38.5 42.5t14 62q0 25 -7 45.5t-28.5 37.5t-61.5 30t-106 23q-24 5 -54 10.5t-60.5 14t-59.5 21t-52 31.5 t-36.5 45.5t-13.5 62.5q0 44 22 80t62 61.5t94 39t119 13.5q73 0 128.5 -16.5t91.5 -45.5t52.5 -69t12.5 -86h-107q2 14 -1 44t-21.5 60.5t-57 53.5t-107.5 23q-86 0 -133 -31t-47 -87q0 -41 22.5 -64t58 -36t79 -20.5t86.5 -16.5q120 -19 179.5 -63t59.5 -127zM293 849h55 l95 -127h-46l-77 80l-78 -80h-42z" />
<glyph unicode="&#x218;" horiz-adv-x="657" d="M317 -244h-28l-1 183h78zM629 200q0 -56 -28.5 -95t-73 -63.5t-98 -36t-103.5 -11.5q-66 0 -122.5 15t-97 43t-62.5 67.5t-17 88.5h107q-7 -85 44 -131.5t157 -46.5q37 0 70 7.5t57.5 24t38.5 42.5t14 62q0 25 -7 45.5t-28.5 37.5t-61.5 30t-106 23q-24 5 -54 10.5 t-60.5 14t-59.5 21t-52 31.5t-36.5 45.5t-13.5 62.5q0 44 22 80t62 61.5t94 39t119 13.5q73 0 128.5 -16.5t91.5 -45.5t52.5 -69t12.5 -86h-107q2 14 -1 44t-21.5 60.5t-57 53.5t-107.5 23q-86 0 -133 -31t-47 -87q0 -41 22.5 -64t58 -36t79 -20.5t86.5 -16.5 q120 -19 179.5 -63t59.5 -127z" />
<glyph unicode="&#x219;" horiz-adv-x="657" d="M317 -244h-28l-1 183h78zM629 200q0 -56 -28.5 -95t-73 -63.5t-98 -36t-103.5 -11.5q-66 0 -122.5 15t-97 43t-62.5 67.5t-17 88.5h107q-7 -85 44 -131.5t157 -46.5q37 0 70 7.5t57.5 24t38.5 42.5t14 62q0 25 -7 45.5t-28.5 37.5t-61.5 30t-106 23q-24 5 -54 10.5 t-60.5 14t-59.5 21t-52 31.5t-36.5 45.5t-13.5 62.5q0 44 22 80t62 61.5t94 39t119 13.5q73 0 128.5 -16.5t91.5 -45.5t52.5 -69t12.5 -86h-107q2 14 -1 44t-21.5 60.5t-57 53.5t-107.5 23q-86 0 -133 -31t-47 -87q0 -41 22.5 -64t58 -36t79 -20.5t86.5 -16.5 q120 -19 179.5 -63t59.5 -127z" />
<glyph unicode="&#x1e62;" horiz-adv-x="657" d="M271 -107q0 23 15.5 38.5t38.5 15.5q22 0 37.5 -15.5t15.5 -38.5q0 -22 -15.5 -37.5t-37.5 -15.5q-23 0 -38.5 15.5t-15.5 37.5zM629 200q0 -56 -28.5 -95t-73 -63.5t-98 -36t-103.5 -11.5q-66 0 -122.5 15t-97 43t-62.5 67.5t-17 88.5h107q-7 -85 44 -131.5t157 -46.5 q37 0 70 7.5t57.5 24t38.5 42.5t14 62q0 25 -7 45.5t-28.5 37.5t-61.5 30t-106 23q-24 5 -54 10.5t-60.5 14t-59.5 21t-52 31.5t-36.5 45.5t-13.5 62.5q0 44 22 80t62 61.5t94 39t119 13.5q73 0 128.5 -16.5t91.5 -45.5t52.5 -69t12.5 -86h-107q2 14 -1 44t-21.5 60.5 t-57 53.5t-107.5 23q-86 0 -133 -31t-47 -87q0 -41 22.5 -64t58 -36t79 -20.5t86.5 -16.5q120 -19 179.5 -63t59.5 -127z" />
<glyph unicode="&#x1e63;" horiz-adv-x="657" d="M271 -107q0 23 15.5 38.5t38.5 15.5q22 0 37.5 -15.5t15.5 -38.5q0 -22 -15.5 -37.5t-37.5 -15.5q-23 0 -38.5 15.5t-15.5 37.5zM629 200q0 -56 -28.5 -95t-73 -63.5t-98 -36t-103.5 -11.5q-66 0 -122.5 15t-97 43t-62.5 67.5t-17 88.5h107q-7 -85 44 -131.5t157 -46.5 q37 0 70 7.5t57.5 24t38.5 42.5t14 62q0 25 -7 45.5t-28.5 37.5t-61.5 30t-106 23q-24 5 -54 10.5t-60.5 14t-59.5 21t-52 31.5t-36.5 45.5t-13.5 62.5q0 44 22 80t62 61.5t94 39t119 13.5q73 0 128.5 -16.5t91.5 -45.5t52.5 -69t12.5 -86h-107q2 14 -1 44t-21.5 60.5 t-57 53.5t-107.5 23q-86 0 -133 -31t-47 -87q0 -41 22.5 -64t58 -36t79 -20.5t86.5 -16.5q120 -19 179.5 -63t59.5 -127z" />
<glyph unicode="&#x166;" horiz-adv-x="621" d="M254 0v298h-127v35h127v306h-240v36h593v-36h-237v-306h128v-35h-128v-298h-116z" />
<glyph unicode="&#x167;" horiz-adv-x="621" d="M254 0v298h-127v35h127v306h-240v36h593v-36h-237v-306h128v-35h-128v-298h-116z" />
<glyph unicode="&#x164;" horiz-adv-x="613" d="M10 675h593v-36h-237v-639h-116v639h-240v36zM335 722h-55l-94 127h46l76 -78l79 78h42z" />
<glyph unicode="&#x165;" horiz-adv-x="613" d="M10 675h593v-36h-237v-639h-116v639h-240v36zM335 722h-55l-94 127h46l76 -78l79 78h42z" />
<glyph unicode="&#x162;" horiz-adv-x="613" d="M10 675h593v-36h-237v-639h-116v639h-240v36zM296 -244h-28l-1 183h78z" />
<glyph unicode="&#x163;" horiz-adv-x="613" d="M10 675h593v-36h-237v-639h-116v639h-240v36zM296 -244h-28l-1 183h78z" />
<glyph unicode="&#x21a;" horiz-adv-x="613" d="M10 675h593v-36h-237v-639h-116v639h-240v36zM296 -244h-28l-1 183h78z" />
<glyph unicode="&#x21b;" horiz-adv-x="613" d="M10 675h593v-36h-237v-639h-116v639h-240v36zM296 -244h-28l-1 183h78z" />
<glyph unicode="&#xda;" horiz-adv-x="743" d="M404 724h-47l94 118h83zM680 230q0 -47 -14 -89.5t-47.5 -75t-91 -52t-144.5 -19.5q-77 0 -136 15.5t-100 45t-62 71t-21 92.5v457h115v-475q0 -38 11 -69.5t37 -54t68 -34.5t104 -12q67 0 114 14.5t76 40.5t42 61.5t13 78.5v450h36v-445z" />
<glyph unicode="&#xfa;" horiz-adv-x="743" d="M404 724h-47l94 118h83zM680 230q0 -47 -14 -89.5t-47.5 -75t-91 -52t-144.5 -19.5q-77 0 -136 15.5t-100 45t-62 71t-21 92.5v457h115v-475q0 -38 11 -69.5t37 -54t68 -34.5t104 -12q67 0 114 14.5t76 40.5t42 61.5t13 78.5v450h36v-445z" />
<glyph unicode="&#xdb;" horiz-adv-x="743" d="M680 230q0 -47 -14 -89.5t-47.5 -75t-91 -52t-144.5 -19.5q-77 0 -136 15.5t-100 45t-62 71t-21 92.5v457h115v-475q0 -38 11 -69.5t37 -54t68 -34.5t104 -12q67 0 114 14.5t76 40.5t42 61.5t13 78.5v450h36v-445zM355 849h55l95 -127h-46l-77 80l-78 -80h-42z" />
<glyph unicode="&#xfb;" horiz-adv-x="743" d="M680 230q0 -47 -14 -89.5t-47.5 -75t-91 -52t-144.5 -19.5q-77 0 -136 15.5t-100 45t-62 71t-21 92.5v457h115v-475q0 -38 11 -69.5t37 -54t68 -34.5t104 -12q67 0 114 14.5t76 40.5t42 61.5t13 78.5v450h36v-445zM355 849h55l95 -127h-46l-77 80l-78 -80h-42z" />
<glyph unicode="&#xd9;" horiz-adv-x="743" d="M255 842h83l94 -118h-47zM680 230q0 -47 -14 -89.5t-47.5 -75t-91 -52t-144.5 -19.5q-77 0 -136 15.5t-100 45t-62 71t-21 92.5v457h115v-475q0 -38 11 -69.5t37 -54t68 -34.5t104 -12q67 0 114 14.5t76 40.5t42 61.5t13 78.5v450h36v-445z" />
<glyph unicode="&#xf9;" horiz-adv-x="743" d="M255 842h83l94 -118h-47zM680 230q0 -47 -14 -89.5t-47.5 -75t-91 -52t-144.5 -19.5q-77 0 -136 15.5t-100 45t-62 71t-21 92.5v457h115v-475q0 -38 11 -69.5t37 -54t68 -34.5t104 -12q67 0 114 14.5t76 40.5t42 61.5t13 78.5v450h36v-445z" />
<glyph unicode="&#xdc;" horiz-adv-x="743" d="M258 777q0 22 15 37t37 15t37 -15t15 -37t-15 -37t-37 -15t-37 15t-15 37zM418 777q0 22 15 37t37 15t37 -15t15 -37t-15 -37t-37 -15t-37 15t-15 37zM680 230q0 -47 -14 -89.5t-47.5 -75t-91 -52t-144.5 -19.5q-77 0 -136 15.5t-100 45t-62 71t-21 92.5v457h115v-475 q0 -38 11 -69.5t37 -54t68 -34.5t104 -12q67 0 114 14.5t76 40.5t42 61.5t13 78.5v450h36v-445z" />
<glyph unicode="&#xfc;" horiz-adv-x="743" d="M258 777q0 22 15 37t37 15t37 -15t15 -37t-15 -37t-37 -15t-37 15t-15 37zM418 777q0 22 15 37t37 15t37 -15t15 -37t-15 -37t-37 -15t-37 15t-15 37zM680 230q0 -47 -14 -89.5t-47.5 -75t-91 -52t-144.5 -19.5q-77 0 -136 15.5t-100 45t-62 71t-21 92.5v457h115v-475 q0 -38 11 -69.5t37 -54t68 -34.5t104 -12q67 0 114 14.5t76 40.5t42 61.5t13 78.5v450h36v-445z" />
<glyph unicode="&#x16c;" horiz-adv-x="743" d="M511 840q0 -37 -10 -61.5t-26.5 -38.5t-38.5 -20t-46 -6q-25 0 -47 6t-38 20.5t-25.5 39t-9.5 60.5h17q0 -18 11 -29.5t26.5 -18t33 -9t31.5 -2.5q15 0 33.5 2.5t34 9.5t26.5 18t11 29h17zM680 230q0 -47 -14 -89.5t-47.5 -75t-91 -52t-144.5 -19.5q-77 0 -136 15.5 t-100 45t-62 71t-21 92.5v457h115v-475q0 -38 11 -69.5t37 -54t68 -34.5t104 -12q67 0 114 14.5t76 40.5t42 61.5t13 78.5v450h36v-445z" />
<glyph unicode="&#x16d;" horiz-adv-x="743" d="M511 840q0 -37 -10 -61.5t-26.5 -38.5t-38.5 -20t-46 -6q-25 0 -47 6t-38 20.5t-25.5 39t-9.5 60.5h17q0 -18 11 -29.5t26.5 -18t33 -9t31.5 -2.5q15 0 33.5 2.5t34 9.5t26.5 18t11 29h17zM680 230q0 -47 -14 -89.5t-47.5 -75t-91 -52t-144.5 -19.5q-77 0 -136 15.5 t-100 45t-62 71t-21 92.5v457h115v-475q0 -38 11 -69.5t37 -54t68 -34.5t104 -12q67 0 114 14.5t76 40.5t42 61.5t13 78.5v450h36v-445z" />
<glyph unicode="&#x170;" horiz-adv-x="743" d="M680 230q0 -47 -14 -89.5t-47.5 -75t-91 -52t-144.5 -19.5q-77 0 -136 15.5t-100 45t-62 71t-21 92.5v457h115v-475q0 -38 11 -69.5t37 -54t68 -34.5t104 -12q67 0 114 14.5t76 40.5t42 61.5t13 78.5v450h36v-445zM314 724h-47l94 118h83zM434 724h-47l94 118h83z" />
<glyph unicode="&#x171;" horiz-adv-x="743" d="M680 230q0 -47 -14 -89.5t-47.5 -75t-91 -52t-144.5 -19.5q-77 0 -136 15.5t-100 45t-62 71t-21 92.5v457h115v-475q0 -38 11 -69.5t37 -54t68 -34.5t104 -12q67 0 114 14.5t76 40.5t42 61.5t13 78.5v450h36v-445zM314 724h-47l94 118h83zM434 724h-47l94 118h83z" />
<glyph unicode="&#x16a;" horiz-adv-x="743" d="M249 736v56h290v-56h-290zM680 230q0 -47 -14 -89.5t-47.5 -75t-91 -52t-144.5 -19.5q-77 0 -136 15.5t-100 45t-62 71t-21 92.5v457h115v-475q0 -38 11 -69.5t37 -54t68 -34.5t104 -12q67 0 114 14.5t76 40.5t42 61.5t13 78.5v450h36v-445z" />
<glyph unicode="&#x16b;" horiz-adv-x="743" d="M249 736v56h290v-56h-290zM680 230q0 -47 -14 -89.5t-47.5 -75t-91 -52t-144.5 -19.5q-77 0 -136 15.5t-100 45t-62 71t-21 92.5v457h115v-475q0 -38 11 -69.5t37 -54t68 -34.5t104 -12q67 0 114 14.5t76 40.5t42 61.5t13 78.5v450h36v-445z" />
<glyph unicode="&#x172;" horiz-adv-x="743" d="M680 230q0 -44 -12 -84t-41 -71.5t-78 -52.5t-122 -26q-31 -22 -43.5 -53t-12.5 -65q0 -33 11 -45t29 -12q8 0 19 2t22 8v-20q-11 -6 -30 -10t-36 -4q-34 0 -59.5 20t-25.5 62t22.5 70t56.5 45q-152 1 -234 61t-82 163v457h115v-475q0 -38 11 -69.5t37 -54t68 -34.5 t104 -12q67 0 114 14.5t76 40.5t42 61.5t13 78.5v450h36v-445z" />
<glyph unicode="&#x173;" horiz-adv-x="743" d="M680 230q0 -44 -12 -84t-41 -71.5t-78 -52.5t-122 -26q-31 -22 -43.5 -53t-12.5 -65q0 -33 11 -45t29 -12q8 0 19 2t22 8v-20q-11 -6 -30 -10t-36 -4q-34 0 -59.5 20t-25.5 62t22.5 70t56.5 45q-152 1 -234 61t-82 163v457h115v-475q0 -38 11 -69.5t37 -54t68 -34.5 t104 -12q67 0 114 14.5t76 40.5t42 61.5t13 78.5v450h36v-445z" />
<glyph unicode="&#x16e;" horiz-adv-x="743" d="M502 801q0 -24 -9.5 -42.5t-25 -30.5t-36.5 -18t-43 -6q-47 0 -79.5 24t-32.5 72t32.5 72.5t80.5 24.5t80.5 -25t32.5 -71zM449 802q0 44 -18 61t-42 17q-26 0 -42.5 -18t-16.5 -60t18 -61.5t42 -19.5q23 0 41 18.5t18 62.5zM680 230q0 -47 -14 -89.5t-47.5 -75t-91 -52 t-144.5 -19.5q-77 0 -136 15.5t-100 45t-62 71t-21 92.5v457h115v-475q0 -38 11 -69.5t37 -54t68 -34.5t104 -12q67 0 114 14.5t76 40.5t42 61.5t13 78.5v450h36v-445z" />
<glyph unicode="&#x16f;" horiz-adv-x="743" d="M502 801q0 -24 -9.5 -42.5t-25 -30.5t-36.5 -18t-43 -6q-47 0 -79.5 24t-32.5 72t32.5 72.5t80.5 24.5t80.5 -25t32.5 -71zM449 802q0 44 -18 61t-42 17q-26 0 -42.5 -18t-16.5 -60t18 -61.5t42 -19.5q23 0 41 18.5t18 62.5zM680 230q0 -47 -14 -89.5t-47.5 -75t-91 -52 t-144.5 -19.5q-77 0 -136 15.5t-100 45t-62 71t-21 92.5v457h115v-475q0 -38 11 -69.5t37 -54t68 -34.5t104 -12q67 0 114 14.5t76 40.5t42 61.5t13 78.5v450h36v-445z" />
<glyph unicode="&#x168;" horiz-adv-x="743" d="M528 836q0 -101 -68 -101q-15 0 -37 4t-45 9t-44.5 9t-35.5 4q-12 0 -24.5 -6t-16.5 -27h-16q0 53 21 77t49 24q13 0 31.5 -4t39.5 -8.5t42 -8.5t39 -4q14 0 29.5 5.5t18.5 26.5h17zM680 230q0 -47 -14 -89.5t-47.5 -75t-91 -52t-144.5 -19.5q-77 0 -136 15.5t-100 45 t-62 71t-21 92.5v457h115v-475q0 -38 11 -69.5t37 -54t68 -34.5t104 -12q67 0 114 14.5t76 40.5t42 61.5t13 78.5v450h36v-445z" />
<glyph unicode="&#x169;" horiz-adv-x="743" d="M528 836q0 -101 -68 -101q-15 0 -37 4t-45 9t-44.5 9t-35.5 4q-12 0 -24.5 -6t-16.5 -27h-16q0 53 21 77t49 24q13 0 31.5 -4t39.5 -8.5t42 -8.5t39 -4q14 0 29.5 5.5t18.5 26.5h17zM680 230q0 -47 -14 -89.5t-47.5 -75t-91 -52t-144.5 -19.5q-77 0 -136 15.5t-100 45 t-62 71t-21 92.5v457h115v-475q0 -38 11 -69.5t37 -54t68 -34.5t104 -12q67 0 114 14.5t76 40.5t42 61.5t13 78.5v450h36v-445z" />
<glyph unicode="&#x1d3;" horiz-adv-x="743" d="M680 230q0 -47 -14 -89.5t-47.5 -75t-91 -52t-144.5 -19.5q-77 0 -136 15.5t-100 45t-62 71t-21 92.5v457h115v-475q0 -38 11 -69.5t37 -54t68 -34.5t104 -12q67 0 114 14.5t76 40.5t42 61.5t13 78.5v450h36v-445zM422 722h-55l-94 127h46l76 -78l79 78h42z" />
<glyph unicode="&#x1d4;" horiz-adv-x="743" d="M680 230q0 -47 -14 -89.5t-47.5 -75t-91 -52t-144.5 -19.5q-77 0 -136 15.5t-100 45t-62 71t-21 92.5v457h115v-475q0 -38 11 -69.5t37 -54t68 -34.5t104 -12q67 0 114 14.5t76 40.5t42 61.5t13 78.5v450h36v-445zM422 722h-55l-94 127h46l76 -78l79 78h42z" />
<glyph unicode="&#x1e82;" horiz-adv-x="935" d="M719 106l170 569h41l-202 -675h-96l-173 545l-157 -545h-92l-203 675h121l165 -569l163 569h83zM519 724h-47l94 118h83z" />
<glyph unicode="&#x1e83;" horiz-adv-x="935" d="M719 106l170 569h41l-202 -675h-96l-173 545l-157 -545h-92l-203 675h121l165 -569l163 569h83zM519 724h-47l94 118h83z" />
<glyph unicode="&#x174;" horiz-adv-x="935" d="M719 106l170 569h41l-202 -675h-96l-173 545l-157 -545h-92l-203 675h121l165 -569l163 569h83zM470 849h55l95 -127h-46l-77 80l-78 -80h-42z" />
<glyph unicode="&#x175;" horiz-adv-x="935" d="M719 106l170 569h41l-202 -675h-96l-173 545l-157 -545h-92l-203 675h121l165 -569l163 569h83zM470 849h55l95 -127h-46l-77 80l-78 -80h-42z" />
<glyph unicode="&#x1e84;" horiz-adv-x="935" d="M719 106l170 569h41l-202 -675h-96l-173 545l-157 -545h-92l-203 675h121l165 -569l163 569h83zM520 777q0 22 15 37t37 15t37 -15t15 -37t-15 -37t-37 -15t-37 15t-15 37zM360 777q0 22 15 37t37 15t37 -15t15 -37t-15 -37t-37 -15t-37 15t-15 37z" />
<glyph unicode="&#x1e85;" horiz-adv-x="935" d="M719 106l170 569h41l-202 -675h-96l-173 545l-157 -545h-92l-203 675h121l165 -569l163 569h83zM520 777q0 22 15 37t37 15t37 -15t15 -37t-15 -37t-37 -15t-37 15t-15 37zM360 777q0 22 15 37t37 15t37 -15t15 -37t-15 -37t-37 -15t-37 15t-15 37z" />
<glyph unicode="&#x1e80;" horiz-adv-x="935" d="M719 106l170 569h41l-202 -675h-96l-173 545l-157 -545h-92l-203 675h121l165 -569l163 569h83zM336 842h83l94 -118h-47z" />
<glyph unicode="&#x1e81;" horiz-adv-x="935" d="M719 106l170 569h41l-202 -675h-96l-173 545l-157 -545h-92l-203 675h121l165 -569l163 569h83zM336 842h83l94 -118h-47z" />
<glyph unicode="&#xff;" horiz-adv-x="638" d="M-8 675h136l243 -353l220 353h36l-245 -397v-278h-115v278zM354 777q0 22 15 37t37 15t37 -15t15 -37t-15 -37t-37 -15t-37 15t-15 37zM194 777q0 22 15 37t37 15t37 -15t15 -37t-15 -37t-37 -15t-37 15t-15 37z" />
<glyph unicode="&#x178;" horiz-adv-x="638" d="M-8 675h136l243 -353l220 353h36l-245 -397v-278h-115v278zM354 777q0 22 15 37t37 15t37 -15t15 -37t-15 -37t-37 -15t-37 15t-15 37zM194 777q0 22 15 37t37 15t37 -15t15 -37t-15 -37t-37 -15t-37 15t-15 37z" />
<glyph unicode="&#x176;" horiz-adv-x="638" d="M-8 675h136l243 -353l220 353h36l-245 -397v-278h-115v278zM298 849h55l95 -127h-46l-77 80l-78 -80h-42z" />
<glyph unicode="&#x177;" horiz-adv-x="638" d="M-8 675h136l243 -353l220 353h36l-245 -397v-278h-115v278zM298 849h55l95 -127h-46l-77 80l-78 -80h-42z" />
<glyph unicode="&#x1ef2;" horiz-adv-x="638" d="M-8 675h136l243 -353l220 353h36l-245 -397v-278h-115v278zM189 842h83l94 -118h-47z" />
<glyph unicode="&#x1ef3;" horiz-adv-x="638" d="M-8 675h136l243 -353l220 353h36l-245 -397v-278h-115v278zM189 842h83l94 -118h-47z" />
<glyph unicode="&#xdd;" horiz-adv-x="638" d="M-8 675h136l243 -353l220 353h36l-245 -397v-278h-115v278zM343 724h-47l94 118h83z" />
<glyph unicode="&#xfd;" horiz-adv-x="638" d="M-8 675h136l243 -353l220 353h36l-245 -397v-278h-115v278zM343 724h-47l94 118h83z" />
<glyph unicode="&#x232;" horiz-adv-x="638" d="M-8 675h136l243 -353l220 353h36l-245 -397v-278h-115v278zM188 736v56h290v-56h-290z" />
<glyph unicode="&#x233;" horiz-adv-x="638" d="M-8 675h136l243 -353l220 353h36l-245 -397v-278h-115v278zM188 736v56h290v-56h-290z" />
<glyph unicode="&#x179;" horiz-adv-x="574" d="M159 36h400v-36h-552v31l404 608h-391v36h542v-35zM292 724h-47l94 118h83z" />
<glyph unicode="&#x17a;" horiz-adv-x="574" d="M159 36h400v-36h-552v31l404 608h-391v36h542v-35zM292 724h-47l94 118h83z" />
<glyph unicode="&#x17d;" horiz-adv-x="574" d="M159 36h400v-36h-552v31l404 608h-391v36h542v-35zM321 722h-55l-94 127h46l76 -78l79 78h42z" />
<glyph unicode="&#x17e;" horiz-adv-x="574" d="M159 36h400v-36h-552v31l404 608h-391v36h542v-35zM321 722h-55l-94 127h46l76 -78l79 78h42z" />
<glyph unicode="&#x17b;" horiz-adv-x="574" d="M159 36h400v-36h-552v31l404 608h-391v36h542v-35zM242 772q0 23 16 39.5t39 16.5t39.5 -16.5t16.5 -39.5t-16.5 -39t-39.5 -16t-39 16t-16 39z" />
<glyph unicode="&#x17c;" horiz-adv-x="574" d="M159 36h400v-36h-552v31l404 608h-391v36h542v-35zM242 772q0 23 16 39.5t39 16.5t39.5 -16.5t16.5 -39.5t-16.5 -39t-39.5 -16t-39 16t-16 39z" />
<glyph unicode="&#x18f;" horiz-adv-x="680" d="M525 336q-1 101 -19 162t-46.5 93.5t-64 43t-70.5 10.5q-39 0 -73 -10t-58.5 -34t-37 -63t-7.5 -97h-107q-5 51 11.5 95t52 76.5t89.5 50.5t123 18q158 0 243.5 -92t85.5 -263q0 -84 -23.5 -146.5t-65.5 -104t-101 -61.5t-131 -20q-65 0 -119 16t-92.5 46t-60 74 t-21.5 101v105h492zM336 30q33 0 65.5 10t59 39t44 82t20.5 139h-370v-87q0 -88 44 -135.5t137 -47.5z" />
<glyph unicode="&#x259;" horiz-adv-x="680" d="M525 336q-1 101 -19 162t-46.5 93.5t-64 43t-70.5 10.5q-39 0 -73 -10t-58.5 -34t-37 -63t-7.5 -97h-107q-5 51 11.5 95t52 76.5t89.5 50.5t123 18q158 0 243.5 -92t85.5 -263q0 -84 -23.5 -146.5t-65.5 -104t-101 -61.5t-131 -20q-65 0 -119 16t-92.5 46t-60 74 t-21.5 101v105h492zM336 30q33 0 65.5 10t59 39t44 82t20.5 139h-370v-87q0 -88 44 -135.5t137 -47.5z" />
<glyph unicode="&#xde;" horiz-adv-x="674" d="M70 0v675h115v-121h255q29 0 66 -8t70 -30t56 -59.5t23 -96.5t-23 -99t-57.5 -64.5t-75 -35t-74.5 -10.5h-240v-151h-115zM533 357q0 79 -27.5 120t-80.5 41h-240v-331h239q51 0 80 40t29 130z" />
<glyph unicode="&#xfe;" horiz-adv-x="674" d="M70 0v675h115v-121h255q29 0 66 -8t70 -30t56 -59.5t23 -96.5t-23 -99t-57.5 -64.5t-75 -35t-74.5 -10.5h-240v-151h-115zM533 357q0 79 -27.5 120t-80.5 41h-240v-331h239q51 0 80 40t29 130z" />
<glyph unicode="&#xd0;" horiz-adv-x="727" d="M71 0v318h-58v35h58v322h343q51 0 101 -20.5t90 -61.5t65 -103t25 -146q0 -87 -26 -152t-67 -107.5t-92 -63.5t-101 -21h-338zM186 318v-282h219q24 0 53 7.5t54.5 37.5t43 90t17.5 164q0 94 -15.5 153.5t-40 93t-54.5 45.5t-58 12h-219v-286h160v-35h-160z" />
<glyph unicode="&#xf0;" horiz-adv-x="727" d="M71 0v318h-58v35h58v322h343q51 0 101 -20.5t90 -61.5t65 -103t25 -146q0 -87 -26 -152t-67 -107.5t-92 -63.5t-101 -21h-338zM186 318v-282h219q24 0 53 7.5t54.5 37.5t43 90t17.5 164q0 94 -15.5 153.5t-40 93t-54.5 45.5t-58 12h-219v-286h160v-35h-160z" />
<glyph unicode="&#x132;" horiz-adv-x="845" d="M70 0v675h115v-675h-115zM782 270q0 -49 -12 -98.5t-42.5 -89t-83 -64t-134.5 -24.5q-71 0 -119 18.5t-77.5 50t-42.5 72.5t-13 86q0 14 1 26.5t3 26.5h110q-2 -18 -3.5 -35t-1.5 -33q0 -86 38 -131t115 -45q81 0 113.5 57t32.5 175v413h116v-405z" />
<glyph unicode="&#x133;" horiz-adv-x="845" d="M70 0v675h115v-675h-115zM782 270q0 -49 -12 -98.5t-42.5 -89t-83 -64t-134.5 -24.5q-71 0 -119 18.5t-77.5 50t-42.5 72.5t-13 86q0 14 1 26.5t3 26.5h110q-2 -18 -3.5 -35t-1.5 -33q0 -86 38 -131t115 -45q81 0 113.5 57t32.5 175v413h116v-405z" />
<glyph horiz-adv-x="866" d="M70 0v675h115v-675h-115zM803 270q0 -49 -12 -98.5t-42.5 -89t-83 -64t-134.5 -24.5q-71 0 -119 18.5t-77.5 50t-42.5 72.5t-13 86q0 14 1 26.5t3 26.5h110q-2 -18 -3.5 -35t-1.5 -33q0 -86 38 -131t115 -45q81 0 113.5 57t32.5 175v413h116v-405zM145 724h-47l94 118h83 zM765 724h-47l94 118h83z" />
<glyph unicode="&#x152;" horiz-adv-x="1154" d="M582 0v62q-44 -35 -100 -51.5t-122 -16.5q-70 0 -130 19.5t-103.5 60.5t-68.5 103.5t-25 148.5q0 171 88 263t253 92q126 0 208 -59v53h542v-36h-427v-259q0 -3 0.5 -6.5t0.5 -6.5h402v-36h-403v-295h430v-36h-545zM367 30q39 0 76.5 10.5t67 44.5t48 97.5t18.5 169.5 q0 93 -15.5 150t-43 89t-65 43t-82.5 11q-42 0 -81.5 -11t-69.5 -44.5t-48 -96.5t-18 -168q0 -85 13 -141.5t39 -90.5t66.5 -48.5t94.5 -14.5z" />
<glyph unicode="&#x153;" horiz-adv-x="1154" d="M582 0v62q-44 -35 -100 -51.5t-122 -16.5q-70 0 -130 19.5t-103.5 60.5t-68.5 103.5t-25 148.5q0 171 88 263t253 92q126 0 208 -59v53h542v-36h-427v-259q0 -3 0.5 -6.5t0.5 -6.5h402v-36h-403v-295h430v-36h-545zM367 30q39 0 76.5 10.5t67 44.5t48 97.5t18.5 169.5 q0 93 -15.5 150t-43 89t-65 43t-82.5 11q-42 0 -81.5 -11t-69.5 -44.5t-48 -96.5t-18 -168q0 -85 13 -141.5t39 -90.5t66.5 -48.5t94.5 -14.5z" />
<glyph unicode="&#x1c4;" horiz-adv-x="1298" d="M70 0v675h343q51 0 101 -20.5t90 -61.5t65 -103t25 -146q0 -87 -26 -152t-67 -107.5t-92 -63.5t-101 -21h-338zM185 639v-603h219q24 0 53 7.5t54.5 37.5t43 90t17.5 164q0 94 -15.5 153.5t-40 93t-54.5 45.5t-58 12h-219zM883 36h400v-36h-552v31l404 608h-391v36h542 v-35zM1035 722h-55l-94 127h46l76 -78l79 78h42z" />
<glyph unicode="&#x1c6;" horiz-adv-x="1298" d="M70 0v675h343q51 0 101 -20.5t90 -61.5t65 -103t25 -146q0 -87 -26 -152t-67 -107.5t-92 -63.5t-101 -21h-338zM185 639v-603h219q24 0 53 7.5t54.5 37.5t43 90t17.5 164q0 94 -15.5 153.5t-40 93t-54.5 45.5t-58 12h-219zM883 36h400v-36h-552v31l404 608h-391v36h542 v-35zM1035 722h-55l-94 127h46l76 -78l79 78h42z" />
<glyph unicode="&#x1c7;" horiz-adv-x="1208" d="M1145 270q0 -49 -12 -98.5t-42.5 -89t-83 -64t-134.5 -24.5q-71 0 -119 18.5t-77.5 50t-42.5 72.5t-13 86q0 14 1 26.5t3 26.5h110q-2 -18 -3.5 -35t-1.5 -33q0 -86 38 -131t115 -45q81 0 113.5 57t32.5 175v413h116v-405zM185 675v-639h428v-36h-543v675h115z" />
<glyph unicode="&#x1c9;" horiz-adv-x="1208" d="M1145 270q0 -49 -12 -98.5t-42.5 -89t-83 -64t-134.5 -24.5q-71 0 -119 18.5t-77.5 50t-42.5 72.5t-13 86q0 14 1 26.5t3 26.5h110q-2 -18 -3.5 -35t-1.5 -33q0 -86 38 -131t115 -45q81 0 113.5 57t32.5 175v413h116v-405zM185 675v-639h428v-36h-543v675h115z" />
<glyph unicode="&#x1ca;" horiz-adv-x="1342" d="M610 0l-504 514v-514h-36v675h71l504 -525v525h36v-675h-71zM1279 270q0 -49 -12 -98.5t-42.5 -89t-83 -64t-134.5 -24.5q-71 0 -119 18.5t-77.5 50t-42.5 72.5t-13 86q0 14 1 26.5t3 26.5h110q-2 -18 -3.5 -35t-1.5 -33q0 -86 38 -131t115 -45q81 0 113.5 57t32.5 175 v413h116v-405z" />
<glyph unicode="&#x1cc;" horiz-adv-x="1342" d="M610 0l-504 514v-514h-36v675h71l504 -525v525h36v-675h-71zM1279 270q0 -49 -12 -98.5t-42.5 -89t-83 -64t-134.5 -24.5q-71 0 -119 18.5t-77.5 50t-42.5 72.5t-13 86q0 14 1 26.5t3 26.5h110q-2 -18 -3.5 -35t-1.5 -33q0 -86 38 -131t115 -45q81 0 113.5 57t32.5 175 v413h116v-405z" />
<glyph unicode="&#x1f1;" horiz-adv-x="1284" d="M70 0v675h343q51 0 101 -20.5t90 -61.5t65 -103t25 -146q0 -87 -26 -152t-67 -107.5t-92 -63.5t-101 -21h-338zM185 639v-603h219q24 0 53 7.5t54.5 37.5t43 90t17.5 164q0 94 -15.5 153.5t-40 93t-54.5 45.5t-58 12h-219zM869 36h400v-36h-552v31l404 608h-391v36h542 v-35z" />
<glyph unicode="&#x1f3;" horiz-adv-x="1284" d="M70 0v675h343q51 0 101 -20.5t90 -61.5t65 -103t25 -146q0 -87 -26 -152t-67 -107.5t-92 -63.5t-101 -21h-338zM185 639v-603h219q24 0 53 7.5t54.5 37.5t43 90t17.5 164q0 94 -15.5 153.5t-40 93t-54.5 45.5t-58 12h-219zM869 36h400v-36h-552v31l404 608h-391v36h542 v-35z" />
<glyph unicode="," horiz-adv-x="188" d="M30 53q0 28 18 44t43 16q11 0 23 -4t21.5 -12.5t15.5 -22.5t6 -34q0 -59 -32 -107t-86 -74l-15 25q15 10 29.5 23t25.5 28t17.5 32.5t6.5 35.5q-16 -5 -29.5 -3.5t-23 9t-15 19t-5.5 25.5z" />
<glyph unicode="." horiz-adv-x="185" d="M29 57q0 26 18.5 45t44.5 19t45 -19t19 -45t-19 -44.5t-45 -18.5t-44.5 18.5t-18.5 44.5z" />
<glyph unicode="&#x2026;" horiz-adv-x="639" d="M29 57q0 26 18.5 45t44.5 19t45 -19t19 -45t-19 -44.5t-45 -18.5t-44.5 18.5t-18.5 44.5zM256 57q0 26 18.5 45t44.5 19t45 -19t19 -45t-19 -44.5t-45 -18.5t-44.5 18.5t-18.5 44.5zM483 57q0 26 18.5 45t44.5 19t45 -19t19 -45t-19 -44.5t-45 -18.5t-44.5 18.5 t-18.5 44.5z" />
<glyph unicode=":" horiz-adv-x="235" d="M54 57q0 26 18.5 45t44.5 19t45 -19t19 -45t-19 -44.5t-45 -18.5t-44.5 18.5t-18.5 44.5zM54 437q0 26 18.5 45t44.5 19t45 -19t19 -45t-19 -44.5t-45 -18.5t-44.5 18.5t-18.5 44.5z" />
<glyph unicode=";" horiz-adv-x="244" d="M55 437q0 26 18.5 45t44.5 19t45 -19t19 -45t-19 -44.5t-45 -18.5t-44.5 18.5t-18.5 44.5zM60 53q0 28 18 44t43 16q11 0 23 -4t21.5 -12.5t15.5 -22.5t6 -34q0 -59 -32 -107t-86 -74l-15 25q15 10 29.5 23t25.5 28t17.5 32.5t6.5 35.5q-16 -5 -29.5 -3.5t-23 9t-15 19 t-5.5 25.5z" />
<glyph unicode="?" horiz-adv-x="461" d="M436 516q0 -38 -14 -66.5t-35 -50.5t-46 -40t-46 -35t-35 -34t-14 -37v-32h-36v38q0 39 18.5 68t40 58.5t40 64t18.5 84.5q0 16 -3.5 35.5t-14.5 36t-31 27.5t-52 11q-30 0 -49.5 -10t-31.5 -26t-17 -36.5t-5 -40.5q0 -17 3 -32h-103q-4 43 9.5 77t41.5 57.5t68 35.5 t89 12q54 0 93 -13.5t63.5 -36.5t36.5 -53t12 -62zM168 57q0 26 18.5 45t44.5 19t45 -19t19 -45t-19 -44.5t-45 -18.5t-44.5 18.5t-18.5 44.5z" />
<glyph unicode="&#xbf;" horiz-adv-x="461" d="M25 159q0 38 14 66.5t35 50.5t46 40t46 35t35 33.5t14 37.5v32h36v-38q0 -39 -18.5 -68t-40 -58.5t-40 -64.5t-18.5 -84q0 -16 3.5 -35.5t14.5 -36t31 -27.5t52 -11q30 0 49.5 10t31.5 26t17 36.5t5 40.5q0 17 -3 32h103q4 -44 -9.5 -77.5t-41.5 -57t-68 -35.5t-89 -12 q-54 0 -93 13.5t-63.5 36.5t-36.5 53t-12 62zM293 618q0 -26 -18.5 -45t-44.5 -19t-45 19t-19 45t19 44.5t45 18.5t44.5 -18.5t18.5 -44.5z" />
<glyph unicode="!" horiz-adv-x="224" d="M98 225q-20 113 -27.5 186.5t-7.5 121.5q0 27 1 53.5t5.5 47.5t14 34t27.5 13q19 0 29.5 -12.5t15.5 -33t6 -46t1 -51.5q0 -49 -7.5 -123.5t-28.5 -189.5h-29zM48 57q0 26 18.5 45t44.5 19t45 -19t19 -45t-19 -44.5t-45 -18.5t-44.5 18.5t-18.5 44.5z" />
<glyph unicode="&#xa1;" horiz-adv-x="223" d="M126 450q21 -115 28.5 -189.5t7.5 -123.5q0 -26 -1 -52t-6 -46t-15.5 -32.5t-29.5 -12.5q-18 0 -27.5 13t-14 34t-5.5 47.5t-1 53.5q0 48 7.5 121.5t27.5 186.5h29zM47 618q0 26 18.5 44.5t44.5 18.5t45 -18.5t19 -44.5t-19 -45t-45 -19t-44.5 19t-18.5 45z" />
<glyph unicode="-" horiz-adv-x="433" d="M53 299v100h327v-100h-327z" />
<glyph unicode="&#x2013;" horiz-adv-x="664" d="M40 319v53h584v-53h-584z" />
<glyph unicode="&#x2014;" horiz-adv-x="1189" d="M40 321v53h1109v-53h-1109z" />
<glyph unicode="_" horiz-adv-x="540" d="M0 -138v53h540v-53h-540z" />
<glyph unicode="@" horiz-adv-x="855" d="M434 412q0 42 -6 64.5t-22 22.5q-15 0 -23 -19.5t-8 -48.5q0 -20 4 -41.5t13 -41.5h-99q-9 30 -9 58q0 54 32.5 89.5t94.5 35.5q34 0 59 -11.5t41 -31.5t23.5 -47t7.5 -58v-279q0 -35 7.5 -52.5t32.5 -17.5q21 0 56 13.5t68.5 45.5t58 84.5t24.5 131.5t-25 142.5 t-71.5 108.5t-112.5 69t-149 24q-95 0 -164 -30t-115 -82.5t-68 -123t-22 -150.5q0 -102 32 -174.5t84 -119t117.5 -68.5t132.5 -22q26 0 68 4t84 16v-28q-37 -10 -81.5 -15t-78.5 -5q-61 0 -129.5 19.5t-126 66.5t-95.5 126t-38 198q0 111 34 190t90.5 129.5t129.5 73.5 t151 23q82 0 152.5 -24t122.5 -71.5t82 -117t30 -159.5q0 -91 -29 -151.5t-71.5 -97t-90.5 -51.5t-85 -15q-42 0 -70 18.5t-39 60.5q-4 -14 -10.5 -28t-17 -25t-25 -18.5t-33.5 -7.5q-24 0 -40.5 11.5t-27 31t-15 44.5t-4.5 52q0 45 12 75t33 48t48.5 25t59.5 7h16v124z M431 256q-32 0 -42.5 -29t-10.5 -79q0 -16 1 -32t4 -28.5t8.5 -20.5t14.5 -8q14 0 21 20t7 52v125h-3z" />
<glyph unicode="&#x26;" horiz-adv-x="535" d="M196 -6q-39 0 -70 12.5t-53 34t-33.5 49.5t-11.5 60q0 96 90 160q-17 45 -27 90.5t-10 90.5q0 49 13 85t36 59.5t54.5 34.5t69.5 11q72 0 109 -36.5t37 -87.5q0 -35 -13 -59t-30 -41l-13 8q11 22 15.5 46.5t4.5 42.5q0 42 -25 67.5t-64 25.5q-24 0 -40 -10t-26 -27.5 t-14 -41t-4 -50.5q0 -66 19.5 -126t49.5 -111t65.5 -91t68.5 -64q13 20 18.5 43.5t5.5 44.5q0 34 -11 60t-28.5 44t-38.5 28t-42 11h-6v31h213v-31h-64q44 -51 44 -103q0 -37 -20.5 -75.5t-53.5 -64.5q35 -22 55 -22q11 0 15.5 6.5t8.5 19.5l25 -7q0 -22 -8.5 -43 t-22.5 -37.5t-32.5 -26.5t-38.5 -10q-41 0 -92 37q-25 -17 -56 -27t-69 -10zM127 288q-26 -22 -44.5 -54.5t-18.5 -77.5q0 -26 7.5 -49.5t24 -41t42.5 -28t62 -10.5q32 0 56.5 6t42.5 16q-48 40 -94 102.5t-78 136.5z" />
<glyph unicode="/" horiz-adv-x="474" d="M55 0h-38l404 675h38z" />
<glyph unicode="\" horiz-adv-x="474" d="M15 675h38l404 -675h-38z" />
<glyph unicode="|" horiz-adv-x="178" d="M71 0v675h36v-675h-36z" />
<glyph unicode="(" horiz-adv-x="205" d="M190 702q-30 -42 -52 -93.5t-37 -107t-22.5 -111.5t-7.5 -107q0 -50 7.5 -104.5t22 -108.5t36.5 -105.5t52 -94.5h-39q-27 41 -48.5 90t-36.5 103t-22.5 111t-7.5 113q0 115 29.5 221t88.5 194h37v0z" />
<glyph unicode=")" horiz-adv-x="205" d="M15 -130q30 42 52 93.5t37 107t22.5 111.5t7.5 107q0 50 -7.5 104.5t-22 108.5t-36.5 105.5t-52 94.5h39q27 -41 48.5 -90t36.5 -103t22.5 -111t7.5 -113q0 -115 -29.5 -221t-88.5 -194h-37v0z" />
<glyph unicode="[" horiz-adv-x="277" d="M71 -98v836h197v-32h-160v-773h160v-31h-197z" />
<glyph unicode="]" horiz-adv-x="277" d="M9 -98v31h160v773h-160v32h197v-836h-197z" />
<glyph unicode="{" horiz-adv-x="300" d="M125 -5q0 -22 11 -41.5t40 -19.5h115v-32h-103q-55 0 -77.5 28.5t-22.5 82.5v207q0 13 -3.5 27t-11.5 25.5t-21 19t-32 7.5v32q38 1 53 25t15 52v219q0 54 22.5 82.5t77.5 28.5h103v-32h-115q-29 0 -40 -19.5t-11 -41.5v-236q0 -34 -19 -59.5t-56 -33.5q43 -14 59 -39 t16 -57v-225z" />
<glyph unicode="}" horiz-adv-x="300" d="M175 220q0 32 16 57t58 39q-36 8 -55 33.5t-19 59.5v236q0 22 -11 41.5t-40 19.5h-115v32h103q55 0 77.5 -28.5t22.5 -82.5v-219q0 -28 15 -52t53 -25v-32q-19 0 -32 -7.5t-21 -19t-11.5 -25.5t-3.5 -27v-207q0 -54 -22.5 -82.5t-77.5 -28.5h-103v32h115q29 0 40 19.5 t11 41.5v225z" />
<glyph unicode="^" horiz-adv-x="468" d="M17 375l186 300h41l194 -300h-36l-179 274l-170 -274h-36z" />
<glyph unicode="~" horiz-adv-x="544" d="M498 345q-19 -20 -44.5 -28.5t-52.5 -8.5q-25 0 -57 5.5t-65.5 12.5t-67 12.5t-61.5 5.5q-32 0 -59.5 -10t-45.5 -34v35q18 23 48 33.5t59 10.5q23 0 55.5 -5.5t68 -12.5t69 -12.5t58.5 -5.5q29 0 54 9t42 28z" />
<glyph unicode="&#xb0;" horiz-adv-x="407" d="M379 522q0 -33 -11.5 -61.5t-33.5 -49.5t-55.5 -33t-76.5 -12q-44 0 -76.5 12t-54 32.5t-32.5 49t-11 61.5q0 31 10 60t31.5 51.5t54.5 35.5t79 13t79 -13t54.5 -35t32 -51t10.5 -60zM292 520q0 36 -7 60t-19 38.5t-28 20.5t-35 6q-15 0 -30.5 -4.5t-28 -17.5 t-20.5 -37.5t-8 -63.5t8 -62t20.5 -36t28.5 -17t32 -4t32 4t28 17t19.5 35.5t7.5 60.5z" />
<glyph unicode="&#xa7;" horiz-adv-x="452" d="M367 26q0 -31 -8.5 -62t-26.5 -56t-47.5 -41t-71.5 -16q-66 0 -105.5 39.5t-39.5 108.5q0 30 9 66h81q-12 -42 -12 -76q0 -48 19 -75t48 -27q18 0 29.5 10t18 25t9.5 33.5t3 35.5q0 27 -6.5 46t-22 37.5t-41 41t-64.5 56.5q-17 15 -37 33t-37 38.5t-28.5 41.5t-11.5 41 q0 26 22.5 51.5t69.5 39.5q-16 22 -25 47t-9 55q0 25 7.5 53.5t24.5 52.5t44 40t66 16q65 0 101 -42.5t36 -108.5q0 -32 -9 -66h-81q12 40 12 76q0 45 -16.5 75t-44.5 30q-14 0 -23.5 -8t-15.5 -20.5t-8.5 -27.5t-2.5 -29q0 -33 12.5 -59t33.5 -48t49 -43.5t59 -45.5 q46 -35 73 -65.5t27 -69.5q0 -42 -27.5 -67.5t-65.5 -30.5q16 -22 24.5 -47t8.5 -58zM249 303q-32 23 -63.5 46.5t-55.5 52.5q-18 -18 -18 -39q0 -29 31 -60.5t74 -65.5q32 -26 58.5 -47.5t45.5 -43.5q31 15 31 39q0 23 -28.5 53t-74.5 65z" />
<glyph unicode="&#x2022;" horiz-adv-x="360" d="M309 296q0 -27 -10 -50.5t-27.5 -41t-41 -27.5t-50.5 -10t-50.5 10t-41 27.5t-27.5 41t-10 50.5t10 50.5t27.5 41t41 27.5t50.5 10t50.5 -10t41 -27.5t27.5 -41t10 -50.5z" />
<glyph unicode="&#xb6;" horiz-adv-x="560" d="M444 0v639h-50v-639h-109v272h-6q-47 0 -93 9t-82 31.5t-58.5 60t-22.5 95.5q0 59 24 98.5t66.5 63.5t100 34.5t125.5 10.5h177v-36h-36v-639h-36z" />
<glyph unicode="#" horiz-adv-x="439" d="M329 472h86v-36h-90l-19 -197h89v-36h-92l-19 -203h-36l19 203h-124l-19 -203h-36l19 203h-83v36h86l19 197h-85v36h89l19 203h36l-19 -203h124l19 203h36zM146 239h124l19 197h-124z" />
<glyph unicode="%" horiz-adv-x="595" d="M175 0h-36l286 675h36zM299 521q0 -33 -7.5 -61.5t-24 -49t-43 -32.5t-63.5 -12t-63.5 12t-43 32.5t-24 49t-7.5 61.5q0 31 7 60t23.5 51.5t43 35.5t64.5 13t64.5 -13t43 -35.5t23.5 -51.5t7 -60zM212 518q0 37 -4 61.5t-10.5 39t-16 20.5t-21.5 6q-9 0 -18 -4.5 t-16 -17.5t-11 -37.5t-4 -63.5t4 -62t11 -36t16 -17t20 -4t20 4t16 16.5t10.5 35t3.5 59.5zM572 148q0 -33 -7.5 -61.5t-24 -49t-43 -32.5t-63.5 -12t-63.5 12t-43 32.5t-24 49t-7.5 61.5q0 31 7 60t23.5 51.5t43 35.5t64.5 13t64.5 -13t43 -35.5t23.5 -51.5t7 -60zM485 145 q0 37 -4 61.5t-10.5 39t-16 20.5t-21.5 6q-9 0 -18 -4.5t-16 -17.5t-11 -37.5t-4 -63.5t4 -62t11 -36t16 -17t20 -4t20 4t16 16.5t10.5 35t3.5 59.5z" />
<glyph unicode="&#x2030;" horiz-adv-x="894" d="M175 0h-36l286 675h36zM299 521q0 -33 -7.5 -61.5t-24 -49t-43 -32.5t-63.5 -12t-63.5 12t-43 32.5t-24 49t-7.5 61.5q0 31 7 60t23.5 51.5t43 35.5t64.5 13t64.5 -13t43 -35.5t23.5 -51.5t7 -60zM212 518q0 37 -4 61.5t-10.5 39t-16 20.5t-21.5 6q-9 0 -18 -4.5 t-16 -17.5t-11 -37.5t-4 -63.5t4 -62t11 -36t16 -17t20 -4t20 4t16 16.5t10.5 35t3.5 59.5zM572 148q0 -33 -7.5 -61.5t-24 -49t-43 -32.5t-63.5 -12t-63.5 12t-43 32.5t-24 49t-7.5 61.5q0 31 7 60t23.5 51.5t43 35.5t64.5 13t64.5 -13t43 -35.5t23.5 -51.5t7 -60zM485 145 q0 37 -4 61.5t-10.5 39t-16 20.5t-21.5 6q-9 0 -18 -4.5t-16 -17.5t-11 -37.5t-4 -63.5t4 -62t11 -36t16 -17t20 -4t20 4t16 16.5t10.5 35t3.5 59.5zM872 148q0 -33 -7.5 -61.5t-24 -49t-43 -32.5t-63.5 -12t-63.5 12t-43 32.5t-24 49t-7.5 61.5q0 31 7 60t23.5 51.5 t43 35.5t64.5 13t64.5 -13t43 -35.5t23.5 -51.5t7 -60zM785 145q0 37 -4 61.5t-10.5 39t-16 20.5t-21.5 6q-9 0 -18 -4.5t-16 -17.5t-11 -37.5t-4 -63.5t4 -62t11 -36t16 -17t20 -4t20 4t16 16.5t10.5 35t3.5 59.5z" />
<glyph unicode="&#xaa;" horiz-adv-x="306" d="M166 689q0 30 -4.5 47t-15.5 17t-17 -14.5t-6 -36.5q0 -30 12 -60h-71q-7 21 -7 44q0 39 23.5 64.5t68.5 25.5q51 0 73.5 -31t22.5 -77v-280h-71l-7 45q-7 -18 -21 -33.5t-39 -15.5q-17 0 -29.5 8.5t-20 22.5t-11 32t-3.5 38q0 33 9 55t24 34.5t35.5 18t43.5 5.5h11v91z M58 343h199v-31h-199v31zM164 575q-23 0 -31 -21t-8 -58q0 -12 0.5 -23.5t3 -21t6.5 -15.5t11 -6q9 0 14 12t6 32v101h-2z" />
<glyph unicode="&#xba;" horiz-adv-x="312" d="M59 343h199v-31h-199v31zM155 407q7 0 11 5.5t6.5 26t3 59.5t0.5 106q0 47 -0.5 76.5t-2.5 45.5t-6.5 21.5t-11.5 5.5t-11.5 -5t-6.5 -23t-3 -52t-1 -92t1 -92.5t3 -52.5t6.5 -23.5t11.5 -5.5zM155 384q-25 0 -44.5 9t-32.5 31t-20 60t-7 95q0 56 6.5 93.5t19.5 60.5 t33 33t46 10q25 0 44 -9t32 -31.5t19.5 -60.5t6.5 -95q0 -56 -6.5 -93.5t-19 -60.5t-32 -32.5t-45.5 -9.5z" />
<glyph unicode="&#x2020;" horiz-adv-x="503" d="M26 451h204v224h37v-224h210v-35h-210v-546h-37v546h-204v35z" />
<glyph unicode="&#x2021;" horiz-adv-x="503" d="M26 451h198v224h37v-224h216v-35h-216v-285h216v-35h-216v-226h-37v226h-198v35h198v285h-198v35z" />
<glyph unicode="'" horiz-adv-x="134" d="M49 435v240h36v-240h-36z" />
<glyph unicode="&#x22;" horiz-adv-x="352" d="M49 435v240h36v-240h-36zM267 435v240h36v-240h-36z" />
<glyph unicode="&#x201c;" horiz-adv-x="387" d="M158 489q0 -28 -18 -44t-43 -16q-11 0 -23 4t-21.5 12.5t-15.5 22.5t-6 34q0 59 32 107t86 74l15 -25q-15 -10 -29.5 -23t-25.5 -28t-17.5 -32.5t-6.5 -35.5q16 5 29.5 3.5t23 -9t15 -19t5.5 -25.5zM349 489q0 -28 -18 -44t-43 -16q-11 0 -23 4t-21.5 12.5t-15.5 22.5 t-6 34q0 59 32 107t86 74l15 -25q-15 -10 -29.5 -23t-25.5 -28t-17.5 -32.5t-6.5 -35.5q16 5 29.5 3.5t23 -9t15 -19t5.5 -25.5z" />
<glyph unicode="&#x201d;" horiz-adv-x="387" d="M43 621q0 28 18 44t43 16q11 0 23 -4t21.5 -12.5t15.5 -22.5t6 -34q0 -59 -32 -107t-86 -74l-15 25q15 10 29.5 23t25.5 28t17.5 32.5t6.5 35.5q-16 -5 -29.5 -3.5t-23 9t-15 19t-5.5 25.5zM234 621q0 28 18 44t43 16q11 0 23 -4t21.5 -12.5t15.5 -22.5t6 -34 q0 -59 -32 -107t-86 -74l-15 25q15 10 29.5 23t25.5 28t17.5 32.5t6.5 35.5q-16 -5 -29.5 -3.5t-23 9t-15 19t-5.5 25.5z" />
<glyph unicode="&#x2018;" horiz-adv-x="196" d="M158 489q0 -28 -18 -44t-43 -16q-11 0 -23 4t-21.5 12.5t-15.5 22.5t-6 34q0 59 32 107t86 74l15 -25q-15 -10 -29.5 -23t-25.5 -28t-17.5 -32.5t-6.5 -35.5q16 5 29.5 3.5t23 -9t15 -19t5.5 -25.5z" />
<glyph unicode="&#x2019;" horiz-adv-x="196" d="M43 621q0 28 18 44t43 16q11 0 23 -4t21.5 -12.5t15.5 -22.5t6 -34q0 -59 -32 -107t-86 -74l-15 25q15 10 29.5 23t25.5 28t17.5 32.5t6.5 35.5q-16 -5 -29.5 -3.5t-23 9t-15 19t-5.5 25.5z" />
<glyph unicode="&#x201a;" horiz-adv-x="188" d="M30 53q0 28 18 44t43 16q11 0 23 -4t21.5 -12.5t15.5 -22.5t6 -34q0 -59 -32 -107t-86 -74l-15 25q15 10 29.5 23t25.5 28t17.5 32.5t6.5 35.5q-16 -5 -29.5 -3.5t-23 9t-15 19t-5.5 25.5z" />
<glyph unicode="&#x201e;" horiz-adv-x="381" d="M30 53q0 28 18 44t43 16q11 0 23 -4t21.5 -12.5t15.5 -22.5t6 -34q0 -59 -32 -107t-86 -74l-15 25q15 10 29.5 23t25.5 28t17.5 32.5t6.5 35.5q-16 -5 -29.5 -3.5t-23 9t-15 19t-5.5 25.5zM223 53q0 28 18 44t43 16q11 0 23 -4t21.5 -12.5t15.5 -22.5t6 -34 q0 -59 -32 -107t-86 -74l-15 25q15 10 29.5 23t25.5 28t17.5 32.5t6.5 35.5q-16 -5 -29.5 -3.5t-23 9t-15 19t-5.5 25.5z" />
<glyph unicode="&#x2039;" horiz-adv-x="254" d="M185 103l-152 187v36l151 200l19 -13l-96 -203l96 -192z" />
<glyph unicode="&#x203a;" horiz-adv-x="253" d="M68 530l152 -187v-36l-151 -200l-19 13l96 203l-96 192z" />
<glyph unicode="&#xab;" horiz-adv-x="449" d="M185 103l-152 187v36l151 200l19 -13l-96 -203l96 -192zM380 103l-152 187v36l151 200l19 -13l-96 -203l96 -192z" />
<glyph unicode="&#xbb;" horiz-adv-x="448" d="M50 118l96 192l-96 203l19 13l151 -200v-36l-152 -187zM263 528l152 -187v-36l-151 -200l-19 13l96 203l-96 192z" />
<glyph unicode="*" horiz-adv-x="411" d="M40 422l137 80l-133 79l19 28l129 -76v141h36v-142l126 74l20 -29l-129 -75l130 -76l-18 -29l-129 76v-139h-36v137l-132 -77z" />
<glyph unicode="&#xb7;" horiz-adv-x="203" d="M38 309q0 26 18.5 45t44.5 19t45 -19t19 -45t-19 -44.5t-45 -18.5t-44.5 18.5t-18.5 44.5z" />
<glyph unicode="&#xa6;" horiz-adv-x="170" d="M67 414v261h36v-261h-36zM67 0v261h36v-261h-36z" />
<glyph unicode="&#x2212;" horiz-adv-x="443" d="M34 365h375v-35h-375v35z" />
<glyph unicode="+" horiz-adv-x="487" d="M24 365h203v173h35v-173h201v-35h-201v-186h-35v186h-203v35z" />
<glyph unicode="&#xd7;" horiz-adv-x="422" d="M42 202l144 146l-147 145l25 24l146 -144l142 145l25 -25l-142 -145l150 -146l-25 -25l-149 146l-144 -146z" />
<glyph unicode="&#x3c;" horiz-adv-x="317" d="M271 76l-247 261v16l247 274v-53l-205 -227l205 -217v-54z" />
<glyph unicode="=" horiz-adv-x="509" d="M54 257h401v-35h-401v35zM54 464h401v-35h-401v35z" />
<glyph unicode="&#x3e;" horiz-adv-x="317" d="M46 130l205 217l-205 227v53l247 -274v-16l-247 -261v54z" />
<glyph unicode="&#x221e;" horiz-adv-x="528" d="M139 231q15 0 30 10t29 25.5t26.5 35.5t23.5 40q-34 66 -59 94.5t-49 28.5q-25 0 -47 -29.5t-22 -89.5t21.5 -87.5t46.5 -27.5zM386 233q28 0 49.5 28.5t21.5 89.5q0 33 -7 55t-17 35t-21.5 18.5t-21.5 5.5q-16 0 -31 -11.5t-29 -29.5t-26 -40t-22 -43q29 -56 53 -82 t51 -26zM383 201q-36 0 -62.5 29t-55.5 87q-29 -54 -58 -86t-67 -32q-18 0 -36.5 8t-34 26t-25 46t-9.5 68q0 42 10.5 70.5t26 46t34.5 25.5t36 8q38 0 66 -34t55 -89q28 54 57 88.5t68 34.5q18 0 37 -8.5t34 -26t24.5 -45t9.5 -65.5t-9.5 -66t-25 -47t-35 -28.5t-40.5 -9.5 z" />
<glyph unicode="&#xb1;" horiz-adv-x="531" d="M46 403h203v182h35v-182h201v-35h-201v-186h-35v186h-203v35zM46 99h439v-35h-439v35z" />
<glyph unicode="&#x2264;" horiz-adv-x="326" d="M288 106l-262 247v18l262 267v-49l-219 -224l219 -208v-51zM27 54h263v-35h-263v35z" />
<glyph unicode="&#x2260;" horiz-adv-x="509" d="M332 465h123v-35h-141l-90 -173h231v-35h-249l-51 -99h-38l51 99h-114v35h132l90 173h-222v35h240l54 103h37z" />
<glyph unicode="&#x2265;" horiz-adv-x="326" d="M38 157l219 207l-219 225v49l262 -267v-18l-262 -247v51zM299 19h-263v35h263v-35z" />
<glyph unicode="&#xf7;" horiz-adv-x="427" d="M26 364h375v-35h-375v35zM161 227q0 23 16.5 40t39.5 17q24 0 41 -17t17 -40q0 -24 -17 -40.5t-41 -16.5q-23 0 -39.5 16.5t-16.5 40.5zM161 469q0 23 16.5 40t39.5 17q24 0 41 -17t17 -40q0 -24 -17 -40.5t-41 -16.5q-23 0 -39.5 16.5t-16.5 40.5z" />
<glyph unicode="&#xac;" horiz-adv-x="514" d="M38 364h422v-221h-35v186h-387v35z" />
<glyph unicode="&#x2248;" horiz-adv-x="562" d="M507 431q-19 -20 -44.5 -28.5t-52.5 -8.5q-25 0 -57 5.5t-65.5 12.5t-67 12.5t-61.5 5.5q-32 0 -59.5 -9.5t-45.5 -34.5v35q18 23 48 33.5t59 10.5q23 0 55.5 -5.5t68 -12.5t69 -12.5t58.5 -5.5q29 0 54 9t42 28zM507 259q-19 -20 -44.5 -28.5t-52.5 -8.5q-25 0 -57 5.5 t-65.5 12.5t-67 12.5t-61.5 5.5q-32 0 -59.5 -10t-45.5 -34v35q18 23 48 33.5t59 10.5q23 0 55.5 -5.5t68 -12.5t69 -12.5t58.5 -5.5q29 0 54 9t42 28z" />
<glyph unicode="&#x221a;" horiz-adv-x="414" d="M2 493h36l159 -438l182 647h35l-199 -702h-36z" />
<glyph unicode="&#x2202;" horiz-adv-x="355" d="M35 250q0 131 35 206t111 76q-11 39 -27.5 72.5t-42.5 64.5l11 14q42 -32 78 -73.5t62.5 -96t41.5 -122t15 -151.5q0 -128 -36 -187t-106 -59t-106 60.5t-36 195.5zM206 229q0 83 -3 149t-14 120q-8 2 -10 2q-11 0 -17 -9t-9 -33.5t-4 -67t-1 -109.5q0 -78 1 -127.5 t4 -78t8.5 -39t14.5 -10.5t15 10.5t9.5 34.5t4.5 62.5t1 95.5z" />
<glyph unicode="&#x2211;" horiz-adv-x="404" d="M35 33l137 302l-137 306v34h345v-37h-238l126 -278v-25l-129 -299h241v-36h-345v33z" />
<glyph unicode="&#x220f;" horiz-adv-x="600" d="M71 0v675h458v-675h-109v639h-240v-639h-109z" />
<glyph unicode="&#x25ca;" horiz-adv-x="497" d="M22 325l209 350h35l211 -348l-209 -327h-37zM439 326l-192 315l-186 -316l188 -295z" />
<glyph unicode="&#x222b;" horiz-adv-x="302" d="M-5 -93h55q17 0 27 14t15 38t6.5 57t1.5 71v380q0 104 40 156t100 52h68v-36h-71q-14 0 -21.5 -14t-11.5 -38t-5 -57t-1 -72v-379q0 -103 -38.5 -155.5t-101.5 -52.5h-63v36z" />
<glyph unicode="&#xb5;" horiz-adv-x="408" d="M232 58q-7 -19 -20 -36t-36 -24v-142h-108v669h108v-412q1 -23 5.5 -38.5t20.5 -15.5q17 0 23.5 20.5t6.5 51.5v394h108v-525h-108v58z" />
<glyph unicode="&#x3c0;" horiz-adv-x="493" d="M72 0v493h-40v32h429v-32h-40v-493h-109v493h-132v-493h-108z" />
<glyph unicode="&#x2206;" horiz-adv-x="674" d="M295 675h92l269 -675h-638zM75 38h445l-217 541z" />
<glyph unicode="&#x394;" horiz-adv-x="632" d="M273 675h92l269 -675h-638zM53 38h445l-217 541z" />
<glyph unicode="&#x3b4;" horiz-adv-x="632" d="M273 675h92l269 -675h-638zM53 38h445l-217 541z" />
<glyph unicode="&#x3a3;" horiz-adv-x="388" d="M30 33l137 302l-137 306v34h345v-37h-238l126 -278v-25l-129 -299h241v-36h-345v33z" />
<glyph unicode="&#x3c3;" horiz-adv-x="388" d="M30 33l137 302l-137 306v34h345v-37h-238l126 -278v-25l-129 -299h241v-36h-345v33z" />
<glyph unicode="&#x3c9;" horiz-adv-x="390" d="M37 79h116v19q-26 15 -46 38t-34 56.5t-21.5 79.5t-7.5 107q0 64 9 119t28 95.5t49 64t73 23.5q39 0 66.5 -20.5t44 -58.5t24 -92.5t7.5 -123.5q0 -64 -6 -108.5t-19 -76.5t-33.5 -56t-48.5 -48v-18h115v-79h-139v103q13 14 20.5 38.5t11 53t4 58t0.5 54.5q0 69 -2 130.5 t-7.5 107.5t-15.5 73t-26 27t-27.5 -25.5t-18.5 -67.5t-10 -95.5t-3 -110.5q0 -32 1.5 -65.5t5 -65.5t11 -61t19.5 -51v-103h-140v79z" />
<glyph unicode="&#x2126;" horiz-adv-x="390" d="M37 79h116v19q-26 15 -46 38t-34 56.5t-21.5 79.5t-7.5 107q0 64 9 119t28 95.5t49 64t73 23.5q39 0 66.5 -20.5t44 -58.5t24 -92.5t7.5 -123.5q0 -64 -6 -108.5t-19 -76.5t-33.5 -56t-48.5 -48v-18h115v-79h-139v103q13 14 20.5 38.5t11 53t4 58t0.5 54.5q0 69 -2 130.5 t-7.5 107.5t-15.5 73t-26 27t-27.5 -25.5t-18.5 -67.5t-10 -95.5t-3 -110.5q0 -32 1.5 -65.5t5 -65.5t11 -61t19.5 -51v-103h-140v79z" />
<glyph unicode="&#xb4;" d="M116 575h-41l34 137h86z" />
<glyph unicode="`" d="M65 712h86l34 -137h-41z" />
<glyph unicode="&#x2c6;" horiz-adv-x="265" d="M98 722h55l81 -147h-46l-63 82l-67 -82h-42z" />
<glyph unicode="&#xa8;" d="M5 650q0 22 15 37t37 15t37 -15t15 -37t-15 -37t-37 -15t-37 15t-15 37zM127 650q0 22 15 37t37 15t37 -15t15 -37t-15 -37t-37 -15t-37 15t-15 37z" />
<glyph unicode="&#x2dc;" horiz-adv-x="259" d="M243 709q0 -101 -68 -101q-15 0 -30 4t-29.5 9t-29 9t-28.5 4q-12 0 -24.5 -6t-16.5 -27h-16q0 53 21 77t49 24q13 0 24.5 -4t24 -8.5t26.5 -8.5t32 -4q14 0 29.5 5.5t18.5 26.5h17v0z" />
<glyph unicode="&#xaf;" d="M21 618v56h202v-56h-202z" />
<glyph unicode="&#x2d8;" d="M228 712q0 -37 -8 -61.5t-22.5 -38.5t-34.5 -20t-44 -6q-25 0 -45 6t-33.5 20.5t-21 39t-7.5 60.5h17q0 -18 9 -29.5t22 -18t28.5 -9t29.5 -2.5q15 0 31.5 2.5t30 9.5t22.5 18t9 29h17v0z" />
<glyph unicode="&#x2d9;" d="M76 643q0 23 15 38t37 15q23 0 38 -15t15 -38q0 -22 -15 -37t-38 -15q-22 0 -37 15t-15 37z" />
<glyph unicode="&#x2da;" d="M208 669q0 -48 -24.5 -72t-64.5 -24q-41 0 -64 24.5t-23 70.5q0 49 25 73.5t63 24.5q39 0 63.5 -24.5t24.5 -72.5zM155 670q0 45 -9.5 62t-25.5 17t-25 -17.5t-9 -61.5q0 -80 33 -80q16 0 26 18.5t10 61.5z" />
<glyph unicode="&#xb8;" d="M200 -140q0 -26 -9 -43.5t-23 -28t-33 -15t-38 -4.5q-48 0 -77 23v22q8 -10 27 -17t36 -7q15 0 24.5 6.5t14.5 16t6.5 21.5t1.5 23t-2 25.5t-9 27t-20.5 21.5t-36.5 9h-18l10 77h71l-40 -60q54 0 84.5 -24.5t30.5 -72.5z" />
<glyph unicode="&#x2dd;" d="M176 575h-41l34 137h86zM73 575h-41l34 137h86z" />
<glyph unicode="&#x2db;" d="M195 -189q-11 -6 -30 -10t-36 -4q-34 0 -59.5 20t-25.5 62q0 26 9.5 47t25 36.5t36.5 27t45 19.5l27 -3q-40 -21 -56.5 -55.5t-16.5 -72.5q0 -33 11 -45t29 -12q8 0 19 2t22 8v-20v0z" />
<glyph unicode="&#x2c7;" d="M150 575h-55l-83 147h46l65 -83l65 83h42z" />
<glyph d="M114 724h-47l94 118h83z" />
<glyph horiz-adv-x="279" d="M258 840q0 -37 -10 -61.5t-26.5 -38.5t-38.5 -20t-46 -6q-25 0 -47 6t-38 20.5t-25.5 39t-9.5 60.5h17q0 -18 11 -29.5t26.5 -18t33 -9t31.5 -2.5q15 0 33.5 2.5t34 9.5t26.5 18t11 29h17v0z" />
<glyph horiz-adv-x="261" d="M153 722h-55l-94 127h46l76 -78l79 78h42z" />
<glyph horiz-adv-x="268" d="M111 849h55l95 -127h-46l-77 80l-78 -80h-42z" />
<glyph horiz-adv-x="294" d="M12 777q0 22 15 37t37 15t37 -15t15 -37t-15 -37t-37 -15t-37 15t-15 37zM172 777q0 22 15 37t37 15t37 -15t15 -37t-15 -37t-37 -15t-37 15t-15 37z" />
<glyph d="M71 772q0 23 16 39.5t39 16.5t39.5 -16.5t16.5 -39.5t-16.5 -39t-39.5 -16t-39 16t-16 39z" />
<glyph horiz-adv-x="362" d="M94 724h-47l94 118h83zM214 724h-47l94 118h83z" />
<glyph d="M16 842h83l94 -118h-47z" />
<glyph horiz-adv-x="337" d="M21 736v56h290v-56h-290z" />
<glyph horiz-adv-x="296" d="M288 836q0 -101 -68 -101q-15 0 -37 4t-45 9t-44.5 9t-35.5 4q-12 0 -24.5 -6t-16.5 -27h-16q0 53 21 77t49 24q13 0 31.5 -4t39.5 -8.5t42 -8.5t39 -4q14 0 29.5 5.5t18.5 26.5h17v0z" />
<glyph d="M123 -244h-28l-1 183h78z" />
<glyph horiz-adv-x="278" d="M252 801q0 -24 -9.5 -42.5t-25 -30.5t-36.5 -18t-43 -6q-47 0 -79.5 24t-32.5 72t32.5 72.5t80.5 24.5t80.5 -25t32.5 -71zM199 802q0 44 -18 61t-42 17q-26 0 -42.5 -18t-16.5 -60t18 -61.5t42 -19.5q23 0 41 18.5t18 62.5z" />
<glyph unicode="&#x2122;" horiz-adv-x="606" d="M465 182v317l-68 -317h-59l-72 315v-315h-26v493h59l91 -395l85 395h66v-493h-76zM23 675h200v-26h-59v-467h-79v467h-62v26z" />
<glyph unicode="&#x2120;" horiz-adv-x="652" d="M513 182v317l-68 -317h-59l-72 315v-315h-26v493h59l91 -395l85 395h66v-493h-76zM253 312q0 -26 -6 -50.5t-19.5 -43t-34.5 -29.5t-52 -11q-51 0 -76 32.5t-25 90.5q0 8 0.5 16.5t1.5 16.5h73q-1 -12 -1.5 -23t-0.5 -21q0 -42 8.5 -64t25.5 -22q9 0 14.5 6.5t8.5 17.5 t4 25t1 28q0 38 -8 64.5t-37 52.5q-11 11 -26 23t-28.5 29.5t-23 41.5t-9.5 58q0 24 5.5 47t18 41.5t32 29.5t47.5 11q51 0 73 -35t22 -92v-15.5t-1 -15.5h-74q2 8 2.5 21.5t0.5 28.5t-1.5 29.5t-4.5 26t-9 19t-15 7.5q-10 0 -18 -12.5t-8 -53.5q0 -31 5.5 -50t15.5 -32.5 t23.5 -24.5t29.5 -25q12 -11 23.5 -24t21 -30t15.5 -39t6 -50z" />
<glyph unicode="&#xae;" horiz-adv-x="623" d="M311 184q-53 0 -99 19.5t-79.5 53t-52.5 79t-19 98.5q0 52 19 98t52.5 80t79.5 53.5t100 19.5t100 -20t79.5 -54t52 -79.5t18.5 -97.5t-19 -97.5t-53 -79.5t-79.5 -53.5t-99.5 -19.5zM312 227q46 0 82.5 15t62 42.5t39 65.5t13.5 84t-13.5 84.5t-39 66t-62 42.5t-82.5 15 q-47 0 -83.5 -15t-62 -42.5t-39 -66t-13.5 -84.5t13.5 -84t39 -65.5t62 -42.5t83.5 -15zM400 510q0 -21 -7 -34.5t-18.5 -22t-26 -13t-29.5 -6.5q10 0 23.5 -2t25 -7.5t20 -16t9.5 -27.5v-26q0 -17 1 -32.5t5 -32.5h-47q-4 15 -5 28t-1 27v24q0 17 -4 27.5t-9.5 17t-12 9 t-11.5 3.5h-29v-136h-47v294h82q13 0 27.5 -3t26.5 -11.5t19.5 -23t7.5 -36.5zM351 505q0 33 -10 48t-29 15h-28v-127h26q17 0 29 14.5t12 49.5z" />
<glyph unicode="&#xa9;" horiz-adv-x="799" d="M400 -7q-74 0 -137.5 27t-110.5 74t-73.5 110t-26.5 134t27.5 134t74.5 110t110.5 74t135.5 27q75 0 138 -27t109.5 -74t72.5 -110t26 -134t-27 -134t-74 -110t-110 -74t-135 -27zM400 49q63 0 114.5 21t89 59.5t58 91.5t20.5 117t-20.5 117t-58 91.5t-89 60t-114.5 21.5 t-115.5 -21.5t-90 -60t-58 -91.5t-20.5 -117t21.5 -117t59.5 -91.5t90 -59.5t113 -21zM497 263q1 -10 1.5 -19.5t0.5 -18.5q0 -60 -23.5 -98t-80.5 -38q-36 0 -59 15.5t-36 45.5t-18 74.5t-5 103.5q0 67 5.5 116.5t19.5 81.5t37.5 48t58.5 16q28 0 46.5 -9.5t30 -27 t16.5 -42t5 -53.5q0 -11 -0.5 -21.5t-1.5 -21.5h-74q2 24 3 43t1 34q0 41 -7 56.5t-22 15.5q-11 0 -17.5 -8t-10 -33t-5 -73t-1.5 -127q0 -66 1 -106.5t4.5 -63t10 -30.5t17.5 -8q16 0 24 16.5t8 63.5q0 27 -3 68h74z" />
<glyph unicode="&#x2117;" horiz-adv-x="799" d="M400 -7q-74 0 -137.5 27t-110.5 74t-73.5 110t-26.5 134t27.5 134t74.5 110t110.5 74t135.5 27q75 0 138 -27t109.5 -74t72.5 -110t26 -134t-27 -134t-74 -110t-110 -74t-135 -27zM400 49q63 0 114.5 21t89 59.5t58 91.5t20.5 117t-20.5 117t-58 91.5t-89 60t-114.5 21.5 t-115.5 -21.5t-90 -60t-58 -91.5t-20.5 -117t21.5 -117t59.5 -91.5t90 -59.5t113 -21zM528 442q0 -42 -10.5 -71t-27.5 -47t-40 -26t-48 -8h-5v-199h-79v493h95q21 0 41.5 -6t37 -22t26.5 -43.5t10 -70.5zM445 445q0 54 -6.5 83.5t-36.5 29.5h-5v-242h4q29 0 36.5 29.5 t7.5 99.5z" />
<glyph unicode="&#x267e;" horiz-adv-x="799" d="M400 -7q-74 0 -137.5 27t-110.5 74t-73.5 110t-26.5 134t27.5 134t74.5 110t110.5 74t135.5 27q75 0 138 -27t109.5 -74t72.5 -110t26 -134t-27 -134t-74 -110t-110 -74t-135 -27zM400 49q63 0 114.5 21t89 59.5t58 91.5t20.5 117t-20.5 117t-58 91.5t-89 60t-114.5 21.5 t-115.5 -21.5t-90 -60t-58 -91.5t-20.5 -117t21.5 -117t59.5 -91.5t90 -59.5t113 -21zM318 249q17 0 28 24t28 58q-9 18 -16 35t-13.5 30t-13 21t-14.5 8q-14 0 -22 -24.5t-8 -65.5q0 -37 7 -61.5t24 -24.5zM477 251q17 0 25 22.5t8 63.5q0 40 -7.5 62t-21.5 22 q-8 0 -15.5 -7.5t-14.5 -20t-14 -29t-15 -33.5q17 -34 27.5 -57t27.5 -23zM492 183q-26 0 -50 26t-44 66q-19 -37 -43 -65.5t-51 -28.5q-17 0 -31.5 12t-25 33t-17 49t-6.5 60q0 34 7 63t18.5 50t26 33t29.5 12q27 0 50 -28.5t44 -72.5q22 44 46.5 72.5t50.5 28.5 q17 0 31.5 -12.5t25.5 -33.5t17 -48.5t6 -58.5q0 -30 -6 -58.5t-17.5 -50.5t-27 -35t-33.5 -13z" />
<glyph unicode="&#x24ca;" horiz-adv-x="799" d="M400 -7q-74 0 -137.5 27t-110.5 74t-73.5 110t-26.5 134t27.5 134t74.5 110t110.5 74t135.5 27q75 0 138 -27t109.5 -74t72.5 -110t26 -134t-27 -134t-74 -110t-110 -74t-135 -27zM400 49q63 0 114.5 21t89 59.5t58 91.5t20.5 117t-20.5 117t-58 91.5t-89 60t-114.5 21.5 t-115.5 -21.5t-90 -60t-58 -91.5t-20.5 -117t21.5 -117t59.5 -91.5t90 -59.5t113 -21zM502 201q0 -53 -23 -86t-79 -33q-51 0 -82.5 28.5t-31.5 82.5v386h79v-399q0 -33 13.5 -52.5t39.5 -19.5q27 0 42.5 22.5t15.5 67.5v381h26v-378z" />
<glyph unicode="&#x24e4;" horiz-adv-x="799" d="M400 -7q-74 0 -137.5 27t-110.5 74t-73.5 110t-26.5 134t27.5 134t74.5 110t110.5 74t135.5 27q75 0 138 -27t109.5 -74t72.5 -110t26 -134t-27 -134t-74 -110t-110 -74t-135 -27zM400 49q63 0 114.5 21t89 59.5t58 91.5t20.5 117t-20.5 117t-58 91.5t-89 60t-114.5 21.5 t-115.5 -21.5t-90 -60t-58 -91.5t-20.5 -117t21.5 -117t59.5 -91.5t90 -59.5t113 -21zM502 201q0 -53 -23 -86t-79 -33q-51 0 -82.5 28.5t-31.5 82.5v386h79v-399q0 -33 13.5 -52.5t39.5 -19.5q27 0 42.5 22.5t15.5 67.5v381h26v-378z" />
<glyph unicode="&#x20ac;" horiz-adv-x="715" d="M682 234q5 -51 -13.5 -95t-56.5 -76t-94.5 -50.5t-127.5 -18.5q-65 0 -119.5 16.5t-96 50t-68 84t-34.5 118.5h-47v35h43v27q0 33 3 65h-46v35h52q24 125 107 190.5t216 65.5q70 0 124 -18t90 -50.5t52.5 -76.5t11.5 -95h-107q4 59 -9 98.5t-37.5 63t-59 33t-71.5 9.5 q-31 0 -62.5 -8t-58.5 -31.5t-47.5 -67t-29.5 -113.5h306v-35h-310q-1 -16 -1.5 -32.5t-0.5 -33.5v-26h312v-35h-310q6 -74 24.5 -119.5t44.5 -71t58 -34t64 -8.5q35 0 71 9t64.5 32t44.5 62.5t12 100.5h107v0z" />
<glyph unicode="$" horiz-adv-x="658" d="M306 -99v93q-62 2 -115.5 18t-91.5 44t-58 66.5t-15 85.5h107q-7 -85 44 -131.5t157 -46.5q37 0 70 7.5t57.5 24t38.5 42.5t14 62q0 25 -7 45.5t-28.5 37.5t-61.5 30t-106 23q-24 5 -54 10.5t-60.5 14t-59.5 21t-52 31.5t-36.5 45.5t-13.5 62.5q0 42 20 76t55.5 59 t84.5 40t108 18v90h36v-89q72 -1 125.5 -17.5t89 -46t51.5 -68.5t12 -85h-107q2 14 -1 44t-21.5 60.5t-57 53.5t-107.5 23q-86 0 -133 -31t-47 -87q0 -41 22.5 -64t58 -36t79 -20.5t86.5 -16.5q120 -19 179.5 -63t59.5 -127q0 -53 -26.5 -91.5t-67.5 -63t-92 -37t-100 -13.5 v-94h-36z" />
<glyph unicode="&#xa2;" horiz-adv-x="340" d="M159 -7v75q-30 3 -52.5 18t-38 46t-23.5 81t-8 123q0 69 7.5 118t22.5 80.5t37.5 47.5t52.5 20v76h36v-75q59 -4 85.5 -49.5t22.5 -147.5h-94q1 13 1.5 26t0.5 26q0 22 -1.5 43t-5.5 36.5t-10.5 25t-16.5 9.5q-8 0 -13 -9t-7.5 -33.5t-3.5 -68t-1 -113.5q0 -80 1 -129 t4 -75.5t8 -35.5t14 -9q19 0 27 31.5t8 75.5q0 13 -0.5 26t-1.5 27h94q2 -50 -4.5 -85.5t-20 -58t-35 -34t-49.5 -13.5v-75h-36z" />
<glyph unicode="&#xa3;" horiz-adv-x="681" d="M196 255q-8 -52 -27 -88.5t-58 -61.5h512v-105h-547v86q14 21 18.5 68t4.5 101h-67v35h66q0 17 -0.5 34t-1.5 34h-64v35h62q-1 19 -1.5 34.5t-0.5 26.5q0 57 22.5 99.5t61.5 71t91.5 42.5t112.5 14q61 0 114 -15t90.5 -42.5t57 -67t14.5 -87.5h-110q4 35 -6.5 67t-33 56 t-55.5 38.5t-75 14.5q-93 0 -131 -56.5t-40 -162.5q0 -9 -0.5 -17t-0.5 -16h250v-35h-251q-1 -19 -1.5 -35.5t-2.5 -32.5h255v-35h-258z" />
<glyph unicode="&#x192;" horiz-adv-x="328" d="M209 330l-8 -322q-2 -84 -37.5 -119.5t-108.5 -35.5q-7 0 -17 0.5t-18 2.5v33q6 -1 11.5 -1.5t10.5 -0.5q23 2 36 14t14 35l8 394h-93v35h94l4 158q1 46 11 76.5t27.5 49t41.5 26t52 7.5q15 0 31.5 -2t32.5 -5v-30q-8 1 -14.5 1.5t-13.5 0.5q-57 0 -57 -49l-6 -233h104 v-35h-105z" />
<glyph unicode="&#xa5;" horiz-adv-x="666" d="M404 140v-140h-116v140h-146v35h146v80h-146v35h137l-265 385h135l244 -354l219 354h36l-237 -385h144v-35h-151v-80h151v-35h-151z" />
<glyph unicode="&#xa4;" horiz-adv-x="405" d="M343 285q0 -35 -8.5 -64t-26.5 -50l52 -67l-39 -29l-53 67q-26 -12 -63 -12q-46 0 -76 18l-57 -73l-39 29l60 78q-14 20 -20 46.5t-6 56.5q0 35 9 66t29 54l-62 81l39 29l63 -81q27 11 60 11q18 0 33.5 -3.5t28.5 -8.5l64 82l39 -29l-64 -83q20 -23 28.5 -53.5t8.5 -64.5 zM256 282q0 37 -4 61.5t-10.5 39t-16 20.5t-21.5 6q-9 0 -18 -4.5t-16 -17.5t-11 -37.5t-4 -63.5t4 -62t11 -36t16 -17t20 -4t20 4t16 16.5t10.5 35t3.5 59.5z" />
<glyph unicode="&#x20a5;" horiz-adv-x="534" d="M158 467q8 23 27.5 43.5t54.5 20.5q23 0 41.5 -12.5t29.5 -45.5l32 150h35l-23 -107q10 7 22 11t27 4q16 0 31 -6.5t26.5 -22t18 -42.5t6.5 -67v-393h-108v392q0 29 -3.5 51.5t-22.5 22.5q-2 0 -3.5 -0.5t-3.5 -0.5l-23 -111v-354h-74l-21 -100h-36l23 109v383 q0 29 -3.5 51.5t-22.5 22.5q-16 0 -22.5 -17t-7.5 -43v-406h-108v525h108v-58z" />
<glyph unicode="&#x20a4;" horiz-adv-x="675" d="M195 311q-5 -76 -23.5 -126t-66.5 -80h512v-105h-547v86q14 20 18.5 64t4.5 96v32.5t-1 32.5h-66v35h64q-2 34 -3 62.5t-1 45.5q0 57 22.5 99.5t61.5 71t91.5 42.5t112.5 14q61 0 114 -15t90.5 -42.5t57 -67t14.5 -87.5h-110q4 35 -7 67t-33.5 56t-55 38.5t-72.5 14.5 q-47 0 -79.5 -13t-53 -40t-30 -68t-10.5 -98l-2 -80h251v-35h-253z" />
<glyph unicode="&#x20a1;" horiz-adv-x="702" d="M233 -61l26 66q-102 25 -162 104t-60 216q0 85 22.5 151.5t65 112t104.5 69t140 23.5q81 0 142 -26l30 77h32l-35 -89q34 -18 57 -44l52 133h32l-62 -160q37 -56 29 -131h-80l-158 -406q30 6 57.5 19.5t48.5 37t32 58.5t8 84h96q5 -48 -11 -90t-49.5 -73.5t-83.5 -51.5 t-113 -24l-22 -56h-32l21 55h-1q-37 0 -71 6l-23 -61h-32zM158 325q0 -68 9 -117t24.5 -82t36.5 -53t45 -30l220 566q-26 20 -59 28t-69 8t-72.5 -11t-66.5 -44.5t-49 -96.5t-19 -168zM375 30l176 454q-2 34 -11 59t-24 43l-214 -551q12 -3 24 -4t25 -1h24z" />
<glyph unicode="&#x20a2;" horiz-adv-x="768" d="M650 0h-108v55q-35 -29 -84 -45t-112 -16q-68 0 -124.5 20.5t-97 62t-63.5 103t-23 143.5q0 87 22.5 153.5t65 112t104.5 69t140 23.5q69 0 123 -18t90 -50.5t52.5 -76.5t11.5 -95h-107q1 8 1 15v14q0 50 -14.5 83.5t-39.5 54t-57 29t-67 8.5q-36 0 -72 -11t-65.5 -45.5 t-48 -99t-18.5 -171.5q0 -92 17 -148.5t44 -87.5t61.5 -41.5t69.5 -10.5q32 0 64 7.5t58 26.5t44.5 51t24.5 81v140h108v-115q2 19 6.5 40t13.5 38.5t23.5 29t35.5 11.5h7.5t8.5 -1v-104q-8 2 -17 2.5t-16 0.5q-11 0 -22 -4.5t-20 -11t-14.5 -15.5t-5.5 -18v-189z" />
<glyph unicode="&#x20ab;" horiz-adv-x="395" d="M123 673h90v52h108v-52h31v-36h-31v-537h-98l-9 63q-8 -25 -26.5 -47t-52.5 -22q-17 0 -33.5 8.5t-29 35t-20.5 74.5t-8 127q0 73 7 121.5t19.5 77.5t30.5 41t39 12q16 0 28 -5.5t21 -14.5t14.5 -20t9.5 -23v109h-90v36zM157 339q0 -49 0.5 -83t3 -55.5t8 -31.5t15.5 -10 q14 0 20.5 16.5t8.5 43.5v235q0 30 -6 51t-23 21q-8 0 -13.5 -7.5t-8.5 -27.5t-4 -57t-1 -95zM43 36h309v-36h-309v36z" />
<glyph unicode="&#x20a3;" horiz-adv-x="675" d="M75 0v675h481v-36h-372v-254h372v-115q2 19 6.5 40t13.5 38.5t23.5 29t35.5 11.5h7.5t8.5 -1v-117q-15 3 -36 3q-19 0 -38 -8t-21 -25v-241h-108v349h-264v-349h-109z" />
<glyph unicode="&#x20a6;" horiz-adv-x="764" d="M614 0l-269 275h-234v-275h-36v275h-43v35h43v55h-43v35h43v275h71l263 -275h240v275h36v-275h48v-35h-48v-55h48v-35h-48v-275h-71zM495 310h154v55h-206zM111 310h200l-54 55h-146v-55zM649 150v125h-120zM111 514v-114h112z" />
<glyph unicode="&#x20a7;" horiz-adv-x="1194" d="M656 481q0 -59 -23 -99t-57.5 -64.5t-75 -35t-74.5 -10.5h-240v-272h-115v675h370q29 0 66 -8t70 -30t56 -59.5t23 -96.5zM534 478q0 80 -27.5 120.5t-80.5 40.5h-240v-331h239q51 0 80 40.5t29 129.5zM1160 144q0 -25 -6 -51.5t-21 -48.5t-40.5 -36t-64.5 -14 q-26 0 -49.5 7.5t-41.5 26.5t-27 51t-5 80h93q-2 -14 -2 -25v-22q0 -28 3.5 -45t8 -26t10 -12t10.5 -3q12 0 21.5 19.5t9.5 63.5q0 26 -4.5 44.5t-14.5 33.5t-25.5 29t-37.5 32q-14 11 -27 24.5t-23.5 30.5t-17 38t-6.5 47q0 25 7 50.5t22.5 46t40.5 33.5t61 13 q26 0 49.5 -8.5t41 -28t26 -52t4.5 -80.5h-93q3 39 3 63q0 46 -8 60t-18 14q-19 0 -26.5 -24t-7.5 -53q0 -22 4.5 -38t12 -28t18.5 -22t24 -20q19 -15 36 -31t30.5 -36t21.5 -45t8 -58zM671 525h42l13 105h94v-105h66v-32h-66v-379q0 -44 9 -62.5t30 -18.5q15 0 38 9v-33 q-42 -15 -81 -15q-45 0 -74.5 31.5t-29.5 103.5v364h-41v32z" />
<glyph unicode="&#x20a8;" horiz-adv-x="958" d="M932 154q0 -32 -14 -61t-39 -51t-60.5 -35t-78.5 -13q-38 0 -75.5 9.5t-67.5 31t-48.5 57.5t-19.5 90q0 34 -15.5 58t-37 39.5t-44.5 22.5t-38 8h-208v-310h-115v675h380q29 0 66 -6.5t70 -26t55.5 -54.5t22.5 -91q0 -46 -15.5 -77.5t-40 -51.5t-55 -31t-61.5 -16 q26 -5 52.5 -14.5t48.5 -25t35.5 -38.5t14.5 -56v-38q0 -23 4.5 -45.5t16 -39.5t31 -27.5t49.5 -10.5q38 0 62 20.5t24 68.5q0 23 -4.5 39.5t-14.5 31.5t-25.5 29.5t-37.5 32.5q-14 11 -28 24.5t-25.5 30.5t-19 38t-7.5 47q0 25 7 50.5t22.5 46t40.5 33.5t61 13 q26 0 49.5 -8.5t41 -28t26 -52t4.5 -80.5h-93q3 39 3 63q0 46 -8 60t-18 14q-19 0 -26.5 -24t-7.5 -52q0 -23 5 -38.5t14 -27.5t20.5 -22t25.5 -21q15 -12 32 -27.5t31 -35t23.5 -44t9.5 -53.5zM544 497q0 67 -27.5 104.5t-80.5 37.5h-250v-293h248q25 0 45.5 7t35 24t22 46 t7.5 74z" />
<glyph unicode="&#x20aa;" horiz-adv-x="748" d="M71 675h188q76 0 127 -17t82 -53t44 -92t13 -135v-112h-103v110q0 51 -6 98.5t-23 84t-49.5 58.5t-84.5 22h-84v-639h-104v675zM253 0v375h103v-339h81q45 0 75 19.5t47.5 54t25 83t7.5 106.5v376h104v-378q0 -79 -18 -135t-51.5 -92t-81 -53t-106.5 -17h-186z" />
<glyph unicode="&#x20a9;" horiz-adv-x="975" d="M631 430h200l73 245h41l-74 -245h73v-35h-83l-17 -55h100v-35h-110l-91 -305h-96l-97 305h-145l-88 -305h-92l-92 305h-88v35h78l-17 55h-61v35h51l-74 245h121l71 -245h187l70 245h83zM734 106l60 199h-123zM308 106l57 199h-115zM660 340h144l17 55h-179zM240 340h135 l16 55h-167zM415 340h124l-18 55h-90zM441 430h69l-36 114z" />
<glyph unicode="&#x20ad;" horiz-adv-x="704" d="M42 340h39v335h115v-335h148l277 335h44l-234 -284l34 -51h114v-36h-91l197 -304h-141l-203 304h-145v-304h-115v304h-40z" />
<glyph unicode="&#x20ae;" horiz-adv-x="630" d="M19 675h593v-36h-237v-229l88 31v-36l-88 -31v-60l88 31v-36l-88 -31v-278h-115v237l-97 -34v36l97 34v60l-97 -34v36l97 34v270h-241v36z" />
<glyph unicode="&#x20b1;" horiz-adv-x="776" d="M672 416q-12 -41 -37 -68.5t-56 -44t-64.5 -24t-62.5 -7.5h-241v-272h-115v416h-62v35h62v55h-62v35h62v134h371q25 0 56 -6t60.5 -21t54 -41t35.5 -66h80v-35h-73q1 -6 1 -12.5v-12.5q0 -8 -0.5 -15.5t-1.5 -14.5h74v-35h-81zM451 308q41 0 67.5 25.5t36.5 82.5h-344 v-108h240zM211 639v-98h343q-20 98 -102 98h-241zM560 478q0 7 -0.5 14t-0.5 14h-348v-55h348q1 6 1 12.5v14.5z" />
<glyph unicode="&#x212e;" horiz-adv-x="592" d="M140 235q-4 0 -4 -3v-137q0 -10 6 -17q24 -29 65 -52t92 -23q57 0 105 23t80 61h24q-38 -44 -89 -71.5t-120 -27.5q-58 0 -107 20t-84.5 54.5t-55.5 80.5t-20 99t20 99t55.5 80.5t84.5 54.5t107 20t107.5 -20t85.5 -54.5t56 -80.5t20 -99v-7h-428zM463 392q0 5 -0.5 9.5 t-4.5 8.5q-10 13 -27 25.5t-38 22.5t-45 16.5t-49 6.5t-49.5 -7t-45 -17.5t-36.5 -23.5t-25 -26q-3 -5 -5 -9t-2 -10v-133q0 -4 4 -4h322q1 0 1 4v137z" />
<glyph unicode="&#x2116;" horiz-adv-x="983" d="M611 0l-504 514v-514h-36v675h71l504 -525v525h36v-675h-71zM845 289q-25 0 -44.5 9t-32.5 31t-20 60t-7 95q0 56 6.5 93.5t19.5 60.5t33 33t46 10q25 0 44 -9t32 -31.5t19.5 -60.5t6.5 -95q0 -56 -6.5 -93.5t-19 -60.5t-32 -32.5t-45.5 -9.5zM845 312q7 0 11 5.5t6.5 26 t3 59.5t0.5 106q0 47 -0.5 76.5t-2.5 45.5t-6.5 21.5t-11.5 5.5t-11.5 -5t-6.5 -23t-3 -52t-1 -92t1 -92.5t3 -52.5t6.5 -23.5t11.5 -5.5zM742 255h207v-27h-207v27z" />
<glyph unicode="&#x2610;" horiz-adv-x="875" d="M89 675h691v-675h-691v675zM187 77h496v520h-496v-520z" />
<glyph unicode="&#x2611;" horiz-adv-x="875" d="M89 675h691v-675h-691v675zM187 77h496v520h-496v-520zM389 243l247 316l19 -12l-267 -422l-156 140l52 68z" />
<glyph unicode="&#x2713;" horiz-adv-x="592" d="M245 274l279 356l21 -14l-301 -475l-175 158l58 76z" />
<glyph unicode="&#x2193;" horiz-adv-x="520" d="M330 286h118l-163 -215l-163 215h111v317h97v-317z" />
<glyph unicode="&#x2190;" horiz-adv-x="906" d="M276 299v-118l-215 163l215 163v-111h630v-97h-630z" />
<glyph unicode="&#x2192;" horiz-adv-x="906" d="M0 299v97h630v111l215 -163l-215 -163v118h-630z" />
<glyph unicode="&#x2191;" horiz-adv-x="520" d="M330 71h-97v317h-111l163 215l163 -215h-118v-317z" />
<glyph unicode="&#x2012;" horiz-adv-x="487" d="M487 396v-97h-487v97h487z" />
<glyph unicode="&#x2196;" horiz-adv-x="630" d="M247 385l-83 -84l-37 267l267 -36l-78 -79l224 -224l-69 -69z" />
<glyph unicode="&#x2197;" horiz-adv-x="630" d="M196 160l-69 69l224 224l-78 79l267 36l-37 -267l-83 84z" />
<glyph unicode="&#x2198;" horiz-adv-x="630" d="M420 343l83 84l37 -267l-267 36l78 79l-224 224l69 69z" />
<glyph unicode="&#x2199;" horiz-adv-x="630" d="M471 568l69 -69l-224 -224l78 -79l-267 -36l37 267l83 -84z" />
<glyph unicode="&#xf8ff;" horiz-adv-x="1241" d="M390 329h10v18h-10v41h11v-40h19v40h11v-41h-10v-9h-10v-10h-10v-10h-11v11zM350 347h-10v30h-10v11h10v10h11v-10h20v-11h-20v-29h20v-10h-21v9zM590 347h-10v30h-10v11h10v10h11v-10h20v-11h-20v-29h20v-10h-21v9zM700 347h-10v31h10v10h21v-10h10v-21h-30v-9h30v-10 h-31v9zM880 347h-10v31h10v10h21v-10h10v-21h-30v-9h30v-10h-31v9zM110 357h-10v11h10v10h11v-10h10v-11h-10v-10h-11v10zM180 357h-10v11h10v10h11v-10h10v-11h-10v-10h-11v10zM270 357h-10v11h10v10h11v-10h10v-11h-10v-10h-11v10zM520 347h-10v31h10v10h21v-10h10v-31 h-10v-9h-21v9zM630 408h11v-20h20v-10h10v-40h-11v39h-19v-39h-11v70zM960 357h-10v11h10v10h11v-10h10v-11h-10v-10h-11v10zM1050 357h-10v11h10v10h11v-10h10v-11h-10v-10h-11v10zM1120 357h-10v11h10v10h11v-10h10v-11h-10v-10h-11v10zM450 388h31v-10h10v-31h-10v-9h-20 v-20h-11v70zM780 338h-20v9h-10v31h10v10h31v-70h-11v20zM820 347h-10v41h11v-40h19v40h11v-50h-31v9zM240 338h10v10h11v-10h-10v-10h-11v10zM250 387h-10v11h11v-10h10v-11h-11v10zM300 338h-10v10h11v-10h10v-10h-11v10zM290 388h10v10h11v-11h-10v-10h-11v11zM930 338 h10v10h11v-10h-10v-10h-11v10zM940 387h-10v11h11v-10h10v-11h-11v10zM990 338h-10v10h11v-10h10v-10h-11v10zM980 388h10v10h11v-11h-10v-10h-11v11zM160 348h11v-10h-11v10zM160 388h11v-11h-11v11zM200 348h11v-10h-11v10zM200 388h11v-11h-11v11zM480 348v29h-19v-29h19 zM540 348v29h-19v-29h19zM720 368v9h-19v-9h19zM780 348v29h-19v-29h19zM900 368v9h-19v-9h19zM1030 348h11v-10h-11v10zM1030 388h11v-11h-11v11zM1070 348h11v-10h-11v10zM1070 388h11v-11h-11v11z" />
<glyph horiz-adv-x="151" />
<glyph horiz-adv-x="352" d="M189 204h-102l-36 -204h-38l120 675h88l112 -675h-111zM94 242h89l-42 266z" />
<glyph horiz-adv-x="373" d="M348 186q0 -38 -6.5 -71.5t-24 -59t-48 -40.5t-78.5 -15h-140v675h122q74 0 117 -35.5t43 -122.5q0 -39 -11.5 -66.5t-30.5 -46t-44 -29t-52 -14.5q30 -5 57.5 -15.5t49 -30.5t34 -51.5t12.5 -77.5zM232 185q0 51 -6.5 81.5t-16.5 47t-22.5 21.5t-24.5 5h-2v-304h7 q12 0 23.5 5.5t21 21.5t15 45t5.5 77zM218 508q0 42 -3.5 67.5t-10.5 40t-17 19t-22 4.5h-5v-263h3q13 0 23.5 5.5t17.5 20t10.5 40t3.5 66.5z" />
<glyph horiz-adv-x="371" d="M338 234q2 -14 2 -26.5v-25.5q0 -41 -7.5 -75.5t-24 -59.5t-44 -39t-66.5 -14q-49 0 -80.5 21.5t-49.5 63t-24.5 102.5t-6.5 141q0 91 8 158.5t27 112t51 66.5t80 22q38 0 63.5 -13t41.5 -37t22.5 -57.5t6.5 -73.5q0 -29 -3 -59h-101q2 32 3.5 58t1.5 46q0 57 -10 78.5 t-30 21.5q-14 0 -23 -10.5t-14 -45.5t-7 -100.5t-2 -174.5q0 -90 1.5 -145.5t6.5 -86t13.5 -41.5t23.5 -11q11 0 19 5t13.5 18t8.5 34.5t3 53.5q0 19 -1 42t-3 51h101v0z" />
<glyph horiz-adv-x="390" d="M51 0v675h124q181 0 181 -329q0 -177 -49 -261.5t-137 -84.5h-119zM160 639v-603h6q17 0 31 7.5t23.5 38t15 91t5.5 166.5q0 93 -4.5 151.5t-13.5 91.5t-23.5 45t-33.5 12h-6z" />
<glyph horiz-adv-x="300" d="M51 0v675h223v-36h-114v-272h90v-36h-90v-295h117v-36h-226z" />
<glyph horiz-adv-x="283" d="M51 0v675h221v-36h-112v-283h102v-36h-102v-320h-109z" />
<glyph horiz-adv-x="379" d="M259 72q-9 -42 -29.5 -60t-57.5 -18q-42 0 -68.5 21.5t-41.5 63t-20.5 102.5t-5.5 141q0 91 8 158.5t27 112t51 66.5t80 22q38 0 63.5 -11.5t41.5 -33t22.5 -52t6.5 -69.5q0 -28 -3 -58h-101q2 32 3.5 56.5t1.5 44.5q0 53 -10 70t-30 17q-14 0 -23 -10.5t-14 -45.5 t-7 -100.5t-2 -174.5q0 -90 1 -145.5t5 -86t12 -41.5t23 -11q7 0 13 5.5t11 19.5t8.5 37t5.5 59v144h-42v36h136l15 -16v-315h-30z" />
<glyph horiz-adv-x="409" d="M51 0v675h109v-304h89v304h109v-675h-109v335h-89v-335h-109z" />
<glyph horiz-adv-x="211" d="M51 0v675h109v-675h-109z" />
<glyph horiz-adv-x="342" d="M293 232q0 -49 -3.5 -92.5t-17 -75.5t-41.5 -51t-76 -19q-74 0 -108 44t-34 122q0 14 1 28t3 30h104q-6 -65 -6 -103q0 -26 2.5 -42.5t7.5 -26t12.5 -13t16.5 -3.5q11 0 17 8t9 30t3.5 59.5t0.5 96.5v451h109v-443z" />
<glyph horiz-adv-x="349" d="M51 0v675h109v-331h12l108 331h36l-68 -217l88 -458h-109l-58 308h-9v-308h-109z" />
<glyph horiz-adv-x="290" d="M160 675v-639h115v-36h-224v675h109z" />
<glyph horiz-adv-x="514" d="M359 0v435l-93 -435h-82l-97 424v-424h-36v675h81l124 -541l116 541h91v-675h-104z" />
<glyph horiz-adv-x="400" d="M278 0l-191 457v-457h-36v675h71l191 -464v464h36v-675h-71z" />
<glyph horiz-adv-x="389" d="M197 30q14 0 22 10.5t12 45.5t5 100t1 175q0 90 -0.5 145.5t-4.5 86t-11.5 41.5t-22.5 11q-14 0 -23 -10.5t-14 -45.5t-7 -100.5t-2 -174.5q0 -90 1.5 -145.5t6.5 -86t13.5 -41.5t23.5 -11zM199 681q49 0 79 -21.5t46.5 -63.5t22 -104t5.5 -143q0 -90 -6.5 -156.5 t-24 -110.5t-48 -66t-79.5 -22t-79.5 21.5t-48 63.5t-23.5 104t-6 144q0 89 7 155.5t25 110.5t49.5 66t80.5 22z" />
<glyph horiz-adv-x="356" d="M339 481q0 -59 -14 -99t-38 -64.5t-55.5 -35t-65.5 -10.5h-6v-272h-109v675h130q29 0 57 -8t50.5 -30t36.5 -59.5t14 -96.5zM224 485q0 37 -1.5 65.5t-7 48t-17 30t-32.5 10.5h-6v-331h5q20 0 32 10t18 31.5t7.5 55t1.5 80.5z" />
<glyph horiz-adv-x="389" d="M199 681q49 0 79 -21.5t46.5 -63.5t22 -104t5.5 -143q0 -82 -5.5 -145t-19.5 -106.5t-38.5 -68.5t-63.5 -32l15 -87h-40l-10 84q-48 1 -77.5 22.5t-46.5 63.5t-23 104t-6 143q0 89 7 155.5t25 110.5t49.5 66t80.5 22zM204 151l14 -111q6 9 10 29t6 57.5t2.5 94.5t0.5 140 q0 90 -0.5 145.5t-4.5 86t-11.5 41.5t-22.5 11q-14 0 -23 -10.5t-14 -45.5t-7 -100.5t-2 -174.5q0 -80 1 -132.5t5 -84.5t10 -46.5t17 -18.5l-17 119h36z" />
<glyph horiz-adv-x="375" d="M339 501q0 -45 -11.5 -75t-31.5 -49.5t-46.5 -30t-56.5 -15.5q23 -2 46.5 -7t43.5 -18.5t33.5 -36.5t15.5 -60v-60q0 -38 2.5 -74.5t11.5 -74.5h-109q-9 35 -11.5 65t-2.5 62v55q0 43 -6 69t-15 39.5t-20 17.5t-22 4v-312h-109v675h130q31 0 59.5 -7t50.5 -26t35 -53 t13 -88zM224 491q0 33 -1 60.5t-7 47t-17.5 30t-32.5 10.5h-6v-291h2q40 0 51 36t11 107z" />
<glyph horiz-adv-x="350" d="M323 179q0 -36 -8.5 -69.5t-26.5 -59t-47 -41t-71 -15.5q-72 0 -105.5 46t-33.5 125q0 11 0.5 21.5t1.5 21.5h101q-3 -33 -3 -61q0 -55 11.5 -86t34.5 -31q12 0 19.5 9t11.5 24t5.5 34t1.5 38q0 26 -2 47.5t-8.5 40.5t-18.5 36.5t-31 35.5q-16 15 -36.5 32t-39 40.5 t-31.5 56.5t-13 80q0 33 7.5 65t24.5 56.5t43.5 40t65.5 15.5q35 0 60 -13t40.5 -36t23 -55t7.5 -70q0 -11 -0.5 -21.5t-1.5 -21.5h-101q2 10 3 27.5t1 37.5t-2 40.5t-6.5 37.5t-12.5 27.5t-21 10.5q-6 0 -12 -3t-11.5 -13t-8.5 -27.5t-3 -45.5q0 -43 8 -69.5t21.5 -45 t32 -33.5t40.5 -34q16 -14 32 -32t29 -41.5t21 -53.5t8 -68z" />
<glyph horiz-adv-x="304" d="M15 675h274v-36h-81v-639h-109v639h-84v36z" />
<glyph horiz-adv-x="396" d="M347 159q0 -36 -7.5 -66.5t-24 -52.5t-43 -34t-65.5 -12q-70 0 -113.5 40t-43.5 113v528h109v-546q0 -45 18.5 -72t54.5 -27q37 0 58 31t21 93v521h36v-516z" />
<glyph horiz-adv-x="347" d="M209 166l88 509h36l-117 -675h-82l-118 675h108z" />
<glyph horiz-adv-x="549" d="M428 171l66 504h36l-92 -675h-82l-93 497l-65 -497h-82l-98 675h108l64 -497l61 497h88z" />
<glyph horiz-adv-x="324" d="M201 0l-70 262l-80 -262h-36l99 329l-98 346h111l67 -244l69 244h36l-86 -312l101 -363h-113z" />
<glyph horiz-adv-x="336" d="M11 675h113l82 -327l72 327h36l-88 -397v-278h-109v278z" />
<glyph horiz-adv-x="284" d="M133 36h125v-36h-239v31l127 608h-114v36h229v-35z" />
<glyph horiz-adv-x="389" d="M199 681q49 0 79 -21.5t46.5 -63.5t22 -104t5.5 -143q0 -90 -6.5 -156.5t-24 -110.5t-48 -66t-79.5 -22t-79.5 21.5t-48 63.5t-23.5 104t-6 144q0 89 7 155.5t25 110.5t49.5 66t80.5 22zM152 292l85 121q0 71 -1.5 116.5t-5.5 71t-11.5 35t-20.5 9.5q-14 0 -23 -10.5 t-14 -45.5t-7 -100.5t-2 -174.5v-22zM197 30q14 0 22 10.5t12 45.5t5 100t1 175v14l-85 -121q0 -70 2 -113.5t7 -68t13.5 -33.5t22.5 -9z" />
<glyph horiz-adv-x="389" d="M197 30q14 0 22 10.5t12 45.5t5 100t1 175q0 90 -0.5 145.5t-4.5 86t-11.5 41.5t-22.5 11q-14 0 -23 -10.5t-14 -45.5t-7 -100.5t-2 -174.5q0 -90 1.5 -145.5t6.5 -86t13.5 -41.5t23.5 -11zM199 681q49 0 79 -21.5t46.5 -63.5t22 -104t5.5 -143q0 -90 -6.5 -156.5 t-24 -110.5t-48 -66t-79.5 -22t-79.5 21.5t-48 63.5t-23.5 104t-6 144q0 89 7 155.5t25 110.5t49.5 66t80.5 22z" />
<glyph horiz-adv-x="225" d="M63 0v558h-43v32q21 0 42.5 6.5t39 18.5t28 28t10.5 35h32v-678h-109z" />
<glyph horiz-adv-x="358" d="M176 645q-7 0 -13.5 -5t-12 -18t-9 -34.5t-3.5 -55.5q0 -31 3 -73h-101q-1 12 -1.5 23t-0.5 22q0 86 34.5 131.5t106.5 45.5q45 0 73 -17t44 -42.5t22 -56t6 -58.5q0 -58 -18.5 -102t-46.5 -79t-60.5 -63t-61 -53t-48 -50t-20.5 -54h256v-106h-295v62q0 54 13.5 92.5 t33 70.5t43 62t43 67.5t33 86.5t13.5 120q0 1 -0.5 14t-3.5 28.5t-10 28.5t-19 13z" />
<glyph horiz-adv-x="360" d="M173 30q11 0 18.5 14t12.5 35t7 45t2 45q0 31 -4 60t-12.5 51.5t-22 35.5t-32.5 13h-17v35h18q20 0 32.5 15.5t19 40.5t9 57.5t2.5 65.5q0 18 -1 36.5t-4 33t-9.5 23.5t-16.5 9q-6 0 -13 -4t-13 -16t-9.5 -33.5t-3.5 -55.5q0 -28 3 -67h-101q-1 11 -1.5 22t-0.5 21 q0 85 36.5 127t102.5 42q39 0 67 -14t45 -37t25 -51.5t8 -57.5q0 -66 -36 -112.5t-96 -59.5q75 -9 107 -54.5t32 -114.5q0 -40 -9.5 -74t-29 -59t-48 -39t-66.5 -14q-143 0 -143 168q0 11 0.5 22t1.5 22h101q-3 -35 -3 -61q0 -33 4 -55t10.5 -35.5t14 -19t13.5 -5.5z" />
<glyph horiz-adv-x="357" d="M287 154v-154h-109v154h-161v58l161 463h109v-423h40v-98h-40zM178 568l-109 -316h109v316z" />
<glyph horiz-adv-x="358" d="M217 229q0 81 -12 119.5t-48 38.5q-29 0 -51.5 -23.5t-22.5 -61.5h-36v373h260v-106h-224v-194q16 26 43.5 37t56.5 11q30 0 57 -12t47 -38t32 -66t12 -97q0 -44 -9.5 -83.5t-29 -69t-49.5 -46.5t-72 -17q-64 0 -100 42t-36 127q0 11 0.5 21.5t1.5 21.5h101 q-3 -35 -3 -60q0 -33 4 -55.5t10.5 -36t13.5 -19t13 -5.5q10 0 18 15.5t13 42t7.5 63t2.5 78.5z" />
<glyph horiz-adv-x="371" d="M340 220q0 -118 -40 -172t-115 -54q-41 0 -69.5 17.5t-46 58.5t-25 108.5t-7.5 168.5q0 93 9 157t28.5 103t49.5 56.5t71 17.5q71 0 102.5 -43t31.5 -109q0 -8 -0.5 -17t-1.5 -18h-101q2 9 3 24t1 32t-1.5 34t-5.5 30.5t-11 22t-18 8.5q-15 0 -23.5 -19t-12.5 -56t-5 -92 t-1 -127q10 26 31 48t54 22q19 0 37.5 -10t33 -33.5t23.5 -62t9 -95.5zM190 356q-17 0 -27.5 -20t-10.5 -52q0 -127 5.5 -190.5t28.5 -63.5q13 0 20.5 16.5t12 42t6 57t1.5 60.5q0 31 -1 58.5t-4.5 48t-11 32t-19.5 11.5z" />
<glyph horiz-adv-x="278" d="M262 632l-149 -632h-38l136 569h-193v106h244v-43z" />
<glyph horiz-adv-x="373" d="M340 180q0 -40 -9 -74t-28 -59t-48.5 -39t-69.5 -14q-41 0 -69.5 13.5t-47 38t-27 58t-8.5 74.5q0 38 9 66.5t23 48.5t31.5 33t34.5 21q-42 22 -64.5 59.5t-22.5 97.5q0 88 38.5 132.5t104.5 44.5q67 0 104.5 -45.5t37.5 -127.5q0 -114 -88 -160q50 -23 74.5 -66 t24.5 -102zM226 172q0 83 -8 117.5t-32 34.5t-31.5 -33t-7.5 -113q0 -42 1 -70t4.5 -45.5t11 -25t21.5 -7.5q27 0 34 32t7 110zM215 503q0 70 -5 106t-23 36t-23.5 -35.5t-5.5 -108.5q0 -71 5.5 -106t22.5 -35t23 35t6 108z" />
<glyph horiz-adv-x="371" d="M31 455q0 118 40 172t115 54q41 0 69.5 -17.5t46 -58.5t25 -109t7.5 -168q0 -93 -9 -157t-28.5 -103t-49.5 -56.5t-71 -17.5q-71 0 -102.5 43t-31.5 109q0 8 0.5 17t1.5 18h101q-2 -9 -3 -24t-1 -32t1.5 -34t5.5 -30.5t11 -22t18 -8.5q30 0 36 74.5t6 218.5 q-11 -26 -32 -47.5t-53 -21.5q-19 0 -37.5 10t-33 33.5t-23.5 62t-9 95.5zM181 319q17 0 27.5 20t10.5 52q-1 126 -6 190t-28 64q-13 0 -20.5 -16.5t-12 -42t-6 -57t-1.5 -60.5q0 -32 1 -59t4.5 -47.5t11 -32t19.5 -11.5z" />
<glyph horiz-adv-x="352" d="M189 204h-102l-36 -204h-38l120 675h88l112 -675h-111zM94 242h89l-42 266zM198 724h-47l63 118h83z" />
<glyph horiz-adv-x="352" d="M189 204h-102l-36 -204h-38l120 675h88l112 -675h-111zM150 849h55l82 -127h-46l-64 67l-66 -67h-42zM94 242h89l-42 266z" />
<glyph horiz-adv-x="352" d="M189 204h-102l-36 -204h-38l120 675h88l112 -675h-111zM94 242h89l-42 266zM63 777q0 22 15 37t37 15t37 -15t15 -37t-15 -37t-37 -15t-37 15t-15 37zM185 777q0 22 15 37t37 15t37 -15t15 -37t-15 -37t-37 -15t-37 15t-15 37z" />
<glyph horiz-adv-x="352" d="M189 204h-102l-36 -204h-38l120 675h88l112 -675h-111zM268 800q0 -48 -24.5 -72t-64.5 -24q-41 0 -64 24.5t-23 70.5q0 49 25 73.5t63 24.5q39 0 63.5 -24.5t24.5 -72.5zM94 242h89l-42 266zM215 801q0 45 -9.5 62t-25.5 17t-25 -17.5t-9 -61.5q0 -80 33 -80 q16 0 26 18.5t10 61.5z" />
<glyph horiz-adv-x="352" d="M189 204h-102l-36 -204h-38l120 675h88l112 -675h-111zM94 242h89l-42 266zM60 842h83l63 -118h-47z" />
<glyph horiz-adv-x="352" d="M189 204h-102l-36 -204h-38l120 675h88l112 -675h-111zM298 836q0 -101 -68 -101q-15 0 -30 4t-29.5 9t-29 9t-28.5 4q-12 0 -24.5 -6t-16.5 -27h-16q0 53 21 77t49 24q13 0 24.5 -4t24 -8.5t26.5 -8.5t32 -4q14 0 29.5 5.5t18.5 26.5h17zM94 242h89l-42 266z" />
<glyph horiz-adv-x="352" d="M189 204h-102l-36 -204h-38l120 675h88l112 -675h-111zM284 840q0 -37 -8 -61.5t-22.5 -38.5t-34.5 -20t-44 -6q-25 0 -45 6t-33.5 20.5t-21 39t-7.5 60.5h17q0 -18 9 -29.5t22 -18t28.5 -9t29.5 -2.5q15 0 31.5 2.5t30 9.5t22.5 18t9 29h17zM94 242h89l-42 266z" />
<glyph horiz-adv-x="352" d="M189 204h-102l-36 -204h-38l120 675h88l112 -675h-111zM94 242h89l-42 266zM76 736v56h202v-56h-202z" />
<glyph horiz-adv-x="352" d="M189 204h-102l-36 -204h-38l120 675h88l112 -675h-30q-34 -22 -48 -54.5t-14 -67.5q0 -33 11 -45t29 -12q8 0 19 2t22 8v-20q-11 -6 -30 -10t-36 -4q-34 0 -59.5 20t-25.5 62q0 46 26.5 75t65.5 46h-41zM94 242h89l-42 266z" />
<glyph horiz-adv-x="446" d="M197 0v205h-100l-53 -205h-36l175 675h237v-36h-114v-272h90v-36h-90v-295h117v-36h-226zM197 242v345l-90 -345h90z" />
<glyph horiz-adv-x="446" d="M197 0v205h-100l-53 -205h-36l175 675h237v-36h-114v-272h90v-36h-90v-295h117v-36h-226zM197 242v345l-90 -345h90zM324 724h-47l63 118h83z" />
<glyph horiz-adv-x="446" d="M197 0v205h-100l-53 -205h-36l175 675h237v-36h-114v-272h90v-36h-90v-295h117v-36h-226zM197 242v345l-90 -345h90zM205 736v56h202v-56h-202z" />
<glyph horiz-adv-x="371" d="M313 -140q0 -26 -9 -43.5t-23 -28t-33 -15t-38 -4.5q-48 0 -77 23v22q8 -10 27 -17t36 -7q15 0 24.5 6.5t14.5 16t6.5 21.5t1.5 23t-2 25.5t-9 27t-20.5 21.5t-36.5 9h-18l7 57q-39 7 -63.5 31.5t-38.5 65.5t-19.5 98t-5.5 130q0 91 8 158.5t27 112t51 66.5t80 22 q38 0 63.5 -13t41.5 -37t22.5 -57.5t6.5 -73.5q0 -29 -3 -59h-101q2 32 3.5 58t1.5 46q0 57 -10 78.5t-30 21.5q-14 0 -23 -10.5t-14 -45.5t-7 -100.5t-2 -174.5q0 -90 1.5 -145.5t6.5 -86t13.5 -41.5t23.5 -11q11 0 19 5t13.5 18t8.5 34.5t3 53.5q0 19 -1 42t-3 51h101 q2 -14 2 -26.5v-24.5q0 -38 -6 -70.5t-20 -57t-36.5 -40t-54.5 -19.5l-25 -39q54 0 84.5 -24.5t30.5 -72.5z" />
<glyph horiz-adv-x="371" d="M338 234q2 -14 2 -26.5v-25.5q0 -41 -7.5 -75.5t-24 -59.5t-44 -39t-66.5 -14q-49 0 -80.5 21.5t-49.5 63t-24.5 102.5t-6.5 141q0 91 8 158.5t27 112t51 66.5t80 22q38 0 63.5 -13t41.5 -37t22.5 -57.5t6.5 -73.5q0 -29 -3 -59h-101q2 32 3.5 58t1.5 46q0 57 -10 78.5 t-30 21.5q-14 0 -23 -10.5t-14 -45.5t-7 -100.5t-2 -174.5q0 -90 1.5 -145.5t6.5 -86t13.5 -41.5t23.5 -11q11 0 19 5t13.5 18t8.5 34.5t3 53.5q0 19 -1 42t-3 51h101zM215 724h-47l63 118h83z" />
<glyph horiz-adv-x="371" d="M338 234q2 -14 2 -26.5v-25.5q0 -41 -7.5 -75.5t-24 -59.5t-44 -39t-66.5 -14q-49 0 -80.5 21.5t-49.5 63t-24.5 102.5t-6.5 141q0 91 8 158.5t27 112t51 66.5t80 22q38 0 63.5 -13t41.5 -37t22.5 -57.5t6.5 -73.5q0 -29 -3 -59h-101q2 32 3.5 58t1.5 46q0 57 -10 78.5 t-30 21.5q-14 0 -23 -10.5t-14 -45.5t-7 -100.5t-2 -174.5q0 -90 1.5 -145.5t6.5 -86t13.5 -41.5t23.5 -11q11 0 19 5t13.5 18t8.5 34.5t3 53.5q0 19 -1 42t-3 51h101zM231 722h-55l-82 127h46l64 -68l66 68h42z" />
<glyph horiz-adv-x="371" d="M338 234q2 -14 2 -26.5v-25.5q0 -41 -7.5 -75.5t-24 -59.5t-44 -39t-66.5 -14q-49 0 -80.5 21.5t-49.5 63t-24.5 102.5t-6.5 141q0 91 8 158.5t27 112t51 66.5t80 22q38 0 63.5 -13t41.5 -37t22.5 -57.5t6.5 -73.5q0 -29 -3 -59h-101q2 32 3.5 58t1.5 46q0 57 -10 78.5 t-30 21.5q-14 0 -23 -10.5t-14 -45.5t-7 -100.5t-2 -174.5q0 -90 1.5 -145.5t6.5 -86t13.5 -41.5t23.5 -11q11 0 19 5t13.5 18t8.5 34.5t3 53.5q0 19 -1 42t-3 51h101zM171 849h55l82 -127h-46l-64 67l-66 -67h-42z" />
<glyph horiz-adv-x="371" d="M145 772q0 23 16 39.5t39 16.5t39.5 -16.5t16.5 -39.5t-16.5 -39t-39.5 -16t-39 16t-16 39zM338 234q2 -14 2 -26.5v-25.5q0 -41 -7.5 -75.5t-24 -59.5t-44 -39t-66.5 -14q-49 0 -80.5 21.5t-49.5 63t-24.5 102.5t-6.5 141q0 91 8 158.5t27 112t51 66.5t80 22 q38 0 63.5 -13t41.5 -37t22.5 -57.5t6.5 -73.5q0 -29 -3 -59h-101q2 32 3.5 58t1.5 46q0 57 -10 78.5t-30 21.5q-14 0 -23 -10.5t-14 -45.5t-7 -100.5t-2 -174.5q0 -90 1.5 -145.5t6.5 -86t13.5 -41.5t23.5 -11q11 0 19 5t13.5 18t8.5 34.5t3 53.5q0 19 -1 42t-3 51h101z " />
<glyph horiz-adv-x="390" d="M51 0v675h124q181 0 181 -329q0 -177 -49 -261.5t-137 -84.5h-119zM160 639v-603h6q17 0 31 7.5t23.5 38t15 91t5.5 166.5q0 93 -4.5 151.5t-13.5 91.5t-23.5 45t-33.5 12h-6zM216 722h-55l-82 127h46l64 -68l66 68h42z" />
<glyph horiz-adv-x="392" d="M53 0v318h-33v35h33v322h124q181 0 181 -329q0 -177 -49 -261.5t-137 -84.5h-119zM162 318v-282h6q17 0 31 7.5t23.5 38t15 91t5.5 166.5q0 93 -4.5 151.5t-13.5 91.5t-23.5 45t-33.5 12h-6v-286h51v-35h-51z" />
<glyph horiz-adv-x="300" d="M51 0v675h223v-36h-114v-272h90v-36h-90v-295h117v-36h-226zM184 724h-47l63 118h83z" />
<glyph horiz-adv-x="300" d="M51 0v675h223v-36h-114v-272h90v-36h-90v-295h117v-36h-226zM141 849h55l82 -127h-46l-64 67l-66 -67h-42z" />
<glyph horiz-adv-x="300" d="M51 0v675h223v-36h-114v-272h90v-36h-90v-295h117v-36h-226zM173 777q0 22 15 37t37 15t37 -15t15 -37t-15 -37t-37 -15t-37 15t-15 37zM51 777q0 22 15 37t37 15t37 -15t15 -37t-15 -37t-37 -15t-37 15t-15 37z" />
<glyph horiz-adv-x="300" d="M51 0v675h223v-36h-114v-272h90v-36h-90v-295h117v-36h-226zM55 842h83l63 -118h-47z" />
<glyph horiz-adv-x="300" d="M51 0v675h223v-36h-114v-272h90v-36h-90v-295h117v-36h-226zM272 840q0 -37 -8 -61.5t-22.5 -38.5t-34.5 -20t-44 -6q-25 0 -45 6t-33.5 20.5t-21 39t-7.5 60.5h17q0 -18 9 -29.5t22 -18t28.5 -9t29.5 -2.5q15 0 31.5 2.5t30 9.5t22.5 18t9 29h17z" />
<glyph horiz-adv-x="300" d="M51 0v675h223v-36h-114v-272h90v-36h-90v-295h117v-36h-226zM192 722h-55l-82 127h46l64 -68l66 68h42z" />
<glyph horiz-adv-x="300" d="M51 0v675h223v-36h-114v-272h90v-36h-90v-295h117v-36h-226zM112 772q0 23 16 39.5t39 16.5t39.5 -16.5t16.5 -39.5t-16.5 -39t-39.5 -16t-39 16t-16 39z" />
<glyph horiz-adv-x="300" d="M51 0v675h223v-36h-114v-272h90v-36h-90v-295h117v-36h-226zM62 736v56h202v-56h-202z" />
<glyph horiz-adv-x="300" d="M249 0q-34 -22 -48 -54.5t-14 -67.5q0 -33 11 -45t29 -12q8 0 19 2t22 8v-20q-11 -6 -30 -10t-36 -4q-34 0 -59.5 20t-25.5 62q0 46 26.5 75t65.5 46h-158v675h223v-36h-114v-272h90v-36h-90v-295h117v-36h-28z" />
<glyph horiz-adv-x="300" d="M51 0v675h223v-36h-114v-272h90v-36h-90v-295h117v-36h-226zM284 836q0 -101 -68 -101q-15 0 -30 4t-29.5 9t-29 9t-28.5 4q-12 0 -24.5 -6t-16.5 -27h-16q0 53 21 77t49 24q13 0 24.5 -4t24 -8.5t26.5 -8.5t32 -4q14 0 29.5 5.5t18.5 26.5h17z" />
<glyph horiz-adv-x="380" d="M260 72q-9 -42 -29.5 -60t-57.5 -18q-42 0 -68.5 21.5t-41.5 63t-20.5 102.5t-5.5 141q0 91 8 158.5t27 112t51 66.5t80 22q38 0 63.5 -11.5t41.5 -33t22.5 -52t6.5 -69.5q0 -28 -3 -58h-101q2 32 3.5 56.5t1.5 44.5q0 53 -10 70t-30 17q-14 0 -23 -10.5t-14 -45.5 t-7 -100.5t-2 -174.5q0 -90 1 -145.5t5 -86t12 -41.5t23 -11q7 0 13 5.5t11 19.5t8.5 37t5.5 59v144h-42v36h136l15 -16v-315h-30zM309 840q0 -37 -8 -61.5t-22.5 -38.5t-34.5 -20t-44 -6q-25 0 -45 6t-33.5 20.5t-21 39t-7.5 60.5h17q0 -18 9 -29.5t22 -18t28.5 -9 t29.5 -2.5q15 0 31.5 2.5t30 9.5t22.5 18t9 29h17z" />
<glyph horiz-adv-x="380" d="M260 72q-9 -42 -29.5 -60t-57.5 -18q-42 0 -68.5 21.5t-41.5 63t-20.5 102.5t-5.5 141q0 91 8 158.5t27 112t51 66.5t80 22q38 0 63.5 -11.5t41.5 -33t22.5 -52t6.5 -69.5q0 -28 -3 -58h-101q2 32 3.5 56.5t1.5 44.5q0 53 -10 70t-30 17q-14 0 -23 -10.5t-14 -45.5 t-7 -100.5t-2 -174.5q0 -90 1 -145.5t5 -86t12 -41.5t23 -11q7 0 13 5.5t11 19.5t8.5 37t5.5 59v144h-42v36h136l15 -16v-315h-30zM195 -244h-28l-1 183h78z" />
<glyph horiz-adv-x="380" d="M260 72q-9 -42 -29.5 -60t-57.5 -18q-42 0 -68.5 21.5t-41.5 63t-20.5 102.5t-5.5 141q0 91 8 158.5t27 112t51 66.5t80 22q38 0 63.5 -11.5t41.5 -33t22.5 -52t6.5 -69.5q0 -28 -3 -58h-101q2 32 3.5 56.5t1.5 44.5q0 53 -10 70t-30 17q-14 0 -23 -10.5t-14 -45.5 t-7 -100.5t-2 -174.5q0 -90 1 -145.5t5 -86t12 -41.5t23 -11q7 0 13 5.5t11 19.5t8.5 37t5.5 59v144h-42v36h136l15 -16v-315h-30zM176 849h55l82 -127h-46l-64 67l-66 -67h-42z" />
<glyph horiz-adv-x="380" d="M260 72q-9 -42 -29.5 -60t-57.5 -18q-42 0 -68.5 21.5t-41.5 63t-20.5 102.5t-5.5 141q0 91 8 158.5t27 112t51 66.5t80 22q38 0 63.5 -11.5t41.5 -33t22.5 -52t6.5 -69.5q0 -28 -3 -58h-101q2 32 3.5 56.5t1.5 44.5q0 53 -10 70t-30 17q-14 0 -23 -10.5t-14 -45.5 t-7 -100.5t-2 -174.5q0 -90 1 -145.5t5 -86t12 -41.5t23 -11q7 0 13 5.5t11 19.5t8.5 37t5.5 59v144h-42v36h136l15 -16v-315h-30zM145 772q0 23 16 39.5t39 16.5t39.5 -16.5t16.5 -39.5t-16.5 -39t-39.5 -16t-39 16t-16 39z" />
<glyph horiz-adv-x="414" d="M53 0v504h-33v35h33v136h109v-136h89v136h109v-136h41v-35h-41v-504h-109v335h-89v-335h-109zM162 371h89v133h-89v-133z" />
<glyph horiz-adv-x="409" d="M51 0v675h109v-304h89v304h109v-675h-109v335h-89v-335h-109zM177 848h55l82 -127h-46l-64 67l-66 -67h-42z" />
<glyph horiz-adv-x="211" d="M51 0v675h109v-675h-109zM123 724h-47l63 118h83z" />
<glyph horiz-adv-x="211" d="M51 0v675h109v-675h-109zM78 849h55l82 -127h-46l-64 67l-66 -67h-42z" />
<glyph horiz-adv-x="211" d="M51 0v675h109v-675h-109zM-7 777q0 22 15 37t37 15t37 -15t15 -37t-15 -37t-37 -15t-37 15t-15 37zM115 777q0 22 15 37t37 15t37 -15t15 -37t-15 -37t-37 -15t-37 15t-15 37z" />
<glyph horiz-adv-x="211" d="M51 0v675h109v-675h-109zM-11 842h83l63 -118h-47z" />
<glyph horiz-adv-x="211" d="M51 0v675h109v-675h-109zM216 840q0 -37 -8 -61.5t-22.5 -38.5t-34.5 -20t-44 -6q-25 0 -45 6t-33.5 20.5t-21 39t-7.5 60.5h17q0 -18 9 -29.5t22 -18t28.5 -9t29.5 -2.5q15 0 31.5 2.5t30 9.5t22.5 18t9 29h17z" />
<glyph horiz-adv-x="211" d="M51 0v675h109v-675h-109zM51 772q0 23 16 39.5t39 16.5t39.5 -16.5t16.5 -39.5t-16.5 -39t-39.5 -16t-39 16t-16 39z" />
<glyph horiz-adv-x="211" d="M51 0v675h109v-675h-109zM6 736v56h202v-56h-202z" />
<glyph horiz-adv-x="211" d="M156 -189q-11 -6 -30 -10t-36 -4q-34 0 -59.5 20t-25.5 62q0 46 26.5 75t65.5 46h-46v675h109v-675h-23q-34 -22 -48 -54.5t-14 -67.5q0 -33 11 -45t29 -12q8 0 19 2t22 8v-20v0z" />
<glyph horiz-adv-x="211" d="M51 0v675h109v-675h-109zM227 836q0 -101 -68 -101q-15 0 -30 4t-29.5 9t-29 9t-28.5 4q-12 0 -24.5 -6t-16.5 -27h-16q0 53 21 77t49 24q13 0 24.5 -4t24 -8.5t26.5 -8.5t32 -4q14 0 29.5 5.5t18.5 26.5h17z" />
<glyph horiz-adv-x="342" d="M293 232q0 -49 -3.5 -92.5t-17 -75.5t-41.5 -51t-76 -19q-74 0 -108 44t-34 122q0 14 1 28t3 30h104q-6 -65 -6 -103q0 -26 2.5 -42.5t7.5 -26t12.5 -13t16.5 -3.5q11 0 17 8t9 30t3.5 59.5t0.5 96.5v451h109v-443zM214 849h55l82 -127h-46l-64 67l-66 -67h-42z" />
<glyph horiz-adv-x="349" d="M51 0v675h109v-331h12l108 331h36l-68 -217l88 -458h-109l-58 308h-9v-308h-109zM185 -244h-28l-1 183h78z" />
<glyph horiz-adv-x="290" d="M160 675v-639h115v-36h-224v675h109zM121 724h-47l63 118h83z" />
<glyph horiz-adv-x="305" d="M160 675v-639h115v-36h-224v675h109zM254 491h-23l-7 183h82z" />
<glyph horiz-adv-x="290" d="M160 675v-639h115v-36h-224v675h109zM157 -244h-28l-1 183h78z" />
<glyph horiz-adv-x="331" d="M160 675v-639h115v-36h-224v675h109zM191 352q0 26 18.5 45t44.5 19t45 -19t19 -45t-19 -44.5t-45 -18.5t-44.5 18.5t-18.5 44.5z" />
<glyph horiz-adv-x="295" d="M165 675v-320l79 35v-34l-79 -36v-284h115v-36h-224v272l-45 -20v35l45 20v368h109z" />
<glyph horiz-adv-x="400" d="M278 0l-191 457v-457h-36v675h71l191 -464v464h36v-675h-71zM326 836q0 -101 -68 -101q-15 0 -30 4t-29.5 9t-29 9t-28.5 4q-12 0 -24.5 -6t-16.5 -27h-16q0 53 21 77t49 24q13 0 24.5 -4t24 -8.5t26.5 -8.5t32 -4q14 0 29.5 5.5t18.5 26.5h17z" />
<glyph horiz-adv-x="400" d="M278 0l-191 457v-457h-36v675h71l191 -464v464h36v-675h-71zM228 724h-47l63 118h83z" />
<glyph horiz-adv-x="400" d="M278 0l-191 457v-457h-36v675h71l191 -464v464h36v-675h-71zM237 722h-55l-82 127h46l64 -68l66 68h42z" />
<glyph horiz-adv-x="400" d="M278 0l-191 457v-457h-36v675h71l191 -464v464h36v-675h-71zM195 -244h-28l-1 183h78z" />
<glyph horiz-adv-x="400" d="M349 -10q0 -34 -9 -61t-29 -45.5t-52 -27t-79 -4.5v31q19 0 42 1t43.5 10t34 28.5t13.5 57.5v20h-35l-191 457v-457h-36v675h71l191 -464v464h36v-685v0z" />
<glyph horiz-adv-x="400" d="M278 0l-191 457v-457h-36v675h71l191 -464v464h36v-675h-71zM152 -107q0 23 15.5 38.5t38.5 15.5q22 0 37.5 -15.5t15.5 -38.5q0 -22 -15.5 -37.5t-37.5 -15.5q-23 0 -38.5 15.5t-15.5 37.5z" />
<glyph horiz-adv-x="389" d="M77 842h83l63 -118h-47zM197 30q14 0 22 10.5t12 45.5t5 100t1 175q0 90 -0.5 145.5t-4.5 86t-11.5 41.5t-22.5 11q-14 0 -23 -10.5t-14 -45.5t-7 -100.5t-2 -174.5q0 -90 1.5 -145.5t6.5 -86t13.5 -41.5t23.5 -11zM199 681q49 0 79 -21.5t46.5 -63.5t22 -104t5.5 -143 q0 -90 -6.5 -156.5t-24 -110.5t-48 -66t-79.5 -22t-79.5 21.5t-48 63.5t-23.5 104t-6 144q0 89 7 155.5t25 110.5t49.5 66t80.5 22z" />
<glyph horiz-adv-x="389" d="M85 777q0 22 15 37t37 15t37 -15t15 -37t-15 -37t-37 -15t-37 15t-15 37zM207 777q0 22 15 37t37 15t37 -15t15 -37t-15 -37t-37 -15t-37 15t-15 37zM197 30q14 0 22 10.5t12 45.5t5 100t1 175q0 90 -0.5 145.5t-4.5 86t-11.5 41.5t-22.5 11q-14 0 -23 -10.5t-14 -45.5 t-7 -100.5t-2 -174.5q0 -90 1.5 -145.5t6.5 -86t13.5 -41.5t23.5 -11zM199 681q49 0 79 -21.5t46.5 -63.5t22 -104t5.5 -143q0 -90 -6.5 -156.5t-24 -110.5t-48 -66t-79.5 -22t-79.5 21.5t-48 63.5t-23.5 104t-6 144q0 89 7 155.5t25 110.5t49.5 66t80.5 22z" />
<glyph horiz-adv-x="389" d="M319 836q0 -101 -68 -101q-15 0 -30 4t-29.5 9t-29 9t-28.5 4q-12 0 -24.5 -6t-16.5 -27h-16q0 53 21 77t49 24q13 0 24.5 -4t24 -8.5t26.5 -8.5t32 -4q14 0 29.5 5.5t18.5 26.5h17zM197 30q14 0 22 10.5t12 45.5t5 100t1 175q0 90 -0.5 145.5t-4.5 86t-11.5 41.5 t-22.5 11q-14 0 -23 -10.5t-14 -45.5t-7 -100.5t-2 -174.5q0 -90 1.5 -145.5t6.5 -86t13.5 -41.5t23.5 -11zM199 681q49 0 79 -21.5t46.5 -63.5t22 -104t5.5 -143q0 -90 -6.5 -156.5t-24 -110.5t-48 -66t-79.5 -22t-79.5 21.5t-48 63.5t-23.5 104t-6 144q0 89 7 155.5 t25 110.5t49.5 66t80.5 22z" />
<glyph horiz-adv-x="389" d="M306 840q0 -37 -8 -61.5t-22.5 -38.5t-34.5 -20t-44 -6q-25 0 -45 6t-33.5 20.5t-21 39t-7.5 60.5h17q0 -18 9 -29.5t22 -18t28.5 -9t29.5 -2.5q15 0 31.5 2.5t30 9.5t22.5 18t9 29h17zM197 30q14 0 22 10.5t12 45.5t5 100t1 175q0 90 -0.5 145.5t-4.5 86t-11.5 41.5 t-22.5 11q-14 0 -23 -10.5t-14 -45.5t-7 -100.5t-2 -174.5q0 -90 1.5 -145.5t6.5 -86t13.5 -41.5t23.5 -11zM199 681q49 0 79 -21.5t46.5 -63.5t22 -104t5.5 -143q0 -90 -6.5 -156.5t-24 -110.5t-48 -66t-79.5 -22t-79.5 21.5t-48 63.5t-23.5 104t-6 144q0 89 7 155.5 t25 110.5t49.5 66t80.5 22z" />
<glyph horiz-adv-x="389" d="M221 724h-47l63 118h83zM197 30q14 0 22 10.5t12 45.5t5 100t1 175q0 90 -0.5 145.5t-4.5 86t-11.5 41.5t-22.5 11q-14 0 -23 -10.5t-14 -45.5t-7 -100.5t-2 -174.5q0 -90 1.5 -145.5t6.5 -86t13.5 -41.5t23.5 -11zM199 681q49 0 79 -21.5t46.5 -63.5t22 -104t5.5 -143 q0 -90 -6.5 -156.5t-24 -110.5t-48 -66t-79.5 -22t-79.5 21.5t-48 63.5t-23.5 104t-6 144q0 89 7 155.5t25 110.5t49.5 66t80.5 22z" />
<glyph horiz-adv-x="389" d="M199 681q49 0 79 -21.5t46.5 -63.5t22 -104t5.5 -143q0 -90 -6.5 -156.5t-24 -110.5t-48 -66t-79.5 -22t-79.5 21.5t-48 63.5t-23.5 104t-6 144q0 89 7 155.5t25 110.5t49.5 66t80.5 22zM197 30q14 0 22 10.5t12 45.5t5 100t1 175q0 90 -0.5 145.5t-4.5 86t-11.5 41.5 t-22.5 11q-14 0 -23 -10.5t-14 -45.5t-7 -100.5t-2 -174.5q0 -90 1.5 -145.5t6.5 -86t13.5 -41.5t23.5 -11zM174 849h55l82 -127h-46l-64 67l-66 -67h-42z" />
<glyph horiz-adv-x="389" d="M197 30q14 0 22 10.5t12 45.5t5 100t1 175q0 90 -0.5 145.5t-4.5 86t-11.5 41.5t-22.5 11q-14 0 -23 -10.5t-14 -45.5t-7 -100.5t-2 -174.5q0 -90 1.5 -145.5t6.5 -86t13.5 -41.5t23.5 -11zM199 681q49 0 79 -21.5t46.5 -63.5t22 -104t5.5 -143q0 -90 -6.5 -156.5 t-24 -110.5t-48 -66t-79.5 -22t-79.5 21.5t-48 63.5t-23.5 104t-6 144q0 89 7 155.5t25 110.5t49.5 66t80.5 22zM273 724h-47l63 118h83zM158 724h-47l63 118h83z" />
<glyph horiz-adv-x="389" d="M98 736v56h202v-56h-202zM197 30q14 0 22 10.5t12 45.5t5 100t1 175q0 90 -0.5 145.5t-4.5 86t-11.5 41.5t-22.5 11q-14 0 -23 -10.5t-14 -45.5t-7 -100.5t-2 -174.5q0 -90 1.5 -145.5t6.5 -86t13.5 -41.5t23.5 -11zM199 681q49 0 79 -21.5t46.5 -63.5t22 -104t5.5 -143 q0 -90 -6.5 -156.5t-24 -110.5t-48 -66t-79.5 -22t-79.5 21.5t-48 63.5t-23.5 104t-6 144q0 89 7 155.5t25 110.5t49.5 66t80.5 22z" />
<glyph horiz-adv-x="389" d="M199 681q65 0 100 -41l15 35h36l-29 -71q19 -42 25 -105.5t6 -149.5q0 -90 -6.5 -156.5t-24 -110.5t-48 -66t-79.5 -22q-70 0 -106 47l-17 -41h-36l32 78q-17 42 -23.5 104t-6.5 145q0 89 7 155.5t25 110.5t49.5 66t80.5 22zM197 30q14 0 22 10.5t12 45.5t5 100t1 175v41 l-85 -205q1 -52 3.5 -84.5t8 -51t13.5 -25t20 -6.5zM152 282l84 206q0 48 -2 78.5t-6 48t-11.5 24t-18.5 6.5q-14 0 -23 -10.5t-14 -45.5t-7 -100.5t-2 -174.5v-32z" />
<glyph horiz-adv-x="389" d="M199 681q65 0 100 -41l15 35h36l-29 -71q19 -42 25 -105.5t6 -149.5q0 -90 -6.5 -156.5t-24 -110.5t-48 -66t-79.5 -22q-70 0 -106 47l-17 -41h-36l32 78q-17 42 -23.5 104t-6.5 145q0 89 7 155.5t25 110.5t49.5 66t80.5 22zM197 30q14 0 22 10.5t12 45.5t5 100t1 175v41 l-85 -205q1 -52 3.5 -84.5t8 -51t13.5 -25t20 -6.5zM152 282l84 206q0 48 -2 78.5t-6 48t-11.5 24t-18.5 6.5q-14 0 -23 -10.5t-14 -45.5t-7 -100.5t-2 -174.5v-32zM203 724h-47l63 118h83z" />
<glyph horiz-adv-x="375" d="M339 501q0 -45 -11.5 -75t-31.5 -49.5t-46.5 -30t-56.5 -15.5q23 -2 46.5 -7t43.5 -18.5t33.5 -36.5t15.5 -60v-60q0 -38 2.5 -74.5t11.5 -74.5h-109q-9 35 -11.5 65t-2.5 62v55q0 43 -6 69t-15 39.5t-20 17.5t-22 4v-312h-109v675h130q31 0 59.5 -7t50.5 -26t35 -53 t13 -88zM224 491q0 33 -1 60.5t-7 47t-17.5 30t-32.5 10.5h-6v-291h2q40 0 51 36t11 107zM202 724h-47l63 118h83z" />
<glyph horiz-adv-x="375" d="M339 501q0 -45 -11.5 -75t-31.5 -49.5t-46.5 -30t-56.5 -15.5q23 -2 46.5 -7t43.5 -18.5t33.5 -36.5t15.5 -60v-60q0 -38 2.5 -74.5t11.5 -74.5h-109q-9 35 -11.5 65t-2.5 62v55q0 41 -5.5 66t-13.5 39t-19 19t-21 6h-4v-312h-109v675h130q31 0 59.5 -7t50.5 -26t35 -53 t13 -88zM224 491q0 33 -1 60.5t-7 47t-17.5 30t-32.5 10.5h-6v-291h2q40 0 51 36t11 107zM215 722h-55l-82 127h46l64 -68l66 68h42z" />
<glyph horiz-adv-x="375" d="M339 501q0 -45 -11.5 -75t-31.5 -49.5t-46.5 -30t-56.5 -15.5q23 -2 46.5 -7t43.5 -18.5t33.5 -36.5t15.5 -60v-60q0 -38 2.5 -74.5t11.5 -74.5h-109q-9 35 -11.5 65t-2.5 62v55q0 41 -5.5 66t-13.5 39t-19 19t-21 6h-4v-312h-109v675h130q31 0 59.5 -7t50.5 -26t35 -53 t13 -88zM224 491q0 33 -1 60.5t-7 47t-17.5 30t-32.5 10.5h-6v-291h2q40 0 51 36t11 107zM184 -244h-28l-1 183h78z" />
<glyph horiz-adv-x="350" d="M323 179q0 -36 -8.5 -69.5t-26.5 -59t-47 -41t-71 -15.5q-72 0 -105.5 46t-33.5 125q0 11 0.5 21.5t1.5 21.5h101q-3 -33 -3 -61q0 -55 11.5 -86t34.5 -31q12 0 19.5 9t11.5 24t5.5 34t1.5 38q0 26 -2 47.5t-8.5 40.5t-18.5 36.5t-31 35.5q-16 15 -36.5 32t-39 40.5 t-31.5 56.5t-13 80q0 33 7.5 65t24.5 56.5t43.5 40t65.5 15.5q35 0 60 -13t40.5 -36t23 -55t7.5 -70q0 -11 -0.5 -21.5t-1.5 -21.5h-101q2 10 3 27.5t1 37.5t-2 40.5t-6.5 37.5t-12.5 27.5t-21 10.5q-6 0 -12 -3t-11.5 -13t-8.5 -27.5t-3 -45.5q0 -43 8 -69.5t21.5 -45 t32 -33.5t40.5 -34q16 -14 32 -32t29 -41.5t21 -53.5t8 -68zM179 724h-47l63 118h83z" />
<glyph horiz-adv-x="350" d="M283 -140q0 -26 -9 -43.5t-23 -28t-33 -15t-38 -4.5q-48 0 -77 23v22q8 -10 27 -17t36 -7q15 0 24.5 6.5t14.5 16t6.5 21.5t1.5 23t-2 25.5t-9 27t-20.5 21.5t-36.5 9h-18l7 58q-53 11 -78 53.5t-25 111.5v22t2 23h101q-3 -33 -3 -61q0 -55 11.5 -86t34.5 -31 q12 0 19.5 9t11.5 24t5.5 34t1.5 38q0 26 -2 47.5t-8.5 40.5t-18.5 36.5t-31 35.5q-16 15 -36.5 32t-39 40.5t-31.5 56.5t-13 80q0 33 7.5 65t24.5 56.5t43.5 40t65.5 15.5q35 0 60 -13t40.5 -36t23 -55t7.5 -70q0 -11 -0.5 -21.5t-1.5 -21.5h-101q2 10 3 27.5t1 37.5 t-2 40.5t-6.5 37.5t-12.5 27.5t-21 10.5q-6 0 -12 -3t-11.5 -13t-8.5 -27.5t-3 -45.5q0 -43 8 -69.5t21.5 -45t32 -33.5t40.5 -34q16 -14 32 -32t29 -41.5t21 -53.5t8 -68q0 -33 -7 -64.5t-22.5 -56.5t-40.5 -41.5t-60 -20.5l-25 -39q54 0 84.5 -24.5t30.5 -72.5z" />
<glyph horiz-adv-x="350" d="M323 179q0 -36 -8.5 -69.5t-26.5 -59t-47 -41t-71 -15.5q-72 0 -105.5 46t-33.5 125q0 11 0.5 21.5t1.5 21.5h101q-3 -33 -3 -61q0 -55 11.5 -86t34.5 -31q12 0 19.5 9t11.5 24t5.5 34t1.5 38q0 26 -2 47.5t-8.5 40.5t-18.5 36.5t-31 35.5q-16 15 -36.5 32t-39 40.5 t-31.5 56.5t-13 80q0 33 7.5 65t24.5 56.5t43.5 40t65.5 15.5q35 0 60 -13t40.5 -36t23 -55t7.5 -70q0 -11 -0.5 -21.5t-1.5 -21.5h-101q2 10 3 27.5t1 37.5t-2 40.5t-6.5 37.5t-12.5 27.5t-21 10.5q-6 0 -12 -3t-11.5 -13t-8.5 -27.5t-3 -45.5q0 -43 8 -69.5t21.5 -45 t32 -33.5t40.5 -34q16 -14 32 -32t29 -41.5t21 -53.5t8 -68zM200 722h-55l-82 127h46l64 -68l66 68h42z" />
<glyph horiz-adv-x="350" d="M323 179q0 -36 -8.5 -69.5t-26.5 -59t-47 -41t-71 -15.5q-72 0 -105.5 46t-33.5 125q0 11 0.5 21.5t1.5 21.5h101q-3 -33 -3 -61q0 -55 11.5 -86t34.5 -31q12 0 19.5 9t11.5 24t5.5 34t1.5 38q0 26 -2 47.5t-8.5 40.5t-18.5 36.5t-31 35.5q-16 15 -36.5 32t-39 40.5 t-31.5 56.5t-13 80q0 33 7.5 65t24.5 56.5t43.5 40t65.5 15.5q35 0 60 -13t40.5 -36t23 -55t7.5 -70q0 -11 -0.5 -21.5t-1.5 -21.5h-101q2 10 3 27.5t1 37.5t-2 40.5t-6.5 37.5t-12.5 27.5t-21 10.5q-6 0 -12 -3t-11.5 -13t-8.5 -27.5t-3 -45.5q0 -43 8 -69.5t21.5 -45 t32 -33.5t40.5 -34q16 -14 32 -32t29 -41.5t21 -53.5t8 -68zM143 849h55l82 -127h-46l-64 67l-66 -67h-42z" />
<glyph horiz-adv-x="350" d="M167 -244h-28l-1 183h78zM323 179q0 -36 -8.5 -69.5t-26.5 -59t-47 -41t-71 -15.5q-72 0 -105.5 46t-33.5 125q0 11 0.5 21.5t1.5 21.5h101q-3 -33 -3 -61q0 -55 11.5 -86t34.5 -31q12 0 19.5 9t11.5 24t5.5 34t1.5 38q0 26 -2 47.5t-8.5 40.5t-18.5 36.5t-31 35.5 q-16 15 -36.5 32t-39 40.5t-31.5 56.5t-13 80q0 33 7.5 65t24.5 56.5t43.5 40t65.5 15.5q35 0 60 -13t40.5 -36t23 -55t7.5 -70q0 -11 -0.5 -21.5t-1.5 -21.5h-101q2 10 3 27.5t1 37.5t-2 40.5t-6.5 37.5t-12.5 27.5t-21 10.5q-6 0 -12 -3t-11.5 -13t-8.5 -27.5t-3 -45.5 q0 -43 8 -69.5t21.5 -45t32 -33.5t40.5 -34q16 -14 32 -32t29 -41.5t21 -53.5t8 -68z" />
<glyph horiz-adv-x="350" d="M121 -107q0 23 15.5 38.5t38.5 15.5q22 0 37.5 -15.5t15.5 -38.5q0 -22 -15.5 -37.5t-37.5 -15.5q-23 0 -38.5 15.5t-15.5 37.5zM323 179q0 -36 -8.5 -69.5t-26.5 -59t-47 -41t-71 -15.5q-72 0 -105.5 46t-33.5 125q0 11 0.5 21.5t1.5 21.5h101q-3 -33 -3 -61 q0 -55 11.5 -86t34.5 -31q12 0 19.5 9t11.5 24t5.5 34t1.5 38q0 26 -2 47.5t-8.5 40.5t-18.5 36.5t-31 35.5q-16 15 -36.5 32t-39 40.5t-31.5 56.5t-13 80q0 33 7.5 65t24.5 56.5t43.5 40t65.5 15.5q35 0 60 -13t40.5 -36t23 -55t7.5 -70q0 -11 -0.5 -21.5t-1.5 -21.5h-101 q2 10 3 27.5t1 37.5t-2 40.5t-6.5 37.5t-12.5 27.5t-21 10.5q-6 0 -12 -3t-11.5 -13t-8.5 -27.5t-3 -45.5q0 -43 8 -69.5t21.5 -45t32 -33.5t40.5 -34q16 -14 32 -32t29 -41.5t21 -53.5t8 -68z" />
<glyph horiz-adv-x="311" d="M102 0v298h-57v35h57v306h-84v36h274v-36h-81v-306h59v-35h-59v-298h-109z" />
<glyph horiz-adv-x="304" d="M15 675h274v-36h-81v-639h-109v639h-84v36zM179 722h-55l-82 127h46l64 -68l66 68h42z" />
<glyph horiz-adv-x="304" d="M15 675h274v-36h-81v-639h-109v639h-84v36zM148 -244h-28l-1 183h78z" />
<glyph horiz-adv-x="304" d="M15 675h274v-36h-81v-639h-109v639h-84v36zM148 -244h-28l-1 183h78z" />
<glyph horiz-adv-x="396" d="M243 724h-47l63 118h83zM347 159q0 -36 -7.5 -66.5t-24 -52.5t-43 -34t-65.5 -12q-70 0 -113.5 40t-43.5 113v528h109v-546q0 -45 18.5 -72t54.5 -27q37 0 58 31t21 93v521h36v-516z" />
<glyph horiz-adv-x="396" d="M347 159q0 -36 -7.5 -66.5t-24 -52.5t-43 -34t-65.5 -12q-70 0 -113.5 40t-43.5 113v528h109v-546q0 -45 18.5 -72t54.5 -27q37 0 58 31t21 93v521h36v-516zM178 849h55l82 -127h-46l-64 67l-66 -67h-42z" />
<glyph horiz-adv-x="396" d="M117 842h83l63 -118h-47zM347 159q0 -36 -7.5 -66.5t-24 -52.5t-43 -34t-65.5 -12q-70 0 -113.5 40t-43.5 113v528h109v-546q0 -45 18.5 -72t54.5 -27q37 0 58 31t21 93v521h36v-516z" />
<glyph horiz-adv-x="396" d="M95 777q0 22 15 37t37 15t37 -15t15 -37t-15 -37t-37 -15t-37 15t-15 37zM217 777q0 22 15 37t37 15t37 -15t15 -37t-15 -37t-37 -15t-37 15t-15 37zM347 159q0 -36 -7.5 -66.5t-24 -52.5t-43 -34t-65.5 -12q-70 0 -113.5 40t-43.5 113v528h109v-546q0 -45 18.5 -72 t54.5 -27q37 0 58 31t21 93v521h36v-516z" />
<glyph horiz-adv-x="396" d="M320 840q0 -37 -8 -61.5t-22.5 -38.5t-34.5 -20t-44 -6q-25 0 -45 6t-33.5 20.5t-21 39t-7.5 60.5h17q0 -18 9 -29.5t22 -18t28.5 -9t29.5 -2.5q15 0 31.5 2.5t30 9.5t22.5 18t9 29h17zM347 159q0 -36 -7.5 -66.5t-24 -52.5t-43 -34t-65.5 -12q-70 0 -113.5 40t-43.5 113 v528h109v-546q0 -45 18.5 -72t54.5 -27q37 0 58 31t21 93v521h36v-516z" />
<glyph horiz-adv-x="396" d="M347 159q0 -36 -7.5 -66.5t-24 -52.5t-43 -34t-65.5 -12q-70 0 -113.5 40t-43.5 113v528h109v-546q0 -45 18.5 -72t54.5 -27q37 0 58 31t21 93v521h36v-516zM265 724h-47l63 118h83zM150 724h-47l63 118h83z" />
<glyph horiz-adv-x="396" d="M106 736v56h202v-56h-202zM347 159q0 -36 -7.5 -66.5t-24 -52.5t-43 -34t-65.5 -12q-70 0 -113.5 40t-43.5 113v528h109v-546q0 -45 18.5 -72t54.5 -27q37 0 58 31t21 93v521h36v-516z" />
<glyph horiz-adv-x="396" d="M347 159q0 -60 -20.5 -102t-68.5 -56q-35 -21 -49.5 -54.5t-14.5 -68.5q0 -33 11 -45t29 -12q8 0 19 2t22 8v-20q-11 -6 -30 -10t-36 -4q-34 0 -59.5 20t-25.5 62t22.5 70t56.5 45q-69 2 -111 41.5t-42 111.5v528h109v-546q0 -45 18.5 -72t54.5 -27q37 0 58 31t21 93v521 h36v-516z" />
<glyph horiz-adv-x="396" d="M304 800q0 -48 -24.5 -72t-64.5 -24q-41 0 -64 24.5t-23 70.5q0 49 25 73.5t63 24.5q39 0 63.5 -24.5t24.5 -72.5zM251 801q0 45 -9.5 62t-25.5 17t-25 -17.5t-9 -61.5q0 -80 33 -80q16 0 26 18.5t10 61.5zM347 159q0 -36 -7.5 -66.5t-24 -52.5t-43 -34t-65.5 -12 q-70 0 -113.5 40t-43.5 113v528h109v-546q0 -45 18.5 -72t54.5 -27q37 0 58 31t21 93v521h36v-516z" />
<glyph horiz-adv-x="396" d="M330 836q0 -101 -68 -101q-15 0 -30 4t-29.5 9t-29 9t-28.5 4q-12 0 -24.5 -6t-16.5 -27h-16q0 53 21 77t49 24q13 0 24.5 -4t24 -8.5t26.5 -8.5t32 -4q14 0 29.5 5.5t18.5 26.5h17zM347 159q0 -36 -7.5 -66.5t-24 -52.5t-43 -34t-65.5 -12q-70 0 -113.5 40t-43.5 113 v528h109v-546q0 -45 18.5 -72t54.5 -27q37 0 58 31t21 93v521h36v-516z" />
<glyph horiz-adv-x="396" d="M347 159q0 -36 -7.5 -66.5t-24 -52.5t-43 -34t-65.5 -12q-70 0 -113.5 40t-43.5 113v528h109v-546q0 -45 18.5 -72t54.5 -27q37 0 58 31t21 93v521h36v-516zM245 722h-55l-82 127h46l64 -68l66 68h42z" />
<glyph horiz-adv-x="549" d="M428 171l66 504h36l-92 -675h-82l-93 497l-65 -497h-82l-98 675h108l64 -497l61 497h88zM311 724h-47l63 118h83z" />
<glyph horiz-adv-x="549" d="M428 171l66 504h36l-92 -675h-82l-93 497l-65 -497h-82l-98 675h108l64 -497l61 497h88zM268 849h55l82 -127h-46l-64 67l-66 -67h-42z" />
<glyph horiz-adv-x="549" d="M428 171l66 504h36l-92 -675h-82l-93 497l-65 -497h-82l-98 675h108l64 -497l61 497h88zM297 777q0 22 15 37t37 15t37 -15t15 -37t-15 -37t-37 -15t-37 15t-15 37zM175 777q0 22 15 37t37 15t37 -15t15 -37t-15 -37t-37 -15t-37 15t-15 37z" />
<glyph horiz-adv-x="549" d="M428 171l66 504h36l-92 -675h-82l-93 497l-65 -497h-82l-98 675h108l64 -497l61 497h88zM169 842h83l63 -118h-47z" />
<glyph horiz-adv-x="336" d="M11 675h113l82 -327l72 327h36l-88 -397v-278h-109v278zM192 777q0 22 15 37t37 15t37 -15t15 -37t-15 -37t-37 -15t-37 15t-15 37zM70 777q0 22 15 37t37 15t37 -15t15 -37t-15 -37t-37 -15t-37 15t-15 37z" />
<glyph horiz-adv-x="336" d="M11 675h113l82 -327l72 327h36l-88 -397v-278h-109v278zM149 849h55l82 -127h-46l-64 67l-66 -67h-42z" />
<glyph horiz-adv-x="336" d="M11 675h113l82 -327l72 327h36l-88 -397v-278h-109v278zM71 842h83l63 -118h-47z" />
<glyph horiz-adv-x="336" d="M11 675h113l82 -327l72 327h36l-88 -397v-278h-109v278zM195 724h-47l63 118h83z" />
<glyph horiz-adv-x="336" d="M11 675h113l82 -327l72 327h36l-88 -397v-278h-109v278zM69 736v56h202v-56h-202z" />
<glyph horiz-adv-x="284" d="M133 36h125v-36h-239v31l127 608h-114v36h229v-35zM163 724h-47l63 118h83z" />
<glyph horiz-adv-x="284" d="M133 36h125v-36h-239v31l127 608h-114v36h229v-35zM182 722h-55l-82 127h46l64 -68l66 68h42z" />
<glyph horiz-adv-x="284" d="M133 36h125v-36h-239v31l127 608h-114v36h229v-35zM102 772q0 23 16 39.5t39 16.5t39.5 -16.5t16.5 -39.5t-16.5 -39t-39.5 -16t-39 16t-16 39z" />
<glyph horiz-adv-x="378" d="M227 323q0 106 -2 169.5t-7.5 97.5t-14.5 44.5t-22 10.5q-20 0 -30 -21.5t-10 -78.5q0 -20 1.5 -46t3.5 -58h-101q-3 30 -3 59q0 40 6.5 73.5t22.5 57.5t41.5 37t63.5 13q48 0 80 -22t51 -66.5t27 -112t8 -158.5q0 -80 -6.5 -141t-24.5 -102.5t-49.5 -63t-80.5 -21.5 q-39 0 -67 14t-45.5 39t-25.5 59.5t-8 75.5v141h192zM182 30q14 0 22.5 10t13.5 38t7 78.5t2 130.5h-83v-146q0 -32 2 -53.5t6.5 -34.5t11.5 -18t18 -5z" />
<glyph horiz-adv-x="365" d="M51 0v675h109v-124h21q29 0 57 -8t50.5 -30t36.5 -59.5t14 -96.5t-14 -99t-38 -64.5t-55.5 -35t-65.5 -10.5h-6v-148h-109zM224 361q0 37 -1.5 65.5t-7 48t-17 30t-32.5 10.5h-6v-331h5q20 0 32 10t18 31.5t7.5 55t1.5 80.5z" />
<glyph horiz-adv-x="392" d="M53 0v318h-33v35h33v322h124q181 0 181 -329q0 -177 -49 -261.5t-137 -84.5h-119zM162 318v-282h6q17 0 31 7.5t23.5 38t15 91t5.5 166.5q0 93 -4.5 151.5t-13.5 91.5t-23.5 45t-33.5 12h-6v-286h51v-35h-51z" />
<glyph horiz-adv-x="509" d="M51 0v675h109v-675h-109zM460 232q0 -49 -3.5 -92.5t-17 -75.5t-41.5 -51t-76 -19q-74 0 -108 44t-34 122q0 14 1 28t3 30h104q-6 -65 -6 -103q0 -26 2.5 -42.5t7.5 -26t12.5 -13t16.5 -3.5q11 0 17 8t9 30t3.5 59.5t0.5 96.5v451h109v-443z" />
<glyph horiz-adv-x="530" d="M51 0v675h109v-675h-109zM481 232q0 -49 -3.5 -92.5t-17 -75.5t-41.5 -51t-76 -19q-74 0 -108 44t-34 122q0 14 1 28t3 30h104q-6 -65 -6 -103q0 -26 2.5 -42.5t7.5 -26t12.5 -13t16.5 -3.5q11 0 17 8t9 30t3.5 59.5t0.5 96.5v451h109v-443zM126 724h-47l63 118h83z M445 724h-47l63 118h83z" />
<glyph horiz-adv-x="488" d="M239 0q-21 -6 -45 -6q-49 0 -79.5 21.5t-48 63.5t-23.5 104t-6 144q0 89 7 155.5t25 110.5t49.5 66t80.5 22q25 0 46 -6h217v-36h-114v-166q2 -24 2.5 -50.5t1.5 -55.5h86v-36h-86q-1 -31 -1.5 -58.5t-2.5 -52.5v-184h117v-36h-226zM197 30q14 0 22 10.5t12 45.5t5 100 t1 175q0 90 -0.5 145.5t-4.5 86t-11.5 41.5t-22.5 11q-14 0 -23 -10.5t-14 -45.5t-7 -100.5t-2 -174.5q0 -90 1.5 -145.5t6.5 -86t13.5 -41.5t23.5 -11z" />
<glyph horiz-adv-x="682" d="M51 0v675h124q181 0 181 -329q0 -177 -49 -261.5t-137 -84.5h-119zM531 36h125v-36h-239v31l127 608h-114v36h229v-35zM160 639v-603h6q17 0 31 7.5t23.5 38t15 91t5.5 166.5q0 93 -4.5 151.5t-13.5 91.5t-23.5 45t-33.5 12h-6zM576 722h-55l-82 127h46l64 -68l66 68h42z " />
<glyph horiz-adv-x="608" d="M559 232q0 -49 -3.5 -92.5t-17 -75.5t-41.5 -51t-76 -19q-74 0 -108 44t-34 122q0 14 1 28t3 30h104q-6 -65 -6 -103q0 -26 2.5 -42.5t7.5 -26t12.5 -13t16.5 -3.5q11 0 17 8t9 30t3.5 59.5t0.5 96.5v451h109v-443zM160 675v-639h115v-36h-224v675h109z" />
<glyph horiz-adv-x="709" d="M278 0l-191 457v-457h-36v675h71l191 -464v464h36v-675h-71zM660 232q0 -49 -3.5 -92.5t-17 -75.5t-41.5 -51t-76 -19q-74 0 -108 44t-34 122q0 14 1 28t3 30h104q-6 -65 -6 -103q0 -26 2.5 -42.5t7.5 -26t12.5 -13t16.5 -3.5q11 0 17 8t9 30t3.5 59.5t0.5 96.5v451h109 v-443z" />
<glyph horiz-adv-x="679" d="M51 0v675h124q181 0 181 -329q0 -177 -49 -261.5t-137 -84.5h-119zM528 36h125v-36h-239v31l127 608h-114v36h229v-35zM160 639v-603h6q17 0 31 7.5t23.5 38t15 91t5.5 166.5q0 93 -4.5 151.5t-13.5 91.5t-23.5 45t-33.5 12h-6z" />
<glyph horiz-adv-x="181" d="M26 53q0 28 18 44t43 16q11 0 23 -4t21.5 -12.5t15.5 -22.5t6 -34q0 -59 -32 -107t-86 -74l-15 25q15 10 29.5 23t25.5 28t17.5 32.5t6.5 35.5q-16 -5 -29.5 -3.5t-23 9t-15 19t-5.5 25.5z" />
<glyph horiz-adv-x="179" d="M26 57q0 26 18.5 45t44.5 19t45 -19t19 -45t-19 -44.5t-45 -18.5t-44.5 18.5t-18.5 44.5z" />
<glyph horiz-adv-x="633" d="M26 57q0 26 18.5 45t44.5 19t45 -19t19 -45t-19 -44.5t-45 -18.5t-44.5 18.5t-18.5 44.5zM253 57q0 26 18.5 45t44.5 19t45 -19t19 -45t-19 -44.5t-45 -18.5t-44.5 18.5t-18.5 44.5zM480 57q0 26 18.5 45t44.5 19t45 -19t19 -45t-19 -44.5t-45 -18.5t-44.5 18.5 t-18.5 44.5z" />
<glyph horiz-adv-x="211" d="M42 57q0 26 18.5 45t44.5 19t45 -19t19 -45t-19 -44.5t-45 -18.5t-44.5 18.5t-18.5 44.5zM42 437q0 26 18.5 45t44.5 19t45 -19t19 -45t-19 -44.5t-45 -18.5t-44.5 18.5t-18.5 44.5z" />
<glyph horiz-adv-x="214" d="M41 437q0 26 18.5 45t44.5 19t45 -19t19 -45t-19 -44.5t-45 -18.5t-44.5 18.5t-18.5 44.5zM46 53q0 28 18 44t43 16q11 0 23 -4t21.5 -12.5t15.5 -22.5t6 -34q0 -59 -32 -107t-86 -74l-15 25q15 10 29.5 23t25.5 28t17.5 32.5t6.5 35.5q-16 -5 -29.5 -3.5t-23 9t-15 19 t-5.5 25.5z" />
<glyph horiz-adv-x="299" d="M277 512q0 -56 -18 -92t-39.5 -63t-39.5 -50.5t-18 -53.5v-32h-36v38q0 39 7.5 68.5t16.5 60t16.5 67.5t7.5 91q0 13 -1 30t-4 32t-9.5 25.5t-17.5 10.5q-17 0 -24 -24t-7 -56q0 -17 2 -33.5t4 -31.5h-97q-4 43 4.5 77t25.5 57.5t42 35.5t55 12q33 0 57.5 -14t40.5 -37.5 t24 -54t8 -63.5zM82 57q0 26 18.5 45t44.5 19t45 -19t19 -45t-19 -44.5t-45 -18.5t-44.5 18.5t-18.5 44.5z" />
<glyph horiz-adv-x="299" d="M22 163q0 56 18 92t39.5 63t39.5 50.5t18 53.5v32h36v-38q0 -39 -7.5 -68.5t-16.5 -60t-16.5 -67.5t-7.5 -91q0 -13 1 -30t4 -32t9.5 -25.5t17.5 -10.5q17 0 24 24t7 56q0 17 -2 33.5t-4 31.5h97q4 -44 -4.5 -77.5t-25.5 -57t-42 -35.5t-55 -12q-33 0 -57.5 14 t-40.5 37.5t-24 54t-8 63.5zM217 618q0 -26 -18.5 -45t-44.5 -19t-45 19t-19 45t19 44.5t45 18.5t44.5 -18.5t18.5 -44.5z" />
<glyph horiz-adv-x="192" d="M82 225q-20 113 -27.5 186.5t-7.5 121.5q0 27 1 53.5t5.5 47.5t14 34t27.5 13q19 0 29.5 -12.5t15.5 -33t6 -46t1 -51.5q0 -49 -7.5 -123.5t-28.5 -189.5h-29zM32 57q0 26 18.5 45t44.5 19t45 -19t19 -45t-19 -44.5t-45 -18.5t-44.5 18.5t-18.5 44.5z" />
<glyph horiz-adv-x="192" d="M111 450q21 -115 28.5 -189.5t7.5 -123.5q0 -26 -1 -52t-6 -46t-15.5 -32.5t-29.5 -12.5q-18 0 -27.5 13t-14 34t-5.5 47.5t-1 53.5q0 48 7.5 121.5t27.5 186.5h29zM32 618q0 26 18.5 44.5t44.5 18.5t45 -18.5t19 -44.5t-19 -45t-45 -19t-44.5 19t-18.5 45z" />
<glyph horiz-adv-x="276" d="M40 300v100h196v-100h-196z" />
<glyph horiz-adv-x="504" d="M32 327v53h440v-53h-440z" />
<glyph horiz-adv-x="1004" d="M32 327v53h940v-53h-940z" />
<glyph horiz-adv-x="390" d="M0 -138v53h390v-53h-390z" />
<glyph horiz-adv-x="633" d="M335 412q0 42 -6 64.5t-22 22.5q-15 0 -23 -19.5t-8 -48.5q0 -20 4 -41.5t13 -41.5h-99q-9 30 -9 58q0 54 32.5 89.5t94.5 35.5q34 0 59 -11.5t41 -31.5t23.5 -47t7.5 -58v-278q0 -27 6.5 -45.5t26.5 -18.5q16 0 31.5 14t28.5 45.5t21 81.5t8 121q0 83 -12.5 148t-41 110 t-73.5 68.5t-110 23.5q-75 0 -126.5 -30t-84 -82.5t-46.5 -122.5t-14 -150q0 -102 21 -175t60 -119.5t93.5 -68.5t121.5 -22q26 0 56 4t72 16v-28q-37 -10 -69.5 -15t-66.5 -5q-61 0 -118.5 19.5t-102 66.5t-71.5 126.5t-27 198.5q0 111 24 189.5t65 129t97 73.5t119 23 q131 0 199.5 -94t68.5 -284q0 -89 -14.5 -148t-37 -95t-51 -51t-56.5 -15q-35 0 -62.5 20t-38.5 59q-4 -14 -10.5 -28t-17 -25t-25 -18.5t-33.5 -7.5q-24 0 -40.5 11.5t-27 31t-15 44.5t-4.5 52q0 45 12 75t33 48t48.5 25t59.5 7h16v124zM332 256q-32 0 -42.5 -29t-10.5 -79 q0 -16 1 -32t4 -28.5t8.5 -20.5t14.5 -8q14 0 21 20t7 52v125h-3z" />
<glyph horiz-adv-x="422" d="M152 -6q-30 0 -54.5 13t-41.5 35t-26 51t-9 61q0 51 20 90.5t50 68.5q-23 92 -23 176q0 102 34 147t90 45q30 0 50 -11.5t31 -29t15.5 -38.5t4.5 -41q0 -37 -11.5 -60.5t-31.5 -43.5l-13 8q11 23 15.5 46t4.5 46q0 38 -12 64t-32 26q-13 0 -20.5 -10.5t-12 -27.5 t-6 -38.5t-1.5 -43.5q0 -70 10.5 -132.5t27.5 -114.5t38 -91.5t43 -63.5q9 34 9 83q0 45 -6.5 73.5t-18.5 45.5t-28.5 23.5t-35.5 6.5h-2v31h188v-31h-64q16 -18 24.5 -45.5t8.5 -53.5q0 -22 -6 -43.5t-15 -41t-19.5 -35.5t-20.5 -27q22 -19 41 -19q11 0 15.5 6.5t8.5 19.5 l25 -7q0 -22 -7 -43t-20 -37.5t-30 -26.5t-37 -10q-34 0 -68 29q-18 -14 -38.5 -21.5t-43.5 -7.5zM97 286q-15 -20 -27.5 -50.5t-12.5 -74.5q0 -58 25 -96t73 -38q30 0 60 16q-37 41 -67.5 105t-50.5 138z" />
<glyph horiz-adv-x="221" d="M52 0h-36l154 675h36z" />
<glyph horiz-adv-x="221" d="M15 675h36l154 -675h-36z" />
<glyph horiz-adv-x="142" d="M53 0v675h36v-675h-36z" />
<glyph horiz-adv-x="195" d="M187 702q-30 -42 -52 -93.5t-37 -107t-22.5 -111.5t-7.5 -107q0 -50 7.5 -104.5t22 -108.5t36.5 -105.5t52 -94.5h-39q-27 41 -48.5 90t-36.5 103t-22.5 111t-7.5 113q0 115 29.5 221t88.5 194h37v0z" />
<glyph horiz-adv-x="195" d="M8 -130q30 42 52 93.5t37 107t22.5 111.5t7.5 107q0 50 -7.5 104.5t-22 108.5t-36.5 105.5t-52 94.5h39q27 -41 48.5 -90t36.5 -103t22.5 -111t7.5 -113q0 -115 -29.5 -221t-88.5 -194h-37v0z" />
<glyph horiz-adv-x="193" d="M53 -129v836h122v-32h-85v-773h85v-31h-122z" />
<glyph horiz-adv-x="193" d="M18 -129v31h85v773h-85v32h122v-836h-122z" />
<glyph horiz-adv-x="244" d="M117 -36q0 -22 11 -41.5t40 -19.5h59v-32h-47q-55 0 -77.5 28.5t-22.5 82.5v207q0 13 -3.5 27t-11.5 25.5t-21 19t-32 7.5v32q38 1 53 25t15 52v219q0 54 22.5 82.5t77.5 28.5h47v-32h-59q-29 0 -40 -19.5t-11 -41.5v-236q0 -34 -19 -59.5t-56 -33.5q43 -14 59 -39 t16 -57v-225z" />
<glyph horiz-adv-x="244" d="M127 189q0 32 16 57t58 39q-36 8 -55 33.5t-19 59.5v236q0 22 -11 41.5t-40 19.5h-59v32h47q55 0 77.5 -28.5t22.5 -82.5v-219q0 -28 15 -52t53 -25v-32q-19 0 -32 -7.5t-21 -19t-11.5 -25.5t-3.5 -27v-207q0 -54 -22.5 -82.5t-77.5 -28.5h-47v32h59q29 0 40 19.5 t11 41.5v225z" />
<glyph horiz-adv-x="362" d="M35 375l124 300h41l125 -300h-36l-110 266l-108 -266h-36z" />
<glyph horiz-adv-x="416" d="M385 351q-21 -22 -44.5 -29.5t-43.5 -7.5t-41.5 5.5t-43 12.5t-44 12.5t-44.5 5.5q-25 0 -49 -9.5t-43 -34.5v35q18 23 42 33.5t49 10.5q19 0 41 -5.5t45 -12.5t46 -12.5t44 -5.5q53 0 87 37z" />
<glyph horiz-adv-x="332" d="M304 521q0 -33 -7.5 -61.5t-24 -49t-43 -32.5t-63.5 -12t-63.5 12t-43 32.5t-24 49t-7.5 61.5q0 31 7 60t23.5 51.5t43 35.5t64.5 13t64.5 -13t43 -35.5t23.5 -51.5t7 -60zM217 518q0 37 -4 61.5t-10.5 39t-16 20.5t-21.5 6q-9 0 -18 -4.5t-16 -17.5t-11 -37.5t-4 -63.5 t4 -62t11 -36t16 -17t20 -4t20 4t16 16.5t10.5 35t3.5 59.5z" />
<glyph horiz-adv-x="430" d="M356 26q0 -31 -8.5 -62t-26.5 -56t-47.5 -41t-71.5 -16q-66 0 -105.5 39.5t-39.5 108.5q0 30 9 66h81q-12 -42 -12 -76q0 -48 19 -75t48 -27q18 0 29.5 10t18 25t9.5 33.5t3 35.5q0 27 -6.5 46t-22 37.5t-41 41t-64.5 56.5q-17 15 -37 33t-37 38.5t-28.5 41.5t-11.5 41 q0 26 22.5 51.5t69.5 39.5q-16 22 -25 47t-9 55q0 25 7.5 53.5t24.5 52.5t44 40t66 16q65 0 101 -42.5t36 -108.5q0 -32 -9 -66h-81q12 40 12 76q0 45 -16.5 75t-44.5 30q-14 0 -23.5 -8t-15.5 -20.5t-8.5 -27.5t-2.5 -29q0 -33 12.5 -59t33.5 -48t49 -43.5t59 -45.5 q46 -35 73 -65.5t27 -69.5q0 -42 -27.5 -67.5t-65.5 -30.5q16 -22 24.5 -47t8.5 -58zM238 303q-32 23 -63.5 46.5t-55.5 52.5q-18 -18 -18 -39q0 -29 31 -60.5t74 -65.5q32 -26 58.5 -47.5t45.5 -43.5q31 15 31 39q0 23 -28.5 53t-74.5 65z" />
<glyph horiz-adv-x="352" d="M305 296q0 -27 -10 -50.5t-27.5 -41t-41 -27.5t-50.5 -10t-50.5 10t-41 27.5t-27.5 41t-10 50.5t10 50.5t27.5 41t41 27.5t50.5 10t50.5 -10t41 -27.5t27.5 -41t10 -50.5z" />
<glyph horiz-adv-x="426" d="M327 0v639h-50v-639h-109v272h-6q-20 0 -45 12.5t-47 37.5t-36.5 62.5t-14.5 88.5q0 97 55 149.5t148 52.5h177v-36h-36v-639h-36z" />
<glyph horiz-adv-x="431" d="M325 472h86v-36h-90l-19 -197h89v-36h-92l-19 -203h-36l19 203h-124l-19 -203h-36l19 203h-83v36h86l19 197h-85v36h89l19 203h36l-19 -203h124l19 203h36zM142 239h124l19 197h-124z" />
<glyph horiz-adv-x="585" d="M170 0h-36l286 675h36zM294 521q0 -33 -7.5 -61.5t-24 -49t-43 -32.5t-63.5 -12t-63.5 12t-43 32.5t-24 49t-7.5 61.5q0 31 7 60t23.5 51.5t43 35.5t64.5 13t64.5 -13t43 -35.5t23.5 -51.5t7 -60zM207 518q0 37 -4 61.5t-10.5 39t-16 20.5t-21.5 6q-9 0 -18 -4.5 t-16 -17.5t-11 -37.5t-4 -63.5t4 -62t11 -36t16 -17t20 -4t20 4t16 16.5t10.5 35t3.5 59.5zM567 148q0 -33 -7.5 -61.5t-24 -49t-43 -32.5t-63.5 -12t-63.5 12t-43 32.5t-24 49t-7.5 61.5q0 31 7 60t23.5 51.5t43 35.5t64.5 13t64.5 -13t43 -35.5t23.5 -51.5t7 -60zM480 145 q0 37 -4 61.5t-10.5 39t-16 20.5t-21.5 6q-9 0 -18 -4.5t-16 -17.5t-11 -37.5t-4 -63.5t4 -62t11 -36t16 -17t20 -4t20 4t16 16.5t10.5 35t3.5 59.5z" />
<glyph horiz-adv-x="884" d="M170 0h-36l286 675h36zM294 521q0 -33 -7.5 -61.5t-24 -49t-43 -32.5t-63.5 -12t-63.5 12t-43 32.5t-24 49t-7.5 61.5q0 31 7 60t23.5 51.5t43 35.5t64.5 13t64.5 -13t43 -35.5t23.5 -51.5t7 -60zM207 518q0 37 -4 61.5t-10.5 39t-16 20.5t-21.5 6q-9 0 -18 -4.5 t-16 -17.5t-11 -37.5t-4 -63.5t4 -62t11 -36t16 -17t20 -4t20 4t16 16.5t10.5 35t3.5 59.5zM567 148q0 -33 -7.5 -61.5t-24 -49t-43 -32.5t-63.5 -12t-63.5 12t-43 32.5t-24 49t-7.5 61.5q0 31 7 60t23.5 51.5t43 35.5t64.5 13t64.5 -13t43 -35.5t23.5 -51.5t7 -60zM480 145 q0 37 -4 61.5t-10.5 39t-16 20.5t-21.5 6q-9 0 -18 -4.5t-16 -17.5t-11 -37.5t-4 -63.5t4 -62t11 -36t16 -17t20 -4t20 4t16 16.5t10.5 35t3.5 59.5zM867 148q0 -33 -7.5 -61.5t-24 -49t-43 -32.5t-63.5 -12t-63.5 12t-43 32.5t-24 49t-7.5 61.5q0 31 7 60t23.5 51.5 t43 35.5t64.5 13t64.5 -13t43 -35.5t23.5 -51.5t7 -60zM780 145q0 37 -4 61.5t-10.5 39t-16 20.5t-21.5 6q-9 0 -18 -4.5t-16 -17.5t-11 -37.5t-4 -63.5t4 -62t11 -36t16 -17t20 -4t20 4t16 16.5t10.5 35t3.5 59.5z" />
<glyph horiz-adv-x="286" d="M157 689q0 30 -4.5 47t-15.5 17t-17 -14.5t-6 -36.5q0 -30 12 -60h-71q-7 21 -7 44q0 39 23.5 64.5t68.5 25.5q51 0 73.5 -31t22.5 -77v-280h-71l-7 45q-7 -18 -21 -33.5t-39 -15.5q-17 0 -29.5 8.5t-20 22.5t-11 32t-3.5 38q0 33 9 55t24 34.5t35.5 18t43.5 5.5h11v91z M49 343h199v-31h-199v31zM155 575q-23 0 -31 -21t-8 -58q0 -12 0.5 -23.5t3 -21t6.5 -15.5t11 -6q9 0 14 12t6 32v101h-2z" />
<glyph horiz-adv-x="290" d="M48 343h199v-31h-199v31zM144 407q7 0 11 5.5t6.5 26t3 59.5t0.5 106q0 47 -0.5 76.5t-2.5 45.5t-6.5 21.5t-11.5 5.5t-11.5 -5t-6.5 -23t-3 -52t-1 -92t1 -92.5t3 -52.5t6.5 -23.5t11.5 -5.5zM144 384q-25 0 -44.5 9t-32.5 31t-20 60t-7 95q0 56 6.5 93.5t19.5 60.5 t33 33t46 10q25 0 44 -9t32 -31.5t19.5 -60.5t6.5 -95q0 -56 -6.5 -93.5t-19 -60.5t-32 -32.5t-45.5 -9.5z" />
<glyph horiz-adv-x="357" d="M25 451h135v224h37v-224h135v-35h-135v-546h-37v546h-135v35z" />
<glyph horiz-adv-x="357" d="M25 451h135v224h37v-224h135v-35h-135v-285h135v-35h-135v-226h-37v226h-135v35h135v285h-135v35z" />
<glyph horiz-adv-x="118" d="M41 435v240h36v-240h-36z" />
<glyph horiz-adv-x="248" d="M41 435v240h36v-240h-36zM171 435v240h36v-240h-36z" />
<glyph horiz-adv-x="353" d="M154 489q0 -28 -18 -44t-43 -16q-11 0 -23 4t-21.5 12.5t-15.5 22.5t-6 34q0 59 32 107t86 74l15 -25q-15 -10 -29.5 -23t-25.5 -28t-17.5 -32.5t-6.5 -35.5q16 5 29.5 3.5t23 -9t15 -19t5.5 -25.5zM320 489q0 -28 -18 -44t-43 -16q-11 0 -23 4t-21.5 12.5t-15.5 22.5 t-6 34q0 59 32 107t86 74l15 -25q-15 -10 -29.5 -23t-25.5 -28t-17.5 -32.5t-6.5 -35.5q16 5 29.5 3.5t23 -9t15 -19t5.5 -25.5z" />
<glyph horiz-adv-x="353" d="M35 621q0 28 18 44t43 16q11 0 23 -4t21.5 -12.5t15.5 -22.5t6 -34q0 -59 -32 -107t-86 -74l-15 25q15 10 29.5 23t25.5 28t17.5 32.5t6.5 35.5q-16 -5 -29.5 -3.5t-23 9t-15 19t-5.5 25.5zM201 621q0 28 18 44t43 16q11 0 23 -4t21.5 -12.5t15.5 -22.5t6 -34 q0 -59 -32 -107t-86 -74l-15 25q15 10 29.5 23t25.5 28t17.5 32.5t6.5 35.5q-16 -5 -29.5 -3.5t-23 9t-15 19t-5.5 25.5z" />
<glyph horiz-adv-x="187" d="M154 489q0 -28 -18 -44t-43 -16q-11 0 -23 4t-21.5 12.5t-15.5 22.5t-6 34q0 59 32 107t86 74l15 -25q-15 -10 -29.5 -23t-25.5 -28t-17.5 -32.5t-6.5 -35.5q16 5 29.5 3.5t23 -9t15 -19t5.5 -25.5z" />
<glyph horiz-adv-x="187" d="M35 621q0 28 18 44t43 16q11 0 23 -4t21.5 -12.5t15.5 -22.5t6 -34q0 -59 -32 -107t-86 -74l-15 25q15 10 29.5 23t25.5 28t17.5 32.5t6.5 35.5q-16 -5 -29.5 -3.5t-23 9t-15 19t-5.5 25.5z" />
<glyph horiz-adv-x="181" d="M26 53q0 28 18 44t43 16q11 0 23 -4t21.5 -12.5t15.5 -22.5t6 -34q0 -59 -32 -107t-86 -74l-15 25q15 10 29.5 23t25.5 28t17.5 32.5t6.5 35.5q-16 -5 -29.5 -3.5t-23 9t-15 19t-5.5 25.5z" />
<glyph horiz-adv-x="349" d="M26 53q0 28 18 44t43 16q11 0 23 -4t21.5 -12.5t15.5 -22.5t6 -34q0 -59 -32 -107t-86 -74l-15 25q15 10 29.5 23t25.5 28t17.5 32.5t6.5 35.5q-16 -5 -29.5 -3.5t-23 9t-15 19t-5.5 25.5zM194 53q0 28 18 44t43 16q11 0 23 -4t21.5 -12.5t15.5 -22.5t6 -34 q0 -59 -32 -107t-86 -74l-15 25q15 10 29.5 23t25.5 28t17.5 32.5t6.5 35.5q-16 -5 -29.5 -3.5t-23 9t-15 19t-5.5 25.5z" />
<glyph horiz-adv-x="216" d="M169 53l-152 187v36l151 200l19 -13l-96 -203l96 -192z" />
<glyph horiz-adv-x="216" d="M47 480l152 -187v-36l-151 -200l-19 13l96 203l-96 192z" />
<glyph horiz-adv-x="348" d="M169 53l-152 187v36l151 200l19 -13l-96 -203l96 -192zM301 53l-152 187v36l151 200l19 -13l-96 -203l96 -192z" />
<glyph horiz-adv-x="349" d="M30 68l96 192l-96 203l19 13l151 -200v-36l-152 -187zM180 480l152 -187v-36l-151 -200l-19 13l96 203l-96 192z" />
<glyph horiz-adv-x="335" d="M30 439l110 81l-106 78l19 28l98 -72v119h36v-119l95 69l20 -29l-103 -75l104 -76l-18 -29l-98 72v-116h-36v114l-101 -73z" />
<glyph horiz-adv-x="185" d="M29 309q0 26 18.5 45t44.5 19t45 -19t19 -45t-19 -44.5t-45 -18.5t-44.5 18.5t-18.5 44.5z" />
<glyph horiz-adv-x="140" d="M52 414v261h36v-261h-36zM52 0v261h36v-261h-36z" />
<glyph horiz-adv-x="359" d="M26 371h307v-35h-307v35z" />
<glyph horiz-adv-x="352" d="M23 371h140v136h35v-136h132v-35h-132v-136h-35v136h-140v35z" />
<glyph horiz-adv-x="311" d="M33 255l99 99l-96 96l25 25l96 -96l93 93l25 -25l-93 -93l96 -96l-25 -25l-96 96l-99 -99z" />
<glyph horiz-adv-x="238" d="M205 83l-191 261v16l191 274v-56l-155 -224l155 -214v-57z" />
<glyph horiz-adv-x="399" d="M46 281h307v-35h-307v35zM46 451h307v-35h-307v35z" />
<glyph horiz-adv-x="238" d="M33 140l155 214l-155 224v56l191 -274v-16l-191 -261v57z" />
<glyph horiz-adv-x="516" d="M133 234q15 0 30 10t29 25.5t26.5 35.5t23.5 40q-34 66 -59 94.5t-49 28.5q-25 0 -47 -29.5t-22 -89.5t21.5 -87.5t46.5 -27.5zM380 236q28 0 49.5 28.5t21.5 89.5q0 33 -7 55t-17 35t-21.5 18.5t-21.5 5.5q-16 0 -31 -11.5t-29 -29.5t-26 -40t-22 -43q29 -56 53 -82 t51 -26zM377 204q-36 0 -62.5 29t-55.5 87q-29 -54 -58 -86t-67 -32q-18 0 -36.5 8t-34 26t-25 46t-9.5 68q0 42 10.5 70.5t26 46t34.5 25.5t36 8q38 0 66 -34t55 -89q28 54 57 88.5t68 34.5q18 0 37 -8.5t34 -26t24.5 -45t9.5 -65.5t-9.5 -66t-25 -47t-35 -28.5t-40.5 -9.5 z" />
<glyph horiz-adv-x="387" d="M40 371h140v136h35v-136h132v-35h-132v-136h-35v136h-140v35zM40 105h307v-35h-307v35z" />
<glyph horiz-adv-x="297" d="M261 113l-230 226v21l230 254v-47l-191 -215l191 -191v-48zM27 85h237v-35h-237v35z" />
<glyph horiz-adv-x="399" d="M277 452h76v-35h-97l-81 -135h178v-35h-199l-51 -86h-38l52 86h-71v35h92l81 135h-173v35h194l56 92h37z" />
<glyph horiz-adv-x="297" d="M36 161l191 190l-191 216v47l230 -254v-21l-230 -226v48zM270 50h-237v35h237v-35z" />
<glyph horiz-adv-x="355" d="M24 370h307v-35h-307v35zM122 233q0 23 16.5 40t39.5 17q24 0 41 -17t17 -40q0 -24 -17 -40.5t-41 -16.5q-23 0 -39.5 16.5t-16.5 40.5zM122 475q0 23 16.5 40t39.5 17q24 0 41 -17t17 -40q0 -24 -17 -40.5t-41 -16.5q-23 0 -39.5 16.5t-16.5 40.5z" />
<glyph horiz-adv-x="421" d="M32 370h347v-171h-35v136h-312v35z" />
<glyph horiz-adv-x="442" d="M397 432q-21 -22 -44.5 -29.5t-43.5 -7.5t-41.5 5.5t-43 12.5t-44 12.5t-44.5 5.5q-25 0 -49 -9.5t-43 -34.5v35q18 23 42 33.5t49 10.5q19 0 41 -5.5t45 -12.5t46 -12.5t44 -5.5q53 0 87 37zM397 272q-21 -22 -44.5 -29.5t-43.5 -7.5t-41.5 5.5t-43 12.5t-44 12.5 t-44.5 5.5q-25 0 -49 -9.5t-43 -34.5v35q18 23 42 33.5t49 10.5q19 0 41 -5.5t45 -12.5t46 -12.5t44 -5.5q53 0 87 37z" />
<glyph horiz-adv-x="319" d="M12 493h38l102 -413l118 622h37l-136 -702h-36z" />
<glyph horiz-adv-x="341" d="M27 250q0 131 35 206t111 76q-11 39 -27.5 72.5t-42.5 64.5l11 14q42 -32 78 -73.5t62.5 -96t41.5 -122t15 -151.5q0 -128 -36 -187t-106 -59t-106 60.5t-36 195.5zM198 229q0 83 -3 149t-14 120q-8 2 -10 2q-11 0 -17 -9t-9 -33.5t-4 -67t-1 -109.5q0 -78 1 -127.5 t4 -78t8.5 -39t14.5 -10.5t15 10.5t9.5 34.5t4.5 62.5t1 95.5z" />
<glyph horiz-adv-x="273" d="M26 33l88 302l-88 306v34h222v-37h-115l77 -278v-25l-80 -299h118v-36h-222v33z" />
<glyph horiz-adv-x="413" d="M53 0v675h307v-675h-109v639h-89v-639h-109z" />
<glyph horiz-adv-x="339" d="M14 325l140 350h35l136 -348l-134 -327h-37zM290 326l-120 315l-120 -316l122 -295z" />
<glyph horiz-adv-x="256" d="M9 -93h17q17 0 27 14t15 38t6.5 57t1.5 71v380q0 104 40 156t100 52h31v-36h-34q-14 0 -21.5 -14t-11.5 -38t-5 -57t-1 -72v-379q0 -103 -38.5 -155.5t-101.5 -52.5h-25v36z" />
<glyph horiz-adv-x="372" d="M214 58q-7 -19 -20 -36t-36 -24v-142h-108v669h108v-412q1 -23 5.5 -38.5t20.5 -15.5q17 0 23.5 20.5t6.5 51.5v394h108v-525h-108v58z" />
<glyph horiz-adv-x="391" d="M63 0v493h-40v32h345v-32h-40v-493h-109v493h-48v-493h-108z" />
<glyph horiz-adv-x="348" d="M137 675h82l113 -675h-317zM57 37h161l-75 471z" />
<glyph horiz-adv-x="348" d="M137 675h82l113 -675h-317zM57 37h161l-75 471z" />
<glyph horiz-adv-x="265" d="M22 33l88 302l-88 306v34h222v-37h-115l77 -278v-25l-80 -299h118v-36h-222v33z" />
<glyph horiz-adv-x="390" d="M37 79h116v19q-26 15 -46 38t-34 56.5t-21.5 79.5t-7.5 107q0 64 9 119t28 95.5t49 64t73 23.5q39 0 66.5 -20.5t44 -58.5t24 -92.5t7.5 -123.5q0 -64 -6 -108.5t-19 -76.5t-33.5 -56t-48.5 -48v-18h115v-79h-139v103q13 14 20.5 38.5t11 53t4 58t0.5 54.5q0 69 -2 130.5 t-7.5 107.5t-15.5 73t-26 27t-27.5 -25.5t-18.5 -67.5t-10 -95.5t-3 -110.5q0 -32 1.5 -65.5t5 -65.5t11 -61t19.5 -51v-103h-140v79z" />
<glyph d="M116 575h-41l34 137h86z" />
<glyph d="M65 712h86l34 -137h-41z" />
<glyph horiz-adv-x="265" d="M98 722h55l81 -147h-46l-63 82l-67 -82h-42z" />
<glyph d="M5 650q0 22 15 37t37 15t37 -15t15 -37t-15 -37t-37 -15t-37 15t-15 37zM127 650q0 22 15 37t37 15t37 -15t15 -37t-15 -37t-37 -15t-37 15t-15 37z" />
<glyph horiz-adv-x="259" d="M243 709q0 -101 -68 -101q-15 0 -30 4t-29.5 9t-29 9t-28.5 4q-12 0 -24.5 -6t-16.5 -27h-16q0 53 21 77t49 24q13 0 24.5 -4t24 -8.5t26.5 -8.5t32 -4q14 0 29.5 5.5t18.5 26.5h17v0z" />
<glyph d="M21 618v56h202v-56h-202z" />
<glyph d="M228 712q0 -37 -8 -61.5t-22.5 -38.5t-34.5 -20t-44 -6q-25 0 -45 6t-33.5 20.5t-21 39t-7.5 60.5h17q0 -18 9 -29.5t22 -18t28.5 -9t29.5 -2.5q15 0 31.5 2.5t30 9.5t22.5 18t9 29h17v0z" />
<glyph d="M76 643q0 23 15 38t37 15q23 0 38 -15t15 -38q0 -22 -15 -37t-38 -15q-22 0 -37 15t-15 37z" />
<glyph d="M208 669q0 -48 -24.5 -72t-64.5 -24q-41 0 -64 24.5t-23 70.5q0 49 25 73.5t63 24.5q39 0 63.5 -24.5t24.5 -72.5zM155 670q0 45 -9.5 62t-25.5 17t-25 -17.5t-9 -61.5q0 -80 33 -80q16 0 26 18.5t10 61.5z" />
<glyph d="M200 -140q0 -26 -9 -43.5t-23 -28t-33 -15t-38 -4.5q-48 0 -77 23v22q8 -10 27 -17t36 -7q15 0 24.5 6.5t14.5 16t6.5 21.5t1.5 23t-2 25.5t-9 27t-20.5 21.5t-36.5 9h-18l10 77h71l-40 -60q54 0 84.5 -24.5t30.5 -72.5z" />
<glyph d="M176 575h-41l34 137h86zM73 575h-41l34 137h86z" />
<glyph d="M195 -189q-11 -6 -30 -10t-36 -4q-34 0 -59.5 20t-25.5 62q0 26 9.5 47t25 36.5t36.5 27t45 19.5l27 -3q-40 -21 -56.5 -55.5t-16.5 -72.5q0 -33 11 -45t29 -12q8 0 19 2t22 8v-20v0z" />
<glyph d="M150 575h-55l-83 147h46l65 -83l65 83h42z" />
<glyph d="M114 724h-47l63 118h83z" />
<glyph d="M228 840q0 -37 -8 -61.5t-22.5 -38.5t-34.5 -20t-44 -6q-25 0 -45 6t-33.5 20.5t-21 39t-7.5 60.5h17q0 -18 9 -29.5t22 -18t28.5 -9t29.5 -2.5q15 0 31.5 2.5t30 9.5t22.5 18t9 29h17v0z" />
<glyph horiz-adv-x="261" d="M153 722h-55l-82 127h46l64 -68l66 68h42z" />
<glyph d="M97 849h55l82 -127h-46l-64 67l-66 -67h-42z" />
<glyph d="M12 777q0 22 15 37t37 15t37 -15t15 -37t-15 -37t-37 -15t-37 15t-15 37zM134 777q0 22 15 37t37 15t37 -15t15 -37t-15 -37t-37 -15t-37 15t-15 37z" />
<glyph d="M71 772q0 23 16 39.5t39 16.5t39.5 -16.5t16.5 -39.5t-16.5 -39t-39.5 -16t-39 16t-16 39z" />
<glyph d="M174 724h-47l63 118h83zM59 724h-47l63 118h83z" />
<glyph d="M47 842h83l63 -118h-47z" />
<glyph d="M21 736v56h202v-56h-202z" />
<glyph d="M243 836q0 -101 -68 -101q-15 0 -30 4t-29.5 9t-29 9t-28.5 4q-12 0 -24.5 -6t-16.5 -27h-16q0 53 21 77t49 24q13 0 24.5 -4t24 -8.5t26.5 -8.5t32 -4q14 0 29.5 5.5t18.5 26.5h17v0z" />
<glyph d="M123 -244h-28l-1 183h78z" />
<glyph d="M208 800q0 -48 -24.5 -72t-64.5 -24q-41 0 -64 24.5t-23 70.5q0 49 25 73.5t63 24.5q39 0 63.5 -24.5t24.5 -72.5zM155 801q0 45 -9.5 62t-25.5 17t-25 -17.5t-9 -61.5q0 -80 33 -80q16 0 26 18.5t10 61.5z" />
<glyph horiz-adv-x="582" d="M457 182v317l-68 -317h-59l-72 315v-315h-26v493h59l91 -395l85 395h66v-493h-76zM15 675h200v-26h-59v-467h-79v467h-62v26z" />
<glyph horiz-adv-x="632" d="M506 182v317l-68 -317h-59l-72 315v-315h-26v493h59l91 -395l85 395h66v-493h-76zM246 312q0 -26 -6 -50.5t-19.5 -43t-34.5 -29.5t-52 -11q-51 0 -76 32.5t-25 90.5q0 8 0.5 16.5t1.5 16.5h73q-1 -12 -1.5 -23t-0.5 -21q0 -42 8.5 -64t25.5 -22q9 0 14.5 6.5t8.5 17.5 t4 25t1 28q0 38 -8 64.5t-37 52.5q-11 11 -26 23t-28.5 29.5t-23 41.5t-9.5 58q0 24 5.5 47t18 41.5t32 29.5t47.5 11q51 0 73 -35t22 -92v-15.5t-1 -15.5h-74q2 8 2.5 21.5t0.5 28.5t-1.5 29.5t-4.5 26t-9 19t-15 7.5q-10 0 -18 -12.5t-8 -53.5q0 -31 5.5 -50t15.5 -32.5 t23.5 -24.5t29.5 -25q12 -11 23.5 -24t21 -30t15.5 -39t6 -50z" />
<glyph horiz-adv-x="623" d="M312 184q-54 0 -100 19.5t-79.5 53t-52.5 79t-19 98.5q0 52 19 98t53 80t79.5 53.5t99.5 19.5t100 -19.5t79.5 -53.5t52 -80t18.5 -98t-19 -97.5t-53 -79.5t-79.5 -53.5t-98.5 -19.5zM312 227q46 0 82.5 15t62 42.5t39 65.5t13.5 84t-13.5 84.5t-39 66t-62 42.5t-82.5 15 q-47 0 -83.5 -15t-62 -42.5t-39 -66t-13.5 -84.5t13.5 -84t39 -65.5t62 -42.5t83.5 -15zM381 508q0 -40 -20 -55t-48 -19q10 0 21.5 -2t20.5 -7.5t15.5 -16t7.5 -27.5v-26q0 -17 1 -32.5t5 -32.5h-47q-4 15 -5 28t-1 27v24q0 37 -9 47t-19 10v-136h-47v294h57q13 0 25.5 -3 t22 -11.5t15 -23t5.5 -38.5zM332 503q0 30 -3.5 47.5t-22.5 17.5h-3v-127h1q17 0 22.5 15.5t5.5 46.5z" />
<glyph horiz-adv-x="799" d="M400 -7q-74 0 -137.5 27t-110.5 74t-73.5 110t-26.5 134t27.5 134t74.5 110t110.5 74t135.5 27q75 0 138 -27t109.5 -74t72.5 -110t26 -134t-27 -134t-74 -110t-110 -74t-135 -27zM400 49q63 0 114.5 21t89 59.5t58 91.5t20.5 117t-20.5 117t-58 91.5t-89 60t-114.5 21.5 t-115.5 -21.5t-90 -60t-58 -91.5t-20.5 -117t21.5 -117t59.5 -91.5t90 -59.5t113 -21zM497 263q1 -10 1.5 -19.5t0.5 -18.5q0 -60 -23.5 -98t-80.5 -38q-36 0 -59 15.5t-36 45.5t-18 74.5t-5 103.5q0 67 5.5 116.5t19.5 81.5t37.5 48t58.5 16q28 0 46.5 -9.5t30 -27 t16.5 -42t5 -53.5q0 -11 -0.5 -21.5t-1.5 -21.5h-74q2 24 3 43t1 34q0 41 -7 56.5t-22 15.5q-11 0 -17.5 -8t-10 -33t-5 -73t-1.5 -127q0 -66 1 -106.5t4.5 -63t10 -30.5t17.5 -8q16 0 24 16.5t8 63.5q0 27 -3 68h74z" />
<glyph horiz-adv-x="799" d="M400 -7q-74 0 -137.5 27t-110.5 74t-73.5 110t-26.5 134t27.5 134t74.5 110t110.5 74t135.5 27q75 0 138 -27t109.5 -74t72.5 -110t26 -134t-27 -134t-74 -110t-110 -74t-135 -27zM400 49q63 0 114.5 21t89 59.5t58 91.5t20.5 117t-20.5 117t-58 91.5t-89 60t-114.5 21.5 t-115.5 -21.5t-90 -60t-58 -91.5t-20.5 -117t21.5 -117t59.5 -91.5t90 -59.5t113 -21zM528 442q0 -42 -10.5 -71t-27.5 -47t-40 -26t-48 -8h-5v-199h-79v493h95q21 0 41.5 -6t37 -22t26.5 -43.5t10 -70.5zM445 445q0 54 -6.5 83.5t-36.5 29.5h-5v-242h4q29 0 36.5 29.5 t7.5 99.5z" />
<glyph horiz-adv-x="799" d="M400 -7q-74 0 -137.5 27t-110.5 74t-73.5 110t-26.5 134t27.5 134t74.5 110t110.5 74t135.5 27q75 0 138 -27t109.5 -74t72.5 -110t26 -134t-27 -134t-74 -110t-110 -74t-135 -27zM400 49q63 0 114.5 21t89 59.5t58 91.5t20.5 117t-20.5 117t-58 91.5t-89 60t-114.5 21.5 t-115.5 -21.5t-90 -60t-58 -91.5t-20.5 -117t21.5 -117t59.5 -91.5t90 -59.5t113 -21zM318 249q17 0 28 24t28 58q-9 18 -16 35t-13.5 30t-13 21t-14.5 8q-14 0 -22 -24.5t-8 -65.5q0 -37 7 -61.5t24 -24.5zM477 251q17 0 25 22.5t8 63.5q0 40 -7.5 62t-21.5 22 q-8 0 -15.5 -7.5t-14.5 -20t-14 -29t-15 -33.5q17 -34 27.5 -57t27.5 -23zM492 183q-26 0 -50 26t-44 66q-19 -37 -43 -65.5t-51 -28.5q-17 0 -31.5 12t-25 33t-17 49t-6.5 60q0 34 7 63t18.5 50t26 33t29.5 12q27 0 50 -28.5t44 -72.5q22 44 46.5 72.5t50.5 28.5 q17 0 31.5 -12.5t25.5 -33.5t17 -48.5t6 -58.5q0 -30 -6 -58.5t-17.5 -50.5t-27 -35t-33.5 -13z" />
<glyph horiz-adv-x="799" d="M400 -7q-74 0 -137.5 27t-110.5 74t-73.5 110t-26.5 134t27.5 134t74.5 110t110.5 74t135.5 27q75 0 138 -27t109.5 -74t72.5 -110t26 -134t-27 -134t-74 -110t-110 -74t-135 -27zM400 49q63 0 114.5 21t89 59.5t58 91.5t20.5 117t-20.5 117t-58 91.5t-89 60t-114.5 21.5 t-115.5 -21.5t-90 -60t-58 -91.5t-20.5 -117t21.5 -117t59.5 -91.5t90 -59.5t113 -21zM502 201q0 -53 -23 -86t-79 -33q-51 0 -82.5 28.5t-31.5 82.5v386h79v-399q0 -33 13.5 -52.5t39.5 -19.5q27 0 42.5 22.5t15.5 67.5v381h26v-378z" />
<glyph horiz-adv-x="403" d="M368 234q2 -14 2 -26.5v-25.5q0 -42 -7.5 -76.5t-24.5 -59t-44 -38.5t-67 -14q-45 0 -75 18t-48 53.5t-26.5 88t-10.5 121.5h-46v35h46v55h-46v35h47q6 143 42.5 212t121.5 69q38 0 64 -13t41.5 -37t22.5 -57.5t7 -73.5q0 -29 -3 -59h-101q2 32 3.5 58t1.5 46 q0 57 -10 78.5t-30 21.5q-12 0 -20.5 -8.5t-14 -34.5t-8 -74.5t-3.5 -127.5h102v-35h-102v-55h102v-35h-102q0 -76 2 -124t7 -75t13.5 -36.5t22.5 -9.5q11 0 19 5t13.5 18t8.5 34.5t3 53.5q0 19 -1 42t-3 51h101v0z" />
<glyph horiz-adv-x="344" d="M148 -80v75q-62 6 -91 51t-29 119q0 11 0.5 21.5t1.5 21.5h101q-3 -33 -3 -61q0 -55 11.5 -86t34.5 -31q12 0 19.5 9t11.5 24t5.5 34t1.5 38q0 26 -2 47.5t-8.5 40.5t-18.5 36.5t-31 35.5q-16 15 -36.5 32t-39 40.5t-31.5 56.5t-13 80q0 30 6 58.5t19.5 52.5t35 40.5 t52.5 22.5v73h36v-70q66 -3 94.5 -52t28.5 -124q0 -10 -0.5 -20t-1.5 -21h-101q2 10 3 27.5t1 37.5t-2 40.5t-6.5 37.5t-12.5 27.5t-21 10.5q-6 0 -12 -3t-11.5 -13t-8.5 -27.5t-3 -45.5q0 -43 8 -69.5t21.5 -45t32 -33.5t40.5 -34q16 -14 32 -32t29 -41.5t21 -53.5t8 -68 q0 -34 -7.5 -66t-24 -57t-42 -41.5t-62.5 -19.5v-75h-36z" />
<glyph horiz-adv-x="331" d="M156 -7v75q-30 3 -52.5 18t-38 46t-23.5 81t-8 123q0 69 7.5 118t22.5 80.5t37.5 47.5t52.5 20v76h36v-75q59 -4 85.5 -49.5t22.5 -147.5h-94q1 13 1.5 26t0.5 26q0 22 -1.5 43t-5.5 36.5t-10.5 25t-16.5 9.5q-8 0 -13 -9t-7.5 -33.5t-3.5 -68t-1 -113.5q0 -80 1 -129 t4 -75.5t8 -35.5t14 -9q19 0 27 31.5t8 75.5q0 13 -0.5 26t-1.5 27h94q2 -50 -4.5 -85.5t-20 -58t-35 -34t-49.5 -13.5v-75h-36z" />
<glyph horiz-adv-x="351" d="M169 255q-8 -53 -26 -91.5t-51 -58.5h199v-105h-234v86q13 20 18 66.5t5 102.5h-55v35h55l-2 55h-53v35h52q-2 34 -3 62.5t-1 48.5q0 53 11 89.5t29.5 59t42.5 32t50 9.5q60 0 90.5 -43t30.5 -118q0 -24 -3 -51h-97q3 16 4.5 34t1.5 36q0 21 -2 40t-6 33.5t-10 23.5 t-14 9q-7 0 -11 -9t-6 -30t-3 -56t-1 -87q0 -22 -0.5 -42.5t-0.5 -40.5h109v-35h-111q-1 -14 -1.5 -28t-2.5 -27h115v-35h-119z" />
<glyph horiz-adv-x="263" d="M174 355l-9 -347q-1 -44 -10 -74t-23.5 -48.5t-33 -27t-37.5 -8.5q-8 0 -25.5 1.5t-26.5 4.5v33q16 -3 27 -1q14 3 16.5 15t3.5 33l9 419h-50v35h51l3 133q2 86 35.5 122t87.5 36q11 0 25 -1.5t23 -4.5v-30q-8 2 -15 2h-13q-23 -1 -27 -13.5t-5 -35.5l-5 -208h60v-35h-61 z" />
<glyph horiz-adv-x="341" d="M230 165v-165h-109v165h-77v35h77v55h-77v35h74l-103 385h113l83 -327l71 327h36l-86 -385h75v-35h-77v-55h77v-35h-77z" />
<glyph horiz-adv-x="390" d="M336 285q0 -35 -8.5 -64t-26.5 -50l52 -67l-39 -29l-53 67q-26 -12 -63 -12q-46 0 -76 18l-57 -73l-39 29l60 78q-14 20 -20 46.5t-6 56.5q0 35 9 66t29 54l-62 81l39 29l63 -81q27 11 60 11q18 0 33.5 -3.5t28.5 -8.5l64 82l39 -29l-64 -83q20 -23 28.5 -53.5t8.5 -64.5 zM249 282q0 37 -4 61.5t-10.5 39t-16 20.5t-21.5 6q-9 0 -18 -4.5t-16 -17.5t-11 -37.5t-4 -63.5t4 -62t11 -36t16 -17t20 -4t20 4t16 16.5t10.5 35t3.5 59.5z" />
<glyph horiz-adv-x="521" d="M151 467q8 23 27.5 43.5t54.5 20.5q23 0 41.5 -12.5t29.5 -45.5l32 150h35l-23 -107q10 7 22 11t27 4q16 0 31 -6.5t26.5 -22t18 -42.5t6.5 -67v-393h-108v392q0 29 -3.5 51.5t-22.5 22.5q-2 0 -3.5 -0.5t-3.5 -0.5l-23 -111v-354h-74l-21 -100h-36l23 109v383 q0 29 -3.5 51.5t-22.5 22.5q-16 0 -22.5 -17t-7.5 -43v-406h-108v525h108v-58z" />
<glyph horiz-adv-x="344" d="M168 305q-7 -72 -25 -124.5t-58 -75.5h199v-105h-234v86q14 20 18.5 65.5t4.5 102.5q0 13 -0.5 25.5t-0.5 25.5h-54v35h53q-2 46 -3.5 86t-1.5 65q0 53 11 89.5t29.5 59t42.5 32t51 9.5q60 0 90 -42.5t30 -117.5q0 -25 -3 -52h-97q6 31 6 68q0 21 -2 40.5t-5.5 34.5 t-8.5 24t-11 9q-8 0 -13 -5.5t-8 -24.5t-4 -55t-1 -97q0 -65 -3 -123h111v-35h-113z" />
<glyph horiz-adv-x="372" d="M112 -61l12 72q-26 15 -43 42t-27 66t-14 90t-4 113q0 91 8 158.5t27 112t51 66.5t80 22q18 0 33 -3l9 54h32l-11 -65q6 -3 11.5 -6t10.5 -8l13 79h32l-19 -113q12 -23 17.5 -54.5t5.5 -67.5q0 -28 -3 -56h-50l-68 -407q21 9 37 42.5t16 106.5q0 11 -0.5 24t-1.5 27h71 q1 -13 1.5 -26t0.5 -25q0 -40 -7 -74t-22 -58.5t-40 -39t-61 -16.5l-9 -56h-32l9 56q-6 1 -12 1.5t-11 2.5l-10 -60h-32zM151 314v-75t1 -60l76 461q-12 5 -24 5q-14 0 -24 -10.5t-16.5 -45.5t-9.5 -100.5t-3 -174.5zM164 59q6 -22 19 -27l82 492q0 58 -10 84z" />
<glyph horiz-adv-x="456" d="M340 258q2 19 6.5 40t13.5 38.5t23.5 29t35.5 11.5h7.5t8.5 -1v-117q-8 2 -17 2.5t-16 0.5q-22 0 -41 -8t-21 -25v-229h-108v29q-24 -35 -71 -35q-38 0 -62 22.5t-37.5 64.5t-19 102t-5.5 135q0 93 8 161.5t26.5 113t50.5 66.5t80 22q38 0 64 -13t41.5 -37t22.5 -57.5 t7 -73.5q0 -29 -3 -59h-101q2 32 3.5 58t1.5 46q0 58 -10 79t-31 21q-14 0 -22.5 -11t-13.5 -48t-7 -106t-2 -185q0 -82 1 -133.5t5.5 -81t13 -40t22.5 -10.5q16 0 24.5 12.5t13.5 44.5v286h108v-115z" />
<glyph horiz-adv-x="379" d="M117 673h90v52h108v-52h31v-36h-31v-537h-98l-9 63q-8 -25 -26.5 -47t-52.5 -22q-17 0 -33.5 8.5t-29 35t-20.5 74.5t-8 127q0 73 7 121.5t19.5 77.5t30.5 41t39 12q16 0 28 -5.5t21 -14.5t14.5 -20t9.5 -23v109h-90v36zM151 339q0 -49 0.5 -83t3 -55.5t8 -31.5t15.5 -10 q14 0 20.5 16.5t8.5 43.5v235q0 30 -6 51t-23 21q-8 0 -13.5 -7.5t-8.5 -27.5t-4 -57t-1 -95zM37 36h309v-36h-309v36z" />
<glyph horiz-adv-x="449" d="M53 0v675h280v-36h-171v-254h171v-115q2 19 6.5 40t13.5 38.5t23.5 29t35.5 11.5h7.5t8.5 -1v-117q-15 3 -36 3q-19 0 -38 -8t-21 -25v-241h-108v349h-63v-349h-109z" />
<glyph horiz-adv-x="434" d="M296 0l-115 275h-76v-275h-36v275h-39v35h39v55h-39v35h39v275h71l113 -275h78v275h36v-275h36v-35h-36v-55h36v-35h-36v-275h-71zM290 310h41v55h-63zM105 310h61l-23 55h-38v-55zM331 212v63h-26zM105 457v-57h24z" />
<glyph horiz-adv-x="852" d="M341 481q0 -59 -14 -99t-38 -64.5t-55.5 -35t-65.5 -10.5h-6v-272h-109v675h130q29 0 57 -8t50.5 -30t36.5 -59.5t14 -96.5zM822 144q0 -25 -6 -51.5t-21 -48.5t-40.5 -36t-64.5 -14q-26 0 -49.5 7.5t-41.5 26.5t-27 51t-5 80h93q-2 -14 -2 -25v-22q0 -28 3.5 -45t8 -26 t10 -12t10.5 -3q12 0 21.5 19.5t9.5 63.5q0 26 -4.5 44.5t-14.5 33.5t-25.5 29t-37.5 32q-14 11 -27 24.5t-23.5 30.5t-17 38t-6.5 47q0 25 7 50.5t22.5 46t40.5 33.5t61 13q26 0 49.5 -8.5t41 -28t26 -52t4.5 -80.5h-93q3 39 3 63q0 46 -8 60t-18 14q-19 0 -26.5 -24 t-7.5 -53q0 -22 4.5 -38t12 -28t18.5 -22t24 -20q19 -15 36 -31t30.5 -36t21.5 -45t8 -58zM350 525h42l13 105h94v-105h66v-32h-66v-379q0 -44 9 -62.5t30 -18.5q15 0 38 9v-33q-42 -15 -81 -15q-45 0 -74.5 31.5t-29.5 103.5v364h-41v32zM226 485q0 37 -1.5 65.5t-7 48 t-17 30t-32.5 10.5h-6v-331h5q20 0 32 10t18 31.5t7.5 55t1.5 80.5z" />
<glyph horiz-adv-x="631" d="M603 154q0 -32 -12 -61t-35.5 -51t-57 -35t-76.5 -13q-38 0 -73 11t-62 34t-43.5 58.5t-18.5 84.5q-1 22 -2.5 45.5t-8 42t-18.5 30.5t-34 12v-312h-109v675h130q30 0 58 -6.5t50.5 -25.5t36 -52t13.5 -85q0 -48 -11.5 -79t-31.5 -50.5t-46.5 -29.5t-56.5 -16 q23 -2 46.5 -7t43.5 -18.5t33.5 -36.5t15.5 -60v-60q0 -23 3.5 -45.5t13.5 -39.5t28 -27.5t48 -10.5q38 0 56.5 20.5t18.5 68.5q0 23 -4.5 39.5t-14.5 31.5t-25.5 29.5t-37.5 32.5q-14 11 -27 24.5t-23.5 30.5t-17 38t-6.5 47q0 25 7 50.5t22.5 46t40.5 33.5t61 13 q26 0 49.5 -8.5t41 -28t26 -52t4.5 -80.5h-93q3 39 3 63q0 46 -8 60t-18 14q-19 0 -26.5 -24t-7.5 -52q0 -23 4 -38.5t12 -27.5t18.5 -22t24.5 -21q15 -12 32 -27.5t31 -35t23.5 -44t9.5 -53.5zM226 506q0 27 -1.5 51t-7 42.5t-17 29t-32.5 10.5h-6v-291h2q21 0 33 9.5 t18.5 29t8.5 49t2 70.5z" />
<glyph horiz-adv-x="583" d="M53 675h170q54 0 90.5 -17t59 -53t32 -92t9.5 -135v-112h-103v110q0 51 -3.5 98.5t-13 84t-27 58.5t-44.5 22h-66v-639h-104v675zM185 0v375h103v-339h50q28 0 47 19.5t30.5 54t16.5 83t5 106.5v376h104v-378q0 -79 -15 -135t-42 -92t-64 -53t-80 -17h-155z" />
<glyph horiz-adv-x="570" d="M393 430h80l32 245h36l-34 -245h34v-35h-38l-8 -55h46v-35h-51l-41 -305h-82l-57 305h-61l-40 -305h-82l-45 305h-53v35h48l-8 55h-40v35h35l-35 245h108l31 -245h64l30 245h88zM409 340h52l7 55h-69zM439 170l18 135h-42zM180 340h41l7 55h-55zM254 340h49l-10 55h-32z M201 177l16 128h-33zM274 497l-9 -67h22z" />
<glyph horiz-adv-x="365" d="M29 344h31v331h109v-331h12l108 331h36l-68 -217l22 -114h40v-36h-33l59 -308h-109l-58 308h-9v-308h-109v308h-31v36z" />
<glyph horiz-adv-x="305" d="M15 675h274v-36h-81v-225l53 27v-36l-53 -27v-60l53 27v-36l-53 -27v-282h-109v228l-51 -25v36l51 25v60l-51 -25v36l51 25v279h-84v36z" />
<glyph horiz-adv-x="428" d="M357 416q-8 -41 -24 -68.5t-38 -44t-49 -24t-56 -7.5h-6v-272h-109v416h-50v35h50v55h-50v35h50v134h130q25 0 49.5 -6t45 -21t36 -41t22.5 -66h50v-35h-46q1 -6 1 -12.5v-12.5q0 -8 -0.5 -15.5t-0.5 -14.5h46v-35h-51zM189 308q32 0 44 25.5t14 82.5h-63v-108h5z M184 639v-98h63q-2 48 -13.5 73t-43.5 25h-6zM184 506v-55h64v55h-64z" />
<glyph horiz-adv-x="580" d="M133 235q-4 0 -4 -3v-137q0 -10 6 -17q24 -29 65 -52t92 -23q57 0 105 23t80 61h24q-38 -44 -89 -71.5t-120 -27.5q-58 0 -107 20t-84.5 54.5t-55.5 80.5t-20 99t20 99t55.5 80.5t84.5 54.5t107 20t107.5 -20t85.5 -54.5t56 -80.5t20 -99v-7h-428zM456 392q0 5 -0.5 9.5 t-4.5 8.5q-10 13 -27 25.5t-38 22.5t-45 16.5t-49 6.5t-49.5 -7t-45 -17.5t-36.5 -23.5t-25 -26q-3 -5 -5 -9t-2 -10v-133q0 -4 4 -4h322q1 0 1 4v137z" />
<glyph horiz-adv-x="622" d="M280 0l-191 457v-457h-36v675h71l191 -464v464h36v-675h-71zM487 289q-25 0 -44.5 9t-32.5 31t-20 60t-7 95q0 56 6.5 93.5t19.5 60.5t33 33t46 10q25 0 44 -9t32 -31.5t19.5 -60.5t6.5 -95q0 -56 -6.5 -93.5t-19 -60.5t-32 -32.5t-45.5 -9.5zM487 312q7 0 11 5.5t6.5 26 t3 59.5t0.5 106q0 47 -0.5 76.5t-2.5 45.5t-6.5 21.5t-11.5 5.5t-11.5 -5t-6.5 -23t-3 -52t-1 -92t1 -92.5t3 -52.5t6.5 -23.5t11.5 -5.5zM383 267h207v-27h-207v27z" />
<glyph horiz-adv-x="875" d="M89 675h691v-675h-691v675zM187 77h496v520h-496v-520z" />
<glyph horiz-adv-x="875" d="M89 675h691v-675h-691v675zM187 77h496v520h-496v-520zM389 243l247 316l19 -12l-267 -422l-156 140l52 68z" />
<glyph horiz-adv-x="592" d="M245 274l279 356l21 -14l-301 -475l-175 158l58 76z" />
<glyph horiz-adv-x="520" d="M330 286h118l-163 -215l-163 215h111v317h97v-317z" />
<glyph horiz-adv-x="593" d="M276 305v-118l-215 163l215 163v-111h317v-97h-317z" />
<glyph horiz-adv-x="593" d="M0 305v97h317v111l215 -163l-215 -163v118h-317z" />
<glyph horiz-adv-x="520" d="M330 71h-97v317h-111l163 215l163 -215h-118v-317z" />
<glyph horiz-adv-x="174" d="M174 402v-97h-174v97h174z" />
<glyph horiz-adv-x="630" d="M247 385l-83 -84l-37 267l267 -36l-78 -79l224 -224l-69 -69z" />
<glyph horiz-adv-x="630" d="M196 160l-69 69l224 224l-78 79l267 36l-37 -267l-83 84z" />
<glyph horiz-adv-x="630" d="M420 343l83 84l37 -267l-267 36l78 79l-224 224l69 69z" />
<glyph horiz-adv-x="630" d="M471 568l69 -69l-224 -224l78 -79l-267 -36l37 267l83 -84z" />
<glyph horiz-adv-x="163" />
<glyph horiz-adv-x="405" d="M235 204h-142l-47 -204h-38l151 675h89l143 -675h-113zM102 242h125l-60 284z" />
<glyph horiz-adv-x="441" d="M412 187q0 -38 -8 -72t-27 -59.5t-51 -40.5t-80 -15h-191v675h173q37 0 68 -8.5t53.5 -27t35 -49t12.5 -73.5q0 -39 -12.5 -66.5t-33 -46t-47 -29t-54.5 -14.5q31 -5 60.5 -15.5t52 -30.5t36 -51t13.5 -77zM295 185q0 51 -7.5 81.5t-19.5 47t-25.5 21.5t-25.5 5h-52v-304 h57q13 0 26 5.5t23.5 21.5t17 45t6.5 77zM281 508q0 42 -4.5 67.5t-13 40t-19.5 19t-24 4.5h-55v-263h53q13 0 25 5.5t20 20t13 40t5 66.5z" />
<glyph horiz-adv-x="430" d="M398 234q1 -11 1.5 -21.5t0.5 -20.5q0 -44 -10 -80t-31 -62.5t-53.5 -41t-77.5 -14.5q-54 0 -90.5 21t-59.5 62.5t-33 103t-10 142.5q0 181 45 269.5t154 88.5q44 0 74.5 -14.5t50 -40t28.5 -61.5t9 -78v-22.5t-2 -23.5h-102q3 39 3 69q0 77 -17.5 106t-48.5 29 q-18 0 -32.5 -10.5t-24.5 -45t-15.5 -99.5t-5.5 -174q0 -90 4.5 -146t14 -87t23.5 -42t33 -11q15 0 28.5 6.5t23 23t15 44.5t5.5 70v28.5t-2 31.5h102v0z" />
<glyph horiz-adv-x="458" d="M55 0v675h168q93 0 147 -82t54 -247q0 -89 -15 -154t-42.5 -107.5t-65.5 -63.5t-83 -21h-163zM165 639v-603h49q18 0 35 7.5t29.5 38t20.5 91t8 165.5q0 93 -6.5 152t-19 92t-29.5 45t-38 12h-49z" />
<glyph horiz-adv-x="369" d="M55 0v675h287v-36h-177v-272h153v-36h-153v-295h180v-36h-290z" />
<glyph horiz-adv-x="352" d="M55 0v675h285v-36h-175v-283h165v-36h-165v-320h-110z" />
<glyph horiz-adv-x="441" d="M317 77q-13 -45 -40.5 -64t-72.5 -19q-92 0 -130.5 83t-38.5 245q0 181 46.5 270t155.5 89q85 0 122.5 -48t37.5 -131q0 -11 -0.5 -22t-1.5 -23h-102q3 37 3 67q0 38 -4.5 61.5t-13.5 37t-21 18t-27 4.5q-18 0 -33 -10.5t-25 -45t-15.5 -99.5t-5.5 -174q0 -90 4 -146 t12.5 -87t22 -42t32.5 -11q12 0 23 6t20 21t16 40t10 63v135h-74v36h169l15 -16v-315h-30z" />
<glyph horiz-adv-x="481" d="M55 0v675h110v-304h151v304h110v-675h-110v335h-151v-335h-110z" />
<glyph horiz-adv-x="220" d="M55 0v675h110v-675h-110z" />
<glyph horiz-adv-x="395" d="M343 240q0 -49 -5 -93.5t-22.5 -78.5t-50 -54t-87.5 -20q-86 0 -125 48.5t-39 128.5q0 14 1 28.5t3 29.5h105q-6 -53 -6 -90q0 -64 16 -86.5t46 -22.5q17 0 27.5 9.5t16 32.5t7.5 62t2 98v443h111v-435z" />
<glyph horiz-adv-x="411" d="M55 0v675h110v-332h39l142 332h38l-100 -240l120 -435h-116l-87 307h-36v-307h-110z" />
<glyph horiz-adv-x="357" d="M165 675v-639h178v-36h-288v675h110z" />
<glyph horiz-adv-x="586" d="M426 0v465l-126 -465h-80l-129 446v-446h-36v675h81l157 -547l146 547h92v-675h-105z" />
<glyph horiz-adv-x="471" d="M345 0l-254 471v-471h-36v675h71l254 -480v480h36v-675h-71z" />
<glyph horiz-adv-x="457" d="M230 30q19 0 33 10.5t23 45t13.5 99.5t4.5 174q0 90 -3.5 146t-12 87t-22 42t-34.5 11q-20 0 -34.5 -10.5t-25 -45t-15.5 -99.5t-5 -174q0 -89 3.5 -144.5t12.5 -87t24 -43t38 -11.5zM233 681q54 0 90.5 -21.5t58 -63.5t30.5 -104t9 -143q0 -179 -43 -267t-151 -88 q-53 0 -89.5 21t-59 63t-32.5 104t-10 145q0 88 10 154.5t33.5 110.5t61 66.5t92.5 22.5z" />
<glyph horiz-adv-x="420" d="M402 481q0 -59 -16 -99t-42 -64.5t-59 -35t-67 -10.5h-53v-272h-110v675h178q29 0 59 -8t54.5 -30t40 -59.5t15.5 -96.5zM286 484q0 37 -2.5 66t-10 48.5t-20.5 30t-35 10.5h-53v-331h52q43 0 56 41t13 135z" />
<glyph horiz-adv-x="457" d="M233 681q54 0 90.5 -21.5t58 -63.5t30.5 -104t9 -143q0 -164 -35.5 -251t-121.5 -101l16 -94h-40l-11 91h-2q-53 0 -89.5 21t-59 63t-32.5 104t-10 145q0 88 10 154.5t33.5 110.5t61 66.5t92.5 22.5zM243 155l15 -119q12 7 20.5 26t14.5 56t8.5 95.5t2.5 145.5 q0 90 -3.5 146t-12 87t-22 42t-34.5 11q-20 0 -34.5 -10.5t-25 -45t-15.5 -99.5t-5 -174q0 -86 3.5 -141t12 -87t22 -44.5t34.5 -13.5l-18 125h37z" />
<glyph horiz-adv-x="440" d="M404 500q0 -44 -12 -74.5t-32.5 -50t-47 -30t-56.5 -15.5q23 -3 46.5 -9.5t43.5 -20.5t33 -37t15 -58v-56q0 -38 3 -74.5t13 -74.5h-111q-10 35 -12.5 65t-2.5 62v55q0 42 -7.5 67t-18.5 39t-24 18.5t-24 5.5h-45v-312h-110v675h180q30 0 60.5 -7t54.5 -26t39 -53t15 -89 zM288 491q0 34 -2.5 61t-9.5 46.5t-20.5 30t-35.5 10.5h-55v-291h51q42 0 57 34.5t15 108.5z" />
<glyph horiz-adv-x="411" d="M384 183q0 -40 -12.5 -74.5t-36 -60t-57.5 -40t-77 -14.5q-84 0 -127.5 49t-43.5 134v15.5t1 15.5h103q-1 -11 -1.5 -22t-0.5 -22q0 -63 19 -98.5t57 -35.5q35 0 51 33t16 78q0 26 -3 47.5t-13 40t-27.5 35t-45.5 32.5q-20 13 -46 29t-49.5 39t-39.5 56t-16 81 q0 35 10.5 67.5t31.5 57.5t53.5 40t76.5 15q42 0 72.5 -13.5t50.5 -38t29.5 -58t9.5 -73.5q0 -8 -0.5 -16.5t-1.5 -17.5h-102q1 8 2 19.5t1 25.5q0 21 -3 45t-11 44t-21.5 33.5t-35.5 13.5q-13 0 -24.5 -4t-20.5 -15t-14 -29.5t-5 -46.5q0 -43 11 -68.5t29 -43t41.5 -30.5 t49.5 -31q24 -13 46 -30.5t38.5 -40.5t26 -53.5t9.5 -69.5z" />
<glyph horiz-adv-x="366" d="M14 675h338v-36h-112v-639h-111v639h-115v36z" />
<glyph horiz-adv-x="464" d="M413 173q0 -38 -8.5 -71t-29 -57t-53.5 -37.5t-81 -13.5q-87 0 -138 44t-51 123v514h110v-532q0 -51 24.5 -82t78.5 -31q57 0 84.5 36t27.5 102v507h36v-502z" />
<glyph horiz-adv-x="402" d="M236 150l119 525h37l-148 -675h-84l-149 675h111z" />
<glyph horiz-adv-x="626" d="M487 155l86 520h37l-114 -675h-85l-109 513l-83 -513h-84l-119 675h111l84 -516l81 516h87z" />
<glyph horiz-adv-x="376" d="M251 0l-95 276l-109 -276h-37l127 329l-126 346h117l94 -262l97 262h37l-115 -316l130 -359h-120z" />
<glyph horiz-adv-x="398" d="M8 675h117l115 -338l101 338h36l-119 -397v-278h-110v278z" />
<glyph horiz-adv-x="341" d="M137 36h181v-36h-302v31l183 608h-170v36h292v-35z" />
<glyph horiz-adv-x="454" d="M232 681q54 0 90 -21.5t57.5 -63.5t30 -104t8.5 -143q0 -90 -10 -156.5t-32.5 -110.5t-59 -66t-90.5 -22q-53 0 -89.5 21t-59 63t-32 104t-9.5 145q0 88 10 154.5t33 110.5t60.5 66.5t92.5 22.5zM229 30q19 0 33 10.5t23 45t13 99.5t4 174v40l-150 -155q1 -66 6 -107.5 t14 -65t23 -32.5t34 -9zM152 274l149 155q-1 67 -5.5 109.5t-12.5 66t-21 32t-31 8.5q-20 0 -34.5 -10.5t-24.5 -45t-15 -99.5t-5 -174v-42z" />
<glyph horiz-adv-x="454" d="M229 30q19 0 33 10.5t23 45t13 99.5t4 174q0 90 -3.5 146t-11.5 87t-21.5 42t-34.5 11q-20 0 -34.5 -10.5t-24.5 -45t-15 -99.5t-5 -174q0 -89 3.5 -144.5t12.5 -87t23.5 -43t37.5 -11.5zM232 681q54 0 90 -21.5t57.5 -63.5t30 -104t8.5 -143q0 -90 -10 -156.5 t-32.5 -110.5t-59 -66t-90.5 -22q-53 0 -89.5 21t-59 63t-32 104t-9.5 145q0 88 10 154.5t33 110.5t60.5 66.5t92.5 22.5z" />
<glyph horiz-adv-x="237" d="M69 0v558h-51v32q24 0 47 6.5t41 18.5t29 28t11 35h34v-678h-111z" />
<glyph horiz-adv-x="419" d="M207 645q-12 0 -24.5 -5.5t-22 -20.5t-15.5 -40.5t-6 -65.5q0 -24 3 -54h-103q-1 10 -1.5 18.5t-0.5 17.5q0 90 44.5 138t129.5 48q51 0 85 -16.5t53.5 -42t27.5 -56.5t8 -59q0 -58 -23 -102t-57.5 -78.5t-75 -62.5t-75.5 -53.5t-59 -50.5t-26 -54h317v-106h-357v62 q0 54 18 92t44.5 69.5t57.5 61t57.5 66.5t44.5 85.5t18 118.5q0 4 -2 18.5t-8.5 30.5t-18.5 28.5t-33 12.5z" />
</font>
</defs>
</svg>
